<?xml version="1.0" encoding="utf-8" standalone="no"?>
<!DOCTYPE svg PUBLIC "-//W3C//DTD SVG 1.1//EN"
  "http://www.w3.org/Graphics/SVG/1.1/DTD/svg11.dtd">
<svg xmlns:xlink="http://www.w3.org/1999/xlink" width="5040pt" height="5040pt" viewBox="0 0 5040 5040" xmlns="http://www.w3.org/2000/svg" version="1.1">
 <metadata>
  <rdf:RDF xmlns:dc="http://purl.org/dc/elements/1.1/" xmlns:cc="http://creativecommons.org/ns#" xmlns:rdf="http://www.w3.org/1999/02/22-rdf-syntax-ns#">
   <cc:Work>
    <dc:type rdf:resource="http://purl.org/dc/dcmitype/StillImage"/>
    <dc:date>2024-08-25T20:26:24.226541</dc:date>
    <dc:format>image/svg+xml</dc:format>
    <dc:creator>
     <cc:Agent>
      <dc:title>Matplotlib v3.7.0, https://matplotlib.org/</dc:title>
     </cc:Agent>
    </dc:creator>
   </cc:Work>
  </rdf:RDF>
 </metadata>
 <defs>
  <style type="text/css">*{stroke-linejoin: round; stroke-linecap: butt}</style>
 </defs>
 <g id="figure_1">
  <g id="patch_1">
   <path d="M 0 5040 
L 5040 5040 
L 5040 0 
L 0 0 
z
" style="fill: #ffffff"/>
  </g>
  <g id="axes_1">
   <g id="patch_2">
    <path d="M 71.564504 3402.56609 
L 5027.04 3402.56609 
L 5027.04 1637.43391 
L 71.564504 1637.43391 
z
" style="fill: #ffffff"/>
   </g>
   <g id="matplotlib.axis_1">
    <g id="xtick_1">
     <g id="line2d_1">
      <path d="M 583.493791 3402.56609 
L 583.493791 1637.43391 
" clip-path="url(#peccef7c059)" style="fill: none; stroke: #cccccc; stroke-linecap: round"/>
     </g>
     <g id="text_1">
      <!-- 16 -->
      <g style="fill: #262626" transform="translate(545.318791 3387.051428) scale(0.6 -0.6)">
       <defs>
        <path id="DejaVuSerif-31" d="M 909 0 
L 909 331 
L 1722 331 
L 1722 4213 
L 781 3603 
L 781 4013 
L 1919 4750 
L 2350 4750 
L 2350 331 
L 3163 331 
L 3163 0 
L 909 0 
z
" transform="scale(0.015625)"/>
        <path id="DejaVuSerif-36" d="M 2094 219 
Q 2534 219 2771 542 
Q 3009 866 3009 1472 
Q 3009 2078 2771 2401 
Q 2534 2725 2094 2725 
Q 1647 2725 1412 2412 
Q 1178 2100 1178 1509 
Q 1178 888 1415 553 
Q 1653 219 2094 219 
z
M 1075 2569 
Q 1288 2803 1556 2918 
Q 1825 3034 2163 3034 
Q 2859 3034 3264 2615 
Q 3669 2197 3669 1472 
Q 3669 763 3233 336 
Q 2797 -91 2069 -91 
Q 1278 -91 853 498 
Q 428 1088 428 2181 
Q 428 3406 931 4078 
Q 1434 4750 2350 4750 
Q 2597 4750 2869 4703 
Q 3141 4656 3425 4563 
L 3425 3794 
L 3072 3794 
Q 3034 4109 2831 4275 
Q 2628 4441 2284 4441 
Q 1678 4441 1381 3981 
Q 1084 3522 1075 2569 
z
" transform="scale(0.015625)"/>
       </defs>
       <use xlink:href="#DejaVuSerif-31"/>
       <use xlink:href="#DejaVuSerif-36" x="63.623047"/>
      </g>
     </g>
    </g>
    <g id="xtick_2">
     <g id="line2d_2">
      <path d="M 829.219849 3402.56609 
L 829.219849 1637.43391 
" clip-path="url(#peccef7c059)" style="fill: none; stroke: #cccccc; stroke-linecap: round"/>
     </g>
     <g id="text_2">
      <!-- 28 -->
      <g style="fill: #262626" transform="translate(791.044849 3387.051428) scale(0.6 -0.6)">
       <defs>
        <path id="DejaVuSerif-32" d="M 819 3553 
L 469 3553 
L 469 4384 
Q 803 4563 1142 4656 
Q 1481 4750 1806 4750 
Q 2534 4750 2956 4397 
Q 3378 4044 3378 3438 
Q 3378 2753 2422 1800 
Q 2347 1728 2309 1691 
L 1131 513 
L 3078 513 
L 3078 1088 
L 3444 1088 
L 3444 0 
L 434 0 
L 434 341 
L 1850 1753 
Q 2319 2222 2519 2614 
Q 2719 3006 2719 3438 
Q 2719 3909 2473 4175 
Q 2228 4441 1797 4441 
Q 1350 4441 1106 4219 
Q 863 3997 819 3553 
z
" transform="scale(0.015625)"/>
        <path id="DejaVuSerif-38" d="M 2981 1275 
Q 2981 1775 2732 2051 
Q 2484 2328 2034 2328 
Q 1584 2328 1336 2051 
Q 1088 1775 1088 1275 
Q 1088 772 1336 495 
Q 1584 219 2034 219 
Q 2484 219 2732 495 
Q 2981 772 2981 1275 
z
M 2853 3541 
Q 2853 3966 2637 4203 
Q 2422 4441 2034 4441 
Q 1650 4441 1433 4203 
Q 1216 3966 1216 3541 
Q 1216 3113 1433 2875 
Q 1650 2638 2034 2638 
Q 2422 2638 2637 2875 
Q 2853 3113 2853 3541 
z
M 2516 2484 
Q 3047 2413 3344 2092 
Q 3641 1772 3641 1275 
Q 3641 619 3225 264 
Q 2809 -91 2034 -91 
Q 1263 -91 845 264 
Q 428 619 428 1275 
Q 428 1772 725 2092 
Q 1022 2413 1556 2484 
Q 1084 2569 832 2842 
Q 581 3116 581 3541 
Q 581 4103 968 4426 
Q 1356 4750 2034 4750 
Q 2713 4750 3100 4426 
Q 3488 4103 3488 3541 
Q 3488 3116 3236 2842 
Q 2984 2569 2516 2484 
z
" transform="scale(0.015625)"/>
       </defs>
       <use xlink:href="#DejaVuSerif-32"/>
       <use xlink:href="#DejaVuSerif-38" x="63.623047"/>
      </g>
     </g>
    </g>
    <g id="xtick_3">
     <g id="line2d_3">
      <path d="M 1074.945906 3402.56609 
L 1074.945906 1637.43391 
" clip-path="url(#peccef7c059)" style="fill: none; stroke: #cccccc; stroke-linecap: round"/>
     </g>
     <g id="text_3">
      <!-- 40 -->
      <g style="fill: #262626" transform="translate(1036.770906 3387.051428) scale(0.6 -0.6)">
       <defs>
        <path id="DejaVuSerif-34" d="M 2234 1581 
L 2234 4063 
L 641 1581 
L 2234 1581 
z
M 3609 0 
L 1484 0 
L 1484 331 
L 2234 331 
L 2234 1247 
L 197 1247 
L 197 1588 
L 2241 4750 
L 2859 4750 
L 2859 1581 
L 3750 1581 
L 3750 1247 
L 2859 1247 
L 2859 331 
L 3609 331 
L 3609 0 
z
" transform="scale(0.015625)"/>
        <path id="DejaVuSerif-30" d="M 2034 219 
Q 2513 219 2750 744 
Q 2988 1269 2988 2328 
Q 2988 3391 2750 3916 
Q 2513 4441 2034 4441 
Q 1556 4441 1318 3916 
Q 1081 3391 1081 2328 
Q 1081 1269 1318 744 
Q 1556 219 2034 219 
z
M 2034 -91 
Q 1275 -91 848 546 
Q 422 1184 422 2328 
Q 422 3475 848 4112 
Q 1275 4750 2034 4750 
Q 2797 4750 3222 4112 
Q 3647 3475 3647 2328 
Q 3647 1184 3222 546 
Q 2797 -91 2034 -91 
z
" transform="scale(0.015625)"/>
       </defs>
       <use xlink:href="#DejaVuSerif-34"/>
       <use xlink:href="#DejaVuSerif-30" x="63.623047"/>
      </g>
     </g>
    </g>
    <g id="xtick_4">
     <g id="line2d_4">
      <path d="M 1238.763278 3402.56609 
L 1238.763278 1637.43391 
" clip-path="url(#peccef7c059)" style="fill: none; stroke: #cccccc; stroke-linecap: round"/>
     </g>
     <g id="text_4">
      <!-- 48 -->
      <g style="fill: #262626" transform="translate(1200.588278 3387.051428) scale(0.6 -0.6)">
       <use xlink:href="#DejaVuSerif-34"/>
       <use xlink:href="#DejaVuSerif-38" x="63.623047"/>
      </g>
     </g>
    </g>
    <g id="xtick_5">
     <g id="line2d_5">
      <path d="M 1402.58065 3402.56609 
L 1402.58065 1637.43391 
" clip-path="url(#peccef7c059)" style="fill: none; stroke: #cccccc; stroke-linecap: round"/>
     </g>
     <g id="text_5">
      <!-- 56 -->
      <g style="fill: #262626" transform="translate(1364.40565 3387.051428) scale(0.6 -0.6)">
       <defs>
        <path id="DejaVuSerif-35" d="M 3219 4666 
L 3219 4153 
L 1081 4153 
L 1081 2816 
Q 1244 2928 1461 2984 
Q 1678 3041 1947 3041 
Q 2703 3041 3140 2622 
Q 3578 2203 3578 1478 
Q 3578 738 3136 323 
Q 2694 -91 1894 -91 
Q 1572 -91 1234 -12 
Q 897 66 544 225 
L 544 1131 
L 897 1131 
Q 925 688 1179 453 
Q 1434 219 1894 219 
Q 2388 219 2653 544 
Q 2919 869 2919 1478 
Q 2919 2084 2655 2407 
Q 2391 2731 1894 2731 
Q 1613 2731 1398 2631 
Q 1184 2531 1019 2322 
L 750 2322 
L 750 4666 
L 3219 4666 
z
" transform="scale(0.015625)"/>
       </defs>
       <use xlink:href="#DejaVuSerif-35"/>
       <use xlink:href="#DejaVuSerif-36" x="63.623047"/>
      </g>
     </g>
    </g>
    <g id="xtick_6">
     <g id="line2d_6">
      <path d="M 1730.215393 3402.56609 
L 1730.215393 1637.43391 
" clip-path="url(#peccef7c059)" style="fill: none; stroke: #cccccc; stroke-linecap: round"/>
     </g>
     <g id="text_6">
      <!-- 72 -->
      <g style="fill: #262626" transform="translate(1692.040393 3387.051428) scale(0.6 -0.6)">
       <defs>
        <path id="DejaVuSerif-37" d="M 3609 4347 
L 1784 0 
L 1319 0 
L 3059 4153 
L 903 4153 
L 903 3578 
L 538 3578 
L 538 4666 
L 3609 4666 
L 3609 4347 
z
" transform="scale(0.015625)"/>
       </defs>
       <use xlink:href="#DejaVuSerif-37"/>
       <use xlink:href="#DejaVuSerif-32" x="63.623047"/>
      </g>
     </g>
    </g>
    <g id="xtick_7">
     <g id="line2d_7">
      <path d="M 2139.758823 3402.56609 
L 2139.758823 1637.43391 
" clip-path="url(#peccef7c059)" style="fill: none; stroke: #cccccc; stroke-linecap: round"/>
     </g>
     <g id="text_7">
      <!-- 92 -->
      <g style="fill: #262626" transform="translate(2101.583823 3387.051428) scale(0.6 -0.6)">
       <defs>
        <path id="DejaVuSerif-39" d="M 2994 2091 
Q 2784 1856 2512 1740 
Q 2241 1625 1900 1625 
Q 1206 1625 804 2044 
Q 403 2463 403 3188 
Q 403 3897 839 4323 
Q 1275 4750 2003 4750 
Q 2794 4750 3217 4161 
Q 3641 3572 3641 2478 
Q 3641 1253 3137 581 
Q 2634 -91 1722 -91 
Q 1475 -91 1203 -44 
Q 931 3 647 97 
L 647 872 
L 997 872 
Q 1038 556 1241 387 
Q 1444 219 1784 219 
Q 2391 219 2687 676 
Q 2984 1134 2994 2091 
z
M 1978 4441 
Q 1534 4441 1298 4117 
Q 1063 3794 1063 3188 
Q 1063 2581 1298 2256 
Q 1534 1931 1978 1931 
Q 2422 1931 2658 2245 
Q 2894 2559 2894 3150 
Q 2894 3772 2656 4106 
Q 2419 4441 1978 4441 
z
" transform="scale(0.015625)"/>
       </defs>
       <use xlink:href="#DejaVuSerif-39"/>
       <use xlink:href="#DejaVuSerif-32" x="63.623047"/>
      </g>
     </g>
    </g>
    <g id="xtick_8">
     <g id="line2d_8">
      <path d="M 2549.302252 3402.56609 
L 2549.302252 1637.43391 
" clip-path="url(#peccef7c059)" style="fill: none; stroke: #cccccc; stroke-linecap: round"/>
     </g>
     <g id="text_8">
      <!-- 112 -->
      <g style="fill: #262626" transform="translate(2492.039752 3387.051428) scale(0.6 -0.6)">
       <use xlink:href="#DejaVuSerif-31"/>
       <use xlink:href="#DejaVuSerif-31" x="63.623047"/>
       <use xlink:href="#DejaVuSerif-32" x="127.246094"/>
      </g>
     </g>
    </g>
    <g id="xtick_9">
     <g id="line2d_9">
      <path d="M 2876.936996 3402.56609 
L 2876.936996 1637.43391 
" clip-path="url(#peccef7c059)" style="fill: none; stroke: #cccccc; stroke-linecap: round"/>
     </g>
     <g id="text_9">
      <!-- 128 -->
      <g style="fill: #262626" transform="translate(2819.674496 3387.051428) scale(0.6 -0.6)">
       <use xlink:href="#DejaVuSerif-31"/>
       <use xlink:href="#DejaVuSerif-32" x="63.623047"/>
       <use xlink:href="#DejaVuSerif-38" x="127.246094"/>
      </g>
     </g>
    </g>
    <g id="xtick_10">
     <g id="line2d_10">
      <path d="M 3040.754367 3402.56609 
L 3040.754367 1637.43391 
" clip-path="url(#peccef7c059)" style="fill: none; stroke: #cccccc; stroke-linecap: round"/>
     </g>
     <g id="text_10">
      <!-- 136 -->
      <g style="fill: #262626" transform="translate(2983.491867 3387.051428) scale(0.6 -0.6)">
       <defs>
        <path id="DejaVuSerif-33" d="M 622 4469 
Q 988 4606 1323 4678 
Q 1659 4750 1953 4750 
Q 2638 4750 3022 4454 
Q 3406 4159 3406 3634 
Q 3406 3213 3140 2930 
Q 2875 2647 2388 2547 
Q 2963 2466 3280 2130 
Q 3597 1794 3597 1259 
Q 3597 606 3158 257 
Q 2719 -91 1894 -91 
Q 1528 -91 1179 -12 
Q 831 66 488 225 
L 488 1131 
L 838 1131 
Q 869 681 1141 450 
Q 1413 219 1906 219 
Q 2384 219 2661 495 
Q 2938 772 2938 1253 
Q 2938 1803 2653 2086 
Q 2369 2369 1819 2369 
L 1522 2369 
L 1522 2688 
L 1678 2688 
Q 2225 2688 2498 2914 
Q 2772 3141 2772 3597 
Q 2772 4006 2547 4223 
Q 2322 4441 1900 4441 
Q 1478 4441 1245 4241 
Q 1013 4041 972 3647 
L 622 3647 
L 622 4469 
z
" transform="scale(0.015625)"/>
       </defs>
       <use xlink:href="#DejaVuSerif-31"/>
       <use xlink:href="#DejaVuSerif-33" x="63.623047"/>
       <use xlink:href="#DejaVuSerif-36" x="127.246094"/>
      </g>
     </g>
    </g>
    <g id="xtick_11">
     <g id="line2d_11">
      <path d="M 3450.297797 3402.56609 
L 3450.297797 1637.43391 
" clip-path="url(#peccef7c059)" style="fill: none; stroke: #cccccc; stroke-linecap: round"/>
     </g>
     <g id="text_11">
      <!-- 156 -->
      <g style="fill: #262626" transform="translate(3393.035297 3387.051428) scale(0.6 -0.6)">
       <use xlink:href="#DejaVuSerif-31"/>
       <use xlink:href="#DejaVuSerif-35" x="63.623047"/>
       <use xlink:href="#DejaVuSerif-36" x="127.246094"/>
      </g>
     </g>
    </g>
    <g id="xtick_12">
     <g id="line2d_12">
      <path d="M 3777.93254 3402.56609 
L 3777.93254 1637.43391 
" clip-path="url(#peccef7c059)" style="fill: none; stroke: #cccccc; stroke-linecap: round"/>
     </g>
     <g id="text_12">
      <!-- 172 -->
      <g style="fill: #262626" transform="translate(3720.67004 3387.051428) scale(0.6 -0.6)">
       <use xlink:href="#DejaVuSerif-31"/>
       <use xlink:href="#DejaVuSerif-37" x="63.623047"/>
       <use xlink:href="#DejaVuSerif-32" x="127.246094"/>
      </g>
     </g>
    </g>
    <g id="xtick_13">
     <g id="line2d_13">
      <path d="M 4023.658598 3402.56609 
L 4023.658598 1637.43391 
" clip-path="url(#peccef7c059)" style="fill: none; stroke: #cccccc; stroke-linecap: round"/>
     </g>
     <g id="text_13">
      <!-- 184 -->
      <g style="fill: #262626" transform="translate(3966.396098 3387.051428) scale(0.6 -0.6)">
       <use xlink:href="#DejaVuSerif-31"/>
       <use xlink:href="#DejaVuSerif-38" x="63.623047"/>
       <use xlink:href="#DejaVuSerif-34" x="127.246094"/>
      </g>
     </g>
    </g>
    <g id="xtick_14">
     <g id="line2d_14">
      <path d="M 4433.202027 3402.56609 
L 4433.202027 1637.43391 
" clip-path="url(#peccef7c059)" style="fill: none; stroke: #cccccc; stroke-linecap: round"/>
     </g>
     <g id="text_14">
      <!-- 204 -->
      <g style="fill: #262626" transform="translate(4375.939527 3387.051428) scale(0.6 -0.6)">
       <use xlink:href="#DejaVuSerif-32"/>
       <use xlink:href="#DejaVuSerif-30" x="63.623047"/>
       <use xlink:href="#DejaVuSerif-34" x="127.246094"/>
      </g>
     </g>
    </g>
    <g id="xtick_15">
     <g id="line2d_15">
      <path d="M 4597.019399 3402.56609 
L 4597.019399 1637.43391 
" clip-path="url(#peccef7c059)" style="fill: none; stroke: #cccccc; stroke-linecap: round"/>
     </g>
     <g id="text_15">
      <!-- 212 -->
      <g style="fill: #262626" transform="translate(4539.756899 3387.051428) scale(0.6 -0.6)">
       <use xlink:href="#DejaVuSerif-32"/>
       <use xlink:href="#DejaVuSerif-31" x="63.623047"/>
       <use xlink:href="#DejaVuSerif-32" x="127.246094"/>
      </g>
     </g>
    </g>
    <g id="xtick_16">
     <g id="line2d_16">
      <path d="M 4842.745457 3402.56609 
L 4842.745457 1637.43391 
" clip-path="url(#peccef7c059)" style="fill: none; stroke: #cccccc; stroke-linecap: round"/>
     </g>
     <g id="text_16">
      <!-- 224 -->
      <g style="fill: #262626" transform="translate(4785.482957 3387.051428) scale(0.6 -0.6)">
       <use xlink:href="#DejaVuSerif-32"/>
       <use xlink:href="#DejaVuSerif-32" x="63.623047"/>
       <use xlink:href="#DejaVuSerif-34" x="127.246094"/>
      </g>
     </g>
    </g>
    <g id="text_17">
     <!-- Time(s) -->
     <g style="fill: #262626" transform="translate(2396.483502 3467.35359) scale(0.8 -0.8)">
      <defs>
       <path id="DejaVuSerif-54" d="M 1222 0 
L 1222 331 
L 1819 331 
L 1819 4294 
L 447 4294 
L 447 3566 
L 63 3566 
L 63 4666 
L 4206 4666 
L 4206 3566 
L 3822 3566 
L 3822 4294 
L 2450 4294 
L 2450 331 
L 3047 331 
L 3047 0 
L 1222 0 
z
" transform="scale(0.015625)"/>
       <path id="DejaVuSerif-69" d="M 622 4353 
Q 622 4497 726 4603 
Q 831 4709 978 4709 
Q 1122 4709 1226 4603 
Q 1331 4497 1331 4353 
Q 1331 4206 1228 4103 
Q 1125 4000 978 4000 
Q 831 4000 726 4103 
Q 622 4206 622 4353 
z
M 1356 331 
L 1900 331 
L 1900 0 
L 231 0 
L 231 331 
L 781 331 
L 781 2988 
L 231 2988 
L 231 3322 
L 1356 3322 
L 1356 331 
z
" transform="scale(0.015625)"/>
       <path id="DejaVuSerif-6d" d="M 3316 2675 
Q 3481 3041 3739 3227 
Q 3997 3413 4341 3413 
Q 4863 3413 5119 3089 
Q 5375 2766 5375 2113 
L 5375 331 
L 5894 331 
L 5894 0 
L 4300 0 
L 4300 331 
L 4800 331 
L 4800 2047 
Q 4800 2556 4650 2772 
Q 4500 2988 4153 2988 
Q 3769 2988 3567 2697 
Q 3366 2406 3366 1850 
L 3366 331 
L 3866 331 
L 3866 0 
L 2291 0 
L 2291 331 
L 2791 331 
L 2791 2069 
Q 2791 2566 2641 2777 
Q 2491 2988 2144 2988 
Q 1759 2988 1557 2697 
Q 1356 2406 1356 1850 
L 1356 331 
L 1856 331 
L 1856 0 
L 263 0 
L 263 331 
L 781 331 
L 781 2994 
L 231 2994 
L 231 3322 
L 1356 3322 
L 1356 2731 
Q 1516 3063 1762 3238 
Q 2009 3413 2322 3413 
Q 2709 3413 2968 3220 
Q 3228 3028 3316 2675 
z
" transform="scale(0.015625)"/>
       <path id="DejaVuSerif-65" d="M 3469 1600 
L 991 1600 
L 991 1575 
Q 991 903 1244 561 
Q 1497 219 1991 219 
Q 2369 219 2611 417 
Q 2853 616 2950 1006 
L 3413 1006 
Q 3275 459 2904 184 
Q 2534 -91 1931 -91 
Q 1203 -91 761 389 
Q 319 869 319 1663 
Q 319 2450 753 2931 
Q 1188 3413 1894 3413 
Q 2647 3413 3050 2948 
Q 3453 2484 3469 1600 
z
M 2791 1931 
Q 2772 2513 2545 2808 
Q 2319 3103 1894 3103 
Q 1497 3103 1269 2806 
Q 1041 2509 991 1931 
L 2791 1931 
z
" transform="scale(0.015625)"/>
       <path id="DejaVuSerif-28" d="M 2041 -997 
Q 1281 -656 893 83 
Q 506 822 506 1931 
Q 506 3044 893 3783 
Q 1281 4522 2041 4863 
L 2041 4556 
Q 1559 4225 1350 3623 
Q 1141 3022 1141 1931 
Q 1141 844 1350 242 
Q 1559 -359 2041 -691 
L 2041 -997 
z
" transform="scale(0.015625)"/>
       <path id="DejaVuSerif-73" d="M 359 184 
L 359 959 
L 691 959 
Q 703 588 923 403 
Q 1144 219 1575 219 
Q 1963 219 2166 364 
Q 2369 509 2369 788 
Q 2369 1006 2220 1140 
Q 2072 1275 1594 1428 
L 1178 1569 
Q 750 1706 558 1912 
Q 366 2119 366 2438 
Q 366 2894 700 3153 
Q 1034 3413 1625 3413 
Q 1888 3413 2178 3344 
Q 2469 3275 2778 3144 
L 2778 2419 
L 2447 2419 
Q 2434 2741 2221 2922 
Q 2009 3103 1644 3103 
Q 1281 3103 1095 2975 
Q 909 2847 909 2591 
Q 909 2381 1050 2254 
Q 1191 2128 1613 1997 
L 2069 1856 
Q 2541 1709 2748 1489 
Q 2956 1269 2956 922 
Q 2956 450 2595 179 
Q 2234 -91 1600 -91 
Q 1278 -91 972 -22 
Q 666 47 359 184 
z
" transform="scale(0.015625)"/>
       <path id="DejaVuSerif-29" d="M 453 -997 
L 453 -691 
Q 934 -359 1145 242 
Q 1356 844 1356 1931 
Q 1356 3022 1145 3623 
Q 934 4225 453 4556 
L 453 4863 
Q 1216 4522 1603 3783 
Q 1991 3044 1991 1931 
Q 1991 822 1603 83 
Q 1216 -656 453 -997 
z
" transform="scale(0.015625)"/>
      </defs>
      <use xlink:href="#DejaVuSerif-54"/>
      <use xlink:href="#DejaVuSerif-69" x="66.699219"/>
      <use xlink:href="#DejaVuSerif-6d" x="98.681641"/>
      <use xlink:href="#DejaVuSerif-65" x="193.505859"/>
      <use xlink:href="#DejaVuSerif-28" x="252.685547"/>
      <use xlink:href="#DejaVuSerif-73" x="291.699219"/>
      <use xlink:href="#DejaVuSerif-29" x="343.017578"/>
     </g>
    </g>
   </g>
   <g id="patch_3">
    <path d="M 255.859047 3310.418819 
L 583.493791 3310.418819 
L 583.493791 1877.016816 
L 255.859047 1877.016816 
z
" clip-path="url(#peccef7c059)" style="fill: #1ea4a4; stroke: #1ea4a4; stroke-linejoin: miter"/>
   </g>
   <g id="patch_4">
    <path d="M 583.493791 3310.418819 
L 829.219849 3310.418819 
L 829.219849 1877.016816 
L 583.493791 1877.016816 
z
" clip-path="url(#peccef7c059)" style="fill: #c8c8c8; stroke: #c8c8c8; stroke-linejoin: miter"/>
   </g>
   <g id="patch_5">
    <path d="M 829.219849 3310.418819 
L 1074.945906 3310.418819 
L 1074.945906 1877.016816 
L 829.219849 1877.016816 
z
" clip-path="url(#peccef7c059)" style="fill: #1ea4a4; stroke: #1ea4a4; stroke-linejoin: miter"/>
   </g>
   <g id="patch_6">
    <path d="M 1074.945906 3310.418819 
L 1238.763278 3310.418819 
L 1238.763278 1877.016816 
L 1074.945906 1877.016816 
z
" clip-path="url(#peccef7c059)" style="fill: #c8c8c8; stroke: #c8c8c8; stroke-linejoin: miter"/>
   </g>
   <g id="patch_7">
    <path d="M 1238.763278 3310.418819 
L 1402.58065 3310.418819 
L 1402.58065 1877.016816 
L 1238.763278 1877.016816 
z
" clip-path="url(#peccef7c059)" style="fill: #1ea4a4; stroke: #1ea4a4; stroke-linejoin: miter"/>
   </g>
   <g id="patch_8">
    <path d="M 1402.58065 3310.418819 
L 1730.215393 3310.418819 
L 1730.215393 1877.016816 
L 1402.58065 1877.016816 
z
" clip-path="url(#peccef7c059)" style="fill: #c8c8c8; stroke: #c8c8c8; stroke-linejoin: miter"/>
   </g>
   <g id="patch_9">
    <path d="M 1730.215393 3310.418819 
L 2139.758823 3310.418819 
L 2139.758823 1877.016816 
L 1730.215393 1877.016816 
z
" clip-path="url(#peccef7c059)" style="fill: #1ea4a4; stroke: #1ea4a4; stroke-linejoin: miter"/>
   </g>
   <g id="patch_10">
    <path d="M 2139.758823 3310.418819 
L 2549.302252 3310.418819 
L 2549.302252 1877.016816 
L 2139.758823 1877.016816 
z
" clip-path="url(#peccef7c059)" style="fill: #c8c8c8; stroke: #c8c8c8; stroke-linejoin: miter"/>
   </g>
   <g id="patch_11">
    <path d="M 2549.302252 3310.418819 
L 2876.936996 3310.418819 
L 2876.936996 1877.016816 
L 2549.302252 1877.016816 
z
" clip-path="url(#peccef7c059)" style="fill: #1ea4a4; stroke: #1ea4a4; stroke-linejoin: miter"/>
   </g>
   <g id="patch_12">
    <path d="M 2876.936996 3310.418819 
L 3040.754367 3310.418819 
L 3040.754367 1877.016816 
L 2876.936996 1877.016816 
z
" clip-path="url(#peccef7c059)" style="fill: #c8c8c8; stroke: #c8c8c8; stroke-linejoin: miter"/>
   </g>
   <g id="patch_13">
    <path d="M 3040.754367 3310.418819 
L 3450.297797 3310.418819 
L 3450.297797 1877.016816 
L 3040.754367 1877.016816 
z
" clip-path="url(#peccef7c059)" style="fill: #1ea4a4; stroke: #1ea4a4; stroke-linejoin: miter"/>
   </g>
   <g id="patch_14">
    <path d="M 3450.297797 3310.418819 
L 3777.93254 3310.418819 
L 3777.93254 1877.016816 
L 3450.297797 1877.016816 
z
" clip-path="url(#peccef7c059)" style="fill: #c8c8c8; stroke: #c8c8c8; stroke-linejoin: miter"/>
   </g>
   <g id="patch_15">
    <path d="M 3777.93254 3310.418819 
L 4023.658598 3310.418819 
L 4023.658598 1877.016816 
L 3777.93254 1877.016816 
z
" clip-path="url(#peccef7c059)" style="fill: #1ea4a4; stroke: #1ea4a4; stroke-linejoin: miter"/>
   </g>
   <g id="patch_16">
    <path d="M 4023.658598 3310.418819 
L 4433.202027 3310.418819 
L 4433.202027 1877.016816 
L 4023.658598 1877.016816 
z
" clip-path="url(#peccef7c059)" style="fill: #c8c8c8; stroke: #c8c8c8; stroke-linejoin: miter"/>
   </g>
   <g id="patch_17">
    <path d="M 4433.202027 3310.418819 
L 4597.019399 3310.418819 
L 4597.019399 1877.016816 
L 4433.202027 1877.016816 
z
" clip-path="url(#peccef7c059)" style="fill: #1ea4a4; stroke: #1ea4a4; stroke-linejoin: miter"/>
   </g>
   <g id="patch_18">
    <path d="M 4597.019399 3310.418819 
L 4842.745457 3310.418819 
L 4842.745457 1877.016816 
L 4597.019399 1877.016816 
z
" clip-path="url(#peccef7c059)" style="fill: #c8c8c8; stroke: #c8c8c8; stroke-linejoin: miter"/>
   </g>
   <g id="patch_19">
    <path d="M 271.216926 2250.725195 
C 275.289883 2250.725195 279.196571 2249.106992 282.076586 2246.226977 
C 284.956602 2243.346961 286.574805 2239.440274 286.574805 2235.367317 
C 286.574805 2231.29436 284.956602 2227.387672 282.076586 2224.507656 
C 279.196571 2221.627641 275.289883 2220.009438 271.216926 2220.009438 
C 267.143969 2220.009438 263.237281 2221.627641 260.357266 2224.507656 
C 257.47725 2227.387672 255.859047 2231.29436 255.859047 2235.367317 
C 255.859047 2239.440274 257.47725 2243.346961 260.357266 2246.226977 
C 263.237281 2249.106992 267.143969 2250.725195 271.216926 2250.725195 
z
" clip-path="url(#peccef7c059)" style="stroke: #000000; stroke-linejoin: miter"/>
   </g>
   <g id="patch_20">
    <path d="M 353.125612 2250.725195 
C 357.198569 2250.725195 361.105256 2249.106992 363.985272 2246.226977 
C 366.865287 2243.346961 368.48349 2239.440274 368.48349 2235.367317 
C 368.48349 2231.29436 366.865287 2227.387672 363.985272 2224.507656 
C 361.105256 2221.627641 357.198569 2220.009438 353.125612 2220.009438 
C 349.052655 2220.009438 345.145967 2221.627641 342.265952 2224.507656 
C 339.385936 2227.387672 337.767733 2231.29436 337.767733 2235.367317 
C 337.767733 2239.440274 339.385936 2243.346961 342.265952 2246.226977 
C 345.145967 2249.106992 349.052655 2250.725195 353.125612 2250.725195 
z
" clip-path="url(#peccef7c059)" style="stroke: #000000; stroke-linejoin: miter"/>
   </g>
   <g id="patch_21">
    <path d="M 435.034298 2250.725195 
C 439.107255 2250.725195 443.013942 2249.106992 445.893958 2246.226977 
C 448.773973 2243.346961 450.392176 2239.440274 450.392176 2235.367317 
C 450.392176 2231.29436 448.773973 2227.387672 445.893958 2224.507656 
C 443.013942 2221.627641 439.107255 2220.009438 435.034298 2220.009438 
C 430.961341 2220.009438 427.054653 2221.627641 424.174638 2224.507656 
C 421.294622 2227.387672 419.676419 2231.29436 419.676419 2235.367317 
C 419.676419 2239.440274 421.294622 2243.346961 424.174638 2246.226977 
C 427.054653 2249.106992 430.961341 2250.725195 435.034298 2250.725195 
z
" clip-path="url(#peccef7c059)" style="stroke: #000000; stroke-linejoin: miter"/>
   </g>
   <g id="patch_22">
    <path d="M 516.942984 2967.426197 
C 521.015941 2967.426197 524.922628 2965.807994 527.802644 2962.927978 
C 530.682659 2960.047963 532.300862 2956.141275 532.300862 2952.068318 
C 532.300862 2947.995361 530.682659 2944.088673 527.802644 2941.208658 
C 524.922628 2938.328642 521.015941 2936.710439 516.942984 2936.710439 
C 512.870027 2936.710439 508.963339 2938.328642 506.083324 2941.208658 
C 503.203308 2944.088673 501.585105 2947.995361 501.585105 2952.068318 
C 501.585105 2956.141275 503.203308 2960.047963 506.083324 2962.927978 
C 508.963339 2965.807994 512.870027 2967.426197 516.942984 2967.426197 
z
" clip-path="url(#peccef7c059)" style="fill: #ff0000; stroke: #ff0000; stroke-linejoin: miter"/>
   </g>
   <g id="patch_23">
    <path d="M 598.851669 2967.426197 
C 602.924627 2967.426197 606.831314 2965.807994 609.71133 2962.927978 
C 612.591345 2960.047963 614.209548 2956.141275 614.209548 2952.068318 
C 614.209548 2947.995361 612.591345 2944.088673 609.71133 2941.208658 
C 606.831314 2938.328642 602.924627 2936.710439 598.851669 2936.710439 
C 594.778712 2936.710439 590.872025 2938.328642 587.992009 2941.208658 
C 585.111994 2944.088673 583.493791 2947.995361 583.493791 2952.068318 
C 583.493791 2956.141275 585.111994 2960.047963 587.992009 2962.927978 
C 590.872025 2965.807994 594.778712 2967.426197 598.851669 2967.426197 
z
" clip-path="url(#peccef7c059)" style="stroke: #000000; stroke-linejoin: miter"/>
   </g>
   <g id="patch_24">
    <path d="M 680.760355 2967.426197 
C 684.833312 2967.426197 688.74 2965.807994 691.620015 2962.927978 
C 694.500031 2960.047963 696.118234 2956.141275 696.118234 2952.068318 
C 696.118234 2947.995361 694.500031 2944.088673 691.620015 2941.208658 
C 688.74 2938.328642 684.833312 2936.710439 680.760355 2936.710439 
C 676.687398 2936.710439 672.780711 2938.328642 669.900695 2941.208658 
C 667.02068 2944.088673 665.402477 2947.995361 665.402477 2952.068318 
C 665.402477 2956.141275 667.02068 2960.047963 669.900695 2962.927978 
C 672.780711 2965.807994 676.687398 2967.426197 680.760355 2967.426197 
z
" clip-path="url(#peccef7c059)" style="stroke: #000000; stroke-linejoin: miter"/>
   </g>
   <g id="patch_25">
    <path d="M 762.669041 2967.426197 
C 766.741998 2967.426197 770.648686 2965.807994 773.528701 2962.927978 
C 776.408717 2960.047963 778.02692 2956.141275 778.02692 2952.068318 
C 778.02692 2947.995361 776.408717 2944.088673 773.528701 2941.208658 
C 770.648686 2938.328642 766.741998 2936.710439 762.669041 2936.710439 
C 758.596084 2936.710439 754.689397 2938.328642 751.809381 2941.208658 
C 748.929366 2944.088673 747.311163 2947.995361 747.311163 2952.068318 
C 747.311163 2956.141275 748.929366 2960.047963 751.809381 2962.927978 
C 754.689397 2965.807994 758.596084 2967.426197 762.669041 2967.426197 
z
" clip-path="url(#peccef7c059)" style="stroke: #000000; stroke-linejoin: miter"/>
   </g>
   <g id="patch_26">
    <path d="M 844.577727 2250.725195 
C 848.650684 2250.725195 852.557372 2249.106992 855.437387 2246.226977 
C 858.317403 2243.346961 859.935606 2239.440274 859.935606 2235.367317 
C 859.935606 2231.29436 858.317403 2227.387672 855.437387 2224.507656 
C 852.557372 2221.627641 848.650684 2220.009438 844.577727 2220.009438 
C 840.50477 2220.009438 836.598083 2221.627641 833.718067 2224.507656 
C 830.838052 2227.387672 829.219849 2231.29436 829.219849 2235.367317 
C 829.219849 2239.440274 830.838052 2243.346961 833.718067 2246.226977 
C 836.598083 2249.106992 840.50477 2250.725195 844.577727 2250.725195 
z
" clip-path="url(#peccef7c059)" style="stroke: #000000; stroke-linejoin: miter"/>
   </g>
   <g id="patch_27">
    <path d="M 926.486413 2250.725195 
C 930.55937 2250.725195 934.466058 2249.106992 937.346073 2246.226977 
C 940.226089 2243.346961 941.844292 2239.440274 941.844292 2235.367317 
C 941.844292 2231.29436 940.226089 2227.387672 937.346073 2224.507656 
C 934.466058 2221.627641 930.55937 2220.009438 926.486413 2220.009438 
C 922.413456 2220.009438 918.506768 2221.627641 915.626753 2224.507656 
C 912.746737 2227.387672 911.128534 2231.29436 911.128534 2235.367317 
C 911.128534 2239.440274 912.746737 2243.346961 915.626753 2246.226977 
C 918.506768 2249.106992 922.413456 2250.725195 926.486413 2250.725195 
z
" clip-path="url(#peccef7c059)" style="stroke: #000000; stroke-linejoin: miter"/>
   </g>
   <g id="patch_28">
    <path d="M 1008.395099 2250.725195 
C 1012.468056 2250.725195 1016.374743 2249.106992 1019.254759 2246.226977 
C 1022.134775 2243.346961 1023.752978 2239.440274 1023.752978 2235.367317 
C 1023.752978 2231.29436 1022.134775 2227.387672 1019.254759 2224.507656 
C 1016.374743 2221.627641 1012.468056 2220.009438 1008.395099 2220.009438 
C 1004.322142 2220.009438 1000.415454 2221.627641 997.535439 2224.507656 
C 994.655423 2227.387672 993.03722 2231.29436 993.03722 2235.367317 
C 993.03722 2239.440274 994.655423 2243.346961 997.535439 2246.226977 
C 1000.415454 2249.106992 1004.322142 2250.725195 1008.395099 2250.725195 
z
" clip-path="url(#peccef7c059)" style="stroke: #000000; stroke-linejoin: miter"/>
   </g>
   <g id="patch_29">
    <path d="M 1090.303785 2250.725195 
C 1094.376742 2250.725195 1098.283429 2249.106992 1101.163445 2246.226977 
C 1104.04346 2243.346961 1105.661663 2239.440274 1105.661663 2235.367317 
C 1105.661663 2231.29436 1104.04346 2227.387672 1101.163445 2224.507656 
C 1098.283429 2221.627641 1094.376742 2220.009438 1090.303785 2220.009438 
C 1086.230828 2220.009438 1082.32414 2221.627641 1079.444125 2224.507656 
C 1076.564109 2227.387672 1074.945906 2231.29436 1074.945906 2235.367317 
C 1074.945906 2239.440274 1076.564109 2243.346961 1079.444125 2246.226977 
C 1082.32414 2249.106992 1086.230828 2250.725195 1090.303785 2250.725195 
z
" clip-path="url(#peccef7c059)" style="fill: #ff0000; stroke: #ff0000; stroke-linejoin: miter"/>
   </g>
   <g id="patch_30">
    <path d="M 1172.212471 2967.426197 
C 1176.285428 2967.426197 1180.192115 2965.807994 1183.072131 2962.927978 
C 1185.952146 2960.047963 1187.570349 2956.141275 1187.570349 2952.068318 
C 1187.570349 2947.995361 1185.952146 2944.088673 1183.072131 2941.208658 
C 1180.192115 2938.328642 1176.285428 2936.710439 1172.212471 2936.710439 
C 1168.139514 2936.710439 1164.232826 2938.328642 1161.352811 2941.208658 
C 1158.472795 2944.088673 1156.854592 2947.995361 1156.854592 2952.068318 
C 1156.854592 2956.141275 1158.472795 2960.047963 1161.352811 2962.927978 
C 1164.232826 2965.807994 1168.139514 2967.426197 1172.212471 2967.426197 
z
" clip-path="url(#peccef7c059)" style="stroke: #000000; stroke-linejoin: miter"/>
   </g>
   <g id="patch_31">
    <path d="M 1254.121157 2250.725195 
C 1258.194114 2250.725195 1262.100801 2249.106992 1264.980817 2246.226977 
C 1267.860832 2243.346961 1269.479035 2239.440274 1269.479035 2235.367317 
C 1269.479035 2231.29436 1267.860832 2227.387672 1264.980817 2224.507656 
C 1262.100801 2221.627641 1258.194114 2220.009438 1254.121157 2220.009438 
C 1250.0482 2220.009438 1246.141512 2221.627641 1243.261496 2224.507656 
C 1240.381481 2227.387672 1238.763278 2231.29436 1238.763278 2235.367317 
C 1238.763278 2239.440274 1240.381481 2243.346961 1243.261496 2246.226977 
C 1246.141512 2249.106992 1250.0482 2250.725195 1254.121157 2250.725195 
z
" clip-path="url(#peccef7c059)" style="stroke: #000000; stroke-linejoin: miter"/>
   </g>
   <g id="patch_32">
    <path d="M 1336.029842 2250.725195 
C 1340.102799 2250.725195 1344.009487 2249.106992 1346.889503 2246.226977 
C 1349.769518 2243.346961 1351.387721 2239.440274 1351.387721 2235.367317 
C 1351.387721 2231.29436 1349.769518 2227.387672 1346.889503 2224.507656 
C 1344.009487 2221.627641 1340.102799 2220.009438 1336.029842 2220.009438 
C 1331.956885 2220.009438 1328.050198 2221.627641 1325.170182 2224.507656 
C 1322.290167 2227.387672 1320.671964 2231.29436 1320.671964 2235.367317 
C 1320.671964 2239.440274 1322.290167 2243.346961 1325.170182 2246.226977 
C 1328.050198 2249.106992 1331.956885 2250.725195 1336.029842 2250.725195 
z
" clip-path="url(#peccef7c059)" style="stroke: #000000; stroke-linejoin: miter"/>
   </g>
   <g id="patch_33">
    <path d="M 1417.938528 2967.426197 
C 1422.011485 2967.426197 1425.918173 2965.807994 1428.798188 2962.927978 
C 1431.678204 2960.047963 1433.296407 2956.141275 1433.296407 2952.068318 
C 1433.296407 2947.995361 1431.678204 2944.088673 1428.798188 2941.208658 
C 1425.918173 2938.328642 1422.011485 2936.710439 1417.938528 2936.710439 
C 1413.865571 2936.710439 1409.958884 2938.328642 1407.078868 2941.208658 
C 1404.198853 2944.088673 1402.58065 2947.995361 1402.58065 2952.068318 
C 1402.58065 2956.141275 1404.198853 2960.047963 1407.078868 2962.927978 
C 1409.958884 2965.807994 1413.865571 2967.426197 1417.938528 2967.426197 
z
" clip-path="url(#peccef7c059)" style="stroke: #000000; stroke-linejoin: miter"/>
   </g>
   <g id="patch_34">
    <path d="M 1499.847214 2967.426197 
C 1503.920171 2967.426197 1507.826859 2965.807994 1510.706874 2962.927978 
C 1513.58689 2960.047963 1515.205093 2956.141275 1515.205093 2952.068318 
C 1515.205093 2947.995361 1513.58689 2944.088673 1510.706874 2941.208658 
C 1507.826859 2938.328642 1503.920171 2936.710439 1499.847214 2936.710439 
C 1495.774257 2936.710439 1491.86757 2938.328642 1488.987554 2941.208658 
C 1486.107539 2944.088673 1484.489336 2947.995361 1484.489336 2952.068318 
C 1484.489336 2956.141275 1486.107539 2960.047963 1488.987554 2962.927978 
C 1491.86757 2965.807994 1495.774257 2967.426197 1499.847214 2967.426197 
z
" clip-path="url(#peccef7c059)" style="stroke: #000000; stroke-linejoin: miter"/>
   </g>
   <g id="patch_35">
    <path d="M 1581.7559 2967.426197 
C 1585.828857 2967.426197 1589.735545 2965.807994 1592.61556 2962.927978 
C 1595.495576 2960.047963 1597.113779 2956.141275 1597.113779 2952.068318 
C 1597.113779 2947.995361 1595.495576 2944.088673 1592.61556 2941.208658 
C 1589.735545 2938.328642 1585.828857 2936.710439 1581.7559 2936.710439 
C 1577.682943 2936.710439 1573.776256 2938.328642 1570.89624 2941.208658 
C 1568.016224 2944.088673 1566.398021 2947.995361 1566.398021 2952.068318 
C 1566.398021 2956.141275 1568.016224 2960.047963 1570.89624 2962.927978 
C 1573.776256 2965.807994 1577.682943 2967.426197 1581.7559 2967.426197 
z
" clip-path="url(#peccef7c059)" style="stroke: #000000; stroke-linejoin: miter"/>
   </g>
   <g id="patch_36">
    <path d="M 1663.664586 2967.426197 
C 1667.737543 2967.426197 1671.644231 2965.807994 1674.524246 2962.927978 
C 1677.404262 2960.047963 1679.022465 2956.141275 1679.022465 2952.068318 
C 1679.022465 2947.995361 1677.404262 2944.088673 1674.524246 2941.208658 
C 1671.644231 2938.328642 1667.737543 2936.710439 1663.664586 2936.710439 
C 1659.591629 2936.710439 1655.684941 2938.328642 1652.804926 2941.208658 
C 1649.92491 2944.088673 1648.306707 2947.995361 1648.306707 2952.068318 
C 1648.306707 2956.141275 1649.92491 2960.047963 1652.804926 2962.927978 
C 1655.684941 2965.807994 1659.591629 2967.426197 1663.664586 2967.426197 
z
" clip-path="url(#peccef7c059)" style="stroke: #000000; stroke-linejoin: miter"/>
   </g>
   <g id="patch_37">
    <path d="M 1745.573272 2250.725195 
C 1749.646229 2250.725195 1753.552916 2249.106992 1756.432932 2246.226977 
C 1759.312947 2243.346961 1760.93115 2239.440274 1760.93115 2235.367317 
C 1760.93115 2231.29436 1759.312947 2227.387672 1756.432932 2224.507656 
C 1753.552916 2221.627641 1749.646229 2220.009438 1745.573272 2220.009438 
C 1741.500315 2220.009438 1737.593627 2221.627641 1734.713612 2224.507656 
C 1731.833596 2227.387672 1730.215393 2231.29436 1730.215393 2235.367317 
C 1730.215393 2239.440274 1731.833596 2243.346961 1734.713612 2246.226977 
C 1737.593627 2249.106992 1741.500315 2250.725195 1745.573272 2250.725195 
z
" clip-path="url(#peccef7c059)" style="stroke: #000000; stroke-linejoin: miter"/>
   </g>
   <g id="patch_38">
    <path d="M 1827.481958 2250.725195 
C 1831.554915 2250.725195 1835.461602 2249.106992 1838.341618 2246.226977 
C 1841.221633 2243.346961 1842.839836 2239.440274 1842.839836 2235.367317 
C 1842.839836 2231.29436 1841.221633 2227.387672 1838.341618 2224.507656 
C 1835.461602 2221.627641 1831.554915 2220.009438 1827.481958 2220.009438 
C 1823.409001 2220.009438 1819.502313 2221.627641 1816.622298 2224.507656 
C 1813.742282 2227.387672 1812.124079 2231.29436 1812.124079 2235.367317 
C 1812.124079 2239.440274 1813.742282 2243.346961 1816.622298 2246.226977 
C 1819.502313 2249.106992 1823.409001 2250.725195 1827.481958 2250.725195 
z
" clip-path="url(#peccef7c059)" style="stroke: #000000; stroke-linejoin: miter"/>
   </g>
   <g id="patch_39">
    <path d="M 1909.390644 2967.426197 
C 1913.463601 2967.426197 1917.370288 2965.807994 1920.250304 2962.927978 
C 1923.130319 2960.047963 1924.748522 2956.141275 1924.748522 2952.068318 
C 1924.748522 2947.995361 1923.130319 2944.088673 1920.250304 2941.208658 
C 1917.370288 2938.328642 1913.463601 2936.710439 1909.390644 2936.710439 
C 1905.317687 2936.710439 1901.410999 2938.328642 1898.530984 2941.208658 
C 1895.650968 2944.088673 1894.032765 2947.995361 1894.032765 2952.068318 
C 1894.032765 2956.141275 1895.650968 2960.047963 1898.530984 2962.927978 
C 1901.410999 2965.807994 1905.317687 2967.426197 1909.390644 2967.426197 
z
" clip-path="url(#peccef7c059)" style="fill: #ff0000; stroke: #ff0000; stroke-linejoin: miter"/>
   </g>
   <g id="patch_40">
    <path d="M 1991.299329 2250.725195 
C 1995.372287 2250.725195 1999.278974 2249.106992 2002.15899 2246.226977 
C 2005.039005 2243.346961 2006.657208 2239.440274 2006.657208 2235.367317 
C 2006.657208 2231.29436 2005.039005 2227.387672 2002.15899 2224.507656 
C 1999.278974 2221.627641 1995.372287 2220.009438 1991.299329 2220.009438 
C 1987.226372 2220.009438 1983.319685 2221.627641 1980.439669 2224.507656 
C 1977.559654 2227.387672 1975.941451 2231.29436 1975.941451 2235.367317 
C 1975.941451 2239.440274 1977.559654 2243.346961 1980.439669 2246.226977 
C 1983.319685 2249.106992 1987.226372 2250.725195 1991.299329 2250.725195 
z
" clip-path="url(#peccef7c059)" style="stroke: #000000; stroke-linejoin: miter"/>
   </g>
   <g id="patch_41">
    <path d="M 2073.208015 2250.725195 
C 2077.280972 2250.725195 2081.18766 2249.106992 2084.067675 2246.226977 
C 2086.947691 2243.346961 2088.565894 2239.440274 2088.565894 2235.367317 
C 2088.565894 2231.29436 2086.947691 2227.387672 2084.067675 2224.507656 
C 2081.18766 2221.627641 2077.280972 2220.009438 2073.208015 2220.009438 
C 2069.135058 2220.009438 2065.228371 2221.627641 2062.348355 2224.507656 
C 2059.46834 2227.387672 2057.850137 2231.29436 2057.850137 2235.367317 
C 2057.850137 2239.440274 2059.46834 2243.346961 2062.348355 2246.226977 
C 2065.228371 2249.106992 2069.135058 2250.725195 2073.208015 2250.725195 
z
" clip-path="url(#peccef7c059)" style="stroke: #000000; stroke-linejoin: miter"/>
   </g>
   <g id="patch_42">
    <path d="M 2155.116701 2967.426197 
C 2159.189658 2967.426197 2163.096346 2965.807994 2165.976361 2962.927978 
C 2168.856377 2960.047963 2170.47458 2956.141275 2170.47458 2952.068318 
C 2170.47458 2947.995361 2168.856377 2944.088673 2165.976361 2941.208658 
C 2163.096346 2938.328642 2159.189658 2936.710439 2155.116701 2936.710439 
C 2151.043744 2936.710439 2147.137057 2938.328642 2144.257041 2941.208658 
C 2141.377026 2944.088673 2139.758823 2947.995361 2139.758823 2952.068318 
C 2139.758823 2956.141275 2141.377026 2960.047963 2144.257041 2962.927978 
C 2147.137057 2965.807994 2151.043744 2967.426197 2155.116701 2967.426197 
z
" clip-path="url(#peccef7c059)" style="stroke: #000000; stroke-linejoin: miter"/>
   </g>
   <g id="patch_43">
    <path d="M 2237.025387 2967.426197 
C 2241.098344 2967.426197 2245.005032 2965.807994 2247.885047 2962.927978 
C 2250.765063 2960.047963 2252.383266 2956.141275 2252.383266 2952.068318 
C 2252.383266 2947.995361 2250.765063 2944.088673 2247.885047 2941.208658 
C 2245.005032 2938.328642 2241.098344 2936.710439 2237.025387 2936.710439 
C 2232.95243 2936.710439 2229.045743 2938.328642 2226.165727 2941.208658 
C 2223.285712 2944.088673 2221.667509 2947.995361 2221.667509 2952.068318 
C 2221.667509 2956.141275 2223.285712 2960.047963 2226.165727 2962.927978 
C 2229.045743 2965.807994 2232.95243 2967.426197 2237.025387 2967.426197 
z
" clip-path="url(#peccef7c059)" style="stroke: #000000; stroke-linejoin: miter"/>
   </g>
   <g id="patch_44">
    <path d="M 2318.934073 2967.426197 
C 2323.00703 2967.426197 2326.913718 2965.807994 2329.793733 2962.927978 
C 2332.673749 2960.047963 2334.291952 2956.141275 2334.291952 2952.068318 
C 2334.291952 2947.995361 2332.673749 2944.088673 2329.793733 2941.208658 
C 2326.913718 2938.328642 2323.00703 2936.710439 2318.934073 2936.710439 
C 2314.861116 2936.710439 2310.954428 2938.328642 2308.074413 2941.208658 
C 2305.194397 2944.088673 2303.576194 2947.995361 2303.576194 2952.068318 
C 2303.576194 2956.141275 2305.194397 2960.047963 2308.074413 2962.927978 
C 2310.954428 2965.807994 2314.861116 2967.426197 2318.934073 2967.426197 
z
" clip-path="url(#peccef7c059)" style="stroke: #000000; stroke-linejoin: miter"/>
   </g>
   <g id="patch_45">
    <path d="M 2400.842759 2967.426197 
C 2404.915716 2967.426197 2408.822403 2965.807994 2411.702419 2962.927978 
C 2414.582435 2960.047963 2416.200638 2956.141275 2416.200638 2952.068318 
C 2416.200638 2947.995361 2414.582435 2944.088673 2411.702419 2941.208658 
C 2408.822403 2938.328642 2404.915716 2936.710439 2400.842759 2936.710439 
C 2396.769802 2936.710439 2392.863114 2938.328642 2389.983099 2941.208658 
C 2387.103083 2944.088673 2385.48488 2947.995361 2385.48488 2952.068318 
C 2385.48488 2956.141275 2387.103083 2960.047963 2389.983099 2962.927978 
C 2392.863114 2965.807994 2396.769802 2967.426197 2400.842759 2967.426197 
z
" clip-path="url(#peccef7c059)" style="stroke: #000000; stroke-linejoin: miter"/>
   </g>
   <g id="patch_46">
    <path d="M 2482.751445 2967.426197 
C 2486.824402 2967.426197 2490.731089 2965.807994 2493.611105 2962.927978 
C 2496.49112 2960.047963 2498.109323 2956.141275 2498.109323 2952.068318 
C 2498.109323 2947.995361 2496.49112 2944.088673 2493.611105 2941.208658 
C 2490.731089 2938.328642 2486.824402 2936.710439 2482.751445 2936.710439 
C 2478.678488 2936.710439 2474.7718 2938.328642 2471.891785 2941.208658 
C 2469.011769 2944.088673 2467.393566 2947.995361 2467.393566 2952.068318 
C 2467.393566 2956.141275 2469.011769 2960.047963 2471.891785 2962.927978 
C 2474.7718 2965.807994 2478.678488 2967.426197 2482.751445 2967.426197 
z
" clip-path="url(#peccef7c059)" style="stroke: #000000; stroke-linejoin: miter"/>
   </g>
   <g id="patch_47">
    <path d="M 2564.660131 2250.725195 
C 2568.733088 2250.725195 2572.639775 2249.106992 2575.519791 2246.226977 
C 2578.399806 2243.346961 2580.018009 2239.440274 2580.018009 2235.367317 
C 2580.018009 2231.29436 2578.399806 2227.387672 2575.519791 2224.507656 
C 2572.639775 2221.627641 2568.733088 2220.009438 2564.660131 2220.009438 
C 2560.587174 2220.009438 2556.680486 2221.627641 2553.800471 2224.507656 
C 2550.920455 2227.387672 2549.302252 2231.29436 2549.302252 2235.367317 
C 2549.302252 2239.440274 2550.920455 2243.346961 2553.800471 2246.226977 
C 2556.680486 2249.106992 2560.587174 2250.725195 2564.660131 2250.725195 
z
" clip-path="url(#peccef7c059)" style="stroke: #000000; stroke-linejoin: miter"/>
   </g>
   <g id="patch_48">
    <path d="M 2646.568817 2250.725195 
C 2650.641774 2250.725195 2654.548461 2249.106992 2657.428477 2246.226977 
C 2660.308492 2243.346961 2661.926695 2239.440274 2661.926695 2235.367317 
C 2661.926695 2231.29436 2660.308492 2227.387672 2657.428477 2224.507656 
C 2654.548461 2221.627641 2650.641774 2220.009438 2646.568817 2220.009438 
C 2642.49586 2220.009438 2638.589172 2221.627641 2635.709156 2224.507656 
C 2632.829141 2227.387672 2631.210938 2231.29436 2631.210938 2235.367317 
C 2631.210938 2239.440274 2632.829141 2243.346961 2635.709156 2246.226977 
C 2638.589172 2249.106992 2642.49586 2250.725195 2646.568817 2250.725195 
z
" clip-path="url(#peccef7c059)" style="stroke: #000000; stroke-linejoin: miter"/>
   </g>
   <g id="patch_49">
    <path d="M 2728.477502 2250.725195 
C 2732.550459 2250.725195 2736.457147 2249.106992 2739.337163 2246.226977 
C 2742.217178 2243.346961 2743.835381 2239.440274 2743.835381 2235.367317 
C 2743.835381 2231.29436 2742.217178 2227.387672 2739.337163 2224.507656 
C 2736.457147 2221.627641 2732.550459 2220.009438 2728.477502 2220.009438 
C 2724.404545 2220.009438 2720.497858 2221.627641 2717.617842 2224.507656 
C 2714.737827 2227.387672 2713.119624 2231.29436 2713.119624 2235.367317 
C 2713.119624 2239.440274 2714.737827 2243.346961 2717.617842 2246.226977 
C 2720.497858 2249.106992 2724.404545 2250.725195 2728.477502 2250.725195 
z
" clip-path="url(#peccef7c059)" style="stroke: #000000; stroke-linejoin: miter"/>
   </g>
   <g id="patch_50">
    <path d="M 2810.386188 2250.725195 
C 2814.459145 2250.725195 2818.365833 2249.106992 2821.245848 2246.226977 
C 2824.125864 2243.346961 2825.744067 2239.440274 2825.744067 2235.367317 
C 2825.744067 2231.29436 2824.125864 2227.387672 2821.245848 2224.507656 
C 2818.365833 2221.627641 2814.459145 2220.009438 2810.386188 2220.009438 
C 2806.313231 2220.009438 2802.406544 2221.627641 2799.526528 2224.507656 
C 2796.646513 2227.387672 2795.02831 2231.29436 2795.02831 2235.367317 
C 2795.02831 2239.440274 2796.646513 2243.346961 2799.526528 2246.226977 
C 2802.406544 2249.106992 2806.313231 2250.725195 2810.386188 2250.725195 
z
" clip-path="url(#peccef7c059)" style="stroke: #000000; stroke-linejoin: miter"/>
   </g>
   <g id="patch_51">
    <path d="M 2892.294874 2967.426197 
C 2896.367831 2967.426197 2900.274519 2965.807994 2903.154534 2962.927978 
C 2906.03455 2960.047963 2907.652753 2956.141275 2907.652753 2952.068318 
C 2907.652753 2947.995361 2906.03455 2944.088673 2903.154534 2941.208658 
C 2900.274519 2938.328642 2896.367831 2936.710439 2892.294874 2936.710439 
C 2888.221917 2936.710439 2884.31523 2938.328642 2881.435214 2941.208658 
C 2878.555199 2944.088673 2876.936996 2947.995361 2876.936996 2952.068318 
C 2876.936996 2956.141275 2878.555199 2960.047963 2881.435214 2962.927978 
C 2884.31523 2965.807994 2888.221917 2967.426197 2892.294874 2967.426197 
z
" clip-path="url(#peccef7c059)" style="stroke: #000000; stroke-linejoin: miter"/>
   </g>
   <g id="patch_52">
    <path d="M 2974.20356 2967.426197 
C 2978.276517 2967.426197 2982.183205 2965.807994 2985.06322 2962.927978 
C 2987.943236 2960.047963 2989.561439 2956.141275 2989.561439 2952.068318 
C 2989.561439 2947.995361 2987.943236 2944.088673 2985.06322 2941.208658 
C 2982.183205 2938.328642 2978.276517 2936.710439 2974.20356 2936.710439 
C 2970.130603 2936.710439 2966.223915 2938.328642 2963.3439 2941.208658 
C 2960.463884 2944.088673 2958.845681 2947.995361 2958.845681 2952.068318 
C 2958.845681 2956.141275 2960.463884 2960.047963 2963.3439 2962.927978 
C 2966.223915 2965.807994 2970.130603 2967.426197 2974.20356 2967.426197 
z
" clip-path="url(#peccef7c059)" style="stroke: #000000; stroke-linejoin: miter"/>
   </g>
   <g id="patch_53">
    <path d="M 3056.112246 2250.725195 
C 3060.185203 2250.725195 3064.091891 2249.106992 3066.971906 2246.226977 
C 3069.851922 2243.346961 3071.470125 2239.440274 3071.470125 2235.367317 
C 3071.470125 2231.29436 3069.851922 2227.387672 3066.971906 2224.507656 
C 3064.091891 2221.627641 3060.185203 2220.009438 3056.112246 2220.009438 
C 3052.039289 2220.009438 3048.132601 2221.627641 3045.252586 2224.507656 
C 3042.37257 2227.387672 3040.754367 2231.29436 3040.754367 2235.367317 
C 3040.754367 2239.440274 3042.37257 2243.346961 3045.252586 2246.226977 
C 3048.132601 2249.106992 3052.039289 2250.725195 3056.112246 2250.725195 
z
" clip-path="url(#peccef7c059)" style="stroke: #000000; stroke-linejoin: miter"/>
   </g>
   <g id="patch_54">
    <path d="M 3138.020932 2250.725195 
C 3142.093889 2250.725195 3146.000576 2249.106992 3148.880592 2246.226977 
C 3151.760607 2243.346961 3153.37881 2239.440274 3153.37881 2235.367317 
C 3153.37881 2231.29436 3151.760607 2227.387672 3148.880592 2224.507656 
C 3146.000576 2221.627641 3142.093889 2220.009438 3138.020932 2220.009438 
C 3133.947975 2220.009438 3130.041287 2221.627641 3127.161272 2224.507656 
C 3124.281256 2227.387672 3122.663053 2231.29436 3122.663053 2235.367317 
C 3122.663053 2239.440274 3124.281256 2243.346961 3127.161272 2246.226977 
C 3130.041287 2249.106992 3133.947975 2250.725195 3138.020932 2250.725195 
z
" clip-path="url(#peccef7c059)" style="stroke: #000000; stroke-linejoin: miter"/>
   </g>
   <g id="patch_55">
    <path d="M 3219.929618 2250.725195 
C 3224.002575 2250.725195 3227.909262 2249.106992 3230.789278 2246.226977 
C 3233.669293 2243.346961 3235.287496 2239.440274 3235.287496 2235.367317 
C 3235.287496 2231.29436 3233.669293 2227.387672 3230.789278 2224.507656 
C 3227.909262 2221.627641 3224.002575 2220.009438 3219.929618 2220.009438 
C 3215.856661 2220.009438 3211.949973 2221.627641 3209.069958 2224.507656 
C 3206.189942 2227.387672 3204.571739 2231.29436 3204.571739 2235.367317 
C 3204.571739 2239.440274 3206.189942 2243.346961 3209.069958 2246.226977 
C 3211.949973 2249.106992 3215.856661 2250.725195 3219.929618 2250.725195 
z
" clip-path="url(#peccef7c059)" style="stroke: #000000; stroke-linejoin: miter"/>
   </g>
   <g id="patch_56">
    <path d="M 3301.838304 2250.725195 
C 3305.911261 2250.725195 3309.817948 2249.106992 3312.697964 2246.226977 
C 3315.577979 2243.346961 3317.196182 2239.440274 3317.196182 2235.367317 
C 3317.196182 2231.29436 3315.577979 2227.387672 3312.697964 2224.507656 
C 3309.817948 2221.627641 3305.911261 2220.009438 3301.838304 2220.009438 
C 3297.765347 2220.009438 3293.858659 2221.627641 3290.978644 2224.507656 
C 3288.098628 2227.387672 3286.480425 2231.29436 3286.480425 2235.367317 
C 3286.480425 2239.440274 3288.098628 2243.346961 3290.978644 2246.226977 
C 3293.858659 2249.106992 3297.765347 2250.725195 3301.838304 2250.725195 
z
" clip-path="url(#peccef7c059)" style="stroke: #000000; stroke-linejoin: miter"/>
   </g>
   <g id="patch_57">
    <path d="M 3383.746989 2250.725195 
C 3387.819947 2250.725195 3391.726634 2249.106992 3394.60665 2246.226977 
C 3397.486665 2243.346961 3399.104868 2239.440274 3399.104868 2235.367317 
C 3399.104868 2231.29436 3397.486665 2227.387672 3394.60665 2224.507656 
C 3391.726634 2221.627641 3387.819947 2220.009438 3383.746989 2220.009438 
C 3379.674032 2220.009438 3375.767345 2221.627641 3372.887329 2224.507656 
C 3370.007314 2227.387672 3368.389111 2231.29436 3368.389111 2235.367317 
C 3368.389111 2239.440274 3370.007314 2243.346961 3372.887329 2246.226977 
C 3375.767345 2249.106992 3379.674032 2250.725195 3383.746989 2250.725195 
z
" clip-path="url(#peccef7c059)" style="stroke: #000000; stroke-linejoin: miter"/>
   </g>
   <g id="patch_58">
    <path d="M 3465.655675 2967.426197 
C 3469.728632 2967.426197 3473.63532 2965.807994 3476.515335 2962.927978 
C 3479.395351 2960.047963 3481.013554 2956.141275 3481.013554 2952.068318 
C 3481.013554 2947.995361 3479.395351 2944.088673 3476.515335 2941.208658 
C 3473.63532 2938.328642 3469.728632 2936.710439 3465.655675 2936.710439 
C 3461.582718 2936.710439 3457.676031 2938.328642 3454.796015 2941.208658 
C 3451.916 2944.088673 3450.297797 2947.995361 3450.297797 2952.068318 
C 3450.297797 2956.141275 3451.916 2960.047963 3454.796015 2962.927978 
C 3457.676031 2965.807994 3461.582718 2967.426197 3465.655675 2967.426197 
z
" clip-path="url(#peccef7c059)" style="stroke: #000000; stroke-linejoin: miter"/>
   </g>
   <g id="patch_59">
    <path d="M 3547.564361 2967.426197 
C 3551.637318 2967.426197 3555.544006 2965.807994 3558.424021 2962.927978 
C 3561.304037 2960.047963 3562.92224 2956.141275 3562.92224 2952.068318 
C 3562.92224 2947.995361 3561.304037 2944.088673 3558.424021 2941.208658 
C 3555.544006 2938.328642 3551.637318 2936.710439 3547.564361 2936.710439 
C 3543.491404 2936.710439 3539.584717 2938.328642 3536.704701 2941.208658 
C 3533.824686 2944.088673 3532.206483 2947.995361 3532.206483 2952.068318 
C 3532.206483 2956.141275 3533.824686 2960.047963 3536.704701 2962.927978 
C 3539.584717 2965.807994 3543.491404 2967.426197 3547.564361 2967.426197 
z
" clip-path="url(#peccef7c059)" style="stroke: #000000; stroke-linejoin: miter"/>
   </g>
   <g id="patch_60">
    <path d="M 3629.473047 2967.426197 
C 3633.546004 2967.426197 3637.452692 2965.807994 3640.332707 2962.927978 
C 3643.212723 2960.047963 3644.830926 2956.141275 3644.830926 2952.068318 
C 3644.830926 2947.995361 3643.212723 2944.088673 3640.332707 2941.208658 
C 3637.452692 2938.328642 3633.546004 2936.710439 3629.473047 2936.710439 
C 3625.40009 2936.710439 3621.493403 2938.328642 3618.613387 2941.208658 
C 3615.733372 2944.088673 3614.115169 2947.995361 3614.115169 2952.068318 
C 3614.115169 2956.141275 3615.733372 2960.047963 3618.613387 2962.927978 
C 3621.493403 2965.807994 3625.40009 2967.426197 3629.473047 2967.426197 
z
" clip-path="url(#peccef7c059)" style="stroke: #000000; stroke-linejoin: miter"/>
   </g>
   <g id="patch_61">
    <path d="M 3711.381733 2967.426197 
C 3715.45469 2967.426197 3719.361378 2965.807994 3722.241393 2962.927978 
C 3725.121409 2960.047963 3726.739612 2956.141275 3726.739612 2952.068318 
C 3726.739612 2947.995361 3725.121409 2944.088673 3722.241393 2941.208658 
C 3719.361378 2938.328642 3715.45469 2936.710439 3711.381733 2936.710439 
C 3707.308776 2936.710439 3703.402088 2938.328642 3700.522073 2941.208658 
C 3697.642057 2944.088673 3696.023854 2947.995361 3696.023854 2952.068318 
C 3696.023854 2956.141275 3697.642057 2960.047963 3700.522073 2962.927978 
C 3703.402088 2965.807994 3707.308776 2967.426197 3711.381733 2967.426197 
z
" clip-path="url(#peccef7c059)" style="stroke: #000000; stroke-linejoin: miter"/>
   </g>
   <g id="patch_62">
    <path d="M 3793.290419 2250.725195 
C 3797.363376 2250.725195 3801.270063 2249.106992 3804.150079 2246.226977 
C 3807.030095 2243.346961 3808.648298 2239.440274 3808.648298 2235.367317 
C 3808.648298 2231.29436 3807.030095 2227.387672 3804.150079 2224.507656 
C 3801.270063 2221.627641 3797.363376 2220.009438 3793.290419 2220.009438 
C 3789.217462 2220.009438 3785.310774 2221.627641 3782.430759 2224.507656 
C 3779.550743 2227.387672 3777.93254 2231.29436 3777.93254 2235.367317 
C 3777.93254 2239.440274 3779.550743 2243.346961 3782.430759 2246.226977 
C 3785.310774 2249.106992 3789.217462 2250.725195 3793.290419 2250.725195 
z
" clip-path="url(#peccef7c059)" style="stroke: #000000; stroke-linejoin: miter"/>
   </g>
   <g id="patch_63">
    <path d="M 3875.199105 2250.725195 
C 3879.272062 2250.725195 3883.178749 2249.106992 3886.058765 2246.226977 
C 3888.93878 2243.346961 3890.556983 2239.440274 3890.556983 2235.367317 
C 3890.556983 2231.29436 3888.93878 2227.387672 3886.058765 2224.507656 
C 3883.178749 2221.627641 3879.272062 2220.009438 3875.199105 2220.009438 
C 3871.126148 2220.009438 3867.21946 2221.627641 3864.339445 2224.507656 
C 3861.459429 2227.387672 3859.841226 2231.29436 3859.841226 2235.367317 
C 3859.841226 2239.440274 3861.459429 2243.346961 3864.339445 2246.226977 
C 3867.21946 2249.106992 3871.126148 2250.725195 3875.199105 2250.725195 
z
" clip-path="url(#peccef7c059)" style="stroke: #000000; stroke-linejoin: miter"/>
   </g>
   <g id="patch_64">
    <path d="M 3957.107791 2250.725195 
C 3961.180748 2250.725195 3965.087435 2249.106992 3967.967451 2246.226977 
C 3970.847466 2243.346961 3972.465669 2239.440274 3972.465669 2235.367317 
C 3972.465669 2231.29436 3970.847466 2227.387672 3967.967451 2224.507656 
C 3965.087435 2221.627641 3961.180748 2220.009438 3957.107791 2220.009438 
C 3953.034834 2220.009438 3949.128146 2221.627641 3946.248131 2224.507656 
C 3943.368115 2227.387672 3941.749912 2231.29436 3941.749912 2235.367317 
C 3941.749912 2239.440274 3943.368115 2243.346961 3946.248131 2246.226977 
C 3949.128146 2249.106992 3953.034834 2250.725195 3957.107791 2250.725195 
z
" clip-path="url(#peccef7c059)" style="stroke: #000000; stroke-linejoin: miter"/>
   </g>
   <g id="patch_65">
    <path d="M 4039.016477 2250.725195 
C 4043.089434 2250.725195 4046.996121 2249.106992 4049.876137 2246.226977 
C 4052.756152 2243.346961 4054.374355 2239.440274 4054.374355 2235.367317 
C 4054.374355 2231.29436 4052.756152 2227.387672 4049.876137 2224.507656 
C 4046.996121 2221.627641 4043.089434 2220.009438 4039.016477 2220.009438 
C 4034.94352 2220.009438 4031.036832 2221.627641 4028.156816 2224.507656 
C 4025.276801 2227.387672 4023.658598 2231.29436 4023.658598 2235.367317 
C 4023.658598 2239.440274 4025.276801 2243.346961 4028.156816 2246.226977 
C 4031.036832 2249.106992 4034.94352 2250.725195 4039.016477 2250.725195 
z
" clip-path="url(#peccef7c059)" style="fill: #ff0000; stroke: #ff0000; stroke-linejoin: miter"/>
   </g>
   <g id="patch_66">
    <path d="M 4120.925162 2967.426197 
C 4124.998119 2967.426197 4128.904807 2965.807994 4131.784823 2962.927978 
C 4134.664838 2960.047963 4136.283041 2956.141275 4136.283041 2952.068318 
C 4136.283041 2947.995361 4134.664838 2944.088673 4131.784823 2941.208658 
C 4128.904807 2938.328642 4124.998119 2936.710439 4120.925162 2936.710439 
C 4116.852205 2936.710439 4112.945518 2938.328642 4110.065502 2941.208658 
C 4107.185487 2944.088673 4105.567284 2947.995361 4105.567284 2952.068318 
C 4105.567284 2956.141275 4107.185487 2960.047963 4110.065502 2962.927978 
C 4112.945518 2965.807994 4116.852205 2967.426197 4120.925162 2967.426197 
z
" clip-path="url(#peccef7c059)" style="stroke: #000000; stroke-linejoin: miter"/>
   </g>
   <g id="patch_67">
    <path d="M 4202.833848 2967.426197 
C 4206.906805 2967.426197 4210.813493 2965.807994 4213.693508 2962.927978 
C 4216.573524 2960.047963 4218.191727 2956.141275 4218.191727 2952.068318 
C 4218.191727 2947.995361 4216.573524 2944.088673 4213.693508 2941.208658 
C 4210.813493 2938.328642 4206.906805 2936.710439 4202.833848 2936.710439 
C 4198.760891 2936.710439 4194.854204 2938.328642 4191.974188 2941.208658 
C 4189.094173 2944.088673 4187.47597 2947.995361 4187.47597 2952.068318 
C 4187.47597 2956.141275 4189.094173 2960.047963 4191.974188 2962.927978 
C 4194.854204 2965.807994 4198.760891 2967.426197 4202.833848 2967.426197 
z
" clip-path="url(#peccef7c059)" style="stroke: #000000; stroke-linejoin: miter"/>
   </g>
   <g id="patch_68">
    <path d="M 4284.742534 2967.426197 
C 4288.815491 2967.426197 4292.722179 2965.807994 4295.602194 2962.927978 
C 4298.48221 2960.047963 4300.100413 2956.141275 4300.100413 2952.068318 
C 4300.100413 2947.995361 4298.48221 2944.088673 4295.602194 2941.208658 
C 4292.722179 2938.328642 4288.815491 2936.710439 4284.742534 2936.710439 
C 4280.669577 2936.710439 4276.76289 2938.328642 4273.882874 2941.208658 
C 4271.002859 2944.088673 4269.384656 2947.995361 4269.384656 2952.068318 
C 4269.384656 2956.141275 4271.002859 2960.047963 4273.882874 2962.927978 
C 4276.76289 2965.807994 4280.669577 2967.426197 4284.742534 2967.426197 
z
" clip-path="url(#peccef7c059)" style="stroke: #000000; stroke-linejoin: miter"/>
   </g>
   <g id="patch_69">
    <path d="M 4366.65122 2967.426197 
C 4370.724177 2967.426197 4374.630865 2965.807994 4377.51088 2962.927978 
C 4380.390896 2960.047963 4382.009099 2956.141275 4382.009099 2952.068318 
C 4382.009099 2947.995361 4380.390896 2944.088673 4377.51088 2941.208658 
C 4374.630865 2938.328642 4370.724177 2936.710439 4366.65122 2936.710439 
C 4362.578263 2936.710439 4358.671575 2938.328642 4355.79156 2941.208658 
C 4352.911544 2944.088673 4351.293341 2947.995361 4351.293341 2952.068318 
C 4351.293341 2956.141275 4352.911544 2960.047963 4355.79156 2962.927978 
C 4358.671575 2965.807994 4362.578263 2967.426197 4366.65122 2967.426197 
z
" clip-path="url(#peccef7c059)" style="stroke: #000000; stroke-linejoin: miter"/>
   </g>
   <g id="patch_70">
    <path d="M 4448.559906 2250.725195 
C 4452.632863 2250.725195 4456.539551 2249.106992 4459.419566 2246.226977 
C 4462.299582 2243.346961 4463.917785 2239.440274 4463.917785 2235.367317 
C 4463.917785 2231.29436 4462.299582 2227.387672 4459.419566 2224.507656 
C 4456.539551 2221.627641 4452.632863 2220.009438 4448.559906 2220.009438 
C 4444.486949 2220.009438 4440.580261 2221.627641 4437.700246 2224.507656 
C 4434.82023 2227.387672 4433.202027 2231.29436 4433.202027 2235.367317 
C 4433.202027 2239.440274 4434.82023 2243.346961 4437.700246 2246.226977 
C 4440.580261 2249.106992 4444.486949 2250.725195 4448.559906 2250.725195 
z
" clip-path="url(#peccef7c059)" style="stroke: #000000; stroke-linejoin: miter"/>
   </g>
   <g id="patch_71">
    <path d="M 4530.468592 2250.725195 
C 4534.541549 2250.725195 4538.448236 2249.106992 4541.328252 2246.226977 
C 4544.208267 2243.346961 4545.82647 2239.440274 4545.82647 2235.367317 
C 4545.82647 2231.29436 4544.208267 2227.387672 4541.328252 2224.507656 
C 4538.448236 2221.627641 4534.541549 2220.009438 4530.468592 2220.009438 
C 4526.395635 2220.009438 4522.488947 2221.627641 4519.608932 2224.507656 
C 4516.728916 2227.387672 4515.110713 2231.29436 4515.110713 2235.367317 
C 4515.110713 2239.440274 4516.728916 2243.346961 4519.608932 2246.226977 
C 4522.488947 2249.106992 4526.395635 2250.725195 4530.468592 2250.725195 
z
" clip-path="url(#peccef7c059)" style="stroke: #000000; stroke-linejoin: miter"/>
   </g>
   <g id="patch_72">
    <path d="M 4612.377278 2967.426197 
C 4616.450235 2967.426197 4620.356922 2965.807994 4623.236938 2962.927978 
C 4626.116953 2960.047963 4627.735156 2956.141275 4627.735156 2952.068318 
C 4627.735156 2947.995361 4626.116953 2944.088673 4623.236938 2941.208658 
C 4620.356922 2938.328642 4616.450235 2936.710439 4612.377278 2936.710439 
C 4608.304321 2936.710439 4604.397633 2938.328642 4601.517618 2941.208658 
C 4598.637602 2944.088673 4597.019399 2947.995361 4597.019399 2952.068318 
C 4597.019399 2956.141275 4598.637602 2960.047963 4601.517618 2962.927978 
C 4604.397633 2965.807994 4608.304321 2967.426197 4612.377278 2967.426197 
z
" clip-path="url(#peccef7c059)" style="stroke: #000000; stroke-linejoin: miter"/>
   </g>
   <g id="patch_73">
    <path d="M 4694.285964 2967.426197 
C 4698.358921 2967.426197 4702.265608 2965.807994 4705.145624 2962.927978 
C 4708.025639 2960.047963 4709.643842 2956.141275 4709.643842 2952.068318 
C 4709.643842 2947.995361 4708.025639 2944.088673 4705.145624 2941.208658 
C 4702.265608 2938.328642 4698.358921 2936.710439 4694.285964 2936.710439 
C 4690.213007 2936.710439 4686.306319 2938.328642 4683.426303 2941.208658 
C 4680.546288 2944.088673 4678.928085 2947.995361 4678.928085 2952.068318 
C 4678.928085 2956.141275 4680.546288 2960.047963 4683.426303 2962.927978 
C 4686.306319 2965.807994 4690.213007 2967.426197 4694.285964 2967.426197 
z
" clip-path="url(#peccef7c059)" style="stroke: #000000; stroke-linejoin: miter"/>
   </g>
   <g id="patch_74">
    <path d="M 4776.194649 2967.426197 
C 4780.267607 2967.426197 4784.174294 2965.807994 4787.05431 2962.927978 
C 4789.934325 2960.047963 4791.552528 2956.141275 4791.552528 2952.068318 
C 4791.552528 2947.995361 4789.934325 2944.088673 4787.05431 2941.208658 
C 4784.174294 2938.328642 4780.267607 2936.710439 4776.194649 2936.710439 
C 4772.121692 2936.710439 4768.215005 2938.328642 4765.334989 2941.208658 
C 4762.454974 2944.088673 4760.836771 2947.995361 4760.836771 2952.068318 
C 4760.836771 2956.141275 4762.454974 2960.047963 4765.334989 2962.927978 
C 4768.215005 2965.807994 4772.121692 2967.426197 4776.194649 2967.426197 
z
" clip-path="url(#peccef7c059)" style="stroke: #000000; stroke-linejoin: miter"/>
   </g>
   <g id="text_18">
    <g id="patch_75">
     <path d="M -9.639574 2294.401692 
L 193.722926 2294.401692 
L 193.722926 2176.332942 
L -9.639574 2176.332942 
z
" style="fill: #ffffff; stroke: #000000; stroke-linejoin: miter"/>
    </g>
    <!-- Feet -->
    <g style="fill: #262626" transform="translate(20.360426 2251.923567) scale(0.6 -0.6)">
     <defs>
      <path id="DejaVuSerif-Bold-46" d="M 300 0 
L 300 378 
L 897 378 
L 897 4288 
L 300 4288 
L 300 4666 
L 4459 4666 
L 4459 3566 
L 4031 3566 
L 4031 4238 
L 2106 4238 
L 2106 2741 
L 3291 2741 
L 3291 3334 
L 3719 3334 
L 3719 1722 
L 3291 1722 
L 3291 2316 
L 2106 2316 
L 2106 378 
L 2841 378 
L 2841 0 
L 300 0 
z
" transform="scale(0.015625)"/>
      <path id="DejaVuSerif-Bold-65" d="M 2566 1875 
Q 2566 2531 2444 2795 
Q 2322 3059 2028 3059 
Q 1744 3059 1620 2800 
Q 1497 2541 1497 1931 
L 1497 1875 
L 2566 1875 
z
M 3781 1503 
L 1497 1503 
L 1497 1478 
Q 1497 834 1690 548 
Q 1884 263 2316 263 
Q 2675 263 2897 453 
Q 3119 644 3181 1006 
L 3700 1006 
Q 3566 441 3166 175 
Q 2766 -91 2047 -91 
Q 1184 -91 723 364 
Q 263 819 263 1663 
Q 263 2488 734 2950 
Q 1206 3413 2047 3413 
Q 2872 3413 3312 2927 
Q 3753 2441 3781 1503 
z
" transform="scale(0.015625)"/>
      <path id="DejaVuSerif-Bold-74" d="M 634 2944 
L 153 2944 
L 153 3322 
L 634 3322 
L 634 4353 
L 1741 4353 
L 1741 3322 
L 2663 3322 
L 2663 2944 
L 1741 2944 
L 1741 909 
Q 1741 475 1809 369 
Q 1878 263 2059 263 
Q 2259 263 2356 397 
Q 2453 531 2459 813 
L 2925 813 
Q 2897 313 2651 111 
Q 2406 -91 1806 -91 
Q 1122 -91 878 123 
Q 634 338 634 909 
L 634 2944 
z
" transform="scale(0.015625)"/>
     </defs>
     <use xlink:href="#DejaVuSerif-Bold-46"/>
     <use xlink:href="#DejaVuSerif-Bold-65" x="65.496094"/>
     <use xlink:href="#DejaVuSerif-Bold-65" x="129.119141"/>
     <use xlink:href="#DejaVuSerif-Bold-74" x="192.742188"/>
    </g>
   </g>
   <g id="text_19">
    <g id="patch_76">
     <path d="M -12.723949 3011.102693 
L 196.807301 3011.102693 
L 196.807301 2893.033943 
L -12.723949 2893.033943 
z
" style="fill: #ffffff; stroke: #000000; stroke-linejoin: miter"/>
    </g>
    <!-- Rest -->
    <g style="fill: #262626" transform="translate(17.276051 2968.624568) scale(0.6 -0.6)">
     <defs>
      <path id="DejaVuSerif-Bold-52" d="M 3397 2278 
Q 3675 2238 3865 2094 
Q 4056 1950 4197 1678 
L 4878 378 
L 5356 378 
L 5356 0 
L 3822 0 
L 3078 1409 
Q 2863 1847 2711 1967 
Q 2559 2088 2291 2088 
L 2100 2088 
L 2100 378 
L 2700 378 
L 2700 0 
L 300 0 
L 300 378 
L 897 378 
L 897 4288 
L 300 4288 
L 300 4666 
L 2963 4666 
Q 3775 4666 4217 4339 
Q 4659 4013 4659 3413 
Q 4659 2925 4345 2642 
Q 4031 2359 3397 2278 
z
M 2100 2463 
L 2509 2463 
Q 2947 2463 3183 2700 
Q 3419 2938 3419 3378 
Q 3419 3819 3183 4053 
Q 2947 4288 2509 4288 
L 2100 4288 
L 2100 2463 
z
" transform="scale(0.015625)"/>
      <path id="DejaVuSerif-Bold-73" d="M 300 97 
L 300 1025 
L 653 1025 
Q 697 653 931 458 
Q 1166 263 1569 263 
Q 1906 263 2086 380 
Q 2266 497 2266 716 
Q 2266 916 2152 1025 
Q 2038 1134 1709 1216 
L 1253 1331 
Q 738 1459 506 1698 
Q 275 1938 275 2344 
Q 275 2884 650 3148 
Q 1025 3413 1806 3413 
Q 2100 3413 2433 3364 
Q 2766 3316 3169 3213 
L 3169 2375 
L 2816 2375 
Q 2788 2716 2573 2887 
Q 2359 3059 1959 3059 
Q 1622 3059 1448 2951 
Q 1275 2844 1275 2638 
Q 1275 2469 1375 2372 
Q 1475 2275 1734 2209 
L 2188 2094 
Q 2841 1928 3091 1684 
Q 3341 1441 3341 1006 
Q 3341 444 2939 176 
Q 2538 -91 1691 -91 
Q 1381 -91 1034 -44 
Q 688 3 300 97 
z
" transform="scale(0.015625)"/>
     </defs>
     <use xlink:href="#DejaVuSerif-Bold-52"/>
     <use xlink:href="#DejaVuSerif-Bold-65" x="83.105469"/>
     <use xlink:href="#DejaVuSerif-Bold-73" x="146.728516"/>
     <use xlink:href="#DejaVuSerif-Bold-74" x="203.027344"/>
    </g>
   </g>
   <g id="legend_1">
    <g id="patch_77">
     <path d="M 4771.3525 1786.85891 
L 4999.04 1786.85891 
Q 5007.04 1786.85891 5007.04 1778.85891 
L 5007.04 1665.43391 
Q 5007.04 1657.43391 4999.04 1657.43391 
L 4771.3525 1657.43391 
Q 4763.3525 1657.43391 4763.3525 1665.43391 
L 4763.3525 1778.85891 
Q 4763.3525 1786.85891 4771.3525 1786.85891 
z
" style="fill: #ffffff; opacity: 0.8; stroke: #cccccc; stroke-linejoin: miter"/>
    </g>
    <g id="patch_78">
     <path d="M 4779.3525 1703.82766 
L 4859.3525 1703.82766 
L 4859.3525 1675.82766 
L 4779.3525 1675.82766 
z
" style="fill: #1ea4a4; stroke: #1ea4a4; stroke-linejoin: miter"/>
    </g>
    <g id="text_20">
     <!-- Feet -->
     <g style="fill: #262626" transform="translate(4891.3525 1703.82766) scale(0.4 -0.4)">
      <use xlink:href="#DejaVuSerif-Bold-46"/>
      <use xlink:href="#DejaVuSerif-Bold-65" x="65.496094"/>
      <use xlink:href="#DejaVuSerif-Bold-65" x="129.119141"/>
      <use xlink:href="#DejaVuSerif-Bold-74" x="192.742188"/>
     </g>
    </g>
    <g id="patch_79">
     <path d="M 4779.3525 1762.54016 
L 4859.3525 1762.54016 
L 4859.3525 1734.54016 
L 4779.3525 1734.54016 
z
" style="fill: #c8c8c8; stroke: #c8c8c8; stroke-linejoin: miter"/>
    </g>
    <g id="text_21">
     <!-- Rest -->
     <g style="fill: #262626" transform="translate(4891.3525 1762.54016) scale(0.4 -0.4)">
      <use xlink:href="#DejaVuSerif-Bold-52"/>
      <use xlink:href="#DejaVuSerif-Bold-65" x="83.105469"/>
      <use xlink:href="#DejaVuSerif-Bold-73" x="146.728516"/>
      <use xlink:href="#DejaVuSerif-Bold-74" x="203.027344"/>
     </g>
    </g>
   </g>
  </g>
 </g>
 <defs>
  <clipPath id="peccef7c059">
   <rect x="71.564504" y="1637.43391" width="4955.475496" height="1765.132181"/>
  </clipPath>
 </defs>
</svg>
