<?xml version="1.0" encoding="utf-8" standalone="no"?>
<!DOCTYPE svg PUBLIC "-//W3C//DTD SVG 1.1//EN"
  "http://www.w3.org/Graphics/SVG/1.1/DTD/svg11.dtd">
<svg xmlns:xlink="http://www.w3.org/1999/xlink" width="5040pt" height="5040pt" viewBox="0 0 5040 5040" xmlns="http://www.w3.org/2000/svg" version="1.1">
 <metadata>
  <rdf:RDF xmlns:dc="http://purl.org/dc/elements/1.1/" xmlns:cc="http://creativecommons.org/ns#" xmlns:rdf="http://www.w3.org/1999/02/22-rdf-syntax-ns#">
   <cc:Work>
    <dc:type rdf:resource="http://purl.org/dc/dcmitype/StillImage"/>
    <dc:date>2024-08-25T20:24:23.896244</dc:date>
    <dc:format>image/svg+xml</dc:format>
    <dc:creator>
     <cc:Agent>
      <dc:title>Matplotlib v3.7.0, https://matplotlib.org/</dc:title>
     </cc:Agent>
    </dc:creator>
   </cc:Work>
  </rdf:RDF>
 </metadata>
 <defs>
  <style type="text/css">*{stroke-linejoin: round; stroke-linecap: butt}</style>
 </defs>
 <g id="figure_1">
  <g id="patch_1">
   <path d="M 0 5040 
L 5040 5040 
L 5040 0 
L 0 0 
z
" style="fill: #ffffff"/>
  </g>
  <g id="axes_1">
   <g id="patch_2">
    <path d="M 87.404504 3399.744999 
L 5027.04 3399.744999 
L 5027.04 1640.255001 
L 87.404504 1640.255001 
z
" style="fill: #ffffff"/>
   </g>
   <g id="matplotlib.axis_1">
    <g id="xtick_1">
     <g id="line2d_1">
      <path d="M 679.344295 3399.744999 
L 679.344295 1640.255001 
" clip-path="url(#p16a76b3999)" style="fill: none; stroke: #cccccc; stroke-linecap: round"/>
     </g>
     <g id="text_1">
      <!-- 20 -->
      <g style="fill: #262626" transform="translate(641.169295 3384.456025) scale(0.6 -0.6)">
       <defs>
        <path id="DejaVuSerif-32" d="M 819 3553 
L 469 3553 
L 469 4384 
Q 803 4563 1142 4656 
Q 1481 4750 1806 4750 
Q 2534 4750 2956 4397 
Q 3378 4044 3378 3438 
Q 3378 2753 2422 1800 
Q 2347 1728 2309 1691 
L 1131 513 
L 3078 513 
L 3078 1088 
L 3444 1088 
L 3444 0 
L 434 0 
L 434 341 
L 1850 1753 
Q 2319 2222 2519 2614 
Q 2719 3006 2719 3438 
Q 2719 3909 2473 4175 
Q 2228 4441 1797 4441 
Q 1350 4441 1106 4219 
Q 863 3997 819 3553 
z
" transform="scale(0.015625)"/>
        <path id="DejaVuSerif-30" d="M 2034 219 
Q 2513 219 2750 744 
Q 2988 1269 2988 2328 
Q 2988 3391 2750 3916 
Q 2513 4441 2034 4441 
Q 1556 4441 1318 3916 
Q 1081 3391 1081 2328 
Q 1081 1269 1318 744 
Q 1556 219 2034 219 
z
M 2034 -91 
Q 1275 -91 848 546 
Q 422 1184 422 2328 
Q 422 3475 848 4112 
Q 1275 4750 2034 4750 
Q 2797 4750 3222 4112 
Q 3647 3475 3647 2328 
Q 3647 1184 3222 546 
Q 2797 -91 2034 -91 
z
" transform="scale(0.015625)"/>
       </defs>
       <use xlink:href="#DejaVuSerif-32"/>
       <use xlink:href="#DejaVuSerif-30" x="63.623047"/>
      </g>
     </g>
    </g>
    <g id="xtick_2">
     <g id="line2d_2">
      <path d="M 1005.931766 3399.744999 
L 1005.931766 1640.255001 
" clip-path="url(#p16a76b3999)" style="fill: none; stroke: #cccccc; stroke-linecap: round"/>
     </g>
     <g id="text_2">
      <!-- 36 -->
      <g style="fill: #262626" transform="translate(967.756766 3384.456025) scale(0.6 -0.6)">
       <defs>
        <path id="DejaVuSerif-33" d="M 622 4469 
Q 988 4606 1323 4678 
Q 1659 4750 1953 4750 
Q 2638 4750 3022 4454 
Q 3406 4159 3406 3634 
Q 3406 3213 3140 2930 
Q 2875 2647 2388 2547 
Q 2963 2466 3280 2130 
Q 3597 1794 3597 1259 
Q 3597 606 3158 257 
Q 2719 -91 1894 -91 
Q 1528 -91 1179 -12 
Q 831 66 488 225 
L 488 1131 
L 838 1131 
Q 869 681 1141 450 
Q 1413 219 1906 219 
Q 2384 219 2661 495 
Q 2938 772 2938 1253 
Q 2938 1803 2653 2086 
Q 2369 2369 1819 2369 
L 1522 2369 
L 1522 2688 
L 1678 2688 
Q 2225 2688 2498 2914 
Q 2772 3141 2772 3597 
Q 2772 4006 2547 4223 
Q 2322 4441 1900 4441 
Q 1478 4441 1245 4241 
Q 1013 4041 972 3647 
L 622 3647 
L 622 4469 
z
" transform="scale(0.015625)"/>
        <path id="DejaVuSerif-36" d="M 2094 219 
Q 2534 219 2771 542 
Q 3009 866 3009 1472 
Q 3009 2078 2771 2401 
Q 2534 2725 2094 2725 
Q 1647 2725 1412 2412 
Q 1178 2100 1178 1509 
Q 1178 888 1415 553 
Q 1653 219 2094 219 
z
M 1075 2569 
Q 1288 2803 1556 2918 
Q 1825 3034 2163 3034 
Q 2859 3034 3264 2615 
Q 3669 2197 3669 1472 
Q 3669 763 3233 336 
Q 2797 -91 2069 -91 
Q 1278 -91 853 498 
Q 428 1088 428 2181 
Q 428 3406 931 4078 
Q 1434 4750 2350 4750 
Q 2597 4750 2869 4703 
Q 3141 4656 3425 4563 
L 3425 3794 
L 3072 3794 
Q 3034 4109 2831 4275 
Q 2628 4441 2284 4441 
Q 1678 4441 1381 3981 
Q 1084 3522 1075 2569 
z
" transform="scale(0.015625)"/>
       </defs>
       <use xlink:href="#DejaVuSerif-33"/>
       <use xlink:href="#DejaVuSerif-36" x="63.623047"/>
      </g>
     </g>
    </g>
    <g id="xtick_3">
     <g id="line2d_3">
      <path d="M 1332.519237 3399.744999 
L 1332.519237 1640.255001 
" clip-path="url(#p16a76b3999)" style="fill: none; stroke: #cccccc; stroke-linecap: round"/>
     </g>
     <g id="text_3">
      <!-- 52 -->
      <g style="fill: #262626" transform="translate(1294.344237 3384.456025) scale(0.6 -0.6)">
       <defs>
        <path id="DejaVuSerif-35" d="M 3219 4666 
L 3219 4153 
L 1081 4153 
L 1081 2816 
Q 1244 2928 1461 2984 
Q 1678 3041 1947 3041 
Q 2703 3041 3140 2622 
Q 3578 2203 3578 1478 
Q 3578 738 3136 323 
Q 2694 -91 1894 -91 
Q 1572 -91 1234 -12 
Q 897 66 544 225 
L 544 1131 
L 897 1131 
Q 925 688 1179 453 
Q 1434 219 1894 219 
Q 2388 219 2653 544 
Q 2919 869 2919 1478 
Q 2919 2084 2655 2407 
Q 2391 2731 1894 2731 
Q 1613 2731 1398 2631 
Q 1184 2531 1019 2322 
L 750 2322 
L 750 4666 
L 3219 4666 
z
" transform="scale(0.015625)"/>
       </defs>
       <use xlink:href="#DejaVuSerif-35"/>
       <use xlink:href="#DejaVuSerif-32" x="63.623047"/>
      </g>
     </g>
    </g>
    <g id="xtick_4">
     <g id="line2d_4">
      <path d="M 1495.812972 3399.744999 
L 1495.812972 1640.255001 
" clip-path="url(#p16a76b3999)" style="fill: none; stroke: #cccccc; stroke-linecap: round"/>
     </g>
     <g id="text_4">
      <!-- 60 -->
      <g style="fill: #262626" transform="translate(1457.637972 3384.456025) scale(0.6 -0.6)">
       <use xlink:href="#DejaVuSerif-36"/>
       <use xlink:href="#DejaVuSerif-30" x="63.623047"/>
      </g>
     </g>
    </g>
    <g id="xtick_5">
     <g id="line2d_5">
      <path d="M 1740.753575 3399.744999 
L 1740.753575 1640.255001 
" clip-path="url(#p16a76b3999)" style="fill: none; stroke: #cccccc; stroke-linecap: round"/>
     </g>
     <g id="text_5">
      <!-- 72 -->
      <g style="fill: #262626" transform="translate(1702.578575 3384.456025) scale(0.6 -0.6)">
       <defs>
        <path id="DejaVuSerif-37" d="M 3609 4347 
L 1784 0 
L 1319 0 
L 3059 4153 
L 903 4153 
L 903 3578 
L 538 3578 
L 538 4666 
L 3609 4666 
L 3609 4347 
z
" transform="scale(0.015625)"/>
       </defs>
       <use xlink:href="#DejaVuSerif-37"/>
       <use xlink:href="#DejaVuSerif-32" x="63.623047"/>
      </g>
     </g>
    </g>
    <g id="xtick_6">
     <g id="line2d_6">
      <path d="M 2148.987914 3399.744999 
L 2148.987914 1640.255001 
" clip-path="url(#p16a76b3999)" style="fill: none; stroke: #cccccc; stroke-linecap: round"/>
     </g>
     <g id="text_6">
      <!-- 92 -->
      <g style="fill: #262626" transform="translate(2110.812914 3384.456025) scale(0.6 -0.6)">
       <defs>
        <path id="DejaVuSerif-39" d="M 2994 2091 
Q 2784 1856 2512 1740 
Q 2241 1625 1900 1625 
Q 1206 1625 804 2044 
Q 403 2463 403 3188 
Q 403 3897 839 4323 
Q 1275 4750 2003 4750 
Q 2794 4750 3217 4161 
Q 3641 3572 3641 2478 
Q 3641 1253 3137 581 
Q 2634 -91 1722 -91 
Q 1475 -91 1203 -44 
Q 931 3 647 97 
L 647 872 
L 997 872 
Q 1038 556 1241 387 
Q 1444 219 1784 219 
Q 2391 219 2687 676 
Q 2984 1134 2994 2091 
z
M 1978 4441 
Q 1534 4441 1298 4117 
Q 1063 3794 1063 3188 
Q 1063 2581 1298 2256 
Q 1534 1931 1978 1931 
Q 2422 1931 2658 2245 
Q 2894 2559 2894 3150 
Q 2894 3772 2656 4106 
Q 2419 4441 1978 4441 
z
" transform="scale(0.015625)"/>
       </defs>
       <use xlink:href="#DejaVuSerif-39"/>
       <use xlink:href="#DejaVuSerif-32" x="63.623047"/>
      </g>
     </g>
    </g>
    <g id="xtick_7">
     <g id="line2d_7">
      <path d="M 2312.281649 3399.744999 
L 2312.281649 1640.255001 
" clip-path="url(#p16a76b3999)" style="fill: none; stroke: #cccccc; stroke-linecap: round"/>
     </g>
     <g id="text_7">
      <!-- 100 -->
      <g style="fill: #262626" transform="translate(2255.019149 3384.456025) scale(0.6 -0.6)">
       <defs>
        <path id="DejaVuSerif-31" d="M 909 0 
L 909 331 
L 1722 331 
L 1722 4213 
L 781 3603 
L 781 4013 
L 1919 4750 
L 2350 4750 
L 2350 331 
L 3163 331 
L 3163 0 
L 909 0 
z
" transform="scale(0.015625)"/>
       </defs>
       <use xlink:href="#DejaVuSerif-31"/>
       <use xlink:href="#DejaVuSerif-30" x="63.623047"/>
       <use xlink:href="#DejaVuSerif-30" x="127.246094"/>
      </g>
     </g>
    </g>
    <g id="xtick_8">
     <g id="line2d_8">
      <path d="M 2557.222252 3399.744999 
L 2557.222252 1640.255001 
" clip-path="url(#p16a76b3999)" style="fill: none; stroke: #cccccc; stroke-linecap: round"/>
     </g>
     <g id="text_8">
      <!-- 112 -->
      <g style="fill: #262626" transform="translate(2499.959752 3384.456025) scale(0.6 -0.6)">
       <use xlink:href="#DejaVuSerif-31"/>
       <use xlink:href="#DejaVuSerif-31" x="63.623047"/>
       <use xlink:href="#DejaVuSerif-32" x="127.246094"/>
      </g>
     </g>
    </g>
    <g id="xtick_9">
     <g id="line2d_9">
      <path d="M 2883.809723 3399.744999 
L 2883.809723 1640.255001 
" clip-path="url(#p16a76b3999)" style="fill: none; stroke: #cccccc; stroke-linecap: round"/>
     </g>
     <g id="text_9">
      <!-- 128 -->
      <g style="fill: #262626" transform="translate(2826.547223 3384.456025) scale(0.6 -0.6)">
       <defs>
        <path id="DejaVuSerif-38" d="M 2981 1275 
Q 2981 1775 2732 2051 
Q 2484 2328 2034 2328 
Q 1584 2328 1336 2051 
Q 1088 1775 1088 1275 
Q 1088 772 1336 495 
Q 1584 219 2034 219 
Q 2484 219 2732 495 
Q 2981 772 2981 1275 
z
M 2853 3541 
Q 2853 3966 2637 4203 
Q 2422 4441 2034 4441 
Q 1650 4441 1433 4203 
Q 1216 3966 1216 3541 
Q 1216 3113 1433 2875 
Q 1650 2638 2034 2638 
Q 2422 2638 2637 2875 
Q 2853 3113 2853 3541 
z
M 2516 2484 
Q 3047 2413 3344 2092 
Q 3641 1772 3641 1275 
Q 3641 619 3225 264 
Q 2809 -91 2034 -91 
Q 1263 -91 845 264 
Q 428 619 428 1275 
Q 428 1772 725 2092 
Q 1022 2413 1556 2484 
Q 1084 2569 832 2842 
Q 581 3116 581 3541 
Q 581 4103 968 4426 
Q 1356 4750 2034 4750 
Q 2713 4750 3100 4426 
Q 3488 4103 3488 3541 
Q 3488 3116 3236 2842 
Q 2984 2569 2516 2484 
z
" transform="scale(0.015625)"/>
       </defs>
       <use xlink:href="#DejaVuSerif-31"/>
       <use xlink:href="#DejaVuSerif-32" x="63.623047"/>
       <use xlink:href="#DejaVuSerif-38" x="127.246094"/>
      </g>
     </g>
    </g>
    <g id="xtick_10">
     <g id="line2d_10">
      <path d="M 3210.397194 3399.744999 
L 3210.397194 1640.255001 
" clip-path="url(#p16a76b3999)" style="fill: none; stroke: #cccccc; stroke-linecap: round"/>
     </g>
     <g id="text_10">
      <!-- 144 -->
      <g style="fill: #262626" transform="translate(3153.134694 3384.456025) scale(0.6 -0.6)">
       <defs>
        <path id="DejaVuSerif-34" d="M 2234 1581 
L 2234 4063 
L 641 1581 
L 2234 1581 
z
M 3609 0 
L 1484 0 
L 1484 331 
L 2234 331 
L 2234 1247 
L 197 1247 
L 197 1588 
L 2241 4750 
L 2859 4750 
L 2859 1581 
L 3750 1581 
L 3750 1247 
L 2859 1247 
L 2859 331 
L 3609 331 
L 3609 0 
z
" transform="scale(0.015625)"/>
       </defs>
       <use xlink:href="#DejaVuSerif-31"/>
       <use xlink:href="#DejaVuSerif-34" x="63.623047"/>
       <use xlink:href="#DejaVuSerif-34" x="127.246094"/>
      </g>
     </g>
    </g>
    <g id="xtick_11">
     <g id="line2d_11">
      <path d="M 3373.690929 3399.744999 
L 3373.690929 1640.255001 
" clip-path="url(#p16a76b3999)" style="fill: none; stroke: #cccccc; stroke-linecap: round"/>
     </g>
     <g id="text_11">
      <!-- 152 -->
      <g style="fill: #262626" transform="translate(3316.428429 3384.456025) scale(0.6 -0.6)">
       <use xlink:href="#DejaVuSerif-31"/>
       <use xlink:href="#DejaVuSerif-35" x="63.623047"/>
       <use xlink:href="#DejaVuSerif-32" x="127.246094"/>
      </g>
     </g>
    </g>
    <g id="xtick_12">
     <g id="line2d_12">
      <path d="M 3536.984664 3399.744999 
L 3536.984664 1640.255001 
" clip-path="url(#p16a76b3999)" style="fill: none; stroke: #cccccc; stroke-linecap: round"/>
     </g>
     <g id="text_12">
      <!-- 160 -->
      <g style="fill: #262626" transform="translate(3479.722164 3384.456025) scale(0.6 -0.6)">
       <use xlink:href="#DejaVuSerif-31"/>
       <use xlink:href="#DejaVuSerif-36" x="63.623047"/>
       <use xlink:href="#DejaVuSerif-30" x="127.246094"/>
      </g>
     </g>
    </g>
    <g id="xtick_13">
     <g id="line2d_13">
      <path d="M 3781.925268 3399.744999 
L 3781.925268 1640.255001 
" clip-path="url(#p16a76b3999)" style="fill: none; stroke: #cccccc; stroke-linecap: round"/>
     </g>
     <g id="text_13">
      <!-- 172 -->
      <g style="fill: #262626" transform="translate(3724.662768 3384.456025) scale(0.6 -0.6)">
       <use xlink:href="#DejaVuSerif-31"/>
       <use xlink:href="#DejaVuSerif-37" x="63.623047"/>
       <use xlink:href="#DejaVuSerif-32" x="127.246094"/>
      </g>
     </g>
    </g>
    <g id="xtick_14">
     <g id="line2d_14">
      <path d="M 4026.865871 3399.744999 
L 4026.865871 1640.255001 
" clip-path="url(#p16a76b3999)" style="fill: none; stroke: #cccccc; stroke-linecap: round"/>
     </g>
     <g id="text_14">
      <!-- 184 -->
      <g style="fill: #262626" transform="translate(3969.603371 3384.456025) scale(0.6 -0.6)">
       <use xlink:href="#DejaVuSerif-31"/>
       <use xlink:href="#DejaVuSerif-38" x="63.623047"/>
       <use xlink:href="#DejaVuSerif-34" x="127.246094"/>
      </g>
     </g>
    </g>
    <g id="xtick_15">
     <g id="line2d_15">
      <path d="M 4435.100209 3399.744999 
L 4435.100209 1640.255001 
" clip-path="url(#p16a76b3999)" style="fill: none; stroke: #cccccc; stroke-linecap: round"/>
     </g>
     <g id="text_15">
      <!-- 204 -->
      <g style="fill: #262626" transform="translate(4377.837709 3384.456025) scale(0.6 -0.6)">
       <use xlink:href="#DejaVuSerif-32"/>
       <use xlink:href="#DejaVuSerif-30" x="63.623047"/>
       <use xlink:href="#DejaVuSerif-34" x="127.246094"/>
      </g>
     </g>
    </g>
    <g id="xtick_16">
     <g id="line2d_16">
      <path d="M 4843.334548 3399.744999 
L 4843.334548 1640.255001 
" clip-path="url(#p16a76b3999)" style="fill: none; stroke: #cccccc; stroke-linecap: round"/>
     </g>
     <g id="text_16">
      <!-- 224 -->
      <g style="fill: #262626" transform="translate(4786.072048 3384.456025) scale(0.6 -0.6)">
       <use xlink:href="#DejaVuSerif-32"/>
       <use xlink:href="#DejaVuSerif-32" x="63.623047"/>
       <use xlink:href="#DejaVuSerif-34" x="127.246094"/>
      </g>
     </g>
    </g>
    <g id="text_17">
     <!-- Time(s) -->
     <g style="fill: #262626" transform="translate(2404.403502 3464.532499) scale(0.8 -0.8)">
      <defs>
       <path id="DejaVuSerif-54" d="M 1222 0 
L 1222 331 
L 1819 331 
L 1819 4294 
L 447 4294 
L 447 3566 
L 63 3566 
L 63 4666 
L 4206 4666 
L 4206 3566 
L 3822 3566 
L 3822 4294 
L 2450 4294 
L 2450 331 
L 3047 331 
L 3047 0 
L 1222 0 
z
" transform="scale(0.015625)"/>
       <path id="DejaVuSerif-69" d="M 622 4353 
Q 622 4497 726 4603 
Q 831 4709 978 4709 
Q 1122 4709 1226 4603 
Q 1331 4497 1331 4353 
Q 1331 4206 1228 4103 
Q 1125 4000 978 4000 
Q 831 4000 726 4103 
Q 622 4206 622 4353 
z
M 1356 331 
L 1900 331 
L 1900 0 
L 231 0 
L 231 331 
L 781 331 
L 781 2988 
L 231 2988 
L 231 3322 
L 1356 3322 
L 1356 331 
z
" transform="scale(0.015625)"/>
       <path id="DejaVuSerif-6d" d="M 3316 2675 
Q 3481 3041 3739 3227 
Q 3997 3413 4341 3413 
Q 4863 3413 5119 3089 
Q 5375 2766 5375 2113 
L 5375 331 
L 5894 331 
L 5894 0 
L 4300 0 
L 4300 331 
L 4800 331 
L 4800 2047 
Q 4800 2556 4650 2772 
Q 4500 2988 4153 2988 
Q 3769 2988 3567 2697 
Q 3366 2406 3366 1850 
L 3366 331 
L 3866 331 
L 3866 0 
L 2291 0 
L 2291 331 
L 2791 331 
L 2791 2069 
Q 2791 2566 2641 2777 
Q 2491 2988 2144 2988 
Q 1759 2988 1557 2697 
Q 1356 2406 1356 1850 
L 1356 331 
L 1856 331 
L 1856 0 
L 263 0 
L 263 331 
L 781 331 
L 781 2994 
L 231 2994 
L 231 3322 
L 1356 3322 
L 1356 2731 
Q 1516 3063 1762 3238 
Q 2009 3413 2322 3413 
Q 2709 3413 2968 3220 
Q 3228 3028 3316 2675 
z
" transform="scale(0.015625)"/>
       <path id="DejaVuSerif-65" d="M 3469 1600 
L 991 1600 
L 991 1575 
Q 991 903 1244 561 
Q 1497 219 1991 219 
Q 2369 219 2611 417 
Q 2853 616 2950 1006 
L 3413 1006 
Q 3275 459 2904 184 
Q 2534 -91 1931 -91 
Q 1203 -91 761 389 
Q 319 869 319 1663 
Q 319 2450 753 2931 
Q 1188 3413 1894 3413 
Q 2647 3413 3050 2948 
Q 3453 2484 3469 1600 
z
M 2791 1931 
Q 2772 2513 2545 2808 
Q 2319 3103 1894 3103 
Q 1497 3103 1269 2806 
Q 1041 2509 991 1931 
L 2791 1931 
z
" transform="scale(0.015625)"/>
       <path id="DejaVuSerif-28" d="M 2041 -997 
Q 1281 -656 893 83 
Q 506 822 506 1931 
Q 506 3044 893 3783 
Q 1281 4522 2041 4863 
L 2041 4556 
Q 1559 4225 1350 3623 
Q 1141 3022 1141 1931 
Q 1141 844 1350 242 
Q 1559 -359 2041 -691 
L 2041 -997 
z
" transform="scale(0.015625)"/>
       <path id="DejaVuSerif-73" d="M 359 184 
L 359 959 
L 691 959 
Q 703 588 923 403 
Q 1144 219 1575 219 
Q 1963 219 2166 364 
Q 2369 509 2369 788 
Q 2369 1006 2220 1140 
Q 2072 1275 1594 1428 
L 1178 1569 
Q 750 1706 558 1912 
Q 366 2119 366 2438 
Q 366 2894 700 3153 
Q 1034 3413 1625 3413 
Q 1888 3413 2178 3344 
Q 2469 3275 2778 3144 
L 2778 2419 
L 2447 2419 
Q 2434 2741 2221 2922 
Q 2009 3103 1644 3103 
Q 1281 3103 1095 2975 
Q 909 2847 909 2591 
Q 909 2381 1050 2254 
Q 1191 2128 1613 1997 
L 2069 1856 
Q 2541 1709 2748 1489 
Q 2956 1269 2956 922 
Q 2956 450 2595 179 
Q 2234 -91 1600 -91 
Q 1278 -91 972 -22 
Q 666 47 359 184 
z
" transform="scale(0.015625)"/>
       <path id="DejaVuSerif-29" d="M 453 -997 
L 453 -691 
Q 934 -359 1145 242 
Q 1356 844 1356 1931 
Q 1356 3022 1145 3623 
Q 934 4225 453 4556 
L 453 4863 
Q 1216 4522 1603 3783 
Q 1991 3044 1991 1931 
Q 1991 822 1603 83 
Q 1216 -656 453 -997 
z
" transform="scale(0.015625)"/>
      </defs>
      <use xlink:href="#DejaVuSerif-54"/>
      <use xlink:href="#DejaVuSerif-69" x="66.699219"/>
      <use xlink:href="#DejaVuSerif-6d" x="98.681641"/>
      <use xlink:href="#DejaVuSerif-65" x="193.505859"/>
      <use xlink:href="#DejaVuSerif-28" x="252.685547"/>
      <use xlink:href="#DejaVuSerif-73" x="291.699219"/>
      <use xlink:href="#DejaVuSerif-29" x="343.017578"/>
     </g>
    </g>
   </g>
   <g id="patch_3">
    <path d="M 271.109956 3307.892273 
L 679.344295 3307.892273 
L 679.344295 1879.072089 
L 271.109956 1879.072089 
z
" clip-path="url(#p16a76b3999)" style="fill: #1ea4a4; stroke: #1ea4a4; stroke-linejoin: miter"/>
   </g>
   <g id="patch_4">
    <path d="M 679.344295 3307.892273 
L 1005.931766 3307.892273 
L 1005.931766 1879.072089 
L 679.344295 1879.072089 
z
" clip-path="url(#p16a76b3999)" style="fill: #c8c8c8; stroke: #c8c8c8; stroke-linejoin: miter"/>
   </g>
   <g id="patch_5">
    <path d="M 1005.931766 3307.892273 
L 1332.519237 3307.892273 
L 1332.519237 1879.072089 
L 1005.931766 1879.072089 
z
" clip-path="url(#p16a76b3999)" style="fill: #1ea4a4; stroke: #1ea4a4; stroke-linejoin: miter"/>
   </g>
   <g id="patch_6">
    <path d="M 1332.519237 3307.892273 
L 1495.812972 3307.892273 
L 1495.812972 1879.072089 
L 1332.519237 1879.072089 
z
" clip-path="url(#p16a76b3999)" style="fill: #c8c8c8; stroke: #c8c8c8; stroke-linejoin: miter"/>
   </g>
   <g id="patch_7">
    <path d="M 1495.812972 3307.892273 
L 1740.753575 3307.892273 
L 1740.753575 1879.072089 
L 1495.812972 1879.072089 
z
" clip-path="url(#p16a76b3999)" style="fill: #1ea4a4; stroke: #1ea4a4; stroke-linejoin: miter"/>
   </g>
   <g id="patch_8">
    <path d="M 1740.753575 3307.892273 
L 2148.987914 3307.892273 
L 2148.987914 1879.072089 
L 1740.753575 1879.072089 
z
" clip-path="url(#p16a76b3999)" style="fill: #c8c8c8; stroke: #c8c8c8; stroke-linejoin: miter"/>
   </g>
   <g id="patch_9">
    <path d="M 2148.987914 3307.892273 
L 2312.281649 3307.892273 
L 2312.281649 1879.072089 
L 2148.987914 1879.072089 
z
" clip-path="url(#p16a76b3999)" style="fill: #1ea4a4; stroke: #1ea4a4; stroke-linejoin: miter"/>
   </g>
   <g id="patch_10">
    <path d="M 2312.281649 3307.892273 
L 2557.222252 3307.892273 
L 2557.222252 1879.072089 
L 2312.281649 1879.072089 
z
" clip-path="url(#p16a76b3999)" style="fill: #c8c8c8; stroke: #c8c8c8; stroke-linejoin: miter"/>
   </g>
   <g id="patch_11">
    <path d="M 2557.222252 3307.892273 
L 2883.809723 3307.892273 
L 2883.809723 1879.072089 
L 2557.222252 1879.072089 
z
" clip-path="url(#p16a76b3999)" style="fill: #1ea4a4; stroke: #1ea4a4; stroke-linejoin: miter"/>
   </g>
   <g id="patch_12">
    <path d="M 2883.809723 3307.892273 
L 3210.397194 3307.892273 
L 3210.397194 1879.072089 
L 2883.809723 1879.072089 
z
" clip-path="url(#p16a76b3999)" style="fill: #c8c8c8; stroke: #c8c8c8; stroke-linejoin: miter"/>
   </g>
   <g id="patch_13">
    <path d="M 3210.397194 3307.892273 
L 3373.690929 3307.892273 
L 3373.690929 1879.072089 
L 3210.397194 1879.072089 
z
" clip-path="url(#p16a76b3999)" style="fill: #1ea4a4; stroke: #1ea4a4; stroke-linejoin: miter"/>
   </g>
   <g id="patch_14">
    <path d="M 3373.690929 3307.892273 
L 3536.984664 3307.892273 
L 3536.984664 1879.072089 
L 3373.690929 1879.072089 
z
" clip-path="url(#p16a76b3999)" style="fill: #c8c8c8; stroke: #c8c8c8; stroke-linejoin: miter"/>
   </g>
   <g id="patch_15">
    <path d="M 3536.984664 3307.892273 
L 3781.925268 3307.892273 
L 3781.925268 1879.072089 
L 3536.984664 1879.072089 
z
" clip-path="url(#p16a76b3999)" style="fill: #1ea4a4; stroke: #1ea4a4; stroke-linejoin: miter"/>
   </g>
   <g id="patch_16">
    <path d="M 3781.925268 3307.892273 
L 4026.865871 3307.892273 
L 4026.865871 1879.072089 
L 3781.925268 1879.072089 
z
" clip-path="url(#p16a76b3999)" style="fill: #c8c8c8; stroke: #c8c8c8; stroke-linejoin: miter"/>
   </g>
   <g id="patch_17">
    <path d="M 4026.865871 3307.892273 
L 4435.100209 3307.892273 
L 4435.100209 1879.072089 
L 4026.865871 1879.072089 
z
" clip-path="url(#p16a76b3999)" style="fill: #1ea4a4; stroke: #1ea4a4; stroke-linejoin: miter"/>
   </g>
   <g id="patch_18">
    <path d="M 4435.100209 3307.892273 
L 4843.334548 3307.892273 
L 4843.334548 1879.072089 
L 4435.100209 1879.072089 
z
" clip-path="url(#p16a76b3999)" style="fill: #c8c8c8; stroke: #c8c8c8; stroke-linejoin: miter"/>
   </g>
   <g id="patch_19">
    <path d="M 286.418744 2251.585922 
C 290.478682 2251.585922 294.372882 2249.972892 297.243692 2247.102082 
C 300.114501 2244.231273 301.727532 2240.337073 301.727532 2236.277135 
C 301.727532 2232.217197 300.114501 2228.322997 297.243692 2225.452187 
C 294.372882 2222.581377 290.478682 2220.968347 286.418744 2220.968347 
C 282.358806 2220.968347 278.464606 2222.581377 275.593797 2225.452187 
C 272.722987 2228.322997 271.109956 2232.217197 271.109956 2236.277135 
C 271.109956 2240.337073 272.722987 2244.231273 275.593797 2247.102082 
C 278.464606 2249.972892 282.358806 2251.585922 286.418744 2251.585922 
z
" clip-path="url(#p16a76b3999)" style="stroke: #000000; stroke-linejoin: miter"/>
   </g>
   <g id="patch_20">
    <path d="M 368.065612 2251.585922 
C 372.12555 2251.585922 376.01975 2249.972892 378.890559 2247.102082 
C 381.761369 2244.231273 383.3744 2240.337073 383.3744 2236.277135 
C 383.3744 2232.217197 381.761369 2228.322997 378.890559 2225.452187 
C 376.01975 2222.581377 372.12555 2220.968347 368.065612 2220.968347 
C 364.005674 2220.968347 360.111474 2222.581377 357.240664 2225.452187 
C 354.369855 2228.322997 352.756824 2232.217197 352.756824 2236.277135 
C 352.756824 2240.337073 354.369855 2244.231273 357.240664 2247.102082 
C 360.111474 2249.972892 364.005674 2251.585922 368.065612 2251.585922 
z
" clip-path="url(#p16a76b3999)" style="stroke: #000000; stroke-linejoin: miter"/>
   </g>
   <g id="patch_21">
    <path d="M 449.71248 2251.585922 
C 453.772418 2251.585922 457.666617 2249.972892 460.537427 2247.102082 
C 463.408237 2244.231273 465.021267 2240.337073 465.021267 2236.277135 
C 465.021267 2232.217197 463.408237 2228.322997 460.537427 2225.452187 
C 457.666617 2222.581377 453.772418 2220.968347 449.71248 2220.968347 
C 445.652542 2220.968347 441.758342 2222.581377 438.887532 2225.452187 
C 436.016722 2228.322997 434.403692 2232.217197 434.403692 2236.277135 
C 434.403692 2240.337073 436.016722 2244.231273 438.887532 2247.102082 
C 441.758342 2249.972892 445.652542 2251.585922 449.71248 2251.585922 
z
" clip-path="url(#p16a76b3999)" style="stroke: #000000; stroke-linejoin: miter"/>
   </g>
   <g id="patch_22">
    <path d="M 531.359347 2251.585922 
C 535.419285 2251.585922 539.313485 2249.972892 542.184295 2247.102082 
C 545.055105 2244.231273 546.668135 2240.337073 546.668135 2236.277135 
C 546.668135 2232.217197 545.055105 2228.322997 542.184295 2225.452187 
C 539.313485 2222.581377 535.419285 2220.968347 531.359347 2220.968347 
C 527.299409 2220.968347 523.405209 2222.581377 520.5344 2225.452187 
C 517.66359 2228.322997 516.05056 2232.217197 516.05056 2236.277135 
C 516.05056 2240.337073 517.66359 2244.231273 520.5344 2247.102082 
C 523.405209 2249.972892 527.299409 2251.585922 531.359347 2251.585922 
z
" clip-path="url(#p16a76b3999)" style="stroke: #000000; stroke-linejoin: miter"/>
   </g>
   <g id="patch_23">
    <path d="M 613.006215 2251.585922 
C 617.066153 2251.585922 620.960353 2249.972892 623.831163 2247.102082 
C 626.701972 2244.231273 628.315003 2240.337073 628.315003 2236.277135 
C 628.315003 2232.217197 626.701972 2228.322997 623.831163 2225.452187 
C 620.960353 2222.581377 617.066153 2220.968347 613.006215 2220.968347 
C 608.946277 2220.968347 605.052077 2222.581377 602.181267 2225.452187 
C 599.310458 2228.322997 597.697427 2232.217197 597.697427 2236.277135 
C 597.697427 2240.337073 599.310458 2244.231273 602.181267 2247.102082 
C 605.052077 2249.972892 608.946277 2251.585922 613.006215 2251.585922 
z
" clip-path="url(#p16a76b3999)" style="stroke: #000000; stroke-linejoin: miter"/>
   </g>
   <g id="patch_24">
    <path d="M 694.653083 2251.585922 
C 698.713021 2251.585922 702.607221 2249.972892 705.47803 2247.102082 
C 708.34884 2244.231273 709.96187 2240.337073 709.96187 2236.277135 
C 709.96187 2232.217197 708.34884 2228.322997 705.47803 2225.452187 
C 702.607221 2222.581377 698.713021 2220.968347 694.653083 2220.968347 
C 690.593145 2220.968347 686.698945 2222.581377 683.828135 2225.452187 
C 680.957325 2228.322997 679.344295 2232.217197 679.344295 2236.277135 
C 679.344295 2240.337073 680.957325 2244.231273 683.828135 2247.102082 
C 686.698945 2249.972892 690.593145 2251.585922 694.653083 2251.585922 
z
" clip-path="url(#p16a76b3999)" style="fill: #ff0000; stroke: #ff0000; stroke-linejoin: miter"/>
   </g>
   <g id="patch_25">
    <path d="M 776.29995 2965.996015 
C 780.359888 2965.996015 784.254088 2964.382984 787.124898 2961.512175 
C 789.995708 2958.641365 791.608738 2954.747165 791.608738 2950.687227 
C 791.608738 2946.627289 789.995708 2942.733089 787.124898 2939.86228 
C 784.254088 2936.99147 780.359888 2935.378439 776.29995 2935.378439 
C 772.240012 2935.378439 768.345812 2936.99147 765.475003 2939.86228 
C 762.604193 2942.733089 760.991163 2946.627289 760.991163 2950.687227 
C 760.991163 2954.747165 762.604193 2958.641365 765.475003 2961.512175 
C 768.345812 2964.382984 772.240012 2965.996015 776.29995 2965.996015 
z
" clip-path="url(#p16a76b3999)" style="stroke: #000000; stroke-linejoin: miter"/>
   </g>
   <g id="patch_26">
    <path d="M 857.946818 2965.996015 
C 862.006756 2965.996015 865.900956 2964.382984 868.771766 2961.512175 
C 871.642575 2958.641365 873.255606 2954.747165 873.255606 2950.687227 
C 873.255606 2946.627289 871.642575 2942.733089 868.771766 2939.86228 
C 865.900956 2936.99147 862.006756 2935.378439 857.946818 2935.378439 
C 853.88688 2935.378439 849.99268 2936.99147 847.12187 2939.86228 
C 844.251061 2942.733089 842.63803 2946.627289 842.63803 2950.687227 
C 842.63803 2954.747165 844.251061 2958.641365 847.12187 2961.512175 
C 849.99268 2964.382984 853.88688 2965.996015 857.946818 2965.996015 
z
" clip-path="url(#p16a76b3999)" style="stroke: #000000; stroke-linejoin: miter"/>
   </g>
   <g id="patch_27">
    <path d="M 939.593686 2965.996015 
C 943.653624 2965.996015 947.547824 2964.382984 950.418633 2961.512175 
C 953.289443 2958.641365 954.902473 2954.747165 954.902473 2950.687227 
C 954.902473 2946.627289 953.289443 2942.733089 950.418633 2939.86228 
C 947.547824 2936.99147 943.653624 2935.378439 939.593686 2935.378439 
C 935.533748 2935.378439 931.639548 2936.99147 928.768738 2939.86228 
C 925.897929 2942.733089 924.284898 2946.627289 924.284898 2950.687227 
C 924.284898 2954.747165 925.897929 2958.641365 928.768738 2961.512175 
C 931.639548 2964.382984 935.533748 2965.996015 939.593686 2965.996015 
z
" clip-path="url(#p16a76b3999)" style="stroke: #000000; stroke-linejoin: miter"/>
   </g>
   <g id="patch_28">
    <path d="M 1021.240553 2251.585922 
C 1025.300491 2251.585922 1029.194691 2249.972892 1032.065501 2247.102082 
C 1034.936311 2244.231273 1036.549341 2240.337073 1036.549341 2236.277135 
C 1036.549341 2232.217197 1034.936311 2228.322997 1032.065501 2225.452187 
C 1029.194691 2222.581377 1025.300491 2220.968347 1021.240553 2220.968347 
C 1017.180616 2220.968347 1013.286416 2222.581377 1010.415606 2225.452187 
C 1007.544796 2228.322997 1005.931766 2232.217197 1005.931766 2236.277135 
C 1005.931766 2240.337073 1007.544796 2244.231273 1010.415606 2247.102082 
C 1013.286416 2249.972892 1017.180616 2251.585922 1021.240553 2251.585922 
z
" clip-path="url(#p16a76b3999)" style="stroke: #000000; stroke-linejoin: miter"/>
   </g>
   <g id="patch_29">
    <path d="M 1102.887421 2251.585922 
C 1106.947359 2251.585922 1110.841559 2249.972892 1113.712369 2247.102082 
C 1116.583178 2244.231273 1118.196209 2240.337073 1118.196209 2236.277135 
C 1118.196209 2232.217197 1116.583178 2228.322997 1113.712369 2225.452187 
C 1110.841559 2222.581377 1106.947359 2220.968347 1102.887421 2220.968347 
C 1098.827483 2220.968347 1094.933283 2222.581377 1092.062474 2225.452187 
C 1089.191664 2228.322997 1087.578633 2232.217197 1087.578633 2236.277135 
C 1087.578633 2240.337073 1089.191664 2244.231273 1092.062474 2247.102082 
C 1094.933283 2249.972892 1098.827483 2251.585922 1102.887421 2251.585922 
z
" clip-path="url(#p16a76b3999)" style="stroke: #000000; stroke-linejoin: miter"/>
   </g>
   <g id="patch_30">
    <path d="M 1184.534289 2251.585922 
C 1188.594227 2251.585922 1192.488427 2249.972892 1195.359236 2247.102082 
C 1198.230046 2244.231273 1199.843077 2240.337073 1199.843077 2236.277135 
C 1199.843077 2232.217197 1198.230046 2228.322997 1195.359236 2225.452187 
C 1192.488427 2222.581377 1188.594227 2220.968347 1184.534289 2220.968347 
C 1180.474351 2220.968347 1176.580151 2222.581377 1173.709341 2225.452187 
C 1170.838532 2228.322997 1169.225501 2232.217197 1169.225501 2236.277135 
C 1169.225501 2240.337073 1170.838532 2244.231273 1173.709341 2247.102082 
C 1176.580151 2249.972892 1180.474351 2251.585922 1184.534289 2251.585922 
z
" clip-path="url(#p16a76b3999)" style="stroke: #000000; stroke-linejoin: miter"/>
   </g>
   <g id="patch_31">
    <path d="M 1266.181157 2251.585922 
C 1270.241095 2251.585922 1274.135294 2249.972892 1277.006104 2247.102082 
C 1279.876914 2244.231273 1281.489944 2240.337073 1281.489944 2236.277135 
C 1281.489944 2232.217197 1279.876914 2228.322997 1277.006104 2225.452187 
C 1274.135294 2222.581377 1270.241095 2220.968347 1266.181157 2220.968347 
C 1262.121219 2220.968347 1258.227019 2222.581377 1255.356209 2225.452187 
C 1252.485399 2228.322997 1250.872369 2232.217197 1250.872369 2236.277135 
C 1250.872369 2240.337073 1252.485399 2244.231273 1255.356209 2247.102082 
C 1258.227019 2249.972892 1262.121219 2251.585922 1266.181157 2251.585922 
z
" clip-path="url(#p16a76b3999)" style="stroke: #000000; stroke-linejoin: miter"/>
   </g>
   <g id="patch_32">
    <path d="M 1347.828024 2965.996015 
C 1351.887962 2965.996015 1355.782162 2964.382984 1358.652972 2961.512175 
C 1361.523782 2958.641365 1363.136812 2954.747165 1363.136812 2950.687227 
C 1363.136812 2946.627289 1361.523782 2942.733089 1358.652972 2939.86228 
C 1355.782162 2936.99147 1351.887962 2935.378439 1347.828024 2935.378439 
C 1343.768086 2935.378439 1339.873886 2936.99147 1337.003077 2939.86228 
C 1334.132267 2942.733089 1332.519237 2946.627289 1332.519237 2950.687227 
C 1332.519237 2954.747165 1334.132267 2958.641365 1337.003077 2961.512175 
C 1339.873886 2964.382984 1343.768086 2965.996015 1347.828024 2965.996015 
z
" clip-path="url(#p16a76b3999)" style="stroke: #000000; stroke-linejoin: miter"/>
   </g>
   <g id="patch_33">
    <path d="M 1429.474892 2965.996015 
C 1433.53483 2965.996015 1437.42903 2964.382984 1440.29984 2961.512175 
C 1443.170649 2958.641365 1444.78368 2954.747165 1444.78368 2950.687227 
C 1444.78368 2946.627289 1443.170649 2942.733089 1440.29984 2939.86228 
C 1437.42903 2936.99147 1433.53483 2935.378439 1429.474892 2935.378439 
C 1425.414954 2935.378439 1421.520754 2936.99147 1418.649944 2939.86228 
C 1415.779135 2942.733089 1414.166104 2946.627289 1414.166104 2950.687227 
C 1414.166104 2954.747165 1415.779135 2958.641365 1418.649944 2961.512175 
C 1421.520754 2964.382984 1425.414954 2965.996015 1429.474892 2965.996015 
z
" clip-path="url(#p16a76b3999)" style="stroke: #000000; stroke-linejoin: miter"/>
   </g>
   <g id="patch_34">
    <path d="M 1511.12176 2251.585922 
C 1515.181698 2251.585922 1519.075898 2249.972892 1521.946707 2247.102082 
C 1524.817517 2244.231273 1526.430547 2240.337073 1526.430547 2236.277135 
C 1526.430547 2232.217197 1524.817517 2228.322997 1521.946707 2225.452187 
C 1519.075898 2222.581377 1515.181698 2220.968347 1511.12176 2220.968347 
C 1507.061822 2220.968347 1503.167622 2222.581377 1500.296812 2225.452187 
C 1497.426002 2228.322997 1495.812972 2232.217197 1495.812972 2236.277135 
C 1495.812972 2240.337073 1497.426002 2244.231273 1500.296812 2247.102082 
C 1503.167622 2249.972892 1507.061822 2251.585922 1511.12176 2251.585922 
z
" clip-path="url(#p16a76b3999)" style="stroke: #000000; stroke-linejoin: miter"/>
   </g>
   <g id="patch_35">
    <path d="M 1592.768627 2965.996015 
C 1596.828565 2965.996015 1600.722765 2964.382984 1603.593575 2961.512175 
C 1606.464385 2958.641365 1608.077415 2954.747165 1608.077415 2950.687227 
C 1608.077415 2946.627289 1606.464385 2942.733089 1603.593575 2939.86228 
C 1600.722765 2936.99147 1596.828565 2935.378439 1592.768627 2935.378439 
C 1588.708689 2935.378439 1584.814489 2936.99147 1581.94368 2939.86228 
C 1579.07287 2942.733089 1577.45984 2946.627289 1577.45984 2950.687227 
C 1577.45984 2954.747165 1579.07287 2958.641365 1581.94368 2961.512175 
C 1584.814489 2964.382984 1588.708689 2965.996015 1592.768627 2965.996015 
z
" clip-path="url(#p16a76b3999)" style="fill: #ff0000; stroke: #ff0000; stroke-linejoin: miter"/>
   </g>
   <g id="patch_36">
    <path d="M 1674.415495 2251.585922 
C 1678.475433 2251.585922 1682.369633 2249.972892 1685.240443 2247.102082 
C 1688.111252 2244.231273 1689.724283 2240.337073 1689.724283 2236.277135 
C 1689.724283 2232.217197 1688.111252 2228.322997 1685.240443 2225.452187 
C 1682.369633 2222.581377 1678.475433 2220.968347 1674.415495 2220.968347 
C 1670.355557 2220.968347 1666.461357 2222.581377 1663.590547 2225.452187 
C 1660.719738 2228.322997 1659.106707 2232.217197 1659.106707 2236.277135 
C 1659.106707 2240.337073 1660.719738 2244.231273 1663.590547 2247.102082 
C 1666.461357 2249.972892 1670.355557 2251.585922 1674.415495 2251.585922 
z
" clip-path="url(#p16a76b3999)" style="stroke: #000000; stroke-linejoin: miter"/>
   </g>
   <g id="patch_37">
    <path d="M 1756.062363 2965.996015 
C 1760.122301 2965.996015 1764.016501 2964.382984 1766.88731 2961.512175 
C 1769.75812 2958.641365 1771.37115 2954.747165 1771.37115 2950.687227 
C 1771.37115 2946.627289 1769.75812 2942.733089 1766.88731 2939.86228 
C 1764.016501 2936.99147 1760.122301 2935.378439 1756.062363 2935.378439 
C 1752.002425 2935.378439 1748.108225 2936.99147 1745.237415 2939.86228 
C 1742.366606 2942.733089 1740.753575 2946.627289 1740.753575 2950.687227 
C 1740.753575 2954.747165 1742.366606 2958.641365 1745.237415 2961.512175 
C 1748.108225 2964.382984 1752.002425 2965.996015 1756.062363 2965.996015 
z
" clip-path="url(#p16a76b3999)" style="stroke: #000000; stroke-linejoin: miter"/>
   </g>
   <g id="patch_38">
    <path d="M 1837.70923 2965.996015 
C 1841.769168 2965.996015 1845.663368 2964.382984 1848.534178 2961.512175 
C 1851.404988 2958.641365 1853.018018 2954.747165 1853.018018 2950.687227 
C 1853.018018 2946.627289 1851.404988 2942.733089 1848.534178 2939.86228 
C 1845.663368 2936.99147 1841.769168 2935.378439 1837.70923 2935.378439 
C 1833.649293 2935.378439 1829.755093 2936.99147 1826.884283 2939.86228 
C 1824.013473 2942.733089 1822.400443 2946.627289 1822.400443 2950.687227 
C 1822.400443 2954.747165 1824.013473 2958.641365 1826.884283 2961.512175 
C 1829.755093 2964.382984 1833.649293 2965.996015 1837.70923 2965.996015 
z
" clip-path="url(#p16a76b3999)" style="stroke: #000000; stroke-linejoin: miter"/>
   </g>
   <g id="patch_39">
    <path d="M 1919.356098 2965.996015 
C 1923.416036 2965.996015 1927.310236 2964.382984 1930.181046 2961.512175 
C 1933.051855 2958.641365 1934.664886 2954.747165 1934.664886 2950.687227 
C 1934.664886 2946.627289 1933.051855 2942.733089 1930.181046 2939.86228 
C 1927.310236 2936.99147 1923.416036 2935.378439 1919.356098 2935.378439 
C 1915.29616 2935.378439 1911.40196 2936.99147 1908.531151 2939.86228 
C 1905.660341 2942.733089 1904.04731 2946.627289 1904.04731 2950.687227 
C 1904.04731 2954.747165 1905.660341 2958.641365 1908.531151 2961.512175 
C 1911.40196 2964.382984 1915.29616 2965.996015 1919.356098 2965.996015 
z
" clip-path="url(#p16a76b3999)" style="stroke: #000000; stroke-linejoin: miter"/>
   </g>
   <g id="patch_40">
    <path d="M 2001.002966 2965.996015 
C 2005.062904 2965.996015 2008.957104 2964.382984 2011.827913 2961.512175 
C 2014.698723 2958.641365 2016.311754 2954.747165 2016.311754 2950.687227 
C 2016.311754 2946.627289 2014.698723 2942.733089 2011.827913 2939.86228 
C 2008.957104 2936.99147 2005.062904 2935.378439 2001.002966 2935.378439 
C 1996.943028 2935.378439 1993.048828 2936.99147 1990.178018 2939.86228 
C 1987.307209 2942.733089 1985.694178 2946.627289 1985.694178 2950.687227 
C 1985.694178 2954.747165 1987.307209 2958.641365 1990.178018 2961.512175 
C 1993.048828 2964.382984 1996.943028 2965.996015 2001.002966 2965.996015 
z
" clip-path="url(#p16a76b3999)" style="stroke: #000000; stroke-linejoin: miter"/>
   </g>
   <g id="patch_41">
    <path d="M 2082.649834 2965.996015 
C 2086.709772 2965.996015 2090.603971 2964.382984 2093.474781 2961.512175 
C 2096.345591 2958.641365 2097.958621 2954.747165 2097.958621 2950.687227 
C 2097.958621 2946.627289 2096.345591 2942.733089 2093.474781 2939.86228 
C 2090.603971 2936.99147 2086.709772 2935.378439 2082.649834 2935.378439 
C 2078.589896 2935.378439 2074.695696 2936.99147 2071.824886 2939.86228 
C 2068.954076 2942.733089 2067.341046 2946.627289 2067.341046 2950.687227 
C 2067.341046 2954.747165 2068.954076 2958.641365 2071.824886 2961.512175 
C 2074.695696 2964.382984 2078.589896 2965.996015 2082.649834 2965.996015 
z
" clip-path="url(#p16a76b3999)" style="stroke: #000000; stroke-linejoin: miter"/>
   </g>
   <g id="patch_42">
    <path d="M 2164.296701 2965.996015 
C 2168.356639 2965.996015 2172.250839 2964.382984 2175.121649 2961.512175 
C 2177.992459 2958.641365 2179.605489 2954.747165 2179.605489 2950.687227 
C 2179.605489 2946.627289 2177.992459 2942.733089 2175.121649 2939.86228 
C 2172.250839 2936.99147 2168.356639 2935.378439 2164.296701 2935.378439 
C 2160.236763 2935.378439 2156.342563 2936.99147 2153.471754 2939.86228 
C 2150.600944 2942.733089 2148.987914 2946.627289 2148.987914 2950.687227 
C 2148.987914 2954.747165 2150.600944 2958.641365 2153.471754 2961.512175 
C 2156.342563 2964.382984 2160.236763 2965.996015 2164.296701 2965.996015 
z
" clip-path="url(#p16a76b3999)" style="fill: #ff0000; stroke: #ff0000; stroke-linejoin: miter"/>
   </g>
   <g id="patch_43">
    <path d="M 2245.943569 2251.585922 
C 2250.003507 2251.585922 2253.897707 2249.972892 2256.768517 2247.102082 
C 2259.639326 2244.231273 2261.252357 2240.337073 2261.252357 2236.277135 
C 2261.252357 2232.217197 2259.639326 2228.322997 2256.768517 2225.452187 
C 2253.897707 2222.581377 2250.003507 2220.968347 2245.943569 2220.968347 
C 2241.883631 2220.968347 2237.989431 2222.581377 2235.118621 2225.452187 
C 2232.247812 2228.322997 2230.634781 2232.217197 2230.634781 2236.277135 
C 2230.634781 2240.337073 2232.247812 2244.231273 2235.118621 2247.102082 
C 2237.989431 2249.972892 2241.883631 2251.585922 2245.943569 2251.585922 
z
" clip-path="url(#p16a76b3999)" style="stroke: #000000; stroke-linejoin: miter"/>
   </g>
   <g id="patch_44">
    <path d="M 2327.590437 2965.996015 
C 2331.650375 2965.996015 2335.544575 2964.382984 2338.415384 2961.512175 
C 2341.286194 2958.641365 2342.899224 2954.747165 2342.899224 2950.687227 
C 2342.899224 2946.627289 2341.286194 2942.733089 2338.415384 2939.86228 
C 2335.544575 2936.99147 2331.650375 2935.378439 2327.590437 2935.378439 
C 2323.530499 2935.378439 2319.636299 2936.99147 2316.765489 2939.86228 
C 2313.894679 2942.733089 2312.281649 2946.627289 2312.281649 2950.687227 
C 2312.281649 2954.747165 2313.894679 2958.641365 2316.765489 2961.512175 
C 2319.636299 2964.382984 2323.530499 2965.996015 2327.590437 2965.996015 
z
" clip-path="url(#p16a76b3999)" style="stroke: #000000; stroke-linejoin: miter"/>
   </g>
   <g id="patch_45">
    <path d="M 2409.237304 2965.996015 
C 2413.297242 2965.996015 2417.191442 2964.382984 2420.062252 2961.512175 
C 2422.933062 2958.641365 2424.546092 2954.747165 2424.546092 2950.687227 
C 2424.546092 2946.627289 2422.933062 2942.733089 2420.062252 2939.86228 
C 2417.191442 2936.99147 2413.297242 2935.378439 2409.237304 2935.378439 
C 2405.177366 2935.378439 2401.283166 2936.99147 2398.412357 2939.86228 
C 2395.541547 2942.733089 2393.928517 2946.627289 2393.928517 2950.687227 
C 2393.928517 2954.747165 2395.541547 2958.641365 2398.412357 2961.512175 
C 2401.283166 2964.382984 2405.177366 2965.996015 2409.237304 2965.996015 
z
" clip-path="url(#p16a76b3999)" style="stroke: #000000; stroke-linejoin: miter"/>
   </g>
   <g id="patch_46">
    <path d="M 2490.884172 2965.996015 
C 2494.94411 2965.996015 2498.83831 2964.382984 2501.70912 2961.512175 
C 2504.579929 2958.641365 2506.19296 2954.747165 2506.19296 2950.687227 
C 2506.19296 2946.627289 2504.579929 2942.733089 2501.70912 2939.86228 
C 2498.83831 2936.99147 2494.94411 2935.378439 2490.884172 2935.378439 
C 2486.824234 2935.378439 2482.930034 2936.99147 2480.059224 2939.86228 
C 2477.188415 2942.733089 2475.575384 2946.627289 2475.575384 2950.687227 
C 2475.575384 2954.747165 2477.188415 2958.641365 2480.059224 2961.512175 
C 2482.930034 2964.382984 2486.824234 2965.996015 2490.884172 2965.996015 
z
" clip-path="url(#p16a76b3999)" style="stroke: #000000; stroke-linejoin: miter"/>
   </g>
   <g id="patch_47">
    <path d="M 2572.53104 2251.585922 
C 2576.590978 2251.585922 2580.485178 2249.972892 2583.355987 2247.102082 
C 2586.226797 2244.231273 2587.839827 2240.337073 2587.839827 2236.277135 
C 2587.839827 2232.217197 2586.226797 2228.322997 2583.355987 2225.452187 
C 2580.485178 2222.581377 2576.590978 2220.968347 2572.53104 2220.968347 
C 2568.471102 2220.968347 2564.576902 2222.581377 2561.706092 2225.452187 
C 2558.835283 2228.322997 2557.222252 2232.217197 2557.222252 2236.277135 
C 2557.222252 2240.337073 2558.835283 2244.231273 2561.706092 2247.102082 
C 2564.576902 2249.972892 2568.471102 2251.585922 2572.53104 2251.585922 
z
" clip-path="url(#p16a76b3999)" style="stroke: #000000; stroke-linejoin: miter"/>
   </g>
   <g id="patch_48">
    <path d="M 2654.177907 2251.585922 
C 2658.237845 2251.585922 2662.132045 2249.972892 2665.002855 2247.102082 
C 2667.873665 2244.231273 2669.486695 2240.337073 2669.486695 2236.277135 
C 2669.486695 2232.217197 2667.873665 2228.322997 2665.002855 2225.452187 
C 2662.132045 2222.581377 2658.237845 2220.968347 2654.177907 2220.968347 
C 2650.11797 2220.968347 2646.22377 2222.581377 2643.35296 2225.452187 
C 2640.48215 2228.322997 2638.86912 2232.217197 2638.86912 2236.277135 
C 2638.86912 2240.337073 2640.48215 2244.231273 2643.35296 2247.102082 
C 2646.22377 2249.972892 2650.11797 2251.585922 2654.177907 2251.585922 
z
" clip-path="url(#p16a76b3999)" style="stroke: #000000; stroke-linejoin: miter"/>
   </g>
   <g id="patch_49">
    <path d="M 2735.824775 2251.585922 
C 2739.884713 2251.585922 2743.778913 2249.972892 2746.649723 2247.102082 
C 2749.520532 2244.231273 2751.133563 2240.337073 2751.133563 2236.277135 
C 2751.133563 2232.217197 2749.520532 2228.322997 2746.649723 2225.452187 
C 2743.778913 2222.581377 2739.884713 2220.968347 2735.824775 2220.968347 
C 2731.764837 2220.968347 2727.870637 2222.581377 2724.999828 2225.452187 
C 2722.129018 2228.322997 2720.515987 2232.217197 2720.515987 2236.277135 
C 2720.515987 2240.337073 2722.129018 2244.231273 2724.999828 2247.102082 
C 2727.870637 2249.972892 2731.764837 2251.585922 2735.824775 2251.585922 
z
" clip-path="url(#p16a76b3999)" style="stroke: #000000; stroke-linejoin: miter"/>
   </g>
   <g id="patch_50">
    <path d="M 2817.471643 2251.585922 
C 2821.531581 2251.585922 2825.425781 2249.972892 2828.29659 2247.102082 
C 2831.1674 2244.231273 2832.780431 2240.337073 2832.780431 2236.277135 
C 2832.780431 2232.217197 2831.1674 2228.322997 2828.29659 2225.452187 
C 2825.425781 2222.581377 2821.531581 2220.968347 2817.471643 2220.968347 
C 2813.411705 2220.968347 2809.517505 2222.581377 2806.646695 2225.452187 
C 2803.775886 2228.322997 2802.162855 2232.217197 2802.162855 2236.277135 
C 2802.162855 2240.337073 2803.775886 2244.231273 2806.646695 2247.102082 
C 2809.517505 2249.972892 2813.411705 2251.585922 2817.471643 2251.585922 
z
" clip-path="url(#p16a76b3999)" style="stroke: #000000; stroke-linejoin: miter"/>
   </g>
   <g id="patch_51">
    <path d="M 2899.118511 2965.996015 
C 2903.178449 2965.996015 2907.072648 2964.382984 2909.943458 2961.512175 
C 2912.814268 2958.641365 2914.427298 2954.747165 2914.427298 2950.687227 
C 2914.427298 2946.627289 2912.814268 2942.733089 2909.943458 2939.86228 
C 2907.072648 2936.99147 2903.178449 2935.378439 2899.118511 2935.378439 
C 2895.058573 2935.378439 2891.164373 2936.99147 2888.293563 2939.86228 
C 2885.422753 2942.733089 2883.809723 2946.627289 2883.809723 2950.687227 
C 2883.809723 2954.747165 2885.422753 2958.641365 2888.293563 2961.512175 
C 2891.164373 2964.382984 2895.058573 2965.996015 2899.118511 2965.996015 
z
" clip-path="url(#p16a76b3999)" style="stroke: #000000; stroke-linejoin: miter"/>
   </g>
   <g id="patch_52">
    <path d="M 2980.765378 2965.996015 
C 2984.825316 2965.996015 2988.719516 2964.382984 2991.590326 2961.512175 
C 2994.461136 2958.641365 2996.074166 2954.747165 2996.074166 2950.687227 
C 2996.074166 2946.627289 2994.461136 2942.733089 2991.590326 2939.86228 
C 2988.719516 2936.99147 2984.825316 2935.378439 2980.765378 2935.378439 
C 2976.70544 2935.378439 2972.81124 2936.99147 2969.940431 2939.86228 
C 2967.069621 2942.733089 2965.456591 2946.627289 2965.456591 2950.687227 
C 2965.456591 2954.747165 2967.069621 2958.641365 2969.940431 2961.512175 
C 2972.81124 2964.382984 2976.70544 2965.996015 2980.765378 2965.996015 
z
" clip-path="url(#p16a76b3999)" style="stroke: #000000; stroke-linejoin: miter"/>
   </g>
   <g id="patch_53">
    <path d="M 3062.412246 2965.996015 
C 3066.472184 2965.996015 3070.366384 2964.382984 3073.237194 2961.512175 
C 3076.108003 2958.641365 3077.721034 2954.747165 3077.721034 2950.687227 
C 3077.721034 2946.627289 3076.108003 2942.733089 3073.237194 2939.86228 
C 3070.366384 2936.99147 3066.472184 2935.378439 3062.412246 2935.378439 
C 3058.352308 2935.378439 3054.458108 2936.99147 3051.587298 2939.86228 
C 3048.716489 2942.733089 3047.103458 2946.627289 3047.103458 2950.687227 
C 3047.103458 2954.747165 3048.716489 2958.641365 3051.587298 2961.512175 
C 3054.458108 2964.382984 3058.352308 2965.996015 3062.412246 2965.996015 
z
" clip-path="url(#p16a76b3999)" style="stroke: #000000; stroke-linejoin: miter"/>
   </g>
   <g id="patch_54">
    <path d="M 3144.059114 2965.996015 
C 3148.119052 2965.996015 3152.013252 2964.382984 3154.884061 2961.512175 
C 3157.754871 2958.641365 3159.367901 2954.747165 3159.367901 2950.687227 
C 3159.367901 2946.627289 3157.754871 2942.733089 3154.884061 2939.86228 
C 3152.013252 2936.99147 3148.119052 2935.378439 3144.059114 2935.378439 
C 3139.999176 2935.378439 3136.104976 2936.99147 3133.234166 2939.86228 
C 3130.363356 2942.733089 3128.750326 2946.627289 3128.750326 2950.687227 
C 3128.750326 2954.747165 3130.363356 2958.641365 3133.234166 2961.512175 
C 3136.104976 2964.382984 3139.999176 2965.996015 3144.059114 2965.996015 
z
" clip-path="url(#p16a76b3999)" style="stroke: #000000; stroke-linejoin: miter"/>
   </g>
   <g id="patch_55">
    <path d="M 3225.705981 2251.585922 
C 3229.765919 2251.585922 3233.660119 2249.972892 3236.530929 2247.102082 
C 3239.401739 2244.231273 3241.014769 2240.337073 3241.014769 2236.277135 
C 3241.014769 2232.217197 3239.401739 2228.322997 3236.530929 2225.452187 
C 3233.660119 2222.581377 3229.765919 2220.968347 3225.705981 2220.968347 
C 3221.646043 2220.968347 3217.751843 2222.581377 3214.881034 2225.452187 
C 3212.010224 2228.322997 3210.397194 2232.217197 3210.397194 2236.277135 
C 3210.397194 2240.337073 3212.010224 2244.231273 3214.881034 2247.102082 
C 3217.751843 2249.972892 3221.646043 2251.585922 3225.705981 2251.585922 
z
" clip-path="url(#p16a76b3999)" style="stroke: #000000; stroke-linejoin: miter"/>
   </g>
   <g id="patch_56">
    <path d="M 3307.352849 2251.585922 
C 3311.412787 2251.585922 3315.306987 2249.972892 3318.177797 2247.102082 
C 3321.048606 2244.231273 3322.661637 2240.337073 3322.661637 2236.277135 
C 3322.661637 2232.217197 3321.048606 2228.322997 3318.177797 2225.452187 
C 3315.306987 2222.581377 3311.412787 2220.968347 3307.352849 2220.968347 
C 3303.292911 2220.968347 3299.398711 2222.581377 3296.527901 2225.452187 
C 3293.657092 2228.322997 3292.044061 2232.217197 3292.044061 2236.277135 
C 3292.044061 2240.337073 3293.657092 2244.231273 3296.527901 2247.102082 
C 3299.398711 2249.972892 3303.292911 2251.585922 3307.352849 2251.585922 
z
" clip-path="url(#p16a76b3999)" style="stroke: #000000; stroke-linejoin: miter"/>
   </g>
   <g id="patch_57">
    <path d="M 3388.999717 2965.996015 
C 3393.059655 2965.996015 3396.953855 2964.382984 3399.824664 2961.512175 
C 3402.695474 2958.641365 3404.308504 2954.747165 3404.308504 2950.687227 
C 3404.308504 2946.627289 3402.695474 2942.733089 3399.824664 2939.86228 
C 3396.953855 2936.99147 3393.059655 2935.378439 3388.999717 2935.378439 
C 3384.939779 2935.378439 3381.045579 2936.99147 3378.174769 2939.86228 
C 3375.30396 2942.733089 3373.690929 2946.627289 3373.690929 2950.687227 
C 3373.690929 2954.747165 3375.30396 2958.641365 3378.174769 2961.512175 
C 3381.045579 2964.382984 3384.939779 2965.996015 3388.999717 2965.996015 
z
" clip-path="url(#p16a76b3999)" style="stroke: #000000; stroke-linejoin: miter"/>
   </g>
   <g id="patch_58">
    <path d="M 3470.646584 2965.996015 
C 3474.706522 2965.996015 3478.600722 2964.382984 3481.471532 2961.512175 
C 3484.342342 2958.641365 3485.955372 2954.747165 3485.955372 2950.687227 
C 3485.955372 2946.627289 3484.342342 2942.733089 3481.471532 2939.86228 
C 3478.600722 2936.99147 3474.706522 2935.378439 3470.646584 2935.378439 
C 3466.586647 2935.378439 3462.692447 2936.99147 3459.821637 2939.86228 
C 3456.950827 2942.733089 3455.337797 2946.627289 3455.337797 2950.687227 
C 3455.337797 2954.747165 3456.950827 2958.641365 3459.821637 2961.512175 
C 3462.692447 2964.382984 3466.586647 2965.996015 3470.646584 2965.996015 
z
" clip-path="url(#p16a76b3999)" style="stroke: #000000; stroke-linejoin: miter"/>
   </g>
   <g id="patch_59">
    <path d="M 3552.293452 2251.585922 
C 3556.35339 2251.585922 3560.24759 2249.972892 3563.1184 2247.102082 
C 3565.989209 2244.231273 3567.60224 2240.337073 3567.60224 2236.277135 
C 3567.60224 2232.217197 3565.989209 2228.322997 3563.1184 2225.452187 
C 3560.24759 2222.581377 3556.35339 2220.968347 3552.293452 2220.968347 
C 3548.233514 2220.968347 3544.339314 2222.581377 3541.468505 2225.452187 
C 3538.597695 2228.322997 3536.984664 2232.217197 3536.984664 2236.277135 
C 3536.984664 2240.337073 3538.597695 2244.231273 3541.468505 2247.102082 
C 3544.339314 2249.972892 3548.233514 2251.585922 3552.293452 2251.585922 
z
" clip-path="url(#p16a76b3999)" style="stroke: #000000; stroke-linejoin: miter"/>
   </g>
   <g id="patch_60">
    <path d="M 3633.94032 2251.585922 
C 3638.000258 2251.585922 3641.894458 2249.972892 3644.765267 2247.102082 
C 3647.636077 2244.231273 3649.249108 2240.337073 3649.249108 2236.277135 
C 3649.249108 2232.217197 3647.636077 2228.322997 3644.765267 2225.452187 
C 3641.894458 2222.581377 3638.000258 2220.968347 3633.94032 2220.968347 
C 3629.880382 2220.968347 3625.986182 2222.581377 3623.115372 2225.452187 
C 3620.244563 2228.322997 3618.631532 2232.217197 3618.631532 2236.277135 
C 3618.631532 2240.337073 3620.244563 2244.231273 3623.115372 2247.102082 
C 3625.986182 2249.972892 3629.880382 2251.585922 3633.94032 2251.585922 
z
" clip-path="url(#p16a76b3999)" style="stroke: #000000; stroke-linejoin: miter"/>
   </g>
   <g id="patch_61">
    <path d="M 3715.587188 2251.585922 
C 3719.647126 2251.585922 3723.541325 2249.972892 3726.412135 2247.102082 
C 3729.282945 2244.231273 3730.895975 2240.337073 3730.895975 2236.277135 
C 3730.895975 2232.217197 3729.282945 2228.322997 3726.412135 2225.452187 
C 3723.541325 2222.581377 3719.647126 2220.968347 3715.587188 2220.968347 
C 3711.52725 2220.968347 3707.63305 2222.581377 3704.76224 2225.452187 
C 3701.89143 2228.322997 3700.2784 2232.217197 3700.2784 2236.277135 
C 3700.2784 2240.337073 3701.89143 2244.231273 3704.76224 2247.102082 
C 3707.63305 2249.972892 3711.52725 2251.585922 3715.587188 2251.585922 
z
" clip-path="url(#p16a76b3999)" style="stroke: #000000; stroke-linejoin: miter"/>
   </g>
   <g id="patch_62">
    <path d="M 3797.234055 2965.996015 
C 3801.293993 2965.996015 3805.188193 2964.382984 3808.059003 2961.512175 
C 3810.929813 2958.641365 3812.542843 2954.747165 3812.542843 2950.687227 
C 3812.542843 2946.627289 3810.929813 2942.733089 3808.059003 2939.86228 
C 3805.188193 2936.99147 3801.293993 2935.378439 3797.234055 2935.378439 
C 3793.174117 2935.378439 3789.279917 2936.99147 3786.409108 2939.86228 
C 3783.538298 2942.733089 3781.925268 2946.627289 3781.925268 2950.687227 
C 3781.925268 2954.747165 3783.538298 2958.641365 3786.409108 2961.512175 
C 3789.279917 2964.382984 3793.174117 2965.996015 3797.234055 2965.996015 
z
" clip-path="url(#p16a76b3999)" style="stroke: #000000; stroke-linejoin: miter"/>
   </g>
   <g id="patch_63">
    <path d="M 3878.880923 2965.996015 
C 3882.940861 2965.996015 3886.835061 2964.382984 3889.705871 2961.512175 
C 3892.57668 2958.641365 3894.189711 2954.747165 3894.189711 2950.687227 
C 3894.189711 2946.627289 3892.57668 2942.733089 3889.705871 2939.86228 
C 3886.835061 2936.99147 3882.940861 2935.378439 3878.880923 2935.378439 
C 3874.820985 2935.378439 3870.926785 2936.99147 3868.055975 2939.86228 
C 3865.185166 2942.733089 3863.572135 2946.627289 3863.572135 2950.687227 
C 3863.572135 2954.747165 3865.185166 2958.641365 3868.055975 2961.512175 
C 3870.926785 2964.382984 3874.820985 2965.996015 3878.880923 2965.996015 
z
" clip-path="url(#p16a76b3999)" style="stroke: #000000; stroke-linejoin: miter"/>
   </g>
   <g id="patch_64">
    <path d="M 3960.527791 2965.996015 
C 3964.587729 2965.996015 3968.481929 2964.382984 3971.352738 2961.512175 
C 3974.223548 2958.641365 3975.836578 2954.747165 3975.836578 2950.687227 
C 3975.836578 2946.627289 3974.223548 2942.733089 3971.352738 2939.86228 
C 3968.481929 2936.99147 3964.587729 2935.378439 3960.527791 2935.378439 
C 3956.467853 2935.378439 3952.573653 2936.99147 3949.702843 2939.86228 
C 3946.832033 2942.733089 3945.219003 2946.627289 3945.219003 2950.687227 
C 3945.219003 2954.747165 3946.832033 2958.641365 3949.702843 2961.512175 
C 3952.573653 2964.382984 3956.467853 2965.996015 3960.527791 2965.996015 
z
" clip-path="url(#p16a76b3999)" style="stroke: #000000; stroke-linejoin: miter"/>
   </g>
   <g id="patch_65">
    <path d="M 4042.174658 2251.585922 
C 4046.234596 2251.585922 4050.128796 2249.972892 4052.999606 2247.102082 
C 4055.870416 2244.231273 4057.483446 2240.337073 4057.483446 2236.277135 
C 4057.483446 2232.217197 4055.870416 2228.322997 4052.999606 2225.452187 
C 4050.128796 2222.581377 4046.234596 2220.968347 4042.174658 2220.968347 
C 4038.11472 2220.968347 4034.22052 2222.581377 4031.349711 2225.452187 
C 4028.478901 2228.322997 4026.865871 2232.217197 4026.865871 2236.277135 
C 4026.865871 2240.337073 4028.478901 2244.231273 4031.349711 2247.102082 
C 4034.22052 2249.972892 4038.11472 2251.585922 4042.174658 2251.585922 
z
" clip-path="url(#p16a76b3999)" style="stroke: #000000; stroke-linejoin: miter"/>
   </g>
   <g id="patch_66">
    <path d="M 4123.821526 2251.585922 
C 4127.881464 2251.585922 4131.775664 2249.972892 4134.646474 2247.102082 
C 4137.517283 2244.231273 4139.130314 2240.337073 4139.130314 2236.277135 
C 4139.130314 2232.217197 4137.517283 2228.322997 4134.646474 2225.452187 
C 4131.775664 2222.581377 4127.881464 2220.968347 4123.821526 2220.968347 
C 4119.761588 2220.968347 4115.867388 2222.581377 4112.996578 2225.452187 
C 4110.125769 2228.322997 4108.512738 2232.217197 4108.512738 2236.277135 
C 4108.512738 2240.337073 4110.125769 2244.231273 4112.996578 2247.102082 
C 4115.867388 2249.972892 4119.761588 2251.585922 4123.821526 2251.585922 
z
" clip-path="url(#p16a76b3999)" style="stroke: #000000; stroke-linejoin: miter"/>
   </g>
   <g id="patch_67">
    <path d="M 4205.468394 2251.585922 
C 4209.528332 2251.585922 4213.422532 2249.972892 4216.293341 2247.102082 
C 4219.164151 2244.231273 4220.777181 2240.337073 4220.777181 2236.277135 
C 4220.777181 2232.217197 4219.164151 2228.322997 4216.293341 2225.452187 
C 4213.422532 2222.581377 4209.528332 2220.968347 4205.468394 2220.968347 
C 4201.408456 2220.968347 4197.514256 2222.581377 4194.643446 2225.452187 
C 4191.772637 2228.322997 4190.159606 2232.217197 4190.159606 2236.277135 
C 4190.159606 2240.337073 4191.772637 2244.231273 4194.643446 2247.102082 
C 4197.514256 2249.972892 4201.408456 2251.585922 4205.468394 2251.585922 
z
" clip-path="url(#p16a76b3999)" style="stroke: #000000; stroke-linejoin: miter"/>
   </g>
   <g id="patch_68">
    <path d="M 4287.115261 2251.585922 
C 4291.175199 2251.585922 4295.069399 2249.972892 4297.940209 2247.102082 
C 4300.811019 2244.231273 4302.424049 2240.337073 4302.424049 2236.277135 
C 4302.424049 2232.217197 4300.811019 2228.322997 4297.940209 2225.452187 
C 4295.069399 2222.581377 4291.175199 2220.968347 4287.115261 2220.968347 
C 4283.055324 2220.968347 4279.161124 2222.581377 4276.290314 2225.452187 
C 4273.419504 2228.322997 4271.806474 2232.217197 4271.806474 2236.277135 
C 4271.806474 2240.337073 4273.419504 2244.231273 4276.290314 2247.102082 
C 4279.161124 2249.972892 4283.055324 2251.585922 4287.115261 2251.585922 
z
" clip-path="url(#p16a76b3999)" style="stroke: #000000; stroke-linejoin: miter"/>
   </g>
   <g id="patch_69">
    <path d="M 4368.762129 2251.585922 
C 4372.822067 2251.585922 4376.716267 2249.972892 4379.587077 2247.102082 
C 4382.457886 2244.231273 4384.070917 2240.337073 4384.070917 2236.277135 
C 4384.070917 2232.217197 4382.457886 2228.322997 4379.587077 2225.452187 
C 4376.716267 2222.581377 4372.822067 2220.968347 4368.762129 2220.968347 
C 4364.702191 2220.968347 4360.807991 2222.581377 4357.937182 2225.452187 
C 4355.066372 2228.322997 4353.453341 2232.217197 4353.453341 2236.277135 
C 4353.453341 2240.337073 4355.066372 2244.231273 4357.937182 2247.102082 
C 4360.807991 2249.972892 4364.702191 2251.585922 4368.762129 2251.585922 
z
" clip-path="url(#p16a76b3999)" style="stroke: #000000; stroke-linejoin: miter"/>
   </g>
   <g id="patch_70">
    <path d="M 4450.408997 2965.996015 
C 4454.468935 2965.996015 4458.363135 2964.382984 4461.233944 2961.512175 
C 4464.104754 2958.641365 4465.717785 2954.747165 4465.717785 2950.687227 
C 4465.717785 2946.627289 4464.104754 2942.733089 4461.233944 2939.86228 
C 4458.363135 2936.99147 4454.468935 2935.378439 4450.408997 2935.378439 
C 4446.349059 2935.378439 4442.454859 2936.99147 4439.584049 2939.86228 
C 4436.71324 2942.733089 4435.100209 2946.627289 4435.100209 2950.687227 
C 4435.100209 2954.747165 4436.71324 2958.641365 4439.584049 2961.512175 
C 4442.454859 2964.382984 4446.349059 2965.996015 4450.408997 2965.996015 
z
" clip-path="url(#p16a76b3999)" style="stroke: #000000; stroke-linejoin: miter"/>
   </g>
   <g id="patch_71">
    <path d="M 4532.055865 2965.996015 
C 4536.115803 2965.996015 4540.010002 2964.382984 4542.880812 2961.512175 
C 4545.751622 2958.641365 4547.364652 2954.747165 4547.364652 2950.687227 
C 4547.364652 2946.627289 4545.751622 2942.733089 4542.880812 2939.86228 
C 4540.010002 2936.99147 4536.115803 2935.378439 4532.055865 2935.378439 
C 4527.995927 2935.378439 4524.101727 2936.99147 4521.230917 2939.86228 
C 4518.360107 2942.733089 4516.747077 2946.627289 4516.747077 2950.687227 
C 4516.747077 2954.747165 4518.360107 2958.641365 4521.230917 2961.512175 
C 4524.101727 2964.382984 4527.995927 2965.996015 4532.055865 2965.996015 
z
" clip-path="url(#p16a76b3999)" style="stroke: #000000; stroke-linejoin: miter"/>
   </g>
   <g id="patch_72">
    <path d="M 4613.702732 2965.996015 
C 4617.76267 2965.996015 4621.65687 2964.382984 4624.52768 2961.512175 
C 4627.39849 2958.641365 4629.01152 2954.747165 4629.01152 2950.687227 
C 4629.01152 2946.627289 4627.39849 2942.733089 4624.52768 2939.86228 
C 4621.65687 2936.99147 4617.76267 2935.378439 4613.702732 2935.378439 
C 4609.642794 2935.378439 4605.748594 2936.99147 4602.877785 2939.86228 
C 4600.006975 2942.733089 4598.393945 2946.627289 4598.393945 2950.687227 
C 4598.393945 2954.747165 4600.006975 2958.641365 4602.877785 2961.512175 
C 4605.748594 2964.382984 4609.642794 2965.996015 4613.702732 2965.996015 
z
" clip-path="url(#p16a76b3999)" style="stroke: #000000; stroke-linejoin: miter"/>
   </g>
   <g id="patch_73">
    <path d="M 4695.3496 2965.996015 
C 4699.409538 2965.996015 4703.303738 2964.382984 4706.174548 2961.512175 
C 4709.045357 2958.641365 4710.658388 2954.747165 4710.658388 2950.687227 
C 4710.658388 2946.627289 4709.045357 2942.733089 4706.174548 2939.86228 
C 4703.303738 2936.99147 4699.409538 2935.378439 4695.3496 2935.378439 
C 4691.289662 2935.378439 4687.395462 2936.99147 4684.524652 2939.86228 
C 4681.653843 2942.733089 4680.040812 2946.627289 4680.040812 2950.687227 
C 4680.040812 2954.747165 4681.653843 2958.641365 4684.524652 2961.512175 
C 4687.395462 2964.382984 4691.289662 2965.996015 4695.3496 2965.996015 
z
" clip-path="url(#p16a76b3999)" style="stroke: #000000; stroke-linejoin: miter"/>
   </g>
   <g id="patch_74">
    <path d="M 4776.996468 2965.996015 
C 4781.056406 2965.996015 4784.950606 2964.382984 4787.821415 2961.512175 
C 4790.692225 2958.641365 4792.305255 2954.747165 4792.305255 2950.687227 
C 4792.305255 2946.627289 4790.692225 2942.733089 4787.821415 2939.86228 
C 4784.950606 2936.99147 4781.056406 2935.378439 4776.996468 2935.378439 
C 4772.93653 2935.378439 4769.04233 2936.99147 4766.17152 2939.86228 
C 4763.30071 2942.733089 4761.68768 2946.627289 4761.68768 2950.687227 
C 4761.68768 2954.747165 4763.30071 2958.641365 4766.17152 2961.512175 
C 4769.04233 2964.382984 4772.93653 2965.996015 4776.996468 2965.996015 
z
" clip-path="url(#p16a76b3999)" style="stroke: #000000; stroke-linejoin: miter"/>
   </g>
   <g id="text_18">
    <g id="patch_75">
     <path d="M -12.755654 2295.31151 
L 228.388096 2295.31151 
L 228.388096 2177.24276 
L -12.755654 2177.24276 
z
" style="fill: #ffffff; stroke: #000000; stroke-linejoin: miter"/>
    </g>
    <!-- Hand -->
    <g style="fill: #262626" transform="translate(17.244346 2252.833385) scale(0.6 -0.6)">
     <defs>
      <path id="DejaVuSerif-Bold-48" d="M 300 0 
L 300 378 
L 897 378 
L 897 4288 
L 300 4288 
L 300 4666 
L 2700 4666 
L 2700 4288 
L 2100 4288 
L 2100 2719 
L 3956 2719 
L 3956 4288 
L 3359 4288 
L 3359 4666 
L 5759 4666 
L 5759 4288 
L 5159 4288 
L 5159 378 
L 5759 378 
L 5759 0 
L 3359 0 
L 3359 378 
L 3956 378 
L 3956 2291 
L 2100 2291 
L 2100 378 
L 2700 378 
L 2700 0 
L 300 0 
z
" transform="scale(0.015625)"/>
      <path id="DejaVuSerif-Bold-61" d="M 3525 2041 
L 3525 378 
L 4000 378 
L 4000 0 
L 2419 0 
L 2419 422 
Q 2200 159 1931 34 
Q 1663 -91 1319 -91 
Q 809 -91 536 182 
Q 263 456 263 966 
Q 263 1525 655 1803 
Q 1047 2081 1838 2081 
L 2419 2081 
L 2419 2278 
Q 2419 2681 2228 2873 
Q 2038 3066 1638 3066 
Q 1306 3066 1126 2930 
Q 947 2794 872 2484 
L 519 2484 
L 519 3200 
Q 816 3306 1134 3359 
Q 1453 3413 1806 3413 
Q 2697 3413 3111 3081 
Q 3525 2750 3525 2041 
z
M 2419 1044 
L 2419 1709 
L 2003 1709 
Q 1694 1709 1528 1540 
Q 1363 1372 1363 1056 
Q 1363 741 1483 584 
Q 1603 428 1850 428 
Q 2106 428 2262 597 
Q 2419 766 2419 1044 
z
" transform="scale(0.015625)"/>
      <path id="DejaVuSerif-Bold-6e" d="M 219 0 
L 219 378 
L 691 378 
L 691 2944 
L 219 2944 
L 219 3322 
L 1797 3322 
L 1797 2853 
Q 1997 3150 2253 3281 
Q 2509 3413 2900 3413 
Q 3459 3413 3745 3083 
Q 4031 2753 4031 2113 
L 4031 378 
L 4506 378 
L 4506 0 
L 2522 0 
L 2522 378 
L 2925 378 
L 2925 2144 
Q 2925 2566 2817 2730 
Q 2709 2894 2444 2894 
Q 2109 2894 1953 2648 
Q 1797 2403 1797 1869 
L 1797 378 
L 2203 378 
L 2203 0 
L 219 0 
z
" transform="scale(0.015625)"/>
      <path id="DejaVuSerif-Bold-64" d="M 2747 1497 
L 2747 1825 
Q 2747 2406 2597 2665 
Q 2447 2925 2119 2925 
Q 1775 2925 1636 2651 
Q 1497 2378 1497 1663 
Q 1497 947 1637 672 
Q 1778 397 2119 397 
Q 2447 397 2597 656 
Q 2747 916 2747 1497 
z
M 3853 378 
L 4325 378 
L 4325 0 
L 2747 0 
L 2747 422 
Q 2606 163 2367 36 
Q 2128 -91 1778 -91 
Q 1072 -91 667 378 
Q 263 847 263 1663 
Q 263 2481 667 2947 
Q 1072 3413 1778 3413 
Q 2128 3413 2367 3286 
Q 2606 3159 2747 2900 
L 2747 4488 
L 2272 4488 
L 2272 4863 
L 3853 4863 
L 3853 378 
z
" transform="scale(0.015625)"/>
     </defs>
     <use xlink:href="#DejaVuSerif-Bold-48"/>
     <use xlink:href="#DejaVuSerif-Bold-61" x="94.482422"/>
     <use xlink:href="#DejaVuSerif-Bold-6e" x="159.277344"/>
     <use xlink:href="#DejaVuSerif-Bold-64" x="231.982422"/>
    </g>
   </g>
   <g id="text_19">
    <g id="patch_76">
     <path d="M 3.050596 3009.721602 
L 212.581846 3009.721602 
L 212.581846 2891.652852 
L 3.050596 2891.652852 
z
" style="fill: #ffffff; stroke: #000000; stroke-linejoin: miter"/>
    </g>
    <!-- Rest -->
    <g style="fill: #262626" transform="translate(33.050596 2967.243477) scale(0.6 -0.6)">
     <defs>
      <path id="DejaVuSerif-Bold-52" d="M 3397 2278 
Q 3675 2238 3865 2094 
Q 4056 1950 4197 1678 
L 4878 378 
L 5356 378 
L 5356 0 
L 3822 0 
L 3078 1409 
Q 2863 1847 2711 1967 
Q 2559 2088 2291 2088 
L 2100 2088 
L 2100 378 
L 2700 378 
L 2700 0 
L 300 0 
L 300 378 
L 897 378 
L 897 4288 
L 300 4288 
L 300 4666 
L 2963 4666 
Q 3775 4666 4217 4339 
Q 4659 4013 4659 3413 
Q 4659 2925 4345 2642 
Q 4031 2359 3397 2278 
z
M 2100 2463 
L 2509 2463 
Q 2947 2463 3183 2700 
Q 3419 2938 3419 3378 
Q 3419 3819 3183 4053 
Q 2947 4288 2509 4288 
L 2100 4288 
L 2100 2463 
z
" transform="scale(0.015625)"/>
      <path id="DejaVuSerif-Bold-65" d="M 2566 1875 
Q 2566 2531 2444 2795 
Q 2322 3059 2028 3059 
Q 1744 3059 1620 2800 
Q 1497 2541 1497 1931 
L 1497 1875 
L 2566 1875 
z
M 3781 1503 
L 1497 1503 
L 1497 1478 
Q 1497 834 1690 548 
Q 1884 263 2316 263 
Q 2675 263 2897 453 
Q 3119 644 3181 1006 
L 3700 1006 
Q 3566 441 3166 175 
Q 2766 -91 2047 -91 
Q 1184 -91 723 364 
Q 263 819 263 1663 
Q 263 2488 734 2950 
Q 1206 3413 2047 3413 
Q 2872 3413 3312 2927 
Q 3753 2441 3781 1503 
z
" transform="scale(0.015625)"/>
      <path id="DejaVuSerif-Bold-73" d="M 300 97 
L 300 1025 
L 653 1025 
Q 697 653 931 458 
Q 1166 263 1569 263 
Q 1906 263 2086 380 
Q 2266 497 2266 716 
Q 2266 916 2152 1025 
Q 2038 1134 1709 1216 
L 1253 1331 
Q 738 1459 506 1698 
Q 275 1938 275 2344 
Q 275 2884 650 3148 
Q 1025 3413 1806 3413 
Q 2100 3413 2433 3364 
Q 2766 3316 3169 3213 
L 3169 2375 
L 2816 2375 
Q 2788 2716 2573 2887 
Q 2359 3059 1959 3059 
Q 1622 3059 1448 2951 
Q 1275 2844 1275 2638 
Q 1275 2469 1375 2372 
Q 1475 2275 1734 2209 
L 2188 2094 
Q 2841 1928 3091 1684 
Q 3341 1441 3341 1006 
Q 3341 444 2939 176 
Q 2538 -91 1691 -91 
Q 1381 -91 1034 -44 
Q 688 3 300 97 
z
" transform="scale(0.015625)"/>
      <path id="DejaVuSerif-Bold-74" d="M 634 2944 
L 153 2944 
L 153 3322 
L 634 3322 
L 634 4353 
L 1741 4353 
L 1741 3322 
L 2663 3322 
L 2663 2944 
L 1741 2944 
L 1741 909 
Q 1741 475 1809 369 
Q 1878 263 2059 263 
Q 2259 263 2356 397 
Q 2453 531 2459 813 
L 2925 813 
Q 2897 313 2651 111 
Q 2406 -91 1806 -91 
Q 1122 -91 878 123 
Q 634 338 634 909 
L 634 2944 
z
" transform="scale(0.015625)"/>
     </defs>
     <use xlink:href="#DejaVuSerif-Bold-52"/>
     <use xlink:href="#DejaVuSerif-Bold-65" x="83.105469"/>
     <use xlink:href="#DejaVuSerif-Bold-73" x="146.728516"/>
     <use xlink:href="#DejaVuSerif-Bold-74" x="203.027344"/>
    </g>
   </g>
   <g id="legend_1">
    <g id="patch_77">
     <path d="M 4750.2775 1789.680001 
L 4999.04 1789.680001 
Q 5007.04 1789.680001 5007.04 1781.680001 
L 5007.04 1668.255001 
Q 5007.04 1660.255001 4999.04 1660.255001 
L 4750.2775 1660.255001 
Q 4742.2775 1660.255001 4742.2775 1668.255001 
L 4742.2775 1781.680001 
Q 4742.2775 1789.680001 4750.2775 1789.680001 
z
" style="fill: #ffffff; opacity: 0.8; stroke: #cccccc; stroke-linejoin: miter"/>
    </g>
    <g id="patch_78">
     <path d="M 4758.2775 1706.648751 
L 4838.2775 1706.648751 
L 4838.2775 1678.648751 
L 4758.2775 1678.648751 
z
" style="fill: #1ea4a4; stroke: #1ea4a4; stroke-linejoin: miter"/>
    </g>
    <g id="text_20">
     <!-- Hand -->
     <g style="fill: #262626" transform="translate(4870.2775 1706.648751) scale(0.4 -0.4)">
      <use xlink:href="#DejaVuSerif-Bold-48"/>
      <use xlink:href="#DejaVuSerif-Bold-61" x="94.482422"/>
      <use xlink:href="#DejaVuSerif-Bold-6e" x="159.277344"/>
      <use xlink:href="#DejaVuSerif-Bold-64" x="231.982422"/>
     </g>
    </g>
    <g id="patch_79">
     <path d="M 4758.2775 1765.361251 
L 4838.2775 1765.361251 
L 4838.2775 1737.361251 
L 4758.2775 1737.361251 
z
" style="fill: #c8c8c8; stroke: #c8c8c8; stroke-linejoin: miter"/>
    </g>
    <g id="text_21">
     <!-- Rest -->
     <g style="fill: #262626" transform="translate(4870.2775 1765.361251) scale(0.4 -0.4)">
      <use xlink:href="#DejaVuSerif-Bold-52"/>
      <use xlink:href="#DejaVuSerif-Bold-65" x="83.105469"/>
      <use xlink:href="#DejaVuSerif-Bold-73" x="146.728516"/>
      <use xlink:href="#DejaVuSerif-Bold-74" x="203.027344"/>
     </g>
    </g>
   </g>
  </g>
 </g>
 <defs>
  <clipPath id="p16a76b3999">
   <rect x="87.404504" y="1640.255001" width="4939.635496" height="1759.489999"/>
  </clipPath>
 </defs>
</svg>
