<?xml version="1.0" encoding="utf-8" standalone="no"?>
<!DOCTYPE svg PUBLIC "-//W3C//DTD SVG 1.1//EN"
  "http://www.w3.org/Graphics/SVG/1.1/DTD/svg11.dtd">
<svg xmlns:xlink="http://www.w3.org/1999/xlink" width="5040pt" height="5040pt" viewBox="0 0 5040 5040" xmlns="http://www.w3.org/2000/svg" version="1.1">
 <metadata>
  <rdf:RDF xmlns:dc="http://purl.org/dc/elements/1.1/" xmlns:cc="http://creativecommons.org/ns#" xmlns:rdf="http://www.w3.org/1999/02/22-rdf-syntax-ns#">
   <cc:Work>
    <dc:type rdf:resource="http://purl.org/dc/dcmitype/StillImage"/>
    <dc:date>2024-08-25T20:29:04.898301</dc:date>
    <dc:format>image/svg+xml</dc:format>
    <dc:creator>
     <cc:Agent>
      <dc:title>Matplotlib v3.7.0, https://matplotlib.org/</dc:title>
     </cc:Agent>
    </dc:creator>
   </cc:Work>
  </rdf:RDF>
 </metadata>
 <defs>
  <style type="text/css">*{stroke-linejoin: round; stroke-linecap: butt}</style>
 </defs>
 <g id="figure_1">
  <g id="patch_1">
   <path d="M 0 5040 
L 5040 5040 
L 5040 0 
L 0 0 
z
" style="fill: #ffffff"/>
  </g>
  <g id="axes_1">
   <g id="patch_2">
    <path d="M 119.399504 3394.046716 
L 5027.04 3394.046716 
L 5027.04 1645.953284 
L 119.399504 1645.953284 
z
" style="fill: #ffffff"/>
   </g>
   <g id="matplotlib.axis_1">
    <g id="xtick_1">
     <g id="line2d_1">
      <path d="M 464.151109 3394.046716 
L 464.151109 1645.953284 
" clip-path="url(#p632b4ee609)" style="fill: none; stroke: #cccccc; stroke-linecap: round"/>
     </g>
     <g id="text_1">
      <!-- 8 -->
      <g style="fill: #262626" transform="translate(445.063609 3379.213604) scale(0.6 -0.6)">
       <defs>
        <path id="DejaVuSerif-38" d="M 2981 1275 
Q 2981 1775 2732 2051 
Q 2484 2328 2034 2328 
Q 1584 2328 1336 2051 
Q 1088 1775 1088 1275 
Q 1088 772 1336 495 
Q 1584 219 2034 219 
Q 2484 219 2732 495 
Q 2981 772 2981 1275 
z
M 2853 3541 
Q 2853 3966 2637 4203 
Q 2422 4441 2034 4441 
Q 1650 4441 1433 4203 
Q 1216 3966 1216 3541 
Q 1216 3113 1433 2875 
Q 1650 2638 2034 2638 
Q 2422 2638 2637 2875 
Q 2853 3113 2853 3541 
z
M 2516 2484 
Q 3047 2413 3344 2092 
Q 3641 1772 3641 1275 
Q 3641 619 3225 264 
Q 2809 -91 2034 -91 
Q 1263 -91 845 264 
Q 428 619 428 1275 
Q 428 1772 725 2092 
Q 1022 2413 1556 2484 
Q 1084 2569 832 2842 
Q 581 3116 581 3541 
Q 581 4103 968 4426 
Q 1356 4750 2034 4750 
Q 2713 4750 3100 4426 
Q 3488 4103 3488 3541 
Q 3488 3116 3236 2842 
Q 2984 2569 2516 2484 
z
" transform="scale(0.015625)"/>
       </defs>
       <use xlink:href="#DejaVuSerif-38"/>
      </g>
     </g>
    </g>
    <g id="xtick_2">
     <g id="line2d_2">
      <path d="M 869.741233 3394.046716 
L 869.741233 1645.953284 
" clip-path="url(#p632b4ee609)" style="fill: none; stroke: #cccccc; stroke-linecap: round"/>
     </g>
     <g id="text_2">
      <!-- 28 -->
      <g style="fill: #262626" transform="translate(831.566233 3379.213604) scale(0.6 -0.6)">
       <defs>
        <path id="DejaVuSerif-32" d="M 819 3553 
L 469 3553 
L 469 4384 
Q 803 4563 1142 4656 
Q 1481 4750 1806 4750 
Q 2534 4750 2956 4397 
Q 3378 4044 3378 3438 
Q 3378 2753 2422 1800 
Q 2347 1728 2309 1691 
L 1131 513 
L 3078 513 
L 3078 1088 
L 3444 1088 
L 3444 0 
L 434 0 
L 434 341 
L 1850 1753 
Q 2319 2222 2519 2614 
Q 2719 3006 2719 3438 
Q 2719 3909 2473 4175 
Q 2228 4441 1797 4441 
Q 1350 4441 1106 4219 
Q 863 3997 819 3553 
z
" transform="scale(0.015625)"/>
       </defs>
       <use xlink:href="#DejaVuSerif-32"/>
       <use xlink:href="#DejaVuSerif-38" x="63.623047"/>
      </g>
     </g>
    </g>
    <g id="xtick_3">
     <g id="line2d_3">
      <path d="M 1194.213332 3394.046716 
L 1194.213332 1645.953284 
" clip-path="url(#p632b4ee609)" style="fill: none; stroke: #cccccc; stroke-linecap: round"/>
     </g>
     <g id="text_3">
      <!-- 44 -->
      <g style="fill: #262626" transform="translate(1156.038332 3379.213604) scale(0.6 -0.6)">
       <defs>
        <path id="DejaVuSerif-34" d="M 2234 1581 
L 2234 4063 
L 641 1581 
L 2234 1581 
z
M 3609 0 
L 1484 0 
L 1484 331 
L 2234 331 
L 2234 1247 
L 197 1247 
L 197 1588 
L 2241 4750 
L 2859 4750 
L 2859 1581 
L 3750 1581 
L 3750 1247 
L 2859 1247 
L 2859 331 
L 3609 331 
L 3609 0 
z
" transform="scale(0.015625)"/>
       </defs>
       <use xlink:href="#DejaVuSerif-34"/>
       <use xlink:href="#DejaVuSerif-34" x="63.623047"/>
      </g>
     </g>
    </g>
    <g id="xtick_4">
     <g id="line2d_4">
      <path d="M 1437.567406 3394.046716 
L 1437.567406 1645.953284 
" clip-path="url(#p632b4ee609)" style="fill: none; stroke: #cccccc; stroke-linecap: round"/>
     </g>
     <g id="text_4">
      <!-- 56 -->
      <g style="fill: #262626" transform="translate(1399.392406 3379.213604) scale(0.6 -0.6)">
       <defs>
        <path id="DejaVuSerif-35" d="M 3219 4666 
L 3219 4153 
L 1081 4153 
L 1081 2816 
Q 1244 2928 1461 2984 
Q 1678 3041 1947 3041 
Q 2703 3041 3140 2622 
Q 3578 2203 3578 1478 
Q 3578 738 3136 323 
Q 2694 -91 1894 -91 
Q 1572 -91 1234 -12 
Q 897 66 544 225 
L 544 1131 
L 897 1131 
Q 925 688 1179 453 
Q 1434 219 1894 219 
Q 2388 219 2653 544 
Q 2919 869 2919 1478 
Q 2919 2084 2655 2407 
Q 2391 2731 1894 2731 
Q 1613 2731 1398 2631 
Q 1184 2531 1019 2322 
L 750 2322 
L 750 4666 
L 3219 4666 
z
" transform="scale(0.015625)"/>
        <path id="DejaVuSerif-36" d="M 2094 219 
Q 2534 219 2771 542 
Q 3009 866 3009 1472 
Q 3009 2078 2771 2401 
Q 2534 2725 2094 2725 
Q 1647 2725 1412 2412 
Q 1178 2100 1178 1509 
Q 1178 888 1415 553 
Q 1653 219 2094 219 
z
M 1075 2569 
Q 1288 2803 1556 2918 
Q 1825 3034 2163 3034 
Q 2859 3034 3264 2615 
Q 3669 2197 3669 1472 
Q 3669 763 3233 336 
Q 2797 -91 2069 -91 
Q 1278 -91 853 498 
Q 428 1088 428 2181 
Q 428 3406 931 4078 
Q 1434 4750 2350 4750 
Q 2597 4750 2869 4703 
Q 3141 4656 3425 4563 
L 3425 3794 
L 3072 3794 
Q 3034 4109 2831 4275 
Q 2628 4441 2284 4441 
Q 1678 4441 1381 3981 
Q 1084 3522 1075 2569 
z
" transform="scale(0.015625)"/>
       </defs>
       <use xlink:href="#DejaVuSerif-35"/>
       <use xlink:href="#DejaVuSerif-36" x="63.623047"/>
      </g>
     </g>
    </g>
    <g id="xtick_5">
     <g id="line2d_5">
      <path d="M 1843.15753 3394.046716 
L 1843.15753 1645.953284 
" clip-path="url(#p632b4ee609)" style="fill: none; stroke: #cccccc; stroke-linecap: round"/>
     </g>
     <g id="text_5">
      <!-- 76 -->
      <g style="fill: #262626" transform="translate(1804.98253 3379.213604) scale(0.6 -0.6)">
       <defs>
        <path id="DejaVuSerif-37" d="M 3609 4347 
L 1784 0 
L 1319 0 
L 3059 4153 
L 903 4153 
L 903 3578 
L 538 3578 
L 538 4666 
L 3609 4666 
L 3609 4347 
z
" transform="scale(0.015625)"/>
       </defs>
       <use xlink:href="#DejaVuSerif-37"/>
       <use xlink:href="#DejaVuSerif-36" x="63.623047"/>
      </g>
     </g>
    </g>
    <g id="xtick_6">
     <g id="line2d_6">
      <path d="M 2167.629628 3394.046716 
L 2167.629628 1645.953284 
" clip-path="url(#p632b4ee609)" style="fill: none; stroke: #cccccc; stroke-linecap: round"/>
     </g>
     <g id="text_6">
      <!-- 92 -->
      <g style="fill: #262626" transform="translate(2129.454628 3379.213604) scale(0.6 -0.6)">
       <defs>
        <path id="DejaVuSerif-39" d="M 2994 2091 
Q 2784 1856 2512 1740 
Q 2241 1625 1900 1625 
Q 1206 1625 804 2044 
Q 403 2463 403 3188 
Q 403 3897 839 4323 
Q 1275 4750 2003 4750 
Q 2794 4750 3217 4161 
Q 3641 3572 3641 2478 
Q 3641 1253 3137 581 
Q 2634 -91 1722 -91 
Q 1475 -91 1203 -44 
Q 931 3 647 97 
L 647 872 
L 997 872 
Q 1038 556 1241 387 
Q 1444 219 1784 219 
Q 2391 219 2687 676 
Q 2984 1134 2994 2091 
z
M 1978 4441 
Q 1534 4441 1298 4117 
Q 1063 3794 1063 3188 
Q 1063 2581 1298 2256 
Q 1534 1931 1978 1931 
Q 2422 1931 2658 2245 
Q 2894 2559 2894 3150 
Q 2894 3772 2656 4106 
Q 2419 4441 1978 4441 
z
" transform="scale(0.015625)"/>
       </defs>
       <use xlink:href="#DejaVuSerif-39"/>
       <use xlink:href="#DejaVuSerif-32" x="63.623047"/>
      </g>
     </g>
    </g>
    <g id="xtick_7">
     <g id="line2d_7">
      <path d="M 2410.983703 3394.046716 
L 2410.983703 1645.953284 
" clip-path="url(#p632b4ee609)" style="fill: none; stroke: #cccccc; stroke-linecap: round"/>
     </g>
     <g id="text_7">
      <!-- 104 -->
      <g style="fill: #262626" transform="translate(2353.721203 3379.213604) scale(0.6 -0.6)">
       <defs>
        <path id="DejaVuSerif-31" d="M 909 0 
L 909 331 
L 1722 331 
L 1722 4213 
L 781 3603 
L 781 4013 
L 1919 4750 
L 2350 4750 
L 2350 331 
L 3163 331 
L 3163 0 
L 909 0 
z
" transform="scale(0.015625)"/>
        <path id="DejaVuSerif-30" d="M 2034 219 
Q 2513 219 2750 744 
Q 2988 1269 2988 2328 
Q 2988 3391 2750 3916 
Q 2513 4441 2034 4441 
Q 1556 4441 1318 3916 
Q 1081 3391 1081 2328 
Q 1081 1269 1318 744 
Q 1556 219 2034 219 
z
M 2034 -91 
Q 1275 -91 848 546 
Q 422 1184 422 2328 
Q 422 3475 848 4112 
Q 1275 4750 2034 4750 
Q 2797 4750 3222 4112 
Q 3647 3475 3647 2328 
Q 3647 1184 3222 546 
Q 2797 -91 2034 -91 
z
" transform="scale(0.015625)"/>
       </defs>
       <use xlink:href="#DejaVuSerif-31"/>
       <use xlink:href="#DejaVuSerif-30" x="63.623047"/>
       <use xlink:href="#DejaVuSerif-34" x="127.246094"/>
      </g>
     </g>
    </g>
    <g id="xtick_8">
     <g id="line2d_8">
      <path d="M 2573.219752 3394.046716 
L 2573.219752 1645.953284 
" clip-path="url(#p632b4ee609)" style="fill: none; stroke: #cccccc; stroke-linecap: round"/>
     </g>
     <g id="text_8">
      <!-- 112 -->
      <g style="fill: #262626" transform="translate(2515.957252 3379.213604) scale(0.6 -0.6)">
       <use xlink:href="#DejaVuSerif-31"/>
       <use xlink:href="#DejaVuSerif-31" x="63.623047"/>
       <use xlink:href="#DejaVuSerif-32" x="127.246094"/>
      </g>
     </g>
    </g>
    <g id="xtick_9">
     <g id="line2d_9">
      <path d="M 2978.809876 3394.046716 
L 2978.809876 1645.953284 
" clip-path="url(#p632b4ee609)" style="fill: none; stroke: #cccccc; stroke-linecap: round"/>
     </g>
     <g id="text_9">
      <!-- 132 -->
      <g style="fill: #262626" transform="translate(2921.547376 3379.213604) scale(0.6 -0.6)">
       <defs>
        <path id="DejaVuSerif-33" d="M 622 4469 
Q 988 4606 1323 4678 
Q 1659 4750 1953 4750 
Q 2638 4750 3022 4454 
Q 3406 4159 3406 3634 
Q 3406 3213 3140 2930 
Q 2875 2647 2388 2547 
Q 2963 2466 3280 2130 
Q 3597 1794 3597 1259 
Q 3597 606 3158 257 
Q 2719 -91 1894 -91 
Q 1528 -91 1179 -12 
Q 831 66 488 225 
L 488 1131 
L 838 1131 
Q 869 681 1141 450 
Q 1413 219 1906 219 
Q 2384 219 2661 495 
Q 2938 772 2938 1253 
Q 2938 1803 2653 2086 
Q 2369 2369 1819 2369 
L 1522 2369 
L 1522 2688 
L 1678 2688 
Q 2225 2688 2498 2914 
Q 2772 3141 2772 3597 
Q 2772 4006 2547 4223 
Q 2322 4441 1900 4441 
Q 1478 4441 1245 4241 
Q 1013 4041 972 3647 
L 622 3647 
L 622 4469 
z
" transform="scale(0.015625)"/>
       </defs>
       <use xlink:href="#DejaVuSerif-31"/>
       <use xlink:href="#DejaVuSerif-33" x="63.623047"/>
       <use xlink:href="#DejaVuSerif-32" x="127.246094"/>
      </g>
     </g>
    </g>
    <g id="xtick_10">
     <g id="line2d_10">
      <path d="M 3222.16395 3394.046716 
L 3222.16395 1645.953284 
" clip-path="url(#p632b4ee609)" style="fill: none; stroke: #cccccc; stroke-linecap: round"/>
     </g>
     <g id="text_10">
      <!-- 144 -->
      <g style="fill: #262626" transform="translate(3164.90145 3379.213604) scale(0.6 -0.6)">
       <use xlink:href="#DejaVuSerif-31"/>
       <use xlink:href="#DejaVuSerif-34" x="63.623047"/>
       <use xlink:href="#DejaVuSerif-34" x="127.246094"/>
      </g>
     </g>
    </g>
    <g id="xtick_11">
     <g id="line2d_11">
      <path d="M 3384.399999 3394.046716 
L 3384.399999 1645.953284 
" clip-path="url(#p632b4ee609)" style="fill: none; stroke: #cccccc; stroke-linecap: round"/>
     </g>
     <g id="text_11">
      <!-- 152 -->
      <g style="fill: #262626" transform="translate(3327.137499 3379.213604) scale(0.6 -0.6)">
       <use xlink:href="#DejaVuSerif-31"/>
       <use xlink:href="#DejaVuSerif-35" x="63.623047"/>
       <use xlink:href="#DejaVuSerif-32" x="127.246094"/>
      </g>
     </g>
    </g>
    <g id="xtick_12">
     <g id="line2d_12">
      <path d="M 3789.990123 3394.046716 
L 3789.990123 1645.953284 
" clip-path="url(#p632b4ee609)" style="fill: none; stroke: #cccccc; stroke-linecap: round"/>
     </g>
     <g id="text_12">
      <!-- 172 -->
      <g style="fill: #262626" transform="translate(3732.727623 3379.213604) scale(0.6 -0.6)">
       <use xlink:href="#DejaVuSerif-31"/>
       <use xlink:href="#DejaVuSerif-37" x="63.623047"/>
       <use xlink:href="#DejaVuSerif-32" x="127.246094"/>
      </g>
     </g>
    </g>
    <g id="xtick_13">
     <g id="line2d_13">
      <path d="M 4114.462222 3394.046716 
L 4114.462222 1645.953284 
" clip-path="url(#p632b4ee609)" style="fill: none; stroke: #cccccc; stroke-linecap: round"/>
     </g>
     <g id="text_13">
      <!-- 188 -->
      <g style="fill: #262626" transform="translate(4057.199722 3379.213604) scale(0.6 -0.6)">
       <use xlink:href="#DejaVuSerif-31"/>
       <use xlink:href="#DejaVuSerif-38" x="63.623047"/>
       <use xlink:href="#DejaVuSerif-38" x="127.246094"/>
      </g>
     </g>
    </g>
    <g id="xtick_14">
     <g id="line2d_14">
      <path d="M 4276.698271 3394.046716 
L 4276.698271 1645.953284 
" clip-path="url(#p632b4ee609)" style="fill: none; stroke: #cccccc; stroke-linecap: round"/>
     </g>
     <g id="text_14">
      <!-- 196 -->
      <g style="fill: #262626" transform="translate(4219.435771 3379.213604) scale(0.6 -0.6)">
       <use xlink:href="#DejaVuSerif-31"/>
       <use xlink:href="#DejaVuSerif-39" x="63.623047"/>
       <use xlink:href="#DejaVuSerif-36" x="127.246094"/>
      </g>
     </g>
    </g>
    <g id="xtick_15">
     <g id="line2d_15">
      <path d="M 4520.052345 3394.046716 
L 4520.052345 1645.953284 
" clip-path="url(#p632b4ee609)" style="fill: none; stroke: #cccccc; stroke-linecap: round"/>
     </g>
     <g id="text_15">
      <!-- 208 -->
      <g style="fill: #262626" transform="translate(4462.789845 3379.213604) scale(0.6 -0.6)">
       <use xlink:href="#DejaVuSerif-32"/>
       <use xlink:href="#DejaVuSerif-30" x="63.623047"/>
       <use xlink:href="#DejaVuSerif-38" x="127.246094"/>
      </g>
     </g>
    </g>
    <g id="xtick_16">
     <g id="line2d_16">
      <path d="M 4844.524444 3394.046716 
L 4844.524444 1645.953284 
" clip-path="url(#p632b4ee609)" style="fill: none; stroke: #cccccc; stroke-linecap: round"/>
     </g>
     <g id="text_16">
      <!-- 224 -->
      <g style="fill: #262626" transform="translate(4787.261944 3379.213604) scale(0.6 -0.6)">
       <use xlink:href="#DejaVuSerif-32"/>
       <use xlink:href="#DejaVuSerif-32" x="63.623047"/>
       <use xlink:href="#DejaVuSerif-34" x="127.246094"/>
      </g>
     </g>
    </g>
    <g id="text_17">
     <!-- Time(s) -->
     <g style="fill: #262626" transform="translate(2420.401002 3458.834216) scale(0.8 -0.8)">
      <defs>
       <path id="DejaVuSerif-54" d="M 1222 0 
L 1222 331 
L 1819 331 
L 1819 4294 
L 447 4294 
L 447 3566 
L 63 3566 
L 63 4666 
L 4206 4666 
L 4206 3566 
L 3822 3566 
L 3822 4294 
L 2450 4294 
L 2450 331 
L 3047 331 
L 3047 0 
L 1222 0 
z
" transform="scale(0.015625)"/>
       <path id="DejaVuSerif-69" d="M 622 4353 
Q 622 4497 726 4603 
Q 831 4709 978 4709 
Q 1122 4709 1226 4603 
Q 1331 4497 1331 4353 
Q 1331 4206 1228 4103 
Q 1125 4000 978 4000 
Q 831 4000 726 4103 
Q 622 4206 622 4353 
z
M 1356 331 
L 1900 331 
L 1900 0 
L 231 0 
L 231 331 
L 781 331 
L 781 2988 
L 231 2988 
L 231 3322 
L 1356 3322 
L 1356 331 
z
" transform="scale(0.015625)"/>
       <path id="DejaVuSerif-6d" d="M 3316 2675 
Q 3481 3041 3739 3227 
Q 3997 3413 4341 3413 
Q 4863 3413 5119 3089 
Q 5375 2766 5375 2113 
L 5375 331 
L 5894 331 
L 5894 0 
L 4300 0 
L 4300 331 
L 4800 331 
L 4800 2047 
Q 4800 2556 4650 2772 
Q 4500 2988 4153 2988 
Q 3769 2988 3567 2697 
Q 3366 2406 3366 1850 
L 3366 331 
L 3866 331 
L 3866 0 
L 2291 0 
L 2291 331 
L 2791 331 
L 2791 2069 
Q 2791 2566 2641 2777 
Q 2491 2988 2144 2988 
Q 1759 2988 1557 2697 
Q 1356 2406 1356 1850 
L 1356 331 
L 1856 331 
L 1856 0 
L 263 0 
L 263 331 
L 781 331 
L 781 2994 
L 231 2994 
L 231 3322 
L 1356 3322 
L 1356 2731 
Q 1516 3063 1762 3238 
Q 2009 3413 2322 3413 
Q 2709 3413 2968 3220 
Q 3228 3028 3316 2675 
z
" transform="scale(0.015625)"/>
       <path id="DejaVuSerif-65" d="M 3469 1600 
L 991 1600 
L 991 1575 
Q 991 903 1244 561 
Q 1497 219 1991 219 
Q 2369 219 2611 417 
Q 2853 616 2950 1006 
L 3413 1006 
Q 3275 459 2904 184 
Q 2534 -91 1931 -91 
Q 1203 -91 761 389 
Q 319 869 319 1663 
Q 319 2450 753 2931 
Q 1188 3413 1894 3413 
Q 2647 3413 3050 2948 
Q 3453 2484 3469 1600 
z
M 2791 1931 
Q 2772 2513 2545 2808 
Q 2319 3103 1894 3103 
Q 1497 3103 1269 2806 
Q 1041 2509 991 1931 
L 2791 1931 
z
" transform="scale(0.015625)"/>
       <path id="DejaVuSerif-28" d="M 2041 -997 
Q 1281 -656 893 83 
Q 506 822 506 1931 
Q 506 3044 893 3783 
Q 1281 4522 2041 4863 
L 2041 4556 
Q 1559 4225 1350 3623 
Q 1141 3022 1141 1931 
Q 1141 844 1350 242 
Q 1559 -359 2041 -691 
L 2041 -997 
z
" transform="scale(0.015625)"/>
       <path id="DejaVuSerif-73" d="M 359 184 
L 359 959 
L 691 959 
Q 703 588 923 403 
Q 1144 219 1575 219 
Q 1963 219 2166 364 
Q 2369 509 2369 788 
Q 2369 1006 2220 1140 
Q 2072 1275 1594 1428 
L 1178 1569 
Q 750 1706 558 1912 
Q 366 2119 366 2438 
Q 366 2894 700 3153 
Q 1034 3413 1625 3413 
Q 1888 3413 2178 3344 
Q 2469 3275 2778 3144 
L 2778 2419 
L 2447 2419 
Q 2434 2741 2221 2922 
Q 2009 3103 1644 3103 
Q 1281 3103 1095 2975 
Q 909 2847 909 2591 
Q 909 2381 1050 2254 
Q 1191 2128 1613 1997 
L 2069 1856 
Q 2541 1709 2748 1489 
Q 2956 1269 2956 922 
Q 2956 450 2595 179 
Q 2234 -91 1600 -91 
Q 1278 -91 972 -22 
Q 666 47 359 184 
z
" transform="scale(0.015625)"/>
       <path id="DejaVuSerif-29" d="M 453 -997 
L 453 -691 
Q 934 -359 1145 242 
Q 1356 844 1356 1931 
Q 1356 3022 1145 3623 
Q 934 4225 453 4556 
L 453 4863 
Q 1216 4522 1603 3783 
Q 1991 3044 1991 1931 
Q 1991 822 1603 83 
Q 1216 -656 453 -997 
z
" transform="scale(0.015625)"/>
      </defs>
      <use xlink:href="#DejaVuSerif-54"/>
      <use xlink:href="#DejaVuSerif-69" x="66.699219"/>
      <use xlink:href="#DejaVuSerif-6d" x="98.681641"/>
      <use xlink:href="#DejaVuSerif-65" x="193.505859"/>
      <use xlink:href="#DejaVuSerif-28" x="252.685547"/>
      <use xlink:href="#DejaVuSerif-73" x="291.699219"/>
      <use xlink:href="#DejaVuSerif-29" x="343.017578"/>
     </g>
    </g>
   </g>
   <g id="patch_3">
    <path d="M 301.91506 3302.788939 
L 464.151109 3302.788939 
L 464.151109 1883.223506 
L 301.91506 1883.223506 
z
" clip-path="url(#p632b4ee609)" style="fill: #1ea4a4; stroke: #1ea4a4; stroke-linejoin: miter"/>
   </g>
   <g id="patch_4">
    <path d="M 464.151109 3302.788939 
L 869.741233 3302.788939 
L 869.741233 1883.223506 
L 464.151109 1883.223506 
z
" clip-path="url(#p632b4ee609)" style="fill: #c8c8c8; stroke: #c8c8c8; stroke-linejoin: miter"/>
   </g>
   <g id="patch_5">
    <path d="M 869.741233 3302.788939 
L 1194.213332 3302.788939 
L 1194.213332 1883.223506 
L 869.741233 1883.223506 
z
" clip-path="url(#p632b4ee609)" style="fill: #1ea4a4; stroke: #1ea4a4; stroke-linejoin: miter"/>
   </g>
   <g id="patch_6">
    <path d="M 1194.213332 3302.788939 
L 1437.567406 3302.788939 
L 1437.567406 1883.223506 
L 1194.213332 1883.223506 
z
" clip-path="url(#p632b4ee609)" style="fill: #c8c8c8; stroke: #c8c8c8; stroke-linejoin: miter"/>
   </g>
   <g id="patch_7">
    <path d="M 1437.567406 3302.788939 
L 1843.15753 3302.788939 
L 1843.15753 1883.223506 
L 1437.567406 1883.223506 
z
" clip-path="url(#p632b4ee609)" style="fill: #1ea4a4; stroke: #1ea4a4; stroke-linejoin: miter"/>
   </g>
   <g id="patch_8">
    <path d="M 1843.15753 3302.788939 
L 2167.629628 3302.788939 
L 2167.629628 1883.223506 
L 1843.15753 1883.223506 
z
" clip-path="url(#p632b4ee609)" style="fill: #c8c8c8; stroke: #c8c8c8; stroke-linejoin: miter"/>
   </g>
   <g id="patch_9">
    <path d="M 2167.629628 3302.788939 
L 2410.983703 3302.788939 
L 2410.983703 1883.223506 
L 2167.629628 1883.223506 
z
" clip-path="url(#p632b4ee609)" style="fill: #1ea4a4; stroke: #1ea4a4; stroke-linejoin: miter"/>
   </g>
   <g id="patch_10">
    <path d="M 2410.983703 3302.788939 
L 2573.219752 3302.788939 
L 2573.219752 1883.223506 
L 2410.983703 1883.223506 
z
" clip-path="url(#p632b4ee609)" style="fill: #c8c8c8; stroke: #c8c8c8; stroke-linejoin: miter"/>
   </g>
   <g id="patch_11">
    <path d="M 2573.219752 3302.788939 
L 2978.809876 3302.788939 
L 2978.809876 1883.223506 
L 2573.219752 1883.223506 
z
" clip-path="url(#p632b4ee609)" style="fill: #1ea4a4; stroke: #1ea4a4; stroke-linejoin: miter"/>
   </g>
   <g id="patch_12">
    <path d="M 2978.809876 3302.788939 
L 3222.16395 3302.788939 
L 3222.16395 1883.223506 
L 2978.809876 1883.223506 
z
" clip-path="url(#p632b4ee609)" style="fill: #c8c8c8; stroke: #c8c8c8; stroke-linejoin: miter"/>
   </g>
   <g id="patch_13">
    <path d="M 3222.16395 3302.788939 
L 3384.399999 3302.788939 
L 3384.399999 1883.223506 
L 3222.16395 1883.223506 
z
" clip-path="url(#p632b4ee609)" style="fill: #1ea4a4; stroke: #1ea4a4; stroke-linejoin: miter"/>
   </g>
   <g id="patch_14">
    <path d="M 3384.399999 3302.788939 
L 3789.990123 3302.788939 
L 3789.990123 1883.223506 
L 3384.399999 1883.223506 
z
" clip-path="url(#p632b4ee609)" style="fill: #c8c8c8; stroke: #c8c8c8; stroke-linejoin: miter"/>
   </g>
   <g id="patch_15">
    <path d="M 3789.990123 3302.788939 
L 4114.462222 3302.788939 
L 4114.462222 1883.223506 
L 3789.990123 1883.223506 
z
" clip-path="url(#p632b4ee609)" style="fill: #1ea4a4; stroke: #1ea4a4; stroke-linejoin: miter"/>
   </g>
   <g id="patch_16">
    <path d="M 4114.462222 3302.788939 
L 4276.698271 3302.788939 
L 4276.698271 1883.223506 
L 4114.462222 1883.223506 
z
" clip-path="url(#p632b4ee609)" style="fill: #c8c8c8; stroke: #c8c8c8; stroke-linejoin: miter"/>
   </g>
   <g id="patch_17">
    <path d="M 4276.698271 3302.788939 
L 4520.052345 3302.788939 
L 4520.052345 1883.223506 
L 4276.698271 1883.223506 
z
" clip-path="url(#p632b4ee609)" style="fill: #1ea4a4; stroke: #1ea4a4; stroke-linejoin: miter"/>
   </g>
   <g id="patch_18">
    <path d="M 4520.052345 3302.788939 
L 4844.524444 3302.788939 
L 4844.524444 1883.223506 
L 4520.052345 1883.223506 
z
" clip-path="url(#p632b4ee609)" style="fill: #c8c8c8; stroke: #c8c8c8; stroke-linejoin: miter"/>
   </g>
   <g id="patch_19">
    <path d="M 317.124689 2253.324494 
C 321.15833 2253.324494 325.027307 2251.721911 327.879522 2248.869696 
C 330.731737 2246.017481 332.334319 2242.148505 332.334319 2238.114864 
C 332.334319 2234.081223 330.731737 2230.212247 327.879522 2227.360032 
C 325.027307 2224.507817 321.15833 2222.905234 317.124689 2222.905234 
C 313.091048 2222.905234 309.222072 2224.507817 306.369857 2227.360032 
C 303.517642 2230.212247 301.91506 2234.081223 301.91506 2238.114864 
C 301.91506 2242.148505 303.517642 2246.017481 306.369857 2248.869696 
C 309.222072 2251.721911 313.091048 2253.324494 317.124689 2253.324494 
z
" clip-path="url(#p632b4ee609)" style="stroke: #000000; stroke-linejoin: miter"/>
   </g>
   <g id="patch_20">
    <path d="M 398.242714 2253.324494 
C 402.276355 2253.324494 406.145332 2251.721911 408.997546 2248.869696 
C 411.849761 2246.017481 413.452344 2242.148505 413.452344 2238.114864 
C 413.452344 2234.081223 411.849761 2230.212247 408.997546 2227.360032 
C 406.145332 2224.507817 402.276355 2222.905234 398.242714 2222.905234 
C 394.209073 2222.905234 390.340097 2224.507817 387.487882 2227.360032 
C 384.635667 2230.212247 383.033084 2234.081223 383.033084 2238.114864 
C 383.033084 2242.148505 384.635667 2246.017481 387.487882 2248.869696 
C 390.340097 2251.721911 394.209073 2253.324494 398.242714 2253.324494 
z
" clip-path="url(#p632b4ee609)" style="stroke: #000000; stroke-linejoin: miter"/>
   </g>
   <g id="patch_21">
    <path d="M 479.360739 2963.10721 
C 483.39438 2963.10721 487.263356 2961.504628 490.115571 2958.652413 
C 492.967786 2955.800198 494.570368 2951.931221 494.570368 2947.89758 
C 494.570368 2943.863939 492.967786 2939.994963 490.115571 2937.142748 
C 487.263356 2934.290533 483.39438 2932.687951 479.360739 2932.687951 
C 475.327098 2932.687951 471.458121 2934.290533 468.605907 2937.142748 
C 465.753692 2939.994963 464.151109 2943.863939 464.151109 2947.89758 
C 464.151109 2951.931221 465.753692 2955.800198 468.605907 2958.652413 
C 471.458121 2961.504628 475.327098 2963.10721 479.360739 2963.10721 
z
" clip-path="url(#p632b4ee609)" style="stroke: #000000; stroke-linejoin: miter"/>
   </g>
   <g id="patch_22">
    <path d="M 560.478764 2253.324494 
C 564.512405 2253.324494 568.381381 2251.721911 571.233596 2248.869696 
C 574.085811 2246.017481 575.688393 2242.148505 575.688393 2238.114864 
C 575.688393 2234.081223 574.085811 2230.212247 571.233596 2227.360032 
C 568.381381 2224.507817 564.512405 2222.905234 560.478764 2222.905234 
C 556.445123 2222.905234 552.576146 2224.507817 549.723931 2227.360032 
C 546.871716 2230.212247 545.269134 2234.081223 545.269134 2238.114864 
C 545.269134 2242.148505 546.871716 2246.017481 549.723931 2248.869696 
C 552.576146 2251.721911 556.445123 2253.324494 560.478764 2253.324494 
z
" clip-path="url(#p632b4ee609)" style="fill: #ff0000; stroke: #ff0000; stroke-linejoin: miter"/>
   </g>
   <g id="patch_23">
    <path d="M 641.596788 2963.10721 
C 645.630429 2963.10721 649.499406 2961.504628 652.351621 2958.652413 
C 655.203835 2955.800198 656.806418 2951.931221 656.806418 2947.89758 
C 656.806418 2943.863939 655.203835 2939.994963 652.351621 2937.142748 
C 649.499406 2934.290533 645.630429 2932.687951 641.596788 2932.687951 
C 637.563147 2932.687951 633.694171 2934.290533 630.841956 2937.142748 
C 627.989741 2939.994963 626.387159 2943.863939 626.387159 2947.89758 
C 626.387159 2951.931221 627.989741 2955.800198 630.841956 2958.652413 
C 633.694171 2961.504628 637.563147 2963.10721 641.596788 2963.10721 
z
" clip-path="url(#p632b4ee609)" style="stroke: #000000; stroke-linejoin: miter"/>
   </g>
   <g id="patch_24">
    <path d="M 722.714813 2253.324494 
C 726.748454 2253.324494 730.61743 2251.721911 733.469645 2248.869696 
C 736.32186 2246.017481 737.924443 2242.148505 737.924443 2238.114864 
C 737.924443 2234.081223 736.32186 2230.212247 733.469645 2227.360032 
C 730.61743 2224.507817 726.748454 2222.905234 722.714813 2222.905234 
C 718.681172 2222.905234 714.812196 2224.507817 711.959981 2227.360032 
C 709.107766 2230.212247 707.505183 2234.081223 707.505183 2238.114864 
C 707.505183 2242.148505 709.107766 2246.017481 711.959981 2248.869696 
C 714.812196 2251.721911 718.681172 2253.324494 722.714813 2253.324494 
z
" clip-path="url(#p632b4ee609)" style="fill: #ff0000; stroke: #ff0000; stroke-linejoin: miter"/>
   </g>
   <g id="patch_25">
    <path d="M 803.832838 2253.324494 
C 807.866479 2253.324494 811.735455 2251.721911 814.58767 2248.869696 
C 817.439885 2246.017481 819.042467 2242.148505 819.042467 2238.114864 
C 819.042467 2234.081223 817.439885 2230.212247 814.58767 2227.360032 
C 811.735455 2224.507817 807.866479 2222.905234 803.832838 2222.905234 
C 799.799197 2222.905234 795.93022 2224.507817 793.078005 2227.360032 
C 790.225791 2230.212247 788.623208 2234.081223 788.623208 2238.114864 
C 788.623208 2242.148505 790.225791 2246.017481 793.078005 2248.869696 
C 795.93022 2251.721911 799.799197 2253.324494 803.832838 2253.324494 
z
" clip-path="url(#p632b4ee609)" style="fill: #ff0000; stroke: #ff0000; stroke-linejoin: miter"/>
   </g>
   <g id="patch_26">
    <path d="M 884.950862 2253.324494 
C 888.984503 2253.324494 892.85348 2251.721911 895.705695 2248.869696 
C 898.55791 2246.017481 900.160492 2242.148505 900.160492 2238.114864 
C 900.160492 2234.081223 898.55791 2230.212247 895.705695 2227.360032 
C 892.85348 2224.507817 888.984503 2222.905234 884.950862 2222.905234 
C 880.917222 2222.905234 877.048245 2224.507817 874.19603 2227.360032 
C 871.343815 2230.212247 869.741233 2234.081223 869.741233 2238.114864 
C 869.741233 2242.148505 871.343815 2246.017481 874.19603 2248.869696 
C 877.048245 2251.721911 880.917222 2253.324494 884.950862 2253.324494 
z
" clip-path="url(#p632b4ee609)" style="stroke: #000000; stroke-linejoin: miter"/>
   </g>
   <g id="patch_27">
    <path d="M 966.068887 2253.324494 
C 970.102528 2253.324494 973.971505 2251.721911 976.823719 2248.869696 
C 979.675934 2246.017481 981.278517 2242.148505 981.278517 2238.114864 
C 981.278517 2234.081223 979.675934 2230.212247 976.823719 2227.360032 
C 973.971505 2224.507817 970.102528 2222.905234 966.068887 2222.905234 
C 962.035246 2222.905234 958.16627 2224.507817 955.314055 2227.360032 
C 952.46184 2230.212247 950.859258 2234.081223 950.859258 2238.114864 
C 950.859258 2242.148505 952.46184 2246.017481 955.314055 2248.869696 
C 958.16627 2251.721911 962.035246 2253.324494 966.068887 2253.324494 
z
" clip-path="url(#p632b4ee609)" style="stroke: #000000; stroke-linejoin: miter"/>
   </g>
   <g id="patch_28">
    <path d="M 1047.186912 2253.324494 
C 1051.220553 2253.324494 1055.089529 2251.721911 1057.941744 2248.869696 
C 1060.793959 2246.017481 1062.396542 2242.148505 1062.396542 2238.114864 
C 1062.396542 2234.081223 1060.793959 2230.212247 1057.941744 2227.360032 
C 1055.089529 2224.507817 1051.220553 2222.905234 1047.186912 2222.905234 
C 1043.153271 2222.905234 1039.284295 2224.507817 1036.43208 2227.360032 
C 1033.579865 2230.212247 1031.977282 2234.081223 1031.977282 2238.114864 
C 1031.977282 2242.148505 1033.579865 2246.017481 1036.43208 2248.869696 
C 1039.284295 2251.721911 1043.153271 2253.324494 1047.186912 2253.324494 
z
" clip-path="url(#p632b4ee609)" style="stroke: #000000; stroke-linejoin: miter"/>
   </g>
   <g id="patch_29">
    <path d="M 1128.304937 2253.324494 
C 1132.338578 2253.324494 1136.207554 2251.721911 1139.059769 2248.869696 
C 1141.911984 2246.017481 1143.514566 2242.148505 1143.514566 2238.114864 
C 1143.514566 2234.081223 1141.911984 2230.212247 1139.059769 2227.360032 
C 1136.207554 2224.507817 1132.338578 2222.905234 1128.304937 2222.905234 
C 1124.271296 2222.905234 1120.402319 2224.507817 1117.550104 2227.360032 
C 1114.69789 2230.212247 1113.095307 2234.081223 1113.095307 2238.114864 
C 1113.095307 2242.148505 1114.69789 2246.017481 1117.550104 2248.869696 
C 1120.402319 2251.721911 1124.271296 2253.324494 1128.304937 2253.324494 
z
" clip-path="url(#p632b4ee609)" style="stroke: #000000; stroke-linejoin: miter"/>
   </g>
   <g id="patch_30">
    <path d="M 1209.422961 2963.10721 
C 1213.456602 2963.10721 1217.325579 2961.504628 1220.177794 2958.652413 
C 1223.030008 2955.800198 1224.632591 2951.931221 1224.632591 2947.89758 
C 1224.632591 2943.863939 1223.030008 2939.994963 1220.177794 2937.142748 
C 1217.325579 2934.290533 1213.456602 2932.687951 1209.422961 2932.687951 
C 1205.38932 2932.687951 1201.520344 2934.290533 1198.668129 2937.142748 
C 1195.815914 2939.994963 1194.213332 2943.863939 1194.213332 2947.89758 
C 1194.213332 2951.931221 1195.815914 2955.800198 1198.668129 2958.652413 
C 1201.520344 2961.504628 1205.38932 2963.10721 1209.422961 2963.10721 
z
" clip-path="url(#p632b4ee609)" style="stroke: #000000; stroke-linejoin: miter"/>
   </g>
   <g id="patch_31">
    <path d="M 1290.540986 2963.10721 
C 1294.574627 2963.10721 1298.443604 2961.504628 1301.295818 2958.652413 
C 1304.148033 2955.800198 1305.750616 2951.931221 1305.750616 2947.89758 
C 1305.750616 2943.863939 1304.148033 2939.994963 1301.295818 2937.142748 
C 1298.443604 2934.290533 1294.574627 2932.687951 1290.540986 2932.687951 
C 1286.507345 2932.687951 1282.638369 2934.290533 1279.786154 2937.142748 
C 1276.933939 2939.994963 1275.331356 2943.863939 1275.331356 2947.89758 
C 1275.331356 2951.931221 1276.933939 2955.800198 1279.786154 2958.652413 
C 1282.638369 2961.504628 1286.507345 2963.10721 1290.540986 2963.10721 
z
" clip-path="url(#p632b4ee609)" style="stroke: #000000; stroke-linejoin: miter"/>
   </g>
   <g id="patch_32">
    <path d="M 1371.659011 2253.324494 
C 1375.692652 2253.324494 1379.561628 2251.721911 1382.413843 2248.869696 
C 1385.266058 2246.017481 1386.86864 2242.148505 1386.86864 2238.114864 
C 1386.86864 2234.081223 1385.266058 2230.212247 1382.413843 2227.360032 
C 1379.561628 2224.507817 1375.692652 2222.905234 1371.659011 2222.905234 
C 1367.62537 2222.905234 1363.756393 2224.507817 1360.904179 2227.360032 
C 1358.051964 2230.212247 1356.449381 2234.081223 1356.449381 2238.114864 
C 1356.449381 2242.148505 1358.051964 2246.017481 1360.904179 2248.869696 
C 1363.756393 2251.721911 1367.62537 2253.324494 1371.659011 2253.324494 
z
" clip-path="url(#p632b4ee609)" style="fill: #ff0000; stroke: #ff0000; stroke-linejoin: miter"/>
   </g>
   <g id="patch_33">
    <path d="M 1452.777036 2253.324494 
C 1456.810676 2253.324494 1460.679653 2251.721911 1463.531868 2248.869696 
C 1466.384083 2246.017481 1467.986665 2242.148505 1467.986665 2238.114864 
C 1467.986665 2234.081223 1466.384083 2230.212247 1463.531868 2227.360032 
C 1460.679653 2224.507817 1456.810676 2222.905234 1452.777036 2222.905234 
C 1448.743395 2222.905234 1444.874418 2224.507817 1442.022203 2227.360032 
C 1439.169988 2230.212247 1437.567406 2234.081223 1437.567406 2238.114864 
C 1437.567406 2242.148505 1439.169988 2246.017481 1442.022203 2248.869696 
C 1444.874418 2251.721911 1448.743395 2253.324494 1452.777036 2253.324494 
z
" clip-path="url(#p632b4ee609)" style="stroke: #000000; stroke-linejoin: miter"/>
   </g>
   <g id="patch_34">
    <path d="M 1533.89506 2253.324494 
C 1537.928701 2253.324494 1541.797678 2251.721911 1544.649893 2248.869696 
C 1547.502107 2246.017481 1549.10469 2242.148505 1549.10469 2238.114864 
C 1549.10469 2234.081223 1547.502107 2230.212247 1544.649893 2227.360032 
C 1541.797678 2224.507817 1537.928701 2222.905234 1533.89506 2222.905234 
C 1529.861419 2222.905234 1525.992443 2224.507817 1523.140228 2227.360032 
C 1520.288013 2230.212247 1518.685431 2234.081223 1518.685431 2238.114864 
C 1518.685431 2242.148505 1520.288013 2246.017481 1523.140228 2248.869696 
C 1525.992443 2251.721911 1529.861419 2253.324494 1533.89506 2253.324494 
z
" clip-path="url(#p632b4ee609)" style="stroke: #000000; stroke-linejoin: miter"/>
   </g>
   <g id="patch_35">
    <path d="M 1615.013085 2253.324494 
C 1619.046726 2253.324494 1622.915702 2251.721911 1625.767917 2248.869696 
C 1628.620132 2246.017481 1630.222715 2242.148505 1630.222715 2238.114864 
C 1630.222715 2234.081223 1628.620132 2230.212247 1625.767917 2227.360032 
C 1622.915702 2224.507817 1619.046726 2222.905234 1615.013085 2222.905234 
C 1610.979444 2222.905234 1607.110468 2224.507817 1604.258253 2227.360032 
C 1601.406038 2230.212247 1599.803455 2234.081223 1599.803455 2238.114864 
C 1599.803455 2242.148505 1601.406038 2246.017481 1604.258253 2248.869696 
C 1607.110468 2251.721911 1610.979444 2253.324494 1615.013085 2253.324494 
z
" clip-path="url(#p632b4ee609)" style="stroke: #000000; stroke-linejoin: miter"/>
   </g>
   <g id="patch_36">
    <path d="M 1696.13111 2253.324494 
C 1700.164751 2253.324494 1704.033727 2251.721911 1706.885942 2248.869696 
C 1709.738157 2246.017481 1711.340739 2242.148505 1711.340739 2238.114864 
C 1711.340739 2234.081223 1709.738157 2230.212247 1706.885942 2227.360032 
C 1704.033727 2224.507817 1700.164751 2222.905234 1696.13111 2222.905234 
C 1692.097469 2222.905234 1688.228492 2224.507817 1685.376277 2227.360032 
C 1682.524063 2230.212247 1680.92148 2234.081223 1680.92148 2238.114864 
C 1680.92148 2242.148505 1682.524063 2246.017481 1685.376277 2248.869696 
C 1688.228492 2251.721911 1692.097469 2253.324494 1696.13111 2253.324494 
z
" clip-path="url(#p632b4ee609)" style="stroke: #000000; stroke-linejoin: miter"/>
   </g>
   <g id="patch_37">
    <path d="M 1777.249134 2253.324494 
C 1781.282775 2253.324494 1785.151752 2251.721911 1788.003967 2248.869696 
C 1790.856182 2246.017481 1792.458764 2242.148505 1792.458764 2238.114864 
C 1792.458764 2234.081223 1790.856182 2230.212247 1788.003967 2227.360032 
C 1785.151752 2224.507817 1781.282775 2222.905234 1777.249134 2222.905234 
C 1773.215494 2222.905234 1769.346517 2224.507817 1766.494302 2227.360032 
C 1763.642087 2230.212247 1762.039505 2234.081223 1762.039505 2238.114864 
C 1762.039505 2242.148505 1763.642087 2246.017481 1766.494302 2248.869696 
C 1769.346517 2251.721911 1773.215494 2253.324494 1777.249134 2253.324494 
z
" clip-path="url(#p632b4ee609)" style="stroke: #000000; stroke-linejoin: miter"/>
   </g>
   <g id="patch_38">
    <path d="M 1858.367159 2963.10721 
C 1862.4008 2963.10721 1866.269777 2961.504628 1869.121991 2958.652413 
C 1871.974206 2955.800198 1873.576789 2951.931221 1873.576789 2947.89758 
C 1873.576789 2943.863939 1871.974206 2939.994963 1869.121991 2937.142748 
C 1866.269777 2934.290533 1862.4008 2932.687951 1858.367159 2932.687951 
C 1854.333518 2932.687951 1850.464542 2934.290533 1847.612327 2937.142748 
C 1844.760112 2939.994963 1843.15753 2943.863939 1843.15753 2947.89758 
C 1843.15753 2951.931221 1844.760112 2955.800198 1847.612327 2958.652413 
C 1850.464542 2961.504628 1854.333518 2963.10721 1858.367159 2963.10721 
z
" clip-path="url(#p632b4ee609)" style="stroke: #000000; stroke-linejoin: miter"/>
   </g>
   <g id="patch_39">
    <path d="M 1939.485184 2963.10721 
C 1943.518825 2963.10721 1947.387801 2961.504628 1950.240016 2958.652413 
C 1953.092231 2955.800198 1954.694814 2951.931221 1954.694814 2947.89758 
C 1954.694814 2943.863939 1953.092231 2939.994963 1950.240016 2937.142748 
C 1947.387801 2934.290533 1943.518825 2932.687951 1939.485184 2932.687951 
C 1935.451543 2932.687951 1931.582567 2934.290533 1928.730352 2937.142748 
C 1925.878137 2939.994963 1924.275554 2943.863939 1924.275554 2947.89758 
C 1924.275554 2951.931221 1925.878137 2955.800198 1928.730352 2958.652413 
C 1931.582567 2961.504628 1935.451543 2963.10721 1939.485184 2963.10721 
z
" clip-path="url(#p632b4ee609)" style="stroke: #000000; stroke-linejoin: miter"/>
   </g>
   <g id="patch_40">
    <path d="M 2020.603209 2253.324494 
C 2024.63685 2253.324494 2028.505826 2251.721911 2031.358041 2248.869696 
C 2034.210256 2246.017481 2035.812838 2242.148505 2035.812838 2238.114864 
C 2035.812838 2234.081223 2034.210256 2230.212247 2031.358041 2227.360032 
C 2028.505826 2224.507817 2024.63685 2222.905234 2020.603209 2222.905234 
C 2016.569568 2222.905234 2012.700591 2224.507817 2009.848376 2227.360032 
C 2006.996162 2230.212247 2005.393579 2234.081223 2005.393579 2238.114864 
C 2005.393579 2242.148505 2006.996162 2246.017481 2009.848376 2248.869696 
C 2012.700591 2251.721911 2016.569568 2253.324494 2020.603209 2253.324494 
z
" clip-path="url(#p632b4ee609)" style="fill: #ff0000; stroke: #ff0000; stroke-linejoin: miter"/>
   </g>
   <g id="patch_41">
    <path d="M 2101.721233 2253.324494 
C 2105.754874 2253.324494 2109.623851 2251.721911 2112.476066 2248.869696 
C 2115.32828 2246.017481 2116.930863 2242.148505 2116.930863 2238.114864 
C 2116.930863 2234.081223 2115.32828 2230.212247 2112.476066 2227.360032 
C 2109.623851 2224.507817 2105.754874 2222.905234 2101.721233 2222.905234 
C 2097.687592 2222.905234 2093.818616 2224.507817 2090.966401 2227.360032 
C 2088.114186 2230.212247 2086.511604 2234.081223 2086.511604 2238.114864 
C 2086.511604 2242.148505 2088.114186 2246.017481 2090.966401 2248.869696 
C 2093.818616 2251.721911 2097.687592 2253.324494 2101.721233 2253.324494 
z
" clip-path="url(#p632b4ee609)" style="fill: #ff0000; stroke: #ff0000; stroke-linejoin: miter"/>
   </g>
   <g id="patch_42">
    <path d="M 2182.839258 2253.324494 
C 2186.872899 2253.324494 2190.741875 2251.721911 2193.59409 2248.869696 
C 2196.446305 2246.017481 2198.048888 2242.148505 2198.048888 2238.114864 
C 2198.048888 2234.081223 2196.446305 2230.212247 2193.59409 2227.360032 
C 2190.741875 2224.507817 2186.872899 2222.905234 2182.839258 2222.905234 
C 2178.805617 2222.905234 2174.936641 2224.507817 2172.084426 2227.360032 
C 2169.232211 2230.212247 2167.629628 2234.081223 2167.629628 2238.114864 
C 2167.629628 2242.148505 2169.232211 2246.017481 2172.084426 2248.869696 
C 2174.936641 2251.721911 2178.805617 2253.324494 2182.839258 2253.324494 
z
" clip-path="url(#p632b4ee609)" style="stroke: #000000; stroke-linejoin: miter"/>
   </g>
   <g id="patch_43">
    <path d="M 2263.957283 2253.324494 
C 2267.990924 2253.324494 2271.8599 2251.721911 2274.712115 2248.869696 
C 2277.56433 2246.017481 2279.166912 2242.148505 2279.166912 2238.114864 
C 2279.166912 2234.081223 2277.56433 2230.212247 2274.712115 2227.360032 
C 2271.8599 2224.507817 2267.990924 2222.905234 2263.957283 2222.905234 
C 2259.923642 2222.905234 2256.054665 2224.507817 2253.202451 2227.360032 
C 2250.350236 2230.212247 2248.747653 2234.081223 2248.747653 2238.114864 
C 2248.747653 2242.148505 2250.350236 2246.017481 2253.202451 2248.869696 
C 2256.054665 2251.721911 2259.923642 2253.324494 2263.957283 2253.324494 
z
" clip-path="url(#p632b4ee609)" style="stroke: #000000; stroke-linejoin: miter"/>
   </g>
   <g id="patch_44">
    <path d="M 2345.075308 2253.324494 
C 2349.108948 2253.324494 2352.977925 2251.721911 2355.83014 2248.869696 
C 2358.682355 2246.017481 2360.284937 2242.148505 2360.284937 2238.114864 
C 2360.284937 2234.081223 2358.682355 2230.212247 2355.83014 2227.360032 
C 2352.977925 2224.507817 2349.108948 2222.905234 2345.075308 2222.905234 
C 2341.041667 2222.905234 2337.17269 2224.507817 2334.320475 2227.360032 
C 2331.46826 2230.212247 2329.865678 2234.081223 2329.865678 2238.114864 
C 2329.865678 2242.148505 2331.46826 2246.017481 2334.320475 2248.869696 
C 2337.17269 2251.721911 2341.041667 2253.324494 2345.075308 2253.324494 
z
" clip-path="url(#p632b4ee609)" style="stroke: #000000; stroke-linejoin: miter"/>
   </g>
   <g id="patch_45">
    <path d="M 2426.193332 2253.324494 
C 2430.226973 2253.324494 2434.09595 2251.721911 2436.948165 2248.869696 
C 2439.800379 2246.017481 2441.402962 2242.148505 2441.402962 2238.114864 
C 2441.402962 2234.081223 2439.800379 2230.212247 2436.948165 2227.360032 
C 2434.09595 2224.507817 2430.226973 2222.905234 2426.193332 2222.905234 
C 2422.159691 2222.905234 2418.290715 2224.507817 2415.4385 2227.360032 
C 2412.586285 2230.212247 2410.983703 2234.081223 2410.983703 2238.114864 
C 2410.983703 2242.148505 2412.586285 2246.017481 2415.4385 2248.869696 
C 2418.290715 2251.721911 2422.159691 2253.324494 2426.193332 2253.324494 
z
" clip-path="url(#p632b4ee609)" style="fill: #ff0000; stroke: #ff0000; stroke-linejoin: miter"/>
   </g>
   <g id="patch_46">
    <path d="M 2507.311357 2253.324494 
C 2511.344998 2253.324494 2515.213974 2251.721911 2518.066189 2248.869696 
C 2520.918404 2246.017481 2522.520987 2242.148505 2522.520987 2238.114864 
C 2522.520987 2234.081223 2520.918404 2230.212247 2518.066189 2227.360032 
C 2515.213974 2224.507817 2511.344998 2222.905234 2507.311357 2222.905234 
C 2503.277716 2222.905234 2499.40874 2224.507817 2496.556525 2227.360032 
C 2493.70431 2230.212247 2492.101727 2234.081223 2492.101727 2238.114864 
C 2492.101727 2242.148505 2493.70431 2246.017481 2496.556525 2248.869696 
C 2499.40874 2251.721911 2503.277716 2253.324494 2507.311357 2253.324494 
z
" clip-path="url(#p632b4ee609)" style="fill: #ff0000; stroke: #ff0000; stroke-linejoin: miter"/>
   </g>
   <g id="patch_47">
    <path d="M 2588.429382 2253.324494 
C 2592.463023 2253.324494 2596.331999 2251.721911 2599.184214 2248.869696 
C 2602.036429 2246.017481 2603.639011 2242.148505 2603.639011 2238.114864 
C 2603.639011 2234.081223 2602.036429 2230.212247 2599.184214 2227.360032 
C 2596.331999 2224.507817 2592.463023 2222.905234 2588.429382 2222.905234 
C 2584.395741 2222.905234 2580.526764 2224.507817 2577.674549 2227.360032 
C 2574.822335 2230.212247 2573.219752 2234.081223 2573.219752 2238.114864 
C 2573.219752 2242.148505 2574.822335 2246.017481 2577.674549 2248.869696 
C 2580.526764 2251.721911 2584.395741 2253.324494 2588.429382 2253.324494 
z
" clip-path="url(#p632b4ee609)" style="stroke: #000000; stroke-linejoin: miter"/>
   </g>
   <g id="patch_48">
    <path d="M 2669.547406 2253.324494 
C 2673.581047 2253.324494 2677.450024 2251.721911 2680.302239 2248.869696 
C 2683.154454 2246.017481 2684.757036 2242.148505 2684.757036 2238.114864 
C 2684.757036 2234.081223 2683.154454 2230.212247 2680.302239 2227.360032 
C 2677.450024 2224.507817 2673.581047 2222.905234 2669.547406 2222.905234 
C 2665.513765 2222.905234 2661.644789 2224.507817 2658.792574 2227.360032 
C 2655.940359 2230.212247 2654.337777 2234.081223 2654.337777 2238.114864 
C 2654.337777 2242.148505 2655.940359 2246.017481 2658.792574 2248.869696 
C 2661.644789 2251.721911 2665.513765 2253.324494 2669.547406 2253.324494 
z
" clip-path="url(#p632b4ee609)" style="stroke: #000000; stroke-linejoin: miter"/>
   </g>
   <g id="patch_49">
    <path d="M 2750.665431 2253.324494 
C 2754.699072 2253.324494 2758.568049 2251.721911 2761.420263 2248.869696 
C 2764.272478 2246.017481 2765.875061 2242.148505 2765.875061 2238.114864 
C 2765.875061 2234.081223 2764.272478 2230.212247 2761.420263 2227.360032 
C 2758.568049 2224.507817 2754.699072 2222.905234 2750.665431 2222.905234 
C 2746.63179 2222.905234 2742.762814 2224.507817 2739.910599 2227.360032 
C 2737.058384 2230.212247 2735.455802 2234.081223 2735.455802 2238.114864 
C 2735.455802 2242.148505 2737.058384 2246.017481 2739.910599 2248.869696 
C 2742.762814 2251.721911 2746.63179 2253.324494 2750.665431 2253.324494 
z
" clip-path="url(#p632b4ee609)" style="stroke: #000000; stroke-linejoin: miter"/>
   </g>
   <g id="patch_50">
    <path d="M 2831.783456 2253.324494 
C 2835.817097 2253.324494 2839.686073 2251.721911 2842.538288 2248.869696 
C 2845.390503 2246.017481 2846.993086 2242.148505 2846.993086 2238.114864 
C 2846.993086 2234.081223 2845.390503 2230.212247 2842.538288 2227.360032 
C 2839.686073 2224.507817 2835.817097 2222.905234 2831.783456 2222.905234 
C 2827.749815 2222.905234 2823.880838 2224.507817 2821.028624 2227.360032 
C 2818.176409 2230.212247 2816.573826 2234.081223 2816.573826 2238.114864 
C 2816.573826 2242.148505 2818.176409 2246.017481 2821.028624 2248.869696 
C 2823.880838 2251.721911 2827.749815 2253.324494 2831.783456 2253.324494 
z
" clip-path="url(#p632b4ee609)" style="stroke: #000000; stroke-linejoin: miter"/>
   </g>
   <g id="patch_51">
    <path d="M 2912.901481 2253.324494 
C 2916.935122 2253.324494 2920.804098 2251.721911 2923.656313 2248.869696 
C 2926.508528 2246.017481 2928.11111 2242.148505 2928.11111 2238.114864 
C 2928.11111 2234.081223 2926.508528 2230.212247 2923.656313 2227.360032 
C 2920.804098 2224.507817 2916.935122 2222.905234 2912.901481 2222.905234 
C 2908.86784 2222.905234 2904.998863 2224.507817 2902.146648 2227.360032 
C 2899.294433 2230.212247 2897.691851 2234.081223 2897.691851 2238.114864 
C 2897.691851 2242.148505 2899.294433 2246.017481 2902.146648 2248.869696 
C 2904.998863 2251.721911 2908.86784 2253.324494 2912.901481 2253.324494 
z
" clip-path="url(#p632b4ee609)" style="stroke: #000000; stroke-linejoin: miter"/>
   </g>
   <g id="patch_52">
    <path d="M 2994.019505 2253.324494 
C 2998.053146 2253.324494 3001.922123 2251.721911 3004.774338 2248.869696 
C 3007.626552 2246.017481 3009.229135 2242.148505 3009.229135 2238.114864 
C 3009.229135 2234.081223 3007.626552 2230.212247 3004.774338 2227.360032 
C 3001.922123 2224.507817 2998.053146 2222.905234 2994.019505 2222.905234 
C 2989.985864 2222.905234 2986.116888 2224.507817 2983.264673 2227.360032 
C 2980.412458 2230.212247 2978.809876 2234.081223 2978.809876 2238.114864 
C 2978.809876 2242.148505 2980.412458 2246.017481 2983.264673 2248.869696 
C 2986.116888 2251.721911 2989.985864 2253.324494 2994.019505 2253.324494 
z
" clip-path="url(#p632b4ee609)" style="fill: #ff0000; stroke: #ff0000; stroke-linejoin: miter"/>
   </g>
   <g id="patch_53">
    <path d="M 3075.13753 2253.324494 
C 3079.171171 2253.324494 3083.040147 2251.721911 3085.892362 2248.869696 
C 3088.744577 2246.017481 3090.34716 2242.148505 3090.34716 2238.114864 
C 3090.34716 2234.081223 3088.744577 2230.212247 3085.892362 2227.360032 
C 3083.040147 2224.507817 3079.171171 2222.905234 3075.13753 2222.905234 
C 3071.103889 2222.905234 3067.234913 2224.507817 3064.382698 2227.360032 
C 3061.530483 2230.212247 3059.9279 2234.081223 3059.9279 2238.114864 
C 3059.9279 2242.148505 3061.530483 2246.017481 3064.382698 2248.869696 
C 3067.234913 2251.721911 3071.103889 2253.324494 3075.13753 2253.324494 
z
" clip-path="url(#p632b4ee609)" style="fill: #ff0000; stroke: #ff0000; stroke-linejoin: miter"/>
   </g>
   <g id="patch_54">
    <path d="M 3156.255555 2253.324494 
C 3160.289196 2253.324494 3164.158172 2251.721911 3167.010387 2248.869696 
C 3169.862602 2246.017481 3171.465184 2242.148505 3171.465184 2238.114864 
C 3171.465184 2234.081223 3169.862602 2230.212247 3167.010387 2227.360032 
C 3164.158172 2224.507817 3160.289196 2222.905234 3156.255555 2222.905234 
C 3152.221914 2222.905234 3148.352937 2224.507817 3145.500723 2227.360032 
C 3142.648508 2230.212247 3141.045925 2234.081223 3141.045925 2238.114864 
C 3141.045925 2242.148505 3142.648508 2246.017481 3145.500723 2248.869696 
C 3148.352937 2251.721911 3152.221914 2253.324494 3156.255555 2253.324494 
z
" clip-path="url(#p632b4ee609)" style="fill: #ff0000; stroke: #ff0000; stroke-linejoin: miter"/>
   </g>
   <g id="patch_55">
    <path d="M 3237.37358 2253.324494 
C 3241.40722 2253.324494 3245.276197 2251.721911 3248.128412 2248.869696 
C 3250.980627 2246.017481 3252.583209 2242.148505 3252.583209 2238.114864 
C 3252.583209 2234.081223 3250.980627 2230.212247 3248.128412 2227.360032 
C 3245.276197 2224.507817 3241.40722 2222.905234 3237.37358 2222.905234 
C 3233.339939 2222.905234 3229.470962 2224.507817 3226.618747 2227.360032 
C 3223.766532 2230.212247 3222.16395 2234.081223 3222.16395 2238.114864 
C 3222.16395 2242.148505 3223.766532 2246.017481 3226.618747 2248.869696 
C 3229.470962 2251.721911 3233.339939 2253.324494 3237.37358 2253.324494 
z
" clip-path="url(#p632b4ee609)" style="stroke: #000000; stroke-linejoin: miter"/>
   </g>
   <g id="patch_56">
    <path d="M 3318.491604 2253.324494 
C 3322.525245 2253.324494 3326.394222 2251.721911 3329.246436 2248.869696 
C 3332.098651 2246.017481 3333.701234 2242.148505 3333.701234 2238.114864 
C 3333.701234 2234.081223 3332.098651 2230.212247 3329.246436 2227.360032 
C 3326.394222 2224.507817 3322.525245 2222.905234 3318.491604 2222.905234 
C 3314.457963 2222.905234 3310.588987 2224.507817 3307.736772 2227.360032 
C 3304.884557 2230.212247 3303.281975 2234.081223 3303.281975 2238.114864 
C 3303.281975 2242.148505 3304.884557 2246.017481 3307.736772 2248.869696 
C 3310.588987 2251.721911 3314.457963 2253.324494 3318.491604 2253.324494 
z
" clip-path="url(#p632b4ee609)" style="stroke: #000000; stroke-linejoin: miter"/>
   </g>
   <g id="patch_57">
    <path d="M 3399.609629 2253.324494 
C 3403.64327 2253.324494 3407.512246 2251.721911 3410.364461 2248.869696 
C 3413.216676 2246.017481 3414.819259 2242.148505 3414.819259 2238.114864 
C 3414.819259 2234.081223 3413.216676 2230.212247 3410.364461 2227.360032 
C 3407.512246 2224.507817 3403.64327 2222.905234 3399.609629 2222.905234 
C 3395.575988 2222.905234 3391.707012 2224.507817 3388.854797 2227.360032 
C 3386.002582 2230.212247 3384.399999 2234.081223 3384.399999 2238.114864 
C 3384.399999 2242.148505 3386.002582 2246.017481 3388.854797 2248.869696 
C 3391.707012 2251.721911 3395.575988 2253.324494 3399.609629 2253.324494 
z
" clip-path="url(#p632b4ee609)" style="fill: #ff0000; stroke: #ff0000; stroke-linejoin: miter"/>
   </g>
   <g id="patch_58">
    <path d="M 3480.727654 2253.324494 
C 3484.761295 2253.324494 3488.630271 2251.721911 3491.482486 2248.869696 
C 3494.334701 2246.017481 3495.937283 2242.148505 3495.937283 2238.114864 
C 3495.937283 2234.081223 3494.334701 2230.212247 3491.482486 2227.360032 
C 3488.630271 2224.507817 3484.761295 2222.905234 3480.727654 2222.905234 
C 3476.694013 2222.905234 3472.825036 2224.507817 3469.972821 2227.360032 
C 3467.120607 2230.212247 3465.518024 2234.081223 3465.518024 2238.114864 
C 3465.518024 2242.148505 3467.120607 2246.017481 3469.972821 2248.869696 
C 3472.825036 2251.721911 3476.694013 2253.324494 3480.727654 2253.324494 
z
" clip-path="url(#p632b4ee609)" style="fill: #ff0000; stroke: #ff0000; stroke-linejoin: miter"/>
   </g>
   <g id="patch_59">
    <path d="M 3561.845678 2963.10721 
C 3565.879319 2963.10721 3569.748296 2961.504628 3572.600511 2958.652413 
C 3575.452726 2955.800198 3577.055308 2951.931221 3577.055308 2947.89758 
C 3577.055308 2943.863939 3575.452726 2939.994963 3572.600511 2937.142748 
C 3569.748296 2934.290533 3565.879319 2932.687951 3561.845678 2932.687951 
C 3557.812037 2932.687951 3553.943061 2934.290533 3551.090846 2937.142748 
C 3548.238631 2939.994963 3546.636049 2943.863939 3546.636049 2947.89758 
C 3546.636049 2951.931221 3548.238631 2955.800198 3551.090846 2958.652413 
C 3553.943061 2961.504628 3557.812037 2963.10721 3561.845678 2963.10721 
z
" clip-path="url(#p632b4ee609)" style="stroke: #000000; stroke-linejoin: miter"/>
   </g>
   <g id="patch_60">
    <path d="M 3642.963703 2963.10721 
C 3646.997344 2963.10721 3650.866321 2961.504628 3653.718535 2958.652413 
C 3656.57075 2955.800198 3658.173333 2951.931221 3658.173333 2947.89758 
C 3658.173333 2943.863939 3656.57075 2939.994963 3653.718535 2937.142748 
C 3650.866321 2934.290533 3646.997344 2932.687951 3642.963703 2932.687951 
C 3638.930062 2932.687951 3635.061086 2934.290533 3632.208871 2937.142748 
C 3629.356656 2939.994963 3627.754073 2943.863939 3627.754073 2947.89758 
C 3627.754073 2951.931221 3629.356656 2955.800198 3632.208871 2958.652413 
C 3635.061086 2961.504628 3638.930062 2963.10721 3642.963703 2963.10721 
z
" clip-path="url(#p632b4ee609)" style="stroke: #000000; stroke-linejoin: miter"/>
   </g>
   <g id="patch_61">
    <path d="M 3724.081728 2963.10721 
C 3728.115369 2963.10721 3731.984345 2961.504628 3734.83656 2958.652413 
C 3737.688775 2955.800198 3739.291357 2951.931221 3739.291357 2947.89758 
C 3739.291357 2943.863939 3737.688775 2939.994963 3734.83656 2937.142748 
C 3731.984345 2934.290533 3728.115369 2932.687951 3724.081728 2932.687951 
C 3720.048087 2932.687951 3716.17911 2934.290533 3713.326896 2937.142748 
C 3710.474681 2939.994963 3708.872098 2943.863939 3708.872098 2947.89758 
C 3708.872098 2951.931221 3710.474681 2955.800198 3713.326896 2958.652413 
C 3716.17911 2961.504628 3720.048087 2963.10721 3724.081728 2963.10721 
z
" clip-path="url(#p632b4ee609)" style="stroke: #000000; stroke-linejoin: miter"/>
   </g>
   <g id="patch_62">
    <path d="M 3805.199753 2963.10721 
C 3809.233394 2963.10721 3813.10237 2961.504628 3815.954585 2958.652413 
C 3818.8068 2955.800198 3820.409382 2951.931221 3820.409382 2947.89758 
C 3820.409382 2943.863939 3818.8068 2939.994963 3815.954585 2937.142748 
C 3813.10237 2934.290533 3809.233394 2932.687951 3805.199753 2932.687951 
C 3801.166112 2932.687951 3797.297135 2934.290533 3794.44492 2937.142748 
C 3791.592705 2939.994963 3789.990123 2943.863939 3789.990123 2947.89758 
C 3789.990123 2951.931221 3791.592705 2955.800198 3794.44492 2958.652413 
C 3797.297135 2961.504628 3801.166112 2963.10721 3805.199753 2963.10721 
z
" clip-path="url(#p632b4ee609)" style="fill: #ff0000; stroke: #ff0000; stroke-linejoin: miter"/>
   </g>
   <g id="patch_63">
    <path d="M 3886.317777 2253.324494 
C 3890.351418 2253.324494 3894.220395 2251.721911 3897.07261 2248.869696 
C 3899.924824 2246.017481 3901.527407 2242.148505 3901.527407 2238.114864 
C 3901.527407 2234.081223 3899.924824 2230.212247 3897.07261 2227.360032 
C 3894.220395 2224.507817 3890.351418 2222.905234 3886.317777 2222.905234 
C 3882.284136 2222.905234 3878.41516 2224.507817 3875.562945 2227.360032 
C 3872.71073 2230.212247 3871.108148 2234.081223 3871.108148 2238.114864 
C 3871.108148 2242.148505 3872.71073 2246.017481 3875.562945 2248.869696 
C 3878.41516 2251.721911 3882.284136 2253.324494 3886.317777 2253.324494 
z
" clip-path="url(#p632b4ee609)" style="stroke: #000000; stroke-linejoin: miter"/>
   </g>
   <g id="patch_64">
    <path d="M 3967.435802 2253.324494 
C 3971.469443 2253.324494 3975.338419 2251.721911 3978.190634 2248.869696 
C 3981.042849 2246.017481 3982.645432 2242.148505 3982.645432 2238.114864 
C 3982.645432 2234.081223 3981.042849 2230.212247 3978.190634 2227.360032 
C 3975.338419 2224.507817 3971.469443 2222.905234 3967.435802 2222.905234 
C 3963.402161 2222.905234 3959.533185 2224.507817 3956.68097 2227.360032 
C 3953.828755 2230.212247 3952.226172 2234.081223 3952.226172 2238.114864 
C 3952.226172 2242.148505 3953.828755 2246.017481 3956.68097 2248.869696 
C 3959.533185 2251.721911 3963.402161 2253.324494 3967.435802 2253.324494 
z
" clip-path="url(#p632b4ee609)" style="stroke: #000000; stroke-linejoin: miter"/>
   </g>
   <g id="patch_65">
    <path d="M 4048.553827 2253.324494 
C 4052.587468 2253.324494 4056.456444 2251.721911 4059.308659 2248.869696 
C 4062.160874 2246.017481 4063.763456 2242.148505 4063.763456 2238.114864 
C 4063.763456 2234.081223 4062.160874 2230.212247 4059.308659 2227.360032 
C 4056.456444 2224.507817 4052.587468 2222.905234 4048.553827 2222.905234 
C 4044.520186 2222.905234 4040.651209 2224.507817 4037.798994 2227.360032 
C 4034.94678 2230.212247 4033.344197 2234.081223 4033.344197 2238.114864 
C 4033.344197 2242.148505 4034.94678 2246.017481 4037.798994 2248.869696 
C 4040.651209 2251.721911 4044.520186 2253.324494 4048.553827 2253.324494 
z
" clip-path="url(#p632b4ee609)" style="stroke: #000000; stroke-linejoin: miter"/>
   </g>
   <g id="patch_66">
    <path d="M 4129.671851 2963.10721 
C 4133.705492 2963.10721 4137.574469 2961.504628 4140.426684 2958.652413 
C 4143.278899 2955.800198 4144.881481 2951.931221 4144.881481 2947.89758 
C 4144.881481 2943.863939 4143.278899 2939.994963 4140.426684 2937.142748 
C 4137.574469 2934.290533 4133.705492 2932.687951 4129.671851 2932.687951 
C 4125.638211 2932.687951 4121.769234 2934.290533 4118.917019 2937.142748 
C 4116.064804 2939.994963 4114.462222 2943.863939 4114.462222 2947.89758 
C 4114.462222 2951.931221 4116.064804 2955.800198 4118.917019 2958.652413 
C 4121.769234 2961.504628 4125.638211 2963.10721 4129.671851 2963.10721 
z
" clip-path="url(#p632b4ee609)" style="stroke: #000000; stroke-linejoin: miter"/>
   </g>
   <g id="patch_67">
    <path d="M 4210.789876 2963.10721 
C 4214.823517 2963.10721 4218.692494 2961.504628 4221.544708 2958.652413 
C 4224.396923 2955.800198 4225.999506 2951.931221 4225.999506 2947.89758 
C 4225.999506 2943.863939 4224.396923 2939.994963 4221.544708 2937.142748 
C 4218.692494 2934.290533 4214.823517 2932.687951 4210.789876 2932.687951 
C 4206.756235 2932.687951 4202.887259 2934.290533 4200.035044 2937.142748 
C 4197.182829 2939.994963 4195.580247 2943.863939 4195.580247 2947.89758 
C 4195.580247 2951.931221 4197.182829 2955.800198 4200.035044 2958.652413 
C 4202.887259 2961.504628 4206.756235 2963.10721 4210.789876 2963.10721 
z
" clip-path="url(#p632b4ee609)" style="stroke: #000000; stroke-linejoin: miter"/>
   </g>
   <g id="patch_68">
    <path d="M 4291.907901 2253.324494 
C 4295.941542 2253.324494 4299.810518 2251.721911 4302.662733 2248.869696 
C 4305.514948 2246.017481 4307.117531 2242.148505 4307.117531 2238.114864 
C 4307.117531 2234.081223 4305.514948 2230.212247 4302.662733 2227.360032 
C 4299.810518 2224.507817 4295.941542 2222.905234 4291.907901 2222.905234 
C 4287.87426 2222.905234 4284.005284 2224.507817 4281.153069 2227.360032 
C 4278.300854 2230.212247 4276.698271 2234.081223 4276.698271 2238.114864 
C 4276.698271 2242.148505 4278.300854 2246.017481 4281.153069 2248.869696 
C 4284.005284 2251.721911 4287.87426 2253.324494 4291.907901 2253.324494 
z
" clip-path="url(#p632b4ee609)" style="stroke: #000000; stroke-linejoin: miter"/>
   </g>
   <g id="patch_69">
    <path d="M 4373.025926 2253.324494 
C 4377.059567 2253.324494 4380.928543 2251.721911 4383.780758 2248.869696 
C 4386.632973 2246.017481 4388.235555 2242.148505 4388.235555 2238.114864 
C 4388.235555 2234.081223 4386.632973 2230.212247 4383.780758 2227.360032 
C 4380.928543 2224.507817 4377.059567 2222.905234 4373.025926 2222.905234 
C 4368.992285 2222.905234 4365.123308 2224.507817 4362.271093 2227.360032 
C 4359.418879 2230.212247 4357.816296 2234.081223 4357.816296 2238.114864 
C 4357.816296 2242.148505 4359.418879 2246.017481 4362.271093 2248.869696 
C 4365.123308 2251.721911 4368.992285 2253.324494 4373.025926 2253.324494 
z
" clip-path="url(#p632b4ee609)" style="stroke: #000000; stroke-linejoin: miter"/>
   </g>
   <g id="patch_70">
    <path d="M 4454.14395 2253.324494 
C 4458.177591 2253.324494 4462.046568 2251.721911 4464.898783 2248.869696 
C 4467.750997 2246.017481 4469.35358 2242.148505 4469.35358 2238.114864 
C 4469.35358 2234.081223 4467.750997 2230.212247 4464.898783 2227.360032 
C 4462.046568 2224.507817 4458.177591 2222.905234 4454.14395 2222.905234 
C 4450.110309 2222.905234 4446.241333 2224.507817 4443.389118 2227.360032 
C 4440.536903 2230.212247 4438.934321 2234.081223 4438.934321 2238.114864 
C 4438.934321 2242.148505 4440.536903 2246.017481 4443.389118 2248.869696 
C 4446.241333 2251.721911 4450.110309 2253.324494 4454.14395 2253.324494 
z
" clip-path="url(#p632b4ee609)" style="stroke: #000000; stroke-linejoin: miter"/>
   </g>
   <g id="patch_71">
    <path d="M 4535.261975 2963.10721 
C 4539.295616 2963.10721 4543.164593 2961.504628 4546.016807 2958.652413 
C 4548.869022 2955.800198 4550.471605 2951.931221 4550.471605 2947.89758 
C 4550.471605 2943.863939 4548.869022 2939.994963 4546.016807 2937.142748 
C 4543.164593 2934.290533 4539.295616 2932.687951 4535.261975 2932.687951 
C 4531.228334 2932.687951 4527.359358 2934.290533 4524.507143 2937.142748 
C 4521.654928 2939.994963 4520.052345 2943.863939 4520.052345 2947.89758 
C 4520.052345 2951.931221 4521.654928 2955.800198 4524.507143 2958.652413 
C 4527.359358 2961.504628 4531.228334 2963.10721 4535.261975 2963.10721 
z
" clip-path="url(#p632b4ee609)" style="stroke: #000000; stroke-linejoin: miter"/>
   </g>
   <g id="patch_72">
    <path d="M 4616.38 2963.10721 
C 4620.413641 2963.10721 4624.282617 2961.504628 4627.134832 2958.652413 
C 4629.987047 2955.800198 4631.589629 2951.931221 4631.589629 2947.89758 
C 4631.589629 2943.863939 4629.987047 2939.994963 4627.134832 2937.142748 
C 4624.282617 2934.290533 4620.413641 2932.687951 4616.38 2932.687951 
C 4612.346359 2932.687951 4608.477382 2934.290533 4605.625168 2937.142748 
C 4602.772953 2939.994963 4601.17037 2943.863939 4601.17037 2947.89758 
C 4601.17037 2951.931221 4602.772953 2955.800198 4605.625168 2958.652413 
C 4608.477382 2961.504628 4612.346359 2963.10721 4616.38 2963.10721 
z
" clip-path="url(#p632b4ee609)" style="stroke: #000000; stroke-linejoin: miter"/>
   </g>
   <g id="patch_73">
    <path d="M 4697.498025 2963.10721 
C 4701.531665 2963.10721 4705.400642 2961.504628 4708.252857 2958.652413 
C 4711.105072 2955.800198 4712.707654 2951.931221 4712.707654 2947.89758 
C 4712.707654 2943.863939 4711.105072 2939.994963 4708.252857 2937.142748 
C 4705.400642 2934.290533 4701.531665 2932.687951 4697.498025 2932.687951 
C 4693.464384 2932.687951 4689.595407 2934.290533 4686.743192 2937.142748 
C 4683.890977 2939.994963 4682.288395 2943.863939 4682.288395 2947.89758 
C 4682.288395 2951.931221 4683.890977 2955.800198 4686.743192 2958.652413 
C 4689.595407 2961.504628 4693.464384 2963.10721 4697.498025 2963.10721 
z
" clip-path="url(#p632b4ee609)" style="stroke: #000000; stroke-linejoin: miter"/>
   </g>
   <g id="patch_74">
    <path d="M 4778.616049 2963.10721 
C 4782.64969 2963.10721 4786.518667 2961.504628 4789.370882 2958.652413 
C 4792.223096 2955.800198 4793.825679 2951.931221 4793.825679 2947.89758 
C 4793.825679 2943.863939 4792.223096 2939.994963 4789.370882 2937.142748 
C 4786.518667 2934.290533 4782.64969 2932.687951 4778.616049 2932.687951 
C 4774.582408 2932.687951 4770.713432 2934.290533 4767.861217 2937.142748 
C 4765.009002 2939.994963 4763.40642 2943.863939 4763.40642 2947.89758 
C 4763.40642 2951.931221 4765.009002 2955.800198 4767.861217 2958.652413 
C 4770.713432 2961.504628 4774.582408 2963.10721 4778.616049 2963.10721 
z
" clip-path="url(#p632b4ee609)" style="stroke: #000000; stroke-linejoin: miter"/>
   </g>
   <g id="text_18">
    <g id="patch_75">
     <path d="M -12.894427 2297.149239 
L 292.252448 2297.149239 
L 292.252448 2179.080489 
L -12.894427 2179.080489 
z
" style="fill: #ffffff; stroke: #000000; stroke-linejoin: miter"/>
    </g>
    <!-- Tongue -->
    <g style="fill: #262626" transform="translate(17.105573 2253.817989) scale(0.6 -0.6)">
     <defs>
      <path id="DejaVuSerif-Bold-54" d="M 1159 0 
L 1159 378 
L 1778 378 
L 1778 4238 
L 500 4238 
L 500 3500 
L 72 3500 
L 72 4666 
L 4697 4666 
L 4697 3500 
L 4275 3500 
L 4275 4238 
L 2988 4238 
L 2988 378 
L 3609 378 
L 3609 0 
L 1159 0 
z
" transform="scale(0.015625)"/>
      <path id="DejaVuSerif-Bold-6f" d="M 2138 263 
Q 2488 263 2630 563 
Q 2772 863 2772 1663 
Q 2772 2463 2631 2761 
Q 2491 3059 2138 3059 
Q 1784 3059 1640 2757 
Q 1497 2456 1497 1663 
Q 1497 869 1640 566 
Q 1784 263 2138 263 
z
M 2138 -91 
Q 1259 -91 761 376 
Q 263 844 263 1663 
Q 263 2484 761 2948 
Q 1259 3413 2138 3413 
Q 3019 3413 3516 2948 
Q 4013 2484 4013 1663 
Q 4013 844 3514 376 
Q 3016 -91 2138 -91 
z
" transform="scale(0.015625)"/>
      <path id="DejaVuSerif-Bold-6e" d="M 219 0 
L 219 378 
L 691 378 
L 691 2944 
L 219 2944 
L 219 3322 
L 1797 3322 
L 1797 2853 
Q 1997 3150 2253 3281 
Q 2509 3413 2900 3413 
Q 3459 3413 3745 3083 
Q 4031 2753 4031 2113 
L 4031 378 
L 4506 378 
L 4506 0 
L 2522 0 
L 2522 378 
L 2925 378 
L 2925 2144 
Q 2925 2566 2817 2730 
Q 2709 2894 2444 2894 
Q 2109 2894 1953 2648 
Q 1797 2403 1797 1869 
L 1797 378 
L 2203 378 
L 2203 0 
L 219 0 
z
" transform="scale(0.015625)"/>
      <path id="DejaVuSerif-Bold-67" d="M 3853 2944 
L 3853 44 
Q 3853 -656 3354 -1039 
Q 2856 -1422 1947 -1422 
Q 1616 -1422 1275 -1370 
Q 934 -1319 575 -1216 
L 575 -422 
L 928 -422 
Q 975 -750 1192 -909 
Q 1409 -1069 1813 -1069 
Q 2325 -1069 2536 -823 
Q 2747 -578 2747 44 
L 2747 422 
Q 2606 163 2367 36 
Q 2128 -91 1778 -91 
Q 1072 -91 667 378 
Q 263 847 263 1663 
Q 263 2481 667 2947 
Q 1072 3413 1778 3413 
Q 2128 3413 2367 3286 
Q 2606 3159 2747 2900 
L 2747 3322 
L 4325 3322 
L 4325 2944 
L 3853 2944 
z
M 2747 1825 
Q 2747 2406 2597 2665 
Q 2447 2925 2119 2925 
Q 1775 2925 1636 2651 
Q 1497 2378 1497 1663 
Q 1497 947 1637 672 
Q 1778 397 2119 397 
Q 2447 397 2597 656 
Q 2747 916 2747 1497 
L 2747 1825 
z
" transform="scale(0.015625)"/>
      <path id="DejaVuSerif-Bold-75" d="M 3963 3322 
L 3963 378 
L 4434 378 
L 4434 0 
L 2853 0 
L 2853 469 
Q 2656 172 2400 40 
Q 2144 -91 1753 -91 
Q 1194 -91 908 239 
Q 622 569 622 1209 
L 622 2944 
L 147 2944 
L 147 3322 
L 1728 3322 
L 1728 1381 
Q 1728 763 1831 595 
Q 1934 428 2209 428 
Q 2544 428 2698 675 
Q 2853 922 2853 1459 
L 2853 2944 
L 2450 2944 
L 2450 3322 
L 3963 3322 
z
" transform="scale(0.015625)"/>
      <path id="DejaVuSerif-Bold-65" d="M 2566 1875 
Q 2566 2531 2444 2795 
Q 2322 3059 2028 3059 
Q 1744 3059 1620 2800 
Q 1497 2541 1497 1931 
L 1497 1875 
L 2566 1875 
z
M 3781 1503 
L 1497 1503 
L 1497 1478 
Q 1497 834 1690 548 
Q 1884 263 2316 263 
Q 2675 263 2897 453 
Q 3119 644 3181 1006 
L 3700 1006 
Q 3566 441 3166 175 
Q 2766 -91 2047 -91 
Q 1184 -91 723 364 
Q 263 819 263 1663 
Q 263 2488 734 2950 
Q 1206 3413 2047 3413 
Q 2872 3413 3312 2927 
Q 3753 2441 3781 1503 
z
" transform="scale(0.015625)"/>
     </defs>
     <use xlink:href="#DejaVuSerif-Bold-54"/>
     <use xlink:href="#DejaVuSerif-Bold-6f" x="62.914062"/>
     <use xlink:href="#DejaVuSerif-Bold-6e" x="129.613281"/>
     <use xlink:href="#DejaVuSerif-Bold-67" x="202.318359"/>
     <use xlink:href="#DejaVuSerif-Bold-75" x="272.240234"/>
     <use xlink:href="#DejaVuSerif-Bold-65" x="344.945312"/>
    </g>
   </g>
   <g id="text_19">
    <g id="patch_76">
     <path d="M 34.913385 3006.931955 
L 244.444635 3006.931955 
L 244.444635 2888.863205 
L 34.913385 2888.863205 
z
" style="fill: #ffffff; stroke: #000000; stroke-linejoin: miter"/>
    </g>
    <!-- Rest -->
    <g style="fill: #262626" transform="translate(64.913385 2964.45383) scale(0.6 -0.6)">
     <defs>
      <path id="DejaVuSerif-Bold-52" d="M 3397 2278 
Q 3675 2238 3865 2094 
Q 4056 1950 4197 1678 
L 4878 378 
L 5356 378 
L 5356 0 
L 3822 0 
L 3078 1409 
Q 2863 1847 2711 1967 
Q 2559 2088 2291 2088 
L 2100 2088 
L 2100 378 
L 2700 378 
L 2700 0 
L 300 0 
L 300 378 
L 897 378 
L 897 4288 
L 300 4288 
L 300 4666 
L 2963 4666 
Q 3775 4666 4217 4339 
Q 4659 4013 4659 3413 
Q 4659 2925 4345 2642 
Q 4031 2359 3397 2278 
z
M 2100 2463 
L 2509 2463 
Q 2947 2463 3183 2700 
Q 3419 2938 3419 3378 
Q 3419 3819 3183 4053 
Q 2947 4288 2509 4288 
L 2100 4288 
L 2100 2463 
z
" transform="scale(0.015625)"/>
      <path id="DejaVuSerif-Bold-73" d="M 300 97 
L 300 1025 
L 653 1025 
Q 697 653 931 458 
Q 1166 263 1569 263 
Q 1906 263 2086 380 
Q 2266 497 2266 716 
Q 2266 916 2152 1025 
Q 2038 1134 1709 1216 
L 1253 1331 
Q 738 1459 506 1698 
Q 275 1938 275 2344 
Q 275 2884 650 3148 
Q 1025 3413 1806 3413 
Q 2100 3413 2433 3364 
Q 2766 3316 3169 3213 
L 3169 2375 
L 2816 2375 
Q 2788 2716 2573 2887 
Q 2359 3059 1959 3059 
Q 1622 3059 1448 2951 
Q 1275 2844 1275 2638 
Q 1275 2469 1375 2372 
Q 1475 2275 1734 2209 
L 2188 2094 
Q 2841 1928 3091 1684 
Q 3341 1441 3341 1006 
Q 3341 444 2939 176 
Q 2538 -91 1691 -91 
Q 1381 -91 1034 -44 
Q 688 3 300 97 
z
" transform="scale(0.015625)"/>
      <path id="DejaVuSerif-Bold-74" d="M 634 2944 
L 153 2944 
L 153 3322 
L 634 3322 
L 634 4353 
L 1741 4353 
L 1741 3322 
L 2663 3322 
L 2663 2944 
L 1741 2944 
L 1741 909 
Q 1741 475 1809 369 
Q 1878 263 2059 263 
Q 2259 263 2356 397 
Q 2453 531 2459 813 
L 2925 813 
Q 2897 313 2651 111 
Q 2406 -91 1806 -91 
Q 1122 -91 878 123 
Q 634 338 634 909 
L 634 2944 
z
" transform="scale(0.015625)"/>
     </defs>
     <use xlink:href="#DejaVuSerif-Bold-52"/>
     <use xlink:href="#DejaVuSerif-Bold-65" x="83.105469"/>
     <use xlink:href="#DejaVuSerif-Bold-73" x="146.728516"/>
     <use xlink:href="#DejaVuSerif-Bold-74" x="203.027344"/>
    </g>
   </g>
   <g id="legend_1">
    <g id="patch_77">
     <path d="M 4707.60875 1795.947034 
L 4999.04 1795.947034 
Q 5007.04 1795.947034 5007.04 1787.947034 
L 5007.04 1673.953284 
Q 5007.04 1665.953284 4999.04 1665.953284 
L 4707.60875 1665.953284 
Q 4699.60875 1665.953284 4699.60875 1673.953284 
L 4699.60875 1787.947034 
Q 4699.60875 1795.947034 4707.60875 1795.947034 
z
" style="fill: #ffffff; opacity: 0.8; stroke: #cccccc; stroke-linejoin: miter"/>
    </g>
    <g id="patch_78">
     <path d="M 4715.60875 1712.347034 
L 4795.60875 1712.347034 
L 4795.60875 1684.347034 
L 4715.60875 1684.347034 
z
" style="fill: #1ea4a4; stroke: #1ea4a4; stroke-linejoin: miter"/>
    </g>
    <g id="text_20">
     <!-- Tongue -->
     <g style="fill: #262626" transform="translate(4827.60875 1712.347034) scale(0.4 -0.4)">
      <use xlink:href="#DejaVuSerif-Bold-54"/>
      <use xlink:href="#DejaVuSerif-Bold-6f" x="62.914062"/>
      <use xlink:href="#DejaVuSerif-Bold-6e" x="129.613281"/>
      <use xlink:href="#DejaVuSerif-Bold-67" x="202.318359"/>
      <use xlink:href="#DejaVuSerif-Bold-75" x="272.240234"/>
      <use xlink:href="#DejaVuSerif-Bold-65" x="344.945312"/>
     </g>
    </g>
    <g id="patch_79">
     <path d="M 4715.60875 1771.628284 
L 4795.60875 1771.628284 
L 4795.60875 1743.628284 
L 4715.60875 1743.628284 
z
" style="fill: #c8c8c8; stroke: #c8c8c8; stroke-linejoin: miter"/>
    </g>
    <g id="text_21">
     <!-- Rest -->
     <g style="fill: #262626" transform="translate(4827.60875 1771.628284) scale(0.4 -0.4)">
      <use xlink:href="#DejaVuSerif-Bold-52"/>
      <use xlink:href="#DejaVuSerif-Bold-65" x="83.105469"/>
      <use xlink:href="#DejaVuSerif-Bold-73" x="146.728516"/>
      <use xlink:href="#DejaVuSerif-Bold-74" x="203.027344"/>
     </g>
    </g>
   </g>
  </g>
 </g>
 <defs>
  <clipPath id="p632b4ee609">
   <rect x="119.399504" y="1645.953284" width="4907.640496" height="1748.093433"/>
  </clipPath>
 </defs>
</svg>
