<?xml version="1.0" encoding="utf-8" standalone="no"?>
<!DOCTYPE svg PUBLIC "-//W3C//DTD SVG 1.1//EN"
  "http://www.w3.org/Graphics/SVG/1.1/DTD/svg11.dtd">
<svg xmlns:xlink="http://www.w3.org/1999/xlink" width="730.133125pt" height="385.703125pt" viewBox="0 0 730.133125 385.703125" xmlns="http://www.w3.org/2000/svg" version="1.1">
 <metadata>
  <rdf:RDF xmlns:dc="http://purl.org/dc/elements/1.1/" xmlns:cc="http://creativecommons.org/ns#" xmlns:rdf="http://www.w3.org/1999/02/22-rdf-syntax-ns#">
   <cc:Work>
    <dc:type rdf:resource="http://purl.org/dc/dcmitype/StillImage"/>
    <dc:date>2024-08-25T19:55:16.382776</dc:date>
    <dc:format>image/svg+xml</dc:format>
    <dc:creator>
     <cc:Agent>
      <dc:title>Matplotlib v3.7.0, https://matplotlib.org/</dc:title>
     </cc:Agent>
    </dc:creator>
   </cc:Work>
  </rdf:RDF>
 </metadata>
 <defs>
  <style type="text/css">*{stroke-linejoin: round; stroke-linecap: butt}</style>
 </defs>
 <g id="figure_1">
  <g id="patch_1">
   <path d="M 0 385.703125 
L 730.133125 385.703125 
L 730.133125 0 
L 0 0 
z
" style="fill: #ffffff"/>
  </g>
  <g id="axes_1">
   <g id="patch_2">
    <path d="M 53.333125 339.84 
L 722.933125 339.84 
L 722.933125 7.2 
L 53.333125 7.2 
z
" style="fill: #ffffff"/>
   </g>
   <g id="matplotlib.axis_1">
    <g id="xtick_1">
     <g id="line2d_1">
      <path d="M 75.653125 339.84 
L 75.653125 7.2 
" clip-path="url(#p2fdad1d710)" style="fill: none; stroke-dasharray: 1.85,0.8; stroke-dashoffset: 0; stroke: #cccccc; stroke-width: 0.5"/>
     </g>
     <g id="text_1">
      <!-- P3 -->
      <g style="fill: #262626" transform="translate(67.79875 358.458125) scale(0.12 -0.12)">
       <defs>
        <path id="DejaVuSerif-50" d="M 1581 2375 
L 2406 2375 
Q 2872 2375 3115 2626 
Q 3359 2878 3359 3353 
Q 3359 3831 3115 4081 
Q 2872 4331 2406 4331 
L 1581 4331 
L 1581 2375 
z
M 353 0 
L 353 331 
L 947 331 
L 947 4331 
L 353 4331 
L 353 4666 
L 2559 4666 
Q 3259 4666 3668 4311 
Q 4078 3956 4078 3353 
Q 4078 2753 3668 2397 
Q 3259 2041 2559 2041 
L 1581 2041 
L 1581 331 
L 2303 331 
L 2303 0 
L 353 0 
z
" transform="scale(0.015625)"/>
        <path id="DejaVuSerif-33" d="M 622 4469 
Q 988 4606 1323 4678 
Q 1659 4750 1953 4750 
Q 2638 4750 3022 4454 
Q 3406 4159 3406 3634 
Q 3406 3213 3140 2930 
Q 2875 2647 2388 2547 
Q 2963 2466 3280 2130 
Q 3597 1794 3597 1259 
Q 3597 606 3158 257 
Q 2719 -91 1894 -91 
Q 1528 -91 1179 -12 
Q 831 66 488 225 
L 488 1131 
L 838 1131 
Q 869 681 1141 450 
Q 1413 219 1906 219 
Q 2384 219 2661 495 
Q 2938 772 2938 1253 
Q 2938 1803 2653 2086 
Q 2369 2369 1819 2369 
L 1522 2369 
L 1522 2688 
L 1678 2688 
Q 2225 2688 2498 2914 
Q 2772 3141 2772 3597 
Q 2772 4006 2547 4223 
Q 2322 4441 1900 4441 
Q 1478 4441 1245 4241 
Q 1013 4041 972 3647 
L 622 3647 
L 622 4469 
z
" transform="scale(0.015625)"/>
       </defs>
       <use xlink:href="#DejaVuSerif-50"/>
       <use xlink:href="#DejaVuSerif-33" x="67.285156"/>
      </g>
     </g>
    </g>
    <g id="xtick_2">
     <g id="line2d_2">
      <path d="M 120.293125 339.84 
L 120.293125 7.2 
" clip-path="url(#p2fdad1d710)" style="fill: none; stroke-dasharray: 1.85,0.8; stroke-dashoffset: 0; stroke: #cccccc; stroke-width: 0.5"/>
     </g>
     <g id="text_2">
      <!-- P4 -->
      <g style="fill: #262626" transform="translate(112.43875 358.458125) scale(0.12 -0.12)">
       <defs>
        <path id="DejaVuSerif-34" d="M 2234 1581 
L 2234 4063 
L 641 1581 
L 2234 1581 
z
M 3609 0 
L 1484 0 
L 1484 331 
L 2234 331 
L 2234 1247 
L 197 1247 
L 197 1588 
L 2241 4750 
L 2859 4750 
L 2859 1581 
L 3750 1581 
L 3750 1247 
L 2859 1247 
L 2859 331 
L 3609 331 
L 3609 0 
z
" transform="scale(0.015625)"/>
       </defs>
       <use xlink:href="#DejaVuSerif-50"/>
       <use xlink:href="#DejaVuSerif-34" x="67.285156"/>
      </g>
     </g>
    </g>
    <g id="xtick_3">
     <g id="line2d_3">
      <path d="M 164.933125 339.84 
L 164.933125 7.2 
" clip-path="url(#p2fdad1d710)" style="fill: none; stroke-dasharray: 1.85,0.8; stroke-dashoffset: 0; stroke: #cccccc; stroke-width: 0.5"/>
     </g>
     <g id="text_3">
      <!-- P5 -->
      <g style="fill: #262626" transform="translate(157.07875 358.458125) scale(0.12 -0.12)">
       <defs>
        <path id="DejaVuSerif-35" d="M 3219 4666 
L 3219 4153 
L 1081 4153 
L 1081 2816 
Q 1244 2928 1461 2984 
Q 1678 3041 1947 3041 
Q 2703 3041 3140 2622 
Q 3578 2203 3578 1478 
Q 3578 738 3136 323 
Q 2694 -91 1894 -91 
Q 1572 -91 1234 -12 
Q 897 66 544 225 
L 544 1131 
L 897 1131 
Q 925 688 1179 453 
Q 1434 219 1894 219 
Q 2388 219 2653 544 
Q 2919 869 2919 1478 
Q 2919 2084 2655 2407 
Q 2391 2731 1894 2731 
Q 1613 2731 1398 2631 
Q 1184 2531 1019 2322 
L 750 2322 
L 750 4666 
L 3219 4666 
z
" transform="scale(0.015625)"/>
       </defs>
       <use xlink:href="#DejaVuSerif-50"/>
       <use xlink:href="#DejaVuSerif-35" x="67.285156"/>
      </g>
     </g>
    </g>
    <g id="xtick_4">
     <g id="line2d_4">
      <path d="M 209.573125 339.84 
L 209.573125 7.2 
" clip-path="url(#p2fdad1d710)" style="fill: none; stroke-dasharray: 1.85,0.8; stroke-dashoffset: 0; stroke: #cccccc; stroke-width: 0.5"/>
     </g>
     <g id="text_4">
      <!-- P6 -->
      <g style="fill: #262626" transform="translate(201.71875 358.458125) scale(0.12 -0.12)">
       <defs>
        <path id="DejaVuSerif-36" d="M 2094 219 
Q 2534 219 2771 542 
Q 3009 866 3009 1472 
Q 3009 2078 2771 2401 
Q 2534 2725 2094 2725 
Q 1647 2725 1412 2412 
Q 1178 2100 1178 1509 
Q 1178 888 1415 553 
Q 1653 219 2094 219 
z
M 1075 2569 
Q 1288 2803 1556 2918 
Q 1825 3034 2163 3034 
Q 2859 3034 3264 2615 
Q 3669 2197 3669 1472 
Q 3669 763 3233 336 
Q 2797 -91 2069 -91 
Q 1278 -91 853 498 
Q 428 1088 428 2181 
Q 428 3406 931 4078 
Q 1434 4750 2350 4750 
Q 2597 4750 2869 4703 
Q 3141 4656 3425 4563 
L 3425 3794 
L 3072 3794 
Q 3034 4109 2831 4275 
Q 2628 4441 2284 4441 
Q 1678 4441 1381 3981 
Q 1084 3522 1075 2569 
z
" transform="scale(0.015625)"/>
       </defs>
       <use xlink:href="#DejaVuSerif-50"/>
       <use xlink:href="#DejaVuSerif-36" x="67.285156"/>
      </g>
     </g>
    </g>
    <g id="xtick_5">
     <g id="line2d_5">
      <path d="M 254.213125 339.84 
L 254.213125 7.2 
" clip-path="url(#p2fdad1d710)" style="fill: none; stroke-dasharray: 1.85,0.8; stroke-dashoffset: 0; stroke: #cccccc; stroke-width: 0.5"/>
     </g>
     <g id="text_5">
      <!-- P7 -->
      <g style="fill: #262626" transform="translate(246.35875 358.458125) scale(0.12 -0.12)">
       <defs>
        <path id="DejaVuSerif-37" d="M 3609 4347 
L 1784 0 
L 1319 0 
L 3059 4153 
L 903 4153 
L 903 3578 
L 538 3578 
L 538 4666 
L 3609 4666 
L 3609 4347 
z
" transform="scale(0.015625)"/>
       </defs>
       <use xlink:href="#DejaVuSerif-50"/>
       <use xlink:href="#DejaVuSerif-37" x="67.285156"/>
      </g>
     </g>
    </g>
    <g id="xtick_6">
     <g id="line2d_6">
      <path d="M 298.853125 339.84 
L 298.853125 7.2 
" clip-path="url(#p2fdad1d710)" style="fill: none; stroke-dasharray: 1.85,0.8; stroke-dashoffset: 0; stroke: #cccccc; stroke-width: 0.5"/>
     </g>
     <g id="text_6">
      <!-- P9 -->
      <g style="fill: #262626" transform="translate(290.99875 358.458125) scale(0.12 -0.12)">
       <defs>
        <path id="DejaVuSerif-39" d="M 2994 2091 
Q 2784 1856 2512 1740 
Q 2241 1625 1900 1625 
Q 1206 1625 804 2044 
Q 403 2463 403 3188 
Q 403 3897 839 4323 
Q 1275 4750 2003 4750 
Q 2794 4750 3217 4161 
Q 3641 3572 3641 2478 
Q 3641 1253 3137 581 
Q 2634 -91 1722 -91 
Q 1475 -91 1203 -44 
Q 931 3 647 97 
L 647 872 
L 997 872 
Q 1038 556 1241 387 
Q 1444 219 1784 219 
Q 2391 219 2687 676 
Q 2984 1134 2994 2091 
z
M 1978 4441 
Q 1534 4441 1298 4117 
Q 1063 3794 1063 3188 
Q 1063 2581 1298 2256 
Q 1534 1931 1978 1931 
Q 2422 1931 2658 2245 
Q 2894 2559 2894 3150 
Q 2894 3772 2656 4106 
Q 2419 4441 1978 4441 
z
" transform="scale(0.015625)"/>
       </defs>
       <use xlink:href="#DejaVuSerif-50"/>
       <use xlink:href="#DejaVuSerif-39" x="67.285156"/>
      </g>
     </g>
    </g>
    <g id="xtick_7">
     <g id="line2d_7">
      <path d="M 343.493125 339.84 
L 343.493125 7.2 
" clip-path="url(#p2fdad1d710)" style="fill: none; stroke-dasharray: 1.85,0.8; stroke-dashoffset: 0; stroke: #cccccc; stroke-width: 0.5"/>
     </g>
     <g id="text_7">
      <!-- P10 -->
      <g style="fill: #262626" transform="translate(331.82125 358.458125) scale(0.12 -0.12)">
       <defs>
        <path id="DejaVuSerif-31" d="M 909 0 
L 909 331 
L 1722 331 
L 1722 4213 
L 781 3603 
L 781 4013 
L 1919 4750 
L 2350 4750 
L 2350 331 
L 3163 331 
L 3163 0 
L 909 0 
z
" transform="scale(0.015625)"/>
        <path id="DejaVuSerif-30" d="M 2034 219 
Q 2513 219 2750 744 
Q 2988 1269 2988 2328 
Q 2988 3391 2750 3916 
Q 2513 4441 2034 4441 
Q 1556 4441 1318 3916 
Q 1081 3391 1081 2328 
Q 1081 1269 1318 744 
Q 1556 219 2034 219 
z
M 2034 -91 
Q 1275 -91 848 546 
Q 422 1184 422 2328 
Q 422 3475 848 4112 
Q 1275 4750 2034 4750 
Q 2797 4750 3222 4112 
Q 3647 3475 3647 2328 
Q 3647 1184 3222 546 
Q 2797 -91 2034 -91 
z
" transform="scale(0.015625)"/>
       </defs>
       <use xlink:href="#DejaVuSerif-50"/>
       <use xlink:href="#DejaVuSerif-31" x="67.285156"/>
       <use xlink:href="#DejaVuSerif-30" x="130.908203"/>
      </g>
     </g>
    </g>
    <g id="xtick_8">
     <g id="line2d_8">
      <path d="M 388.133125 339.84 
L 388.133125 7.2 
" clip-path="url(#p2fdad1d710)" style="fill: none; stroke-dasharray: 1.85,0.8; stroke-dashoffset: 0; stroke: #cccccc; stroke-width: 0.5"/>
     </g>
     <g id="text_8">
      <!-- P11 -->
      <g style="fill: #262626" transform="translate(376.46125 358.458125) scale(0.12 -0.12)">
       <use xlink:href="#DejaVuSerif-50"/>
       <use xlink:href="#DejaVuSerif-31" x="67.285156"/>
       <use xlink:href="#DejaVuSerif-31" x="130.908203"/>
      </g>
     </g>
    </g>
    <g id="xtick_9">
     <g id="line2d_9">
      <path d="M 432.773125 339.84 
L 432.773125 7.2 
" clip-path="url(#p2fdad1d710)" style="fill: none; stroke-dasharray: 1.85,0.8; stroke-dashoffset: 0; stroke: #cccccc; stroke-width: 0.5"/>
     </g>
     <g id="text_9">
      <!-- P13 -->
      <g style="fill: #262626" transform="translate(421.10125 358.458125) scale(0.12 -0.12)">
       <use xlink:href="#DejaVuSerif-50"/>
       <use xlink:href="#DejaVuSerif-31" x="67.285156"/>
       <use xlink:href="#DejaVuSerif-33" x="130.908203"/>
      </g>
     </g>
    </g>
    <g id="xtick_10">
     <g id="line2d_10">
      <path d="M 477.413125 339.84 
L 477.413125 7.2 
" clip-path="url(#p2fdad1d710)" style="fill: none; stroke-dasharray: 1.85,0.8; stroke-dashoffset: 0; stroke: #cccccc; stroke-width: 0.5"/>
     </g>
     <g id="text_10">
      <!-- P14 -->
      <g style="fill: #262626" transform="translate(465.74125 358.458125) scale(0.12 -0.12)">
       <use xlink:href="#DejaVuSerif-50"/>
       <use xlink:href="#DejaVuSerif-31" x="67.285156"/>
       <use xlink:href="#DejaVuSerif-34" x="130.908203"/>
      </g>
     </g>
    </g>
    <g id="xtick_11">
     <g id="line2d_11">
      <path d="M 522.053125 339.84 
L 522.053125 7.2 
" clip-path="url(#p2fdad1d710)" style="fill: none; stroke-dasharray: 1.85,0.8; stroke-dashoffset: 0; stroke: #cccccc; stroke-width: 0.5"/>
     </g>
     <g id="text_11">
      <!-- P15 -->
      <g style="fill: #262626" transform="translate(510.38125 358.458125) scale(0.12 -0.12)">
       <use xlink:href="#DejaVuSerif-50"/>
       <use xlink:href="#DejaVuSerif-31" x="67.285156"/>
       <use xlink:href="#DejaVuSerif-35" x="130.908203"/>
      </g>
     </g>
    </g>
    <g id="xtick_12">
     <g id="line2d_12">
      <path d="M 566.693125 339.84 
L 566.693125 7.2 
" clip-path="url(#p2fdad1d710)" style="fill: none; stroke-dasharray: 1.85,0.8; stroke-dashoffset: 0; stroke: #cccccc; stroke-width: 0.5"/>
     </g>
     <g id="text_12">
      <!-- P16 -->
      <g style="fill: #262626" transform="translate(555.02125 358.458125) scale(0.12 -0.12)">
       <use xlink:href="#DejaVuSerif-50"/>
       <use xlink:href="#DejaVuSerif-31" x="67.285156"/>
       <use xlink:href="#DejaVuSerif-36" x="130.908203"/>
      </g>
     </g>
    </g>
    <g id="xtick_13">
     <g id="line2d_13">
      <path d="M 611.333125 339.84 
L 611.333125 7.2 
" clip-path="url(#p2fdad1d710)" style="fill: none; stroke-dasharray: 1.85,0.8; stroke-dashoffset: 0; stroke: #cccccc; stroke-width: 0.5"/>
     </g>
     <g id="text_13">
      <!-- P17 -->
      <g style="fill: #262626" transform="translate(599.66125 358.458125) scale(0.12 -0.12)">
       <use xlink:href="#DejaVuSerif-50"/>
       <use xlink:href="#DejaVuSerif-31" x="67.285156"/>
       <use xlink:href="#DejaVuSerif-37" x="130.908203"/>
      </g>
     </g>
    </g>
    <g id="xtick_14">
     <g id="line2d_14">
      <path d="M 655.973125 339.84 
L 655.973125 7.2 
" clip-path="url(#p2fdad1d710)" style="fill: none; stroke-dasharray: 1.85,0.8; stroke-dashoffset: 0; stroke: #cccccc; stroke-width: 0.5"/>
     </g>
     <g id="text_14">
      <!-- P18 -->
      <g style="fill: #262626" transform="translate(644.30125 358.458125) scale(0.12 -0.12)">
       <defs>
        <path id="DejaVuSerif-38" d="M 2981 1275 
Q 2981 1775 2732 2051 
Q 2484 2328 2034 2328 
Q 1584 2328 1336 2051 
Q 1088 1775 1088 1275 
Q 1088 772 1336 495 
Q 1584 219 2034 219 
Q 2484 219 2732 495 
Q 2981 772 2981 1275 
z
M 2853 3541 
Q 2853 3966 2637 4203 
Q 2422 4441 2034 4441 
Q 1650 4441 1433 4203 
Q 1216 3966 1216 3541 
Q 1216 3113 1433 2875 
Q 1650 2638 2034 2638 
Q 2422 2638 2637 2875 
Q 2853 3113 2853 3541 
z
M 2516 2484 
Q 3047 2413 3344 2092 
Q 3641 1772 3641 1275 
Q 3641 619 3225 264 
Q 2809 -91 2034 -91 
Q 1263 -91 845 264 
Q 428 619 428 1275 
Q 428 1772 725 2092 
Q 1022 2413 1556 2484 
Q 1084 2569 832 2842 
Q 581 3116 581 3541 
Q 581 4103 968 4426 
Q 1356 4750 2034 4750 
Q 2713 4750 3100 4426 
Q 3488 4103 3488 3541 
Q 3488 3116 3236 2842 
Q 2984 2569 2516 2484 
z
" transform="scale(0.015625)"/>
       </defs>
       <use xlink:href="#DejaVuSerif-50"/>
       <use xlink:href="#DejaVuSerif-31" x="67.285156"/>
       <use xlink:href="#DejaVuSerif-38" x="130.908203"/>
      </g>
     </g>
    </g>
    <g id="xtick_15">
     <g id="line2d_15">
      <path d="M 700.613125 339.84 
L 700.613125 7.2 
" clip-path="url(#p2fdad1d710)" style="fill: none; stroke-dasharray: 1.85,0.8; stroke-dashoffset: 0; stroke: #cccccc; stroke-width: 0.5"/>
     </g>
     <g id="text_15">
      <!-- P19 -->
      <g style="fill: #262626" transform="translate(688.94125 358.458125) scale(0.12 -0.12)">
       <use xlink:href="#DejaVuSerif-50"/>
       <use xlink:href="#DejaVuSerif-31" x="67.285156"/>
       <use xlink:href="#DejaVuSerif-39" x="130.908203"/>
      </g>
     </g>
    </g>
    <g id="text_16">
     <!-- Participants -->
     <g style="fill: #262626" transform="translate(345.439687 375.591563) scale(0.14 -0.14)">
      <defs>
       <path id="DejaVuSerif-61" d="M 2547 1044 
L 2547 1747 
L 1806 1747 
Q 1378 1747 1168 1562 
Q 959 1378 959 997 
Q 959 650 1171 447 
Q 1384 244 1747 244 
Q 2106 244 2326 466 
Q 2547 688 2547 1044 
z
M 3122 2075 
L 3122 331 
L 3634 331 
L 3634 0 
L 2547 0 
L 2547 359 
Q 2356 128 2106 18 
Q 1856 -91 1522 -91 
Q 969 -91 644 203 
Q 319 497 319 997 
Q 319 1513 691 1797 
Q 1063 2081 1741 2081 
L 2547 2081 
L 2547 2309 
Q 2547 2688 2317 2895 
Q 2088 3103 1672 3103 
Q 1328 3103 1125 2947 
Q 922 2791 872 2484 
L 575 2484 
L 575 3156 
Q 875 3284 1158 3348 
Q 1441 3413 1709 3413 
Q 2400 3413 2761 3070 
Q 3122 2728 3122 2075 
z
" transform="scale(0.015625)"/>
       <path id="DejaVuSerif-72" d="M 3059 3328 
L 3059 2497 
L 2728 2497 
Q 2713 2744 2591 2866 
Q 2469 2988 2234 2988 
Q 1809 2988 1582 2694 
Q 1356 2400 1356 1850 
L 1356 331 
L 2022 331 
L 2022 0 
L 263 0 
L 263 331 
L 781 331 
L 781 2994 
L 231 2994 
L 231 3322 
L 1356 3322 
L 1356 2731 
Q 1525 3078 1790 3245 
Q 2056 3413 2438 3413 
Q 2578 3413 2733 3391 
Q 2888 3369 3059 3328 
z
" transform="scale(0.015625)"/>
       <path id="DejaVuSerif-74" d="M 691 2988 
L 184 2988 
L 184 3322 
L 691 3322 
L 691 4353 
L 1269 4353 
L 1269 3322 
L 2350 3322 
L 2350 2988 
L 1269 2988 
L 1269 878 
Q 1269 456 1350 337 
Q 1431 219 1650 219 
Q 1875 219 1978 351 
Q 2081 484 2088 781 
L 2522 781 
Q 2497 328 2275 118 
Q 2053 -91 1600 -91 
Q 1103 -91 897 129 
Q 691 350 691 878 
L 691 2988 
z
" transform="scale(0.015625)"/>
       <path id="DejaVuSerif-69" d="M 622 4353 
Q 622 4497 726 4603 
Q 831 4709 978 4709 
Q 1122 4709 1226 4603 
Q 1331 4497 1331 4353 
Q 1331 4206 1228 4103 
Q 1125 4000 978 4000 
Q 831 4000 726 4103 
Q 622 4206 622 4353 
z
M 1356 331 
L 1900 331 
L 1900 0 
L 231 0 
L 231 331 
L 781 331 
L 781 2988 
L 231 2988 
L 231 3322 
L 1356 3322 
L 1356 331 
z
" transform="scale(0.015625)"/>
       <path id="DejaVuSerif-63" d="M 3291 997 
Q 3169 466 2822 187 
Q 2475 -91 1925 -91 
Q 1200 -91 759 389 
Q 319 869 319 1663 
Q 319 2459 759 2936 
Q 1200 3413 1925 3413 
Q 2241 3413 2553 3339 
Q 2866 3266 3181 3116 
L 3181 2266 
L 2847 2266 
Q 2781 2703 2561 2903 
Q 2341 3103 1931 3103 
Q 1466 3103 1228 2742 
Q 991 2381 991 1663 
Q 991 944 1227 581 
Q 1463 219 1931 219 
Q 2303 219 2525 412 
Q 2747 606 2828 997 
L 3291 997 
z
" transform="scale(0.015625)"/>
       <path id="DejaVuSerif-70" d="M 1313 1825 
L 1313 1497 
Q 1313 897 1542 583 
Q 1772 269 2209 269 
Q 2650 269 2876 622 
Q 3103 975 3103 1663 
Q 3103 2353 2876 2703 
Q 2650 3053 2209 3053 
Q 1772 3053 1542 2737 
Q 1313 2422 1313 1825 
z
M 738 2988 
L 184 2988 
L 184 3322 
L 1313 3322 
L 1313 2803 
Q 1481 3116 1742 3264 
Q 2003 3413 2388 3413 
Q 3000 3413 3387 2928 
Q 3775 2444 3775 1663 
Q 3775 881 3387 395 
Q 3000 -91 2388 -91 
Q 2003 -91 1742 57 
Q 1481 206 1313 519 
L 1313 -997 
L 1856 -997 
L 1856 -1331 
L 184 -1331 
L 184 -997 
L 738 -997 
L 738 2988 
z
" transform="scale(0.015625)"/>
       <path id="DejaVuSerif-6e" d="M 263 0 
L 263 331 
L 781 331 
L 781 2988 
L 231 2988 
L 231 3322 
L 1356 3322 
L 1356 2731 
Q 1516 3069 1770 3241 
Q 2025 3413 2363 3413 
Q 2913 3413 3172 3097 
Q 3431 2781 3431 2113 
L 3431 331 
L 3944 331 
L 3944 0 
L 2356 0 
L 2356 331 
L 2853 331 
L 2853 1931 
Q 2853 2541 2703 2767 
Q 2553 2994 2175 2994 
Q 1775 2994 1565 2701 
Q 1356 2409 1356 1850 
L 1356 331 
L 1856 331 
L 1856 0 
L 263 0 
z
" transform="scale(0.015625)"/>
       <path id="DejaVuSerif-73" d="M 359 184 
L 359 959 
L 691 959 
Q 703 588 923 403 
Q 1144 219 1575 219 
Q 1963 219 2166 364 
Q 2369 509 2369 788 
Q 2369 1006 2220 1140 
Q 2072 1275 1594 1428 
L 1178 1569 
Q 750 1706 558 1912 
Q 366 2119 366 2438 
Q 366 2894 700 3153 
Q 1034 3413 1625 3413 
Q 1888 3413 2178 3344 
Q 2469 3275 2778 3144 
L 2778 2419 
L 2447 2419 
Q 2434 2741 2221 2922 
Q 2009 3103 1644 3103 
Q 1281 3103 1095 2975 
Q 909 2847 909 2591 
Q 909 2381 1050 2254 
Q 1191 2128 1613 1997 
L 2069 1856 
Q 2541 1709 2748 1489 
Q 2956 1269 2956 922 
Q 2956 450 2595 179 
Q 2234 -91 1600 -91 
Q 1278 -91 972 -22 
Q 666 47 359 184 
z
" transform="scale(0.015625)"/>
      </defs>
      <use xlink:href="#DejaVuSerif-50"/>
      <use xlink:href="#DejaVuSerif-61" x="62.785156"/>
      <use xlink:href="#DejaVuSerif-72" x="122.404297"/>
      <use xlink:href="#DejaVuSerif-74" x="170.207031"/>
      <use xlink:href="#DejaVuSerif-69" x="210.392578"/>
      <use xlink:href="#DejaVuSerif-63" x="242.375"/>
      <use xlink:href="#DejaVuSerif-69" x="298.380859"/>
      <use xlink:href="#DejaVuSerif-70" x="330.363281"/>
      <use xlink:href="#DejaVuSerif-61" x="394.376953"/>
      <use xlink:href="#DejaVuSerif-6e" x="453.996094"/>
      <use xlink:href="#DejaVuSerif-74" x="518.400391"/>
      <use xlink:href="#DejaVuSerif-73" x="558.585938"/>
     </g>
    </g>
   </g>
   <g id="matplotlib.axis_2">
    <g id="ytick_1">
     <g id="line2d_16">
      <path d="M 53.333125 339.84 
L 722.933125 339.84 
" clip-path="url(#p2fdad1d710)" style="fill: none; stroke-dasharray: 1.85,0.8; stroke-dashoffset: 0; stroke: #cccccc; stroke-width: 0.5"/>
     </g>
     <g id="text_17">
      <!-- 0.0 -->
      <g style="fill: #262626" transform="translate(24.749375 344.399063) scale(0.12 -0.12)">
       <defs>
        <path id="DejaVuSerif-2e" d="M 603 325 
Q 603 500 722 622 
Q 841 744 1019 744 
Q 1191 744 1312 622 
Q 1434 500 1434 325 
Q 1434 153 1312 31 
Q 1191 -91 1019 -91 
Q 841 -91 722 29 
Q 603 150 603 325 
z
" transform="scale(0.015625)"/>
       </defs>
       <use xlink:href="#DejaVuSerif-30"/>
       <use xlink:href="#DejaVuSerif-2e" x="63.623047"/>
       <use xlink:href="#DejaVuSerif-30" x="95.410156"/>
      </g>
     </g>
    </g>
    <g id="ytick_2">
     <g id="line2d_17">
      <path d="M 53.333125 272.893585 
L 722.933125 272.893585 
" clip-path="url(#p2fdad1d710)" style="fill: none; stroke-dasharray: 1.85,0.8; stroke-dashoffset: 0; stroke: #cccccc; stroke-width: 0.5"/>
     </g>
     <g id="text_18">
      <!-- 0.2 -->
      <g style="fill: #262626" transform="translate(24.749375 277.452647) scale(0.12 -0.12)">
       <defs>
        <path id="DejaVuSerif-32" d="M 819 3553 
L 469 3553 
L 469 4384 
Q 803 4563 1142 4656 
Q 1481 4750 1806 4750 
Q 2534 4750 2956 4397 
Q 3378 4044 3378 3438 
Q 3378 2753 2422 1800 
Q 2347 1728 2309 1691 
L 1131 513 
L 3078 513 
L 3078 1088 
L 3444 1088 
L 3444 0 
L 434 0 
L 434 341 
L 1850 1753 
Q 2319 2222 2519 2614 
Q 2719 3006 2719 3438 
Q 2719 3909 2473 4175 
Q 2228 4441 1797 4441 
Q 1350 4441 1106 4219 
Q 863 3997 819 3553 
z
" transform="scale(0.015625)"/>
       </defs>
       <use xlink:href="#DejaVuSerif-30"/>
       <use xlink:href="#DejaVuSerif-2e" x="63.623047"/>
       <use xlink:href="#DejaVuSerif-32" x="95.410156"/>
      </g>
     </g>
    </g>
    <g id="ytick_3">
     <g id="line2d_18">
      <path d="M 53.333125 205.94717 
L 722.933125 205.94717 
" clip-path="url(#p2fdad1d710)" style="fill: none; stroke-dasharray: 1.85,0.8; stroke-dashoffset: 0; stroke: #cccccc; stroke-width: 0.5"/>
     </g>
     <g id="text_19">
      <!-- 0.4 -->
      <g style="fill: #262626" transform="translate(24.749375 210.506232) scale(0.12 -0.12)">
       <use xlink:href="#DejaVuSerif-30"/>
       <use xlink:href="#DejaVuSerif-2e" x="63.623047"/>
       <use xlink:href="#DejaVuSerif-34" x="95.410156"/>
      </g>
     </g>
    </g>
    <g id="ytick_4">
     <g id="line2d_19">
      <path d="M 53.333125 139.000755 
L 722.933125 139.000755 
" clip-path="url(#p2fdad1d710)" style="fill: none; stroke-dasharray: 1.85,0.8; stroke-dashoffset: 0; stroke: #cccccc; stroke-width: 0.5"/>
     </g>
     <g id="text_20">
      <!-- 0.6 -->
      <g style="fill: #262626" transform="translate(24.749375 143.559817) scale(0.12 -0.12)">
       <use xlink:href="#DejaVuSerif-30"/>
       <use xlink:href="#DejaVuSerif-2e" x="63.623047"/>
       <use xlink:href="#DejaVuSerif-36" x="95.410156"/>
      </g>
     </g>
    </g>
    <g id="ytick_5">
     <g id="line2d_20">
      <path d="M 53.333125 72.05434 
L 722.933125 72.05434 
" clip-path="url(#p2fdad1d710)" style="fill: none; stroke-dasharray: 1.85,0.8; stroke-dashoffset: 0; stroke: #cccccc; stroke-width: 0.5"/>
     </g>
     <g id="text_21">
      <!-- 0.8 -->
      <g style="fill: #262626" transform="translate(24.749375 76.613402) scale(0.12 -0.12)">
       <use xlink:href="#DejaVuSerif-30"/>
       <use xlink:href="#DejaVuSerif-2e" x="63.623047"/>
       <use xlink:href="#DejaVuSerif-38" x="95.410156"/>
      </g>
     </g>
    </g>
    <g id="text_22">
     <!-- Accuracy -->
     <g style="fill: #262626" transform="translate(17.63875 206.318281) rotate(-90) scale(0.14 -0.14)">
      <defs>
       <path id="DejaVuSerif-41" d="M 1281 1691 
L 2994 1691 
L 2138 3909 
L 1281 1691 
z
M -38 0 
L -38 331 
L 372 331 
L 2034 4666 
L 2559 4666 
L 4225 331 
L 4684 331 
L 4684 0 
L 2988 0 
L 2988 331 
L 3506 331 
L 3116 1356 
L 1153 1356 
L 763 331 
L 1275 331 
L 1275 0 
L -38 0 
z
" transform="scale(0.015625)"/>
       <path id="DejaVuSerif-75" d="M 2266 3322 
L 3341 3322 
L 3341 331 
L 3884 331 
L 3884 0 
L 2766 0 
L 2766 588 
Q 2606 256 2353 82 
Q 2100 -91 1766 -91 
Q 1213 -91 952 223 
Q 691 538 691 1209 
L 691 2988 
L 172 2988 
L 172 3322 
L 1269 3322 
L 1269 1388 
Q 1269 781 1417 556 
Q 1566 331 1947 331 
Q 2347 331 2556 625 
Q 2766 919 2766 1478 
L 2766 2988 
L 2266 2988 
L 2266 3322 
z
" transform="scale(0.015625)"/>
       <path id="DejaVuSerif-79" d="M 1381 -609 
L 1600 -56 
L 359 2988 
L -19 2988 
L -19 3322 
L 1509 3322 
L 1509 2988 
L 978 2988 
L 1913 703 
L 2847 2988 
L 2350 2988 
L 2350 3322 
L 3597 3322 
L 3597 2988 
L 3225 2988 
L 1703 -750 
Q 1547 -1138 1356 -1280 
Q 1166 -1422 819 -1422 
Q 672 -1422 517 -1397 
Q 363 -1372 206 -1325 
L 206 -691 
L 500 -691 
Q 519 -903 608 -995 
Q 697 -1088 884 -1088 
Q 1056 -1088 1161 -992 
Q 1266 -897 1381 -609 
z
" transform="scale(0.015625)"/>
      </defs>
      <use xlink:href="#DejaVuSerif-41"/>
      <use xlink:href="#DejaVuSerif-63" x="72.216797"/>
      <use xlink:href="#DejaVuSerif-63" x="128.222656"/>
      <use xlink:href="#DejaVuSerif-75" x="184.228516"/>
      <use xlink:href="#DejaVuSerif-72" x="248.632812"/>
      <use xlink:href="#DejaVuSerif-61" x="296.435547"/>
      <use xlink:href="#DejaVuSerif-63" x="356.054688"/>
      <use xlink:href="#DejaVuSerif-79" x="412.060547"/>
     </g>
    </g>
   </g>
   <g id="patch_3">
    <path d="M 57.797125 339.84 
L 93.509125 339.84 
L 93.509125 100.74566 
L 57.797125 100.74566 
z
" clip-path="url(#p2fdad1d710)" style="fill: #394959; stroke: #ffffff; stroke-linejoin: miter"/>
   </g>
   <g id="patch_4">
    <path d="M 102.437125 339.84 
L 138.149125 339.84 
L 138.149125 34.994717 
L 102.437125 34.994717 
z
" clip-path="url(#p2fdad1d710)" style="fill: #394959; stroke: #ffffff; stroke-linejoin: miter"/>
   </g>
   <g id="patch_5">
    <path d="M 147.077125 339.84 
L 182.789125 339.84 
L 182.789125 40.972075 
L 147.077125 40.972075 
z
" clip-path="url(#p2fdad1d710)" style="fill: #394959; stroke: #ffffff; stroke-linejoin: miter"/>
   </g>
   <g id="patch_6">
    <path d="M 191.717125 339.84 
L 227.429125 339.84 
L 227.429125 46.949434 
L 191.717125 46.949434 
z
" clip-path="url(#p2fdad1d710)" style="fill: #394959; stroke: #ffffff; stroke-linejoin: miter"/>
   </g>
   <g id="patch_7">
    <path d="M 236.357125 339.84 
L 272.069125 339.84 
L 272.069125 52.926792 
L 236.357125 52.926792 
z
" clip-path="url(#p2fdad1d710)" style="fill: #394959; stroke: #ffffff; stroke-linejoin: miter"/>
   </g>
   <g id="patch_8">
    <path d="M 280.997125 339.84 
L 316.709125 339.84 
L 316.709125 29.017358 
L 280.997125 29.017358 
z
" clip-path="url(#p2fdad1d710)" style="fill: #394959; stroke: #ffffff; stroke-linejoin: miter"/>
   </g>
   <g id="patch_9">
    <path d="M 325.637125 339.84 
L 361.349125 339.84 
L 361.349125 82.813585 
L 325.637125 82.813585 
z
" clip-path="url(#p2fdad1d710)" style="fill: #394959; stroke: #ffffff; stroke-linejoin: miter"/>
   </g>
   <g id="patch_10">
    <path d="M 370.277125 339.84 
L 405.989125 339.84 
L 405.989125 34.994717 
L 370.277125 34.994717 
z
" clip-path="url(#p2fdad1d710)" style="fill: #394959; stroke: #ffffff; stroke-linejoin: miter"/>
   </g>
   <g id="patch_11">
    <path d="M 414.917125 339.84 
L 450.629125 339.84 
L 450.629125 52.926792 
L 414.917125 52.926792 
z
" clip-path="url(#p2fdad1d710)" style="fill: #394959; stroke: #ffffff; stroke-linejoin: miter"/>
   </g>
   <g id="patch_12">
    <path d="M 459.557125 339.84 
L 495.269125 339.84 
L 495.269125 34.994717 
L 459.557125 34.994717 
z
" clip-path="url(#p2fdad1d710)" style="fill: #394959; stroke: #ffffff; stroke-linejoin: miter"/>
   </g>
   <g id="patch_13">
    <path d="M 504.197125 339.84 
L 539.909125 339.84 
L 539.909125 58.904151 
L 504.197125 58.904151 
z
" clip-path="url(#p2fdad1d710)" style="fill: #394959; stroke: #ffffff; stroke-linejoin: miter"/>
   </g>
   <g id="patch_14">
    <path d="M 548.837125 339.84 
L 584.549125 339.84 
L 584.549125 100.74566 
L 548.837125 100.74566 
z
" clip-path="url(#p2fdad1d710)" style="fill: #394959; stroke: #ffffff; stroke-linejoin: miter"/>
   </g>
   <g id="patch_15">
    <path d="M 593.477125 339.84 
L 629.189125 339.84 
L 629.189125 88.790943 
L 593.477125 88.790943 
z
" clip-path="url(#p2fdad1d710)" style="fill: #394959; stroke: #ffffff; stroke-linejoin: miter"/>
   </g>
   <g id="patch_16">
    <path d="M 638.117125 339.84 
L 673.829125 339.84 
L 673.829125 76.836226 
L 638.117125 76.836226 
z
" clip-path="url(#p2fdad1d710)" style="fill: #394959; stroke: #ffffff; stroke-linejoin: miter"/>
   </g>
   <g id="patch_17">
    <path d="M 682.757125 339.84 
L 718.469125 339.84 
L 718.469125 130.632453 
L 682.757125 130.632453 
z
" clip-path="url(#p2fdad1d710)" style="fill: #394959; stroke: #ffffff; stroke-linejoin: miter"/>
   </g>
   <g id="patch_18">
    <path d="M 57.797125 339.84 
L 93.509125 339.84 
L 93.509125 118.677736 
L 57.797125 118.677736 
z
" clip-path="url(#p2fdad1d710)" style="fill: #ce803b; stroke: #ffffff; stroke-linejoin: miter"/>
   </g>
   <g id="patch_19">
    <path d="M 102.437125 339.84 
L 138.149125 339.84 
L 138.149125 52.926792 
L 102.437125 52.926792 
z
" clip-path="url(#p2fdad1d710)" style="fill: #ce803b; stroke: #ffffff; stroke-linejoin: miter"/>
   </g>
   <g id="patch_20">
    <path d="M 147.077125 339.84 
L 182.789125 339.84 
L 182.789125 70.858868 
L 147.077125 70.858868 
z
" clip-path="url(#p2fdad1d710)" style="fill: #ce803b; stroke: #ffffff; stroke-linejoin: miter"/>
   </g>
   <g id="patch_21">
    <path d="M 191.717125 339.84 
L 227.429125 339.84 
L 227.429125 58.904151 
L 191.717125 58.904151 
z
" clip-path="url(#p2fdad1d710)" style="fill: #ce803b; stroke: #ffffff; stroke-linejoin: miter"/>
   </g>
   <g id="patch_22">
    <path d="M 236.357125 339.84 
L 272.069125 339.84 
L 272.069125 46.949434 
L 236.357125 46.949434 
z
" clip-path="url(#p2fdad1d710)" style="fill: #ce803b; stroke: #ffffff; stroke-linejoin: miter"/>
   </g>
   <g id="patch_23">
    <path d="M 280.997125 339.84 
L 316.709125 339.84 
L 316.709125 29.017358 
L 280.997125 29.017358 
z
" clip-path="url(#p2fdad1d710)" style="fill: #ce803b; stroke: #ffffff; stroke-linejoin: miter"/>
   </g>
   <g id="patch_24">
    <path d="M 325.637125 339.84 
L 361.349125 339.84 
L 361.349125 130.632453 
L 325.637125 130.632453 
z
" clip-path="url(#p2fdad1d710)" style="fill: #ce803b; stroke: #ffffff; stroke-linejoin: miter"/>
   </g>
   <g id="patch_25">
    <path d="M 370.277125 339.84 
L 405.989125 339.84 
L 405.989125 23.04 
L 370.277125 23.04 
z
" clip-path="url(#p2fdad1d710)" style="fill: #ce803b; stroke: #ffffff; stroke-linejoin: miter"/>
   </g>
   <g id="patch_26">
    <path d="M 414.917125 339.84 
L 450.629125 339.84 
L 450.629125 64.881509 
L 414.917125 64.881509 
z
" clip-path="url(#p2fdad1d710)" style="fill: #ce803b; stroke: #ffffff; stroke-linejoin: miter"/>
   </g>
   <g id="patch_27">
    <path d="M 459.557125 339.84 
L 495.269125 339.84 
L 495.269125 52.926792 
L 459.557125 52.926792 
z
" clip-path="url(#p2fdad1d710)" style="fill: #ce803b; stroke: #ffffff; stroke-linejoin: miter"/>
   </g>
   <g id="patch_28">
    <path d="M 504.197125 339.84 
L 539.909125 339.84 
L 539.909125 64.881509 
L 504.197125 64.881509 
z
" clip-path="url(#p2fdad1d710)" style="fill: #ce803b; stroke: #ffffff; stroke-linejoin: miter"/>
   </g>
   <g id="patch_29">
    <path d="M 548.837125 339.84 
L 584.549125 339.84 
L 584.549125 100.74566 
L 548.837125 100.74566 
z
" clip-path="url(#p2fdad1d710)" style="fill: #ce803b; stroke: #ffffff; stroke-linejoin: miter"/>
   </g>
   <g id="patch_30">
    <path d="M 593.477125 339.84 
L 629.189125 339.84 
L 629.189125 100.74566 
L 593.477125 100.74566 
z
" clip-path="url(#p2fdad1d710)" style="fill: #ce803b; stroke: #ffffff; stroke-linejoin: miter"/>
   </g>
   <g id="patch_31">
    <path d="M 638.117125 339.84 
L 673.829125 339.84 
L 673.829125 94.768302 
L 638.117125 94.768302 
z
" clip-path="url(#p2fdad1d710)" style="fill: #ce803b; stroke: #ffffff; stroke-linejoin: miter"/>
   </g>
   <g id="patch_32">
    <path d="M 682.757125 339.84 
L 718.469125 339.84 
L 718.469125 118.677736 
L 682.757125 118.677736 
z
" clip-path="url(#p2fdad1d710)" style="fill: #ce803b; stroke: #ffffff; stroke-linejoin: miter"/>
   </g>
   <g id="patch_33">
    <path d="M 57.797125 339.84 
L 93.509125 339.84 
L 93.509125 166.496604 
L 57.797125 166.496604 
z
" clip-path="url(#p2fdad1d710)" style="fill: #4994c6; stroke: #ffffff; stroke-linejoin: miter"/>
   </g>
   <g id="patch_34">
    <path d="M 102.437125 339.84 
L 138.149125 339.84 
L 138.149125 82.813585 
L 102.437125 82.813585 
z
" clip-path="url(#p2fdad1d710)" style="fill: #4994c6; stroke: #ffffff; stroke-linejoin: miter"/>
   </g>
   <g id="patch_35">
    <path d="M 147.077125 339.84 
L 182.789125 339.84 
L 182.789125 94.768302 
L 147.077125 94.768302 
z
" clip-path="url(#p2fdad1d710)" style="fill: #4994c6; stroke: #ffffff; stroke-linejoin: miter"/>
   </g>
   <g id="patch_36">
    <path d="M 191.717125 339.84 
L 227.429125 339.84 
L 227.429125 76.836226 
L 191.717125 76.836226 
z
" clip-path="url(#p2fdad1d710)" style="fill: #4994c6; stroke: #ffffff; stroke-linejoin: miter"/>
   </g>
   <g id="patch_37">
    <path d="M 236.357125 339.84 
L 272.069125 339.84 
L 272.069125 40.972075 
L 236.357125 40.972075 
z
" clip-path="url(#p2fdad1d710)" style="fill: #4994c6; stroke: #ffffff; stroke-linejoin: miter"/>
   </g>
   <g id="patch_38">
    <path d="M 280.997125 339.84 
L 316.709125 339.84 
L 316.709125 23.04 
L 280.997125 23.04 
z
" clip-path="url(#p2fdad1d710)" style="fill: #4994c6; stroke: #ffffff; stroke-linejoin: miter"/>
   </g>
   <g id="patch_39">
    <path d="M 325.637125 339.84 
L 361.349125 339.84 
L 361.349125 118.677736 
L 325.637125 118.677736 
z
" clip-path="url(#p2fdad1d710)" style="fill: #4994c6; stroke: #ffffff; stroke-linejoin: miter"/>
   </g>
   <g id="patch_40">
    <path d="M 370.277125 339.84 
L 405.989125 339.84 
L 405.989125 29.017358 
L 370.277125 29.017358 
z
" clip-path="url(#p2fdad1d710)" style="fill: #4994c6; stroke: #ffffff; stroke-linejoin: miter"/>
   </g>
   <g id="patch_41">
    <path d="M 414.917125 339.84 
L 450.629125 339.84 
L 450.629125 82.813585 
L 414.917125 82.813585 
z
" clip-path="url(#p2fdad1d710)" style="fill: #4994c6; stroke: #ffffff; stroke-linejoin: miter"/>
   </g>
   <g id="patch_42">
    <path d="M 459.557125 339.84 
L 495.269125 339.84 
L 495.269125 118.677736 
L 459.557125 118.677736 
z
" clip-path="url(#p2fdad1d710)" style="fill: #4994c6; stroke: #ffffff; stroke-linejoin: miter"/>
   </g>
   <g id="patch_43">
    <path d="M 504.197125 339.84 
L 539.909125 339.84 
L 539.909125 124.655094 
L 504.197125 124.655094 
z
" clip-path="url(#p2fdad1d710)" style="fill: #4994c6; stroke: #ffffff; stroke-linejoin: miter"/>
   </g>
   <g id="patch_44">
    <path d="M 548.837125 339.84 
L 584.549125 339.84 
L 584.549125 100.74566 
L 548.837125 100.74566 
z
" clip-path="url(#p2fdad1d710)" style="fill: #4994c6; stroke: #ffffff; stroke-linejoin: miter"/>
   </g>
   <g id="patch_45">
    <path d="M 593.477125 339.84 
L 629.189125 339.84 
L 629.189125 94.768302 
L 593.477125 94.768302 
z
" clip-path="url(#p2fdad1d710)" style="fill: #4994c6; stroke: #ffffff; stroke-linejoin: miter"/>
   </g>
   <g id="patch_46">
    <path d="M 638.117125 339.84 
L 673.829125 339.84 
L 673.829125 154.541887 
L 638.117125 154.541887 
z
" clip-path="url(#p2fdad1d710)" style="fill: #4994c6; stroke: #ffffff; stroke-linejoin: miter"/>
   </g>
   <g id="patch_47">
    <path d="M 682.757125 339.84 
L 718.469125 339.84 
L 718.469125 124.655094 
L 682.757125 124.655094 
z
" clip-path="url(#p2fdad1d710)" style="fill: #4994c6; stroke: #ffffff; stroke-linejoin: miter"/>
   </g>
   <g id="line2d_21">
    <path clip-path="url(#p2fdad1d710)" style="fill: none; stroke: #424242; stroke-width: 2.7; stroke-linecap: round"/>
   </g>
   <g id="line2d_22">
    <path clip-path="url(#p2fdad1d710)" style="fill: none; stroke: #424242; stroke-width: 2.7; stroke-linecap: round"/>
   </g>
   <g id="line2d_23">
    <path clip-path="url(#p2fdad1d710)" style="fill: none; stroke: #424242; stroke-width: 2.7; stroke-linecap: round"/>
   </g>
   <g id="line2d_24">
    <path clip-path="url(#p2fdad1d710)" style="fill: none; stroke: #424242; stroke-width: 2.7; stroke-linecap: round"/>
   </g>
   <g id="line2d_25">
    <path clip-path="url(#p2fdad1d710)" style="fill: none; stroke: #424242; stroke-width: 2.7; stroke-linecap: round"/>
   </g>
   <g id="line2d_26">
    <path clip-path="url(#p2fdad1d710)" style="fill: none; stroke: #424242; stroke-width: 2.7; stroke-linecap: round"/>
   </g>
   <g id="line2d_27">
    <path clip-path="url(#p2fdad1d710)" style="fill: none; stroke: #424242; stroke-width: 2.7; stroke-linecap: round"/>
   </g>
   <g id="line2d_28">
    <path clip-path="url(#p2fdad1d710)" style="fill: none; stroke: #424242; stroke-width: 2.7; stroke-linecap: round"/>
   </g>
   <g id="line2d_29">
    <path clip-path="url(#p2fdad1d710)" style="fill: none; stroke: #424242; stroke-width: 2.7; stroke-linecap: round"/>
   </g>
   <g id="line2d_30">
    <path clip-path="url(#p2fdad1d710)" style="fill: none; stroke: #424242; stroke-width: 2.7; stroke-linecap: round"/>
   </g>
   <g id="line2d_31">
    <path clip-path="url(#p2fdad1d710)" style="fill: none; stroke: #424242; stroke-width: 2.7; stroke-linecap: round"/>
   </g>
   <g id="line2d_32">
    <path clip-path="url(#p2fdad1d710)" style="fill: none; stroke: #424242; stroke-width: 2.7; stroke-linecap: round"/>
   </g>
   <g id="line2d_33">
    <path clip-path="url(#p2fdad1d710)" style="fill: none; stroke: #424242; stroke-width: 2.7; stroke-linecap: round"/>
   </g>
   <g id="line2d_34">
    <path clip-path="url(#p2fdad1d710)" style="fill: none; stroke: #424242; stroke-width: 2.7; stroke-linecap: round"/>
   </g>
   <g id="line2d_35">
    <path clip-path="url(#p2fdad1d710)" style="fill: none; stroke: #424242; stroke-width: 2.7; stroke-linecap: round"/>
   </g>
   <g id="line2d_36">
    <path clip-path="url(#p2fdad1d710)" style="fill: none; stroke: #424242; stroke-width: 2.7; stroke-linecap: round"/>
   </g>
   <g id="line2d_37">
    <path clip-path="url(#p2fdad1d710)" style="fill: none; stroke: #424242; stroke-width: 2.7; stroke-linecap: round"/>
   </g>
   <g id="line2d_38">
    <path clip-path="url(#p2fdad1d710)" style="fill: none; stroke: #424242; stroke-width: 2.7; stroke-linecap: round"/>
   </g>
   <g id="line2d_39">
    <path clip-path="url(#p2fdad1d710)" style="fill: none; stroke: #424242; stroke-width: 2.7; stroke-linecap: round"/>
   </g>
   <g id="line2d_40">
    <path clip-path="url(#p2fdad1d710)" style="fill: none; stroke: #424242; stroke-width: 2.7; stroke-linecap: round"/>
   </g>
   <g id="line2d_41">
    <path clip-path="url(#p2fdad1d710)" style="fill: none; stroke: #424242; stroke-width: 2.7; stroke-linecap: round"/>
   </g>
   <g id="line2d_42">
    <path clip-path="url(#p2fdad1d710)" style="fill: none; stroke: #424242; stroke-width: 2.7; stroke-linecap: round"/>
   </g>
   <g id="line2d_43">
    <path clip-path="url(#p2fdad1d710)" style="fill: none; stroke: #424242; stroke-width: 2.7; stroke-linecap: round"/>
   </g>
   <g id="line2d_44">
    <path clip-path="url(#p2fdad1d710)" style="fill: none; stroke: #424242; stroke-width: 2.7; stroke-linecap: round"/>
   </g>
   <g id="line2d_45">
    <path clip-path="url(#p2fdad1d710)" style="fill: none; stroke: #424242; stroke-width: 2.7; stroke-linecap: round"/>
   </g>
   <g id="line2d_46">
    <path clip-path="url(#p2fdad1d710)" style="fill: none; stroke: #424242; stroke-width: 2.7; stroke-linecap: round"/>
   </g>
   <g id="line2d_47">
    <path clip-path="url(#p2fdad1d710)" style="fill: none; stroke: #424242; stroke-width: 2.7; stroke-linecap: round"/>
   </g>
   <g id="line2d_48">
    <path clip-path="url(#p2fdad1d710)" style="fill: none; stroke: #424242; stroke-width: 2.7; stroke-linecap: round"/>
   </g>
   <g id="line2d_49">
    <path clip-path="url(#p2fdad1d710)" style="fill: none; stroke: #424242; stroke-width: 2.7; stroke-linecap: round"/>
   </g>
   <g id="line2d_50">
    <path clip-path="url(#p2fdad1d710)" style="fill: none; stroke: #424242; stroke-width: 2.7; stroke-linecap: round"/>
   </g>
   <g id="line2d_51">
    <path clip-path="url(#p2fdad1d710)" style="fill: none; stroke: #424242; stroke-width: 2.7; stroke-linecap: round"/>
   </g>
   <g id="line2d_52">
    <path clip-path="url(#p2fdad1d710)" style="fill: none; stroke: #424242; stroke-width: 2.7; stroke-linecap: round"/>
   </g>
   <g id="line2d_53">
    <path clip-path="url(#p2fdad1d710)" style="fill: none; stroke: #424242; stroke-width: 2.7; stroke-linecap: round"/>
   </g>
   <g id="line2d_54">
    <path clip-path="url(#p2fdad1d710)" style="fill: none; stroke: #424242; stroke-width: 2.7; stroke-linecap: round"/>
   </g>
   <g id="line2d_55">
    <path clip-path="url(#p2fdad1d710)" style="fill: none; stroke: #424242; stroke-width: 2.7; stroke-linecap: round"/>
   </g>
   <g id="line2d_56">
    <path clip-path="url(#p2fdad1d710)" style="fill: none; stroke: #424242; stroke-width: 2.7; stroke-linecap: round"/>
   </g>
   <g id="line2d_57">
    <path clip-path="url(#p2fdad1d710)" style="fill: none; stroke: #424242; stroke-width: 2.7; stroke-linecap: round"/>
   </g>
   <g id="line2d_58">
    <path clip-path="url(#p2fdad1d710)" style="fill: none; stroke: #424242; stroke-width: 2.7; stroke-linecap: round"/>
   </g>
   <g id="line2d_59">
    <path clip-path="url(#p2fdad1d710)" style="fill: none; stroke: #424242; stroke-width: 2.7; stroke-linecap: round"/>
   </g>
   <g id="line2d_60">
    <path clip-path="url(#p2fdad1d710)" style="fill: none; stroke: #424242; stroke-width: 2.7; stroke-linecap: round"/>
   </g>
   <g id="line2d_61">
    <path clip-path="url(#p2fdad1d710)" style="fill: none; stroke: #424242; stroke-width: 2.7; stroke-linecap: round"/>
   </g>
   <g id="line2d_62">
    <path clip-path="url(#p2fdad1d710)" style="fill: none; stroke: #424242; stroke-width: 2.7; stroke-linecap: round"/>
   </g>
   <g id="line2d_63">
    <path clip-path="url(#p2fdad1d710)" style="fill: none; stroke: #424242; stroke-width: 2.7; stroke-linecap: round"/>
   </g>
   <g id="line2d_64">
    <path clip-path="url(#p2fdad1d710)" style="fill: none; stroke: #424242; stroke-width: 2.7; stroke-linecap: round"/>
   </g>
   <g id="line2d_65">
    <path clip-path="url(#p2fdad1d710)" style="fill: none; stroke: #424242; stroke-width: 2.7; stroke-linecap: round"/>
   </g>
   <g id="line2d_66">
    <path d="M 53.333125 64.483019 
L 722.933125 64.483019 
" clip-path="url(#p2fdad1d710)" style="fill: none; stroke-dasharray: 7.4,3.2; stroke-dashoffset: 0; stroke: #000000; stroke-width: 2"/>
   </g>
   <g id="line2d_67">
    <path d="M 53.333125 75.242264 
L 722.933125 75.242264 
" clip-path="url(#p2fdad1d710)" style="fill: none; stroke-dasharray: 7.4,3.2; stroke-dashoffset: 0; stroke: #808080; stroke-width: 2"/>
   </g>
   <g id="line2d_68">
    <path d="M 53.333125 95.565283 
L 722.933125 95.565283 
" clip-path="url(#p2fdad1d710)" style="fill: none; stroke-dasharray: 7.4,3.2; stroke-dashoffset: 0; stroke: #00008b; stroke-width: 2"/>
   </g>
   <g id="patch_48">
    <path d="M 53.333125 339.84 
L 53.333125 7.2 
" style="fill: none; stroke: #cccccc; stroke-width: 1.25; stroke-linejoin: miter; stroke-linecap: square"/>
   </g>
   <g id="patch_49">
    <path d="M 722.933125 339.84 
L 722.933125 7.2 
" style="fill: none; stroke: #cccccc; stroke-width: 1.25; stroke-linejoin: miter; stroke-linecap: square"/>
   </g>
   <g id="patch_50">
    <path d="M 53.333125 339.84 
L 722.933125 339.84 
" style="fill: none; stroke: #cccccc; stroke-width: 1.25; stroke-linejoin: miter; stroke-linecap: square"/>
   </g>
   <g id="patch_51">
    <path d="M 53.333125 7.2 
L 722.933125 7.2 
" style="fill: none; stroke: #cccccc; stroke-width: 1.25; stroke-linejoin: miter; stroke-linecap: square"/>
   </g>
   <g id="legend_1">
    <g id="patch_52">
     <path d="M 594.776875 334.84 
L 715.933125 334.84 
Q 717.933125 334.84 717.933125 332.84 
L 717.933125 230.524375 
Q 717.933125 228.524375 715.933125 228.524375 
L 594.776875 228.524375 
Q 592.776875 228.524375 592.776875 230.524375 
L 592.776875 332.84 
Q 592.776875 334.84 594.776875 334.84 
z
" style="fill: #ffffff; opacity: 0.8; stroke: #cccccc; stroke-linejoin: miter"/>
    </g>
    <g id="text_23">
     <!-- Training Blocks -->
     <g style="fill: #262626" transform="translate(615.540938 240.122812) scale(0.1 -0.1)">
      <defs>
       <path id="DejaVuSerif-54" d="M 1222 0 
L 1222 331 
L 1819 331 
L 1819 4294 
L 447 4294 
L 447 3566 
L 63 3566 
L 63 4666 
L 4206 4666 
L 4206 3566 
L 3822 3566 
L 3822 4294 
L 2450 4294 
L 2450 331 
L 3047 331 
L 3047 0 
L 1222 0 
z
" transform="scale(0.015625)"/>
       <path id="DejaVuSerif-67" d="M 3359 2988 
L 3359 72 
Q 3359 -644 2965 -1033 
Q 2572 -1422 1844 -1422 
Q 1516 -1422 1216 -1362 
Q 916 -1303 641 -1184 
L 641 -488 
L 941 -488 
Q 997 -813 1206 -963 
Q 1416 -1113 1806 -1113 
Q 2313 -1113 2548 -827 
Q 2784 -541 2784 72 
L 2784 519 
Q 2616 206 2355 57 
Q 2094 -91 1709 -91 
Q 1097 -91 708 395 
Q 319 881 319 1663 
Q 319 2444 706 2928 
Q 1094 3413 1709 3413 
Q 2094 3413 2355 3264 
Q 2616 3116 2784 2803 
L 2784 3322 
L 3909 3322 
L 3909 2988 
L 3359 2988 
z
M 2784 1825 
Q 2784 2422 2554 2737 
Q 2325 3053 1888 3053 
Q 1444 3053 1217 2703 
Q 991 2353 991 1663 
Q 991 975 1217 622 
Q 1444 269 1888 269 
Q 2325 269 2554 583 
Q 2784 897 2784 1497 
L 2784 1825 
z
" transform="scale(0.015625)"/>
       <path id="DejaVuSerif-20" transform="scale(0.015625)"/>
       <path id="DejaVuSerif-42" d="M 1581 331 
L 2516 331 
Q 3078 331 3337 575 
Q 3597 819 3597 1350 
Q 3597 1878 3339 2120 
Q 3081 2363 2516 2363 
L 1581 2363 
L 1581 331 
z
M 1581 2694 
L 2375 2694 
Q 2888 2694 3123 2891 
Q 3359 3088 3359 3513 
Q 3359 3941 3123 4136 
Q 2888 4331 2375 4331 
L 1581 4331 
L 1581 2694 
z
M 353 0 
L 353 331 
L 947 331 
L 947 4331 
L 353 4331 
L 353 4666 
L 2656 4666 
Q 3363 4666 3720 4377 
Q 4078 4088 4078 3513 
Q 4078 3097 3829 2850 
Q 3581 2603 3103 2547 
Q 3697 2472 4005 2167 
Q 4313 1863 4313 1350 
Q 4313 656 3875 328 
Q 3438 0 2509 0 
L 353 0 
z
" transform="scale(0.015625)"/>
       <path id="DejaVuSerif-6c" d="M 1313 331 
L 1856 331 
L 1856 0 
L 184 0 
L 184 331 
L 738 331 
L 738 4531 
L 184 4531 
L 184 4863 
L 1313 4863 
L 1313 331 
z
" transform="scale(0.015625)"/>
       <path id="DejaVuSerif-6f" d="M 1925 219 
Q 2388 219 2623 584 
Q 2859 950 2859 1663 
Q 2859 2375 2623 2739 
Q 2388 3103 1925 3103 
Q 1463 3103 1227 2739 
Q 991 2375 991 1663 
Q 991 950 1228 584 
Q 1466 219 1925 219 
z
M 1925 -91 
Q 1200 -91 759 389 
Q 319 869 319 1663 
Q 319 2456 758 2934 
Q 1197 3413 1925 3413 
Q 2653 3413 3092 2934 
Q 3531 2456 3531 1663 
Q 3531 869 3092 389 
Q 2653 -91 1925 -91 
z
" transform="scale(0.015625)"/>
       <path id="DejaVuSerif-6b" d="M 1831 0 
L 219 0 
L 219 331 
L 738 331 
L 738 4531 
L 184 4531 
L 184 4863 
L 1313 4863 
L 1313 1697 
L 2713 2988 
L 2234 2988 
L 2234 3322 
L 3738 3322 
L 3738 2988 
L 3169 2988 
L 2181 2075 
L 3444 331 
L 3922 331 
L 3922 0 
L 2284 0 
L 2284 331 
L 2759 331 
L 1766 1697 
L 1313 1275 
L 1313 331 
L 1831 331 
L 1831 0 
z
" transform="scale(0.015625)"/>
      </defs>
      <use xlink:href="#DejaVuSerif-54"/>
      <use xlink:href="#DejaVuSerif-72" x="66.699219"/>
      <use xlink:href="#DejaVuSerif-61" x="114.501953"/>
      <use xlink:href="#DejaVuSerif-69" x="174.121094"/>
      <use xlink:href="#DejaVuSerif-6e" x="206.103516"/>
      <use xlink:href="#DejaVuSerif-69" x="270.507812"/>
      <use xlink:href="#DejaVuSerif-6e" x="302.490234"/>
      <use xlink:href="#DejaVuSerif-67" x="366.894531"/>
      <use xlink:href="#DejaVuSerif-20" x="430.908203"/>
      <use xlink:href="#DejaVuSerif-42" x="462.695312"/>
      <use xlink:href="#DejaVuSerif-6c" x="536.181641"/>
      <use xlink:href="#DejaVuSerif-6f" x="568.164062"/>
      <use xlink:href="#DejaVuSerif-63" x="628.369141"/>
      <use xlink:href="#DejaVuSerif-6b" x="684.375"/>
      <use xlink:href="#DejaVuSerif-73" x="744.970703"/>
     </g>
    </g>
    <g id="patch_53">
     <path d="M 596.776875 254.943125 
L 616.776875 254.943125 
L 616.776875 247.943125 
L 596.776875 247.943125 
z
" style="fill: #394959; stroke: #ffffff; stroke-linejoin: miter"/>
    </g>
    <g id="text_24">
     <!-- 1,2,3,4,5 -->
     <g style="fill: #262626" transform="translate(624.776875 254.943125) scale(0.1 -0.1)">
      <defs>
       <path id="DejaVuSerif-2c" d="M 231 -622 
Q 525 -406 662 -114 
Q 800 178 800 594 
L 800 709 
L 1416 709 
Q 1391 175 1164 -208 
Q 938 -591 481 -872 
L 231 -622 
z
" transform="scale(0.015625)"/>
      </defs>
      <use xlink:href="#DejaVuSerif-31"/>
      <use xlink:href="#DejaVuSerif-2c" x="63.623047"/>
      <use xlink:href="#DejaVuSerif-32" x="95.410156"/>
      <use xlink:href="#DejaVuSerif-2c" x="159.033203"/>
      <use xlink:href="#DejaVuSerif-33" x="190.820312"/>
      <use xlink:href="#DejaVuSerif-2c" x="254.443359"/>
      <use xlink:href="#DejaVuSerif-34" x="286.230469"/>
      <use xlink:href="#DejaVuSerif-2c" x="349.853516"/>
      <use xlink:href="#DejaVuSerif-35" x="381.640625"/>
     </g>
    </g>
    <g id="patch_54">
     <path d="M 596.776875 269.62125 
L 616.776875 269.62125 
L 616.776875 262.62125 
L 596.776875 262.62125 
z
" style="fill: #ce803b; stroke: #ffffff; stroke-linejoin: miter"/>
    </g>
    <g id="text_25">
     <!-- 1,2,3,4 -->
     <g style="fill: #262626" transform="translate(624.776875 269.62125) scale(0.1 -0.1)">
      <use xlink:href="#DejaVuSerif-31"/>
      <use xlink:href="#DejaVuSerif-2c" x="63.623047"/>
      <use xlink:href="#DejaVuSerif-32" x="95.410156"/>
      <use xlink:href="#DejaVuSerif-2c" x="159.033203"/>
      <use xlink:href="#DejaVuSerif-33" x="190.820312"/>
      <use xlink:href="#DejaVuSerif-2c" x="254.443359"/>
      <use xlink:href="#DejaVuSerif-34" x="286.230469"/>
     </g>
    </g>
    <g id="patch_55">
     <path d="M 596.776875 284.299375 
L 616.776875 284.299375 
L 616.776875 277.299375 
L 596.776875 277.299375 
z
" style="fill: #4994c6; stroke: #ffffff; stroke-linejoin: miter"/>
    </g>
    <g id="text_26">
     <!-- 1,2,3 -->
     <g style="fill: #262626" transform="translate(624.776875 284.299375) scale(0.1 -0.1)">
      <use xlink:href="#DejaVuSerif-31"/>
      <use xlink:href="#DejaVuSerif-2c" x="63.623047"/>
      <use xlink:href="#DejaVuSerif-32" x="95.410156"/>
      <use xlink:href="#DejaVuSerif-2c" x="159.033203"/>
      <use xlink:href="#DejaVuSerif-33" x="190.820312"/>
     </g>
    </g>
    <g id="line2d_69">
     <path d="M 596.776875 295.4775 
L 606.776875 295.4775 
L 616.776875 295.4775 
" style="fill: none; stroke-dasharray: 7.4,3.2; stroke-dashoffset: 0; stroke: #000000; stroke-width: 2"/>
    </g>
    <g id="text_27">
     <!-- Average 1,2,3,4,5 -->
     <g style="fill: #262626" transform="translate(624.776875 298.9775) scale(0.1 -0.1)">
      <defs>
       <path id="DejaVuSerif-76" d="M 1581 0 
L 359 2988 
L -19 2988 
L -19 3322 
L 1509 3322 
L 1509 2988 
L 978 2988 
L 1913 703 
L 2847 2988 
L 2350 2988 
L 2350 3322 
L 3597 3322 
L 3597 2988 
L 3225 2988 
L 2003 0 
L 1581 0 
z
" transform="scale(0.015625)"/>
       <path id="DejaVuSerif-65" d="M 3469 1600 
L 991 1600 
L 991 1575 
Q 991 903 1244 561 
Q 1497 219 1991 219 
Q 2369 219 2611 417 
Q 2853 616 2950 1006 
L 3413 1006 
Q 3275 459 2904 184 
Q 2534 -91 1931 -91 
Q 1203 -91 761 389 
Q 319 869 319 1663 
Q 319 2450 753 2931 
Q 1188 3413 1894 3413 
Q 2647 3413 3050 2948 
Q 3453 2484 3469 1600 
z
M 2791 1931 
Q 2772 2513 2545 2808 
Q 2319 3103 1894 3103 
Q 1497 3103 1269 2806 
Q 1041 2509 991 1931 
L 2791 1931 
z
" transform="scale(0.015625)"/>
      </defs>
      <use xlink:href="#DejaVuSerif-41"/>
      <use xlink:href="#DejaVuSerif-76" x="68.216797"/>
      <use xlink:href="#DejaVuSerif-65" x="124.710938"/>
      <use xlink:href="#DejaVuSerif-72" x="183.890625"/>
      <use xlink:href="#DejaVuSerif-61" x="231.693359"/>
      <use xlink:href="#DejaVuSerif-67" x="291.3125"/>
      <use xlink:href="#DejaVuSerif-65" x="355.326172"/>
      <use xlink:href="#DejaVuSerif-20" x="414.505859"/>
      <use xlink:href="#DejaVuSerif-31" x="446.292969"/>
      <use xlink:href="#DejaVuSerif-2c" x="509.916016"/>
      <use xlink:href="#DejaVuSerif-32" x="541.703125"/>
      <use xlink:href="#DejaVuSerif-2c" x="605.326172"/>
      <use xlink:href="#DejaVuSerif-33" x="637.113281"/>
      <use xlink:href="#DejaVuSerif-2c" x="700.736328"/>
      <use xlink:href="#DejaVuSerif-34" x="732.523438"/>
      <use xlink:href="#DejaVuSerif-2c" x="796.146484"/>
      <use xlink:href="#DejaVuSerif-35" x="827.933594"/>
     </g>
    </g>
    <g id="line2d_70">
     <path d="M 596.776875 310.297812 
L 606.776875 310.297812 
L 616.776875 310.297812 
" style="fill: none; stroke-dasharray: 7.4,3.2; stroke-dashoffset: 0; stroke: #808080; stroke-width: 2"/>
    </g>
    <g id="text_28">
     <!-- Average 1,2,3,4 -->
     <g style="fill: #262626" transform="translate(624.776875 313.797812) scale(0.1 -0.1)">
      <use xlink:href="#DejaVuSerif-41"/>
      <use xlink:href="#DejaVuSerif-76" x="68.216797"/>
      <use xlink:href="#DejaVuSerif-65" x="124.710938"/>
      <use xlink:href="#DejaVuSerif-72" x="183.890625"/>
      <use xlink:href="#DejaVuSerif-61" x="231.693359"/>
      <use xlink:href="#DejaVuSerif-67" x="291.3125"/>
      <use xlink:href="#DejaVuSerif-65" x="355.326172"/>
      <use xlink:href="#DejaVuSerif-20" x="414.505859"/>
      <use xlink:href="#DejaVuSerif-31" x="446.292969"/>
      <use xlink:href="#DejaVuSerif-2c" x="509.916016"/>
      <use xlink:href="#DejaVuSerif-32" x="541.703125"/>
      <use xlink:href="#DejaVuSerif-2c" x="605.326172"/>
      <use xlink:href="#DejaVuSerif-33" x="637.113281"/>
      <use xlink:href="#DejaVuSerif-2c" x="700.736328"/>
      <use xlink:href="#DejaVuSerif-34" x="732.523438"/>
     </g>
    </g>
    <g id="line2d_71">
     <path d="M 596.776875 325.118125 
L 606.776875 325.118125 
L 616.776875 325.118125 
" style="fill: none; stroke-dasharray: 7.4,3.2; stroke-dashoffset: 0; stroke: #00008b; stroke-width: 2"/>
    </g>
    <g id="text_29">
     <!-- Average 1,2,3 -->
     <g style="fill: #262626" transform="translate(624.776875 328.618125) scale(0.1 -0.1)">
      <use xlink:href="#DejaVuSerif-41"/>
      <use xlink:href="#DejaVuSerif-76" x="68.216797"/>
      <use xlink:href="#DejaVuSerif-65" x="124.710938"/>
      <use xlink:href="#DejaVuSerif-72" x="183.890625"/>
      <use xlink:href="#DejaVuSerif-61" x="231.693359"/>
      <use xlink:href="#DejaVuSerif-67" x="291.3125"/>
      <use xlink:href="#DejaVuSerif-65" x="355.326172"/>
      <use xlink:href="#DejaVuSerif-20" x="414.505859"/>
      <use xlink:href="#DejaVuSerif-31" x="446.292969"/>
      <use xlink:href="#DejaVuSerif-2c" x="509.916016"/>
      <use xlink:href="#DejaVuSerif-32" x="541.703125"/>
      <use xlink:href="#DejaVuSerif-2c" x="605.326172"/>
      <use xlink:href="#DejaVuSerif-33" x="637.113281"/>
     </g>
    </g>
   </g>
  </g>
 </g>
 <defs>
  <clipPath id="p2fdad1d710">
   <rect x="53.333125" y="7.2" width="669.6" height="332.64"/>
  </clipPath>
 </defs>
</svg>
