<?xml version="1.0" encoding="utf-8" standalone="no"?>
<!DOCTYPE svg PUBLIC "-//W3C//DTD SVG 1.1//EN"
  "http://www.w3.org/Graphics/SVG/1.1/DTD/svg11.dtd">
<svg xmlns:xlink="http://www.w3.org/1999/xlink" width="2804.4pt" height="1174.076562pt" viewBox="0 0 2804.4 1174.076562" xmlns="http://www.w3.org/2000/svg" version="1.1">
 <metadata>
  <rdf:RDF xmlns:dc="http://purl.org/dc/elements/1.1/" xmlns:cc="http://creativecommons.org/ns#" xmlns:rdf="http://www.w3.org/1999/02/22-rdf-syntax-ns#">
   <cc:Work>
    <dc:type rdf:resource="http://purl.org/dc/dcmitype/StillImage"/>
    <dc:date>2024-02-14T14:47:17.342018</dc:date>
    <dc:format>image/svg+xml</dc:format>
    <dc:creator>
     <cc:Agent>
      <dc:title>Matplotlib v3.7.0, https://matplotlib.org/</dc:title>
     </cc:Agent>
    </dc:creator>
   </cc:Work>
  </rdf:RDF>
 </metadata>
 <defs>
  <style type="text/css">*{stroke-linejoin: round; stroke-linecap: butt}</style>
 </defs>
 <g id="figure_1">
  <g id="patch_1">
   <path d="M 0 1174.076562 
L 2804.4 1174.076562 
L 2804.4 0 
L 0 0 
z
" style="fill: #ffffff"/>
  </g>
  <g id="axes_1">
   <g id="patch_2">
    <path d="M 7.2 1155.11875 
L 2797.2 1155.11875 
L 2797.2 46.31875 
L 7.2 46.31875 
z
" style="fill: #ffffff"/>
   </g>
   <g id="patch_3">
    <path d="M 1621.621488 600.71875 
L 1643.935537 600.71875 
L 1643.935537 253.4982 
L 1621.621488 253.4982 
z
" clip-path="url(#p500ad2b26f)" style="fill: #a5a5a5"/>
   </g>
   <g id="patch_4">
    <path d="M 1919.142149 600.71875 
L 1941.456198 600.71875 
L 1941.456198 268.672144 
L 1919.142149 268.672144 
z
" clip-path="url(#p500ad2b26f)" style="fill: #a5a5a5"/>
   </g>
   <g id="patch_5">
    <path d="M 2216.66281 600.71875 
L 2238.97686 600.71875 
L 2238.97686 292.662236 
L 2216.66281 292.662236 
z
" clip-path="url(#p500ad2b26f)" style="fill: #a5a5a5"/>
   </g>
   <g id="patch_6">
    <path d="M 2514.183471 600.71875 
L 2536.497521 600.71875 
L 2536.497521 293.425172 
L 2514.183471 293.425172 
z
" clip-path="url(#p500ad2b26f)" style="fill: #a5a5a5"/>
   </g>
   <g id="patch_7">
    <path d="M 1026.580165 600.71875 
L 1048.894215 600.71875 
L 1048.894215 230.694897 
L 1026.580165 230.694897 
z
" clip-path="url(#p500ad2b26f)" style="fill: #a5a5a5"/>
   </g>
   <g id="patch_8">
    <path d="M 729.059504 600.71875 
L 751.373554 600.71875 
L 751.373554 253.4982 
L 729.059504 253.4982 
z
" clip-path="url(#p500ad2b26f)" style="fill: #a5a5a5"/>
   </g>
   <g id="patch_9">
    <path d="M 431.538843 600.71875 
L 453.852893 600.71875 
L 453.852893 288.254163 
L 431.538843 288.254163 
z
" clip-path="url(#p500ad2b26f)" style="fill: #a5a5a5"/>
   </g>
   <g id="patch_10">
    <path d="M 134.018182 600.71875 
L 156.332231 600.71875 
L 156.332231 273.080218 
L 134.018182 273.080218 
z
" clip-path="url(#p500ad2b26f)" style="fill: #a5a5a5"/>
   </g>
   <g id="patch_11">
    <path d="M 1655.092562 600.71875 
L 1677.406612 600.71875 
L 1677.406612 215.080144 
L 1655.092562 215.080144 
z
" clip-path="url(#p500ad2b26f)" style="fill: #ed7d31"/>
   </g>
   <g id="patch_12">
    <path d="M 1952.613223 600.71875 
L 1974.927273 600.71875 
L 1974.927273 214.876695 
L 1952.613223 214.876695 
z
" clip-path="url(#p500ad2b26f)" style="fill: #ed7d31"/>
   </g>
   <g id="patch_13">
    <path d="M 2250.133884 600.71875 
L 2272.447934 600.71875 
L 2272.447934 257.804548 
L 2250.133884 257.804548 
z
" clip-path="url(#p500ad2b26f)" style="fill: #ed7d31"/>
   </g>
   <g id="patch_14">
    <path d="M 2547.654545 600.71875 
L 2569.968595 600.71875 
L 2569.968595 253.735557 
L 2547.654545 253.735557 
z
" clip-path="url(#p500ad2b26f)" style="fill: #ed7d31"/>
   </g>
   <g id="patch_15">
    <path d="M 1060.05124 600.71875 
L 1082.365289 600.71875 
L 1082.365289 198.600732 
L 1060.05124 198.600732 
z
" clip-path="url(#p500ad2b26f)" style="fill: #ed7d31"/>
   </g>
   <g id="patch_16">
    <path d="M 762.530579 600.71875 
L 784.844628 600.71875 
L 784.844628 199.821429 
L 762.530579 199.821429 
z
" clip-path="url(#p500ad2b26f)" style="fill: #ed7d31"/>
   </g>
   <g id="patch_17">
    <path d="M 465.009917 600.71875 
L 487.323967 600.71875 
L 487.323967 245.292401 
L 465.009917 245.292401 
z
" clip-path="url(#p500ad2b26f)" style="fill: #ed7d31"/>
   </g>
   <g id="patch_18">
    <path d="M 167.489256 600.71875 
L 189.803306 600.71875 
L 189.803306 237.256144 
L 167.489256 237.256144 
z
" clip-path="url(#p500ad2b26f)" style="fill: #ed7d31"/>
   </g>
   <g id="patch_19">
    <path d="M 1688.563636 600.71875 
L 1710.877686 600.71875 
L 1710.877686 195.981319 
L 1688.563636 195.981319 
z
" clip-path="url(#p500ad2b26f)" style="fill: #ffc000"/>
   </g>
   <g id="patch_20">
    <path d="M 1986.084298 600.71875 
L 2008.398347 600.71875 
L 2008.398347 199.160218 
L 1986.084298 199.160218 
z
" clip-path="url(#p500ad2b26f)" style="fill: #ffc000"/>
   </g>
   <g id="patch_21">
    <path d="M 2283.604959 600.71875 
L 2305.919008 600.71875 
L 2305.919008 221.285356 
L 2283.604959 221.285356 
z
" clip-path="url(#p500ad2b26f)" style="fill: #ffc000"/>
   </g>
   <g id="patch_22">
    <path d="M 2581.12562 600.71875 
L 2603.439669 600.71875 
L 2603.439669 229.169025 
L 2581.12562 229.169025 
z
" clip-path="url(#p500ad2b26f)" style="fill: #ffc000"/>
   </g>
   <g id="patch_23">
    <path d="M 1093.522314 600.71875 
L 1115.836364 600.71875 
L 1115.836364 166.353979 
L 1093.522314 166.353979 
z
" clip-path="url(#p500ad2b26f)" style="fill: #ffc000"/>
   </g>
   <g id="patch_24">
    <path d="M 796.001653 600.71875 
L 818.315702 600.71875 
L 818.315702 181.231227 
L 796.001653 181.231227 
z
" clip-path="url(#p500ad2b26f)" style="fill: #ffc000"/>
   </g>
   <g id="patch_25">
    <path d="M 498.480992 600.71875 
L 520.795041 600.71875 
L 520.795041 208.315447 
L 498.480992 208.315447 
z
" clip-path="url(#p500ad2b26f)" style="fill: #ffc000"/>
   </g>
   <g id="patch_26">
    <path d="M 200.960331 600.71875 
L 223.27438 600.71875 
L 223.27438 219.759484 
L 200.960331 219.759484 
z
" clip-path="url(#p500ad2b26f)" style="fill: #ffc000"/>
   </g>
   <g id="patch_27">
    <path d="M 1722.034711 600.71875 
L 1744.34876 600.71875 
L 1744.34876 170.592511 
L 1722.034711 170.592511 
z
" clip-path="url(#p500ad2b26f)" style="fill: #4472c4"/>
   </g>
   <g id="patch_28">
    <path d="M 2019.555372 600.71875 
L 2041.869421 600.71875 
L 2041.869421 183.816732 
L 2019.555372 183.816732 
z
" clip-path="url(#p500ad2b26f)" style="fill: #4472c4"/>
   </g>
   <g id="patch_29">
    <path d="M 2317.076033 600.71875 
L 2339.390083 600.71875 
L 2339.390083 205.518016 
L 2317.076033 205.518016 
z
" clip-path="url(#p500ad2b26f)" style="fill: #4472c4"/>
   </g>
   <g id="patch_30">
    <path d="M 2614.596694 600.71875 
L 2636.910744 600.71875 
L 2636.910744 191.615631 
L 2614.596694 191.615631 
z
" clip-path="url(#p500ad2b26f)" style="fill: #4472c4"/>
   </g>
   <g id="patch_31">
    <path d="M 1126.993388 600.71875 
L 1149.307438 600.71875 
L 1149.307438 158.724622 
L 1126.993388 158.724622 
z
" clip-path="url(#p500ad2b26f)" style="fill: #4472c4"/>
   </g>
   <g id="patch_32">
    <path d="M 829.472727 600.71875 
L 851.786777 600.71875 
L 851.786777 185.851227 
L 829.472727 185.851227 
z
" clip-path="url(#p500ad2b26f)" style="fill: #4472c4"/>
   </g>
   <g id="patch_33">
    <path d="M 531.952066 600.71875 
L 554.266116 600.71875 
L 554.266116 200.77086 
L 531.952066 200.77086 
z
" clip-path="url(#p500ad2b26f)" style="fill: #4472c4"/>
   </g>
   <g id="patch_34">
    <path d="M 234.431405 600.71875 
L 256.745455 600.71875 
L 256.745455 189.920218 
L 234.431405 189.920218 
z
" clip-path="url(#p500ad2b26f)" style="fill: #4472c4"/>
   </g>
   <g id="patch_35">
    <path d="M 1755.505785 600.71875 
L 1777.819835 600.71875 
L 1777.819835 162.284989 
L 1755.505785 162.284989 
z
" clip-path="url(#p500ad2b26f)" style="fill: #447264"/>
   </g>
   <g id="patch_36">
    <path d="M 2053.026446 600.71875 
L 2075.340496 600.71875 
L 2075.340496 173.474713 
L 2053.026446 173.474713 
z
" clip-path="url(#p500ad2b26f)" style="fill: #447264"/>
   </g>
   <g id="patch_37">
    <path d="M 2350.547107 600.71875 
L 2372.861157 600.71875 
L 2372.861157 200.177466 
L 2350.547107 200.177466 
z
" clip-path="url(#p500ad2b26f)" style="fill: #447264"/>
   </g>
   <g id="patch_38">
    <path d="M 2648.067769 600.71875 
L 2670.381818 600.71875 
L 2670.381818 201.957649 
L 2648.067769 201.957649 
z
" clip-path="url(#p500ad2b26f)" style="fill: #447264"/>
   </g>
   <g id="patch_39">
    <path d="M 1160.464463 600.71875 
L 1182.778512 600.71875 
L 1182.778512 151.349576 
L 1160.464463 151.349576 
z
" clip-path="url(#p500ad2b26f)" style="fill: #447264"/>
   </g>
   <g id="patch_40">
    <path d="M 862.943802 600.71875 
L 885.257851 600.71875 
L 885.257851 173.474713 
L 862.943802 173.474713 
z
" clip-path="url(#p500ad2b26f)" style="fill: #447264"/>
   </g>
   <g id="patch_41">
    <path d="M 565.42314 600.71875 
L 587.73719 600.71875 
L 587.73719 188.224805 
L 565.42314 188.224805 
z
" clip-path="url(#p500ad2b26f)" style="fill: #447264"/>
   </g>
   <g id="patch_42">
    <path d="M 267.902479 600.71875 
L 290.216529 600.71875 
L 290.216529 199.668842 
L 267.902479 199.668842 
z
" clip-path="url(#p500ad2b26f)" style="fill: #447264"/>
   </g>
   <g id="patch_43">
    <path d="M 1621.621488 600.71875 
L 1643.935537 600.71875 
L 1643.935537 932.595814 
L 1621.621488 932.595814 
z
" clip-path="url(#p500ad2b26f)" style="fill: #a5a5a5"/>
   </g>
   <g id="patch_44">
    <path d="M 1919.142149 600.71875 
L 1941.456198 600.71875 
L 1941.456198 920.727924 
L 1919.142149 920.727924 
z
" clip-path="url(#p500ad2b26f)" style="fill: #a5a5a5"/>
   </g>
   <g id="patch_45">
    <path d="M 2216.66281 600.71875 
L 2238.97686 600.71875 
L 2238.97686 898.433245 
L 2216.66281 898.433245 
z
" clip-path="url(#p500ad2b26f)" style="fill: #a5a5a5"/>
   </g>
   <g id="patch_46">
    <path d="M 2514.183471 600.71875 
L 2536.497521 600.71875 
L 2536.497521 896.992144 
L 2514.183471 896.992144 
z
" clip-path="url(#p500ad2b26f)" style="fill: #a5a5a5"/>
   </g>
   <g id="patch_47">
    <path d="M 1026.580165 600.71875 
L 1048.894215 600.71875 
L 1048.894215 968.877649 
L 1026.580165 968.877649 
z
" clip-path="url(#p500ad2b26f)" style="fill: #a5a5a5"/>
   </g>
   <g id="patch_48">
    <path d="M 729.059504 600.71875 
L 751.373554 600.71875 
L 751.373554 934.71508 
L 729.059504 934.71508 
z
" clip-path="url(#p500ad2b26f)" style="fill: #a5a5a5"/>
   </g>
   <g id="patch_49">
    <path d="M 431.538843 600.71875 
L 453.852893 600.71875 
L 453.852893 916.15031 
L 431.538843 916.15031 
z
" clip-path="url(#p500ad2b26f)" style="fill: #a5a5a5"/>
   </g>
   <g id="patch_50">
    <path d="M 134.018182 600.71875 
L 156.332231 600.71875 
L 156.332231 907.503704 
L 134.018182 907.503704 
z
" clip-path="url(#p500ad2b26f)" style="fill: #a5a5a5"/>
   </g>
   <g id="patch_51">
    <path d="M 1655.092562 600.71875 
L 1677.406612 600.71875 
L 1677.406612 974.353833 
L 1655.092562 974.353833 
z
" clip-path="url(#p500ad2b26f)" style="fill: #ed7d31"/>
   </g>
   <g id="patch_52">
    <path d="M 1952.613223 600.71875 
L 1974.927273 600.71875 
L 1974.927273 969.165869 
L 1952.613223 969.165869 
z
" clip-path="url(#p500ad2b26f)" style="fill: #ed7d31"/>
   </g>
   <g id="patch_53">
    <path d="M 2250.133884 600.71875 
L 2272.447934 600.71875 
L 2272.447934 948.515741 
L 2250.133884 948.515741 
z
" clip-path="url(#p500ad2b26f)" style="fill: #ed7d31"/>
   </g>
   <g id="patch_54">
    <path d="M 2547.654545 600.71875 
L 2569.968595 600.71875 
L 2569.968595 925.831117 
L 2547.654545 925.831117 
z
" clip-path="url(#p500ad2b26f)" style="fill: #ed7d31"/>
   </g>
   <g id="patch_55">
    <path d="M 1060.05124 600.71875 
L 1082.365289 600.71875 
L 1082.365289 985.441833 
L 1060.05124 985.441833 
z
" clip-path="url(#p500ad2b26f)" style="fill: #ed7d31"/>
   </g>
   <g id="patch_56">
    <path d="M 762.530579 600.71875 
L 784.844628 600.71875 
L 784.844628 988.086677 
L 762.530579 988.086677 
z
" clip-path="url(#p500ad2b26f)" style="fill: #ed7d31"/>
   </g>
   <g id="patch_57">
    <path d="M 465.009917 600.71875 
L 487.323967 600.71875 
L 487.323967 961.434787 
L 465.009917 961.434787 
z
" clip-path="url(#p500ad2b26f)" style="fill: #ed7d31"/>
   </g>
   <g id="patch_58">
    <path d="M 167.489256 600.71875 
L 189.803306 600.71875 
L 189.803306 948.108842 
L 167.489256 948.108842 
z
" clip-path="url(#p500ad2b26f)" style="fill: #ed7d31"/>
   </g>
   <g id="patch_59">
    <path d="M 1688.563636 600.71875 
L 1710.877686 600.71875 
L 1710.877686 1014.865722 
L 1688.563636 1014.865722 
z
" clip-path="url(#p500ad2b26f)" style="fill: #ffc000"/>
   </g>
   <g id="patch_60">
    <path d="M 1986.084298 600.71875 
L 2008.398347 600.71875 
L 2008.398347 1001.132878 
L 1986.084298 1001.132878 
z
" clip-path="url(#p500ad2b26f)" style="fill: #ffc000"/>
   </g>
   <g id="patch_61">
    <path d="M 2283.604959 600.71875 
L 2305.919008 600.71875 
L 2305.919008 985.365539 
L 2283.604959 985.365539 
z
" clip-path="url(#p500ad2b26f)" style="fill: #ffc000"/>
   </g>
   <g id="patch_62">
    <path d="M 2581.12562 600.71875 
L 2603.439669 600.71875 
L 2603.439669 960.061502 
L 2581.12562 960.061502 
z
" clip-path="url(#p500ad2b26f)" style="fill: #ffc000"/>
   </g>
   <g id="patch_63">
    <path d="M 1093.522314 600.71875 
L 1115.836364 600.71875 
L 1115.836364 1028.471411 
L 1093.522314 1028.471411 
z
" clip-path="url(#p500ad2b26f)" style="fill: #ffc000"/>
   </g>
   <g id="patch_64">
    <path d="M 796.001653 600.71875 
L 818.315702 600.71875 
L 818.315702 1009.398016 
L 796.001653 1009.398016 
z
" clip-path="url(#p500ad2b26f)" style="fill: #ffc000"/>
   </g>
   <g id="patch_65">
    <path d="M 498.480992 600.71875 
L 520.795041 600.71875 
L 520.795041 1000.242787 
L 498.480992 1000.242787 
z
" clip-path="url(#p500ad2b26f)" style="fill: #ffc000"/>
   </g>
   <g id="patch_66">
    <path d="M 200.960331 600.71875 
L 223.27438 600.71875 
L 223.27438 969.089576 
L 200.960331 969.089576 
z
" clip-path="url(#p500ad2b26f)" style="fill: #ffc000"/>
   </g>
   <g id="patch_67">
    <path d="M 1722.034711 600.71875 
L 1744.34876 600.71875 
L 1744.34876 1026.436915 
L 1722.034711 1026.436915 
z
" clip-path="url(#p500ad2b26f)" style="fill: #4472c4"/>
   </g>
   <g id="patch_68">
    <path d="M 2019.555372 600.71875 
L 2041.869421 600.71875 
L 2041.869421 992.867741 
L 2019.555372 992.867741 
z
" clip-path="url(#p500ad2b26f)" style="fill: #4472c4"/>
   </g>
   <g id="patch_69">
    <path d="M 2317.076033 600.71875 
L 2339.390083 600.71875 
L 2339.390083 972.014163 
L 2317.076033 972.014163 
z
" clip-path="url(#p500ad2b26f)" style="fill: #4472c4"/>
   </g>
   <g id="patch_70">
    <path d="M 2614.596694 600.71875 
L 2636.910744 600.71875 
L 2636.910744 983.373429 
L 2614.596694 983.373429 
z
" clip-path="url(#p500ad2b26f)" style="fill: #4472c4"/>
   </g>
   <g id="patch_71">
    <path d="M 1126.993388 600.71875 
L 1149.307438 600.71875 
L 1149.307438 1047.290493 
L 1126.993388 1047.290493 
z
" clip-path="url(#p500ad2b26f)" style="fill: #4472c4"/>
   </g>
   <g id="patch_72">
    <path d="M 829.472727 600.71875 
L 851.786777 600.71875 
L 851.786777 1016.773062 
L 829.472727 1016.773062 
z
" clip-path="url(#p500ad2b26f)" style="fill: #4472c4"/>
   </g>
   <g id="patch_73">
    <path d="M 531.952066 600.71875 
L 554.266116 600.71875 
L 554.266116 985.407924 
L 531.952066 985.407924 
z
" clip-path="url(#p500ad2b26f)" style="fill: #4472c4"/>
   </g>
   <g id="patch_74">
    <path d="M 234.431405 600.71875 
L 256.745455 600.71875 
L 256.745455 1003.548842 
L 234.431405 1003.548842 
z
" clip-path="url(#p500ad2b26f)" style="fill: #4472c4"/>
   </g>
   <g id="patch_75">
    <path d="M 1755.505785 600.71875 
L 1777.819835 600.71875 
L 1777.819835 1023.893796 
L 1755.505785 1023.893796 
z
" clip-path="url(#p500ad2b26f)" style="fill: #447264"/>
   </g>
   <g id="patch_76">
    <path d="M 2053.026446 600.71875 
L 2075.340496 600.71875 
L 2075.340496 997.953979 
L 2053.026446 997.953979 
z
" clip-path="url(#p500ad2b26f)" style="fill: #447264"/>
   </g>
   <g id="patch_77">
    <path d="M 2350.547107 600.71875 
L 2372.861157 600.71875 
L 2372.861157 973.794346 
L 2350.547107 973.794346 
z
" clip-path="url(#p500ad2b26f)" style="fill: #447264"/>
   </g>
   <g id="patch_78">
    <path d="M 2648.067769 600.71875 
L 2670.381818 600.71875 
L 2670.381818 977.863337 
L 2648.067769 977.863337 
z
" clip-path="url(#p500ad2b26f)" style="fill: #447264"/>
   </g>
   <g id="patch_79">
    <path d="M 1160.464463 600.71875 
L 1182.778512 600.71875 
L 1182.778512 1035.846456 
L 1160.464463 1035.846456 
z
" clip-path="url(#p500ad2b26f)" style="fill: #447264"/>
   </g>
   <g id="patch_80">
    <path d="M 862.943802 600.71875 
L 885.257851 600.71875 
L 885.257851 1020.842053 
L 862.943802 1020.842053 
z
" clip-path="url(#p500ad2b26f)" style="fill: #447264"/>
   </g>
   <g id="patch_81">
    <path d="M 565.42314 600.71875 
L 587.73719 600.71875 
L 587.73719 1006.854897 
L 565.42314 1006.854897 
z
" clip-path="url(#p500ad2b26f)" style="fill: #447264"/>
   </g>
   <g id="patch_82">
    <path d="M 267.902479 600.71875 
L 290.216529 600.71875 
L 290.216529 992.359117 
L 267.902479 992.359117 
z
" clip-path="url(#p500ad2b26f)" style="fill: #447264"/>
   </g>
   <g id="matplotlib.axis_1">
    <g id="xtick_1">
     <g id="line2d_1">
      <path d="M 1699.720661 1155.11875 
L 1699.720661 46.31875 
" clip-path="url(#p500ad2b26f)" style="fill: none; stroke-dasharray: 2.96,1.28; stroke-dashoffset: 0; stroke: #b0b0b0; stroke-width: 0.8"/>
     </g>
     <g id="line2d_2">
      <defs>
       <path id="mf5a9269671" d="M 0 0 
L 0 3.5 
" style="stroke: #000000; stroke-width: 0.8"/>
      </defs>
      <g>
       <use xlink:href="#mf5a9269671" x="1699.720661" y="600.71875" style="stroke: #000000; stroke-width: 0.8"/>
      </g>
     </g>
     <g id="text_1">
      <!-- Hand -->
      <g transform="translate(1647.051911 638.1125) scale(0.4 -0.4)">
       <defs>
        <path id="DejaVuSans-48" d="M 628 4666 
L 1259 4666 
L 1259 2753 
L 3553 2753 
L 3553 4666 
L 4184 4666 
L 4184 0 
L 3553 0 
L 3553 2222 
L 1259 2222 
L 1259 0 
L 628 0 
L 628 4666 
z
" transform="scale(0.015625)"/>
        <path id="DejaVuSans-61" d="M 2194 1759 
Q 1497 1759 1228 1600 
Q 959 1441 959 1056 
Q 959 750 1161 570 
Q 1363 391 1709 391 
Q 2188 391 2477 730 
Q 2766 1069 2766 1631 
L 2766 1759 
L 2194 1759 
z
M 3341 1997 
L 3341 0 
L 2766 0 
L 2766 531 
Q 2569 213 2275 61 
Q 1981 -91 1556 -91 
Q 1019 -91 701 211 
Q 384 513 384 1019 
Q 384 1609 779 1909 
Q 1175 2209 1959 2209 
L 2766 2209 
L 2766 2266 
Q 2766 2663 2505 2880 
Q 2244 3097 1772 3097 
Q 1472 3097 1187 3025 
Q 903 2953 641 2809 
L 641 3341 
Q 956 3463 1253 3523 
Q 1550 3584 1831 3584 
Q 2591 3584 2966 3190 
Q 3341 2797 3341 1997 
z
" transform="scale(0.015625)"/>
        <path id="DejaVuSans-6e" d="M 3513 2113 
L 3513 0 
L 2938 0 
L 2938 2094 
Q 2938 2591 2744 2837 
Q 2550 3084 2163 3084 
Q 1697 3084 1428 2787 
Q 1159 2491 1159 1978 
L 1159 0 
L 581 0 
L 581 3500 
L 1159 3500 
L 1159 2956 
Q 1366 3272 1645 3428 
Q 1925 3584 2291 3584 
Q 2894 3584 3203 3211 
Q 3513 2838 3513 2113 
z
" transform="scale(0.015625)"/>
        <path id="DejaVuSans-64" d="M 2906 2969 
L 2906 4863 
L 3481 4863 
L 3481 0 
L 2906 0 
L 2906 525 
Q 2725 213 2448 61 
Q 2172 -91 1784 -91 
Q 1150 -91 751 415 
Q 353 922 353 1747 
Q 353 2572 751 3078 
Q 1150 3584 1784 3584 
Q 2172 3584 2448 3432 
Q 2725 3281 2906 2969 
z
M 947 1747 
Q 947 1113 1208 752 
Q 1469 391 1925 391 
Q 2381 391 2643 752 
Q 2906 1113 2906 1747 
Q 2906 2381 2643 2742 
Q 2381 3103 1925 3103 
Q 1469 3103 1208 2742 
Q 947 2381 947 1747 
z
" transform="scale(0.015625)"/>
       </defs>
       <use xlink:href="#DejaVuSans-48"/>
       <use xlink:href="#DejaVuSans-61" x="75.195312"/>
       <use xlink:href="#DejaVuSans-6e" x="136.474609"/>
       <use xlink:href="#DejaVuSans-64" x="199.853516"/>
      </g>
     </g>
    </g>
    <g id="xtick_2">
     <g id="line2d_3">
      <path d="M 1997.241322 1155.11875 
L 1997.241322 46.31875 
" clip-path="url(#p500ad2b26f)" style="fill: none; stroke-dasharray: 2.96,1.28; stroke-dashoffset: 0; stroke: #b0b0b0; stroke-width: 0.8"/>
     </g>
     <g id="line2d_4">
      <g>
       <use xlink:href="#mf5a9269671" x="1997.241322" y="600.71875" style="stroke: #000000; stroke-width: 0.8"/>
      </g>
     </g>
     <g id="text_2">
      <!-- Feet -->
      <g transform="translate(1954.385072 638.1125) scale(0.4 -0.4)">
       <defs>
        <path id="DejaVuSans-46" d="M 628 4666 
L 3309 4666 
L 3309 4134 
L 1259 4134 
L 1259 2759 
L 3109 2759 
L 3109 2228 
L 1259 2228 
L 1259 0 
L 628 0 
L 628 4666 
z
" transform="scale(0.015625)"/>
        <path id="DejaVuSans-65" d="M 3597 1894 
L 3597 1613 
L 953 1613 
Q 991 1019 1311 708 
Q 1631 397 2203 397 
Q 2534 397 2845 478 
Q 3156 559 3463 722 
L 3463 178 
Q 3153 47 2828 -22 
Q 2503 -91 2169 -91 
Q 1331 -91 842 396 
Q 353 884 353 1716 
Q 353 2575 817 3079 
Q 1281 3584 2069 3584 
Q 2775 3584 3186 3129 
Q 3597 2675 3597 1894 
z
M 3022 2063 
Q 3016 2534 2758 2815 
Q 2500 3097 2075 3097 
Q 1594 3097 1305 2825 
Q 1016 2553 972 2059 
L 3022 2063 
z
" transform="scale(0.015625)"/>
        <path id="DejaVuSans-74" d="M 1172 4494 
L 1172 3500 
L 2356 3500 
L 2356 3053 
L 1172 3053 
L 1172 1153 
Q 1172 725 1289 603 
Q 1406 481 1766 481 
L 2356 481 
L 2356 0 
L 1766 0 
Q 1100 0 847 248 
Q 594 497 594 1153 
L 594 3053 
L 172 3053 
L 172 3500 
L 594 3500 
L 594 4494 
L 1172 4494 
z
" transform="scale(0.015625)"/>
       </defs>
       <use xlink:href="#DejaVuSans-46"/>
       <use xlink:href="#DejaVuSans-65" x="52.019531"/>
       <use xlink:href="#DejaVuSans-65" x="113.542969"/>
       <use xlink:href="#DejaVuSans-74" x="175.066406"/>
      </g>
     </g>
    </g>
    <g id="xtick_3">
     <g id="line2d_5">
      <path d="M 2294.761983 1155.11875 
L 2294.761983 46.31875 
" clip-path="url(#p500ad2b26f)" style="fill: none; stroke-dasharray: 2.96,1.28; stroke-dashoffset: 0; stroke: #b0b0b0; stroke-width: 0.8"/>
     </g>
     <g id="line2d_6">
      <g>
       <use xlink:href="#mf5a9269671" x="2294.761983" y="600.71875" style="stroke: #000000; stroke-width: 0.8"/>
      </g>
     </g>
     <g id="text_3">
      <!-- Tongue -->
      <g transform="translate(2223.355733 638.1125) scale(0.4 -0.4)">
       <defs>
        <path id="DejaVuSans-54" d="M -19 4666 
L 3928 4666 
L 3928 4134 
L 2272 4134 
L 2272 0 
L 1638 0 
L 1638 4134 
L -19 4134 
L -19 4666 
z
" transform="scale(0.015625)"/>
        <path id="DejaVuSans-6f" d="M 1959 3097 
Q 1497 3097 1228 2736 
Q 959 2375 959 1747 
Q 959 1119 1226 758 
Q 1494 397 1959 397 
Q 2419 397 2687 759 
Q 2956 1122 2956 1747 
Q 2956 2369 2687 2733 
Q 2419 3097 1959 3097 
z
M 1959 3584 
Q 2709 3584 3137 3096 
Q 3566 2609 3566 1747 
Q 3566 888 3137 398 
Q 2709 -91 1959 -91 
Q 1206 -91 779 398 
Q 353 888 353 1747 
Q 353 2609 779 3096 
Q 1206 3584 1959 3584 
z
" transform="scale(0.015625)"/>
        <path id="DejaVuSans-67" d="M 2906 1791 
Q 2906 2416 2648 2759 
Q 2391 3103 1925 3103 
Q 1463 3103 1205 2759 
Q 947 2416 947 1791 
Q 947 1169 1205 825 
Q 1463 481 1925 481 
Q 2391 481 2648 825 
Q 2906 1169 2906 1791 
z
M 3481 434 
Q 3481 -459 3084 -895 
Q 2688 -1331 1869 -1331 
Q 1566 -1331 1297 -1286 
Q 1028 -1241 775 -1147 
L 775 -588 
Q 1028 -725 1275 -790 
Q 1522 -856 1778 -856 
Q 2344 -856 2625 -561 
Q 2906 -266 2906 331 
L 2906 616 
Q 2728 306 2450 153 
Q 2172 0 1784 0 
Q 1141 0 747 490 
Q 353 981 353 1791 
Q 353 2603 747 3093 
Q 1141 3584 1784 3584 
Q 2172 3584 2450 3431 
Q 2728 3278 2906 2969 
L 2906 3500 
L 3481 3500 
L 3481 434 
z
" transform="scale(0.015625)"/>
        <path id="DejaVuSans-75" d="M 544 1381 
L 544 3500 
L 1119 3500 
L 1119 1403 
Q 1119 906 1312 657 
Q 1506 409 1894 409 
Q 2359 409 2629 706 
Q 2900 1003 2900 1516 
L 2900 3500 
L 3475 3500 
L 3475 0 
L 2900 0 
L 2900 538 
Q 2691 219 2414 64 
Q 2138 -91 1772 -91 
Q 1169 -91 856 284 
Q 544 659 544 1381 
z
M 1991 3584 
L 1991 3584 
z
" transform="scale(0.015625)"/>
       </defs>
       <use xlink:href="#DejaVuSans-54"/>
       <use xlink:href="#DejaVuSans-6f" x="44.083984"/>
       <use xlink:href="#DejaVuSans-6e" x="105.265625"/>
       <use xlink:href="#DejaVuSans-67" x="168.644531"/>
       <use xlink:href="#DejaVuSans-75" x="232.121094"/>
       <use xlink:href="#DejaVuSans-65" x="295.5"/>
      </g>
     </g>
    </g>
    <g id="xtick_4">
     <g id="line2d_7">
      <path d="M 2592.282645 1155.11875 
L 2592.282645 46.31875 
" clip-path="url(#p500ad2b26f)" style="fill: none; stroke-dasharray: 2.96,1.28; stroke-dashoffset: 0; stroke: #b0b0b0; stroke-width: 0.8"/>
     </g>
     <g id="line2d_8">
      <g>
       <use xlink:href="#mf5a9269671" x="2592.282645" y="600.71875" style="stroke: #000000; stroke-width: 0.8"/>
      </g>
     </g>
     <g id="text_4">
      <!-- Mis -->
      <g transform="translate(2559.051395 638.1125) scale(0.4 -0.4)">
       <defs>
        <path id="DejaVuSans-4d" d="M 628 4666 
L 1569 4666 
L 2759 1491 
L 3956 4666 
L 4897 4666 
L 4897 0 
L 4281 0 
L 4281 4097 
L 3078 897 
L 2444 897 
L 1241 4097 
L 1241 0 
L 628 0 
L 628 4666 
z
" transform="scale(0.015625)"/>
        <path id="DejaVuSans-69" d="M 603 3500 
L 1178 3500 
L 1178 0 
L 603 0 
L 603 3500 
z
M 603 4863 
L 1178 4863 
L 1178 4134 
L 603 4134 
L 603 4863 
z
" transform="scale(0.015625)"/>
        <path id="DejaVuSans-73" d="M 2834 3397 
L 2834 2853 
Q 2591 2978 2328 3040 
Q 2066 3103 1784 3103 
Q 1356 3103 1142 2972 
Q 928 2841 928 2578 
Q 928 2378 1081 2264 
Q 1234 2150 1697 2047 
L 1894 2003 
Q 2506 1872 2764 1633 
Q 3022 1394 3022 966 
Q 3022 478 2636 193 
Q 2250 -91 1575 -91 
Q 1294 -91 989 -36 
Q 684 19 347 128 
L 347 722 
Q 666 556 975 473 
Q 1284 391 1588 391 
Q 1994 391 2212 530 
Q 2431 669 2431 922 
Q 2431 1156 2273 1281 
Q 2116 1406 1581 1522 
L 1381 1569 
Q 847 1681 609 1914 
Q 372 2147 372 2553 
Q 372 3047 722 3315 
Q 1072 3584 1716 3584 
Q 2034 3584 2315 3537 
Q 2597 3491 2834 3397 
z
" transform="scale(0.015625)"/>
       </defs>
       <use xlink:href="#DejaVuSans-4d"/>
       <use xlink:href="#DejaVuSans-69" x="86.279297"/>
       <use xlink:href="#DejaVuSans-73" x="114.0625"/>
      </g>
     </g>
    </g>
    <g id="xtick_5">
     <g id="line2d_9">
      <path d="M 1104.679339 1155.11875 
L 1104.679339 46.31875 
" clip-path="url(#p500ad2b26f)" style="fill: none; stroke-dasharray: 2.96,1.28; stroke-dashoffset: 0; stroke: #b0b0b0; stroke-width: 0.8"/>
     </g>
     <g id="line2d_10">
      <g>
       <use xlink:href="#mf5a9269671" x="1104.679339" y="600.71875" style="stroke: #000000; stroke-width: 0.8"/>
      </g>
     </g>
     <g id="text_5">
      <!--  Hand -->
      <g transform="translate(1045.654339 638.1125) scale(0.4 -0.4)">
       <defs>
        <path id="DejaVuSans-20" transform="scale(0.015625)"/>
       </defs>
       <use xlink:href="#DejaVuSans-20"/>
       <use xlink:href="#DejaVuSans-48" x="31.787109"/>
       <use xlink:href="#DejaVuSans-61" x="106.982422"/>
       <use xlink:href="#DejaVuSans-6e" x="168.261719"/>
       <use xlink:href="#DejaVuSans-64" x="231.640625"/>
      </g>
     </g>
    </g>
    <g id="xtick_6">
     <g id="line2d_11">
      <path d="M 807.158678 1155.11875 
L 807.158678 46.31875 
" clip-path="url(#p500ad2b26f)" style="fill: none; stroke-dasharray: 2.96,1.28; stroke-dashoffset: 0; stroke: #b0b0b0; stroke-width: 0.8"/>
     </g>
     <g id="line2d_12">
      <g>
       <use xlink:href="#mf5a9269671" x="807.158678" y="600.71875" style="stroke: #000000; stroke-width: 0.8"/>
      </g>
     </g>
     <g id="text_6">
      <!--  Feet -->
      <g transform="translate(757.946178 638.1125) scale(0.4 -0.4)">
       <use xlink:href="#DejaVuSans-20"/>
       <use xlink:href="#DejaVuSans-46" x="31.787109"/>
       <use xlink:href="#DejaVuSans-65" x="83.806641"/>
       <use xlink:href="#DejaVuSans-65" x="145.330078"/>
       <use xlink:href="#DejaVuSans-74" x="206.853516"/>
      </g>
     </g>
    </g>
    <g id="xtick_7">
     <g id="line2d_13">
      <path d="M 509.638017 1155.11875 
L 509.638017 46.31875 
" clip-path="url(#p500ad2b26f)" style="fill: none; stroke-dasharray: 2.96,1.28; stroke-dashoffset: 0; stroke: #b0b0b0; stroke-width: 0.8"/>
     </g>
     <g id="line2d_14">
      <g>
       <use xlink:href="#mf5a9269671" x="509.638017" y="600.71875" style="stroke: #000000; stroke-width: 0.8"/>
      </g>
     </g>
     <g id="text_7">
      <!--  Tongue -->
      <g transform="translate(431.875517 638.1125) scale(0.4 -0.4)">
       <use xlink:href="#DejaVuSans-20"/>
       <use xlink:href="#DejaVuSans-54" x="31.787109"/>
       <use xlink:href="#DejaVuSans-6f" x="75.871094"/>
       <use xlink:href="#DejaVuSans-6e" x="137.052734"/>
       <use xlink:href="#DejaVuSans-67" x="200.431641"/>
       <use xlink:href="#DejaVuSans-75" x="263.908203"/>
       <use xlink:href="#DejaVuSans-65" x="327.287109"/>
      </g>
     </g>
    </g>
    <g id="xtick_8">
     <g id="line2d_15">
      <path d="M 212.117355 1155.11875 
L 212.117355 46.31875 
" clip-path="url(#p500ad2b26f)" style="fill: none; stroke-dasharray: 2.96,1.28; stroke-dashoffset: 0; stroke: #b0b0b0; stroke-width: 0.8"/>
     </g>
     <g id="line2d_16">
      <g>
       <use xlink:href="#mf5a9269671" x="212.117355" y="600.71875" style="stroke: #000000; stroke-width: 0.8"/>
      </g>
     </g>
     <g id="text_8">
      <!--  Mis -->
      <g transform="translate(172.529855 638.1125) scale(0.4 -0.4)">
       <use xlink:href="#DejaVuSans-20"/>
       <use xlink:href="#DejaVuSans-4d" x="31.787109"/>
       <use xlink:href="#DejaVuSans-69" x="118.066406"/>
       <use xlink:href="#DejaVuSans-73" x="145.849609"/>
      </g>
     </g>
    </g>
   </g>
   <g id="matplotlib.axis_2">
    <g id="ytick_1">
     <g id="line2d_17">
      <path d="M 7.2 1155.11875 
L 2797.2 1155.11875 
" clip-path="url(#p500ad2b26f)" style="fill: none; stroke-dasharray: 2.96,1.28; stroke-dashoffset: 0; stroke: #b0b0b0; stroke-width: 0.8"/>
     </g>
     <g id="line2d_18">
      <defs>
       <path id="m81bde0d3e4" d="M 0 0 
L -3.5 0 
" style="stroke: #000000; stroke-width: 0.8"/>
      </defs>
      <g>
       <use xlink:href="#m81bde0d3e4" x="1402.2" y="1155.11875" style="stroke: #000000; stroke-width: 0.8"/>
      </g>
     </g>
     <g id="text_9">
      <!-- -1.0% -->
      <g transform="translate(1337.175 1162.717187) scale(0.2 -0.2)">
       <defs>
        <path id="DejaVuSans-2d" d="M 313 2009 
L 1997 2009 
L 1997 1497 
L 313 1497 
L 313 2009 
z
" transform="scale(0.015625)"/>
        <path id="DejaVuSans-31" d="M 794 531 
L 1825 531 
L 1825 4091 
L 703 3866 
L 703 4441 
L 1819 4666 
L 2450 4666 
L 2450 531 
L 3481 531 
L 3481 0 
L 794 0 
L 794 531 
z
" transform="scale(0.015625)"/>
        <path id="DejaVuSans-2e" d="M 684 794 
L 1344 794 
L 1344 0 
L 684 0 
L 684 794 
z
" transform="scale(0.015625)"/>
        <path id="DejaVuSans-30" d="M 2034 4250 
Q 1547 4250 1301 3770 
Q 1056 3291 1056 2328 
Q 1056 1369 1301 889 
Q 1547 409 2034 409 
Q 2525 409 2770 889 
Q 3016 1369 3016 2328 
Q 3016 3291 2770 3770 
Q 2525 4250 2034 4250 
z
M 2034 4750 
Q 2819 4750 3233 4129 
Q 3647 3509 3647 2328 
Q 3647 1150 3233 529 
Q 2819 -91 2034 -91 
Q 1250 -91 836 529 
Q 422 1150 422 2328 
Q 422 3509 836 4129 
Q 1250 4750 2034 4750 
z
" transform="scale(0.015625)"/>
        <path id="DejaVuSans-25" d="M 4653 2053 
Q 4381 2053 4226 1822 
Q 4072 1591 4072 1178 
Q 4072 772 4226 539 
Q 4381 306 4653 306 
Q 4919 306 5073 539 
Q 5228 772 5228 1178 
Q 5228 1588 5073 1820 
Q 4919 2053 4653 2053 
z
M 4653 2450 
Q 5147 2450 5437 2106 
Q 5728 1763 5728 1178 
Q 5728 594 5436 251 
Q 5144 -91 4653 -91 
Q 4153 -91 3862 251 
Q 3572 594 3572 1178 
Q 3572 1766 3864 2108 
Q 4156 2450 4653 2450 
z
M 1428 4353 
Q 1159 4353 1004 4120 
Q 850 3888 850 3481 
Q 850 3069 1003 2837 
Q 1156 2606 1428 2606 
Q 1700 2606 1854 2837 
Q 2009 3069 2009 3481 
Q 2009 3884 1853 4118 
Q 1697 4353 1428 4353 
z
M 4250 4750 
L 4750 4750 
L 1831 -91 
L 1331 -91 
L 4250 4750 
z
M 1428 4750 
Q 1922 4750 2215 4408 
Q 2509 4066 2509 3481 
Q 2509 2891 2217 2550 
Q 1925 2209 1428 2209 
Q 931 2209 642 2551 
Q 353 2894 353 3481 
Q 353 4063 643 4406 
Q 934 4750 1428 4750 
z
" transform="scale(0.015625)"/>
       </defs>
       <use xlink:href="#DejaVuSans-2d"/>
       <use xlink:href="#DejaVuSans-31" x="36.083984"/>
       <use xlink:href="#DejaVuSans-2e" x="99.707031"/>
       <use xlink:href="#DejaVuSans-30" x="131.494141"/>
       <use xlink:href="#DejaVuSans-25" x="195.117188"/>
      </g>
     </g>
    </g>
    <g id="ytick_2">
     <g id="line2d_19">
      <path d="M 7.2 1099.67875 
L 2797.2 1099.67875 
" clip-path="url(#p500ad2b26f)" style="fill: none; stroke-dasharray: 2.96,1.28; stroke-dashoffset: 0; stroke: #b0b0b0; stroke-width: 0.8"/>
     </g>
     <g id="line2d_20">
      <g>
       <use xlink:href="#m81bde0d3e4" x="1402.2" y="1099.67875" style="stroke: #000000; stroke-width: 0.8"/>
      </g>
     </g>
     <g id="text_10">
      <!-- -0.9% -->
      <g transform="translate(1337.175 1107.277187) scale(0.2 -0.2)">
       <defs>
        <path id="DejaVuSans-39" d="M 703 97 
L 703 672 
Q 941 559 1184 500 
Q 1428 441 1663 441 
Q 2288 441 2617 861 
Q 2947 1281 2994 2138 
Q 2813 1869 2534 1725 
Q 2256 1581 1919 1581 
Q 1219 1581 811 2004 
Q 403 2428 403 3163 
Q 403 3881 828 4315 
Q 1253 4750 1959 4750 
Q 2769 4750 3195 4129 
Q 3622 3509 3622 2328 
Q 3622 1225 3098 567 
Q 2575 -91 1691 -91 
Q 1453 -91 1209 -44 
Q 966 3 703 97 
z
M 1959 2075 
Q 2384 2075 2632 2365 
Q 2881 2656 2881 3163 
Q 2881 3666 2632 3958 
Q 2384 4250 1959 4250 
Q 1534 4250 1286 3958 
Q 1038 3666 1038 3163 
Q 1038 2656 1286 2365 
Q 1534 2075 1959 2075 
z
" transform="scale(0.015625)"/>
       </defs>
       <use xlink:href="#DejaVuSans-2d"/>
       <use xlink:href="#DejaVuSans-30" x="36.083984"/>
       <use xlink:href="#DejaVuSans-2e" x="99.707031"/>
       <use xlink:href="#DejaVuSans-39" x="131.494141"/>
       <use xlink:href="#DejaVuSans-25" x="195.117188"/>
      </g>
     </g>
    </g>
    <g id="ytick_3">
     <g id="line2d_21">
      <path d="M 7.2 1044.23875 
L 2797.2 1044.23875 
" clip-path="url(#p500ad2b26f)" style="fill: none; stroke-dasharray: 2.96,1.28; stroke-dashoffset: 0; stroke: #b0b0b0; stroke-width: 0.8"/>
     </g>
     <g id="line2d_22">
      <g>
       <use xlink:href="#m81bde0d3e4" x="1402.2" y="1044.23875" style="stroke: #000000; stroke-width: 0.8"/>
      </g>
     </g>
     <g id="text_11">
      <!-- -0.8% -->
      <g transform="translate(1337.175 1051.837187) scale(0.2 -0.2)">
       <defs>
        <path id="DejaVuSans-38" d="M 2034 2216 
Q 1584 2216 1326 1975 
Q 1069 1734 1069 1313 
Q 1069 891 1326 650 
Q 1584 409 2034 409 
Q 2484 409 2743 651 
Q 3003 894 3003 1313 
Q 3003 1734 2745 1975 
Q 2488 2216 2034 2216 
z
M 1403 2484 
Q 997 2584 770 2862 
Q 544 3141 544 3541 
Q 544 4100 942 4425 
Q 1341 4750 2034 4750 
Q 2731 4750 3128 4425 
Q 3525 4100 3525 3541 
Q 3525 3141 3298 2862 
Q 3072 2584 2669 2484 
Q 3125 2378 3379 2068 
Q 3634 1759 3634 1313 
Q 3634 634 3220 271 
Q 2806 -91 2034 -91 
Q 1263 -91 848 271 
Q 434 634 434 1313 
Q 434 1759 690 2068 
Q 947 2378 1403 2484 
z
M 1172 3481 
Q 1172 3119 1398 2916 
Q 1625 2713 2034 2713 
Q 2441 2713 2670 2916 
Q 2900 3119 2900 3481 
Q 2900 3844 2670 4047 
Q 2441 4250 2034 4250 
Q 1625 4250 1398 4047 
Q 1172 3844 1172 3481 
z
" transform="scale(0.015625)"/>
       </defs>
       <use xlink:href="#DejaVuSans-2d"/>
       <use xlink:href="#DejaVuSans-30" x="36.083984"/>
       <use xlink:href="#DejaVuSans-2e" x="99.707031"/>
       <use xlink:href="#DejaVuSans-38" x="131.494141"/>
       <use xlink:href="#DejaVuSans-25" x="195.117188"/>
      </g>
     </g>
    </g>
    <g id="ytick_4">
     <g id="line2d_23">
      <path d="M 7.2 988.79875 
L 2797.2 988.79875 
" clip-path="url(#p500ad2b26f)" style="fill: none; stroke-dasharray: 2.96,1.28; stroke-dashoffset: 0; stroke: #b0b0b0; stroke-width: 0.8"/>
     </g>
     <g id="line2d_24">
      <g>
       <use xlink:href="#m81bde0d3e4" x="1402.2" y="988.79875" style="stroke: #000000; stroke-width: 0.8"/>
      </g>
     </g>
     <g id="text_12">
      <!-- -0.7% -->
      <g transform="translate(1337.175 996.397187) scale(0.2 -0.2)">
       <defs>
        <path id="DejaVuSans-37" d="M 525 4666 
L 3525 4666 
L 3525 4397 
L 1831 0 
L 1172 0 
L 2766 4134 
L 525 4134 
L 525 4666 
z
" transform="scale(0.015625)"/>
       </defs>
       <use xlink:href="#DejaVuSans-2d"/>
       <use xlink:href="#DejaVuSans-30" x="36.083984"/>
       <use xlink:href="#DejaVuSans-2e" x="99.707031"/>
       <use xlink:href="#DejaVuSans-37" x="131.494141"/>
       <use xlink:href="#DejaVuSans-25" x="195.117188"/>
      </g>
     </g>
    </g>
    <g id="ytick_5">
     <g id="line2d_25">
      <path d="M 7.2 933.35875 
L 2797.2 933.35875 
" clip-path="url(#p500ad2b26f)" style="fill: none; stroke-dasharray: 2.96,1.28; stroke-dashoffset: 0; stroke: #b0b0b0; stroke-width: 0.8"/>
     </g>
     <g id="line2d_26">
      <g>
       <use xlink:href="#m81bde0d3e4" x="1402.2" y="933.35875" style="stroke: #000000; stroke-width: 0.8"/>
      </g>
     </g>
     <g id="text_13">
      <!-- -0.6% -->
      <g transform="translate(1337.175 940.957187) scale(0.2 -0.2)">
       <defs>
        <path id="DejaVuSans-36" d="M 2113 2584 
Q 1688 2584 1439 2293 
Q 1191 2003 1191 1497 
Q 1191 994 1439 701 
Q 1688 409 2113 409 
Q 2538 409 2786 701 
Q 3034 994 3034 1497 
Q 3034 2003 2786 2293 
Q 2538 2584 2113 2584 
z
M 3366 4563 
L 3366 3988 
Q 3128 4100 2886 4159 
Q 2644 4219 2406 4219 
Q 1781 4219 1451 3797 
Q 1122 3375 1075 2522 
Q 1259 2794 1537 2939 
Q 1816 3084 2150 3084 
Q 2853 3084 3261 2657 
Q 3669 2231 3669 1497 
Q 3669 778 3244 343 
Q 2819 -91 2113 -91 
Q 1303 -91 875 529 
Q 447 1150 447 2328 
Q 447 3434 972 4092 
Q 1497 4750 2381 4750 
Q 2619 4750 2861 4703 
Q 3103 4656 3366 4563 
z
" transform="scale(0.015625)"/>
       </defs>
       <use xlink:href="#DejaVuSans-2d"/>
       <use xlink:href="#DejaVuSans-30" x="36.083984"/>
       <use xlink:href="#DejaVuSans-2e" x="99.707031"/>
       <use xlink:href="#DejaVuSans-36" x="131.494141"/>
       <use xlink:href="#DejaVuSans-25" x="195.117188"/>
      </g>
     </g>
    </g>
    <g id="ytick_6">
     <g id="line2d_27">
      <path d="M 7.2 877.91875 
L 2797.2 877.91875 
" clip-path="url(#p500ad2b26f)" style="fill: none; stroke-dasharray: 2.96,1.28; stroke-dashoffset: 0; stroke: #b0b0b0; stroke-width: 0.8"/>
     </g>
     <g id="line2d_28">
      <g>
       <use xlink:href="#m81bde0d3e4" x="1402.2" y="877.91875" style="stroke: #000000; stroke-width: 0.8"/>
      </g>
     </g>
     <g id="text_14">
      <!-- -0.5% -->
      <g transform="translate(1337.175 885.517187) scale(0.2 -0.2)">
       <defs>
        <path id="DejaVuSans-35" d="M 691 4666 
L 3169 4666 
L 3169 4134 
L 1269 4134 
L 1269 2991 
Q 1406 3038 1543 3061 
Q 1681 3084 1819 3084 
Q 2600 3084 3056 2656 
Q 3513 2228 3513 1497 
Q 3513 744 3044 326 
Q 2575 -91 1722 -91 
Q 1428 -91 1123 -41 
Q 819 9 494 109 
L 494 744 
Q 775 591 1075 516 
Q 1375 441 1709 441 
Q 2250 441 2565 725 
Q 2881 1009 2881 1497 
Q 2881 1984 2565 2268 
Q 2250 2553 1709 2553 
Q 1456 2553 1204 2497 
Q 953 2441 691 2322 
L 691 4666 
z
" transform="scale(0.015625)"/>
       </defs>
       <use xlink:href="#DejaVuSans-2d"/>
       <use xlink:href="#DejaVuSans-30" x="36.083984"/>
       <use xlink:href="#DejaVuSans-2e" x="99.707031"/>
       <use xlink:href="#DejaVuSans-35" x="131.494141"/>
       <use xlink:href="#DejaVuSans-25" x="195.117188"/>
      </g>
     </g>
    </g>
    <g id="ytick_7">
     <g id="line2d_29">
      <path d="M 7.2 822.47875 
L 2797.2 822.47875 
" clip-path="url(#p500ad2b26f)" style="fill: none; stroke-dasharray: 2.96,1.28; stroke-dashoffset: 0; stroke: #b0b0b0; stroke-width: 0.8"/>
     </g>
     <g id="line2d_30">
      <g>
       <use xlink:href="#m81bde0d3e4" x="1402.2" y="822.47875" style="stroke: #000000; stroke-width: 0.8"/>
      </g>
     </g>
     <g id="text_15">
      <!-- -0.4% -->
      <g transform="translate(1337.175 830.077187) scale(0.2 -0.2)">
       <defs>
        <path id="DejaVuSans-34" d="M 2419 4116 
L 825 1625 
L 2419 1625 
L 2419 4116 
z
M 2253 4666 
L 3047 4666 
L 3047 1625 
L 3713 1625 
L 3713 1100 
L 3047 1100 
L 3047 0 
L 2419 0 
L 2419 1100 
L 313 1100 
L 313 1709 
L 2253 4666 
z
" transform="scale(0.015625)"/>
       </defs>
       <use xlink:href="#DejaVuSans-2d"/>
       <use xlink:href="#DejaVuSans-30" x="36.083984"/>
       <use xlink:href="#DejaVuSans-2e" x="99.707031"/>
       <use xlink:href="#DejaVuSans-34" x="131.494141"/>
       <use xlink:href="#DejaVuSans-25" x="195.117188"/>
      </g>
     </g>
    </g>
    <g id="ytick_8">
     <g id="line2d_31">
      <path d="M 7.2 767.03875 
L 2797.2 767.03875 
" clip-path="url(#p500ad2b26f)" style="fill: none; stroke-dasharray: 2.96,1.28; stroke-dashoffset: 0; stroke: #b0b0b0; stroke-width: 0.8"/>
     </g>
     <g id="line2d_32">
      <g>
       <use xlink:href="#m81bde0d3e4" x="1402.2" y="767.03875" style="stroke: #000000; stroke-width: 0.8"/>
      </g>
     </g>
     <g id="text_16">
      <!-- -0.3% -->
      <g transform="translate(1337.175 774.637187) scale(0.2 -0.2)">
       <defs>
        <path id="DejaVuSans-33" d="M 2597 2516 
Q 3050 2419 3304 2112 
Q 3559 1806 3559 1356 
Q 3559 666 3084 287 
Q 2609 -91 1734 -91 
Q 1441 -91 1130 -33 
Q 819 25 488 141 
L 488 750 
Q 750 597 1062 519 
Q 1375 441 1716 441 
Q 2309 441 2620 675 
Q 2931 909 2931 1356 
Q 2931 1769 2642 2001 
Q 2353 2234 1838 2234 
L 1294 2234 
L 1294 2753 
L 1863 2753 
Q 2328 2753 2575 2939 
Q 2822 3125 2822 3475 
Q 2822 3834 2567 4026 
Q 2313 4219 1838 4219 
Q 1578 4219 1281 4162 
Q 984 4106 628 3988 
L 628 4550 
Q 988 4650 1302 4700 
Q 1616 4750 1894 4750 
Q 2613 4750 3031 4423 
Q 3450 4097 3450 3541 
Q 3450 3153 3228 2886 
Q 3006 2619 2597 2516 
z
" transform="scale(0.015625)"/>
       </defs>
       <use xlink:href="#DejaVuSans-2d"/>
       <use xlink:href="#DejaVuSans-30" x="36.083984"/>
       <use xlink:href="#DejaVuSans-2e" x="99.707031"/>
       <use xlink:href="#DejaVuSans-33" x="131.494141"/>
       <use xlink:href="#DejaVuSans-25" x="195.117188"/>
      </g>
     </g>
    </g>
    <g id="ytick_9">
     <g id="line2d_33">
      <path d="M 7.2 711.59875 
L 2797.2 711.59875 
" clip-path="url(#p500ad2b26f)" style="fill: none; stroke-dasharray: 2.96,1.28; stroke-dashoffset: 0; stroke: #b0b0b0; stroke-width: 0.8"/>
     </g>
     <g id="line2d_34">
      <g>
       <use xlink:href="#m81bde0d3e4" x="1402.2" y="711.59875" style="stroke: #000000; stroke-width: 0.8"/>
      </g>
     </g>
     <g id="text_17">
      <!-- -0.2% -->
      <g transform="translate(1337.175 719.197187) scale(0.2 -0.2)">
       <defs>
        <path id="DejaVuSans-32" d="M 1228 531 
L 3431 531 
L 3431 0 
L 469 0 
L 469 531 
Q 828 903 1448 1529 
Q 2069 2156 2228 2338 
Q 2531 2678 2651 2914 
Q 2772 3150 2772 3378 
Q 2772 3750 2511 3984 
Q 2250 4219 1831 4219 
Q 1534 4219 1204 4116 
Q 875 4013 500 3803 
L 500 4441 
Q 881 4594 1212 4672 
Q 1544 4750 1819 4750 
Q 2544 4750 2975 4387 
Q 3406 4025 3406 3419 
Q 3406 3131 3298 2873 
Q 3191 2616 2906 2266 
Q 2828 2175 2409 1742 
Q 1991 1309 1228 531 
z
" transform="scale(0.015625)"/>
       </defs>
       <use xlink:href="#DejaVuSans-2d"/>
       <use xlink:href="#DejaVuSans-30" x="36.083984"/>
       <use xlink:href="#DejaVuSans-2e" x="99.707031"/>
       <use xlink:href="#DejaVuSans-32" x="131.494141"/>
       <use xlink:href="#DejaVuSans-25" x="195.117188"/>
      </g>
     </g>
    </g>
    <g id="ytick_10">
     <g id="line2d_35">
      <path d="M 7.2 656.15875 
L 2797.2 656.15875 
" clip-path="url(#p500ad2b26f)" style="fill: none; stroke-dasharray: 2.96,1.28; stroke-dashoffset: 0; stroke: #b0b0b0; stroke-width: 0.8"/>
     </g>
     <g id="line2d_36">
      <g>
       <use xlink:href="#m81bde0d3e4" x="1402.2" y="656.15875" style="stroke: #000000; stroke-width: 0.8"/>
      </g>
     </g>
     <g id="text_18">
      <!-- -0.1% -->
      <g transform="translate(1337.175 663.757187) scale(0.2 -0.2)">
       <use xlink:href="#DejaVuSans-2d"/>
       <use xlink:href="#DejaVuSans-30" x="36.083984"/>
       <use xlink:href="#DejaVuSans-2e" x="99.707031"/>
       <use xlink:href="#DejaVuSans-31" x="131.494141"/>
       <use xlink:href="#DejaVuSans-25" x="195.117188"/>
      </g>
     </g>
    </g>
    <g id="ytick_11">
     <g id="line2d_37">
      <path d="M 7.2 600.71875 
L 2797.2 600.71875 
" clip-path="url(#p500ad2b26f)" style="fill: none; stroke-dasharray: 2.96,1.28; stroke-dashoffset: 0; stroke: #b0b0b0; stroke-width: 0.8"/>
     </g>
     <g id="line2d_38">
      <g>
       <use xlink:href="#m81bde0d3e4" x="1402.2" y="600.71875" style="stroke: #000000; stroke-width: 0.8"/>
      </g>
     </g>
     <g id="text_19">
      <!-- 0.0% -->
      <g transform="translate(1344.390625 608.317187) scale(0.2 -0.2)">
       <use xlink:href="#DejaVuSans-30"/>
       <use xlink:href="#DejaVuSans-2e" x="63.623047"/>
       <use xlink:href="#DejaVuSans-30" x="95.410156"/>
       <use xlink:href="#DejaVuSans-25" x="159.033203"/>
      </g>
     </g>
    </g>
    <g id="ytick_12">
     <g id="line2d_39">
      <path d="M 7.2 545.27875 
L 2797.2 545.27875 
" clip-path="url(#p500ad2b26f)" style="fill: none; stroke-dasharray: 2.96,1.28; stroke-dashoffset: 0; stroke: #b0b0b0; stroke-width: 0.8"/>
     </g>
     <g id="line2d_40">
      <g>
       <use xlink:href="#m81bde0d3e4" x="1402.2" y="545.27875" style="stroke: #000000; stroke-width: 0.8"/>
      </g>
     </g>
     <g id="text_20">
      <!-- 0.1% -->
      <g transform="translate(1344.390625 552.877187) scale(0.2 -0.2)">
       <use xlink:href="#DejaVuSans-30"/>
       <use xlink:href="#DejaVuSans-2e" x="63.623047"/>
       <use xlink:href="#DejaVuSans-31" x="95.410156"/>
       <use xlink:href="#DejaVuSans-25" x="159.033203"/>
      </g>
     </g>
    </g>
    <g id="ytick_13">
     <g id="line2d_41">
      <path d="M 7.2 489.83875 
L 2797.2 489.83875 
" clip-path="url(#p500ad2b26f)" style="fill: none; stroke-dasharray: 2.96,1.28; stroke-dashoffset: 0; stroke: #b0b0b0; stroke-width: 0.8"/>
     </g>
     <g id="line2d_42">
      <g>
       <use xlink:href="#m81bde0d3e4" x="1402.2" y="489.83875" style="stroke: #000000; stroke-width: 0.8"/>
      </g>
     </g>
     <g id="text_21">
      <!-- 0.2% -->
      <g transform="translate(1344.390625 497.437187) scale(0.2 -0.2)">
       <use xlink:href="#DejaVuSans-30"/>
       <use xlink:href="#DejaVuSans-2e" x="63.623047"/>
       <use xlink:href="#DejaVuSans-32" x="95.410156"/>
       <use xlink:href="#DejaVuSans-25" x="159.033203"/>
      </g>
     </g>
    </g>
    <g id="ytick_14">
     <g id="line2d_43">
      <path d="M 7.2 434.39875 
L 2797.2 434.39875 
" clip-path="url(#p500ad2b26f)" style="fill: none; stroke-dasharray: 2.96,1.28; stroke-dashoffset: 0; stroke: #b0b0b0; stroke-width: 0.8"/>
     </g>
     <g id="line2d_44">
      <g>
       <use xlink:href="#m81bde0d3e4" x="1402.2" y="434.39875" style="stroke: #000000; stroke-width: 0.8"/>
      </g>
     </g>
     <g id="text_22">
      <!-- 0.3% -->
      <g transform="translate(1344.390625 441.997187) scale(0.2 -0.2)">
       <use xlink:href="#DejaVuSans-30"/>
       <use xlink:href="#DejaVuSans-2e" x="63.623047"/>
       <use xlink:href="#DejaVuSans-33" x="95.410156"/>
       <use xlink:href="#DejaVuSans-25" x="159.033203"/>
      </g>
     </g>
    </g>
    <g id="ytick_15">
     <g id="line2d_45">
      <path d="M 7.2 378.95875 
L 2797.2 378.95875 
" clip-path="url(#p500ad2b26f)" style="fill: none; stroke-dasharray: 2.96,1.28; stroke-dashoffset: 0; stroke: #b0b0b0; stroke-width: 0.8"/>
     </g>
     <g id="line2d_46">
      <g>
       <use xlink:href="#m81bde0d3e4" x="1402.2" y="378.95875" style="stroke: #000000; stroke-width: 0.8"/>
      </g>
     </g>
     <g id="text_23">
      <!-- 0.4% -->
      <g transform="translate(1344.390625 386.557187) scale(0.2 -0.2)">
       <use xlink:href="#DejaVuSans-30"/>
       <use xlink:href="#DejaVuSans-2e" x="63.623047"/>
       <use xlink:href="#DejaVuSans-34" x="95.410156"/>
       <use xlink:href="#DejaVuSans-25" x="159.033203"/>
      </g>
     </g>
    </g>
    <g id="ytick_16">
     <g id="line2d_47">
      <path d="M 7.2 323.51875 
L 2797.2 323.51875 
" clip-path="url(#p500ad2b26f)" style="fill: none; stroke-dasharray: 2.96,1.28; stroke-dashoffset: 0; stroke: #b0b0b0; stroke-width: 0.8"/>
     </g>
     <g id="line2d_48">
      <g>
       <use xlink:href="#m81bde0d3e4" x="1402.2" y="323.51875" style="stroke: #000000; stroke-width: 0.8"/>
      </g>
     </g>
     <g id="text_24">
      <!-- 0.5% -->
      <g transform="translate(1344.390625 331.117187) scale(0.2 -0.2)">
       <use xlink:href="#DejaVuSans-30"/>
       <use xlink:href="#DejaVuSans-2e" x="63.623047"/>
       <use xlink:href="#DejaVuSans-35" x="95.410156"/>
       <use xlink:href="#DejaVuSans-25" x="159.033203"/>
      </g>
     </g>
    </g>
    <g id="ytick_17">
     <g id="line2d_49">
      <path d="M 7.2 268.07875 
L 2797.2 268.07875 
" clip-path="url(#p500ad2b26f)" style="fill: none; stroke-dasharray: 2.96,1.28; stroke-dashoffset: 0; stroke: #b0b0b0; stroke-width: 0.8"/>
     </g>
     <g id="line2d_50">
      <g>
       <use xlink:href="#m81bde0d3e4" x="1402.2" y="268.07875" style="stroke: #000000; stroke-width: 0.8"/>
      </g>
     </g>
     <g id="text_25">
      <!-- 0.6% -->
      <g transform="translate(1344.390625 275.677187) scale(0.2 -0.2)">
       <use xlink:href="#DejaVuSans-30"/>
       <use xlink:href="#DejaVuSans-2e" x="63.623047"/>
       <use xlink:href="#DejaVuSans-36" x="95.410156"/>
       <use xlink:href="#DejaVuSans-25" x="159.033203"/>
      </g>
     </g>
    </g>
    <g id="ytick_18">
     <g id="line2d_51">
      <path d="M 7.2 212.63875 
L 2797.2 212.63875 
" clip-path="url(#p500ad2b26f)" style="fill: none; stroke-dasharray: 2.96,1.28; stroke-dashoffset: 0; stroke: #b0b0b0; stroke-width: 0.8"/>
     </g>
     <g id="line2d_52">
      <g>
       <use xlink:href="#m81bde0d3e4" x="1402.2" y="212.63875" style="stroke: #000000; stroke-width: 0.8"/>
      </g>
     </g>
     <g id="text_26">
      <!-- 0.7% -->
      <g transform="translate(1344.390625 220.237187) scale(0.2 -0.2)">
       <use xlink:href="#DejaVuSans-30"/>
       <use xlink:href="#DejaVuSans-2e" x="63.623047"/>
       <use xlink:href="#DejaVuSans-37" x="95.410156"/>
       <use xlink:href="#DejaVuSans-25" x="159.033203"/>
      </g>
     </g>
    </g>
    <g id="ytick_19">
     <g id="line2d_53">
      <path d="M 7.2 157.19875 
L 2797.2 157.19875 
" clip-path="url(#p500ad2b26f)" style="fill: none; stroke-dasharray: 2.96,1.28; stroke-dashoffset: 0; stroke: #b0b0b0; stroke-width: 0.8"/>
     </g>
     <g id="line2d_54">
      <g>
       <use xlink:href="#m81bde0d3e4" x="1402.2" y="157.19875" style="stroke: #000000; stroke-width: 0.8"/>
      </g>
     </g>
     <g id="text_27">
      <!-- 0.8% -->
      <g transform="translate(1344.390625 164.797187) scale(0.2 -0.2)">
       <use xlink:href="#DejaVuSans-30"/>
       <use xlink:href="#DejaVuSans-2e" x="63.623047"/>
       <use xlink:href="#DejaVuSans-38" x="95.410156"/>
       <use xlink:href="#DejaVuSans-25" x="159.033203"/>
      </g>
     </g>
    </g>
    <g id="ytick_20">
     <g id="line2d_55">
      <path d="M 7.2 101.75875 
L 2797.2 101.75875 
" clip-path="url(#p500ad2b26f)" style="fill: none; stroke-dasharray: 2.96,1.28; stroke-dashoffset: 0; stroke: #b0b0b0; stroke-width: 0.8"/>
     </g>
     <g id="line2d_56">
      <g>
       <use xlink:href="#m81bde0d3e4" x="1402.2" y="101.75875" style="stroke: #000000; stroke-width: 0.8"/>
      </g>
     </g>
     <g id="text_28">
      <!-- 0.9% -->
      <g transform="translate(1344.390625 109.357187) scale(0.2 -0.2)">
       <use xlink:href="#DejaVuSans-30"/>
       <use xlink:href="#DejaVuSans-2e" x="63.623047"/>
       <use xlink:href="#DejaVuSans-39" x="95.410156"/>
       <use xlink:href="#DejaVuSans-25" x="159.033203"/>
      </g>
     </g>
    </g>
    <g id="ytick_21">
     <g id="line2d_57">
      <path d="M 7.2 46.31875 
L 2797.2 46.31875 
" clip-path="url(#p500ad2b26f)" style="fill: none; stroke-dasharray: 2.96,1.28; stroke-dashoffset: 0; stroke: #b0b0b0; stroke-width: 0.8"/>
     </g>
     <g id="line2d_58">
      <g>
       <use xlink:href="#m81bde0d3e4" x="1402.2" y="46.31875" style="stroke: #000000; stroke-width: 0.8"/>
      </g>
     </g>
     <g id="text_29">
      <!-- 1.0% -->
      <g transform="translate(1344.390625 53.917187) scale(0.2 -0.2)">
       <use xlink:href="#DejaVuSans-31"/>
       <use xlink:href="#DejaVuSans-2e" x="63.623047"/>
       <use xlink:href="#DejaVuSans-30" x="95.410156"/>
       <use xlink:href="#DejaVuSans-25" x="159.033203"/>
      </g>
     </g>
    </g>
   </g>
   <g id="patch_83">
    <path d="M 1402.2 1155.11875 
L 1402.2 46.31875 
" style="fill: none; stroke: #000000; stroke-width: 0.8; stroke-linejoin: miter; stroke-linecap: square"/>
   </g>
   <g id="patch_84">
    <path d="M 2797.2 1155.11875 
L 2797.2 46.31875 
" style="fill: none"/>
   </g>
   <g id="patch_85">
    <path d="M 7.2 600.71875 
L 2797.2 600.71875 
" style="fill: none; stroke: #000000; stroke-width: 0.8; stroke-linejoin: miter; stroke-linecap: square"/>
   </g>
   <g id="patch_86">
    <path d="M 7.2 46.31875 
L 2797.2 46.31875 
" style="fill: none"/>
   </g>
   <g id="text_30">
    <!-- LDA/10F -->
    <g transform="translate(7.2 76.7125) scale(0.4 -0.4)">
     <defs>
      <path id="DejaVuSans-Bold-4c" d="M 588 4666 
L 1791 4666 
L 1791 909 
L 3903 909 
L 3903 0 
L 588 0 
L 588 4666 
z
" transform="scale(0.015625)"/>
      <path id="DejaVuSans-Bold-44" d="M 1791 3756 
L 1791 909 
L 2222 909 
Q 2959 909 3348 1275 
Q 3738 1641 3738 2338 
Q 3738 3031 3350 3393 
Q 2963 3756 2222 3756 
L 1791 3756 
z
M 588 4666 
L 1856 4666 
Q 2919 4666 3439 4514 
Q 3959 4363 4331 4000 
Q 4659 3684 4818 3271 
Q 4978 2859 4978 2338 
Q 4978 1809 4818 1395 
Q 4659 981 4331 666 
Q 3956 303 3431 151 
Q 2906 0 1856 0 
L 588 0 
L 588 4666 
z
" transform="scale(0.015625)"/>
      <path id="DejaVuSans-Bold-41" d="M 3419 850 
L 1538 850 
L 1241 0 
L 31 0 
L 1759 4666 
L 3194 4666 
L 4922 0 
L 3713 0 
L 3419 850 
z
M 1838 1716 
L 3116 1716 
L 2478 3572 
L 1838 1716 
z
" transform="scale(0.015625)"/>
      <path id="DejaVuSans-Bold-2f" d="M 1644 4666 
L 2338 4666 
L 691 -594 
L 0 -594 
L 1644 4666 
z
" transform="scale(0.015625)"/>
      <path id="DejaVuSans-Bold-31" d="M 750 831 
L 1813 831 
L 1813 3847 
L 722 3622 
L 722 4441 
L 1806 4666 
L 2950 4666 
L 2950 831 
L 4013 831 
L 4013 0 
L 750 0 
L 750 831 
z
" transform="scale(0.015625)"/>
      <path id="DejaVuSans-Bold-30" d="M 2944 2338 
Q 2944 3213 2780 3570 
Q 2616 3928 2228 3928 
Q 1841 3928 1675 3570 
Q 1509 3213 1509 2338 
Q 1509 1453 1675 1090 
Q 1841 728 2228 728 
Q 2613 728 2778 1090 
Q 2944 1453 2944 2338 
z
M 4147 2328 
Q 4147 1169 3647 539 
Q 3147 -91 2228 -91 
Q 1306 -91 806 539 
Q 306 1169 306 2328 
Q 306 3491 806 4120 
Q 1306 4750 2228 4750 
Q 3147 4750 3647 4120 
Q 4147 3491 4147 2328 
z
" transform="scale(0.015625)"/>
      <path id="DejaVuSans-Bold-46" d="M 588 4666 
L 3834 4666 
L 3834 3756 
L 1791 3756 
L 1791 2888 
L 3713 2888 
L 3713 1978 
L 1791 1978 
L 1791 0 
L 588 0 
L 588 4666 
z
" transform="scale(0.015625)"/>
     </defs>
     <use xlink:href="#DejaVuSans-Bold-4c"/>
     <use xlink:href="#DejaVuSans-Bold-44" x="63.720703"/>
     <use xlink:href="#DejaVuSans-Bold-41" x="146.728516"/>
     <use xlink:href="#DejaVuSans-Bold-2f" x="224.121094"/>
     <use xlink:href="#DejaVuSans-Bold-31" x="260.644531"/>
     <use xlink:href="#DejaVuSans-Bold-30" x="330.224609"/>
     <use xlink:href="#DejaVuSans-Bold-46" x="399.804688"/>
    </g>
   </g>
   <g id="text_31">
    <!-- XGB/10F -->
    <g transform="translate(2605.44375 76.7125) scale(0.4 -0.4)">
     <defs>
      <path id="DejaVuSans-Bold-58" d="M 3188 2381 
L 4806 0 
L 3553 0 
L 2463 1594 
L 1381 0 
L 122 0 
L 1741 2381 
L 184 4666 
L 1441 4666 
L 2463 3163 
L 3481 4666 
L 4744 4666 
L 3188 2381 
z
" transform="scale(0.015625)"/>
      <path id="DejaVuSans-Bold-47" d="M 4781 347 
Q 4331 128 3847 18 
Q 3363 -91 2847 -91 
Q 1681 -91 1000 561 
Q 319 1213 319 2328 
Q 319 3456 1012 4103 
Q 1706 4750 2913 4750 
Q 3378 4750 3804 4662 
Q 4231 4575 4609 4403 
L 4609 3438 
Q 4219 3659 3833 3768 
Q 3447 3878 3059 3878 
Q 2341 3878 1952 3476 
Q 1563 3075 1563 2328 
Q 1563 1588 1938 1184 
Q 2313 781 3003 781 
Q 3191 781 3352 804 
Q 3513 828 3641 878 
L 3641 1784 
L 2906 1784 
L 2906 2591 
L 4781 2591 
L 4781 347 
z
" transform="scale(0.015625)"/>
      <path id="DejaVuSans-Bold-42" d="M 2456 2859 
Q 2741 2859 2887 2984 
Q 3034 3109 3034 3353 
Q 3034 3594 2887 3720 
Q 2741 3847 2456 3847 
L 1791 3847 
L 1791 2859 
L 2456 2859 
z
M 2497 819 
Q 2859 819 3042 972 
Q 3225 1125 3225 1434 
Q 3225 1738 3044 1889 
Q 2863 2041 2497 2041 
L 1791 2041 
L 1791 819 
L 2497 819 
z
M 3616 2497 
Q 4003 2384 4215 2081 
Q 4428 1778 4428 1338 
Q 4428 663 3972 331 
Q 3516 0 2584 0 
L 588 0 
L 588 4666 
L 2394 4666 
Q 3366 4666 3802 4372 
Q 4238 4078 4238 3431 
Q 4238 3091 4078 2852 
Q 3919 2613 3616 2497 
z
" transform="scale(0.015625)"/>
     </defs>
     <use xlink:href="#DejaVuSans-Bold-58"/>
     <use xlink:href="#DejaVuSans-Bold-47" x="77.099609"/>
     <use xlink:href="#DejaVuSans-Bold-42" x="159.179688"/>
     <use xlink:href="#DejaVuSans-Bold-2f" x="235.400391"/>
     <use xlink:href="#DejaVuSans-Bold-31" x="271.923828"/>
     <use xlink:href="#DejaVuSans-Bold-30" x="341.503906"/>
     <use xlink:href="#DejaVuSans-Bold-46" x="411.083984"/>
    </g>
   </g>
   <g id="text_32">
    <!-- LDA/2F -->
    <g transform="translate(7.2 1146.8) scale(0.4 -0.4)">
     <defs>
      <path id="DejaVuSans-Bold-32" d="M 1844 884 
L 3897 884 
L 3897 0 
L 506 0 
L 506 884 
L 2209 2388 
Q 2438 2594 2547 2791 
Q 2656 2988 2656 3200 
Q 2656 3528 2436 3728 
Q 2216 3928 1850 3928 
Q 1569 3928 1234 3808 
Q 900 3688 519 3450 
L 519 4475 
Q 925 4609 1322 4679 
Q 1719 4750 2100 4750 
Q 2938 4750 3402 4381 
Q 3866 4013 3866 3353 
Q 3866 2972 3669 2642 
Q 3472 2313 2841 1759 
L 1844 884 
z
" transform="scale(0.015625)"/>
     </defs>
     <use xlink:href="#DejaVuSans-Bold-4c"/>
     <use xlink:href="#DejaVuSans-Bold-44" x="63.720703"/>
     <use xlink:href="#DejaVuSans-Bold-41" x="146.728516"/>
     <use xlink:href="#DejaVuSans-Bold-2f" x="224.121094"/>
     <use xlink:href="#DejaVuSans-Bold-32" x="260.644531"/>
     <use xlink:href="#DejaVuSans-Bold-46" x="330.224609"/>
    </g>
   </g>
   <g id="text_33">
    <!-- XGB/2F -->
    <g transform="translate(2633.275 1146.8) scale(0.4 -0.4)">
     <use xlink:href="#DejaVuSans-Bold-58"/>
     <use xlink:href="#DejaVuSans-Bold-47" x="77.099609"/>
     <use xlink:href="#DejaVuSans-Bold-42" x="159.179688"/>
     <use xlink:href="#DejaVuSans-Bold-2f" x="235.400391"/>
     <use xlink:href="#DejaVuSans-Bold-32" x="271.923828"/>
     <use xlink:href="#DejaVuSans-Bold-46" x="341.503906"/>
    </g>
   </g>
   <g id="text_34">
    <!-- Rec_25% -->
    <g transform="translate(1303.50625 36.8875) scale(0.4 -0.4)">
     <defs>
      <path id="DejaVuSans-Bold-52" d="M 2297 2597 
Q 2675 2597 2839 2737 
Q 3003 2878 3003 3200 
Q 3003 3519 2839 3656 
Q 2675 3794 2297 3794 
L 1791 3794 
L 1791 2597 
L 2297 2597 
z
M 1791 1766 
L 1791 0 
L 588 0 
L 588 4666 
L 2425 4666 
Q 3347 4666 3776 4356 
Q 4206 4047 4206 3378 
Q 4206 2916 3982 2619 
Q 3759 2322 3309 2181 
Q 3556 2125 3751 1926 
Q 3947 1728 4147 1325 
L 4800 0 
L 3519 0 
L 2950 1159 
Q 2778 1509 2601 1637 
Q 2425 1766 2131 1766 
L 1791 1766 
z
" transform="scale(0.015625)"/>
      <path id="DejaVuSans-Bold-65" d="M 4031 1759 
L 4031 1441 
L 1416 1441 
Q 1456 1047 1700 850 
Q 1944 653 2381 653 
Q 2734 653 3104 758 
Q 3475 863 3866 1075 
L 3866 213 
Q 3469 63 3072 -14 
Q 2675 -91 2278 -91 
Q 1328 -91 801 392 
Q 275 875 275 1747 
Q 275 2603 792 3093 
Q 1309 3584 2216 3584 
Q 3041 3584 3536 3087 
Q 4031 2591 4031 1759 
z
M 2881 2131 
Q 2881 2450 2695 2645 
Q 2509 2841 2209 2841 
Q 1884 2841 1681 2658 
Q 1478 2475 1428 2131 
L 2881 2131 
z
" transform="scale(0.015625)"/>
      <path id="DejaVuSans-Bold-63" d="M 3366 3391 
L 3366 2478 
Q 3138 2634 2908 2709 
Q 2678 2784 2431 2784 
Q 1963 2784 1702 2511 
Q 1441 2238 1441 1747 
Q 1441 1256 1702 982 
Q 1963 709 2431 709 
Q 2694 709 2930 787 
Q 3166 866 3366 1019 
L 3366 103 
Q 3103 6 2833 -42 
Q 2563 -91 2291 -91 
Q 1344 -91 809 395 
Q 275 881 275 1747 
Q 275 2613 809 3098 
Q 1344 3584 2291 3584 
Q 2566 3584 2833 3536 
Q 3100 3488 3366 3391 
z
" transform="scale(0.015625)"/>
      <path id="DejaVuSans-Bold-5f" d="M 3200 -916 
L 3200 -1509 
L 0 -1509 
L 0 -916 
L 3200 -916 
z
" transform="scale(0.015625)"/>
      <path id="DejaVuSans-Bold-35" d="M 678 4666 
L 3669 4666 
L 3669 3781 
L 1638 3781 
L 1638 3059 
Q 1775 3097 1914 3117 
Q 2053 3138 2203 3138 
Q 3056 3138 3531 2711 
Q 4006 2284 4006 1522 
Q 4006 766 3489 337 
Q 2972 -91 2053 -91 
Q 1656 -91 1267 -14 
Q 878 63 494 219 
L 494 1166 
Q 875 947 1217 837 
Q 1559 728 1863 728 
Q 2300 728 2551 942 
Q 2803 1156 2803 1522 
Q 2803 1891 2551 2103 
Q 2300 2316 1863 2316 
Q 1603 2316 1309 2248 
Q 1016 2181 678 2041 
L 678 4666 
z
" transform="scale(0.015625)"/>
      <path id="DejaVuSans-Bold-25" d="M 4959 1925 
Q 4738 1925 4616 1733 
Q 4494 1541 4494 1184 
Q 4494 825 4614 633 
Q 4734 441 4959 441 
Q 5184 441 5303 633 
Q 5422 825 5422 1184 
Q 5422 1541 5301 1733 
Q 5181 1925 4959 1925 
z
M 4959 2450 
Q 5541 2450 5875 2112 
Q 6209 1775 6209 1184 
Q 6209 594 5875 251 
Q 5541 -91 4959 -91 
Q 4378 -91 4042 251 
Q 3706 594 3706 1184 
Q 3706 1772 4042 2111 
Q 4378 2450 4959 2450 
z
M 2094 -91 
L 1403 -91 
L 4319 4750 
L 5013 4750 
L 2094 -91 
z
M 1453 4750 
Q 2034 4750 2367 4411 
Q 2700 4072 2700 3481 
Q 2700 2891 2367 2550 
Q 2034 2209 1453 2209 
Q 872 2209 539 2550 
Q 206 2891 206 3481 
Q 206 4072 539 4411 
Q 872 4750 1453 4750 
z
M 1453 4225 
Q 1228 4225 1106 4031 
Q 984 3838 984 3481 
Q 984 3122 1106 2926 
Q 1228 2731 1453 2731 
Q 1678 2731 1798 2926 
Q 1919 3122 1919 3481 
Q 1919 3838 1797 4031 
Q 1675 4225 1453 4225 
z
" transform="scale(0.015625)"/>
     </defs>
     <use xlink:href="#DejaVuSans-Bold-52"/>
     <use xlink:href="#DejaVuSans-Bold-65" x="77.001953"/>
     <use xlink:href="#DejaVuSans-Bold-63" x="144.824219"/>
     <use xlink:href="#DejaVuSans-Bold-5f" x="204.101562"/>
     <use xlink:href="#DejaVuSans-Bold-32" x="254.101562"/>
     <use xlink:href="#DejaVuSans-Bold-35" x="323.681641"/>
     <use xlink:href="#DejaVuSans-Bold-25" x="393.261719"/>
    </g>
   </g>
   <g id="legend_1">
    <g id="patch_87">
     <path d="M 21.2 228.778125 
L 161.521875 228.778125 
Q 165.521875 228.778125 165.521875 224.778125 
L 165.521875 60.31875 
Q 165.521875 56.31875 161.521875 56.31875 
L 21.2 56.31875 
Q 17.2 56.31875 17.2 60.31875 
L 17.2 224.778125 
Q 17.2 228.778125 21.2 228.778125 
z
" style="fill: #ffffff; opacity: 0.8; stroke: #cccccc; stroke-linejoin: miter"/>
    </g>
    <g id="text_35">
     <!-- Legend -->
     <g transform="translate(72.992187 71.917187) scale(0.1 -0.1)">
      <defs>
       <path id="DejaVuSans-4c" d="M 628 4666 
L 1259 4666 
L 1259 531 
L 3531 531 
L 3531 0 
L 628 0 
L 628 4666 
z
" transform="scale(0.015625)"/>
      </defs>
      <use xlink:href="#DejaVuSans-4c"/>
      <use xlink:href="#DejaVuSans-65" x="53.962891"/>
      <use xlink:href="#DejaVuSans-67" x="115.486328"/>
      <use xlink:href="#DejaVuSans-65" x="178.962891"/>
      <use xlink:href="#DejaVuSans-6e" x="240.486328"/>
      <use xlink:href="#DejaVuSans-64" x="303.865234"/>
     </g>
    </g>
    <g id="patch_88">
     <path d="M 25.2 99.19375 
L 65.2 99.19375 
L 65.2 85.19375 
L 25.2 85.19375 
z
" style="fill: #a5a5a5; stroke: #a5a5a5; stroke-linejoin: miter"/>
    </g>
    <g id="text_36">
     <!-- b1 -->
     <g transform="translate(81.2 99.19375) scale(0.2 -0.2)">
      <defs>
       <path id="DejaVuSans-62" d="M 3116 1747 
Q 3116 2381 2855 2742 
Q 2594 3103 2138 3103 
Q 1681 3103 1420 2742 
Q 1159 2381 1159 1747 
Q 1159 1113 1420 752 
Q 1681 391 2138 391 
Q 2594 391 2855 752 
Q 3116 1113 3116 1747 
z
M 1159 2969 
Q 1341 3281 1617 3432 
Q 1894 3584 2278 3584 
Q 2916 3584 3314 3078 
Q 3713 2572 3713 1747 
Q 3713 922 3314 415 
Q 2916 -91 2278 -91 
Q 1894 -91 1617 61 
Q 1341 213 1159 525 
L 1159 0 
L 581 0 
L 581 4863 
L 1159 4863 
L 1159 2969 
z
" transform="scale(0.015625)"/>
      </defs>
      <use xlink:href="#DejaVuSans-62"/>
      <use xlink:href="#DejaVuSans-31" x="63.476562"/>
     </g>
    </g>
    <g id="patch_89">
     <path d="M 25.2 128.55 
L 65.2 128.55 
L 65.2 114.55 
L 25.2 114.55 
z
" style="fill: #ed7d31; stroke: #ed7d31; stroke-linejoin: miter"/>
    </g>
    <g id="text_37">
     <!-- b12 -->
     <g transform="translate(81.2 128.55) scale(0.2 -0.2)">
      <use xlink:href="#DejaVuSans-62"/>
      <use xlink:href="#DejaVuSans-31" x="63.476562"/>
      <use xlink:href="#DejaVuSans-32" x="127.099609"/>
     </g>
    </g>
    <g id="patch_90">
     <path d="M 25.2 157.90625 
L 65.2 157.90625 
L 65.2 143.90625 
L 25.2 143.90625 
z
" style="fill: #ffc000; stroke: #ffc000; stroke-linejoin: miter"/>
    </g>
    <g id="text_38">
     <!-- b123 -->
     <g transform="translate(81.2 157.90625) scale(0.2 -0.2)">
      <use xlink:href="#DejaVuSans-62"/>
      <use xlink:href="#DejaVuSans-31" x="63.476562"/>
      <use xlink:href="#DejaVuSans-32" x="127.099609"/>
      <use xlink:href="#DejaVuSans-33" x="190.722656"/>
     </g>
    </g>
    <g id="patch_91">
     <path d="M 25.2 187.2625 
L 65.2 187.2625 
L 65.2 173.2625 
L 25.2 173.2625 
z
" style="fill: #4472c4; stroke: #4472c4; stroke-linejoin: miter"/>
    </g>
    <g id="text_39">
     <!-- b1234 -->
     <g transform="translate(81.2 187.2625) scale(0.2 -0.2)">
      <use xlink:href="#DejaVuSans-62"/>
      <use xlink:href="#DejaVuSans-31" x="63.476562"/>
      <use xlink:href="#DejaVuSans-32" x="127.099609"/>
      <use xlink:href="#DejaVuSans-33" x="190.722656"/>
      <use xlink:href="#DejaVuSans-34" x="254.345703"/>
     </g>
    </g>
    <g id="patch_92">
     <path d="M 25.2 216.61875 
L 65.2 216.61875 
L 65.2 202.61875 
L 25.2 202.61875 
z
" style="fill: #447264; stroke: #447264; stroke-linejoin: miter"/>
    </g>
    <g id="text_40">
     <!-- b12345 -->
     <g transform="translate(81.2 216.61875) scale(0.2 -0.2)">
      <use xlink:href="#DejaVuSans-62"/>
      <use xlink:href="#DejaVuSans-31" x="63.476562"/>
      <use xlink:href="#DejaVuSans-32" x="127.099609"/>
      <use xlink:href="#DejaVuSans-33" x="190.722656"/>
      <use xlink:href="#DejaVuSans-34" x="254.345703"/>
      <use xlink:href="#DejaVuSans-35" x="317.96875"/>
     </g>
    </g>
   </g>
  </g>
 </g>
 <defs>
  <clipPath id="p500ad2b26f">
   <rect x="7.2" y="46.31875" width="2790" height="1108.8"/>
  </clipPath>
 </defs>
</svg>
