<?xml version="1.0" encoding="utf-8" standalone="no"?>
<!DOCTYPE svg PUBLIC "-//W3C//DTD SVG 1.1//EN"
  "http://www.w3.org/Graphics/SVG/1.1/DTD/svg11.dtd">
<svg xmlns:xlink="http://www.w3.org/1999/xlink" width="1089.25307pt" height="373.078952pt" viewBox="0 0 1089.25307 373.078952" xmlns="http://www.w3.org/2000/svg" version="1.1">
 <metadata>
  <rdf:RDF xmlns:dc="http://purl.org/dc/elements/1.1/" xmlns:cc="http://creativecommons.org/ns#" xmlns:rdf="http://www.w3.org/1999/02/22-rdf-syntax-ns#">
   <cc:Work>
    <dc:type rdf:resource="http://purl.org/dc/dcmitype/StillImage"/>
    <dc:date>2024-11-24T00:54:14.435608</dc:date>
    <dc:format>image/svg+xml</dc:format>
    <dc:creator>
     <cc:Agent>
      <dc:title>Matplotlib v3.7.0, https://matplotlib.org/</dc:title>
     </cc:Agent>
    </dc:creator>
   </cc:Work>
  </rdf:RDF>
 </metadata>
 <defs>
  <style type="text/css">*{stroke-linejoin: round; stroke-linecap: butt}</style>
 </defs>
 <g id="figure_1">
  <g id="patch_1">
   <path d="M 0 373.078952 
L 1089.25307 373.078952 
L 1089.25307 0 
L 0 0 
z
" style="fill: #ffffff"/>
  </g>
  <g id="axes_1">
   <g id="patch_2">
    <path d="M 174.675882 60.372364 
C 155.8976 60.372364 137.327388 64.320215 120.17307 71.959144 
C 103.018752 79.598074 87.660479 90.758798 75.097169 104.715414 
C 62.533858 118.672029 53.043922 135.115247 47.244594 152.975585 
C 41.445266 170.835923 39.465063 189.717583 41.43278 208.392485 
L 174.675882 194.35307 
z
" style="fill: #ff2e7e; stroke: #000000; stroke-linejoin: miter"/>
   </g>
   <g id="patch_3">
    <path d="M 41.43278 208.392485 
C 43.399754 227.060336 49.268102 245.108126 58.656423 261.36288 
C 68.044745 277.617635 80.745146 291.719409 95.932193 302.751691 
L 174.675882 194.35307 
z
" style="fill: #d52db7; stroke: #000000; stroke-linejoin: miter"/>
   </g>
   <g id="patch_4">
    <path d="M 95.932193 302.751691 
C 103.507361 308.254498 111.638531 312.94812 120.192325 316.755568 
C 128.746119 320.563016 137.675511 323.463357 146.83403 325.409015 
L 174.675882 194.35307 
z
" style="fill: #6050dc; stroke: #000000; stroke-linejoin: miter"/>
   </g>
   <g id="patch_5">
    <path d="M 146.83403 325.409015 
C 165.198919 329.310498 184.180467 329.308556 202.544557 325.403314 
C 220.908647 321.498073 238.24847 313.776042 253.436646 302.739285 
C 268.624822 291.702528 281.324898 277.595534 290.711155 261.335494 
C 300.097411 245.075454 305.961922 227.022568 307.923394 208.350574 
C 309.884867 189.678581 307.89985 170.80111 302.097403 152.945514 
C 296.294956 135.089918 286.803617 118.65174 274.240483 104.699738 
C 261.677348 90.747736 246.320721 79.59098 229.16904 71.954846 
C 212.017359 64.318711 193.450574 60.372358 174.675838 60.372364 
L 174.675882 194.35307 
z
" style="fill: #ff6b45; stroke: #000000; stroke-linejoin: miter"/>
   </g>
   <g id="matplotlib.axis_1"/>
   <g id="matplotlib.axis_2"/>
   <g id="text_1">
    <!-- 26.7% -->
    <g transform="translate(92.691623 144.433601) scale(0.14 -0.14)">
     <defs>
      <path id="DejaVuSerif-32" d="M 819 3553 
L 469 3553 
L 469 4384 
Q 803 4563 1142 4656 
Q 1481 4750 1806 4750 
Q 2534 4750 2956 4397 
Q 3378 4044 3378 3438 
Q 3378 2753 2422 1800 
Q 2347 1728 2309 1691 
L 1131 513 
L 3078 513 
L 3078 1088 
L 3444 1088 
L 3444 0 
L 434 0 
L 434 341 
L 1850 1753 
Q 2319 2222 2519 2614 
Q 2719 3006 2719 3438 
Q 2719 3909 2473 4175 
Q 2228 4441 1797 4441 
Q 1350 4441 1106 4219 
Q 863 3997 819 3553 
z
" transform="scale(0.015625)"/>
      <path id="DejaVuSerif-36" d="M 2094 219 
Q 2534 219 2771 542 
Q 3009 866 3009 1472 
Q 3009 2078 2771 2401 
Q 2534 2725 2094 2725 
Q 1647 2725 1412 2412 
Q 1178 2100 1178 1509 
Q 1178 888 1415 553 
Q 1653 219 2094 219 
z
M 1075 2569 
Q 1288 2803 1556 2918 
Q 1825 3034 2163 3034 
Q 2859 3034 3264 2615 
Q 3669 2197 3669 1472 
Q 3669 763 3233 336 
Q 2797 -91 2069 -91 
Q 1278 -91 853 498 
Q 428 1088 428 2181 
Q 428 3406 931 4078 
Q 1434 4750 2350 4750 
Q 2597 4750 2869 4703 
Q 3141 4656 3425 4563 
L 3425 3794 
L 3072 3794 
Q 3034 4109 2831 4275 
Q 2628 4441 2284 4441 
Q 1678 4441 1381 3981 
Q 1084 3522 1075 2569 
z
" transform="scale(0.015625)"/>
      <path id="DejaVuSerif-2e" d="M 603 325 
Q 603 500 722 622 
Q 841 744 1019 744 
Q 1191 744 1312 622 
Q 1434 500 1434 325 
Q 1434 153 1312 31 
Q 1191 -91 1019 -91 
Q 841 -91 722 29 
Q 603 150 603 325 
z
" transform="scale(0.015625)"/>
      <path id="DejaVuSerif-37" d="M 3609 4347 
L 1784 0 
L 1319 0 
L 3059 4153 
L 903 4153 
L 903 3578 
L 538 3578 
L 538 4666 
L 3609 4666 
L 3609 4347 
z
" transform="scale(0.015625)"/>
      <path id="DejaVuSerif-25" d="M 1434 4459 
Q 1159 4459 1004 4200 
Q 850 3941 850 3475 
Q 850 3016 1008 2753 
Q 1166 2491 1434 2491 
Q 1700 2491 1854 2752 
Q 2009 3013 2009 3475 
Q 2009 3938 1854 4198 
Q 1700 4459 1434 4459 
z
M 4653 2169 
Q 4381 2169 4226 1906 
Q 4072 1644 4072 1178 
Q 4072 719 4228 458 
Q 4384 197 4653 197 
Q 4922 197 5075 458 
Q 5228 719 5228 1178 
Q 5228 1641 5073 1905 
Q 4919 2169 4653 2169 
z
M 4653 2450 
Q 5147 2450 5437 2106 
Q 5728 1763 5728 1178 
Q 5728 594 5436 251 
Q 5144 -91 4653 -91 
Q 4153 -91 3862 251 
Q 3572 594 3572 1178 
Q 3572 1766 3864 2108 
Q 4156 2450 4653 2450 
z
M 4263 4750 
L 4738 4750 
L 1819 -91 
L 1344 -91 
L 4263 4750 
z
M 1428 4750 
Q 1922 4750 2215 4408 
Q 2509 4066 2509 3481 
Q 2509 2891 2217 2550 
Q 1925 2209 1428 2209 
Q 931 2209 642 2551 
Q 353 2894 353 3481 
Q 353 4063 643 4406 
Q 934 4750 1428 4750 
z
" transform="scale(0.015625)"/>
     </defs>
     <use xlink:href="#DejaVuSerif-32"/>
     <use xlink:href="#DejaVuSerif-36" x="63.623047"/>
     <use xlink:href="#DejaVuSerif-2e" x="127.246094"/>
     <use xlink:href="#DejaVuSerif-37" x="159.033203"/>
     <use xlink:href="#DejaVuSerif-25" x="222.65625"/>
    </g>
   </g>
   <g id="text_2">
    <!-- 13.3% -->
    <g transform="translate(82.827176 238.422081) scale(0.14 -0.14)">
     <defs>
      <path id="DejaVuSerif-31" d="M 909 0 
L 909 331 
L 1722 331 
L 1722 4213 
L 781 3603 
L 781 4013 
L 1919 4750 
L 2350 4750 
L 2350 331 
L 3163 331 
L 3163 0 
L 909 0 
z
" transform="scale(0.015625)"/>
      <path id="DejaVuSerif-33" d="M 622 4469 
Q 988 4606 1323 4678 
Q 1659 4750 1953 4750 
Q 2638 4750 3022 4454 
Q 3406 4159 3406 3634 
Q 3406 3213 3140 2930 
Q 2875 2647 2388 2547 
Q 2963 2466 3280 2130 
Q 3597 1794 3597 1259 
Q 3597 606 3158 257 
Q 2719 -91 1894 -91 
Q 1528 -91 1179 -12 
Q 831 66 488 225 
L 488 1131 
L 838 1131 
Q 869 681 1141 450 
Q 1413 219 1906 219 
Q 2384 219 2661 495 
Q 2938 772 2938 1253 
Q 2938 1803 2653 2086 
Q 2369 2369 1819 2369 
L 1522 2369 
L 1522 2688 
L 1678 2688 
Q 2225 2688 2498 2914 
Q 2772 3141 2772 3597 
Q 2772 4006 2547 4223 
Q 2322 4441 1900 4441 
Q 1478 4441 1245 4241 
Q 1013 4041 972 3647 
L 622 3647 
L 622 4469 
z
" transform="scale(0.015625)"/>
     </defs>
     <use xlink:href="#DejaVuSerif-31"/>
     <use xlink:href="#DejaVuSerif-33" x="63.623047"/>
     <use xlink:href="#DejaVuSerif-2e" x="127.246094"/>
     <use xlink:href="#DejaVuSerif-33" x="159.033203"/>
     <use xlink:href="#DejaVuSerif-25" x="222.65625"/>
    </g>
   </g>
   <g id="text_3">
    <!-- 6.7% -->
    <g transform="translate(124.202467 271.657694) scale(0.14 -0.14)">
     <use xlink:href="#DejaVuSerif-36"/>
     <use xlink:href="#DejaVuSerif-2e" x="63.623047"/>
     <use xlink:href="#DejaVuSerif-37" x="95.410156"/>
     <use xlink:href="#DejaVuSerif-25" x="159.033203"/>
    </g>
   </g>
   <g id="text_4">
    <!-- 53.3% -->
    <g transform="translate(232.387358 206.614698) scale(0.14 -0.14)">
     <defs>
      <path id="DejaVuSerif-35" d="M 3219 4666 
L 3219 4153 
L 1081 4153 
L 1081 2816 
Q 1244 2928 1461 2984 
Q 1678 3041 1947 3041 
Q 2703 3041 3140 2622 
Q 3578 2203 3578 1478 
Q 3578 738 3136 323 
Q 2694 -91 1894 -91 
Q 1572 -91 1234 -12 
Q 897 66 544 225 
L 544 1131 
L 897 1131 
Q 925 688 1179 453 
Q 1434 219 1894 219 
Q 2388 219 2653 544 
Q 2919 869 2919 1478 
Q 2919 2084 2655 2407 
Q 2391 2731 1894 2731 
Q 1613 2731 1398 2631 
Q 1184 2531 1019 2322 
L 750 2322 
L 750 4666 
L 3219 4666 
z
" transform="scale(0.015625)"/>
     </defs>
     <use xlink:href="#DejaVuSerif-35"/>
     <use xlink:href="#DejaVuSerif-33" x="63.623047"/>
     <use xlink:href="#DejaVuSerif-2e" x="127.246094"/>
     <use xlink:href="#DejaVuSerif-33" x="159.033203"/>
     <use xlink:href="#DejaVuSerif-25" x="222.65625"/>
    </g>
   </g>
   <g id="text_5">
    <!-- Most Favorite Task -->
    <g transform="translate(87.711976 20.877187) scale(0.18 -0.18)">
     <defs>
      <path id="DejaVuSerif-4d" d="M 353 0 
L 353 331 
L 947 331 
L 947 4331 
L 319 4331 
L 319 4666 
L 1678 4666 
L 3316 1344 
L 4953 4666 
L 6228 4666 
L 6228 4331 
L 5606 4331 
L 5606 331 
L 6203 331 
L 6203 0 
L 4378 0 
L 4378 331 
L 4972 331 
L 4972 3938 
L 3372 684 
L 2931 684 
L 1331 3938 
L 1331 331 
L 1925 331 
L 1925 0 
L 353 0 
z
" transform="scale(0.015625)"/>
      <path id="DejaVuSerif-6f" d="M 1925 219 
Q 2388 219 2623 584 
Q 2859 950 2859 1663 
Q 2859 2375 2623 2739 
Q 2388 3103 1925 3103 
Q 1463 3103 1227 2739 
Q 991 2375 991 1663 
Q 991 950 1228 584 
Q 1466 219 1925 219 
z
M 1925 -91 
Q 1200 -91 759 389 
Q 319 869 319 1663 
Q 319 2456 758 2934 
Q 1197 3413 1925 3413 
Q 2653 3413 3092 2934 
Q 3531 2456 3531 1663 
Q 3531 869 3092 389 
Q 2653 -91 1925 -91 
z
" transform="scale(0.015625)"/>
      <path id="DejaVuSerif-73" d="M 359 184 
L 359 959 
L 691 959 
Q 703 588 923 403 
Q 1144 219 1575 219 
Q 1963 219 2166 364 
Q 2369 509 2369 788 
Q 2369 1006 2220 1140 
Q 2072 1275 1594 1428 
L 1178 1569 
Q 750 1706 558 1912 
Q 366 2119 366 2438 
Q 366 2894 700 3153 
Q 1034 3413 1625 3413 
Q 1888 3413 2178 3344 
Q 2469 3275 2778 3144 
L 2778 2419 
L 2447 2419 
Q 2434 2741 2221 2922 
Q 2009 3103 1644 3103 
Q 1281 3103 1095 2975 
Q 909 2847 909 2591 
Q 909 2381 1050 2254 
Q 1191 2128 1613 1997 
L 2069 1856 
Q 2541 1709 2748 1489 
Q 2956 1269 2956 922 
Q 2956 450 2595 179 
Q 2234 -91 1600 -91 
Q 1278 -91 972 -22 
Q 666 47 359 184 
z
" transform="scale(0.015625)"/>
      <path id="DejaVuSerif-74" d="M 691 2988 
L 184 2988 
L 184 3322 
L 691 3322 
L 691 4353 
L 1269 4353 
L 1269 3322 
L 2350 3322 
L 2350 2988 
L 1269 2988 
L 1269 878 
Q 1269 456 1350 337 
Q 1431 219 1650 219 
Q 1875 219 1978 351 
Q 2081 484 2088 781 
L 2522 781 
Q 2497 328 2275 118 
Q 2053 -91 1600 -91 
Q 1103 -91 897 129 
Q 691 350 691 878 
L 691 2988 
z
" transform="scale(0.015625)"/>
      <path id="DejaVuSerif-20" transform="scale(0.015625)"/>
      <path id="DejaVuSerif-46" d="M 353 0 
L 353 331 
L 947 331 
L 947 4331 
L 353 4331 
L 353 4666 
L 4172 4666 
L 4172 3628 
L 3788 3628 
L 3788 4281 
L 1581 4281 
L 1581 2719 
L 3175 2719 
L 3175 3303 
L 3559 3303 
L 3559 1753 
L 3175 1753 
L 3175 2338 
L 1581 2338 
L 1581 331 
L 2328 331 
L 2328 0 
L 353 0 
z
" transform="scale(0.015625)"/>
      <path id="DejaVuSerif-61" d="M 2547 1044 
L 2547 1747 
L 1806 1747 
Q 1378 1747 1168 1562 
Q 959 1378 959 997 
Q 959 650 1171 447 
Q 1384 244 1747 244 
Q 2106 244 2326 466 
Q 2547 688 2547 1044 
z
M 3122 2075 
L 3122 331 
L 3634 331 
L 3634 0 
L 2547 0 
L 2547 359 
Q 2356 128 2106 18 
Q 1856 -91 1522 -91 
Q 969 -91 644 203 
Q 319 497 319 997 
Q 319 1513 691 1797 
Q 1063 2081 1741 2081 
L 2547 2081 
L 2547 2309 
Q 2547 2688 2317 2895 
Q 2088 3103 1672 3103 
Q 1328 3103 1125 2947 
Q 922 2791 872 2484 
L 575 2484 
L 575 3156 
Q 875 3284 1158 3348 
Q 1441 3413 1709 3413 
Q 2400 3413 2761 3070 
Q 3122 2728 3122 2075 
z
" transform="scale(0.015625)"/>
      <path id="DejaVuSerif-76" d="M 1581 0 
L 359 2988 
L -19 2988 
L -19 3322 
L 1509 3322 
L 1509 2988 
L 978 2988 
L 1913 703 
L 2847 2988 
L 2350 2988 
L 2350 3322 
L 3597 3322 
L 3597 2988 
L 3225 2988 
L 2003 0 
L 1581 0 
z
" transform="scale(0.015625)"/>
      <path id="DejaVuSerif-72" d="M 3059 3328 
L 3059 2497 
L 2728 2497 
Q 2713 2744 2591 2866 
Q 2469 2988 2234 2988 
Q 1809 2988 1582 2694 
Q 1356 2400 1356 1850 
L 1356 331 
L 2022 331 
L 2022 0 
L 263 0 
L 263 331 
L 781 331 
L 781 2994 
L 231 2994 
L 231 3322 
L 1356 3322 
L 1356 2731 
Q 1525 3078 1790 3245 
Q 2056 3413 2438 3413 
Q 2578 3413 2733 3391 
Q 2888 3369 3059 3328 
z
" transform="scale(0.015625)"/>
      <path id="DejaVuSerif-69" d="M 622 4353 
Q 622 4497 726 4603 
Q 831 4709 978 4709 
Q 1122 4709 1226 4603 
Q 1331 4497 1331 4353 
Q 1331 4206 1228 4103 
Q 1125 4000 978 4000 
Q 831 4000 726 4103 
Q 622 4206 622 4353 
z
M 1356 331 
L 1900 331 
L 1900 0 
L 231 0 
L 231 331 
L 781 331 
L 781 2988 
L 231 2988 
L 231 3322 
L 1356 3322 
L 1356 331 
z
" transform="scale(0.015625)"/>
      <path id="DejaVuSerif-65" d="M 3469 1600 
L 991 1600 
L 991 1575 
Q 991 903 1244 561 
Q 1497 219 1991 219 
Q 2369 219 2611 417 
Q 2853 616 2950 1006 
L 3413 1006 
Q 3275 459 2904 184 
Q 2534 -91 1931 -91 
Q 1203 -91 761 389 
Q 319 869 319 1663 
Q 319 2450 753 2931 
Q 1188 3413 1894 3413 
Q 2647 3413 3050 2948 
Q 3453 2484 3469 1600 
z
M 2791 1931 
Q 2772 2513 2545 2808 
Q 2319 3103 1894 3103 
Q 1497 3103 1269 2806 
Q 1041 2509 991 1931 
L 2791 1931 
z
" transform="scale(0.015625)"/>
      <path id="DejaVuSerif-54" d="M 1222 0 
L 1222 331 
L 1819 331 
L 1819 4294 
L 447 4294 
L 447 3566 
L 63 3566 
L 63 4666 
L 4206 4666 
L 4206 3566 
L 3822 3566 
L 3822 4294 
L 2450 4294 
L 2450 331 
L 3047 331 
L 3047 0 
L 1222 0 
z
" transform="scale(0.015625)"/>
      <path id="DejaVuSerif-6b" d="M 1831 0 
L 219 0 
L 219 331 
L 738 331 
L 738 4531 
L 184 4531 
L 184 4863 
L 1313 4863 
L 1313 1697 
L 2713 2988 
L 2234 2988 
L 2234 3322 
L 3738 3322 
L 3738 2988 
L 3169 2988 
L 2181 2075 
L 3444 331 
L 3922 331 
L 3922 0 
L 2284 0 
L 2284 331 
L 2759 331 
L 1766 1697 
L 1313 1275 
L 1313 331 
L 1831 331 
L 1831 0 
z
" transform="scale(0.015625)"/>
     </defs>
     <use xlink:href="#DejaVuSerif-4d"/>
     <use xlink:href="#DejaVuSerif-6f" x="102.392578"/>
     <use xlink:href="#DejaVuSerif-73" x="162.597656"/>
     <use xlink:href="#DejaVuSerif-74" x="213.916016"/>
     <use xlink:href="#DejaVuSerif-20" x="254.101562"/>
     <use xlink:href="#DejaVuSerif-46" x="285.888672"/>
     <use xlink:href="#DejaVuSerif-61" x="348.523438"/>
     <use xlink:href="#DejaVuSerif-76" x="408.142578"/>
     <use xlink:href="#DejaVuSerif-6f" x="464.636719"/>
     <use xlink:href="#DejaVuSerif-72" x="524.841797"/>
     <use xlink:href="#DejaVuSerif-69" x="572.644531"/>
     <use xlink:href="#DejaVuSerif-74" x="604.626953"/>
     <use xlink:href="#DejaVuSerif-65" x="644.8125"/>
     <use xlink:href="#DejaVuSerif-20" x="703.992188"/>
     <use xlink:href="#DejaVuSerif-54" x="735.779297"/>
     <use xlink:href="#DejaVuSerif-61" x="794.728516"/>
     <use xlink:href="#DejaVuSerif-73" x="854.347656"/>
     <use xlink:href="#DejaVuSerif-6b" x="905.666016"/>
    </g>
   </g>
  </g>
  <g id="axes_2">
   <g id="patch_6">
    <path d="M 531.075882 60.372364 
C 502.786331 60.372364 475.210726 69.332222 452.323998 85.960403 
C 429.437271 102.588584 412.39461 126.045795 403.652658 152.950757 
L 531.075882 194.35307 
z
" style="fill: #ff2e7e; stroke: #000000; stroke-linejoin: miter"/>
   </g>
   <g id="patch_7">
    <path d="M 403.652658 152.950757 
C 394.910707 179.855719 394.910707 208.850427 403.65266 235.755388 
C 412.394613 262.66035 429.437275 286.117561 452.324003 302.745741 
L 531.075882 194.35307 
z
" style="fill: #d52db7; stroke: #000000; stroke-linejoin: miter"/>
   </g>
   <g id="patch_8">
    <path d="M 452.324003 302.745741 
C 471.34755 316.567156 493.678658 325.139935 517.064112 327.599082 
C 540.449566 330.05823 564.075458 326.318158 585.55793 316.75624 
C 607.040401 307.194322 625.631776 292.143352 639.45618 273.121977 
C 653.280583 254.100602 661.85687 231.770841 664.319692 208.385774 
L 531.075882 194.35307 
z
" style="fill: #6050dc; stroke: #000000; stroke-linejoin: miter"/>
   </g>
   <g id="patch_9">
    <path d="M 664.319692 208.385774 
C 666.286409 189.711338 664.305435 170.830349 658.505608 152.970771 
C 652.70578 135.111192 643.21562 118.668782 630.652338 104.712906 
C 618.089057 90.757029 602.731049 79.59694 585.577153 71.958458 
C 568.423258 64.319976 549.853596 60.372364 531.075882 60.372364 
L 531.075882 194.35307 
z
" style="fill: #ff6b45; stroke: #000000; stroke-linejoin: miter"/>
   </g>
   <g id="matplotlib.axis_3"/>
   <g id="matplotlib.axis_4"/>
   <g id="text_6">
    <!-- 20.0% -->
    <g transform="translate(461.587721 133.180595) scale(0.14 -0.14)">
     <defs>
      <path id="DejaVuSerif-30" d="M 2034 219 
Q 2513 219 2750 744 
Q 2988 1269 2988 2328 
Q 2988 3391 2750 3916 
Q 2513 4441 2034 4441 
Q 1556 4441 1318 3916 
Q 1081 3391 1081 2328 
Q 1081 1269 1318 744 
Q 1556 219 2034 219 
z
M 2034 -91 
Q 1275 -91 848 546 
Q 422 1184 422 2328 
Q 422 3475 848 4112 
Q 1275 4750 2034 4750 
Q 2797 4750 3222 4112 
Q 3647 3475 3647 2328 
Q 3647 1184 3222 546 
Q 2797 -91 2034 -91 
z
" transform="scale(0.015625)"/>
     </defs>
     <use xlink:href="#DejaVuSerif-32"/>
     <use xlink:href="#DejaVuSerif-30" x="63.623047"/>
     <use xlink:href="#DejaVuSerif-2e" x="127.246094"/>
     <use xlink:href="#DejaVuSerif-30" x="159.033203"/>
     <use xlink:href="#DejaVuSerif-25" x="222.65625"/>
    </g>
   </g>
   <g id="text_7">
    <!-- 20.0% -->
    <g transform="translate(432.384918 223.057586) scale(0.14 -0.14)">
     <use xlink:href="#DejaVuSerif-32"/>
     <use xlink:href="#DejaVuSerif-30" x="63.623047"/>
     <use xlink:href="#DejaVuSerif-2e" x="127.246094"/>
     <use xlink:href="#DejaVuSerif-30" x="159.033203"/>
     <use xlink:href="#DejaVuSerif-25" x="222.65625"/>
    </g>
   </g>
   <g id="text_8">
    <!-- 33.3% -->
    <g transform="translate(541.528079 271.658097) scale(0.14 -0.14)">
     <use xlink:href="#DejaVuSerif-33"/>
     <use xlink:href="#DejaVuSerif-33" x="63.623047"/>
     <use xlink:href="#DejaVuSerif-2e" x="127.246094"/>
     <use xlink:href="#DejaVuSerif-33" x="159.033203"/>
     <use xlink:href="#DejaVuSerif-25" x="222.65625"/>
    </g>
   </g>
   <g id="text_9">
    <!-- 26.7% -->
    <g transform="translate(568.584725 144.432096) scale(0.14 -0.14)">
     <use xlink:href="#DejaVuSerif-32"/>
     <use xlink:href="#DejaVuSerif-36" x="63.623047"/>
     <use xlink:href="#DejaVuSerif-2e" x="127.246094"/>
     <use xlink:href="#DejaVuSerif-37" x="159.033203"/>
     <use xlink:href="#DejaVuSerif-25" x="222.65625"/>
    </g>
   </g>
   <g id="text_10">
    <!-- Least Favorite Task -->
    <g transform="translate(442.075726 20.877187) scale(0.18 -0.18)">
     <defs>
      <path id="DejaVuSerif-4c" d="M 353 0 
L 353 331 
L 947 331 
L 947 4331 
L 353 4331 
L 353 4666 
L 2175 4666 
L 2175 4331 
L 1581 4331 
L 1581 384 
L 3713 384 
L 3713 1166 
L 4097 1166 
L 4097 0 
L 353 0 
z
" transform="scale(0.015625)"/>
     </defs>
     <use xlink:href="#DejaVuSerif-4c"/>
     <use xlink:href="#DejaVuSerif-65" x="66.40625"/>
     <use xlink:href="#DejaVuSerif-61" x="125.585938"/>
     <use xlink:href="#DejaVuSerif-73" x="185.205078"/>
     <use xlink:href="#DejaVuSerif-74" x="236.523438"/>
     <use xlink:href="#DejaVuSerif-20" x="276.708984"/>
     <use xlink:href="#DejaVuSerif-46" x="308.496094"/>
     <use xlink:href="#DejaVuSerif-61" x="371.130859"/>
     <use xlink:href="#DejaVuSerif-76" x="430.75"/>
     <use xlink:href="#DejaVuSerif-6f" x="487.244141"/>
     <use xlink:href="#DejaVuSerif-72" x="547.449219"/>
     <use xlink:href="#DejaVuSerif-69" x="595.251953"/>
     <use xlink:href="#DejaVuSerif-74" x="627.234375"/>
     <use xlink:href="#DejaVuSerif-65" x="667.419922"/>
     <use xlink:href="#DejaVuSerif-20" x="726.599609"/>
     <use xlink:href="#DejaVuSerif-54" x="758.386719"/>
     <use xlink:href="#DejaVuSerif-61" x="817.335938"/>
     <use xlink:href="#DejaVuSerif-73" x="876.955078"/>
     <use xlink:href="#DejaVuSerif-6b" x="928.273438"/>
    </g>
   </g>
  </g>
  <g id="axes_3">
   <g id="patch_10">
    <path d="M 887.475882 60.372364 
C 859.186331 60.372364 831.610726 69.332222 808.723998 85.960403 
C 785.837271 102.588584 768.79461 126.045795 760.052658 152.950757 
L 887.475882 194.35307 
z
" style="fill: #6050dc; stroke: #000000; stroke-linejoin: miter"/>
   </g>
   <g id="patch_11">
    <path d="M 760.052658 152.950757 
C 755.708123 166.321863 753.495176 180.29386 753.495176 194.353073 
C 753.495177 208.412286 755.708124 222.384283 760.05266 235.755388 
C 764.397196 249.126494 770.819419 261.730815 779.083217 273.104956 
C 787.347015 284.479098 797.349861 294.481943 808.724003 302.745741 
C 820.098146 311.009538 832.702467 317.43176 846.073573 321.776295 
C 859.444679 326.12083 873.416676 328.333776 887.475889 328.333776 
C 901.535101 328.333775 915.507098 326.120827 928.878204 321.776291 
C 942.24931 317.431755 954.85363 311.009532 966.227771 302.745733 
C 977.601913 294.481935 987.604758 284.479089 995.868555 273.104946 
C 1004.132352 261.730804 1010.554574 249.126483 1014.899108 235.755377 
C 1019.243643 222.38427 1021.456589 208.412273 1021.456588 194.35306 
C 1021.456587 180.293848 1019.243639 166.321851 1014.899103 152.950745 
C 1010.554566 139.57964 1004.132343 126.97532 995.868544 115.601178 
C 987.604745 104.227037 977.601899 94.224192 966.227756 85.960395 
C 954.853613 77.696598 942.249292 71.274377 928.878186 66.929843 
C 915.50708 62.585308 901.535083 60.372363 887.47587 60.372364 
L 887.475882 194.35307 
z
" style="fill: #ff6b45; stroke: #000000; stroke-linejoin: miter"/>
   </g>
   <g id="matplotlib.axis_5"/>
   <g id="matplotlib.axis_6"/>
   <g id="text_11">
    <!-- 20.0% -->
    <g transform="translate(817.987721 133.180595) scale(0.14 -0.14)">
     <use xlink:href="#DejaVuSerif-32"/>
     <use xlink:href="#DejaVuSerif-30" x="63.623047"/>
     <use xlink:href="#DejaVuSerif-2e" x="127.246094"/>
     <use xlink:href="#DejaVuSerif-30" x="159.033203"/>
     <use xlink:href="#DejaVuSerif-25" x="222.65625"/>
    </g>
   </g>
   <g id="text_12">
    <!-- 80.0% -->
    <g transform="translate(912.489985 263.251793) scale(0.14 -0.14)">
     <defs>
      <path id="DejaVuSerif-38" d="M 2981 1275 
Q 2981 1775 2732 2051 
Q 2484 2328 2034 2328 
Q 1584 2328 1336 2051 
Q 1088 1775 1088 1275 
Q 1088 772 1336 495 
Q 1584 219 2034 219 
Q 2484 219 2732 495 
Q 2981 772 2981 1275 
z
M 2853 3541 
Q 2853 3966 2637 4203 
Q 2422 4441 2034 4441 
Q 1650 4441 1433 4203 
Q 1216 3966 1216 3541 
Q 1216 3113 1433 2875 
Q 1650 2638 2034 2638 
Q 2422 2638 2637 2875 
Q 2853 3113 2853 3541 
z
M 2516 2484 
Q 3047 2413 3344 2092 
Q 3641 1772 3641 1275 
Q 3641 619 3225 264 
Q 2809 -91 2034 -91 
Q 1263 -91 845 264 
Q 428 619 428 1275 
Q 428 1772 725 2092 
Q 1022 2413 1556 2484 
Q 1084 2569 832 2842 
Q 581 3116 581 3541 
Q 581 4103 968 4426 
Q 1356 4750 2034 4750 
Q 2713 4750 3100 4426 
Q 3488 4103 3488 3541 
Q 3488 3116 3236 2842 
Q 2984 2569 2516 2484 
z
" transform="scale(0.015625)"/>
     </defs>
     <use xlink:href="#DejaVuSerif-38"/>
     <use xlink:href="#DejaVuSerif-30" x="63.623047"/>
     <use xlink:href="#DejaVuSerif-2e" x="127.246094"/>
     <use xlink:href="#DejaVuSerif-30" x="159.033203"/>
     <use xlink:href="#DejaVuSerif-25" x="222.65625"/>
    </g>
   </g>
   <g id="text_13">
    <!-- Number of Subjects chose Tongue/Singing -->
    <g transform="translate(692.898695 20.877187) scale(0.18 -0.18)">
     <defs>
      <path id="DejaVuSerif-4e" d="M 313 0 
L 313 331 
L 941 331 
L 941 4331 
L 313 4331 
L 313 4666 
L 1509 4666 
L 4306 984 
L 4306 4331 
L 3681 4331 
L 3681 4666 
L 5319 4666 
L 5319 4331 
L 4691 4331 
L 4691 -91 
L 4313 -91 
L 1325 3841 
L 1325 331 
L 1953 331 
L 1953 0 
L 313 0 
z
" transform="scale(0.015625)"/>
      <path id="DejaVuSerif-75" d="M 2266 3322 
L 3341 3322 
L 3341 331 
L 3884 331 
L 3884 0 
L 2766 0 
L 2766 588 
Q 2606 256 2353 82 
Q 2100 -91 1766 -91 
Q 1213 -91 952 223 
Q 691 538 691 1209 
L 691 2988 
L 172 2988 
L 172 3322 
L 1269 3322 
L 1269 1388 
Q 1269 781 1417 556 
Q 1566 331 1947 331 
Q 2347 331 2556 625 
Q 2766 919 2766 1478 
L 2766 2988 
L 2266 2988 
L 2266 3322 
z
" transform="scale(0.015625)"/>
      <path id="DejaVuSerif-6d" d="M 3316 2675 
Q 3481 3041 3739 3227 
Q 3997 3413 4341 3413 
Q 4863 3413 5119 3089 
Q 5375 2766 5375 2113 
L 5375 331 
L 5894 331 
L 5894 0 
L 4300 0 
L 4300 331 
L 4800 331 
L 4800 2047 
Q 4800 2556 4650 2772 
Q 4500 2988 4153 2988 
Q 3769 2988 3567 2697 
Q 3366 2406 3366 1850 
L 3366 331 
L 3866 331 
L 3866 0 
L 2291 0 
L 2291 331 
L 2791 331 
L 2791 2069 
Q 2791 2566 2641 2777 
Q 2491 2988 2144 2988 
Q 1759 2988 1557 2697 
Q 1356 2406 1356 1850 
L 1356 331 
L 1856 331 
L 1856 0 
L 263 0 
L 263 331 
L 781 331 
L 781 2994 
L 231 2994 
L 231 3322 
L 1356 3322 
L 1356 2731 
Q 1516 3063 1762 3238 
Q 2009 3413 2322 3413 
Q 2709 3413 2968 3220 
Q 3228 3028 3316 2675 
z
" transform="scale(0.015625)"/>
      <path id="DejaVuSerif-62" d="M 738 331 
L 738 4531 
L 184 4531 
L 184 4863 
L 1313 4863 
L 1313 2803 
Q 1481 3116 1742 3264 
Q 2003 3413 2388 3413 
Q 3000 3413 3387 2928 
Q 3775 2444 3775 1663 
Q 3775 881 3387 395 
Q 3000 -91 2388 -91 
Q 2003 -91 1742 57 
Q 1481 206 1313 519 
L 1313 0 
L 184 0 
L 184 331 
L 738 331 
z
M 1313 1497 
Q 1313 897 1542 583 
Q 1772 269 2209 269 
Q 2650 269 2876 622 
Q 3103 975 3103 1663 
Q 3103 2353 2876 2703 
Q 2650 3053 2209 3053 
Q 1772 3053 1542 2737 
Q 1313 2422 1313 1825 
L 1313 1497 
z
" transform="scale(0.015625)"/>
      <path id="DejaVuSerif-66" d="M 2753 4078 
L 2450 4078 
Q 2447 4313 2317 4434 
Q 2188 4556 1941 4556 
Q 1619 4556 1487 4379 
Q 1356 4203 1356 3750 
L 1356 3322 
L 2284 3322 
L 2284 2988 
L 1356 2988 
L 1356 331 
L 2094 331 
L 2094 0 
L 231 0 
L 231 331 
L 781 331 
L 781 2988 
L 231 2988 
L 231 3322 
L 781 3322 
L 781 3738 
Q 781 4294 1070 4578 
Q 1359 4863 1919 4863 
Q 2128 4863 2337 4825 
Q 2547 4788 2753 4709 
L 2753 4078 
z
" transform="scale(0.015625)"/>
      <path id="DejaVuSerif-53" d="M 594 225 
L 594 1288 
L 953 1284 
Q 969 753 1261 498 
Q 1553 244 2150 244 
Q 2706 244 2998 464 
Q 3291 684 3291 1106 
Q 3291 1444 3114 1625 
Q 2938 1806 2369 1978 
L 1753 2163 
Q 1084 2366 811 2669 
Q 538 2972 538 3500 
Q 538 4094 959 4422 
Q 1381 4750 2144 4750 
Q 2469 4750 2856 4679 
Q 3244 4609 3681 4475 
L 3681 3481 
L 3328 3481 
Q 3275 3975 2998 4195 
Q 2722 4416 2156 4416 
Q 1663 4416 1405 4214 
Q 1147 4013 1147 3628 
Q 1147 3294 1340 3103 
Q 1534 2913 2163 2725 
L 2741 2553 
Q 3375 2363 3645 2067 
Q 3916 1772 3916 1275 
Q 3916 597 3481 253 
Q 3047 -91 2188 -91 
Q 1803 -91 1404 -12 
Q 1006 66 594 225 
z
" transform="scale(0.015625)"/>
      <path id="DejaVuSerif-6a" d="M 641 4353 
Q 641 4497 745 4603 
Q 850 4709 997 4709 
Q 1141 4709 1245 4603 
Q 1350 4497 1350 4353 
Q 1350 4206 1248 4103 
Q 1147 4000 997 4000 
Q 850 4000 745 4103 
Q 641 4206 641 4353 
z
M 781 2988 
L 238 2988 
L 238 3322 
L 1356 3322 
L 1356 -325 
Q 1356 -838 1051 -1130 
Q 747 -1422 213 -1422 
Q -13 -1422 -217 -1370 
Q -422 -1319 -616 -1216 
L -616 -531 
L -319 -531 
Q -297 -831 -164 -972 
Q -31 -1113 225 -1113 
Q 509 -1113 645 -920 
Q 781 -728 781 -325 
L 781 2988 
z
" transform="scale(0.015625)"/>
      <path id="DejaVuSerif-63" d="M 3291 997 
Q 3169 466 2822 187 
Q 2475 -91 1925 -91 
Q 1200 -91 759 389 
Q 319 869 319 1663 
Q 319 2459 759 2936 
Q 1200 3413 1925 3413 
Q 2241 3413 2553 3339 
Q 2866 3266 3181 3116 
L 3181 2266 
L 2847 2266 
Q 2781 2703 2561 2903 
Q 2341 3103 1931 3103 
Q 1466 3103 1228 2742 
Q 991 2381 991 1663 
Q 991 944 1227 581 
Q 1463 219 1931 219 
Q 2303 219 2525 412 
Q 2747 606 2828 997 
L 3291 997 
z
" transform="scale(0.015625)"/>
      <path id="DejaVuSerif-68" d="M 263 0 
L 263 331 
L 781 331 
L 781 4531 
L 231 4531 
L 231 4863 
L 1356 4863 
L 1356 2731 
Q 1516 3069 1770 3241 
Q 2025 3413 2363 3413 
Q 2913 3413 3172 3097 
Q 3431 2781 3431 2113 
L 3431 331 
L 3944 331 
L 3944 0 
L 2356 0 
L 2356 331 
L 2853 331 
L 2853 1931 
Q 2853 2541 2704 2764 
Q 2556 2988 2175 2988 
Q 1775 2988 1565 2697 
Q 1356 2406 1356 1850 
L 1356 331 
L 1856 331 
L 1856 0 
L 263 0 
z
" transform="scale(0.015625)"/>
      <path id="DejaVuSerif-6e" d="M 263 0 
L 263 331 
L 781 331 
L 781 2988 
L 231 2988 
L 231 3322 
L 1356 3322 
L 1356 2731 
Q 1516 3069 1770 3241 
Q 2025 3413 2363 3413 
Q 2913 3413 3172 3097 
Q 3431 2781 3431 2113 
L 3431 331 
L 3944 331 
L 3944 0 
L 2356 0 
L 2356 331 
L 2853 331 
L 2853 1931 
Q 2853 2541 2703 2767 
Q 2553 2994 2175 2994 
Q 1775 2994 1565 2701 
Q 1356 2409 1356 1850 
L 1356 331 
L 1856 331 
L 1856 0 
L 263 0 
z
" transform="scale(0.015625)"/>
      <path id="DejaVuSerif-67" d="M 3359 2988 
L 3359 72 
Q 3359 -644 2965 -1033 
Q 2572 -1422 1844 -1422 
Q 1516 -1422 1216 -1362 
Q 916 -1303 641 -1184 
L 641 -488 
L 941 -488 
Q 997 -813 1206 -963 
Q 1416 -1113 1806 -1113 
Q 2313 -1113 2548 -827 
Q 2784 -541 2784 72 
L 2784 519 
Q 2616 206 2355 57 
Q 2094 -91 1709 -91 
Q 1097 -91 708 395 
Q 319 881 319 1663 
Q 319 2444 706 2928 
Q 1094 3413 1709 3413 
Q 2094 3413 2355 3264 
Q 2616 3116 2784 2803 
L 2784 3322 
L 3909 3322 
L 3909 2988 
L 3359 2988 
z
M 2784 1825 
Q 2784 2422 2554 2737 
Q 2325 3053 1888 3053 
Q 1444 3053 1217 2703 
Q 991 2353 991 1663 
Q 991 975 1217 622 
Q 1444 269 1888 269 
Q 2325 269 2554 583 
Q 2784 897 2784 1497 
L 2784 1825 
z
" transform="scale(0.015625)"/>
      <path id="DejaVuSerif-2f" d="M 1656 4666 
L 2156 4666 
L 500 -594 
L 0 -594 
L 1656 4666 
z
" transform="scale(0.015625)"/>
     </defs>
     <use xlink:href="#DejaVuSerif-4e"/>
     <use xlink:href="#DejaVuSerif-75" x="87.5"/>
     <use xlink:href="#DejaVuSerif-6d" x="151.904297"/>
     <use xlink:href="#DejaVuSerif-62" x="246.728516"/>
     <use xlink:href="#DejaVuSerif-65" x="310.742188"/>
     <use xlink:href="#DejaVuSerif-72" x="369.921875"/>
     <use xlink:href="#DejaVuSerif-20" x="417.724609"/>
     <use xlink:href="#DejaVuSerif-6f" x="449.511719"/>
     <use xlink:href="#DejaVuSerif-66" x="509.716797"/>
     <use xlink:href="#DejaVuSerif-20" x="546.728516"/>
     <use xlink:href="#DejaVuSerif-53" x="578.515625"/>
     <use xlink:href="#DejaVuSerif-75" x="647.021484"/>
     <use xlink:href="#DejaVuSerif-62" x="711.425781"/>
     <use xlink:href="#DejaVuSerif-6a" x="775.439453"/>
     <use xlink:href="#DejaVuSerif-65" x="806.445312"/>
     <use xlink:href="#DejaVuSerif-63" x="865.625"/>
     <use xlink:href="#DejaVuSerif-74" x="921.630859"/>
     <use xlink:href="#DejaVuSerif-73" x="961.816406"/>
     <use xlink:href="#DejaVuSerif-20" x="1013.134766"/>
     <use xlink:href="#DejaVuSerif-63" x="1044.921875"/>
     <use xlink:href="#DejaVuSerif-68" x="1100.927734"/>
     <use xlink:href="#DejaVuSerif-6f" x="1165.332031"/>
     <use xlink:href="#DejaVuSerif-73" x="1225.537109"/>
     <use xlink:href="#DejaVuSerif-65" x="1276.855469"/>
     <use xlink:href="#DejaVuSerif-20" x="1336.035156"/>
     <use xlink:href="#DejaVuSerif-54" x="1367.822266"/>
     <use xlink:href="#DejaVuSerif-6f" x="1426.771484"/>
     <use xlink:href="#DejaVuSerif-6e" x="1486.976562"/>
     <use xlink:href="#DejaVuSerif-67" x="1551.380859"/>
     <use xlink:href="#DejaVuSerif-75" x="1615.394531"/>
     <use xlink:href="#DejaVuSerif-65" x="1679.798828"/>
     <use xlink:href="#DejaVuSerif-2f" x="1738.978516"/>
     <use xlink:href="#DejaVuSerif-53" x="1772.669922"/>
     <use xlink:href="#DejaVuSerif-69" x="1841.175781"/>
     <use xlink:href="#DejaVuSerif-6e" x="1873.158203"/>
     <use xlink:href="#DejaVuSerif-67" x="1937.5625"/>
     <use xlink:href="#DejaVuSerif-69" x="2001.576172"/>
     <use xlink:href="#DejaVuSerif-6e" x="2033.558594"/>
     <use xlink:href="#DejaVuSerif-67" x="2097.962891"/>
    </g>
   </g>
  </g>
  <g id="legend_1">
   <g id="patch_12">
    <path d="M 986.745882 298.291062 
L 1013.745882 298.291062 
L 1013.745882 288.841062 
L 986.745882 288.841062 
z
" style="fill: #ff2e7e; stroke: #000000; stroke-linejoin: miter"/>
   </g>
   <g id="text_14">
    <!-- Hand -->
    <g transform="translate(1024.545882 298.291062) scale(0.135 -0.135)">
     <defs>
      <path id="DejaVuSerif-48" d="M 353 0 
L 353 331 
L 947 331 
L 947 4331 
L 353 4331 
L 353 4666 
L 2175 4666 
L 2175 4331 
L 1581 4331 
L 1581 2719 
L 4000 2719 
L 4000 4331 
L 3406 4331 
L 3406 4666 
L 5228 4666 
L 5228 4331 
L 4634 4331 
L 4634 331 
L 5228 331 
L 5228 0 
L 3406 0 
L 3406 331 
L 4000 331 
L 4000 2338 
L 1581 2338 
L 1581 331 
L 2175 331 
L 2175 0 
L 353 0 
z
" transform="scale(0.015625)"/>
      <path id="DejaVuSerif-64" d="M 3359 331 
L 3909 331 
L 3909 0 
L 2784 0 
L 2784 519 
Q 2616 206 2355 57 
Q 2094 -91 1709 -91 
Q 1097 -91 708 395 
Q 319 881 319 1663 
Q 319 2444 706 2928 
Q 1094 3413 1709 3413 
Q 2094 3413 2355 3264 
Q 2616 3116 2784 2803 
L 2784 4531 
L 2241 4531 
L 2241 4863 
L 3359 4863 
L 3359 331 
z
M 2784 1497 
L 2784 1825 
Q 2784 2422 2554 2737 
Q 2325 3053 1888 3053 
Q 1444 3053 1217 2703 
Q 991 2353 991 1663 
Q 991 975 1217 622 
Q 1444 269 1888 269 
Q 2325 269 2554 583 
Q 2784 897 2784 1497 
z
" transform="scale(0.015625)"/>
     </defs>
     <use xlink:href="#DejaVuSerif-48"/>
     <use xlink:href="#DejaVuSerif-61" x="87.207031"/>
     <use xlink:href="#DejaVuSerif-6e" x="146.826172"/>
     <use xlink:href="#DejaVuSerif-64" x="211.230469"/>
    </g>
   </g>
   <g id="patch_13">
    <path d="M 986.745882 318.10653 
L 1013.745882 318.10653 
L 1013.745882 308.65653 
L 986.745882 308.65653 
z
" style="fill: #d52db7; stroke: #000000; stroke-linejoin: miter"/>
   </g>
   <g id="text_15">
    <!-- Feet -->
    <g transform="translate(1024.545882 318.10653) scale(0.135 -0.135)">
     <use xlink:href="#DejaVuSerif-46"/>
     <use xlink:href="#DejaVuSerif-65" x="63.884766"/>
     <use xlink:href="#DejaVuSerif-65" x="123.064453"/>
     <use xlink:href="#DejaVuSerif-74" x="182.244141"/>
    </g>
   </g>
   <g id="patch_14">
    <path d="M 986.745882 337.921999 
L 1013.745882 337.921999 
L 1013.745882 328.471999 
L 986.745882 328.471999 
z
" style="fill: #6050dc; stroke: #000000; stroke-linejoin: miter"/>
   </g>
   <g id="text_16">
    <!-- Tongue -->
    <g transform="translate(1024.545882 337.921999) scale(0.135 -0.135)">
     <use xlink:href="#DejaVuSerif-54"/>
     <use xlink:href="#DejaVuSerif-6f" x="58.949219"/>
     <use xlink:href="#DejaVuSerif-6e" x="119.154297"/>
     <use xlink:href="#DejaVuSerif-67" x="183.558594"/>
     <use xlink:href="#DejaVuSerif-75" x="247.572266"/>
     <use xlink:href="#DejaVuSerif-65" x="311.976562"/>
    </g>
   </g>
   <g id="patch_15">
    <path d="M 986.745882 357.929421 
L 1013.745882 357.929421 
L 1013.745882 348.479421 
L 986.745882 348.479421 
z
" style="fill: #ff6b45; stroke: #000000; stroke-linejoin: miter"/>
   </g>
   <g id="text_17">
    <!-- Singing -->
    <g transform="translate(1024.545882 357.929421) scale(0.135 -0.135)">
     <use xlink:href="#DejaVuSerif-53"/>
     <use xlink:href="#DejaVuSerif-69" x="68.505859"/>
     <use xlink:href="#DejaVuSerif-6e" x="100.488281"/>
     <use xlink:href="#DejaVuSerif-67" x="164.892578"/>
     <use xlink:href="#DejaVuSerif-69" x="228.90625"/>
     <use xlink:href="#DejaVuSerif-6e" x="260.888672"/>
     <use xlink:href="#DejaVuSerif-67" x="325.292969"/>
    </g>
   </g>
  </g>
 </g>
</svg>
