<?xml version="1.0" encoding="utf-8" standalone="no"?>
<!DOCTYPE svg PUBLIC "-//W3C//DTD SVG 1.1//EN"
  "http://www.w3.org/Graphics/SVG/1.1/DTD/svg11.dtd">
<svg xmlns:xlink="http://www.w3.org/1999/xlink" width="1076.85pt" height="449.449632pt" viewBox="0 0 1076.85 449.449632" xmlns="http://www.w3.org/2000/svg" version="1.1">
 <metadata>
  <rdf:RDF xmlns:dc="http://purl.org/dc/elements/1.1/" xmlns:cc="http://creativecommons.org/ns#" xmlns:rdf="http://www.w3.org/1999/02/22-rdf-syntax-ns#">
   <cc:Work>
    <dc:type rdf:resource="http://purl.org/dc/dcmitype/StillImage"/>
    <dc:date>2024-11-24T01:01:40.043521</dc:date>
    <dc:format>image/svg+xml</dc:format>
    <dc:creator>
     <cc:Agent>
      <dc:title>Matplotlib v3.7.0, https://matplotlib.org/</dc:title>
     </cc:Agent>
    </dc:creator>
   </cc:Work>
  </rdf:RDF>
 </metadata>
 <defs>
  <style type="text/css">*{stroke-linejoin: round; stroke-linecap: butt}</style>
 </defs>
 <g id="figure_1">
  <g id="patch_1">
   <path d="M 0 449.449632 
L 1076.85 449.449632 
L 1076.85 0 
L 0 0 
z
" style="fill: #ffffff"/>
  </g>
  <g id="axes_1">
   <g id="patch_2">
    <path d="M 180 102.00525 
C 160.62475 102.00525 141.464184 106.078604 123.764524 113.960378 
C 106.064864 121.842152 90.218347 133.35768 77.255644 147.757981 
C 64.292941 162.158282 54.501317 179.124235 48.517626 197.55236 
C 42.533935 215.980485 40.490781 235.462399 42.521052 254.730983 
L 180 240.24525 
z
" style="fill: #ff2e7e; stroke: #000000; stroke-linejoin: miter"/>
   </g>
   <g id="patch_3">
    <path d="M 42.521052 254.730983 
C 44.550557 273.992292 50.605461 292.613827 60.292241 309.385326 
C 69.979021 326.156825 83.083173 340.7069 98.753021 352.089901 
L 180 240.24525 
z
" style="fill: #d52db7; stroke: #000000; stroke-linejoin: miter"/>
   </g>
   <g id="patch_4">
    <path d="M 98.753021 352.089901 
C 106.569007 357.767644 114.958669 362.610479 123.784391 366.538967 
C 132.610114 370.467455 141.823374 373.459998 151.273045 375.46751 
L 180 240.24525 
z
" style="fill: #6050dc; stroke: #000000; stroke-linejoin: miter"/>
   </g>
   <g id="patch_5">
    <path d="M 151.273045 375.46751 
C 170.22176 379.493023 189.806739 379.491018 208.75463 375.461628 
C 227.702521 371.432237 245.593583 363.464721 261.264596 352.077101 
C 276.93561 340.689482 290.039425 326.134021 299.724075 309.357069 
C 309.408724 292.580117 315.459669 273.953323 317.483497 254.68774 
C 319.507326 235.422158 317.459204 215.944565 311.472296 197.521333 
C 305.485387 179.098101 295.692315 162.137348 282.729794 147.741807 
C 269.767273 133.346266 253.922454 121.834832 236.225515 113.955943 
C 218.528576 106.077053 199.371546 102.005244 179.999955 102.00525 
L 180 240.24525 
z
" style="fill: #ff6b45; stroke: #000000; stroke-linejoin: miter"/>
   </g>
   <g id="matplotlib.axis_1"/>
   <g id="matplotlib.axis_2"/>
   <g id="text_1">
    <!-- 26.7% -->
    <g transform="translate(96.116355 188.616014) scale(0.14 -0.14)">
     <defs>
      <path id="DejaVuSerif-32" d="M 819 3553 
L 469 3553 
L 469 4384 
Q 803 4563 1142 4656 
Q 1481 4750 1806 4750 
Q 2534 4750 2956 4397 
Q 3378 4044 3378 3438 
Q 3378 2753 2422 1800 
Q 2347 1728 2309 1691 
L 1131 513 
L 3078 513 
L 3078 1088 
L 3444 1088 
L 3444 0 
L 434 0 
L 434 341 
L 1850 1753 
Q 2319 2222 2519 2614 
Q 2719 3006 2719 3438 
Q 2719 3909 2473 4175 
Q 2228 4441 1797 4441 
Q 1350 4441 1106 4219 
Q 863 3997 819 3553 
z
" transform="scale(0.015625)"/>
      <path id="DejaVuSerif-36" d="M 2094 219 
Q 2534 219 2771 542 
Q 3009 866 3009 1472 
Q 3009 2078 2771 2401 
Q 2534 2725 2094 2725 
Q 1647 2725 1412 2412 
Q 1178 2100 1178 1509 
Q 1178 888 1415 553 
Q 1653 219 2094 219 
z
M 1075 2569 
Q 1288 2803 1556 2918 
Q 1825 3034 2163 3034 
Q 2859 3034 3264 2615 
Q 3669 2197 3669 1472 
Q 3669 763 3233 336 
Q 2797 -91 2069 -91 
Q 1278 -91 853 498 
Q 428 1088 428 2181 
Q 428 3406 931 4078 
Q 1434 4750 2350 4750 
Q 2597 4750 2869 4703 
Q 3141 4656 3425 4563 
L 3425 3794 
L 3072 3794 
Q 3034 4109 2831 4275 
Q 2628 4441 2284 4441 
Q 1678 4441 1381 3981 
Q 1084 3522 1075 2569 
z
" transform="scale(0.015625)"/>
      <path id="DejaVuSerif-2e" d="M 603 325 
Q 603 500 722 622 
Q 841 744 1019 744 
Q 1191 744 1312 622 
Q 1434 500 1434 325 
Q 1434 153 1312 31 
Q 1191 -91 1019 -91 
Q 841 -91 722 29 
Q 603 150 603 325 
z
" transform="scale(0.015625)"/>
      <path id="DejaVuSerif-37" d="M 3609 4347 
L 1784 0 
L 1319 0 
L 3059 4153 
L 903 4153 
L 903 3578 
L 538 3578 
L 538 4666 
L 3609 4666 
L 3609 4347 
z
" transform="scale(0.015625)"/>
      <path id="DejaVuSerif-25" d="M 1434 4459 
Q 1159 4459 1004 4200 
Q 850 3941 850 3475 
Q 850 3016 1008 2753 
Q 1166 2491 1434 2491 
Q 1700 2491 1854 2752 
Q 2009 3013 2009 3475 
Q 2009 3938 1854 4198 
Q 1700 4459 1434 4459 
z
M 4653 2169 
Q 4381 2169 4226 1906 
Q 4072 1644 4072 1178 
Q 4072 719 4228 458 
Q 4384 197 4653 197 
Q 4922 197 5075 458 
Q 5228 719 5228 1178 
Q 5228 1641 5073 1905 
Q 4919 2169 4653 2169 
z
M 4653 2450 
Q 5147 2450 5437 2106 
Q 5728 1763 5728 1178 
Q 5728 594 5436 251 
Q 5144 -91 4653 -91 
Q 4153 -91 3862 251 
Q 3572 594 3572 1178 
Q 3572 1766 3864 2108 
Q 4156 2450 4653 2450 
z
M 4263 4750 
L 4738 4750 
L 1819 -91 
L 1344 -91 
L 4263 4750 
z
M 1428 4750 
Q 1922 4750 2215 4408 
Q 2509 4066 2509 3481 
Q 2509 2891 2217 2550 
Q 1925 2209 1428 2209 
Q 931 2209 642 2551 
Q 353 2894 353 3481 
Q 353 4063 643 4406 
Q 934 4750 1428 4750 
z
" transform="scale(0.015625)"/>
     </defs>
     <use xlink:href="#DejaVuSerif-32"/>
     <use xlink:href="#DejaVuSerif-36" x="63.623047"/>
     <use xlink:href="#DejaVuSerif-2e" x="127.246094"/>
     <use xlink:href="#DejaVuSerif-37" x="159.033203"/>
     <use xlink:href="#DejaVuSerif-25" x="222.65625"/>
    </g>
   </g>
   <g id="text_2">
    <!-- 13.3% -->
    <g transform="translate(85.938314 285.592421) scale(0.14 -0.14)">
     <defs>
      <path id="DejaVuSerif-31" d="M 909 0 
L 909 331 
L 1722 331 
L 1722 4213 
L 781 3603 
L 781 4013 
L 1919 4750 
L 2350 4750 
L 2350 331 
L 3163 331 
L 3163 0 
L 909 0 
z
" transform="scale(0.015625)"/>
      <path id="DejaVuSerif-33" d="M 622 4469 
Q 988 4606 1323 4678 
Q 1659 4750 1953 4750 
Q 2638 4750 3022 4454 
Q 3406 4159 3406 3634 
Q 3406 3213 3140 2930 
Q 2875 2647 2388 2547 
Q 2963 2466 3280 2130 
Q 3597 1794 3597 1259 
Q 3597 606 3158 257 
Q 2719 -91 1894 -91 
Q 1528 -91 1179 -12 
Q 831 66 488 225 
L 488 1131 
L 838 1131 
Q 869 681 1141 450 
Q 1413 219 1906 219 
Q 2384 219 2661 495 
Q 2938 772 2938 1253 
Q 2938 1803 2653 2086 
Q 2369 2369 1819 2369 
L 1522 2369 
L 1522 2688 
L 1678 2688 
Q 2225 2688 2498 2914 
Q 2772 3141 2772 3597 
Q 2772 4006 2547 4223 
Q 2322 4441 1900 4441 
Q 1478 4441 1245 4241 
Q 1013 4041 972 3647 
L 622 3647 
L 622 4469 
z
" transform="scale(0.015625)"/>
     </defs>
     <use xlink:href="#DejaVuSerif-31"/>
     <use xlink:href="#DejaVuSerif-33" x="63.623047"/>
     <use xlink:href="#DejaVuSerif-2e" x="127.246094"/>
     <use xlink:href="#DejaVuSerif-33" x="159.033203"/>
     <use xlink:href="#DejaVuSerif-25" x="222.65625"/>
    </g>
   </g>
   <g id="text_3">
    <!-- 6.7% -->
    <g transform="translate(128.487354 319.884605) scale(0.14 -0.14)">
     <use xlink:href="#DejaVuSerif-36"/>
     <use xlink:href="#DejaVuSerif-2e" x="63.623047"/>
     <use xlink:href="#DejaVuSerif-37" x="95.410156"/>
     <use xlink:href="#DejaVuSerif-25" x="159.033203"/>
    </g>
   </g>
   <g id="text_4">
    <!-- 53.3% -->
    <g transform="translate(240.253067 252.773869) scale(0.14 -0.14)">
     <defs>
      <path id="DejaVuSerif-35" d="M 3219 4666 
L 3219 4153 
L 1081 4153 
L 1081 2816 
Q 1244 2928 1461 2984 
Q 1678 3041 1947 3041 
Q 2703 3041 3140 2622 
Q 3578 2203 3578 1478 
Q 3578 738 3136 323 
Q 2694 -91 1894 -91 
Q 1572 -91 1234 -12 
Q 897 66 544 225 
L 544 1131 
L 897 1131 
Q 925 688 1179 453 
Q 1434 219 1894 219 
Q 2388 219 2653 544 
Q 2919 869 2919 1478 
Q 2919 2084 2655 2407 
Q 2391 2731 1894 2731 
Q 1613 2731 1398 2631 
Q 1184 2531 1019 2322 
L 750 2322 
L 750 4666 
L 3219 4666 
z
" transform="scale(0.015625)"/>
     </defs>
     <use xlink:href="#DejaVuSerif-35"/>
     <use xlink:href="#DejaVuSerif-33" x="63.623047"/>
     <use xlink:href="#DejaVuSerif-2e" x="127.246094"/>
     <use xlink:href="#DejaVuSerif-33" x="159.033203"/>
     <use xlink:href="#DejaVuSerif-25" x="222.65625"/>
    </g>
   </g>
   <g id="text_5">
    <!-- (a) Most Favorite Task  -->
    <g transform="translate(74.926406 41.289187) scale(0.18 -0.18)">
     <defs>
      <path id="DejaVuSerif-28" d="M 2041 -997 
Q 1281 -656 893 83 
Q 506 822 506 1931 
Q 506 3044 893 3783 
Q 1281 4522 2041 4863 
L 2041 4556 
Q 1559 4225 1350 3623 
Q 1141 3022 1141 1931 
Q 1141 844 1350 242 
Q 1559 -359 2041 -691 
L 2041 -997 
z
" transform="scale(0.015625)"/>
      <path id="DejaVuSerif-61" d="M 2547 1044 
L 2547 1747 
L 1806 1747 
Q 1378 1747 1168 1562 
Q 959 1378 959 997 
Q 959 650 1171 447 
Q 1384 244 1747 244 
Q 2106 244 2326 466 
Q 2547 688 2547 1044 
z
M 3122 2075 
L 3122 331 
L 3634 331 
L 3634 0 
L 2547 0 
L 2547 359 
Q 2356 128 2106 18 
Q 1856 -91 1522 -91 
Q 969 -91 644 203 
Q 319 497 319 997 
Q 319 1513 691 1797 
Q 1063 2081 1741 2081 
L 2547 2081 
L 2547 2309 
Q 2547 2688 2317 2895 
Q 2088 3103 1672 3103 
Q 1328 3103 1125 2947 
Q 922 2791 872 2484 
L 575 2484 
L 575 3156 
Q 875 3284 1158 3348 
Q 1441 3413 1709 3413 
Q 2400 3413 2761 3070 
Q 3122 2728 3122 2075 
z
" transform="scale(0.015625)"/>
      <path id="DejaVuSerif-29" d="M 453 -997 
L 453 -691 
Q 934 -359 1145 242 
Q 1356 844 1356 1931 
Q 1356 3022 1145 3623 
Q 934 4225 453 4556 
L 453 4863 
Q 1216 4522 1603 3783 
Q 1991 3044 1991 1931 
Q 1991 822 1603 83 
Q 1216 -656 453 -997 
z
" transform="scale(0.015625)"/>
      <path id="DejaVuSerif-20" transform="scale(0.015625)"/>
      <path id="DejaVuSerif-4d" d="M 353 0 
L 353 331 
L 947 331 
L 947 4331 
L 319 4331 
L 319 4666 
L 1678 4666 
L 3316 1344 
L 4953 4666 
L 6228 4666 
L 6228 4331 
L 5606 4331 
L 5606 331 
L 6203 331 
L 6203 0 
L 4378 0 
L 4378 331 
L 4972 331 
L 4972 3938 
L 3372 684 
L 2931 684 
L 1331 3938 
L 1331 331 
L 1925 331 
L 1925 0 
L 353 0 
z
" transform="scale(0.015625)"/>
      <path id="DejaVuSerif-6f" d="M 1925 219 
Q 2388 219 2623 584 
Q 2859 950 2859 1663 
Q 2859 2375 2623 2739 
Q 2388 3103 1925 3103 
Q 1463 3103 1227 2739 
Q 991 2375 991 1663 
Q 991 950 1228 584 
Q 1466 219 1925 219 
z
M 1925 -91 
Q 1200 -91 759 389 
Q 319 869 319 1663 
Q 319 2456 758 2934 
Q 1197 3413 1925 3413 
Q 2653 3413 3092 2934 
Q 3531 2456 3531 1663 
Q 3531 869 3092 389 
Q 2653 -91 1925 -91 
z
" transform="scale(0.015625)"/>
      <path id="DejaVuSerif-73" d="M 359 184 
L 359 959 
L 691 959 
Q 703 588 923 403 
Q 1144 219 1575 219 
Q 1963 219 2166 364 
Q 2369 509 2369 788 
Q 2369 1006 2220 1140 
Q 2072 1275 1594 1428 
L 1178 1569 
Q 750 1706 558 1912 
Q 366 2119 366 2438 
Q 366 2894 700 3153 
Q 1034 3413 1625 3413 
Q 1888 3413 2178 3344 
Q 2469 3275 2778 3144 
L 2778 2419 
L 2447 2419 
Q 2434 2741 2221 2922 
Q 2009 3103 1644 3103 
Q 1281 3103 1095 2975 
Q 909 2847 909 2591 
Q 909 2381 1050 2254 
Q 1191 2128 1613 1997 
L 2069 1856 
Q 2541 1709 2748 1489 
Q 2956 1269 2956 922 
Q 2956 450 2595 179 
Q 2234 -91 1600 -91 
Q 1278 -91 972 -22 
Q 666 47 359 184 
z
" transform="scale(0.015625)"/>
      <path id="DejaVuSerif-74" d="M 691 2988 
L 184 2988 
L 184 3322 
L 691 3322 
L 691 4353 
L 1269 4353 
L 1269 3322 
L 2350 3322 
L 2350 2988 
L 1269 2988 
L 1269 878 
Q 1269 456 1350 337 
Q 1431 219 1650 219 
Q 1875 219 1978 351 
Q 2081 484 2088 781 
L 2522 781 
Q 2497 328 2275 118 
Q 2053 -91 1600 -91 
Q 1103 -91 897 129 
Q 691 350 691 878 
L 691 2988 
z
" transform="scale(0.015625)"/>
      <path id="DejaVuSerif-46" d="M 353 0 
L 353 331 
L 947 331 
L 947 4331 
L 353 4331 
L 353 4666 
L 4172 4666 
L 4172 3628 
L 3788 3628 
L 3788 4281 
L 1581 4281 
L 1581 2719 
L 3175 2719 
L 3175 3303 
L 3559 3303 
L 3559 1753 
L 3175 1753 
L 3175 2338 
L 1581 2338 
L 1581 331 
L 2328 331 
L 2328 0 
L 353 0 
z
" transform="scale(0.015625)"/>
      <path id="DejaVuSerif-76" d="M 1581 0 
L 359 2988 
L -19 2988 
L -19 3322 
L 1509 3322 
L 1509 2988 
L 978 2988 
L 1913 703 
L 2847 2988 
L 2350 2988 
L 2350 3322 
L 3597 3322 
L 3597 2988 
L 3225 2988 
L 2003 0 
L 1581 0 
z
" transform="scale(0.015625)"/>
      <path id="DejaVuSerif-72" d="M 3059 3328 
L 3059 2497 
L 2728 2497 
Q 2713 2744 2591 2866 
Q 2469 2988 2234 2988 
Q 1809 2988 1582 2694 
Q 1356 2400 1356 1850 
L 1356 331 
L 2022 331 
L 2022 0 
L 263 0 
L 263 331 
L 781 331 
L 781 2994 
L 231 2994 
L 231 3322 
L 1356 3322 
L 1356 2731 
Q 1525 3078 1790 3245 
Q 2056 3413 2438 3413 
Q 2578 3413 2733 3391 
Q 2888 3369 3059 3328 
z
" transform="scale(0.015625)"/>
      <path id="DejaVuSerif-69" d="M 622 4353 
Q 622 4497 726 4603 
Q 831 4709 978 4709 
Q 1122 4709 1226 4603 
Q 1331 4497 1331 4353 
Q 1331 4206 1228 4103 
Q 1125 4000 978 4000 
Q 831 4000 726 4103 
Q 622 4206 622 4353 
z
M 1356 331 
L 1900 331 
L 1900 0 
L 231 0 
L 231 331 
L 781 331 
L 781 2988 
L 231 2988 
L 231 3322 
L 1356 3322 
L 1356 331 
z
" transform="scale(0.015625)"/>
      <path id="DejaVuSerif-65" d="M 3469 1600 
L 991 1600 
L 991 1575 
Q 991 903 1244 561 
Q 1497 219 1991 219 
Q 2369 219 2611 417 
Q 2853 616 2950 1006 
L 3413 1006 
Q 3275 459 2904 184 
Q 2534 -91 1931 -91 
Q 1203 -91 761 389 
Q 319 869 319 1663 
Q 319 2450 753 2931 
Q 1188 3413 1894 3413 
Q 2647 3413 3050 2948 
Q 3453 2484 3469 1600 
z
M 2791 1931 
Q 2772 2513 2545 2808 
Q 2319 3103 1894 3103 
Q 1497 3103 1269 2806 
Q 1041 2509 991 1931 
L 2791 1931 
z
" transform="scale(0.015625)"/>
      <path id="DejaVuSerif-54" d="M 1222 0 
L 1222 331 
L 1819 331 
L 1819 4294 
L 447 4294 
L 447 3566 
L 63 3566 
L 63 4666 
L 4206 4666 
L 4206 3566 
L 3822 3566 
L 3822 4294 
L 2450 4294 
L 2450 331 
L 3047 331 
L 3047 0 
L 1222 0 
z
" transform="scale(0.015625)"/>
      <path id="DejaVuSerif-6b" d="M 1831 0 
L 219 0 
L 219 331 
L 738 331 
L 738 4531 
L 184 4531 
L 184 4863 
L 1313 4863 
L 1313 1697 
L 2713 2988 
L 2234 2988 
L 2234 3322 
L 3738 3322 
L 3738 2988 
L 3169 2988 
L 2181 2075 
L 3444 331 
L 3922 331 
L 3922 0 
L 2284 0 
L 2284 331 
L 2759 331 
L 1766 1697 
L 1313 1275 
L 1313 331 
L 1831 331 
L 1831 0 
z
" transform="scale(0.015625)"/>
     </defs>
     <use xlink:href="#DejaVuSerif-28"/>
     <use xlink:href="#DejaVuSerif-61" x="39.013672"/>
     <use xlink:href="#DejaVuSerif-29" x="98.632812"/>
     <use xlink:href="#DejaVuSerif-20" x="137.646484"/>
     <use xlink:href="#DejaVuSerif-4d" x="169.433594"/>
     <use xlink:href="#DejaVuSerif-6f" x="271.826172"/>
     <use xlink:href="#DejaVuSerif-73" x="332.03125"/>
     <use xlink:href="#DejaVuSerif-74" x="383.349609"/>
     <use xlink:href="#DejaVuSerif-20" x="423.535156"/>
     <use xlink:href="#DejaVuSerif-46" x="455.322266"/>
     <use xlink:href="#DejaVuSerif-61" x="517.957031"/>
     <use xlink:href="#DejaVuSerif-76" x="577.576172"/>
     <use xlink:href="#DejaVuSerif-6f" x="634.070312"/>
     <use xlink:href="#DejaVuSerif-72" x="694.275391"/>
     <use xlink:href="#DejaVuSerif-69" x="742.078125"/>
     <use xlink:href="#DejaVuSerif-74" x="774.060547"/>
     <use xlink:href="#DejaVuSerif-65" x="814.246094"/>
     <use xlink:href="#DejaVuSerif-20" x="873.425781"/>
     <use xlink:href="#DejaVuSerif-54" x="905.212891"/>
     <use xlink:href="#DejaVuSerif-61" x="964.162109"/>
     <use xlink:href="#DejaVuSerif-73" x="1023.78125"/>
     <use xlink:href="#DejaVuSerif-6b" x="1075.099609"/>
     <use xlink:href="#DejaVuSerif-20" x="1135.695312"/>
    </g>
    <!--  -->
    <g transform="translate(180 61.44525) scale(0.18 -0.18)"/>
   </g>
  </g>
  <g id="axes_2">
   <g id="patch_6">
    <path d="M 536.4 102.00525 
C 507.211114 102.00525 478.75887 111.249945 455.144566 128.406741 
C 431.530261 145.563538 413.945808 169.766463 404.925946 197.526743 
L 536.4 240.24525 
z
" style="fill: #ff2e7e; stroke: #000000; stroke-linejoin: miter"/>
   </g>
   <g id="patch_7">
    <path d="M 404.925946 197.526743 
C 395.906085 225.287023 395.906086 255.203483 404.925948 282.963763 
C 413.945811 310.724043 431.530266 334.926967 455.144571 352.083762 
L 536.4 240.24525 
z
" style="fill: #d52db7; stroke: #000000; stroke-linejoin: miter"/>
   </g>
   <g id="patch_8">
    <path d="M 455.144571 352.083762 
C 474.772883 366.344565 497.813905 375.189876 521.942791 377.7272 
C 546.071676 380.264525 570.448644 376.405555 592.614051 366.53966 
C 614.779458 356.673766 633.961859 341.14432 648.225745 321.518249 
C 662.489631 301.892177 671.338562 278.852545 673.879677 254.724058 
L 536.4 240.24525 
z
" style="fill: #6050dc; stroke: #000000; stroke-linejoin: miter"/>
   </g>
   <g id="patch_9">
    <path d="M 673.879677 254.724058 
C 675.908917 235.455956 673.864967 215.974733 667.880761 197.547393 
C 661.896555 179.120052 652.104699 162.154932 639.142027 147.755393 
C 626.179354 133.355855 610.333109 121.840983 592.633886 113.95967 
C 574.934662 106.078358 555.774664 102.00525 536.4 102.00525 
L 536.4 240.24525 
z
" style="fill: #ff6b45; stroke: #000000; stroke-linejoin: miter"/>
   </g>
   <g id="matplotlib.axis_3"/>
   <g id="matplotlib.axis_4"/>
   <g id="text_6">
    <!-- 20.0% -->
    <g transform="translate(465.409708 177.00527) scale(0.14 -0.14)">
     <defs>
      <path id="DejaVuSerif-30" d="M 2034 219 
Q 2513 219 2750 744 
Q 2988 1269 2988 2328 
Q 2988 3391 2750 3916 
Q 2513 4441 2034 4441 
Q 1556 4441 1318 3916 
Q 1081 3391 1081 2328 
Q 1081 1269 1318 744 
Q 1556 219 2034 219 
z
M 2034 -91 
Q 1275 -91 848 546 
Q 422 1184 422 2328 
Q 422 3475 848 4112 
Q 1275 4750 2034 4750 
Q 2797 4750 3222 4112 
Q 3647 3475 3647 2328 
Q 3647 1184 3222 546 
Q 2797 -91 2034 -91 
z
" transform="scale(0.015625)"/>
     </defs>
     <use xlink:href="#DejaVuSerif-32"/>
     <use xlink:href="#DejaVuSerif-30" x="63.623047"/>
     <use xlink:href="#DejaVuSerif-2e" x="127.246094"/>
     <use xlink:href="#DejaVuSerif-30" x="159.033203"/>
     <use xlink:href="#DejaVuSerif-25" x="222.65625"/>
    </g>
   </g>
   <g id="text_7">
    <!-- 20.0% -->
    <g transform="translate(435.278538 269.739483) scale(0.14 -0.14)">
     <use xlink:href="#DejaVuSerif-32"/>
     <use xlink:href="#DejaVuSerif-30" x="63.623047"/>
     <use xlink:href="#DejaVuSerif-2e" x="127.246094"/>
     <use xlink:href="#DejaVuSerif-30" x="159.033203"/>
     <use xlink:href="#DejaVuSerif-25" x="222.65625"/>
    </g>
   </g>
   <g id="text_8">
    <!-- 33.3% -->
    <g transform="translate(547.891399 319.885021) scale(0.14 -0.14)">
     <use xlink:href="#DejaVuSerif-33"/>
     <use xlink:href="#DejaVuSerif-33" x="63.623047"/>
     <use xlink:href="#DejaVuSerif-2e" x="127.246094"/>
     <use xlink:href="#DejaVuSerif-33" x="159.033203"/>
     <use xlink:href="#DejaVuSerif-25" x="222.65625"/>
    </g>
   </g>
   <g id="text_9">
    <!-- 26.7% -->
    <g transform="translate(575.808185 188.614461) scale(0.14 -0.14)">
     <use xlink:href="#DejaVuSerif-32"/>
     <use xlink:href="#DejaVuSerif-36" x="63.623047"/>
     <use xlink:href="#DejaVuSerif-2e" x="127.246094"/>
     <use xlink:href="#DejaVuSerif-37" x="159.033203"/>
     <use xlink:href="#DejaVuSerif-25" x="222.65625"/>
    </g>
   </g>
   <g id="text_10">
    <!-- (b) Least Favorite Task  -->
    <g transform="translate(428.895 41.289187) scale(0.18 -0.18)">
     <defs>
      <path id="DejaVuSerif-62" d="M 738 331 
L 738 4531 
L 184 4531 
L 184 4863 
L 1313 4863 
L 1313 2803 
Q 1481 3116 1742 3264 
Q 2003 3413 2388 3413 
Q 3000 3413 3387 2928 
Q 3775 2444 3775 1663 
Q 3775 881 3387 395 
Q 3000 -91 2388 -91 
Q 2003 -91 1742 57 
Q 1481 206 1313 519 
L 1313 0 
L 184 0 
L 184 331 
L 738 331 
z
M 1313 1497 
Q 1313 897 1542 583 
Q 1772 269 2209 269 
Q 2650 269 2876 622 
Q 3103 975 3103 1663 
Q 3103 2353 2876 2703 
Q 2650 3053 2209 3053 
Q 1772 3053 1542 2737 
Q 1313 2422 1313 1825 
L 1313 1497 
z
" transform="scale(0.015625)"/>
      <path id="DejaVuSerif-4c" d="M 353 0 
L 353 331 
L 947 331 
L 947 4331 
L 353 4331 
L 353 4666 
L 2175 4666 
L 2175 4331 
L 1581 4331 
L 1581 384 
L 3713 384 
L 3713 1166 
L 4097 1166 
L 4097 0 
L 353 0 
z
" transform="scale(0.015625)"/>
     </defs>
     <use xlink:href="#DejaVuSerif-28"/>
     <use xlink:href="#DejaVuSerif-62" x="39.013672"/>
     <use xlink:href="#DejaVuSerif-29" x="103.027344"/>
     <use xlink:href="#DejaVuSerif-20" x="142.041016"/>
     <use xlink:href="#DejaVuSerif-4c" x="173.828125"/>
     <use xlink:href="#DejaVuSerif-65" x="240.234375"/>
     <use xlink:href="#DejaVuSerif-61" x="299.414062"/>
     <use xlink:href="#DejaVuSerif-73" x="359.033203"/>
     <use xlink:href="#DejaVuSerif-74" x="410.351562"/>
     <use xlink:href="#DejaVuSerif-20" x="450.537109"/>
     <use xlink:href="#DejaVuSerif-46" x="482.324219"/>
     <use xlink:href="#DejaVuSerif-61" x="544.958984"/>
     <use xlink:href="#DejaVuSerif-76" x="604.578125"/>
     <use xlink:href="#DejaVuSerif-6f" x="661.072266"/>
     <use xlink:href="#DejaVuSerif-72" x="721.277344"/>
     <use xlink:href="#DejaVuSerif-69" x="769.080078"/>
     <use xlink:href="#DejaVuSerif-74" x="801.0625"/>
     <use xlink:href="#DejaVuSerif-65" x="841.248047"/>
     <use xlink:href="#DejaVuSerif-20" x="900.427734"/>
     <use xlink:href="#DejaVuSerif-54" x="932.214844"/>
     <use xlink:href="#DejaVuSerif-61" x="991.164062"/>
     <use xlink:href="#DejaVuSerif-73" x="1050.783203"/>
     <use xlink:href="#DejaVuSerif-6b" x="1102.101562"/>
     <use xlink:href="#DejaVuSerif-20" x="1162.697266"/>
    </g>
    <!--  -->
    <g transform="translate(536.4 61.44525) scale(0.18 -0.18)"/>
   </g>
  </g>
  <g id="axes_3">
   <g id="patch_10">
    <path d="M 892.8 102.00525 
C 863.611114 102.00525 835.15887 111.249945 811.544566 128.406741 
C 787.930261 145.563538 770.345808 169.766463 761.325946 197.526743 
L 892.8 240.24525 
z
" style="fill: #6050dc; stroke: #000000; stroke-linejoin: miter"/>
   </g>
   <g id="patch_11">
    <path d="M 761.325946 197.526743 
C 756.843297 211.322921 754.56 225.739093 754.56 240.245253 
C 754.56 254.751413 756.843298 269.167585 761.325948 282.963763 
C 765.808599 296.759941 772.434986 309.764957 780.961493 321.500687 
C 789.488001 333.236417 799.808841 343.557256 811.544571 352.083762 
C 823.280301 360.610269 836.285318 367.236655 850.081496 371.719305 
C 863.877675 376.201954 878.293846 378.485251 892.800006 378.48525 
C 907.306167 378.485249 921.722338 376.201951 935.518516 371.719301 
C 949.314694 367.23665 962.31971 360.610262 974.05544 352.083755 
C 985.791169 343.557247 996.112008 333.236407 1004.638514 321.500676 
C 1013.165021 309.764946 1019.791407 296.759929 1024.274056 282.963751 
C 1028.756705 269.167572 1031.040001 254.7514 1031.04 240.24524 
C 1031.039999 225.73908 1028.756701 211.322909 1024.27405 197.526731 
C 1019.791399 183.730553 1013.165011 170.725537 1004.638503 158.989808 
C 996.111995 147.254078 985.791155 136.93324 974.055424 128.406734 
C 962.319693 119.880228 949.314676 113.253842 935.518498 108.771193 
C 921.722319 104.288545 907.306147 102.005249 892.799987 102.00525 
L 892.8 240.24525 
z
" style="fill: #ff6b45; stroke: #000000; stroke-linejoin: miter"/>
   </g>
   <g id="matplotlib.axis_5"/>
   <g id="matplotlib.axis_6"/>
   <g id="text_11">
    <!-- 20.0% -->
    <g transform="translate(821.809708 177.00527) scale(0.14 -0.14)">
     <use xlink:href="#DejaVuSerif-32"/>
     <use xlink:href="#DejaVuSerif-30" x="63.623047"/>
     <use xlink:href="#DejaVuSerif-2e" x="127.246094"/>
     <use xlink:href="#DejaVuSerif-30" x="159.033203"/>
     <use xlink:href="#DejaVuSerif-25" x="222.65625"/>
    </g>
   </g>
   <g id="text_12">
    <!-- 80.0% -->
    <g transform="translate(919.316232 311.211478) scale(0.14 -0.14)">
     <defs>
      <path id="DejaVuSerif-38" d="M 2981 1275 
Q 2981 1775 2732 2051 
Q 2484 2328 2034 2328 
Q 1584 2328 1336 2051 
Q 1088 1775 1088 1275 
Q 1088 772 1336 495 
Q 1584 219 2034 219 
Q 2484 219 2732 495 
Q 2981 772 2981 1275 
z
M 2853 3541 
Q 2853 3966 2637 4203 
Q 2422 4441 2034 4441 
Q 1650 4441 1433 4203 
Q 1216 3966 1216 3541 
Q 1216 3113 1433 2875 
Q 1650 2638 2034 2638 
Q 2422 2638 2637 2875 
Q 2853 3113 2853 3541 
z
M 2516 2484 
Q 3047 2413 3344 2092 
Q 3641 1772 3641 1275 
Q 3641 619 3225 264 
Q 2809 -91 2034 -91 
Q 1263 -91 845 264 
Q 428 619 428 1275 
Q 428 1772 725 2092 
Q 1022 2413 1556 2484 
Q 1084 2569 832 2842 
Q 581 3116 581 3541 
Q 581 4103 968 4426 
Q 1356 4750 2034 4750 
Q 2713 4750 3100 4426 
Q 3488 4103 3488 3541 
Q 3488 3116 3236 2842 
Q 2984 2569 2516 2484 
z
" transform="scale(0.015625)"/>
     </defs>
     <use xlink:href="#DejaVuSerif-38"/>
     <use xlink:href="#DejaVuSerif-30" x="63.623047"/>
     <use xlink:href="#DejaVuSerif-2e" x="127.246094"/>
     <use xlink:href="#DejaVuSerif-30" x="159.033203"/>
     <use xlink:href="#DejaVuSerif-25" x="222.65625"/>
    </g>
   </g>
   <g id="text_13">
    <!--  -->
    <g transform="translate(892.8 20.877187) scale(0.18 -0.18)"/>
    <!--  (c) Number of Subjects  -->
    <g transform="translate(780.975 41.03325) scale(0.18 -0.18)">
     <defs>
      <path id="DejaVuSerif-63" d="M 3291 997 
Q 3169 466 2822 187 
Q 2475 -91 1925 -91 
Q 1200 -91 759 389 
Q 319 869 319 1663 
Q 319 2459 759 2936 
Q 1200 3413 1925 3413 
Q 2241 3413 2553 3339 
Q 2866 3266 3181 3116 
L 3181 2266 
L 2847 2266 
Q 2781 2703 2561 2903 
Q 2341 3103 1931 3103 
Q 1466 3103 1228 2742 
Q 991 2381 991 1663 
Q 991 944 1227 581 
Q 1463 219 1931 219 
Q 2303 219 2525 412 
Q 2747 606 2828 997 
L 3291 997 
z
" transform="scale(0.015625)"/>
      <path id="DejaVuSerif-4e" d="M 313 0 
L 313 331 
L 941 331 
L 941 4331 
L 313 4331 
L 313 4666 
L 1509 4666 
L 4306 984 
L 4306 4331 
L 3681 4331 
L 3681 4666 
L 5319 4666 
L 5319 4331 
L 4691 4331 
L 4691 -91 
L 4313 -91 
L 1325 3841 
L 1325 331 
L 1953 331 
L 1953 0 
L 313 0 
z
" transform="scale(0.015625)"/>
      <path id="DejaVuSerif-75" d="M 2266 3322 
L 3341 3322 
L 3341 331 
L 3884 331 
L 3884 0 
L 2766 0 
L 2766 588 
Q 2606 256 2353 82 
Q 2100 -91 1766 -91 
Q 1213 -91 952 223 
Q 691 538 691 1209 
L 691 2988 
L 172 2988 
L 172 3322 
L 1269 3322 
L 1269 1388 
Q 1269 781 1417 556 
Q 1566 331 1947 331 
Q 2347 331 2556 625 
Q 2766 919 2766 1478 
L 2766 2988 
L 2266 2988 
L 2266 3322 
z
" transform="scale(0.015625)"/>
      <path id="DejaVuSerif-6d" d="M 3316 2675 
Q 3481 3041 3739 3227 
Q 3997 3413 4341 3413 
Q 4863 3413 5119 3089 
Q 5375 2766 5375 2113 
L 5375 331 
L 5894 331 
L 5894 0 
L 4300 0 
L 4300 331 
L 4800 331 
L 4800 2047 
Q 4800 2556 4650 2772 
Q 4500 2988 4153 2988 
Q 3769 2988 3567 2697 
Q 3366 2406 3366 1850 
L 3366 331 
L 3866 331 
L 3866 0 
L 2291 0 
L 2291 331 
L 2791 331 
L 2791 2069 
Q 2791 2566 2641 2777 
Q 2491 2988 2144 2988 
Q 1759 2988 1557 2697 
Q 1356 2406 1356 1850 
L 1356 331 
L 1856 331 
L 1856 0 
L 263 0 
L 263 331 
L 781 331 
L 781 2994 
L 231 2994 
L 231 3322 
L 1356 3322 
L 1356 2731 
Q 1516 3063 1762 3238 
Q 2009 3413 2322 3413 
Q 2709 3413 2968 3220 
Q 3228 3028 3316 2675 
z
" transform="scale(0.015625)"/>
      <path id="DejaVuSerif-66" d="M 2753 4078 
L 2450 4078 
Q 2447 4313 2317 4434 
Q 2188 4556 1941 4556 
Q 1619 4556 1487 4379 
Q 1356 4203 1356 3750 
L 1356 3322 
L 2284 3322 
L 2284 2988 
L 1356 2988 
L 1356 331 
L 2094 331 
L 2094 0 
L 231 0 
L 231 331 
L 781 331 
L 781 2988 
L 231 2988 
L 231 3322 
L 781 3322 
L 781 3738 
Q 781 4294 1070 4578 
Q 1359 4863 1919 4863 
Q 2128 4863 2337 4825 
Q 2547 4788 2753 4709 
L 2753 4078 
z
" transform="scale(0.015625)"/>
      <path id="DejaVuSerif-53" d="M 594 225 
L 594 1288 
L 953 1284 
Q 969 753 1261 498 
Q 1553 244 2150 244 
Q 2706 244 2998 464 
Q 3291 684 3291 1106 
Q 3291 1444 3114 1625 
Q 2938 1806 2369 1978 
L 1753 2163 
Q 1084 2366 811 2669 
Q 538 2972 538 3500 
Q 538 4094 959 4422 
Q 1381 4750 2144 4750 
Q 2469 4750 2856 4679 
Q 3244 4609 3681 4475 
L 3681 3481 
L 3328 3481 
Q 3275 3975 2998 4195 
Q 2722 4416 2156 4416 
Q 1663 4416 1405 4214 
Q 1147 4013 1147 3628 
Q 1147 3294 1340 3103 
Q 1534 2913 2163 2725 
L 2741 2553 
Q 3375 2363 3645 2067 
Q 3916 1772 3916 1275 
Q 3916 597 3481 253 
Q 3047 -91 2188 -91 
Q 1803 -91 1404 -12 
Q 1006 66 594 225 
z
" transform="scale(0.015625)"/>
      <path id="DejaVuSerif-6a" d="M 641 4353 
Q 641 4497 745 4603 
Q 850 4709 997 4709 
Q 1141 4709 1245 4603 
Q 1350 4497 1350 4353 
Q 1350 4206 1248 4103 
Q 1147 4000 997 4000 
Q 850 4000 745 4103 
Q 641 4206 641 4353 
z
M 781 2988 
L 238 2988 
L 238 3322 
L 1356 3322 
L 1356 -325 
Q 1356 -838 1051 -1130 
Q 747 -1422 213 -1422 
Q -13 -1422 -217 -1370 
Q -422 -1319 -616 -1216 
L -616 -531 
L -319 -531 
Q -297 -831 -164 -972 
Q -31 -1113 225 -1113 
Q 509 -1113 645 -920 
Q 781 -728 781 -325 
L 781 2988 
z
" transform="scale(0.015625)"/>
     </defs>
     <use xlink:href="#DejaVuSerif-20"/>
     <use xlink:href="#DejaVuSerif-28" x="31.787109"/>
     <use xlink:href="#DejaVuSerif-63" x="70.800781"/>
     <use xlink:href="#DejaVuSerif-29" x="126.806641"/>
     <use xlink:href="#DejaVuSerif-20" x="165.820312"/>
     <use xlink:href="#DejaVuSerif-4e" x="197.607422"/>
     <use xlink:href="#DejaVuSerif-75" x="285.107422"/>
     <use xlink:href="#DejaVuSerif-6d" x="349.511719"/>
     <use xlink:href="#DejaVuSerif-62" x="444.335938"/>
     <use xlink:href="#DejaVuSerif-65" x="508.349609"/>
     <use xlink:href="#DejaVuSerif-72" x="567.529297"/>
     <use xlink:href="#DejaVuSerif-20" x="615.332031"/>
     <use xlink:href="#DejaVuSerif-6f" x="647.119141"/>
     <use xlink:href="#DejaVuSerif-66" x="707.324219"/>
     <use xlink:href="#DejaVuSerif-20" x="744.335938"/>
     <use xlink:href="#DejaVuSerif-53" x="776.123047"/>
     <use xlink:href="#DejaVuSerif-75" x="844.628906"/>
     <use xlink:href="#DejaVuSerif-62" x="909.033203"/>
     <use xlink:href="#DejaVuSerif-6a" x="973.046875"/>
     <use xlink:href="#DejaVuSerif-65" x="1004.052734"/>
     <use xlink:href="#DejaVuSerif-63" x="1063.232422"/>
     <use xlink:href="#DejaVuSerif-74" x="1119.238281"/>
     <use xlink:href="#DejaVuSerif-73" x="1159.423828"/>
     <use xlink:href="#DejaVuSerif-20" x="1210.742188"/>
    </g>
    <!--          Chose Tongue/Singing -->
    <g transform="translate(764.675156 61.44525) scale(0.18 -0.18)">
     <defs>
      <path id="DejaVuSerif-43" d="M 4513 1234 
Q 4306 581 3820 245 
Q 3334 -91 2591 -91 
Q 2134 -91 1743 65 
Q 1353 222 1050 525 
Q 700 875 529 1320 
Q 359 1766 359 2328 
Q 359 3416 987 4083 
Q 1616 4750 2644 4750 
Q 3025 4750 3456 4650 
Q 3888 4550 4384 4347 
L 4384 3272 
L 4031 3272 
Q 3916 3859 3567 4137 
Q 3219 4416 2591 4416 
Q 1844 4416 1459 3886 
Q 1075 3356 1075 2328 
Q 1075 1303 1459 773 
Q 1844 244 2591 244 
Q 3113 244 3450 492 
Q 3788 741 3938 1234 
L 4513 1234 
z
" transform="scale(0.015625)"/>
      <path id="DejaVuSerif-68" d="M 263 0 
L 263 331 
L 781 331 
L 781 4531 
L 231 4531 
L 231 4863 
L 1356 4863 
L 1356 2731 
Q 1516 3069 1770 3241 
Q 2025 3413 2363 3413 
Q 2913 3413 3172 3097 
Q 3431 2781 3431 2113 
L 3431 331 
L 3944 331 
L 3944 0 
L 2356 0 
L 2356 331 
L 2853 331 
L 2853 1931 
Q 2853 2541 2704 2764 
Q 2556 2988 2175 2988 
Q 1775 2988 1565 2697 
Q 1356 2406 1356 1850 
L 1356 331 
L 1856 331 
L 1856 0 
L 263 0 
z
" transform="scale(0.015625)"/>
      <path id="DejaVuSerif-6e" d="M 263 0 
L 263 331 
L 781 331 
L 781 2988 
L 231 2988 
L 231 3322 
L 1356 3322 
L 1356 2731 
Q 1516 3069 1770 3241 
Q 2025 3413 2363 3413 
Q 2913 3413 3172 3097 
Q 3431 2781 3431 2113 
L 3431 331 
L 3944 331 
L 3944 0 
L 2356 0 
L 2356 331 
L 2853 331 
L 2853 1931 
Q 2853 2541 2703 2767 
Q 2553 2994 2175 2994 
Q 1775 2994 1565 2701 
Q 1356 2409 1356 1850 
L 1356 331 
L 1856 331 
L 1856 0 
L 263 0 
z
" transform="scale(0.015625)"/>
      <path id="DejaVuSerif-67" d="M 3359 2988 
L 3359 72 
Q 3359 -644 2965 -1033 
Q 2572 -1422 1844 -1422 
Q 1516 -1422 1216 -1362 
Q 916 -1303 641 -1184 
L 641 -488 
L 941 -488 
Q 997 -813 1206 -963 
Q 1416 -1113 1806 -1113 
Q 2313 -1113 2548 -827 
Q 2784 -541 2784 72 
L 2784 519 
Q 2616 206 2355 57 
Q 2094 -91 1709 -91 
Q 1097 -91 708 395 
Q 319 881 319 1663 
Q 319 2444 706 2928 
Q 1094 3413 1709 3413 
Q 2094 3413 2355 3264 
Q 2616 3116 2784 2803 
L 2784 3322 
L 3909 3322 
L 3909 2988 
L 3359 2988 
z
M 2784 1825 
Q 2784 2422 2554 2737 
Q 2325 3053 1888 3053 
Q 1444 3053 1217 2703 
Q 991 2353 991 1663 
Q 991 975 1217 622 
Q 1444 269 1888 269 
Q 2325 269 2554 583 
Q 2784 897 2784 1497 
L 2784 1825 
z
" transform="scale(0.015625)"/>
      <path id="DejaVuSerif-2f" d="M 1656 4666 
L 2156 4666 
L 500 -594 
L 0 -594 
L 1656 4666 
z
" transform="scale(0.015625)"/>
     </defs>
     <use xlink:href="#DejaVuSerif-20"/>
     <use xlink:href="#DejaVuSerif-20" x="31.787109"/>
     <use xlink:href="#DejaVuSerif-20" x="63.574219"/>
     <use xlink:href="#DejaVuSerif-20" x="95.361328"/>
     <use xlink:href="#DejaVuSerif-20" x="127.148438"/>
     <use xlink:href="#DejaVuSerif-20" x="158.935547"/>
     <use xlink:href="#DejaVuSerif-20" x="190.722656"/>
     <use xlink:href="#DejaVuSerif-20" x="222.509766"/>
     <use xlink:href="#DejaVuSerif-20" x="254.296875"/>
     <use xlink:href="#DejaVuSerif-43" x="286.083984"/>
     <use xlink:href="#DejaVuSerif-68" x="362.597656"/>
     <use xlink:href="#DejaVuSerif-6f" x="427.001953"/>
     <use xlink:href="#DejaVuSerif-73" x="487.207031"/>
     <use xlink:href="#DejaVuSerif-65" x="538.525391"/>
     <use xlink:href="#DejaVuSerif-20" x="597.705078"/>
     <use xlink:href="#DejaVuSerif-54" x="629.492188"/>
     <use xlink:href="#DejaVuSerif-6f" x="688.441406"/>
     <use xlink:href="#DejaVuSerif-6e" x="748.646484"/>
     <use xlink:href="#DejaVuSerif-67" x="813.050781"/>
     <use xlink:href="#DejaVuSerif-75" x="877.064453"/>
     <use xlink:href="#DejaVuSerif-65" x="941.46875"/>
     <use xlink:href="#DejaVuSerif-2f" x="1000.648438"/>
     <use xlink:href="#DejaVuSerif-53" x="1034.339844"/>
     <use xlink:href="#DejaVuSerif-69" x="1102.845703"/>
     <use xlink:href="#DejaVuSerif-6e" x="1134.828125"/>
     <use xlink:href="#DejaVuSerif-67" x="1199.232422"/>
     <use xlink:href="#DejaVuSerif-69" x="1263.246094"/>
     <use xlink:href="#DejaVuSerif-6e" x="1295.228516"/>
     <use xlink:href="#DejaVuSerif-67" x="1359.632812"/>
    </g>
   </g>
  </g>
  <g id="legend_1">
   <g id="patch_12">
    <path d="M 974.342812 374.661742 
L 1001.342812 374.661742 
L 1001.342812 365.211742 
L 974.342812 365.211742 
z
" style="fill: #ff2e7e; stroke: #000000; stroke-linejoin: miter"/>
   </g>
   <g id="text_14">
    <!-- Hand -->
    <g transform="translate(1012.142812 374.661742) scale(0.135 -0.135)">
     <defs>
      <path id="DejaVuSerif-48" d="M 353 0 
L 353 331 
L 947 331 
L 947 4331 
L 353 4331 
L 353 4666 
L 2175 4666 
L 2175 4331 
L 1581 4331 
L 1581 2719 
L 4000 2719 
L 4000 4331 
L 3406 4331 
L 3406 4666 
L 5228 4666 
L 5228 4331 
L 4634 4331 
L 4634 331 
L 5228 331 
L 5228 0 
L 3406 0 
L 3406 331 
L 4000 331 
L 4000 2338 
L 1581 2338 
L 1581 331 
L 2175 331 
L 2175 0 
L 353 0 
z
" transform="scale(0.015625)"/>
      <path id="DejaVuSerif-64" d="M 3359 331 
L 3909 331 
L 3909 0 
L 2784 0 
L 2784 519 
Q 2616 206 2355 57 
Q 2094 -91 1709 -91 
Q 1097 -91 708 395 
Q 319 881 319 1663 
Q 319 2444 706 2928 
Q 1094 3413 1709 3413 
Q 2094 3413 2355 3264 
Q 2616 3116 2784 2803 
L 2784 4531 
L 2241 4531 
L 2241 4863 
L 3359 4863 
L 3359 331 
z
M 2784 1497 
L 2784 1825 
Q 2784 2422 2554 2737 
Q 2325 3053 1888 3053 
Q 1444 3053 1217 2703 
Q 991 2353 991 1663 
Q 991 975 1217 622 
Q 1444 269 1888 269 
Q 2325 269 2554 583 
Q 2784 897 2784 1497 
z
" transform="scale(0.015625)"/>
     </defs>
     <use xlink:href="#DejaVuSerif-48"/>
     <use xlink:href="#DejaVuSerif-61" x="87.207031"/>
     <use xlink:href="#DejaVuSerif-6e" x="146.826172"/>
     <use xlink:href="#DejaVuSerif-64" x="211.230469"/>
    </g>
   </g>
   <g id="patch_13">
    <path d="M 974.342812 394.47721 
L 1001.342812 394.47721 
L 1001.342812 385.02721 
L 974.342812 385.02721 
z
" style="fill: #d52db7; stroke: #000000; stroke-linejoin: miter"/>
   </g>
   <g id="text_15">
    <!-- Feet -->
    <g transform="translate(1012.142812 394.47721) scale(0.135 -0.135)">
     <use xlink:href="#DejaVuSerif-46"/>
     <use xlink:href="#DejaVuSerif-65" x="63.884766"/>
     <use xlink:href="#DejaVuSerif-65" x="123.064453"/>
     <use xlink:href="#DejaVuSerif-74" x="182.244141"/>
    </g>
   </g>
   <g id="patch_14">
    <path d="M 974.342812 414.292679 
L 1001.342812 414.292679 
L 1001.342812 404.842679 
L 974.342812 404.842679 
z
" style="fill: #6050dc; stroke: #000000; stroke-linejoin: miter"/>
   </g>
   <g id="text_16">
    <!-- Tongue -->
    <g transform="translate(1012.142812 414.292679) scale(0.135 -0.135)">
     <use xlink:href="#DejaVuSerif-54"/>
     <use xlink:href="#DejaVuSerif-6f" x="58.949219"/>
     <use xlink:href="#DejaVuSerif-6e" x="119.154297"/>
     <use xlink:href="#DejaVuSerif-67" x="183.558594"/>
     <use xlink:href="#DejaVuSerif-75" x="247.572266"/>
     <use xlink:href="#DejaVuSerif-65" x="311.976562"/>
    </g>
   </g>
   <g id="patch_15">
    <path d="M 974.342812 434.300101 
L 1001.342812 434.300101 
L 1001.342812 424.850101 
L 974.342812 424.850101 
z
" style="fill: #ff6b45; stroke: #000000; stroke-linejoin: miter"/>
   </g>
   <g id="text_17">
    <!-- Singing -->
    <g transform="translate(1012.142812 434.300101) scale(0.135 -0.135)">
     <use xlink:href="#DejaVuSerif-53"/>
     <use xlink:href="#DejaVuSerif-69" x="68.505859"/>
     <use xlink:href="#DejaVuSerif-6e" x="100.488281"/>
     <use xlink:href="#DejaVuSerif-67" x="164.892578"/>
     <use xlink:href="#DejaVuSerif-69" x="228.90625"/>
     <use xlink:href="#DejaVuSerif-6e" x="260.888672"/>
     <use xlink:href="#DejaVuSerif-67" x="325.292969"/>
    </g>
   </g>
  </g>
 </g>
</svg>
