<?xml version="1.0" encoding="utf-8" standalone="no"?>
<!DOCTYPE svg PUBLIC "-//W3C//DTD SVG 1.1//EN"
  "http://www.w3.org/Graphics/SVG/1.1/DTD/svg11.dtd">
<svg xmlns:xlink="http://www.w3.org/1999/xlink" width="5040pt" height="5040pt" viewBox="0 0 5040 5040" xmlns="http://www.w3.org/2000/svg" version="1.1">
 <metadata>
  <rdf:RDF xmlns:dc="http://purl.org/dc/elements/1.1/" xmlns:cc="http://creativecommons.org/ns#" xmlns:rdf="http://www.w3.org/1999/02/22-rdf-syntax-ns#">
   <cc:Work>
    <dc:type rdf:resource="http://purl.org/dc/dcmitype/StillImage"/>
    <dc:date>2024-02-23T14:36:58.153638</dc:date>
    <dc:format>image/svg+xml</dc:format>
    <dc:creator>
     <cc:Agent>
      <dc:title>Matplotlib v3.7.0, https://matplotlib.org/</dc:title>
     </cc:Agent>
    </dc:creator>
   </cc:Work>
  </rdf:RDF>
 </metadata>
 <defs>
  <style type="text/css">*{stroke-linejoin: round; stroke-linecap: butt}</style>
 </defs>
 <g id="figure_1">
  <g id="patch_1">
   <path d="M 0 5040 
L 5040 5040 
L 5040 0 
L 0 0 
z
" style="fill: #ffffff"/>
  </g>
  <g id="axes_1">
   <g id="patch_2">
    <path d="M 82.725 3389.755187 
L 5029.2 3389.755187 
L 5029.2 1650.244812 
L 82.725 1650.244812 
z
" style="fill: #ffffff"/>
   </g>
   <g id="patch_3">
    <path d="M 247.6075 3307.313938 
L 659.81375 3307.313938 
L 659.81375 1864.592062 
L 247.6075 1864.592062 
z
" clip-path="url(#p91cf7ce297)" style="fill: #1ea4a4; stroke: #1ea4a4; stroke-linejoin: miter"/>
   </g>
   <g id="patch_4">
    <path d="M 659.81375 3307.313938 
L 989.57875 3307.313938 
L 989.57875 1864.592062 
L 659.81375 1864.592062 
z
" clip-path="url(#p91cf7ce297)" style="fill: #c8c8c8; stroke: #c8c8c8; stroke-linejoin: miter"/>
   </g>
   <g id="patch_5">
    <path d="M 989.57875 3307.313938 
L 1319.34375 3307.313938 
L 1319.34375 1864.592062 
L 989.57875 1864.592062 
z
" clip-path="url(#p91cf7ce297)" style="fill: #1ea4a4; stroke: #1ea4a4; stroke-linejoin: miter"/>
   </g>
   <g id="patch_6">
    <path d="M 1319.34375 3307.313938 
L 1484.22625 3307.313938 
L 1484.22625 1864.592062 
L 1319.34375 1864.592062 
z
" clip-path="url(#p91cf7ce297)" style="fill: #c8c8c8; stroke: #c8c8c8; stroke-linejoin: miter"/>
   </g>
   <g id="patch_7">
    <path d="M 1484.22625 3307.313938 
L 1731.55 3307.313938 
L 1731.55 1864.592062 
L 1484.22625 1864.592062 
z
" clip-path="url(#p91cf7ce297)" style="fill: #1ea4a4; stroke: #1ea4a4; stroke-linejoin: miter"/>
   </g>
   <g id="patch_8">
    <path d="M 1731.55 3307.313938 
L 2143.75625 3307.313938 
L 2143.75625 1864.592062 
L 1731.55 1864.592062 
z
" clip-path="url(#p91cf7ce297)" style="fill: #c8c8c8; stroke: #c8c8c8; stroke-linejoin: miter"/>
   </g>
   <g id="patch_9">
    <path d="M 2143.75625 3307.313938 
L 2308.63875 3307.313938 
L 2308.63875 1864.592062 
L 2143.75625 1864.592062 
z
" clip-path="url(#p91cf7ce297)" style="fill: #1ea4a4; stroke: #1ea4a4; stroke-linejoin: miter"/>
   </g>
   <g id="patch_10">
    <path d="M 2308.63875 3307.313938 
L 2555.9625 3307.313938 
L 2555.9625 1864.592062 
L 2308.63875 1864.592062 
z
" clip-path="url(#p91cf7ce297)" style="fill: #c8c8c8; stroke: #c8c8c8; stroke-linejoin: miter"/>
   </g>
   <g id="patch_11">
    <path d="M 2555.9625 3307.313938 
L 2885.7275 3307.313938 
L 2885.7275 1864.592062 
L 2555.9625 1864.592062 
z
" clip-path="url(#p91cf7ce297)" style="fill: #1ea4a4; stroke: #1ea4a4; stroke-linejoin: miter"/>
   </g>
   <g id="patch_12">
    <path d="M 2885.7275 3307.313938 
L 3215.4925 3307.313938 
L 3215.4925 1864.592062 
L 2885.7275 1864.592062 
z
" clip-path="url(#p91cf7ce297)" style="fill: #c8c8c8; stroke: #c8c8c8; stroke-linejoin: miter"/>
   </g>
   <g id="patch_13">
    <path d="M 3215.4925 3307.313938 
L 3380.375 3307.313938 
L 3380.375 1864.592062 
L 3215.4925 1864.592062 
z
" clip-path="url(#p91cf7ce297)" style="fill: #1ea4a4; stroke: #1ea4a4; stroke-linejoin: miter"/>
   </g>
   <g id="patch_14">
    <path d="M 3380.375 3307.313938 
L 3545.2575 3307.313938 
L 3545.2575 1864.592062 
L 3380.375 1864.592062 
z
" clip-path="url(#p91cf7ce297)" style="fill: #c8c8c8; stroke: #c8c8c8; stroke-linejoin: miter"/>
   </g>
   <g id="patch_15">
    <path d="M 3545.2575 3307.313938 
L 3792.58125 3307.313938 
L 3792.58125 1864.592062 
L 3545.2575 1864.592062 
z
" clip-path="url(#p91cf7ce297)" style="fill: #1ea4a4; stroke: #1ea4a4; stroke-linejoin: miter"/>
   </g>
   <g id="patch_16">
    <path d="M 3792.58125 3307.313938 
L 4039.905 3307.313938 
L 4039.905 1864.592062 
L 3792.58125 1864.592062 
z
" clip-path="url(#p91cf7ce297)" style="fill: #c8c8c8; stroke: #c8c8c8; stroke-linejoin: miter"/>
   </g>
   <g id="patch_17">
    <path d="M 4039.905 3307.313938 
L 4452.11125 3307.313938 
L 4452.11125 1864.592062 
L 4039.905 1864.592062 
z
" clip-path="url(#p91cf7ce297)" style="fill: #1ea4a4; stroke: #1ea4a4; stroke-linejoin: miter"/>
   </g>
   <g id="patch_18">
    <path d="M 4452.11125 3307.313938 
L 4864.3175 3307.313938 
L 4864.3175 1864.592062 
L 4452.11125 1864.592062 
z
" clip-path="url(#p91cf7ce297)" style="fill: #c8c8c8; stroke: #c8c8c8; stroke-linejoin: miter"/>
   </g>
   <g id="patch_19">
    <path d="M 263.065234 2240.730266 
C 267.164673 2240.730266 271.096762 2239.101541 273.995503 2236.2028 
C 276.894244 2233.304059 278.522969 2229.37197 278.522969 2225.272531 
C 278.522969 2221.173092 276.894244 2217.241004 273.995503 2214.342262 
C 271.096762 2211.443521 267.164673 2209.814797 263.065234 2209.814797 
C 258.965795 2209.814797 255.033707 2211.443521 252.134966 2214.342262 
C 249.236224 2217.241004 247.6075 2221.173092 247.6075 2225.272531 
C 247.6075 2229.37197 249.236224 2233.304059 252.134966 2236.2028 
C 255.033707 2239.101541 258.965795 2240.730266 263.065234 2240.730266 
z
" clip-path="url(#p91cf7ce297)" style="stroke: #000000; stroke-linejoin: miter"/>
   </g>
   <g id="patch_20">
    <path d="M 345.506484 2240.730266 
C 349.605923 2240.730266 353.538012 2239.101541 356.436753 2236.2028 
C 359.335494 2233.304059 360.964219 2229.37197 360.964219 2225.272531 
C 360.964219 2221.173092 359.335494 2217.241004 356.436753 2214.342262 
C 353.538012 2211.443521 349.605923 2209.814797 345.506484 2209.814797 
C 341.407045 2209.814797 337.474957 2211.443521 334.576216 2214.342262 
C 331.677474 2217.241004 330.04875 2221.173092 330.04875 2225.272531 
C 330.04875 2229.37197 331.677474 2233.304059 334.576216 2236.2028 
C 337.474957 2239.101541 341.407045 2240.730266 345.506484 2240.730266 
z
" clip-path="url(#p91cf7ce297)" style="stroke: #000000; stroke-linejoin: miter"/>
   </g>
   <g id="patch_21">
    <path d="M 427.947734 2240.730266 
C 432.047173 2240.730266 435.979262 2239.101541 438.878003 2236.2028 
C 441.776744 2233.304059 443.405469 2229.37197 443.405469 2225.272531 
C 443.405469 2221.173092 441.776744 2217.241004 438.878003 2214.342262 
C 435.979262 2211.443521 432.047173 2209.814797 427.947734 2209.814797 
C 423.848295 2209.814797 419.916207 2211.443521 417.017466 2214.342262 
C 414.118724 2217.241004 412.49 2221.173092 412.49 2225.272531 
C 412.49 2229.37197 414.118724 2233.304059 417.017466 2236.2028 
C 419.916207 2239.101541 423.848295 2240.730266 427.947734 2240.730266 
z
" clip-path="url(#p91cf7ce297)" style="stroke: #000000; stroke-linejoin: miter"/>
   </g>
   <g id="patch_22">
    <path d="M 510.388984 2240.730266 
C 514.488423 2240.730266 518.420512 2239.101541 521.319253 2236.2028 
C 524.217994 2233.304059 525.846719 2229.37197 525.846719 2225.272531 
C 525.846719 2221.173092 524.217994 2217.241004 521.319253 2214.342262 
C 518.420512 2211.443521 514.488423 2209.814797 510.388984 2209.814797 
C 506.289545 2209.814797 502.357457 2211.443521 499.458716 2214.342262 
C 496.559974 2217.241004 494.93125 2221.173092 494.93125 2225.272531 
C 494.93125 2229.37197 496.559974 2233.304059 499.458716 2236.2028 
C 502.357457 2239.101541 506.289545 2240.730266 510.388984 2240.730266 
z
" clip-path="url(#p91cf7ce297)" style="stroke: #000000; stroke-linejoin: miter"/>
   </g>
   <g id="patch_23">
    <path d="M 592.830234 2240.730266 
C 596.929673 2240.730266 600.861762 2239.101541 603.760503 2236.2028 
C 606.659244 2233.304059 608.287969 2229.37197 608.287969 2225.272531 
C 608.287969 2221.173092 606.659244 2217.241004 603.760503 2214.342262 
C 600.861762 2211.443521 596.929673 2209.814797 592.830234 2209.814797 
C 588.730795 2209.814797 584.798707 2211.443521 581.899966 2214.342262 
C 579.001224 2217.241004 577.3725 2221.173092 577.3725 2225.272531 
C 577.3725 2229.37197 579.001224 2233.304059 581.899966 2236.2028 
C 584.798707 2239.101541 588.730795 2240.730266 592.830234 2240.730266 
z
" clip-path="url(#p91cf7ce297)" style="stroke: #000000; stroke-linejoin: miter"/>
   </g>
   <g id="patch_24">
    <path d="M 675.271484 2240.730266 
C 679.370923 2240.730266 683.303012 2239.101541 686.201753 2236.2028 
C 689.100494 2233.304059 690.729219 2229.37197 690.729219 2225.272531 
C 690.729219 2221.173092 689.100494 2217.241004 686.201753 2214.342262 
C 683.303012 2211.443521 679.370923 2209.814797 675.271484 2209.814797 
C 671.172045 2209.814797 667.239957 2211.443521 664.341216 2214.342262 
C 661.442474 2217.241004 659.81375 2221.173092 659.81375 2225.272531 
C 659.81375 2229.37197 661.442474 2233.304059 664.341216 2236.2028 
C 667.239957 2239.101541 671.172045 2240.730266 675.271484 2240.730266 
z
" clip-path="url(#p91cf7ce297)" style="stroke: #000000; stroke-linejoin: miter"/>
   </g>
   <g id="patch_25">
    <path d="M 757.712734 2962.091203 
C 761.812173 2962.091203 765.744262 2960.462479 768.643003 2957.563738 
C 771.541744 2954.664996 773.170469 2950.732908 773.170469 2946.633469 
C 773.170469 2942.53403 771.541744 2938.601941 768.643003 2935.7032 
C 765.744262 2932.804459 761.812173 2931.175734 757.712734 2931.175734 
C 753.613295 2931.175734 749.681207 2932.804459 746.782466 2935.7032 
C 743.883724 2938.601941 742.255 2942.53403 742.255 2946.633469 
C 742.255 2950.732908 743.883724 2954.664996 746.782466 2957.563738 
C 749.681207 2960.462479 753.613295 2962.091203 757.712734 2962.091203 
z
" clip-path="url(#p91cf7ce297)" style="stroke: #000000; stroke-linejoin: miter"/>
   </g>
   <g id="patch_26">
    <path d="M 840.153984 2962.091203 
C 844.253423 2962.091203 848.185512 2960.462479 851.084253 2957.563738 
C 853.982994 2954.664996 855.611719 2950.732908 855.611719 2946.633469 
C 855.611719 2942.53403 853.982994 2938.601941 851.084253 2935.7032 
C 848.185512 2932.804459 844.253423 2931.175734 840.153984 2931.175734 
C 836.054545 2931.175734 832.122457 2932.804459 829.223716 2935.7032 
C 826.324974 2938.601941 824.69625 2942.53403 824.69625 2946.633469 
C 824.69625 2950.732908 826.324974 2954.664996 829.223716 2957.563738 
C 832.122457 2960.462479 836.054545 2962.091203 840.153984 2962.091203 
z
" clip-path="url(#p91cf7ce297)" style="stroke: #000000; stroke-linejoin: miter"/>
   </g>
   <g id="patch_27">
    <path d="M 922.595234 2962.091203 
C 926.694673 2962.091203 930.626762 2960.462479 933.525503 2957.563738 
C 936.424244 2954.664996 938.052969 2950.732908 938.052969 2946.633469 
C 938.052969 2942.53403 936.424244 2938.601941 933.525503 2935.7032 
C 930.626762 2932.804459 926.694673 2931.175734 922.595234 2931.175734 
C 918.495795 2931.175734 914.563707 2932.804459 911.664966 2935.7032 
C 908.766224 2938.601941 907.1375 2942.53403 907.1375 2946.633469 
C 907.1375 2950.732908 908.766224 2954.664996 911.664966 2957.563738 
C 914.563707 2960.462479 918.495795 2962.091203 922.595234 2962.091203 
z
" clip-path="url(#p91cf7ce297)" style="stroke: #000000; stroke-linejoin: miter"/>
   </g>
   <g id="patch_28">
    <path d="M 1005.036484 2240.730266 
C 1009.135923 2240.730266 1013.068012 2239.101541 1015.966753 2236.2028 
C 1018.865494 2233.304059 1020.494219 2229.37197 1020.494219 2225.272531 
C 1020.494219 2221.173092 1018.865494 2217.241004 1015.966753 2214.342262 
C 1013.068012 2211.443521 1009.135923 2209.814797 1005.036484 2209.814797 
C 1000.937045 2209.814797 997.004957 2211.443521 994.106216 2214.342262 
C 991.207474 2217.241004 989.57875 2221.173092 989.57875 2225.272531 
C 989.57875 2229.37197 991.207474 2233.304059 994.106216 2236.2028 
C 997.004957 2239.101541 1000.937045 2240.730266 1005.036484 2240.730266 
z
" clip-path="url(#p91cf7ce297)" style="stroke: #000000; stroke-linejoin: miter"/>
   </g>
   <g id="patch_29">
    <path d="M 1087.477734 2240.730266 
C 1091.577173 2240.730266 1095.509262 2239.101541 1098.408003 2236.2028 
C 1101.306744 2233.304059 1102.935469 2229.37197 1102.935469 2225.272531 
C 1102.935469 2221.173092 1101.306744 2217.241004 1098.408003 2214.342262 
C 1095.509262 2211.443521 1091.577173 2209.814797 1087.477734 2209.814797 
C 1083.378295 2209.814797 1079.446207 2211.443521 1076.547466 2214.342262 
C 1073.648724 2217.241004 1072.02 2221.173092 1072.02 2225.272531 
C 1072.02 2229.37197 1073.648724 2233.304059 1076.547466 2236.2028 
C 1079.446207 2239.101541 1083.378295 2240.730266 1087.477734 2240.730266 
z
" clip-path="url(#p91cf7ce297)" style="stroke: #000000; stroke-linejoin: miter"/>
   </g>
   <g id="patch_30">
    <path d="M 1169.918984 2240.730266 
C 1174.018423 2240.730266 1177.950512 2239.101541 1180.849253 2236.2028 
C 1183.747994 2233.304059 1185.376719 2229.37197 1185.376719 2225.272531 
C 1185.376719 2221.173092 1183.747994 2217.241004 1180.849253 2214.342262 
C 1177.950512 2211.443521 1174.018423 2209.814797 1169.918984 2209.814797 
C 1165.819545 2209.814797 1161.887457 2211.443521 1158.988716 2214.342262 
C 1156.089974 2217.241004 1154.46125 2221.173092 1154.46125 2225.272531 
C 1154.46125 2229.37197 1156.089974 2233.304059 1158.988716 2236.2028 
C 1161.887457 2239.101541 1165.819545 2240.730266 1169.918984 2240.730266 
z
" clip-path="url(#p91cf7ce297)" style="stroke: #000000; stroke-linejoin: miter"/>
   </g>
   <g id="patch_31">
    <path d="M 1252.360234 2240.730266 
C 1256.459673 2240.730266 1260.391762 2239.101541 1263.290503 2236.2028 
C 1266.189244 2233.304059 1267.817969 2229.37197 1267.817969 2225.272531 
C 1267.817969 2221.173092 1266.189244 2217.241004 1263.290503 2214.342262 
C 1260.391762 2211.443521 1256.459673 2209.814797 1252.360234 2209.814797 
C 1248.260795 2209.814797 1244.328707 2211.443521 1241.429966 2214.342262 
C 1238.531224 2217.241004 1236.9025 2221.173092 1236.9025 2225.272531 
C 1236.9025 2229.37197 1238.531224 2233.304059 1241.429966 2236.2028 
C 1244.328707 2239.101541 1248.260795 2240.730266 1252.360234 2240.730266 
z
" clip-path="url(#p91cf7ce297)" style="stroke: #000000; stroke-linejoin: miter"/>
   </g>
   <g id="patch_32">
    <path d="M 1334.801484 2962.091203 
C 1338.900923 2962.091203 1342.833012 2960.462479 1345.731753 2957.563738 
C 1348.630494 2954.664996 1350.259219 2950.732908 1350.259219 2946.633469 
C 1350.259219 2942.53403 1348.630494 2938.601941 1345.731753 2935.7032 
C 1342.833012 2932.804459 1338.900923 2931.175734 1334.801484 2931.175734 
C 1330.702045 2931.175734 1326.769957 2932.804459 1323.871216 2935.7032 
C 1320.972474 2938.601941 1319.34375 2942.53403 1319.34375 2946.633469 
C 1319.34375 2950.732908 1320.972474 2954.664996 1323.871216 2957.563738 
C 1326.769957 2960.462479 1330.702045 2962.091203 1334.801484 2962.091203 
z
" clip-path="url(#p91cf7ce297)" style="stroke: #000000; stroke-linejoin: miter"/>
   </g>
   <g id="patch_33">
    <path d="M 1417.242734 2962.091203 
C 1421.342173 2962.091203 1425.274262 2960.462479 1428.173003 2957.563738 
C 1431.071744 2954.664996 1432.700469 2950.732908 1432.700469 2946.633469 
C 1432.700469 2942.53403 1431.071744 2938.601941 1428.173003 2935.7032 
C 1425.274262 2932.804459 1421.342173 2931.175734 1417.242734 2931.175734 
C 1413.143295 2931.175734 1409.211207 2932.804459 1406.312466 2935.7032 
C 1403.413724 2938.601941 1401.785 2942.53403 1401.785 2946.633469 
C 1401.785 2950.732908 1403.413724 2954.664996 1406.312466 2957.563738 
C 1409.211207 2960.462479 1413.143295 2962.091203 1417.242734 2962.091203 
z
" clip-path="url(#p91cf7ce297)" style="stroke: #000000; stroke-linejoin: miter"/>
   </g>
   <g id="patch_34">
    <path d="M 1499.683984 2240.730266 
C 1503.783423 2240.730266 1507.715512 2239.101541 1510.614253 2236.2028 
C 1513.512994 2233.304059 1515.141719 2229.37197 1515.141719 2225.272531 
C 1515.141719 2221.173092 1513.512994 2217.241004 1510.614253 2214.342262 
C 1507.715512 2211.443521 1503.783423 2209.814797 1499.683984 2209.814797 
C 1495.584545 2209.814797 1491.652457 2211.443521 1488.753716 2214.342262 
C 1485.854974 2217.241004 1484.22625 2221.173092 1484.22625 2225.272531 
C 1484.22625 2229.37197 1485.854974 2233.304059 1488.753716 2236.2028 
C 1491.652457 2239.101541 1495.584545 2240.730266 1499.683984 2240.730266 
z
" clip-path="url(#p91cf7ce297)" style="stroke: #000000; stroke-linejoin: miter"/>
   </g>
   <g id="patch_35">
    <path d="M 1582.125234 2962.091203 
C 1586.224673 2962.091203 1590.156762 2960.462479 1593.055503 2957.563738 
C 1595.954244 2954.664996 1597.582969 2950.732908 1597.582969 2946.633469 
C 1597.582969 2942.53403 1595.954244 2938.601941 1593.055503 2935.7032 
C 1590.156762 2932.804459 1586.224673 2931.175734 1582.125234 2931.175734 
C 1578.025795 2931.175734 1574.093707 2932.804459 1571.194966 2935.7032 
C 1568.296224 2938.601941 1566.6675 2942.53403 1566.6675 2946.633469 
C 1566.6675 2950.732908 1568.296224 2954.664996 1571.194966 2957.563738 
C 1574.093707 2960.462479 1578.025795 2962.091203 1582.125234 2962.091203 
z
" clip-path="url(#p91cf7ce297)" style="stroke: #000000; stroke-linejoin: miter"/>
   </g>
   <g id="patch_36">
    <path d="M 1664.566484 2240.730266 
C 1668.665923 2240.730266 1672.598012 2239.101541 1675.496753 2236.2028 
C 1678.395494 2233.304059 1680.024219 2229.37197 1680.024219 2225.272531 
C 1680.024219 2221.173092 1678.395494 2217.241004 1675.496753 2214.342262 
C 1672.598012 2211.443521 1668.665923 2209.814797 1664.566484 2209.814797 
C 1660.467045 2209.814797 1656.534957 2211.443521 1653.636216 2214.342262 
C 1650.737474 2217.241004 1649.10875 2221.173092 1649.10875 2225.272531 
C 1649.10875 2229.37197 1650.737474 2233.304059 1653.636216 2236.2028 
C 1656.534957 2239.101541 1660.467045 2240.730266 1664.566484 2240.730266 
z
" clip-path="url(#p91cf7ce297)" style="stroke: #000000; stroke-linejoin: miter"/>
   </g>
   <g id="patch_37">
    <path d="M 1747.007734 2962.091203 
C 1751.107173 2962.091203 1755.039262 2960.462479 1757.938003 2957.563738 
C 1760.836744 2954.664996 1762.465469 2950.732908 1762.465469 2946.633469 
C 1762.465469 2942.53403 1760.836744 2938.601941 1757.938003 2935.7032 
C 1755.039262 2932.804459 1751.107173 2931.175734 1747.007734 2931.175734 
C 1742.908295 2931.175734 1738.976207 2932.804459 1736.077466 2935.7032 
C 1733.178724 2938.601941 1731.55 2942.53403 1731.55 2946.633469 
C 1731.55 2950.732908 1733.178724 2954.664996 1736.077466 2957.563738 
C 1738.976207 2960.462479 1742.908295 2962.091203 1747.007734 2962.091203 
z
" clip-path="url(#p91cf7ce297)" style="stroke: #000000; stroke-linejoin: miter"/>
   </g>
   <g id="patch_38">
    <path d="M 1829.448984 2962.091203 
C 1833.548423 2962.091203 1837.480512 2960.462479 1840.379253 2957.563738 
C 1843.277994 2954.664996 1844.906719 2950.732908 1844.906719 2946.633469 
C 1844.906719 2942.53403 1843.277994 2938.601941 1840.379253 2935.7032 
C 1837.480512 2932.804459 1833.548423 2931.175734 1829.448984 2931.175734 
C 1825.349545 2931.175734 1821.417457 2932.804459 1818.518716 2935.7032 
C 1815.619974 2938.601941 1813.99125 2942.53403 1813.99125 2946.633469 
C 1813.99125 2950.732908 1815.619974 2954.664996 1818.518716 2957.563738 
C 1821.417457 2960.462479 1825.349545 2962.091203 1829.448984 2962.091203 
z
" clip-path="url(#p91cf7ce297)" style="stroke: #000000; stroke-linejoin: miter"/>
   </g>
   <g id="patch_39">
    <path d="M 1911.890234 2962.091203 
C 1915.989673 2962.091203 1919.921762 2960.462479 1922.820503 2957.563738 
C 1925.719244 2954.664996 1927.347969 2950.732908 1927.347969 2946.633469 
C 1927.347969 2942.53403 1925.719244 2938.601941 1922.820503 2935.7032 
C 1919.921762 2932.804459 1915.989673 2931.175734 1911.890234 2931.175734 
C 1907.790795 2931.175734 1903.858707 2932.804459 1900.959966 2935.7032 
C 1898.061224 2938.601941 1896.4325 2942.53403 1896.4325 2946.633469 
C 1896.4325 2950.732908 1898.061224 2954.664996 1900.959966 2957.563738 
C 1903.858707 2960.462479 1907.790795 2962.091203 1911.890234 2962.091203 
z
" clip-path="url(#p91cf7ce297)" style="stroke: #000000; stroke-linejoin: miter"/>
   </g>
   <g id="patch_40">
    <path d="M 1994.331484 2962.091203 
C 1998.430923 2962.091203 2002.363012 2960.462479 2005.261753 2957.563738 
C 2008.160494 2954.664996 2009.789219 2950.732908 2009.789219 2946.633469 
C 2009.789219 2942.53403 2008.160494 2938.601941 2005.261753 2935.7032 
C 2002.363012 2932.804459 1998.430923 2931.175734 1994.331484 2931.175734 
C 1990.232045 2931.175734 1986.299957 2932.804459 1983.401216 2935.7032 
C 1980.502474 2938.601941 1978.87375 2942.53403 1978.87375 2946.633469 
C 1978.87375 2950.732908 1980.502474 2954.664996 1983.401216 2957.563738 
C 1986.299957 2960.462479 1990.232045 2962.091203 1994.331484 2962.091203 
z
" clip-path="url(#p91cf7ce297)" style="stroke: #000000; stroke-linejoin: miter"/>
   </g>
   <g id="patch_41">
    <path d="M 2076.772734 2962.091203 
C 2080.872173 2962.091203 2084.804262 2960.462479 2087.703003 2957.563738 
C 2090.601744 2954.664996 2092.230469 2950.732908 2092.230469 2946.633469 
C 2092.230469 2942.53403 2090.601744 2938.601941 2087.703003 2935.7032 
C 2084.804262 2932.804459 2080.872173 2931.175734 2076.772734 2931.175734 
C 2072.673295 2931.175734 2068.741207 2932.804459 2065.842466 2935.7032 
C 2062.943724 2938.601941 2061.315 2942.53403 2061.315 2946.633469 
C 2061.315 2950.732908 2062.943724 2954.664996 2065.842466 2957.563738 
C 2068.741207 2960.462479 2072.673295 2962.091203 2076.772734 2962.091203 
z
" clip-path="url(#p91cf7ce297)" style="stroke: #000000; stroke-linejoin: miter"/>
   </g>
   <g id="patch_42">
    <path d="M 2159.213984 2240.730266 
C 2163.313423 2240.730266 2167.245512 2239.101541 2170.144253 2236.2028 
C 2173.042994 2233.304059 2174.671719 2229.37197 2174.671719 2225.272531 
C 2174.671719 2221.173092 2173.042994 2217.241004 2170.144253 2214.342262 
C 2167.245512 2211.443521 2163.313423 2209.814797 2159.213984 2209.814797 
C 2155.114545 2209.814797 2151.182457 2211.443521 2148.283716 2214.342262 
C 2145.384974 2217.241004 2143.75625 2221.173092 2143.75625 2225.272531 
C 2143.75625 2229.37197 2145.384974 2233.304059 2148.283716 2236.2028 
C 2151.182457 2239.101541 2155.114545 2240.730266 2159.213984 2240.730266 
z
" clip-path="url(#p91cf7ce297)" style="stroke: #000000; stroke-linejoin: miter"/>
   </g>
   <g id="patch_43">
    <path d="M 2241.655234 2240.730266 
C 2245.754673 2240.730266 2249.686762 2239.101541 2252.585503 2236.2028 
C 2255.484244 2233.304059 2257.112969 2229.37197 2257.112969 2225.272531 
C 2257.112969 2221.173092 2255.484244 2217.241004 2252.585503 2214.342262 
C 2249.686762 2211.443521 2245.754673 2209.814797 2241.655234 2209.814797 
C 2237.555795 2209.814797 2233.623707 2211.443521 2230.724966 2214.342262 
C 2227.826224 2217.241004 2226.1975 2221.173092 2226.1975 2225.272531 
C 2226.1975 2229.37197 2227.826224 2233.304059 2230.724966 2236.2028 
C 2233.623707 2239.101541 2237.555795 2240.730266 2241.655234 2240.730266 
z
" clip-path="url(#p91cf7ce297)" style="stroke: #000000; stroke-linejoin: miter"/>
   </g>
   <g id="patch_44">
    <path d="M 2324.096484 2962.091203 
C 2328.195923 2962.091203 2332.128012 2960.462479 2335.026753 2957.563738 
C 2337.925494 2954.664996 2339.554219 2950.732908 2339.554219 2946.633469 
C 2339.554219 2942.53403 2337.925494 2938.601941 2335.026753 2935.7032 
C 2332.128012 2932.804459 2328.195923 2931.175734 2324.096484 2931.175734 
C 2319.997045 2931.175734 2316.064957 2932.804459 2313.166216 2935.7032 
C 2310.267474 2938.601941 2308.63875 2942.53403 2308.63875 2946.633469 
C 2308.63875 2950.732908 2310.267474 2954.664996 2313.166216 2957.563738 
C 2316.064957 2960.462479 2319.997045 2962.091203 2324.096484 2962.091203 
z
" clip-path="url(#p91cf7ce297)" style="stroke: #000000; stroke-linejoin: miter"/>
   </g>
   <g id="patch_45">
    <path d="M 2406.537734 2962.091203 
C 2410.637173 2962.091203 2414.569262 2960.462479 2417.468003 2957.563738 
C 2420.366744 2954.664996 2421.995469 2950.732908 2421.995469 2946.633469 
C 2421.995469 2942.53403 2420.366744 2938.601941 2417.468003 2935.7032 
C 2414.569262 2932.804459 2410.637173 2931.175734 2406.537734 2931.175734 
C 2402.438295 2931.175734 2398.506207 2932.804459 2395.607466 2935.7032 
C 2392.708724 2938.601941 2391.08 2942.53403 2391.08 2946.633469 
C 2391.08 2950.732908 2392.708724 2954.664996 2395.607466 2957.563738 
C 2398.506207 2960.462479 2402.438295 2962.091203 2406.537734 2962.091203 
z
" clip-path="url(#p91cf7ce297)" style="stroke: #000000; stroke-linejoin: miter"/>
   </g>
   <g id="patch_46">
    <path d="M 2488.978984 2962.091203 
C 2493.078423 2962.091203 2497.010512 2960.462479 2499.909253 2957.563738 
C 2502.807994 2954.664996 2504.436719 2950.732908 2504.436719 2946.633469 
C 2504.436719 2942.53403 2502.807994 2938.601941 2499.909253 2935.7032 
C 2497.010512 2932.804459 2493.078423 2931.175734 2488.978984 2931.175734 
C 2484.879545 2931.175734 2480.947457 2932.804459 2478.048716 2935.7032 
C 2475.149974 2938.601941 2473.52125 2942.53403 2473.52125 2946.633469 
C 2473.52125 2950.732908 2475.149974 2954.664996 2478.048716 2957.563738 
C 2480.947457 2960.462479 2484.879545 2962.091203 2488.978984 2962.091203 
z
" clip-path="url(#p91cf7ce297)" style="stroke: #000000; stroke-linejoin: miter"/>
   </g>
   <g id="patch_47">
    <path d="M 2571.420234 2240.730266 
C 2575.519673 2240.730266 2579.451762 2239.101541 2582.350503 2236.2028 
C 2585.249244 2233.304059 2586.877969 2229.37197 2586.877969 2225.272531 
C 2586.877969 2221.173092 2585.249244 2217.241004 2582.350503 2214.342262 
C 2579.451762 2211.443521 2575.519673 2209.814797 2571.420234 2209.814797 
C 2567.320795 2209.814797 2563.388707 2211.443521 2560.489966 2214.342262 
C 2557.591224 2217.241004 2555.9625 2221.173092 2555.9625 2225.272531 
C 2555.9625 2229.37197 2557.591224 2233.304059 2560.489966 2236.2028 
C 2563.388707 2239.101541 2567.320795 2240.730266 2571.420234 2240.730266 
z
" clip-path="url(#p91cf7ce297)" style="stroke: #000000; stroke-linejoin: miter"/>
   </g>
   <g id="patch_48">
    <path d="M 2653.861484 2240.730266 
C 2657.960923 2240.730266 2661.893012 2239.101541 2664.791753 2236.2028 
C 2667.690494 2233.304059 2669.319219 2229.37197 2669.319219 2225.272531 
C 2669.319219 2221.173092 2667.690494 2217.241004 2664.791753 2214.342262 
C 2661.893012 2211.443521 2657.960923 2209.814797 2653.861484 2209.814797 
C 2649.762045 2209.814797 2645.829957 2211.443521 2642.931216 2214.342262 
C 2640.032474 2217.241004 2638.40375 2221.173092 2638.40375 2225.272531 
C 2638.40375 2229.37197 2640.032474 2233.304059 2642.931216 2236.2028 
C 2645.829957 2239.101541 2649.762045 2240.730266 2653.861484 2240.730266 
z
" clip-path="url(#p91cf7ce297)" style="stroke: #000000; stroke-linejoin: miter"/>
   </g>
   <g id="patch_49">
    <path d="M 2736.302734 2240.730266 
C 2740.402173 2240.730266 2744.334262 2239.101541 2747.233003 2236.2028 
C 2750.131744 2233.304059 2751.760469 2229.37197 2751.760469 2225.272531 
C 2751.760469 2221.173092 2750.131744 2217.241004 2747.233003 2214.342262 
C 2744.334262 2211.443521 2740.402173 2209.814797 2736.302734 2209.814797 
C 2732.203295 2209.814797 2728.271207 2211.443521 2725.372466 2214.342262 
C 2722.473724 2217.241004 2720.845 2221.173092 2720.845 2225.272531 
C 2720.845 2229.37197 2722.473724 2233.304059 2725.372466 2236.2028 
C 2728.271207 2239.101541 2732.203295 2240.730266 2736.302734 2240.730266 
z
" clip-path="url(#p91cf7ce297)" style="stroke: #000000; stroke-linejoin: miter"/>
   </g>
   <g id="patch_50">
    <path d="M 2818.743984 2240.730266 
C 2822.843423 2240.730266 2826.775512 2239.101541 2829.674253 2236.2028 
C 2832.572994 2233.304059 2834.201719 2229.37197 2834.201719 2225.272531 
C 2834.201719 2221.173092 2832.572994 2217.241004 2829.674253 2214.342262 
C 2826.775512 2211.443521 2822.843423 2209.814797 2818.743984 2209.814797 
C 2814.644545 2209.814797 2810.712457 2211.443521 2807.813716 2214.342262 
C 2804.914974 2217.241004 2803.28625 2221.173092 2803.28625 2225.272531 
C 2803.28625 2229.37197 2804.914974 2233.304059 2807.813716 2236.2028 
C 2810.712457 2239.101541 2814.644545 2240.730266 2818.743984 2240.730266 
z
" clip-path="url(#p91cf7ce297)" style="stroke: #000000; stroke-linejoin: miter"/>
   </g>
   <g id="patch_51">
    <path d="M 2901.185234 2962.091203 
C 2905.284673 2962.091203 2909.216762 2960.462479 2912.115503 2957.563738 
C 2915.014244 2954.664996 2916.642969 2950.732908 2916.642969 2946.633469 
C 2916.642969 2942.53403 2915.014244 2938.601941 2912.115503 2935.7032 
C 2909.216762 2932.804459 2905.284673 2931.175734 2901.185234 2931.175734 
C 2897.085795 2931.175734 2893.153707 2932.804459 2890.254966 2935.7032 
C 2887.356224 2938.601941 2885.7275 2942.53403 2885.7275 2946.633469 
C 2885.7275 2950.732908 2887.356224 2954.664996 2890.254966 2957.563738 
C 2893.153707 2960.462479 2897.085795 2962.091203 2901.185234 2962.091203 
z
" clip-path="url(#p91cf7ce297)" style="stroke: #000000; stroke-linejoin: miter"/>
   </g>
   <g id="patch_52">
    <path d="M 2983.626484 2962.091203 
C 2987.725923 2962.091203 2991.658012 2960.462479 2994.556753 2957.563738 
C 2997.455494 2954.664996 2999.084219 2950.732908 2999.084219 2946.633469 
C 2999.084219 2942.53403 2997.455494 2938.601941 2994.556753 2935.7032 
C 2991.658012 2932.804459 2987.725923 2931.175734 2983.626484 2931.175734 
C 2979.527045 2931.175734 2975.594957 2932.804459 2972.696216 2935.7032 
C 2969.797474 2938.601941 2968.16875 2942.53403 2968.16875 2946.633469 
C 2968.16875 2950.732908 2969.797474 2954.664996 2972.696216 2957.563738 
C 2975.594957 2960.462479 2979.527045 2962.091203 2983.626484 2962.091203 
z
" clip-path="url(#p91cf7ce297)" style="stroke: #000000; stroke-linejoin: miter"/>
   </g>
   <g id="patch_53">
    <path d="M 3066.067734 2962.091203 
C 3070.167173 2962.091203 3074.099262 2960.462479 3076.998003 2957.563738 
C 3079.896744 2954.664996 3081.525469 2950.732908 3081.525469 2946.633469 
C 3081.525469 2942.53403 3079.896744 2938.601941 3076.998003 2935.7032 
C 3074.099262 2932.804459 3070.167173 2931.175734 3066.067734 2931.175734 
C 3061.968295 2931.175734 3058.036207 2932.804459 3055.137466 2935.7032 
C 3052.238724 2938.601941 3050.61 2942.53403 3050.61 2946.633469 
C 3050.61 2950.732908 3052.238724 2954.664996 3055.137466 2957.563738 
C 3058.036207 2960.462479 3061.968295 2962.091203 3066.067734 2962.091203 
z
" clip-path="url(#p91cf7ce297)" style="stroke: #000000; stroke-linejoin: miter"/>
   </g>
   <g id="patch_54">
    <path d="M 3148.508984 2962.091203 
C 3152.608423 2962.091203 3156.540512 2960.462479 3159.439253 2957.563738 
C 3162.337994 2954.664996 3163.966719 2950.732908 3163.966719 2946.633469 
C 3163.966719 2942.53403 3162.337994 2938.601941 3159.439253 2935.7032 
C 3156.540512 2932.804459 3152.608423 2931.175734 3148.508984 2931.175734 
C 3144.409545 2931.175734 3140.477457 2932.804459 3137.578716 2935.7032 
C 3134.679974 2938.601941 3133.05125 2942.53403 3133.05125 2946.633469 
C 3133.05125 2950.732908 3134.679974 2954.664996 3137.578716 2957.563738 
C 3140.477457 2960.462479 3144.409545 2962.091203 3148.508984 2962.091203 
z
" clip-path="url(#p91cf7ce297)" style="stroke: #000000; stroke-linejoin: miter"/>
   </g>
   <g id="patch_55">
    <path d="M 3230.950234 2240.730266 
C 3235.049673 2240.730266 3238.981762 2239.101541 3241.880503 2236.2028 
C 3244.779244 2233.304059 3246.407969 2229.37197 3246.407969 2225.272531 
C 3246.407969 2221.173092 3244.779244 2217.241004 3241.880503 2214.342262 
C 3238.981762 2211.443521 3235.049673 2209.814797 3230.950234 2209.814797 
C 3226.850795 2209.814797 3222.918707 2211.443521 3220.019966 2214.342262 
C 3217.121224 2217.241004 3215.4925 2221.173092 3215.4925 2225.272531 
C 3215.4925 2229.37197 3217.121224 2233.304059 3220.019966 2236.2028 
C 3222.918707 2239.101541 3226.850795 2240.730266 3230.950234 2240.730266 
z
" clip-path="url(#p91cf7ce297)" style="stroke: #000000; stroke-linejoin: miter"/>
   </g>
   <g id="patch_56">
    <path d="M 3313.391484 2240.730266 
C 3317.490923 2240.730266 3321.423012 2239.101541 3324.321753 2236.2028 
C 3327.220494 2233.304059 3328.849219 2229.37197 3328.849219 2225.272531 
C 3328.849219 2221.173092 3327.220494 2217.241004 3324.321753 2214.342262 
C 3321.423012 2211.443521 3317.490923 2209.814797 3313.391484 2209.814797 
C 3309.292045 2209.814797 3305.359957 2211.443521 3302.461216 2214.342262 
C 3299.562474 2217.241004 3297.93375 2221.173092 3297.93375 2225.272531 
C 3297.93375 2229.37197 3299.562474 2233.304059 3302.461216 2236.2028 
C 3305.359957 2239.101541 3309.292045 2240.730266 3313.391484 2240.730266 
z
" clip-path="url(#p91cf7ce297)" style="stroke: #000000; stroke-linejoin: miter"/>
   </g>
   <g id="patch_57">
    <path d="M 3395.832734 2962.091203 
C 3399.932173 2962.091203 3403.864262 2960.462479 3406.763003 2957.563738 
C 3409.661744 2954.664996 3411.290469 2950.732908 3411.290469 2946.633469 
C 3411.290469 2942.53403 3409.661744 2938.601941 3406.763003 2935.7032 
C 3403.864262 2932.804459 3399.932173 2931.175734 3395.832734 2931.175734 
C 3391.733295 2931.175734 3387.801207 2932.804459 3384.902466 2935.7032 
C 3382.003724 2938.601941 3380.375 2942.53403 3380.375 2946.633469 
C 3380.375 2950.732908 3382.003724 2954.664996 3384.902466 2957.563738 
C 3387.801207 2960.462479 3391.733295 2962.091203 3395.832734 2962.091203 
z
" clip-path="url(#p91cf7ce297)" style="stroke: #000000; stroke-linejoin: miter"/>
   </g>
   <g id="patch_58">
    <path d="M 3478.273984 2962.091203 
C 3482.373423 2962.091203 3486.305512 2960.462479 3489.204253 2957.563738 
C 3492.102994 2954.664996 3493.731719 2950.732908 3493.731719 2946.633469 
C 3493.731719 2942.53403 3492.102994 2938.601941 3489.204253 2935.7032 
C 3486.305512 2932.804459 3482.373423 2931.175734 3478.273984 2931.175734 
C 3474.174545 2931.175734 3470.242457 2932.804459 3467.343716 2935.7032 
C 3464.444974 2938.601941 3462.81625 2942.53403 3462.81625 2946.633469 
C 3462.81625 2950.732908 3464.444974 2954.664996 3467.343716 2957.563738 
C 3470.242457 2960.462479 3474.174545 2962.091203 3478.273984 2962.091203 
z
" clip-path="url(#p91cf7ce297)" style="stroke: #000000; stroke-linejoin: miter"/>
   </g>
   <g id="patch_59">
    <path d="M 3560.715234 2240.730266 
C 3564.814673 2240.730266 3568.746762 2239.101541 3571.645503 2236.2028 
C 3574.544244 2233.304059 3576.172969 2229.37197 3576.172969 2225.272531 
C 3576.172969 2221.173092 3574.544244 2217.241004 3571.645503 2214.342262 
C 3568.746762 2211.443521 3564.814673 2209.814797 3560.715234 2209.814797 
C 3556.615795 2209.814797 3552.683707 2211.443521 3549.784966 2214.342262 
C 3546.886224 2217.241004 3545.2575 2221.173092 3545.2575 2225.272531 
C 3545.2575 2229.37197 3546.886224 2233.304059 3549.784966 2236.2028 
C 3552.683707 2239.101541 3556.615795 2240.730266 3560.715234 2240.730266 
z
" clip-path="url(#p91cf7ce297)" style="stroke: #000000; stroke-linejoin: miter"/>
   </g>
   <g id="patch_60">
    <path d="M 3643.156484 2240.730266 
C 3647.255923 2240.730266 3651.188012 2239.101541 3654.086753 2236.2028 
C 3656.985494 2233.304059 3658.614219 2229.37197 3658.614219 2225.272531 
C 3658.614219 2221.173092 3656.985494 2217.241004 3654.086753 2214.342262 
C 3651.188012 2211.443521 3647.255923 2209.814797 3643.156484 2209.814797 
C 3639.057045 2209.814797 3635.124957 2211.443521 3632.226216 2214.342262 
C 3629.327474 2217.241004 3627.69875 2221.173092 3627.69875 2225.272531 
C 3627.69875 2229.37197 3629.327474 2233.304059 3632.226216 2236.2028 
C 3635.124957 2239.101541 3639.057045 2240.730266 3643.156484 2240.730266 
z
" clip-path="url(#p91cf7ce297)" style="stroke: #000000; stroke-linejoin: miter"/>
   </g>
   <g id="patch_61">
    <path d="M 3725.597734 2240.730266 
C 3729.697173 2240.730266 3733.629262 2239.101541 3736.528003 2236.2028 
C 3739.426744 2233.304059 3741.055469 2229.37197 3741.055469 2225.272531 
C 3741.055469 2221.173092 3739.426744 2217.241004 3736.528003 2214.342262 
C 3733.629262 2211.443521 3729.697173 2209.814797 3725.597734 2209.814797 
C 3721.498295 2209.814797 3717.566207 2211.443521 3714.667466 2214.342262 
C 3711.768724 2217.241004 3710.14 2221.173092 3710.14 2225.272531 
C 3710.14 2229.37197 3711.768724 2233.304059 3714.667466 2236.2028 
C 3717.566207 2239.101541 3721.498295 2240.730266 3725.597734 2240.730266 
z
" clip-path="url(#p91cf7ce297)" style="stroke: #000000; stroke-linejoin: miter"/>
   </g>
   <g id="patch_62">
    <path d="M 3808.038984 2962.091203 
C 3812.138423 2962.091203 3816.070512 2960.462479 3818.969253 2957.563738 
C 3821.867994 2954.664996 3823.496719 2950.732908 3823.496719 2946.633469 
C 3823.496719 2942.53403 3821.867994 2938.601941 3818.969253 2935.7032 
C 3816.070512 2932.804459 3812.138423 2931.175734 3808.038984 2931.175734 
C 3803.939545 2931.175734 3800.007457 2932.804459 3797.108716 2935.7032 
C 3794.209974 2938.601941 3792.58125 2942.53403 3792.58125 2946.633469 
C 3792.58125 2950.732908 3794.209974 2954.664996 3797.108716 2957.563738 
C 3800.007457 2960.462479 3803.939545 2962.091203 3808.038984 2962.091203 
z
" clip-path="url(#p91cf7ce297)" style="stroke: #000000; stroke-linejoin: miter"/>
   </g>
   <g id="patch_63">
    <path d="M 3890.480234 2962.091203 
C 3894.579673 2962.091203 3898.511762 2960.462479 3901.410503 2957.563738 
C 3904.309244 2954.664996 3905.937969 2950.732908 3905.937969 2946.633469 
C 3905.937969 2942.53403 3904.309244 2938.601941 3901.410503 2935.7032 
C 3898.511762 2932.804459 3894.579673 2931.175734 3890.480234 2931.175734 
C 3886.380795 2931.175734 3882.448707 2932.804459 3879.549966 2935.7032 
C 3876.651224 2938.601941 3875.0225 2942.53403 3875.0225 2946.633469 
C 3875.0225 2950.732908 3876.651224 2954.664996 3879.549966 2957.563738 
C 3882.448707 2960.462479 3886.380795 2962.091203 3890.480234 2962.091203 
z
" clip-path="url(#p91cf7ce297)" style="stroke: #000000; stroke-linejoin: miter"/>
   </g>
   <g id="patch_64">
    <path d="M 3972.921484 2962.091203 
C 3977.020923 2962.091203 3980.953012 2960.462479 3983.851753 2957.563738 
C 3986.750494 2954.664996 3988.379219 2950.732908 3988.379219 2946.633469 
C 3988.379219 2942.53403 3986.750494 2938.601941 3983.851753 2935.7032 
C 3980.953012 2932.804459 3977.020923 2931.175734 3972.921484 2931.175734 
C 3968.822045 2931.175734 3964.889957 2932.804459 3961.991216 2935.7032 
C 3959.092474 2938.601941 3957.46375 2942.53403 3957.46375 2946.633469 
C 3957.46375 2950.732908 3959.092474 2954.664996 3961.991216 2957.563738 
C 3964.889957 2960.462479 3968.822045 2962.091203 3972.921484 2962.091203 
z
" clip-path="url(#p91cf7ce297)" style="stroke: #000000; stroke-linejoin: miter"/>
   </g>
   <g id="patch_65">
    <path d="M 4055.362734 2962.091203 
C 4059.462173 2962.091203 4063.394262 2960.462479 4066.293003 2957.563738 
C 4069.191744 2954.664996 4070.820469 2950.732908 4070.820469 2946.633469 
C 4070.820469 2942.53403 4069.191744 2938.601941 4066.293003 2935.7032 
C 4063.394262 2932.804459 4059.462173 2931.175734 4055.362734 2931.175734 
C 4051.263295 2931.175734 4047.331207 2932.804459 4044.432466 2935.7032 
C 4041.533724 2938.601941 4039.905 2942.53403 4039.905 2946.633469 
C 4039.905 2950.732908 4041.533724 2954.664996 4044.432466 2957.563738 
C 4047.331207 2960.462479 4051.263295 2962.091203 4055.362734 2962.091203 
z
" clip-path="url(#p91cf7ce297)" style="stroke: #000000; stroke-linejoin: miter"/>
   </g>
   <g id="patch_66">
    <path d="M 4137.803984 2240.730266 
C 4141.903423 2240.730266 4145.835512 2239.101541 4148.734253 2236.2028 
C 4151.632994 2233.304059 4153.261719 2229.37197 4153.261719 2225.272531 
C 4153.261719 2221.173092 4151.632994 2217.241004 4148.734253 2214.342262 
C 4145.835512 2211.443521 4141.903423 2209.814797 4137.803984 2209.814797 
C 4133.704545 2209.814797 4129.772457 2211.443521 4126.873716 2214.342262 
C 4123.974974 2217.241004 4122.34625 2221.173092 4122.34625 2225.272531 
C 4122.34625 2229.37197 4123.974974 2233.304059 4126.873716 2236.2028 
C 4129.772457 2239.101541 4133.704545 2240.730266 4137.803984 2240.730266 
z
" clip-path="url(#p91cf7ce297)" style="stroke: #000000; stroke-linejoin: miter"/>
   </g>
   <g id="patch_67">
    <path d="M 4220.245234 2240.730266 
C 4224.344673 2240.730266 4228.276762 2239.101541 4231.175503 2236.2028 
C 4234.074244 2233.304059 4235.702969 2229.37197 4235.702969 2225.272531 
C 4235.702969 2221.173092 4234.074244 2217.241004 4231.175503 2214.342262 
C 4228.276762 2211.443521 4224.344673 2209.814797 4220.245234 2209.814797 
C 4216.145795 2209.814797 4212.213707 2211.443521 4209.314966 2214.342262 
C 4206.416224 2217.241004 4204.7875 2221.173092 4204.7875 2225.272531 
C 4204.7875 2229.37197 4206.416224 2233.304059 4209.314966 2236.2028 
C 4212.213707 2239.101541 4216.145795 2240.730266 4220.245234 2240.730266 
z
" clip-path="url(#p91cf7ce297)" style="stroke: #000000; stroke-linejoin: miter"/>
   </g>
   <g id="patch_68">
    <path d="M 4302.686484 2240.730266 
C 4306.785923 2240.730266 4310.718012 2239.101541 4313.616753 2236.2028 
C 4316.515494 2233.304059 4318.144219 2229.37197 4318.144219 2225.272531 
C 4318.144219 2221.173092 4316.515494 2217.241004 4313.616753 2214.342262 
C 4310.718012 2211.443521 4306.785923 2209.814797 4302.686484 2209.814797 
C 4298.587045 2209.814797 4294.654957 2211.443521 4291.756216 2214.342262 
C 4288.857474 2217.241004 4287.22875 2221.173092 4287.22875 2225.272531 
C 4287.22875 2229.37197 4288.857474 2233.304059 4291.756216 2236.2028 
C 4294.654957 2239.101541 4298.587045 2240.730266 4302.686484 2240.730266 
z
" clip-path="url(#p91cf7ce297)" style="stroke: #000000; stroke-linejoin: miter"/>
   </g>
   <g id="patch_69">
    <path d="M 4385.127734 2240.730266 
C 4389.227173 2240.730266 4393.159262 2239.101541 4396.058003 2236.2028 
C 4398.956744 2233.304059 4400.585469 2229.37197 4400.585469 2225.272531 
C 4400.585469 2221.173092 4398.956744 2217.241004 4396.058003 2214.342262 
C 4393.159262 2211.443521 4389.227173 2209.814797 4385.127734 2209.814797 
C 4381.028295 2209.814797 4377.096207 2211.443521 4374.197466 2214.342262 
C 4371.298724 2217.241004 4369.67 2221.173092 4369.67 2225.272531 
C 4369.67 2229.37197 4371.298724 2233.304059 4374.197466 2236.2028 
C 4377.096207 2239.101541 4381.028295 2240.730266 4385.127734 2240.730266 
z
" clip-path="url(#p91cf7ce297)" style="stroke: #000000; stroke-linejoin: miter"/>
   </g>
   <g id="patch_70">
    <path d="M 4467.568984 2962.091203 
C 4471.668423 2962.091203 4475.600512 2960.462479 4478.499253 2957.563738 
C 4481.397994 2954.664996 4483.026719 2950.732908 4483.026719 2946.633469 
C 4483.026719 2942.53403 4481.397994 2938.601941 4478.499253 2935.7032 
C 4475.600512 2932.804459 4471.668423 2931.175734 4467.568984 2931.175734 
C 4463.469545 2931.175734 4459.537457 2932.804459 4456.638716 2935.7032 
C 4453.739974 2938.601941 4452.11125 2942.53403 4452.11125 2946.633469 
C 4452.11125 2950.732908 4453.739974 2954.664996 4456.638716 2957.563738 
C 4459.537457 2960.462479 4463.469545 2962.091203 4467.568984 2962.091203 
z
" clip-path="url(#p91cf7ce297)" style="stroke: #000000; stroke-linejoin: miter"/>
   </g>
   <g id="patch_71">
    <path d="M 4550.010234 2962.091203 
C 4554.109673 2962.091203 4558.041762 2960.462479 4560.940503 2957.563738 
C 4563.839244 2954.664996 4565.467969 2950.732908 4565.467969 2946.633469 
C 4565.467969 2942.53403 4563.839244 2938.601941 4560.940503 2935.7032 
C 4558.041762 2932.804459 4554.109673 2931.175734 4550.010234 2931.175734 
C 4545.910795 2931.175734 4541.978707 2932.804459 4539.079966 2935.7032 
C 4536.181224 2938.601941 4534.5525 2942.53403 4534.5525 2946.633469 
C 4534.5525 2950.732908 4536.181224 2954.664996 4539.079966 2957.563738 
C 4541.978707 2960.462479 4545.910795 2962.091203 4550.010234 2962.091203 
z
" clip-path="url(#p91cf7ce297)" style="stroke: #000000; stroke-linejoin: miter"/>
   </g>
   <g id="patch_72">
    <path d="M 4632.451484 2962.091203 
C 4636.550923 2962.091203 4640.483012 2960.462479 4643.381753 2957.563738 
C 4646.280494 2954.664996 4647.909219 2950.732908 4647.909219 2946.633469 
C 4647.909219 2942.53403 4646.280494 2938.601941 4643.381753 2935.7032 
C 4640.483012 2932.804459 4636.550923 2931.175734 4632.451484 2931.175734 
C 4628.352045 2931.175734 4624.419957 2932.804459 4621.521216 2935.7032 
C 4618.622474 2938.601941 4616.99375 2942.53403 4616.99375 2946.633469 
C 4616.99375 2950.732908 4618.622474 2954.664996 4621.521216 2957.563738 
C 4624.419957 2960.462479 4628.352045 2962.091203 4632.451484 2962.091203 
z
" clip-path="url(#p91cf7ce297)" style="stroke: #000000; stroke-linejoin: miter"/>
   </g>
   <g id="patch_73">
    <path d="M 4714.892734 2962.091203 
C 4718.992173 2962.091203 4722.924262 2960.462479 4725.823003 2957.563738 
C 4728.721744 2954.664996 4730.350469 2950.732908 4730.350469 2946.633469 
C 4730.350469 2942.53403 4728.721744 2938.601941 4725.823003 2935.7032 
C 4722.924262 2932.804459 4718.992173 2931.175734 4714.892734 2931.175734 
C 4710.793295 2931.175734 4706.861207 2932.804459 4703.962466 2935.7032 
C 4701.063724 2938.601941 4699.435 2942.53403 4699.435 2946.633469 
C 4699.435 2950.732908 4701.063724 2954.664996 4703.962466 2957.563738 
C 4706.861207 2960.462479 4710.793295 2962.091203 4714.892734 2962.091203 
z
" clip-path="url(#p91cf7ce297)" style="stroke: #000000; stroke-linejoin: miter"/>
   </g>
   <g id="patch_74">
    <path d="M 4797.333984 2962.091203 
C 4801.433423 2962.091203 4805.365512 2960.462479 4808.264253 2957.563738 
C 4811.162994 2954.664996 4812.791719 2950.732908 4812.791719 2946.633469 
C 4812.791719 2942.53403 4811.162994 2938.601941 4808.264253 2935.7032 
C 4805.365512 2932.804459 4801.433423 2931.175734 4797.333984 2931.175734 
C 4793.234545 2931.175734 4789.302457 2932.804459 4786.403716 2935.7032 
C 4783.504974 2938.601941 4781.87625 2942.53403 4781.87625 2946.633469 
C 4781.87625 2950.732908 4783.504974 2954.664996 4786.403716 2957.563738 
C 4789.302457 2960.462479 4793.234545 2962.091203 4797.333984 2962.091203 
z
" clip-path="url(#p91cf7ce297)" style="stroke: #000000; stroke-linejoin: miter"/>
   </g>
   <g id="matplotlib.axis_1">
    <g id="xtick_1">
     <g id="line2d_1">
      <defs>
       <path id="m0da27b7b42" d="M 0 0 
L 0 3.5 
" style="stroke: #000000; stroke-width: 0.8"/>
      </defs>
      <g>
       <use xlink:href="#m0da27b7b42" x="659.81375" y="3389.755187" style="stroke: #000000; stroke-width: 0.8"/>
      </g>
     </g>
     <g id="text_1">
      <!-- 20 -->
      <g transform="translate(621.63875 3372.765398) scale(0.6 -0.6)">
       <defs>
        <path id="DejaVuSans-32" d="M 1228 531 
L 3431 531 
L 3431 0 
L 469 0 
L 469 531 
Q 828 903 1448 1529 
Q 2069 2156 2228 2338 
Q 2531 2678 2651 2914 
Q 2772 3150 2772 3378 
Q 2772 3750 2511 3984 
Q 2250 4219 1831 4219 
Q 1534 4219 1204 4116 
Q 875 4013 500 3803 
L 500 4441 
Q 881 4594 1212 4672 
Q 1544 4750 1819 4750 
Q 2544 4750 2975 4387 
Q 3406 4025 3406 3419 
Q 3406 3131 3298 2873 
Q 3191 2616 2906 2266 
Q 2828 2175 2409 1742 
Q 1991 1309 1228 531 
z
" transform="scale(0.015625)"/>
        <path id="DejaVuSans-30" d="M 2034 4250 
Q 1547 4250 1301 3770 
Q 1056 3291 1056 2328 
Q 1056 1369 1301 889 
Q 1547 409 2034 409 
Q 2525 409 2770 889 
Q 3016 1369 3016 2328 
Q 3016 3291 2770 3770 
Q 2525 4250 2034 4250 
z
M 2034 4750 
Q 2819 4750 3233 4129 
Q 3647 3509 3647 2328 
Q 3647 1150 3233 529 
Q 2819 -91 2034 -91 
Q 1250 -91 836 529 
Q 422 1150 422 2328 
Q 422 3509 836 4129 
Q 1250 4750 2034 4750 
z
" transform="scale(0.015625)"/>
       </defs>
       <use xlink:href="#DejaVuSans-32"/>
       <use xlink:href="#DejaVuSans-30" x="63.623047"/>
      </g>
     </g>
    </g>
    <g id="xtick_2">
     <g id="line2d_2">
      <g>
       <use xlink:href="#m0da27b7b42" x="989.57875" y="3389.755187" style="stroke: #000000; stroke-width: 0.8"/>
      </g>
     </g>
     <g id="text_2">
      <!-- 36 -->
      <g transform="translate(951.40375 3372.765398) scale(0.6 -0.6)">
       <defs>
        <path id="DejaVuSans-33" d="M 2597 2516 
Q 3050 2419 3304 2112 
Q 3559 1806 3559 1356 
Q 3559 666 3084 287 
Q 2609 -91 1734 -91 
Q 1441 -91 1130 -33 
Q 819 25 488 141 
L 488 750 
Q 750 597 1062 519 
Q 1375 441 1716 441 
Q 2309 441 2620 675 
Q 2931 909 2931 1356 
Q 2931 1769 2642 2001 
Q 2353 2234 1838 2234 
L 1294 2234 
L 1294 2753 
L 1863 2753 
Q 2328 2753 2575 2939 
Q 2822 3125 2822 3475 
Q 2822 3834 2567 4026 
Q 2313 4219 1838 4219 
Q 1578 4219 1281 4162 
Q 984 4106 628 3988 
L 628 4550 
Q 988 4650 1302 4700 
Q 1616 4750 1894 4750 
Q 2613 4750 3031 4423 
Q 3450 4097 3450 3541 
Q 3450 3153 3228 2886 
Q 3006 2619 2597 2516 
z
" transform="scale(0.015625)"/>
        <path id="DejaVuSans-36" d="M 2113 2584 
Q 1688 2584 1439 2293 
Q 1191 2003 1191 1497 
Q 1191 994 1439 701 
Q 1688 409 2113 409 
Q 2538 409 2786 701 
Q 3034 994 3034 1497 
Q 3034 2003 2786 2293 
Q 2538 2584 2113 2584 
z
M 3366 4563 
L 3366 3988 
Q 3128 4100 2886 4159 
Q 2644 4219 2406 4219 
Q 1781 4219 1451 3797 
Q 1122 3375 1075 2522 
Q 1259 2794 1537 2939 
Q 1816 3084 2150 3084 
Q 2853 3084 3261 2657 
Q 3669 2231 3669 1497 
Q 3669 778 3244 343 
Q 2819 -91 2113 -91 
Q 1303 -91 875 529 
Q 447 1150 447 2328 
Q 447 3434 972 4092 
Q 1497 4750 2381 4750 
Q 2619 4750 2861 4703 
Q 3103 4656 3366 4563 
z
" transform="scale(0.015625)"/>
       </defs>
       <use xlink:href="#DejaVuSans-33"/>
       <use xlink:href="#DejaVuSans-36" x="63.623047"/>
      </g>
     </g>
    </g>
    <g id="xtick_3">
     <g id="line2d_3">
      <g>
       <use xlink:href="#m0da27b7b42" x="1319.34375" y="3389.755187" style="stroke: #000000; stroke-width: 0.8"/>
      </g>
     </g>
     <g id="text_3">
      <!-- 52 -->
      <g transform="translate(1281.16875 3372.765398) scale(0.6 -0.6)">
       <defs>
        <path id="DejaVuSans-35" d="M 691 4666 
L 3169 4666 
L 3169 4134 
L 1269 4134 
L 1269 2991 
Q 1406 3038 1543 3061 
Q 1681 3084 1819 3084 
Q 2600 3084 3056 2656 
Q 3513 2228 3513 1497 
Q 3513 744 3044 326 
Q 2575 -91 1722 -91 
Q 1428 -91 1123 -41 
Q 819 9 494 109 
L 494 744 
Q 775 591 1075 516 
Q 1375 441 1709 441 
Q 2250 441 2565 725 
Q 2881 1009 2881 1497 
Q 2881 1984 2565 2268 
Q 2250 2553 1709 2553 
Q 1456 2553 1204 2497 
Q 953 2441 691 2322 
L 691 4666 
z
" transform="scale(0.015625)"/>
       </defs>
       <use xlink:href="#DejaVuSans-35"/>
       <use xlink:href="#DejaVuSans-32" x="63.623047"/>
      </g>
     </g>
    </g>
    <g id="xtick_4">
     <g id="line2d_4">
      <g>
       <use xlink:href="#m0da27b7b42" x="1484.22625" y="3389.755187" style="stroke: #000000; stroke-width: 0.8"/>
      </g>
     </g>
     <g id="text_4">
      <!-- 60 -->
      <g transform="translate(1446.05125 3372.765398) scale(0.6 -0.6)">
       <use xlink:href="#DejaVuSans-36"/>
       <use xlink:href="#DejaVuSans-30" x="63.623047"/>
      </g>
     </g>
    </g>
    <g id="xtick_5">
     <g id="line2d_5">
      <g>
       <use xlink:href="#m0da27b7b42" x="1731.55" y="3389.755187" style="stroke: #000000; stroke-width: 0.8"/>
      </g>
     </g>
     <g id="text_5">
      <!-- 72 -->
      <g transform="translate(1693.375 3372.765398) scale(0.6 -0.6)">
       <defs>
        <path id="DejaVuSans-37" d="M 525 4666 
L 3525 4666 
L 3525 4397 
L 1831 0 
L 1172 0 
L 2766 4134 
L 525 4134 
L 525 4666 
z
" transform="scale(0.015625)"/>
       </defs>
       <use xlink:href="#DejaVuSans-37"/>
       <use xlink:href="#DejaVuSans-32" x="63.623047"/>
      </g>
     </g>
    </g>
    <g id="xtick_6">
     <g id="line2d_6">
      <g>
       <use xlink:href="#m0da27b7b42" x="2143.75625" y="3389.755187" style="stroke: #000000; stroke-width: 0.8"/>
      </g>
     </g>
     <g id="text_6">
      <!-- 92 -->
      <g transform="translate(2105.58125 3372.765398) scale(0.6 -0.6)">
       <defs>
        <path id="DejaVuSans-39" d="M 703 97 
L 703 672 
Q 941 559 1184 500 
Q 1428 441 1663 441 
Q 2288 441 2617 861 
Q 2947 1281 2994 2138 
Q 2813 1869 2534 1725 
Q 2256 1581 1919 1581 
Q 1219 1581 811 2004 
Q 403 2428 403 3163 
Q 403 3881 828 4315 
Q 1253 4750 1959 4750 
Q 2769 4750 3195 4129 
Q 3622 3509 3622 2328 
Q 3622 1225 3098 567 
Q 2575 -91 1691 -91 
Q 1453 -91 1209 -44 
Q 966 3 703 97 
z
M 1959 2075 
Q 2384 2075 2632 2365 
Q 2881 2656 2881 3163 
Q 2881 3666 2632 3958 
Q 2384 4250 1959 4250 
Q 1534 4250 1286 3958 
Q 1038 3666 1038 3163 
Q 1038 2656 1286 2365 
Q 1534 2075 1959 2075 
z
" transform="scale(0.015625)"/>
       </defs>
       <use xlink:href="#DejaVuSans-39"/>
       <use xlink:href="#DejaVuSans-32" x="63.623047"/>
      </g>
     </g>
    </g>
    <g id="xtick_7">
     <g id="line2d_7">
      <g>
       <use xlink:href="#m0da27b7b42" x="2308.63875" y="3389.755187" style="stroke: #000000; stroke-width: 0.8"/>
      </g>
     </g>
     <g id="text_7">
      <!-- 100 -->
      <g transform="translate(2251.37625 3372.765398) scale(0.6 -0.6)">
       <defs>
        <path id="DejaVuSans-31" d="M 794 531 
L 1825 531 
L 1825 4091 
L 703 3866 
L 703 4441 
L 1819 4666 
L 2450 4666 
L 2450 531 
L 3481 531 
L 3481 0 
L 794 0 
L 794 531 
z
" transform="scale(0.015625)"/>
       </defs>
       <use xlink:href="#DejaVuSans-31"/>
       <use xlink:href="#DejaVuSans-30" x="63.623047"/>
       <use xlink:href="#DejaVuSans-30" x="127.246094"/>
      </g>
     </g>
    </g>
    <g id="xtick_8">
     <g id="line2d_8">
      <g>
       <use xlink:href="#m0da27b7b42" x="2555.9625" y="3389.755187" style="stroke: #000000; stroke-width: 0.8"/>
      </g>
     </g>
     <g id="text_8">
      <!-- 112 -->
      <g transform="translate(2498.7 3372.765398) scale(0.6 -0.6)">
       <use xlink:href="#DejaVuSans-31"/>
       <use xlink:href="#DejaVuSans-31" x="63.623047"/>
       <use xlink:href="#DejaVuSans-32" x="127.246094"/>
      </g>
     </g>
    </g>
    <g id="xtick_9">
     <g id="line2d_9">
      <g>
       <use xlink:href="#m0da27b7b42" x="2885.7275" y="3389.755187" style="stroke: #000000; stroke-width: 0.8"/>
      </g>
     </g>
     <g id="text_9">
      <!-- 128 -->
      <g transform="translate(2828.465 3372.765398) scale(0.6 -0.6)">
       <defs>
        <path id="DejaVuSans-38" d="M 2034 2216 
Q 1584 2216 1326 1975 
Q 1069 1734 1069 1313 
Q 1069 891 1326 650 
Q 1584 409 2034 409 
Q 2484 409 2743 651 
Q 3003 894 3003 1313 
Q 3003 1734 2745 1975 
Q 2488 2216 2034 2216 
z
M 1403 2484 
Q 997 2584 770 2862 
Q 544 3141 544 3541 
Q 544 4100 942 4425 
Q 1341 4750 2034 4750 
Q 2731 4750 3128 4425 
Q 3525 4100 3525 3541 
Q 3525 3141 3298 2862 
Q 3072 2584 2669 2484 
Q 3125 2378 3379 2068 
Q 3634 1759 3634 1313 
Q 3634 634 3220 271 
Q 2806 -91 2034 -91 
Q 1263 -91 848 271 
Q 434 634 434 1313 
Q 434 1759 690 2068 
Q 947 2378 1403 2484 
z
M 1172 3481 
Q 1172 3119 1398 2916 
Q 1625 2713 2034 2713 
Q 2441 2713 2670 2916 
Q 2900 3119 2900 3481 
Q 2900 3844 2670 4047 
Q 2441 4250 2034 4250 
Q 1625 4250 1398 4047 
Q 1172 3844 1172 3481 
z
" transform="scale(0.015625)"/>
       </defs>
       <use xlink:href="#DejaVuSans-31"/>
       <use xlink:href="#DejaVuSans-32" x="63.623047"/>
       <use xlink:href="#DejaVuSans-38" x="127.246094"/>
      </g>
     </g>
    </g>
    <g id="xtick_10">
     <g id="line2d_10">
      <g>
       <use xlink:href="#m0da27b7b42" x="3215.4925" y="3389.755187" style="stroke: #000000; stroke-width: 0.8"/>
      </g>
     </g>
     <g id="text_10">
      <!-- 144 -->
      <g transform="translate(3158.23 3372.765398) scale(0.6 -0.6)">
       <defs>
        <path id="DejaVuSans-34" d="M 2419 4116 
L 825 1625 
L 2419 1625 
L 2419 4116 
z
M 2253 4666 
L 3047 4666 
L 3047 1625 
L 3713 1625 
L 3713 1100 
L 3047 1100 
L 3047 0 
L 2419 0 
L 2419 1100 
L 313 1100 
L 313 1709 
L 2253 4666 
z
" transform="scale(0.015625)"/>
       </defs>
       <use xlink:href="#DejaVuSans-31"/>
       <use xlink:href="#DejaVuSans-34" x="63.623047"/>
       <use xlink:href="#DejaVuSans-34" x="127.246094"/>
      </g>
     </g>
    </g>
    <g id="xtick_11">
     <g id="line2d_11">
      <g>
       <use xlink:href="#m0da27b7b42" x="3380.375" y="3389.755187" style="stroke: #000000; stroke-width: 0.8"/>
      </g>
     </g>
     <g id="text_11">
      <!-- 152 -->
      <g transform="translate(3323.1125 3372.765398) scale(0.6 -0.6)">
       <use xlink:href="#DejaVuSans-31"/>
       <use xlink:href="#DejaVuSans-35" x="63.623047"/>
       <use xlink:href="#DejaVuSans-32" x="127.246094"/>
      </g>
     </g>
    </g>
    <g id="xtick_12">
     <g id="line2d_12">
      <g>
       <use xlink:href="#m0da27b7b42" x="3545.2575" y="3389.755187" style="stroke: #000000; stroke-width: 0.8"/>
      </g>
     </g>
     <g id="text_12">
      <!-- 160 -->
      <g transform="translate(3487.995 3372.765398) scale(0.6 -0.6)">
       <use xlink:href="#DejaVuSans-31"/>
       <use xlink:href="#DejaVuSans-36" x="63.623047"/>
       <use xlink:href="#DejaVuSans-30" x="127.246094"/>
      </g>
     </g>
    </g>
    <g id="xtick_13">
     <g id="line2d_13">
      <g>
       <use xlink:href="#m0da27b7b42" x="3792.58125" y="3389.755187" style="stroke: #000000; stroke-width: 0.8"/>
      </g>
     </g>
     <g id="text_13">
      <!-- 172 -->
      <g transform="translate(3735.31875 3372.765398) scale(0.6 -0.6)">
       <use xlink:href="#DejaVuSans-31"/>
       <use xlink:href="#DejaVuSans-37" x="63.623047"/>
       <use xlink:href="#DejaVuSans-32" x="127.246094"/>
      </g>
     </g>
    </g>
    <g id="xtick_14">
     <g id="line2d_14">
      <g>
       <use xlink:href="#m0da27b7b42" x="4039.905" y="3389.755187" style="stroke: #000000; stroke-width: 0.8"/>
      </g>
     </g>
     <g id="text_14">
      <!-- 184 -->
      <g transform="translate(3982.6425 3372.765398) scale(0.6 -0.6)">
       <use xlink:href="#DejaVuSans-31"/>
       <use xlink:href="#DejaVuSans-38" x="63.623047"/>
       <use xlink:href="#DejaVuSans-34" x="127.246094"/>
      </g>
     </g>
    </g>
    <g id="xtick_15">
     <g id="line2d_15">
      <g>
       <use xlink:href="#m0da27b7b42" x="4452.11125" y="3389.755187" style="stroke: #000000; stroke-width: 0.8"/>
      </g>
     </g>
     <g id="text_15">
      <!-- 204 -->
      <g transform="translate(4394.84875 3372.765398) scale(0.6 -0.6)">
       <use xlink:href="#DejaVuSans-32"/>
       <use xlink:href="#DejaVuSans-30" x="63.623047"/>
       <use xlink:href="#DejaVuSans-34" x="127.246094"/>
      </g>
     </g>
    </g>
    <g id="xtick_16">
     <g id="line2d_16">
      <g>
       <use xlink:href="#m0da27b7b42" x="4864.3175" y="3389.755187" style="stroke: #000000; stroke-width: 0.8"/>
      </g>
     </g>
     <g id="text_16">
      <!-- 224 -->
      <g transform="translate(4807.055 3372.765398) scale(0.6 -0.6)">
       <use xlink:href="#DejaVuSans-32"/>
       <use xlink:href="#DejaVuSans-32" x="63.623047"/>
       <use xlink:href="#DejaVuSans-34" x="127.246094"/>
      </g>
     </g>
    </g>
    <g id="text_17">
     <!-- Time(s) -->
     <g transform="translate(2443.523437 3442.845813) scale(0.6 -0.6)">
      <defs>
       <path id="DejaVuSans-54" d="M -19 4666 
L 3928 4666 
L 3928 4134 
L 2272 4134 
L 2272 0 
L 1638 0 
L 1638 4134 
L -19 4134 
L -19 4666 
z
" transform="scale(0.015625)"/>
       <path id="DejaVuSans-69" d="M 603 3500 
L 1178 3500 
L 1178 0 
L 603 0 
L 603 3500 
z
M 603 4863 
L 1178 4863 
L 1178 4134 
L 603 4134 
L 603 4863 
z
" transform="scale(0.015625)"/>
       <path id="DejaVuSans-6d" d="M 3328 2828 
Q 3544 3216 3844 3400 
Q 4144 3584 4550 3584 
Q 5097 3584 5394 3201 
Q 5691 2819 5691 2113 
L 5691 0 
L 5113 0 
L 5113 2094 
Q 5113 2597 4934 2840 
Q 4756 3084 4391 3084 
Q 3944 3084 3684 2787 
Q 3425 2491 3425 1978 
L 3425 0 
L 2847 0 
L 2847 2094 
Q 2847 2600 2669 2842 
Q 2491 3084 2119 3084 
Q 1678 3084 1418 2786 
Q 1159 2488 1159 1978 
L 1159 0 
L 581 0 
L 581 3500 
L 1159 3500 
L 1159 2956 
Q 1356 3278 1631 3431 
Q 1906 3584 2284 3584 
Q 2666 3584 2933 3390 
Q 3200 3197 3328 2828 
z
" transform="scale(0.015625)"/>
       <path id="DejaVuSans-65" d="M 3597 1894 
L 3597 1613 
L 953 1613 
Q 991 1019 1311 708 
Q 1631 397 2203 397 
Q 2534 397 2845 478 
Q 3156 559 3463 722 
L 3463 178 
Q 3153 47 2828 -22 
Q 2503 -91 2169 -91 
Q 1331 -91 842 396 
Q 353 884 353 1716 
Q 353 2575 817 3079 
Q 1281 3584 2069 3584 
Q 2775 3584 3186 3129 
Q 3597 2675 3597 1894 
z
M 3022 2063 
Q 3016 2534 2758 2815 
Q 2500 3097 2075 3097 
Q 1594 3097 1305 2825 
Q 1016 2553 972 2059 
L 3022 2063 
z
" transform="scale(0.015625)"/>
       <path id="DejaVuSans-28" d="M 1984 4856 
Q 1566 4138 1362 3434 
Q 1159 2731 1159 2009 
Q 1159 1288 1364 580 
Q 1569 -128 1984 -844 
L 1484 -844 
Q 1016 -109 783 600 
Q 550 1309 550 2009 
Q 550 2706 781 3412 
Q 1013 4119 1484 4856 
L 1984 4856 
z
" transform="scale(0.015625)"/>
       <path id="DejaVuSans-73" d="M 2834 3397 
L 2834 2853 
Q 2591 2978 2328 3040 
Q 2066 3103 1784 3103 
Q 1356 3103 1142 2972 
Q 928 2841 928 2578 
Q 928 2378 1081 2264 
Q 1234 2150 1697 2047 
L 1894 2003 
Q 2506 1872 2764 1633 
Q 3022 1394 3022 966 
Q 3022 478 2636 193 
Q 2250 -91 1575 -91 
Q 1294 -91 989 -36 
Q 684 19 347 128 
L 347 722 
Q 666 556 975 473 
Q 1284 391 1588 391 
Q 1994 391 2212 530 
Q 2431 669 2431 922 
Q 2431 1156 2273 1281 
Q 2116 1406 1581 1522 
L 1381 1569 
Q 847 1681 609 1914 
Q 372 2147 372 2553 
Q 372 3047 722 3315 
Q 1072 3584 1716 3584 
Q 2034 3584 2315 3537 
Q 2597 3491 2834 3397 
z
" transform="scale(0.015625)"/>
       <path id="DejaVuSans-29" d="M 513 4856 
L 1013 4856 
Q 1481 4119 1714 3412 
Q 1947 2706 1947 2009 
Q 1947 1309 1714 600 
Q 1481 -109 1013 -844 
L 513 -844 
Q 928 -128 1133 580 
Q 1338 1288 1338 2009 
Q 1338 2731 1133 3434 
Q 928 4138 513 4856 
z
" transform="scale(0.015625)"/>
      </defs>
      <use xlink:href="#DejaVuSans-54"/>
      <use xlink:href="#DejaVuSans-69" x="57.958984"/>
      <use xlink:href="#DejaVuSans-6d" x="85.742188"/>
      <use xlink:href="#DejaVuSans-65" x="183.154297"/>
      <use xlink:href="#DejaVuSans-28" x="244.677734"/>
      <use xlink:href="#DejaVuSans-73" x="283.691406"/>
      <use xlink:href="#DejaVuSans-29" x="335.791016"/>
     </g>
    </g>
   </g>
   <g id="text_18">
    <g id="patch_75">
     <path d="M -14.845937 2284.306906 
L 221.516563 2284.306906 
L 221.516563 2166.238156 
L -14.845937 2166.238156 
z
" style="fill: #ffffff; stroke: #000000; stroke-linejoin: miter"/>
    </g>
    <!-- Hand -->
    <g transform="translate(15.154063 2241.828781) scale(0.6 -0.6)">
     <defs>
      <path id="DejaVuSans-Bold-48" d="M 588 4666 
L 1791 4666 
L 1791 2888 
L 3566 2888 
L 3566 4666 
L 4769 4666 
L 4769 0 
L 3566 0 
L 3566 1978 
L 1791 1978 
L 1791 0 
L 588 0 
L 588 4666 
z
" transform="scale(0.015625)"/>
      <path id="DejaVuSans-Bold-61" d="M 2106 1575 
Q 1756 1575 1579 1456 
Q 1403 1338 1403 1106 
Q 1403 894 1545 773 
Q 1688 653 1941 653 
Q 2256 653 2472 879 
Q 2688 1106 2688 1447 
L 2688 1575 
L 2106 1575 
z
M 3816 1997 
L 3816 0 
L 2688 0 
L 2688 519 
Q 2463 200 2181 54 
Q 1900 -91 1497 -91 
Q 953 -91 614 226 
Q 275 544 275 1050 
Q 275 1666 698 1953 
Q 1122 2241 2028 2241 
L 2688 2241 
L 2688 2328 
Q 2688 2594 2478 2717 
Q 2269 2841 1825 2841 
Q 1466 2841 1156 2769 
Q 847 2697 581 2553 
L 581 3406 
Q 941 3494 1303 3539 
Q 1666 3584 2028 3584 
Q 2975 3584 3395 3211 
Q 3816 2838 3816 1997 
z
" transform="scale(0.015625)"/>
      <path id="DejaVuSans-Bold-6e" d="M 4056 2131 
L 4056 0 
L 2931 0 
L 2931 347 
L 2931 1631 
Q 2931 2084 2911 2256 
Q 2891 2428 2841 2509 
Q 2775 2619 2662 2680 
Q 2550 2741 2406 2741 
Q 2056 2741 1856 2470 
Q 1656 2200 1656 1722 
L 1656 0 
L 538 0 
L 538 3500 
L 1656 3500 
L 1656 2988 
Q 1909 3294 2193 3439 
Q 2478 3584 2822 3584 
Q 3428 3584 3742 3212 
Q 4056 2841 4056 2131 
z
" transform="scale(0.015625)"/>
      <path id="DejaVuSans-Bold-64" d="M 2919 2988 
L 2919 4863 
L 4044 4863 
L 4044 0 
L 2919 0 
L 2919 506 
Q 2688 197 2409 53 
Q 2131 -91 1766 -91 
Q 1119 -91 703 423 
Q 288 938 288 1747 
Q 288 2556 703 3070 
Q 1119 3584 1766 3584 
Q 2128 3584 2408 3439 
Q 2688 3294 2919 2988 
z
M 2181 722 
Q 2541 722 2730 984 
Q 2919 1247 2919 1747 
Q 2919 2247 2730 2509 
Q 2541 2772 2181 2772 
Q 1825 2772 1636 2509 
Q 1447 2247 1447 1747 
Q 1447 1247 1636 984 
Q 1825 722 2181 722 
z
" transform="scale(0.015625)"/>
     </defs>
     <use xlink:href="#DejaVuSans-Bold-48"/>
     <use xlink:href="#DejaVuSans-Bold-61" x="83.691406"/>
     <use xlink:href="#DejaVuSans-Bold-6e" x="151.171875"/>
     <use xlink:href="#DejaVuSans-Bold-64" x="222.363281"/>
    </g>
   </g>
   <g id="text_19">
    <g id="patch_76">
     <path d="M -2.306875 3005.667844 
L 208.9775 3005.667844 
L 208.9775 2887.599094 
L -2.306875 2887.599094 
z
" style="fill: #ffffff; stroke: #000000; stroke-linejoin: miter"/>
    </g>
    <!-- Rest -->
    <g transform="translate(27.693125 2963.189719) scale(0.6 -0.6)">
     <defs>
      <path id="DejaVuSans-Bold-52" d="M 2297 2597 
Q 2675 2597 2839 2737 
Q 3003 2878 3003 3200 
Q 3003 3519 2839 3656 
Q 2675 3794 2297 3794 
L 1791 3794 
L 1791 2597 
L 2297 2597 
z
M 1791 1766 
L 1791 0 
L 588 0 
L 588 4666 
L 2425 4666 
Q 3347 4666 3776 4356 
Q 4206 4047 4206 3378 
Q 4206 2916 3982 2619 
Q 3759 2322 3309 2181 
Q 3556 2125 3751 1926 
Q 3947 1728 4147 1325 
L 4800 0 
L 3519 0 
L 2950 1159 
Q 2778 1509 2601 1637 
Q 2425 1766 2131 1766 
L 1791 1766 
z
" transform="scale(0.015625)"/>
      <path id="DejaVuSans-Bold-65" d="M 4031 1759 
L 4031 1441 
L 1416 1441 
Q 1456 1047 1700 850 
Q 1944 653 2381 653 
Q 2734 653 3104 758 
Q 3475 863 3866 1075 
L 3866 213 
Q 3469 63 3072 -14 
Q 2675 -91 2278 -91 
Q 1328 -91 801 392 
Q 275 875 275 1747 
Q 275 2603 792 3093 
Q 1309 3584 2216 3584 
Q 3041 3584 3536 3087 
Q 4031 2591 4031 1759 
z
M 2881 2131 
Q 2881 2450 2695 2645 
Q 2509 2841 2209 2841 
Q 1884 2841 1681 2658 
Q 1478 2475 1428 2131 
L 2881 2131 
z
" transform="scale(0.015625)"/>
      <path id="DejaVuSans-Bold-73" d="M 3272 3391 
L 3272 2541 
Q 2913 2691 2578 2766 
Q 2244 2841 1947 2841 
Q 1628 2841 1473 2761 
Q 1319 2681 1319 2516 
Q 1319 2381 1436 2309 
Q 1553 2238 1856 2203 
L 2053 2175 
Q 2913 2066 3209 1816 
Q 3506 1566 3506 1031 
Q 3506 472 3093 190 
Q 2681 -91 1863 -91 
Q 1516 -91 1145 -36 
Q 775 19 384 128 
L 384 978 
Q 719 816 1070 734 
Q 1422 653 1784 653 
Q 2113 653 2278 743 
Q 2444 834 2444 1013 
Q 2444 1163 2330 1236 
Q 2216 1309 1875 1350 
L 1678 1375 
Q 931 1469 631 1722 
Q 331 1975 331 2491 
Q 331 3047 712 3315 
Q 1094 3584 1881 3584 
Q 2191 3584 2531 3537 
Q 2872 3491 3272 3391 
z
" transform="scale(0.015625)"/>
      <path id="DejaVuSans-Bold-74" d="M 1759 4494 
L 1759 3500 
L 2913 3500 
L 2913 2700 
L 1759 2700 
L 1759 1216 
Q 1759 972 1856 886 
Q 1953 800 2241 800 
L 2816 800 
L 2816 0 
L 1856 0 
Q 1194 0 917 276 
Q 641 553 641 1216 
L 641 2700 
L 84 2700 
L 84 3500 
L 641 3500 
L 641 4494 
L 1759 4494 
z
" transform="scale(0.015625)"/>
     </defs>
     <use xlink:href="#DejaVuSans-Bold-52"/>
     <use xlink:href="#DejaVuSans-Bold-65" x="77.001953"/>
     <use xlink:href="#DejaVuSans-Bold-73" x="144.824219"/>
     <use xlink:href="#DejaVuSans-Bold-74" x="204.345703"/>
    </g>
   </g>
   <g id="text_20">
    <!-- Activity Timeline For Kaiser Window,100% Shifting and XGB Classifier -->
    <g transform="translate(982.40625 1632.982312) scale(0.8 -0.8)">
     <defs>
      <path id="DejaVuSans-Bold-41" d="M 3419 850 
L 1538 850 
L 1241 0 
L 31 0 
L 1759 4666 
L 3194 4666 
L 4922 0 
L 3713 0 
L 3419 850 
z
M 1838 1716 
L 3116 1716 
L 2478 3572 
L 1838 1716 
z
" transform="scale(0.015625)"/>
      <path id="DejaVuSans-Bold-63" d="M 3366 3391 
L 3366 2478 
Q 3138 2634 2908 2709 
Q 2678 2784 2431 2784 
Q 1963 2784 1702 2511 
Q 1441 2238 1441 1747 
Q 1441 1256 1702 982 
Q 1963 709 2431 709 
Q 2694 709 2930 787 
Q 3166 866 3366 1019 
L 3366 103 
Q 3103 6 2833 -42 
Q 2563 -91 2291 -91 
Q 1344 -91 809 395 
Q 275 881 275 1747 
Q 275 2613 809 3098 
Q 1344 3584 2291 3584 
Q 2566 3584 2833 3536 
Q 3100 3488 3366 3391 
z
" transform="scale(0.015625)"/>
      <path id="DejaVuSans-Bold-69" d="M 538 3500 
L 1656 3500 
L 1656 0 
L 538 0 
L 538 3500 
z
M 538 4863 
L 1656 4863 
L 1656 3950 
L 538 3950 
L 538 4863 
z
" transform="scale(0.015625)"/>
      <path id="DejaVuSans-Bold-76" d="M 97 3500 
L 1216 3500 
L 2088 1081 
L 2956 3500 
L 4078 3500 
L 2700 0 
L 1472 0 
L 97 3500 
z
" transform="scale(0.015625)"/>
      <path id="DejaVuSans-Bold-79" d="M 78 3500 
L 1197 3500 
L 2138 1125 
L 2938 3500 
L 4056 3500 
L 2584 -331 
Q 2363 -916 2067 -1148 
Q 1772 -1381 1288 -1381 
L 641 -1381 
L 641 -647 
L 991 -647 
Q 1275 -647 1404 -556 
Q 1534 -466 1606 -231 
L 1638 -134 
L 78 3500 
z
" transform="scale(0.015625)"/>
      <path id="DejaVuSans-Bold-20" transform="scale(0.015625)"/>
      <path id="DejaVuSans-Bold-54" d="M 31 4666 
L 4331 4666 
L 4331 3756 
L 2784 3756 
L 2784 0 
L 1581 0 
L 1581 3756 
L 31 3756 
L 31 4666 
z
" transform="scale(0.015625)"/>
      <path id="DejaVuSans-Bold-6d" d="M 3781 2919 
Q 3994 3244 4286 3414 
Q 4578 3584 4928 3584 
Q 5531 3584 5847 3212 
Q 6163 2841 6163 2131 
L 6163 0 
L 5038 0 
L 5038 1825 
Q 5041 1866 5042 1909 
Q 5044 1953 5044 2034 
Q 5044 2406 4934 2573 
Q 4825 2741 4581 2741 
Q 4263 2741 4089 2478 
Q 3916 2216 3909 1719 
L 3909 0 
L 2784 0 
L 2784 1825 
Q 2784 2406 2684 2573 
Q 2584 2741 2328 2741 
Q 2006 2741 1831 2477 
Q 1656 2213 1656 1722 
L 1656 0 
L 531 0 
L 531 3500 
L 1656 3500 
L 1656 2988 
Q 1863 3284 2130 3434 
Q 2397 3584 2719 3584 
Q 3081 3584 3359 3409 
Q 3638 3234 3781 2919 
z
" transform="scale(0.015625)"/>
      <path id="DejaVuSans-Bold-6c" d="M 538 4863 
L 1656 4863 
L 1656 0 
L 538 0 
L 538 4863 
z
" transform="scale(0.015625)"/>
      <path id="DejaVuSans-Bold-46" d="M 588 4666 
L 3834 4666 
L 3834 3756 
L 1791 3756 
L 1791 2888 
L 3713 2888 
L 3713 1978 
L 1791 1978 
L 1791 0 
L 588 0 
L 588 4666 
z
" transform="scale(0.015625)"/>
      <path id="DejaVuSans-Bold-6f" d="M 2203 2784 
Q 1831 2784 1636 2517 
Q 1441 2250 1441 1747 
Q 1441 1244 1636 976 
Q 1831 709 2203 709 
Q 2569 709 2762 976 
Q 2956 1244 2956 1747 
Q 2956 2250 2762 2517 
Q 2569 2784 2203 2784 
z
M 2203 3584 
Q 3106 3584 3614 3096 
Q 4122 2609 4122 1747 
Q 4122 884 3614 396 
Q 3106 -91 2203 -91 
Q 1297 -91 786 396 
Q 275 884 275 1747 
Q 275 2609 786 3096 
Q 1297 3584 2203 3584 
z
" transform="scale(0.015625)"/>
      <path id="DejaVuSans-Bold-72" d="M 3138 2547 
Q 2991 2616 2845 2648 
Q 2700 2681 2553 2681 
Q 2122 2681 1889 2404 
Q 1656 2128 1656 1613 
L 1656 0 
L 538 0 
L 538 3500 
L 1656 3500 
L 1656 2925 
Q 1872 3269 2151 3426 
Q 2431 3584 2822 3584 
Q 2878 3584 2943 3579 
Q 3009 3575 3134 3559 
L 3138 2547 
z
" transform="scale(0.015625)"/>
      <path id="DejaVuSans-Bold-4b" d="M 588 4666 
L 1791 4666 
L 1791 2963 
L 3525 4666 
L 4922 4666 
L 2675 2456 
L 5153 0 
L 3647 0 
L 1791 1838 
L 1791 0 
L 588 0 
L 588 4666 
z
" transform="scale(0.015625)"/>
      <path id="DejaVuSans-Bold-57" d="M 191 4666 
L 1344 4666 
L 2150 1275 
L 2950 4666 
L 4109 4666 
L 4909 1275 
L 5716 4666 
L 6859 4666 
L 5759 0 
L 4372 0 
L 3525 3547 
L 2688 0 
L 1300 0 
L 191 4666 
z
" transform="scale(0.015625)"/>
      <path id="DejaVuSans-Bold-77" d="M 225 3500 
L 1313 3500 
L 1900 1088 
L 2491 3500 
L 3425 3500 
L 4013 1113 
L 4603 3500 
L 5691 3500 
L 4769 0 
L 3547 0 
L 2956 2406 
L 2369 0 
L 1147 0 
L 225 3500 
z
" transform="scale(0.015625)"/>
      <path id="DejaVuSans-Bold-2c" d="M 653 1209 
L 1778 1209 
L 1778 256 
L 1006 -909 
L 341 -909 
L 653 256 
L 653 1209 
z
" transform="scale(0.015625)"/>
      <path id="DejaVuSans-Bold-31" d="M 750 831 
L 1813 831 
L 1813 3847 
L 722 3622 
L 722 4441 
L 1806 4666 
L 2950 4666 
L 2950 831 
L 4013 831 
L 4013 0 
L 750 0 
L 750 831 
z
" transform="scale(0.015625)"/>
      <path id="DejaVuSans-Bold-30" d="M 2944 2338 
Q 2944 3213 2780 3570 
Q 2616 3928 2228 3928 
Q 1841 3928 1675 3570 
Q 1509 3213 1509 2338 
Q 1509 1453 1675 1090 
Q 1841 728 2228 728 
Q 2613 728 2778 1090 
Q 2944 1453 2944 2338 
z
M 4147 2328 
Q 4147 1169 3647 539 
Q 3147 -91 2228 -91 
Q 1306 -91 806 539 
Q 306 1169 306 2328 
Q 306 3491 806 4120 
Q 1306 4750 2228 4750 
Q 3147 4750 3647 4120 
Q 4147 3491 4147 2328 
z
" transform="scale(0.015625)"/>
      <path id="DejaVuSans-Bold-25" d="M 4959 1925 
Q 4738 1925 4616 1733 
Q 4494 1541 4494 1184 
Q 4494 825 4614 633 
Q 4734 441 4959 441 
Q 5184 441 5303 633 
Q 5422 825 5422 1184 
Q 5422 1541 5301 1733 
Q 5181 1925 4959 1925 
z
M 4959 2450 
Q 5541 2450 5875 2112 
Q 6209 1775 6209 1184 
Q 6209 594 5875 251 
Q 5541 -91 4959 -91 
Q 4378 -91 4042 251 
Q 3706 594 3706 1184 
Q 3706 1772 4042 2111 
Q 4378 2450 4959 2450 
z
M 2094 -91 
L 1403 -91 
L 4319 4750 
L 5013 4750 
L 2094 -91 
z
M 1453 4750 
Q 2034 4750 2367 4411 
Q 2700 4072 2700 3481 
Q 2700 2891 2367 2550 
Q 2034 2209 1453 2209 
Q 872 2209 539 2550 
Q 206 2891 206 3481 
Q 206 4072 539 4411 
Q 872 4750 1453 4750 
z
M 1453 4225 
Q 1228 4225 1106 4031 
Q 984 3838 984 3481 
Q 984 3122 1106 2926 
Q 1228 2731 1453 2731 
Q 1678 2731 1798 2926 
Q 1919 3122 1919 3481 
Q 1919 3838 1797 4031 
Q 1675 4225 1453 4225 
z
" transform="scale(0.015625)"/>
      <path id="DejaVuSans-Bold-53" d="M 3834 4519 
L 3834 3531 
Q 3450 3703 3084 3790 
Q 2719 3878 2394 3878 
Q 1963 3878 1756 3759 
Q 1550 3641 1550 3391 
Q 1550 3203 1689 3098 
Q 1828 2994 2194 2919 
L 2706 2816 
Q 3484 2659 3812 2340 
Q 4141 2022 4141 1434 
Q 4141 663 3683 286 
Q 3225 -91 2284 -91 
Q 1841 -91 1394 -6 
Q 947 78 500 244 
L 500 1259 
Q 947 1022 1364 901 
Q 1781 781 2169 781 
Q 2563 781 2772 912 
Q 2981 1044 2981 1288 
Q 2981 1506 2839 1625 
Q 2697 1744 2272 1838 
L 1806 1941 
Q 1106 2091 782 2419 
Q 459 2747 459 3303 
Q 459 4000 909 4375 
Q 1359 4750 2203 4750 
Q 2588 4750 2994 4692 
Q 3400 4634 3834 4519 
z
" transform="scale(0.015625)"/>
      <path id="DejaVuSans-Bold-68" d="M 4056 2131 
L 4056 0 
L 2931 0 
L 2931 347 
L 2931 1625 
Q 2931 2084 2911 2256 
Q 2891 2428 2841 2509 
Q 2775 2619 2662 2680 
Q 2550 2741 2406 2741 
Q 2056 2741 1856 2470 
Q 1656 2200 1656 1722 
L 1656 0 
L 538 0 
L 538 4863 
L 1656 4863 
L 1656 2988 
Q 1909 3294 2193 3439 
Q 2478 3584 2822 3584 
Q 3428 3584 3742 3212 
Q 4056 2841 4056 2131 
z
" transform="scale(0.015625)"/>
      <path id="DejaVuSans-Bold-66" d="M 2841 4863 
L 2841 4128 
L 2222 4128 
Q 1984 4128 1890 4042 
Q 1797 3956 1797 3744 
L 1797 3500 
L 2753 3500 
L 2753 2700 
L 1797 2700 
L 1797 0 
L 678 0 
L 678 2700 
L 122 2700 
L 122 3500 
L 678 3500 
L 678 3744 
Q 678 4316 997 4589 
Q 1316 4863 1984 4863 
L 2841 4863 
z
" transform="scale(0.015625)"/>
      <path id="DejaVuSans-Bold-67" d="M 2919 594 
Q 2688 288 2409 144 
Q 2131 0 1766 0 
Q 1125 0 706 504 
Q 288 1009 288 1791 
Q 288 2575 706 3076 
Q 1125 3578 1766 3578 
Q 2131 3578 2409 3434 
Q 2688 3291 2919 2981 
L 2919 3500 
L 4044 3500 
L 4044 353 
Q 4044 -491 3511 -936 
Q 2978 -1381 1966 -1381 
Q 1638 -1381 1331 -1331 
Q 1025 -1281 716 -1178 
L 716 -306 
Q 1009 -475 1290 -558 
Q 1572 -641 1856 -641 
Q 2406 -641 2662 -400 
Q 2919 -159 2919 353 
L 2919 594 
z
M 2181 2772 
Q 1834 2772 1640 2515 
Q 1447 2259 1447 1791 
Q 1447 1309 1634 1061 
Q 1822 813 2181 813 
Q 2531 813 2725 1069 
Q 2919 1325 2919 1791 
Q 2919 2259 2725 2515 
Q 2531 2772 2181 2772 
z
" transform="scale(0.015625)"/>
      <path id="DejaVuSans-Bold-58" d="M 3188 2381 
L 4806 0 
L 3553 0 
L 2463 1594 
L 1381 0 
L 122 0 
L 1741 2381 
L 184 4666 
L 1441 4666 
L 2463 3163 
L 3481 4666 
L 4744 4666 
L 3188 2381 
z
" transform="scale(0.015625)"/>
      <path id="DejaVuSans-Bold-47" d="M 4781 347 
Q 4331 128 3847 18 
Q 3363 -91 2847 -91 
Q 1681 -91 1000 561 
Q 319 1213 319 2328 
Q 319 3456 1012 4103 
Q 1706 4750 2913 4750 
Q 3378 4750 3804 4662 
Q 4231 4575 4609 4403 
L 4609 3438 
Q 4219 3659 3833 3768 
Q 3447 3878 3059 3878 
Q 2341 3878 1952 3476 
Q 1563 3075 1563 2328 
Q 1563 1588 1938 1184 
Q 2313 781 3003 781 
Q 3191 781 3352 804 
Q 3513 828 3641 878 
L 3641 1784 
L 2906 1784 
L 2906 2591 
L 4781 2591 
L 4781 347 
z
" transform="scale(0.015625)"/>
      <path id="DejaVuSans-Bold-42" d="M 2456 2859 
Q 2741 2859 2887 2984 
Q 3034 3109 3034 3353 
Q 3034 3594 2887 3720 
Q 2741 3847 2456 3847 
L 1791 3847 
L 1791 2859 
L 2456 2859 
z
M 2497 819 
Q 2859 819 3042 972 
Q 3225 1125 3225 1434 
Q 3225 1738 3044 1889 
Q 2863 2041 2497 2041 
L 1791 2041 
L 1791 819 
L 2497 819 
z
M 3616 2497 
Q 4003 2384 4215 2081 
Q 4428 1778 4428 1338 
Q 4428 663 3972 331 
Q 3516 0 2584 0 
L 588 0 
L 588 4666 
L 2394 4666 
Q 3366 4666 3802 4372 
Q 4238 4078 4238 3431 
Q 4238 3091 4078 2852 
Q 3919 2613 3616 2497 
z
" transform="scale(0.015625)"/>
      <path id="DejaVuSans-Bold-43" d="M 4288 256 
Q 3956 84 3597 -3 
Q 3238 -91 2847 -91 
Q 1681 -91 1000 561 
Q 319 1213 319 2328 
Q 319 3447 1000 4098 
Q 1681 4750 2847 4750 
Q 3238 4750 3597 4662 
Q 3956 4575 4288 4403 
L 4288 3438 
Q 3953 3666 3628 3772 
Q 3303 3878 2944 3878 
Q 2300 3878 1931 3465 
Q 1563 3053 1563 2328 
Q 1563 1606 1931 1193 
Q 2300 781 2944 781 
Q 3303 781 3628 887 
Q 3953 994 4288 1222 
L 4288 256 
z
" transform="scale(0.015625)"/>
     </defs>
     <use xlink:href="#DejaVuSans-Bold-41"/>
     <use xlink:href="#DejaVuSans-Bold-63" x="77.392578"/>
     <use xlink:href="#DejaVuSans-Bold-74" x="136.669922"/>
     <use xlink:href="#DejaVuSans-Bold-69" x="184.472656"/>
     <use xlink:href="#DejaVuSans-Bold-76" x="218.75"/>
     <use xlink:href="#DejaVuSans-Bold-69" x="283.935547"/>
     <use xlink:href="#DejaVuSans-Bold-74" x="318.212891"/>
     <use xlink:href="#DejaVuSans-Bold-79" x="366.015625"/>
     <use xlink:href="#DejaVuSans-Bold-20" x="431.201172"/>
     <use xlink:href="#DejaVuSans-Bold-54" x="466.015625"/>
     <use xlink:href="#DejaVuSans-Bold-69" x="534.228516"/>
     <use xlink:href="#DejaVuSans-Bold-6d" x="568.505859"/>
     <use xlink:href="#DejaVuSans-Bold-65" x="672.705078"/>
     <use xlink:href="#DejaVuSans-Bold-6c" x="740.527344"/>
     <use xlink:href="#DejaVuSans-Bold-69" x="774.804688"/>
     <use xlink:href="#DejaVuSans-Bold-6e" x="809.082031"/>
     <use xlink:href="#DejaVuSans-Bold-65" x="880.273438"/>
     <use xlink:href="#DejaVuSans-Bold-20" x="948.095703"/>
     <use xlink:href="#DejaVuSans-Bold-46" x="982.910156"/>
     <use xlink:href="#DejaVuSans-Bold-6f" x="1047.220703"/>
     <use xlink:href="#DejaVuSans-Bold-72" x="1115.921875"/>
     <use xlink:href="#DejaVuSans-Bold-20" x="1165.238281"/>
     <use xlink:href="#DejaVuSans-Bold-4b" x="1200.052734"/>
     <use xlink:href="#DejaVuSans-Bold-61" x="1277.542969"/>
     <use xlink:href="#DejaVuSans-Bold-69" x="1345.023438"/>
     <use xlink:href="#DejaVuSans-Bold-73" x="1379.300781"/>
     <use xlink:href="#DejaVuSans-Bold-65" x="1438.822266"/>
     <use xlink:href="#DejaVuSans-Bold-72" x="1506.644531"/>
     <use xlink:href="#DejaVuSans-Bold-20" x="1555.960938"/>
     <use xlink:href="#DejaVuSans-Bold-57" x="1590.775391"/>
     <use xlink:href="#DejaVuSans-Bold-69" x="1701.078125"/>
     <use xlink:href="#DejaVuSans-Bold-6e" x="1735.355469"/>
     <use xlink:href="#DejaVuSans-Bold-64" x="1806.546875"/>
     <use xlink:href="#DejaVuSans-Bold-6f" x="1878.128906"/>
     <use xlink:href="#DejaVuSans-Bold-77" x="1946.830078"/>
     <use xlink:href="#DejaVuSans-Bold-2c" x="2032.837891"/>
     <use xlink:href="#DejaVuSans-Bold-31" x="2070.826172"/>
     <use xlink:href="#DejaVuSans-Bold-30" x="2140.40625"/>
     <use xlink:href="#DejaVuSans-Bold-30" x="2209.986328"/>
     <use xlink:href="#DejaVuSans-Bold-25" x="2279.566406"/>
     <use xlink:href="#DejaVuSans-Bold-20" x="2379.761719"/>
     <use xlink:href="#DejaVuSans-Bold-53" x="2414.576172"/>
     <use xlink:href="#DejaVuSans-Bold-68" x="2486.597656"/>
     <use xlink:href="#DejaVuSans-Bold-69" x="2557.789062"/>
     <use xlink:href="#DejaVuSans-Bold-66" x="2592.066406"/>
     <use xlink:href="#DejaVuSans-Bold-74" x="2635.572266"/>
     <use xlink:href="#DejaVuSans-Bold-69" x="2683.375"/>
     <use xlink:href="#DejaVuSans-Bold-6e" x="2717.652344"/>
     <use xlink:href="#DejaVuSans-Bold-67" x="2788.84375"/>
     <use xlink:href="#DejaVuSans-Bold-20" x="2860.425781"/>
     <use xlink:href="#DejaVuSans-Bold-61" x="2895.240234"/>
     <use xlink:href="#DejaVuSans-Bold-6e" x="2962.720703"/>
     <use xlink:href="#DejaVuSans-Bold-64" x="3033.912109"/>
     <use xlink:href="#DejaVuSans-Bold-20" x="3105.494141"/>
     <use xlink:href="#DejaVuSans-Bold-58" x="3140.308594"/>
     <use xlink:href="#DejaVuSans-Bold-47" x="3217.408203"/>
     <use xlink:href="#DejaVuSans-Bold-42" x="3299.488281"/>
     <use xlink:href="#DejaVuSans-Bold-20" x="3375.708984"/>
     <use xlink:href="#DejaVuSans-Bold-43" x="3410.523438"/>
     <use xlink:href="#DejaVuSans-Bold-6c" x="3483.912109"/>
     <use xlink:href="#DejaVuSans-Bold-61" x="3518.189453"/>
     <use xlink:href="#DejaVuSans-Bold-73" x="3585.669922"/>
     <use xlink:href="#DejaVuSans-Bold-73" x="3645.191406"/>
     <use xlink:href="#DejaVuSans-Bold-69" x="3704.712891"/>
     <use xlink:href="#DejaVuSans-Bold-66" x="3738.990234"/>
     <use xlink:href="#DejaVuSans-Bold-69" x="3782.496094"/>
     <use xlink:href="#DejaVuSans-Bold-65" x="3816.773438"/>
     <use xlink:href="#DejaVuSans-Bold-72" x="3884.595703"/>
    </g>
   </g>
   <g id="legend_1">
    <g id="patch_77">
     <path d="M 4755.625 1799.669812 
L 5001.2 1799.669812 
Q 5009.2 1799.669812 5009.2 1791.669812 
L 5009.2 1678.244812 
Q 5009.2 1670.244812 5001.2 1670.244812 
L 4755.625 1670.244812 
Q 4747.625 1670.244812 4747.625 1678.244812 
L 4747.625 1791.669812 
Q 4747.625 1799.669812 4755.625 1799.669812 
z
" style="fill: #ffffff; opacity: 0.8; stroke: #cccccc; stroke-linejoin: miter"/>
    </g>
    <g id="patch_78">
     <path d="M 4763.625 1716.638562 
L 4843.625 1716.638562 
L 4843.625 1688.638562 
L 4763.625 1688.638562 
z
" style="fill: #1ea4a4; stroke: #1ea4a4; stroke-linejoin: miter"/>
    </g>
    <g id="text_21">
     <!-- Hand -->
     <g transform="translate(4875.625 1716.638562) scale(0.4 -0.4)">
      <use xlink:href="#DejaVuSans-Bold-48"/>
      <use xlink:href="#DejaVuSans-Bold-61" x="83.691406"/>
      <use xlink:href="#DejaVuSans-Bold-6e" x="151.171875"/>
      <use xlink:href="#DejaVuSans-Bold-64" x="222.363281"/>
     </g>
    </g>
    <g id="patch_79">
     <path d="M 4763.625 1775.351062 
L 4843.625 1775.351062 
L 4843.625 1747.351062 
L 4763.625 1747.351062 
z
" style="fill: #c8c8c8; stroke: #c8c8c8; stroke-linejoin: miter"/>
    </g>
    <g id="text_22">
     <!-- Rest -->
     <g transform="translate(4875.625 1775.351062) scale(0.4 -0.4)">
      <use xlink:href="#DejaVuSans-Bold-52"/>
      <use xlink:href="#DejaVuSans-Bold-65" x="77.001953"/>
      <use xlink:href="#DejaVuSans-Bold-73" x="144.824219"/>
      <use xlink:href="#DejaVuSans-Bold-74" x="204.345703"/>
     </g>
    </g>
   </g>
  </g>
 </g>
 <defs>
  <clipPath id="p91cf7ce297">
   <rect x="82.725" y="1650.244812" width="4946.475" height="1739.510375"/>
  </clipPath>
 </defs>
</svg>
