<?xml version="1.0" encoding="utf-8" standalone="no"?>
<!DOCTYPE svg PUBLIC "-//W3C//DTD SVG 1.1//EN"
  "http://www.w3.org/Graphics/SVG/1.1/DTD/svg11.dtd">
<svg xmlns:xlink="http://www.w3.org/1999/xlink" width="5040pt" height="5040pt" viewBox="0 0 5040 5040" xmlns="http://www.w3.org/2000/svg" version="1.1">
 <metadata>
  <rdf:RDF xmlns:dc="http://purl.org/dc/elements/1.1/" xmlns:cc="http://creativecommons.org/ns#" xmlns:rdf="http://www.w3.org/1999/02/22-rdf-syntax-ns#">
   <cc:Work>
    <dc:type rdf:resource="http://purl.org/dc/dcmitype/StillImage"/>
    <dc:date>2024-03-03T16:41:20.158783</dc:date>
    <dc:format>image/svg+xml</dc:format>
    <dc:creator>
     <cc:Agent>
      <dc:title>Matplotlib v3.7.0, https://matplotlib.org/</dc:title>
     </cc:Agent>
    </dc:creator>
   </cc:Work>
  </rdf:RDF>
 </metadata>
 <defs>
  <style type="text/css">*{stroke-linejoin: round; stroke-linecap: butt}</style>
 </defs>
 <g id="figure_1">
  <g id="patch_1">
   <path d="M 0 5040 
L 5040 5040 
L 5040 0 
L 0 0 
z
" style="fill: #ffffff"/>
  </g>
  <g id="axes_1">
   <g id="patch_2">
    <path d="M 116.384504 3394.96838 
L 5029.2 3394.96838 
L 5029.2 1645.03162 
L 116.384504 1645.03162 
z
" style="fill: #ffffff"/>
   </g>
   <g id="patch_3">
    <path d="M 299.092518 3303.614372 
L 461.499642 3303.614372 
L 461.499642 1882.552039 
L 299.092518 1882.552039 
z
" clip-path="url(#p18ff3eb65f)" style="fill: #1ea4a4; stroke: #1ea4a4; stroke-linejoin: miter"/>
   </g>
   <g id="patch_4">
    <path d="M 461.499642 3303.614372 
L 867.517452 3303.614372 
L 867.517452 1882.552039 
L 461.499642 1882.552039 
z
" clip-path="url(#p18ff3eb65f)" style="fill: #c8c8c8; stroke: #c8c8c8; stroke-linejoin: miter"/>
   </g>
   <g id="patch_5">
    <path d="M 867.517452 3303.614372 
L 1192.3317 3303.614372 
L 1192.3317 1882.552039 
L 867.517452 1882.552039 
z
" clip-path="url(#p18ff3eb65f)" style="fill: #1ea4a4; stroke: #1ea4a4; stroke-linejoin: miter"/>
   </g>
   <g id="patch_6">
    <path d="M 1192.3317 3303.614372 
L 1435.942385 3303.614372 
L 1435.942385 1882.552039 
L 1192.3317 1882.552039 
z
" clip-path="url(#p18ff3eb65f)" style="fill: #c8c8c8; stroke: #c8c8c8; stroke-linejoin: miter"/>
   </g>
   <g id="patch_7">
    <path d="M 1435.942385 3303.614372 
L 1841.960195 3303.614372 
L 1841.960195 1882.552039 
L 1435.942385 1882.552039 
z
" clip-path="url(#p18ff3eb65f)" style="fill: #1ea4a4; stroke: #1ea4a4; stroke-linejoin: miter"/>
   </g>
   <g id="patch_8">
    <path d="M 1841.960195 3303.614372 
L 2166.774442 3303.614372 
L 2166.774442 1882.552039 
L 1841.960195 1882.552039 
z
" clip-path="url(#p18ff3eb65f)" style="fill: #c8c8c8; stroke: #c8c8c8; stroke-linejoin: miter"/>
   </g>
   <g id="patch_9">
    <path d="M 2166.774442 3303.614372 
L 2410.385128 3303.614372 
L 2410.385128 1882.552039 
L 2166.774442 1882.552039 
z
" clip-path="url(#p18ff3eb65f)" style="fill: #1ea4a4; stroke: #1ea4a4; stroke-linejoin: miter"/>
   </g>
   <g id="patch_10">
    <path d="M 2410.385128 3303.614372 
L 2572.792252 3303.614372 
L 2572.792252 1882.552039 
L 2410.385128 1882.552039 
z
" clip-path="url(#p18ff3eb65f)" style="fill: #c8c8c8; stroke: #c8c8c8; stroke-linejoin: miter"/>
   </g>
   <g id="patch_11">
    <path d="M 2572.792252 3303.614372 
L 2978.810062 3303.614372 
L 2978.810062 1882.552039 
L 2572.792252 1882.552039 
z
" clip-path="url(#p18ff3eb65f)" style="fill: #1ea4a4; stroke: #1ea4a4; stroke-linejoin: miter"/>
   </g>
   <g id="patch_12">
    <path d="M 2978.810062 3303.614372 
L 3222.420747 3303.614372 
L 3222.420747 1882.552039 
L 2978.810062 1882.552039 
z
" clip-path="url(#p18ff3eb65f)" style="fill: #c8c8c8; stroke: #c8c8c8; stroke-linejoin: miter"/>
   </g>
   <g id="patch_13">
    <path d="M 3222.420747 3303.614372 
L 3384.827871 3303.614372 
L 3384.827871 1882.552039 
L 3222.420747 1882.552039 
z
" clip-path="url(#p18ff3eb65f)" style="fill: #1ea4a4; stroke: #1ea4a4; stroke-linejoin: miter"/>
   </g>
   <g id="patch_14">
    <path d="M 3384.827871 3303.614372 
L 3790.845681 3303.614372 
L 3790.845681 1882.552039 
L 3384.827871 1882.552039 
z
" clip-path="url(#p18ff3eb65f)" style="fill: #c8c8c8; stroke: #c8c8c8; stroke-linejoin: miter"/>
   </g>
   <g id="patch_15">
    <path d="M 3790.845681 3303.614372 
L 4115.659928 3303.614372 
L 4115.659928 1882.552039 
L 3790.845681 1882.552039 
z
" clip-path="url(#p18ff3eb65f)" style="fill: #1ea4a4; stroke: #1ea4a4; stroke-linejoin: miter"/>
   </g>
   <g id="patch_16">
    <path d="M 4115.659928 3303.614372 
L 4278.067052 3303.614372 
L 4278.067052 1882.552039 
L 4115.659928 1882.552039 
z
" clip-path="url(#p18ff3eb65f)" style="fill: #c8c8c8; stroke: #c8c8c8; stroke-linejoin: miter"/>
   </g>
   <g id="patch_17">
    <path d="M 4278.067052 3303.614372 
L 4521.677738 3303.614372 
L 4521.677738 1882.552039 
L 4278.067052 1882.552039 
z
" clip-path="url(#p18ff3eb65f)" style="fill: #1ea4a4; stroke: #1ea4a4; stroke-linejoin: miter"/>
   </g>
   <g id="patch_18">
    <path d="M 4521.677738 3303.614372 
L 4846.491986 3303.614372 
L 4846.491986 1882.552039 
L 4521.677738 1882.552039 
z
" clip-path="url(#p18ff3eb65f)" style="fill: #c8c8c8; stroke: #c8c8c8; stroke-linejoin: miter"/>
   </g>
   <g id="patch_19">
    <path d="M 314.318186 2253.04329 
C 318.356081 2253.04329 322.229137 2251.439018 325.084359 2248.583795 
C 327.939582 2245.728573 329.543854 2241.855517 329.543854 2237.817622 
C 329.543854 2233.779728 327.939582 2229.906672 325.084359 2227.051449 
C 322.229137 2224.196227 318.356081 2222.591954 314.318186 2222.591954 
C 310.280292 2222.591954 306.407236 2224.196227 303.552013 2227.051449 
C 300.696791 2229.906672 299.092518 2233.779728 299.092518 2237.817622 
C 299.092518 2241.855517 300.696791 2245.728573 303.552013 2248.583795 
C 306.407236 2251.439018 310.280292 2253.04329 314.318186 2253.04329 
z
" clip-path="url(#p18ff3eb65f)" style="stroke: #000000; stroke-linejoin: miter"/>
   </g>
   <g id="patch_20">
    <path d="M 395.521748 2253.04329 
C 399.559643 2253.04329 403.432699 2251.439018 406.287921 2248.583795 
C 409.143144 2245.728573 410.747416 2241.855517 410.747416 2237.817622 
C 410.747416 2233.779728 409.143144 2229.906672 406.287921 2227.051449 
C 403.432699 2224.196227 399.559643 2222.591954 395.521748 2222.591954 
C 391.483854 2222.591954 387.610798 2224.196227 384.755575 2227.051449 
C 381.900353 2229.906672 380.29608 2233.779728 380.29608 2237.817622 
C 380.29608 2241.855517 381.900353 2245.728573 384.755575 2248.583795 
C 387.610798 2251.439018 391.483854 2253.04329 395.521748 2253.04329 
z
" clip-path="url(#p18ff3eb65f)" style="stroke: #000000; stroke-linejoin: miter"/>
   </g>
   <g id="patch_21">
    <path d="M 476.72531 2963.574457 
C 480.763204 2963.574457 484.636261 2961.970185 487.491483 2959.114962 
C 490.346706 2956.25974 491.950978 2952.386683 491.950978 2948.348789 
C 491.950978 2944.310895 490.346706 2940.437839 487.491483 2937.582616 
C 484.636261 2934.727394 480.763204 2933.123121 476.72531 2933.123121 
C 472.687416 2933.123121 468.81436 2934.727394 465.959137 2937.582616 
C 463.103915 2940.437839 461.499642 2944.310895 461.499642 2948.348789 
C 461.499642 2952.386683 463.103915 2956.25974 465.959137 2959.114962 
C 468.81436 2961.970185 472.687416 2963.574457 476.72531 2963.574457 
z
" clip-path="url(#p18ff3eb65f)" style="stroke: #000000; stroke-linejoin: miter"/>
   </g>
   <g id="patch_22">
    <path d="M 557.928872 2253.04329 
C 561.966766 2253.04329 565.839823 2251.439018 568.695045 2248.583795 
C 571.550267 2245.728573 573.15454 2241.855517 573.15454 2237.817622 
C 573.15454 2233.779728 571.550267 2229.906672 568.695045 2227.051449 
C 565.839823 2224.196227 561.966766 2222.591954 557.928872 2222.591954 
C 553.890978 2222.591954 550.017922 2224.196227 547.162699 2227.051449 
C 544.307477 2229.906672 542.703204 2233.779728 542.703204 2237.817622 
C 542.703204 2241.855517 544.307477 2245.728573 547.162699 2248.583795 
C 550.017922 2251.439018 553.890978 2253.04329 557.928872 2253.04329 
z
" clip-path="url(#p18ff3eb65f)" style="fill: #ff0000; stroke: #ff0000; stroke-linejoin: miter"/>
   </g>
   <g id="patch_23">
    <path d="M 639.132434 2963.574457 
C 643.170328 2963.574457 647.043384 2961.970185 649.898607 2959.114962 
C 652.753829 2956.25974 654.358102 2952.386683 654.358102 2948.348789 
C 654.358102 2944.310895 652.753829 2940.437839 649.898607 2937.582616 
C 647.043384 2934.727394 643.170328 2933.123121 639.132434 2933.123121 
C 635.09454 2933.123121 631.221483 2934.727394 628.366261 2937.582616 
C 625.511039 2940.437839 623.906766 2944.310895 623.906766 2948.348789 
C 623.906766 2952.386683 625.511039 2956.25974 628.366261 2959.114962 
C 631.221483 2961.970185 635.09454 2963.574457 639.132434 2963.574457 
z
" clip-path="url(#p18ff3eb65f)" style="stroke: #000000; stroke-linejoin: miter"/>
   </g>
   <g id="patch_24">
    <path d="M 720.335996 2963.574457 
C 724.37389 2963.574457 728.246946 2961.970185 731.102169 2959.114962 
C 733.957391 2956.25974 735.561664 2952.386683 735.561664 2948.348789 
C 735.561664 2944.310895 733.957391 2940.437839 731.102169 2937.582616 
C 728.246946 2934.727394 724.37389 2933.123121 720.335996 2933.123121 
C 716.298102 2933.123121 712.425045 2934.727394 709.569823 2937.582616 
C 706.7146 2940.437839 705.110328 2944.310895 705.110328 2948.348789 
C 705.110328 2952.386683 706.7146 2956.25974 709.569823 2959.114962 
C 712.425045 2961.970185 716.298102 2963.574457 720.335996 2963.574457 
z
" clip-path="url(#p18ff3eb65f)" style="stroke: #000000; stroke-linejoin: miter"/>
   </g>
   <g id="patch_25">
    <path d="M 801.539558 2253.04329 
C 805.577452 2253.04329 809.450508 2251.439018 812.305731 2248.583795 
C 815.160953 2245.728573 816.765226 2241.855517 816.765226 2237.817622 
C 816.765226 2233.779728 815.160953 2229.906672 812.305731 2227.051449 
C 809.450508 2224.196227 805.577452 2222.591954 801.539558 2222.591954 
C 797.501663 2222.591954 793.628607 2224.196227 790.773385 2227.051449 
C 787.918162 2229.906672 786.31389 2233.779728 786.31389 2237.817622 
C 786.31389 2241.855517 787.918162 2245.728573 790.773385 2248.583795 
C 793.628607 2251.439018 797.501663 2253.04329 801.539558 2253.04329 
z
" clip-path="url(#p18ff3eb65f)" style="fill: #ff0000; stroke: #ff0000; stroke-linejoin: miter"/>
   </g>
   <g id="patch_26">
    <path d="M 882.74312 2253.04329 
C 886.781014 2253.04329 890.65407 2251.439018 893.509293 2248.583795 
C 896.364515 2245.728573 897.968788 2241.855517 897.968788 2237.817622 
C 897.968788 2233.779728 896.364515 2229.906672 893.509293 2227.051449 
C 890.65407 2224.196227 886.781014 2222.591954 882.74312 2222.591954 
C 878.705225 2222.591954 874.832169 2224.196227 871.976947 2227.051449 
C 869.121724 2229.906672 867.517452 2233.779728 867.517452 2237.817622 
C 867.517452 2241.855517 869.121724 2245.728573 871.976947 2248.583795 
C 874.832169 2251.439018 878.705225 2253.04329 882.74312 2253.04329 
z
" clip-path="url(#p18ff3eb65f)" style="stroke: #000000; stroke-linejoin: miter"/>
   </g>
   <g id="patch_27">
    <path d="M 963.946682 2253.04329 
C 967.984576 2253.04329 971.857632 2251.439018 974.712855 2248.583795 
C 977.568077 2245.728573 979.172349 2241.855517 979.172349 2237.817622 
C 979.172349 2233.779728 977.568077 2229.906672 974.712855 2227.051449 
C 971.857632 2224.196227 967.984576 2222.591954 963.946682 2222.591954 
C 959.908787 2222.591954 956.035731 2224.196227 953.180509 2227.051449 
C 950.325286 2229.906672 948.721014 2233.779728 948.721014 2237.817622 
C 948.721014 2241.855517 950.325286 2245.728573 953.180509 2248.583795 
C 956.035731 2251.439018 959.908787 2253.04329 963.946682 2253.04329 
z
" clip-path="url(#p18ff3eb65f)" style="stroke: #000000; stroke-linejoin: miter"/>
   </g>
   <g id="patch_28">
    <path d="M 1045.150244 2253.04329 
C 1049.188138 2253.04329 1053.061194 2251.439018 1055.916417 2248.583795 
C 1058.771639 2245.728573 1060.375911 2241.855517 1060.375911 2237.817622 
C 1060.375911 2233.779728 1058.771639 2229.906672 1055.916417 2227.051449 
C 1053.061194 2224.196227 1049.188138 2222.591954 1045.150244 2222.591954 
C 1041.112349 2222.591954 1037.239293 2224.196227 1034.384071 2227.051449 
C 1031.528848 2229.906672 1029.924576 2233.779728 1029.924576 2237.817622 
C 1029.924576 2241.855517 1031.528848 2245.728573 1034.384071 2248.583795 
C 1037.239293 2251.439018 1041.112349 2253.04329 1045.150244 2253.04329 
z
" clip-path="url(#p18ff3eb65f)" style="stroke: #000000; stroke-linejoin: miter"/>
   </g>
   <g id="patch_29">
    <path d="M 1126.353805 2253.04329 
C 1130.3917 2253.04329 1134.264756 2251.439018 1137.119978 2248.583795 
C 1139.975201 2245.728573 1141.579473 2241.855517 1141.579473 2237.817622 
C 1141.579473 2233.779728 1139.975201 2229.906672 1137.119978 2227.051449 
C 1134.264756 2224.196227 1130.3917 2222.591954 1126.353805 2222.591954 
C 1122.315911 2222.591954 1118.442855 2224.196227 1115.587632 2227.051449 
C 1112.73241 2229.906672 1111.128138 2233.779728 1111.128138 2237.817622 
C 1111.128138 2241.855517 1112.73241 2245.728573 1115.587632 2248.583795 
C 1118.442855 2251.439018 1122.315911 2253.04329 1126.353805 2253.04329 
z
" clip-path="url(#p18ff3eb65f)" style="stroke: #000000; stroke-linejoin: miter"/>
   </g>
   <g id="patch_30">
    <path d="M 1207.557367 2963.574457 
C 1211.595262 2963.574457 1215.468318 2961.970185 1218.32354 2959.114962 
C 1221.178763 2956.25974 1222.783035 2952.386683 1222.783035 2948.348789 
C 1222.783035 2944.310895 1221.178763 2940.437839 1218.32354 2937.582616 
C 1215.468318 2934.727394 1211.595262 2933.123121 1207.557367 2933.123121 
C 1203.519473 2933.123121 1199.646417 2934.727394 1196.791194 2937.582616 
C 1193.935972 2940.437839 1192.3317 2944.310895 1192.3317 2948.348789 
C 1192.3317 2952.386683 1193.935972 2956.25974 1196.791194 2959.114962 
C 1199.646417 2961.970185 1203.519473 2963.574457 1207.557367 2963.574457 
z
" clip-path="url(#p18ff3eb65f)" style="stroke: #000000; stroke-linejoin: miter"/>
   </g>
   <g id="patch_31">
    <path d="M 1288.760929 2963.574457 
C 1292.798824 2963.574457 1296.67188 2961.970185 1299.527102 2959.114962 
C 1302.382325 2956.25974 1303.986597 2952.386683 1303.986597 2948.348789 
C 1303.986597 2944.310895 1302.382325 2940.437839 1299.527102 2937.582616 
C 1296.67188 2934.727394 1292.798824 2933.123121 1288.760929 2933.123121 
C 1284.723035 2933.123121 1280.849979 2934.727394 1277.994756 2937.582616 
C 1275.139534 2940.437839 1273.535261 2944.310895 1273.535261 2948.348789 
C 1273.535261 2952.386683 1275.139534 2956.25974 1277.994756 2959.114962 
C 1280.849979 2961.970185 1284.723035 2963.574457 1288.760929 2963.574457 
z
" clip-path="url(#p18ff3eb65f)" style="stroke: #000000; stroke-linejoin: miter"/>
   </g>
   <g id="patch_32">
    <path d="M 1369.964491 2253.04329 
C 1374.002386 2253.04329 1377.875442 2251.439018 1380.730664 2248.583795 
C 1383.585887 2245.728573 1385.190159 2241.855517 1385.190159 2237.817622 
C 1385.190159 2233.779728 1383.585887 2229.906672 1380.730664 2227.051449 
C 1377.875442 2224.196227 1374.002386 2222.591954 1369.964491 2222.591954 
C 1365.926597 2222.591954 1362.053541 2224.196227 1359.198318 2227.051449 
C 1356.343096 2229.906672 1354.738823 2233.779728 1354.738823 2237.817622 
C 1354.738823 2241.855517 1356.343096 2245.728573 1359.198318 2248.583795 
C 1362.053541 2251.439018 1365.926597 2253.04329 1369.964491 2253.04329 
z
" clip-path="url(#p18ff3eb65f)" style="fill: #ff0000; stroke: #ff0000; stroke-linejoin: miter"/>
   </g>
   <g id="patch_33">
    <path d="M 1451.168053 2253.04329 
C 1455.205947 2253.04329 1459.079004 2251.439018 1461.934226 2248.583795 
C 1464.789449 2245.728573 1466.393721 2241.855517 1466.393721 2237.817622 
C 1466.393721 2233.779728 1464.789449 2229.906672 1461.934226 2227.051449 
C 1459.079004 2224.196227 1455.205947 2222.591954 1451.168053 2222.591954 
C 1447.130159 2222.591954 1443.257103 2224.196227 1440.40188 2227.051449 
C 1437.546658 2229.906672 1435.942385 2233.779728 1435.942385 2237.817622 
C 1435.942385 2241.855517 1437.546658 2245.728573 1440.40188 2248.583795 
C 1443.257103 2251.439018 1447.130159 2253.04329 1451.168053 2253.04329 
z
" clip-path="url(#p18ff3eb65f)" style="stroke: #000000; stroke-linejoin: miter"/>
   </g>
   <g id="patch_34">
    <path d="M 1532.371615 2253.04329 
C 1536.409509 2253.04329 1540.282566 2251.439018 1543.137788 2248.583795 
C 1545.99301 2245.728573 1547.597283 2241.855517 1547.597283 2237.817622 
C 1547.597283 2233.779728 1545.99301 2229.906672 1543.137788 2227.051449 
C 1540.282566 2224.196227 1536.409509 2222.591954 1532.371615 2222.591954 
C 1528.333721 2222.591954 1524.460664 2224.196227 1521.605442 2227.051449 
C 1518.75022 2229.906672 1517.145947 2233.779728 1517.145947 2237.817622 
C 1517.145947 2241.855517 1518.75022 2245.728573 1521.605442 2248.583795 
C 1524.460664 2251.439018 1528.333721 2253.04329 1532.371615 2253.04329 
z
" clip-path="url(#p18ff3eb65f)" style="stroke: #000000; stroke-linejoin: miter"/>
   </g>
   <g id="patch_35">
    <path d="M 1613.575177 2253.04329 
C 1617.613071 2253.04329 1621.486127 2251.439018 1624.34135 2248.583795 
C 1627.196572 2245.728573 1628.800845 2241.855517 1628.800845 2237.817622 
C 1628.800845 2233.779728 1627.196572 2229.906672 1624.34135 2227.051449 
C 1621.486127 2224.196227 1617.613071 2222.591954 1613.575177 2222.591954 
C 1609.537283 2222.591954 1605.664226 2224.196227 1602.809004 2227.051449 
C 1599.953781 2229.906672 1598.349509 2233.779728 1598.349509 2237.817622 
C 1598.349509 2241.855517 1599.953781 2245.728573 1602.809004 2248.583795 
C 1605.664226 2251.439018 1609.537283 2253.04329 1613.575177 2253.04329 
z
" clip-path="url(#p18ff3eb65f)" style="stroke: #000000; stroke-linejoin: miter"/>
   </g>
   <g id="patch_36">
    <path d="M 1694.778739 2253.04329 
C 1698.816633 2253.04329 1702.689689 2251.439018 1705.544912 2248.583795 
C 1708.400134 2245.728573 1710.004407 2241.855517 1710.004407 2237.817622 
C 1710.004407 2233.779728 1708.400134 2229.906672 1705.544912 2227.051449 
C 1702.689689 2224.196227 1698.816633 2222.591954 1694.778739 2222.591954 
C 1690.740845 2222.591954 1686.867788 2224.196227 1684.012566 2227.051449 
C 1681.157343 2229.906672 1679.553071 2233.779728 1679.553071 2237.817622 
C 1679.553071 2241.855517 1681.157343 2245.728573 1684.012566 2248.583795 
C 1686.867788 2251.439018 1690.740845 2253.04329 1694.778739 2253.04329 
z
" clip-path="url(#p18ff3eb65f)" style="stroke: #000000; stroke-linejoin: miter"/>
   </g>
   <g id="patch_37">
    <path d="M 1775.982301 2253.04329 
C 1780.020195 2253.04329 1783.893251 2251.439018 1786.748474 2248.583795 
C 1789.603696 2245.728573 1791.207969 2241.855517 1791.207969 2237.817622 
C 1791.207969 2233.779728 1789.603696 2229.906672 1786.748474 2227.051449 
C 1783.893251 2224.196227 1780.020195 2222.591954 1775.982301 2222.591954 
C 1771.944406 2222.591954 1768.07135 2224.196227 1765.216128 2227.051449 
C 1762.360905 2229.906672 1760.756633 2233.779728 1760.756633 2237.817622 
C 1760.756633 2241.855517 1762.360905 2245.728573 1765.216128 2248.583795 
C 1768.07135 2251.439018 1771.944406 2253.04329 1775.982301 2253.04329 
z
" clip-path="url(#p18ff3eb65f)" style="stroke: #000000; stroke-linejoin: miter"/>
   </g>
   <g id="patch_38">
    <path d="M 1857.185863 2963.574457 
C 1861.223757 2963.574457 1865.096813 2961.970185 1867.952036 2959.114962 
C 1870.807258 2956.25974 1872.411531 2952.386683 1872.411531 2948.348789 
C 1872.411531 2944.310895 1870.807258 2940.437839 1867.952036 2937.582616 
C 1865.096813 2934.727394 1861.223757 2933.123121 1857.185863 2933.123121 
C 1853.147968 2933.123121 1849.274912 2934.727394 1846.41969 2937.582616 
C 1843.564467 2940.437839 1841.960195 2944.310895 1841.960195 2948.348789 
C 1841.960195 2952.386683 1843.564467 2956.25974 1846.41969 2959.114962 
C 1849.274912 2961.970185 1853.147968 2963.574457 1857.185863 2963.574457 
z
" clip-path="url(#p18ff3eb65f)" style="stroke: #000000; stroke-linejoin: miter"/>
   </g>
   <g id="patch_39">
    <path d="M 1938.389425 2963.574457 
C 1942.427319 2963.574457 1946.300375 2961.970185 1949.155598 2959.114962 
C 1952.01082 2956.25974 1953.615092 2952.386683 1953.615092 2948.348789 
C 1953.615092 2944.310895 1952.01082 2940.437839 1949.155598 2937.582616 
C 1946.300375 2934.727394 1942.427319 2933.123121 1938.389425 2933.123121 
C 1934.35153 2933.123121 1930.478474 2934.727394 1927.623252 2937.582616 
C 1924.768029 2940.437839 1923.163757 2944.310895 1923.163757 2948.348789 
C 1923.163757 2952.386683 1924.768029 2956.25974 1927.623252 2959.114962 
C 1930.478474 2961.970185 1934.35153 2963.574457 1938.389425 2963.574457 
z
" clip-path="url(#p18ff3eb65f)" style="stroke: #000000; stroke-linejoin: miter"/>
   </g>
   <g id="patch_40">
    <path d="M 2019.592987 2253.04329 
C 2023.630881 2253.04329 2027.503937 2251.439018 2030.35916 2248.583795 
C 2033.214382 2245.728573 2034.818654 2241.855517 2034.818654 2237.817622 
C 2034.818654 2233.779728 2033.214382 2229.906672 2030.35916 2227.051449 
C 2027.503937 2224.196227 2023.630881 2222.591954 2019.592987 2222.591954 
C 2015.555092 2222.591954 2011.682036 2224.196227 2008.826814 2227.051449 
C 2005.971591 2229.906672 2004.367319 2233.779728 2004.367319 2237.817622 
C 2004.367319 2241.855517 2005.971591 2245.728573 2008.826814 2248.583795 
C 2011.682036 2251.439018 2015.555092 2253.04329 2019.592987 2253.04329 
z
" clip-path="url(#p18ff3eb65f)" style="fill: #ff0000; stroke: #ff0000; stroke-linejoin: miter"/>
   </g>
   <g id="patch_41">
    <path d="M 2100.796548 2253.04329 
C 2104.834443 2253.04329 2108.707499 2251.439018 2111.562721 2248.583795 
C 2114.417944 2245.728573 2116.022216 2241.855517 2116.022216 2237.817622 
C 2116.022216 2233.779728 2114.417944 2229.906672 2111.562721 2227.051449 
C 2108.707499 2224.196227 2104.834443 2222.591954 2100.796548 2222.591954 
C 2096.758654 2222.591954 2092.885598 2224.196227 2090.030375 2227.051449 
C 2087.175153 2229.906672 2085.570881 2233.779728 2085.570881 2237.817622 
C 2085.570881 2241.855517 2087.175153 2245.728573 2090.030375 2248.583795 
C 2092.885598 2251.439018 2096.758654 2253.04329 2100.796548 2253.04329 
z
" clip-path="url(#p18ff3eb65f)" style="fill: #ff0000; stroke: #ff0000; stroke-linejoin: miter"/>
   </g>
   <g id="patch_42">
    <path d="M 2182.00011 2253.04329 
C 2186.038005 2253.04329 2189.911061 2251.439018 2192.766283 2248.583795 
C 2195.621506 2245.728573 2197.225778 2241.855517 2197.225778 2237.817622 
C 2197.225778 2233.779728 2195.621506 2229.906672 2192.766283 2227.051449 
C 2189.911061 2224.196227 2186.038005 2222.591954 2182.00011 2222.591954 
C 2177.962216 2222.591954 2174.08916 2224.196227 2171.233937 2227.051449 
C 2168.378715 2229.906672 2166.774442 2233.779728 2166.774442 2237.817622 
C 2166.774442 2241.855517 2168.378715 2245.728573 2171.233937 2248.583795 
C 2174.08916 2251.439018 2177.962216 2253.04329 2182.00011 2253.04329 
z
" clip-path="url(#p18ff3eb65f)" style="stroke: #000000; stroke-linejoin: miter"/>
   </g>
   <g id="patch_43">
    <path d="M 2263.203672 2253.04329 
C 2267.241567 2253.04329 2271.114623 2251.439018 2273.969845 2248.583795 
C 2276.825068 2245.728573 2278.42934 2241.855517 2278.42934 2237.817622 
C 2278.42934 2233.779728 2276.825068 2229.906672 2273.969845 2227.051449 
C 2271.114623 2224.196227 2267.241567 2222.591954 2263.203672 2222.591954 
C 2259.165778 2222.591954 2255.292722 2224.196227 2252.437499 2227.051449 
C 2249.582277 2229.906672 2247.978004 2233.779728 2247.978004 2237.817622 
C 2247.978004 2241.855517 2249.582277 2245.728573 2252.437499 2248.583795 
C 2255.292722 2251.439018 2259.165778 2253.04329 2263.203672 2253.04329 
z
" clip-path="url(#p18ff3eb65f)" style="stroke: #000000; stroke-linejoin: miter"/>
   </g>
   <g id="patch_44">
    <path d="M 2344.407234 2253.04329 
C 2348.445128 2253.04329 2352.318185 2251.439018 2355.173407 2248.583795 
C 2358.02863 2245.728573 2359.632902 2241.855517 2359.632902 2237.817622 
C 2359.632902 2233.779728 2358.02863 2229.906672 2355.173407 2227.051449 
C 2352.318185 2224.196227 2348.445128 2222.591954 2344.407234 2222.591954 
C 2340.36934 2222.591954 2336.496284 2224.196227 2333.641061 2227.051449 
C 2330.785839 2229.906672 2329.181566 2233.779728 2329.181566 2237.817622 
C 2329.181566 2241.855517 2330.785839 2245.728573 2333.641061 2248.583795 
C 2336.496284 2251.439018 2340.36934 2253.04329 2344.407234 2253.04329 
z
" clip-path="url(#p18ff3eb65f)" style="stroke: #000000; stroke-linejoin: miter"/>
   </g>
   <g id="patch_45">
    <path d="M 2425.610796 2963.574457 
C 2429.64869 2963.574457 2433.521747 2961.970185 2436.376969 2959.114962 
C 2439.232192 2956.25974 2440.836464 2952.386683 2440.836464 2948.348789 
C 2440.836464 2944.310895 2439.232192 2940.437839 2436.376969 2937.582616 
C 2433.521747 2934.727394 2429.64869 2933.123121 2425.610796 2933.123121 
C 2421.572902 2933.123121 2417.699846 2934.727394 2414.844623 2937.582616 
C 2411.989401 2940.437839 2410.385128 2944.310895 2410.385128 2948.348789 
C 2410.385128 2952.386683 2411.989401 2956.25974 2414.844623 2959.114962 
C 2417.699846 2961.970185 2421.572902 2963.574457 2425.610796 2963.574457 
z
" clip-path="url(#p18ff3eb65f)" style="stroke: #000000; stroke-linejoin: miter"/>
   </g>
   <g id="patch_46">
    <path d="M 2506.814358 2253.04329 
C 2510.852252 2253.04329 2514.725309 2251.439018 2517.580531 2248.583795 
C 2520.435753 2245.728573 2522.040026 2241.855517 2522.040026 2237.817622 
C 2522.040026 2233.779728 2520.435753 2229.906672 2517.580531 2227.051449 
C 2514.725309 2224.196227 2510.852252 2222.591954 2506.814358 2222.591954 
C 2502.776464 2222.591954 2498.903407 2224.196227 2496.048185 2227.051449 
C 2493.192963 2229.906672 2491.58869 2233.779728 2491.58869 2237.817622 
C 2491.58869 2241.855517 2493.192963 2245.728573 2496.048185 2248.583795 
C 2498.903407 2251.439018 2502.776464 2253.04329 2506.814358 2253.04329 
z
" clip-path="url(#p18ff3eb65f)" style="fill: #ff0000; stroke: #ff0000; stroke-linejoin: miter"/>
   </g>
   <g id="patch_47">
    <path d="M 2588.01792 2253.04329 
C 2592.055814 2253.04329 2595.92887 2251.439018 2598.784093 2248.583795 
C 2601.639315 2245.728573 2603.243588 2241.855517 2603.243588 2237.817622 
C 2603.243588 2233.779728 2601.639315 2229.906672 2598.784093 2227.051449 
C 2595.92887 2224.196227 2592.055814 2222.591954 2588.01792 2222.591954 
C 2583.980026 2222.591954 2580.106969 2224.196227 2577.251747 2227.051449 
C 2574.396524 2229.906672 2572.792252 2233.779728 2572.792252 2237.817622 
C 2572.792252 2241.855517 2574.396524 2245.728573 2577.251747 2248.583795 
C 2580.106969 2251.439018 2583.980026 2253.04329 2588.01792 2253.04329 
z
" clip-path="url(#p18ff3eb65f)" style="stroke: #000000; stroke-linejoin: miter"/>
   </g>
   <g id="patch_48">
    <path d="M 2669.221482 2253.04329 
C 2673.259376 2253.04329 2677.132432 2251.439018 2679.987655 2248.583795 
C 2682.842877 2245.728573 2684.44715 2241.855517 2684.44715 2237.817622 
C 2684.44715 2233.779728 2682.842877 2229.906672 2679.987655 2227.051449 
C 2677.132432 2224.196227 2673.259376 2222.591954 2669.221482 2222.591954 
C 2665.183588 2222.591954 2661.310531 2224.196227 2658.455309 2227.051449 
C 2655.600086 2229.906672 2653.995814 2233.779728 2653.995814 2237.817622 
C 2653.995814 2241.855517 2655.600086 2245.728573 2658.455309 2248.583795 
C 2661.310531 2251.439018 2665.183588 2253.04329 2669.221482 2253.04329 
z
" clip-path="url(#p18ff3eb65f)" style="stroke: #000000; stroke-linejoin: miter"/>
   </g>
   <g id="patch_49">
    <path d="M 2750.425044 2253.04329 
C 2754.462938 2253.04329 2758.335994 2251.439018 2761.191217 2248.583795 
C 2764.046439 2245.728573 2765.650712 2241.855517 2765.650712 2237.817622 
C 2765.650712 2233.779728 2764.046439 2229.906672 2761.191217 2227.051449 
C 2758.335994 2224.196227 2754.462938 2222.591954 2750.425044 2222.591954 
C 2746.387149 2222.591954 2742.514093 2224.196227 2739.658871 2227.051449 
C 2736.803648 2229.906672 2735.199376 2233.779728 2735.199376 2237.817622 
C 2735.199376 2241.855517 2736.803648 2245.728573 2739.658871 2248.583795 
C 2742.514093 2251.439018 2746.387149 2253.04329 2750.425044 2253.04329 
z
" clip-path="url(#p18ff3eb65f)" style="stroke: #000000; stroke-linejoin: miter"/>
   </g>
   <g id="patch_50">
    <path d="M 2831.628606 2253.04329 
C 2835.6665 2253.04329 2839.539556 2251.439018 2842.394779 2248.583795 
C 2845.250001 2245.728573 2846.854274 2241.855517 2846.854274 2237.817622 
C 2846.854274 2233.779728 2845.250001 2229.906672 2842.394779 2227.051449 
C 2839.539556 2224.196227 2835.6665 2222.591954 2831.628606 2222.591954 
C 2827.590711 2222.591954 2823.717655 2224.196227 2820.862433 2227.051449 
C 2818.00721 2229.906672 2816.402938 2233.779728 2816.402938 2237.817622 
C 2816.402938 2241.855517 2818.00721 2245.728573 2820.862433 2248.583795 
C 2823.717655 2251.439018 2827.590711 2253.04329 2831.628606 2253.04329 
z
" clip-path="url(#p18ff3eb65f)" style="stroke: #000000; stroke-linejoin: miter"/>
   </g>
   <g id="patch_51">
    <path d="M 2912.832168 2253.04329 
C 2916.870062 2253.04329 2920.743118 2251.439018 2923.598341 2248.583795 
C 2926.453563 2245.728573 2928.057835 2241.855517 2928.057835 2237.817622 
C 2928.057835 2233.779728 2926.453563 2229.906672 2923.598341 2227.051449 
C 2920.743118 2224.196227 2916.870062 2222.591954 2912.832168 2222.591954 
C 2908.794273 2222.591954 2904.921217 2224.196227 2902.065995 2227.051449 
C 2899.210772 2229.906672 2897.6065 2233.779728 2897.6065 2237.817622 
C 2897.6065 2241.855517 2899.210772 2245.728573 2902.065995 2248.583795 
C 2904.921217 2251.439018 2908.794273 2253.04329 2912.832168 2253.04329 
z
" clip-path="url(#p18ff3eb65f)" style="stroke: #000000; stroke-linejoin: miter"/>
   </g>
   <g id="patch_52">
    <path d="M 2994.03573 2963.574457 
C 2998.073624 2963.574457 3001.94668 2961.970185 3004.801902 2959.114962 
C 3007.657125 2956.25974 3009.261397 2952.386683 3009.261397 2948.348789 
C 3009.261397 2944.310895 3007.657125 2940.437839 3004.801902 2937.582616 
C 3001.94668 2934.727394 2998.073624 2933.123121 2994.03573 2933.123121 
C 2989.997835 2933.123121 2986.124779 2934.727394 2983.269557 2937.582616 
C 2980.414334 2940.437839 2978.810062 2944.310895 2978.810062 2948.348789 
C 2978.810062 2952.386683 2980.414334 2956.25974 2983.269557 2959.114962 
C 2986.124779 2961.970185 2989.997835 2963.574457 2994.03573 2963.574457 
z
" clip-path="url(#p18ff3eb65f)" style="stroke: #000000; stroke-linejoin: miter"/>
   </g>
   <g id="patch_53">
    <path d="M 3075.239291 2963.574457 
C 3079.277186 2963.574457 3083.150242 2961.970185 3086.005464 2959.114962 
C 3088.860687 2956.25974 3090.464959 2952.386683 3090.464959 2948.348789 
C 3090.464959 2944.310895 3088.860687 2940.437839 3086.005464 2937.582616 
C 3083.150242 2934.727394 3079.277186 2933.123121 3075.239291 2933.123121 
C 3071.201397 2933.123121 3067.328341 2934.727394 3064.473118 2937.582616 
C 3061.617896 2940.437839 3060.013624 2944.310895 3060.013624 2948.348789 
C 3060.013624 2952.386683 3061.617896 2956.25974 3064.473118 2959.114962 
C 3067.328341 2961.970185 3071.201397 2963.574457 3075.239291 2963.574457 
z
" clip-path="url(#p18ff3eb65f)" style="stroke: #000000; stroke-linejoin: miter"/>
   </g>
   <g id="patch_54">
    <path d="M 3156.442853 2253.04329 
C 3160.480748 2253.04329 3164.353804 2251.439018 3167.209026 2248.583795 
C 3170.064249 2245.728573 3171.668521 2241.855517 3171.668521 2237.817622 
C 3171.668521 2233.779728 3170.064249 2229.906672 3167.209026 2227.051449 
C 3164.353804 2224.196227 3160.480748 2222.591954 3156.442853 2222.591954 
C 3152.404959 2222.591954 3148.531903 2224.196227 3145.67668 2227.051449 
C 3142.821458 2229.906672 3141.217185 2233.779728 3141.217185 2237.817622 
C 3141.217185 2241.855517 3142.821458 2245.728573 3145.67668 2248.583795 
C 3148.531903 2251.439018 3152.404959 2253.04329 3156.442853 2253.04329 
z
" clip-path="url(#p18ff3eb65f)" style="fill: #ff0000; stroke: #ff0000; stroke-linejoin: miter"/>
   </g>
   <g id="patch_55">
    <path d="M 3237.646415 2253.04329 
C 3241.68431 2253.04329 3245.557366 2251.439018 3248.412588 2248.583795 
C 3251.267811 2245.728573 3252.872083 2241.855517 3252.872083 2237.817622 
C 3252.872083 2233.779728 3251.267811 2229.906672 3248.412588 2227.051449 
C 3245.557366 2224.196227 3241.68431 2222.591954 3237.646415 2222.591954 
C 3233.608521 2222.591954 3229.735465 2224.196227 3226.880242 2227.051449 
C 3224.02502 2229.906672 3222.420747 2233.779728 3222.420747 2237.817622 
C 3222.420747 2241.855517 3224.02502 2245.728573 3226.880242 2248.583795 
C 3229.735465 2251.439018 3233.608521 2253.04329 3237.646415 2253.04329 
z
" clip-path="url(#p18ff3eb65f)" style="stroke: #000000; stroke-linejoin: miter"/>
   </g>
   <g id="patch_56">
    <path d="M 3318.849977 2253.04329 
C 3322.887871 2253.04329 3326.760928 2251.439018 3329.61615 2248.583795 
C 3332.471373 2245.728573 3334.075645 2241.855517 3334.075645 2237.817622 
C 3334.075645 2233.779728 3332.471373 2229.906672 3329.61615 2227.051449 
C 3326.760928 2224.196227 3322.887871 2222.591954 3318.849977 2222.591954 
C 3314.812083 2222.591954 3310.939027 2224.196227 3308.083804 2227.051449 
C 3305.228582 2229.906672 3303.624309 2233.779728 3303.624309 2237.817622 
C 3303.624309 2241.855517 3305.228582 2245.728573 3308.083804 2248.583795 
C 3310.939027 2251.439018 3314.812083 2253.04329 3318.849977 2253.04329 
z
" clip-path="url(#p18ff3eb65f)" style="stroke: #000000; stroke-linejoin: miter"/>
   </g>
   <g id="patch_57">
    <path d="M 3400.053539 2963.574457 
C 3404.091433 2963.574457 3407.96449 2961.970185 3410.819712 2959.114962 
C 3413.674935 2956.25974 3415.279207 2952.386683 3415.279207 2948.348789 
C 3415.279207 2944.310895 3413.674935 2940.437839 3410.819712 2937.582616 
C 3407.96449 2934.727394 3404.091433 2933.123121 3400.053539 2933.123121 
C 3396.015645 2933.123121 3392.142589 2934.727394 3389.287366 2937.582616 
C 3386.432144 2940.437839 3384.827871 2944.310895 3384.827871 2948.348789 
C 3384.827871 2952.386683 3386.432144 2956.25974 3389.287366 2959.114962 
C 3392.142589 2961.970185 3396.015645 2963.574457 3400.053539 2963.574457 
z
" clip-path="url(#p18ff3eb65f)" style="stroke: #000000; stroke-linejoin: miter"/>
   </g>
   <g id="patch_58">
    <path d="M 3481.257101 2253.04329 
C 3485.294995 2253.04329 3489.168052 2251.439018 3492.023274 2248.583795 
C 3494.878496 2245.728573 3496.482769 2241.855517 3496.482769 2237.817622 
C 3496.482769 2233.779728 3494.878496 2229.906672 3492.023274 2227.051449 
C 3489.168052 2224.196227 3485.294995 2222.591954 3481.257101 2222.591954 
C 3477.219207 2222.591954 3473.34615 2224.196227 3470.490928 2227.051449 
C 3467.635706 2229.906672 3466.031433 2233.779728 3466.031433 2237.817622 
C 3466.031433 2241.855517 3467.635706 2245.728573 3470.490928 2248.583795 
C 3473.34615 2251.439018 3477.219207 2253.04329 3481.257101 2253.04329 
z
" clip-path="url(#p18ff3eb65f)" style="fill: #ff0000; stroke: #ff0000; stroke-linejoin: miter"/>
   </g>
   <g id="patch_59">
    <path d="M 3562.460663 2963.574457 
C 3566.498557 2963.574457 3570.371613 2961.970185 3573.226836 2959.114962 
C 3576.082058 2956.25974 3577.686331 2952.386683 3577.686331 2948.348789 
C 3577.686331 2944.310895 3576.082058 2940.437839 3573.226836 2937.582616 
C 3570.371613 2934.727394 3566.498557 2933.123121 3562.460663 2933.123121 
C 3558.422769 2933.123121 3554.549712 2934.727394 3551.69449 2937.582616 
C 3548.839267 2940.437839 3547.234995 2944.310895 3547.234995 2948.348789 
C 3547.234995 2952.386683 3548.839267 2956.25974 3551.69449 2959.114962 
C 3554.549712 2961.970185 3558.422769 2963.574457 3562.460663 2963.574457 
z
" clip-path="url(#p18ff3eb65f)" style="stroke: #000000; stroke-linejoin: miter"/>
   </g>
   <g id="patch_60">
    <path d="M 3643.664225 2963.574457 
C 3647.702119 2963.574457 3651.575175 2961.970185 3654.430398 2959.114962 
C 3657.28562 2956.25974 3658.889893 2952.386683 3658.889893 2948.348789 
C 3658.889893 2944.310895 3657.28562 2940.437839 3654.430398 2937.582616 
C 3651.575175 2934.727394 3647.702119 2933.123121 3643.664225 2933.123121 
C 3639.626331 2933.123121 3635.753274 2934.727394 3632.898052 2937.582616 
C 3630.042829 2940.437839 3628.438557 2944.310895 3628.438557 2948.348789 
C 3628.438557 2952.386683 3630.042829 2956.25974 3632.898052 2959.114962 
C 3635.753274 2961.970185 3639.626331 2963.574457 3643.664225 2963.574457 
z
" clip-path="url(#p18ff3eb65f)" style="stroke: #000000; stroke-linejoin: miter"/>
   </g>
   <g id="patch_61">
    <path d="M 3724.867787 2963.574457 
C 3728.905681 2963.574457 3732.778737 2961.970185 3735.63396 2959.114962 
C 3738.489182 2956.25974 3740.093455 2952.386683 3740.093455 2948.348789 
C 3740.093455 2944.310895 3738.489182 2940.437839 3735.63396 2937.582616 
C 3732.778737 2934.727394 3728.905681 2933.123121 3724.867787 2933.123121 
C 3720.829892 2933.123121 3716.956836 2934.727394 3714.101614 2937.582616 
C 3711.246391 2940.437839 3709.642119 2944.310895 3709.642119 2948.348789 
C 3709.642119 2952.386683 3711.246391 2956.25974 3714.101614 2959.114962 
C 3716.956836 2961.970185 3720.829892 2963.574457 3724.867787 2963.574457 
z
" clip-path="url(#p18ff3eb65f)" style="stroke: #000000; stroke-linejoin: miter"/>
   </g>
   <g id="patch_62">
    <path d="M 3806.071349 2963.574457 
C 3810.109243 2963.574457 3813.982299 2961.970185 3816.837522 2959.114962 
C 3819.692744 2956.25974 3821.297017 2952.386683 3821.297017 2948.348789 
C 3821.297017 2944.310895 3819.692744 2940.437839 3816.837522 2937.582616 
C 3813.982299 2934.727394 3810.109243 2933.123121 3806.071349 2933.123121 
C 3802.033454 2933.123121 3798.160398 2934.727394 3795.305176 2937.582616 
C 3792.449953 2940.437839 3790.845681 2944.310895 3790.845681 2948.348789 
C 3790.845681 2952.386683 3792.449953 2956.25974 3795.305176 2959.114962 
C 3798.160398 2961.970185 3802.033454 2963.574457 3806.071349 2963.574457 
z
" clip-path="url(#p18ff3eb65f)" style="fill: #ff0000; stroke: #ff0000; stroke-linejoin: miter"/>
   </g>
   <g id="patch_63">
    <path d="M 3887.274911 2253.04329 
C 3891.312805 2253.04329 3895.185861 2251.439018 3898.041084 2248.583795 
C 3900.896306 2245.728573 3902.500578 2241.855517 3902.500578 2237.817622 
C 3902.500578 2233.779728 3900.896306 2229.906672 3898.041084 2227.051449 
C 3895.185861 2224.196227 3891.312805 2222.591954 3887.274911 2222.591954 
C 3883.237016 2222.591954 3879.36396 2224.196227 3876.508738 2227.051449 
C 3873.653515 2229.906672 3872.049243 2233.779728 3872.049243 2237.817622 
C 3872.049243 2241.855517 3873.653515 2245.728573 3876.508738 2248.583795 
C 3879.36396 2251.439018 3883.237016 2253.04329 3887.274911 2253.04329 
z
" clip-path="url(#p18ff3eb65f)" style="stroke: #000000; stroke-linejoin: miter"/>
   </g>
   <g id="patch_64">
    <path d="M 3968.478472 2253.04329 
C 3972.516367 2253.04329 3976.389423 2251.439018 3979.244645 2248.583795 
C 3982.099868 2245.728573 3983.70414 2241.855517 3983.70414 2237.817622 
C 3983.70414 2233.779728 3982.099868 2229.906672 3979.244645 2227.051449 
C 3976.389423 2224.196227 3972.516367 2222.591954 3968.478472 2222.591954 
C 3964.440578 2222.591954 3960.567522 2224.196227 3957.712299 2227.051449 
C 3954.857077 2229.906672 3953.252805 2233.779728 3953.252805 2237.817622 
C 3953.252805 2241.855517 3954.857077 2245.728573 3957.712299 2248.583795 
C 3960.567522 2251.439018 3964.440578 2253.04329 3968.478472 2253.04329 
z
" clip-path="url(#p18ff3eb65f)" style="stroke: #000000; stroke-linejoin: miter"/>
   </g>
   <g id="patch_65">
    <path d="M 4049.682034 2963.574457 
C 4053.719929 2963.574457 4057.592985 2961.970185 4060.448207 2959.114962 
C 4063.30343 2956.25974 4064.907702 2952.386683 4064.907702 2948.348789 
C 4064.907702 2944.310895 4063.30343 2940.437839 4060.448207 2937.582616 
C 4057.592985 2934.727394 4053.719929 2933.123121 4049.682034 2933.123121 
C 4045.64414 2933.123121 4041.771084 2934.727394 4038.915861 2937.582616 
C 4036.060639 2940.437839 4034.456367 2944.310895 4034.456367 2948.348789 
C 4034.456367 2952.386683 4036.060639 2956.25974 4038.915861 2959.114962 
C 4041.771084 2961.970185 4045.64414 2963.574457 4049.682034 2963.574457 
z
" clip-path="url(#p18ff3eb65f)" style="fill: #ff0000; stroke: #ff0000; stroke-linejoin: miter"/>
   </g>
   <g id="patch_66">
    <path d="M 4130.885596 2963.574457 
C 4134.923491 2963.574457 4138.796547 2961.970185 4141.651769 2959.114962 
C 4144.506992 2956.25974 4146.111264 2952.386683 4146.111264 2948.348789 
C 4146.111264 2944.310895 4144.506992 2940.437839 4141.651769 2937.582616 
C 4138.796547 2934.727394 4134.923491 2933.123121 4130.885596 2933.123121 
C 4126.847702 2933.123121 4122.974646 2934.727394 4120.119423 2937.582616 
C 4117.264201 2940.437839 4115.659928 2944.310895 4115.659928 2948.348789 
C 4115.659928 2952.386683 4117.264201 2956.25974 4120.119423 2959.114962 
C 4122.974646 2961.970185 4126.847702 2963.574457 4130.885596 2963.574457 
z
" clip-path="url(#p18ff3eb65f)" style="stroke: #000000; stroke-linejoin: miter"/>
   </g>
   <g id="patch_67">
    <path d="M 4212.089158 2963.574457 
C 4216.127053 2963.574457 4220.000109 2961.970185 4222.855331 2959.114962 
C 4225.710554 2956.25974 4227.314826 2952.386683 4227.314826 2948.348789 
C 4227.314826 2944.310895 4225.710554 2940.437839 4222.855331 2937.582616 
C 4220.000109 2934.727394 4216.127053 2933.123121 4212.089158 2933.123121 
C 4208.051264 2933.123121 4204.178208 2934.727394 4201.322985 2937.582616 
C 4198.467763 2940.437839 4196.86349 2944.310895 4196.86349 2948.348789 
C 4196.86349 2952.386683 4198.467763 2956.25974 4201.322985 2959.114962 
C 4204.178208 2961.970185 4208.051264 2963.574457 4212.089158 2963.574457 
z
" clip-path="url(#p18ff3eb65f)" style="stroke: #000000; stroke-linejoin: miter"/>
   </g>
   <g id="patch_68">
    <path d="M 4293.29272 2253.04329 
C 4297.330614 2253.04329 4301.203671 2251.439018 4304.058893 2248.583795 
C 4306.914116 2245.728573 4308.518388 2241.855517 4308.518388 2237.817622 
C 4308.518388 2233.779728 4306.914116 2229.906672 4304.058893 2227.051449 
C 4301.203671 2224.196227 4297.330614 2222.591954 4293.29272 2222.591954 
C 4289.254826 2222.591954 4285.38177 2224.196227 4282.526547 2227.051449 
C 4279.671325 2229.906672 4278.067052 2233.779728 4278.067052 2237.817622 
C 4278.067052 2241.855517 4279.671325 2245.728573 4282.526547 2248.583795 
C 4285.38177 2251.439018 4289.254826 2253.04329 4293.29272 2253.04329 
z
" clip-path="url(#p18ff3eb65f)" style="stroke: #000000; stroke-linejoin: miter"/>
   </g>
   <g id="patch_69">
    <path d="M 4374.496282 2253.04329 
C 4378.534176 2253.04329 4382.407233 2251.439018 4385.262455 2248.583795 
C 4388.117678 2245.728573 4389.72195 2241.855517 4389.72195 2237.817622 
C 4389.72195 2233.779728 4388.117678 2229.906672 4385.262455 2227.051449 
C 4382.407233 2224.196227 4378.534176 2222.591954 4374.496282 2222.591954 
C 4370.458388 2222.591954 4366.585332 2224.196227 4363.730109 2227.051449 
C 4360.874887 2229.906672 4359.270614 2233.779728 4359.270614 2237.817622 
C 4359.270614 2241.855517 4360.874887 2245.728573 4363.730109 2248.583795 
C 4366.585332 2251.439018 4370.458388 2253.04329 4374.496282 2253.04329 
z
" clip-path="url(#p18ff3eb65f)" style="stroke: #000000; stroke-linejoin: miter"/>
   </g>
   <g id="patch_70">
    <path d="M 4455.699844 2253.04329 
C 4459.737738 2253.04329 4463.610795 2251.439018 4466.466017 2248.583795 
C 4469.321239 2245.728573 4470.925512 2241.855517 4470.925512 2237.817622 
C 4470.925512 2233.779728 4469.321239 2229.906672 4466.466017 2227.051449 
C 4463.610795 2224.196227 4459.737738 2222.591954 4455.699844 2222.591954 
C 4451.66195 2222.591954 4447.788893 2224.196227 4444.933671 2227.051449 
C 4442.078449 2229.906672 4440.474176 2233.779728 4440.474176 2237.817622 
C 4440.474176 2241.855517 4442.078449 2245.728573 4444.933671 2248.583795 
C 4447.788893 2251.439018 4451.66195 2253.04329 4455.699844 2253.04329 
z
" clip-path="url(#p18ff3eb65f)" style="stroke: #000000; stroke-linejoin: miter"/>
   </g>
   <g id="patch_71">
    <path d="M 4536.903406 2963.574457 
C 4540.9413 2963.574457 4544.814356 2961.970185 4547.669579 2959.114962 
C 4550.524801 2956.25974 4552.129074 2952.386683 4552.129074 2948.348789 
C 4552.129074 2944.310895 4550.524801 2940.437839 4547.669579 2937.582616 
C 4544.814356 2934.727394 4540.9413 2933.123121 4536.903406 2933.123121 
C 4532.865512 2933.123121 4528.992455 2934.727394 4526.137233 2937.582616 
C 4523.28201 2940.437839 4521.677738 2944.310895 4521.677738 2948.348789 
C 4521.677738 2952.386683 4523.28201 2956.25974 4526.137233 2959.114962 
C 4528.992455 2961.970185 4532.865512 2963.574457 4536.903406 2963.574457 
z
" clip-path="url(#p18ff3eb65f)" style="stroke: #000000; stroke-linejoin: miter"/>
   </g>
   <g id="patch_72">
    <path d="M 4618.106968 2963.574457 
C 4622.144862 2963.574457 4626.017918 2961.970185 4628.873141 2959.114962 
C 4631.728363 2956.25974 4633.332636 2952.386683 4633.332636 2948.348789 
C 4633.332636 2944.310895 4631.728363 2940.437839 4628.873141 2937.582616 
C 4626.017918 2934.727394 4622.144862 2933.123121 4618.106968 2933.123121 
C 4614.069073 2933.123121 4610.196017 2934.727394 4607.340795 2937.582616 
C 4604.485572 2940.437839 4602.8813 2944.310895 4602.8813 2948.348789 
C 4602.8813 2952.386683 4604.485572 2956.25974 4607.340795 2959.114962 
C 4610.196017 2961.970185 4614.069073 2963.574457 4618.106968 2963.574457 
z
" clip-path="url(#p18ff3eb65f)" style="stroke: #000000; stroke-linejoin: miter"/>
   </g>
   <g id="patch_73">
    <path d="M 4699.31053 2963.574457 
C 4703.348424 2963.574457 4707.22148 2961.970185 4710.076703 2959.114962 
C 4712.931925 2956.25974 4714.536198 2952.386683 4714.536198 2948.348789 
C 4714.536198 2944.310895 4712.931925 2940.437839 4710.076703 2937.582616 
C 4707.22148 2934.727394 4703.348424 2933.123121 4699.31053 2933.123121 
C 4695.272635 2933.123121 4691.399579 2934.727394 4688.544357 2937.582616 
C 4685.689134 2940.437839 4684.084862 2944.310895 4684.084862 2948.348789 
C 4684.084862 2952.386683 4685.689134 2956.25974 4688.544357 2959.114962 
C 4691.399579 2961.970185 4695.272635 2963.574457 4699.31053 2963.574457 
z
" clip-path="url(#p18ff3eb65f)" style="stroke: #000000; stroke-linejoin: miter"/>
   </g>
   <g id="patch_74">
    <path d="M 4780.514092 2963.574457 
C 4784.551986 2963.574457 4788.425042 2961.970185 4791.280265 2959.114962 
C 4794.135487 2956.25974 4795.739759 2952.386683 4795.739759 2948.348789 
C 4795.739759 2944.310895 4794.135487 2940.437839 4791.280265 2937.582616 
C 4788.425042 2934.727394 4784.551986 2933.123121 4780.514092 2933.123121 
C 4776.476197 2933.123121 4772.603141 2934.727394 4769.747919 2937.582616 
C 4766.892696 2940.437839 4765.288424 2944.310895 4765.288424 2948.348789 
C 4765.288424 2952.386683 4766.892696 2956.25974 4769.747919 2959.114962 
C 4772.603141 2961.970185 4776.476197 2963.574457 4780.514092 2963.574457 
z
" clip-path="url(#p18ff3eb65f)" style="stroke: #000000; stroke-linejoin: miter"/>
   </g>
   <g id="matplotlib.axis_1">
    <g id="xtick_1">
     <g id="line2d_1">
      <defs>
       <path id="m093139dbda" d="M 0 0 
L 0 3.5 
" style="stroke: #000000; stroke-width: 0.8"/>
      </defs>
      <g>
       <use xlink:href="#m093139dbda" x="461.499642" y="3394.96838" style="stroke: #000000; stroke-width: 0.8"/>
      </g>
     </g>
     <g id="text_1">
      <!-- 8 -->
      <g transform="translate(442.412142 3377.561534) scale(0.6 -0.6)">
       <defs>
        <path id="DejaVuSans-38" d="M 2034 2216 
Q 1584 2216 1326 1975 
Q 1069 1734 1069 1313 
Q 1069 891 1326 650 
Q 1584 409 2034 409 
Q 2484 409 2743 651 
Q 3003 894 3003 1313 
Q 3003 1734 2745 1975 
Q 2488 2216 2034 2216 
z
M 1403 2484 
Q 997 2584 770 2862 
Q 544 3141 544 3541 
Q 544 4100 942 4425 
Q 1341 4750 2034 4750 
Q 2731 4750 3128 4425 
Q 3525 4100 3525 3541 
Q 3525 3141 3298 2862 
Q 3072 2584 2669 2484 
Q 3125 2378 3379 2068 
Q 3634 1759 3634 1313 
Q 3634 634 3220 271 
Q 2806 -91 2034 -91 
Q 1263 -91 848 271 
Q 434 634 434 1313 
Q 434 1759 690 2068 
Q 947 2378 1403 2484 
z
M 1172 3481 
Q 1172 3119 1398 2916 
Q 1625 2713 2034 2713 
Q 2441 2713 2670 2916 
Q 2900 3119 2900 3481 
Q 2900 3844 2670 4047 
Q 2441 4250 2034 4250 
Q 1625 4250 1398 4047 
Q 1172 3844 1172 3481 
z
" transform="scale(0.015625)"/>
       </defs>
       <use xlink:href="#DejaVuSans-38"/>
      </g>
     </g>
    </g>
    <g id="xtick_2">
     <g id="line2d_2">
      <g>
       <use xlink:href="#m093139dbda" x="867.517452" y="3394.96838" style="stroke: #000000; stroke-width: 0.8"/>
      </g>
     </g>
     <g id="text_2">
      <!-- 28 -->
      <g transform="translate(829.342452 3377.561534) scale(0.6 -0.6)">
       <defs>
        <path id="DejaVuSans-32" d="M 1228 531 
L 3431 531 
L 3431 0 
L 469 0 
L 469 531 
Q 828 903 1448 1529 
Q 2069 2156 2228 2338 
Q 2531 2678 2651 2914 
Q 2772 3150 2772 3378 
Q 2772 3750 2511 3984 
Q 2250 4219 1831 4219 
Q 1534 4219 1204 4116 
Q 875 4013 500 3803 
L 500 4441 
Q 881 4594 1212 4672 
Q 1544 4750 1819 4750 
Q 2544 4750 2975 4387 
Q 3406 4025 3406 3419 
Q 3406 3131 3298 2873 
Q 3191 2616 2906 2266 
Q 2828 2175 2409 1742 
Q 1991 1309 1228 531 
z
" transform="scale(0.015625)"/>
       </defs>
       <use xlink:href="#DejaVuSans-32"/>
       <use xlink:href="#DejaVuSans-38" x="63.623047"/>
      </g>
     </g>
    </g>
    <g id="xtick_3">
     <g id="line2d_3">
      <g>
       <use xlink:href="#m093139dbda" x="1192.3317" y="3394.96838" style="stroke: #000000; stroke-width: 0.8"/>
      </g>
     </g>
     <g id="text_3">
      <!-- 44 -->
      <g transform="translate(1154.1567 3377.561534) scale(0.6 -0.6)">
       <defs>
        <path id="DejaVuSans-34" d="M 2419 4116 
L 825 1625 
L 2419 1625 
L 2419 4116 
z
M 2253 4666 
L 3047 4666 
L 3047 1625 
L 3713 1625 
L 3713 1100 
L 3047 1100 
L 3047 0 
L 2419 0 
L 2419 1100 
L 313 1100 
L 313 1709 
L 2253 4666 
z
" transform="scale(0.015625)"/>
       </defs>
       <use xlink:href="#DejaVuSans-34"/>
       <use xlink:href="#DejaVuSans-34" x="63.623047"/>
      </g>
     </g>
    </g>
    <g id="xtick_4">
     <g id="line2d_4">
      <g>
       <use xlink:href="#m093139dbda" x="1435.942385" y="3394.96838" style="stroke: #000000; stroke-width: 0.8"/>
      </g>
     </g>
     <g id="text_4">
      <!-- 56 -->
      <g transform="translate(1397.767385 3377.561534) scale(0.6 -0.6)">
       <defs>
        <path id="DejaVuSans-35" d="M 691 4666 
L 3169 4666 
L 3169 4134 
L 1269 4134 
L 1269 2991 
Q 1406 3038 1543 3061 
Q 1681 3084 1819 3084 
Q 2600 3084 3056 2656 
Q 3513 2228 3513 1497 
Q 3513 744 3044 326 
Q 2575 -91 1722 -91 
Q 1428 -91 1123 -41 
Q 819 9 494 109 
L 494 744 
Q 775 591 1075 516 
Q 1375 441 1709 441 
Q 2250 441 2565 725 
Q 2881 1009 2881 1497 
Q 2881 1984 2565 2268 
Q 2250 2553 1709 2553 
Q 1456 2553 1204 2497 
Q 953 2441 691 2322 
L 691 4666 
z
" transform="scale(0.015625)"/>
        <path id="DejaVuSans-36" d="M 2113 2584 
Q 1688 2584 1439 2293 
Q 1191 2003 1191 1497 
Q 1191 994 1439 701 
Q 1688 409 2113 409 
Q 2538 409 2786 701 
Q 3034 994 3034 1497 
Q 3034 2003 2786 2293 
Q 2538 2584 2113 2584 
z
M 3366 4563 
L 3366 3988 
Q 3128 4100 2886 4159 
Q 2644 4219 2406 4219 
Q 1781 4219 1451 3797 
Q 1122 3375 1075 2522 
Q 1259 2794 1537 2939 
Q 1816 3084 2150 3084 
Q 2853 3084 3261 2657 
Q 3669 2231 3669 1497 
Q 3669 778 3244 343 
Q 2819 -91 2113 -91 
Q 1303 -91 875 529 
Q 447 1150 447 2328 
Q 447 3434 972 4092 
Q 1497 4750 2381 4750 
Q 2619 4750 2861 4703 
Q 3103 4656 3366 4563 
z
" transform="scale(0.015625)"/>
       </defs>
       <use xlink:href="#DejaVuSans-35"/>
       <use xlink:href="#DejaVuSans-36" x="63.623047"/>
      </g>
     </g>
    </g>
    <g id="xtick_5">
     <g id="line2d_5">
      <g>
       <use xlink:href="#m093139dbda" x="1841.960195" y="3394.96838" style="stroke: #000000; stroke-width: 0.8"/>
      </g>
     </g>
     <g id="text_5">
      <!-- 76 -->
      <g transform="translate(1803.785195 3377.561534) scale(0.6 -0.6)">
       <defs>
        <path id="DejaVuSans-37" d="M 525 4666 
L 3525 4666 
L 3525 4397 
L 1831 0 
L 1172 0 
L 2766 4134 
L 525 4134 
L 525 4666 
z
" transform="scale(0.015625)"/>
       </defs>
       <use xlink:href="#DejaVuSans-37"/>
       <use xlink:href="#DejaVuSans-36" x="63.623047"/>
      </g>
     </g>
    </g>
    <g id="xtick_6">
     <g id="line2d_6">
      <g>
       <use xlink:href="#m093139dbda" x="2166.774442" y="3394.96838" style="stroke: #000000; stroke-width: 0.8"/>
      </g>
     </g>
     <g id="text_6">
      <!-- 92 -->
      <g transform="translate(2128.599442 3377.561534) scale(0.6 -0.6)">
       <defs>
        <path id="DejaVuSans-39" d="M 703 97 
L 703 672 
Q 941 559 1184 500 
Q 1428 441 1663 441 
Q 2288 441 2617 861 
Q 2947 1281 2994 2138 
Q 2813 1869 2534 1725 
Q 2256 1581 1919 1581 
Q 1219 1581 811 2004 
Q 403 2428 403 3163 
Q 403 3881 828 4315 
Q 1253 4750 1959 4750 
Q 2769 4750 3195 4129 
Q 3622 3509 3622 2328 
Q 3622 1225 3098 567 
Q 2575 -91 1691 -91 
Q 1453 -91 1209 -44 
Q 966 3 703 97 
z
M 1959 2075 
Q 2384 2075 2632 2365 
Q 2881 2656 2881 3163 
Q 2881 3666 2632 3958 
Q 2384 4250 1959 4250 
Q 1534 4250 1286 3958 
Q 1038 3666 1038 3163 
Q 1038 2656 1286 2365 
Q 1534 2075 1959 2075 
z
" transform="scale(0.015625)"/>
       </defs>
       <use xlink:href="#DejaVuSans-39"/>
       <use xlink:href="#DejaVuSans-32" x="63.623047"/>
      </g>
     </g>
    </g>
    <g id="xtick_7">
     <g id="line2d_7">
      <g>
       <use xlink:href="#m093139dbda" x="2410.385128" y="3394.96838" style="stroke: #000000; stroke-width: 0.8"/>
      </g>
     </g>
     <g id="text_7">
      <!-- 104 -->
      <g transform="translate(2353.122628 3377.561534) scale(0.6 -0.6)">
       <defs>
        <path id="DejaVuSans-31" d="M 794 531 
L 1825 531 
L 1825 4091 
L 703 3866 
L 703 4441 
L 1819 4666 
L 2450 4666 
L 2450 531 
L 3481 531 
L 3481 0 
L 794 0 
L 794 531 
z
" transform="scale(0.015625)"/>
        <path id="DejaVuSans-30" d="M 2034 4250 
Q 1547 4250 1301 3770 
Q 1056 3291 1056 2328 
Q 1056 1369 1301 889 
Q 1547 409 2034 409 
Q 2525 409 2770 889 
Q 3016 1369 3016 2328 
Q 3016 3291 2770 3770 
Q 2525 4250 2034 4250 
z
M 2034 4750 
Q 2819 4750 3233 4129 
Q 3647 3509 3647 2328 
Q 3647 1150 3233 529 
Q 2819 -91 2034 -91 
Q 1250 -91 836 529 
Q 422 1150 422 2328 
Q 422 3509 836 4129 
Q 1250 4750 2034 4750 
z
" transform="scale(0.015625)"/>
       </defs>
       <use xlink:href="#DejaVuSans-31"/>
       <use xlink:href="#DejaVuSans-30" x="63.623047"/>
       <use xlink:href="#DejaVuSans-34" x="127.246094"/>
      </g>
     </g>
    </g>
    <g id="xtick_8">
     <g id="line2d_8">
      <g>
       <use xlink:href="#m093139dbda" x="2572.792252" y="3394.96838" style="stroke: #000000; stroke-width: 0.8"/>
      </g>
     </g>
     <g id="text_8">
      <!-- 112 -->
      <g transform="translate(2515.529752 3377.561534) scale(0.6 -0.6)">
       <use xlink:href="#DejaVuSans-31"/>
       <use xlink:href="#DejaVuSans-31" x="63.623047"/>
       <use xlink:href="#DejaVuSans-32" x="127.246094"/>
      </g>
     </g>
    </g>
    <g id="xtick_9">
     <g id="line2d_9">
      <g>
       <use xlink:href="#m093139dbda" x="2978.810062" y="3394.96838" style="stroke: #000000; stroke-width: 0.8"/>
      </g>
     </g>
     <g id="text_9">
      <!-- 132 -->
      <g transform="translate(2921.547562 3377.561534) scale(0.6 -0.6)">
       <defs>
        <path id="DejaVuSans-33" d="M 2597 2516 
Q 3050 2419 3304 2112 
Q 3559 1806 3559 1356 
Q 3559 666 3084 287 
Q 2609 -91 1734 -91 
Q 1441 -91 1130 -33 
Q 819 25 488 141 
L 488 750 
Q 750 597 1062 519 
Q 1375 441 1716 441 
Q 2309 441 2620 675 
Q 2931 909 2931 1356 
Q 2931 1769 2642 2001 
Q 2353 2234 1838 2234 
L 1294 2234 
L 1294 2753 
L 1863 2753 
Q 2328 2753 2575 2939 
Q 2822 3125 2822 3475 
Q 2822 3834 2567 4026 
Q 2313 4219 1838 4219 
Q 1578 4219 1281 4162 
Q 984 4106 628 3988 
L 628 4550 
Q 988 4650 1302 4700 
Q 1616 4750 1894 4750 
Q 2613 4750 3031 4423 
Q 3450 4097 3450 3541 
Q 3450 3153 3228 2886 
Q 3006 2619 2597 2516 
z
" transform="scale(0.015625)"/>
       </defs>
       <use xlink:href="#DejaVuSans-31"/>
       <use xlink:href="#DejaVuSans-33" x="63.623047"/>
       <use xlink:href="#DejaVuSans-32" x="127.246094"/>
      </g>
     </g>
    </g>
    <g id="xtick_10">
     <g id="line2d_10">
      <g>
       <use xlink:href="#m093139dbda" x="3222.420747" y="3394.96838" style="stroke: #000000; stroke-width: 0.8"/>
      </g>
     </g>
     <g id="text_10">
      <!-- 144 -->
      <g transform="translate(3165.158247 3377.561534) scale(0.6 -0.6)">
       <use xlink:href="#DejaVuSans-31"/>
       <use xlink:href="#DejaVuSans-34" x="63.623047"/>
       <use xlink:href="#DejaVuSans-34" x="127.246094"/>
      </g>
     </g>
    </g>
    <g id="xtick_11">
     <g id="line2d_11">
      <g>
       <use xlink:href="#m093139dbda" x="3384.827871" y="3394.96838" style="stroke: #000000; stroke-width: 0.8"/>
      </g>
     </g>
     <g id="text_11">
      <!-- 152 -->
      <g transform="translate(3327.565371 3377.561534) scale(0.6 -0.6)">
       <use xlink:href="#DejaVuSans-31"/>
       <use xlink:href="#DejaVuSans-35" x="63.623047"/>
       <use xlink:href="#DejaVuSans-32" x="127.246094"/>
      </g>
     </g>
    </g>
    <g id="xtick_12">
     <g id="line2d_12">
      <g>
       <use xlink:href="#m093139dbda" x="3790.845681" y="3394.96838" style="stroke: #000000; stroke-width: 0.8"/>
      </g>
     </g>
     <g id="text_12">
      <!-- 172 -->
      <g transform="translate(3733.583181 3377.561534) scale(0.6 -0.6)">
       <use xlink:href="#DejaVuSans-31"/>
       <use xlink:href="#DejaVuSans-37" x="63.623047"/>
       <use xlink:href="#DejaVuSans-32" x="127.246094"/>
      </g>
     </g>
    </g>
    <g id="xtick_13">
     <g id="line2d_13">
      <g>
       <use xlink:href="#m093139dbda" x="4115.659928" y="3394.96838" style="stroke: #000000; stroke-width: 0.8"/>
      </g>
     </g>
     <g id="text_13">
      <!-- 188 -->
      <g transform="translate(4058.397428 3377.561534) scale(0.6 -0.6)">
       <use xlink:href="#DejaVuSans-31"/>
       <use xlink:href="#DejaVuSans-38" x="63.623047"/>
       <use xlink:href="#DejaVuSans-38" x="127.246094"/>
      </g>
     </g>
    </g>
    <g id="xtick_14">
     <g id="line2d_14">
      <g>
       <use xlink:href="#m093139dbda" x="4278.067052" y="3394.96838" style="stroke: #000000; stroke-width: 0.8"/>
      </g>
     </g>
     <g id="text_14">
      <!-- 196 -->
      <g transform="translate(4220.804552 3377.561534) scale(0.6 -0.6)">
       <use xlink:href="#DejaVuSans-31"/>
       <use xlink:href="#DejaVuSans-39" x="63.623047"/>
       <use xlink:href="#DejaVuSans-36" x="127.246094"/>
      </g>
     </g>
    </g>
    <g id="xtick_15">
     <g id="line2d_15">
      <g>
       <use xlink:href="#m093139dbda" x="4521.677738" y="3394.96838" style="stroke: #000000; stroke-width: 0.8"/>
      </g>
     </g>
     <g id="text_15">
      <!-- 208 -->
      <g transform="translate(4464.415238 3377.561534) scale(0.6 -0.6)">
       <use xlink:href="#DejaVuSans-32"/>
       <use xlink:href="#DejaVuSans-30" x="63.623047"/>
       <use xlink:href="#DejaVuSans-38" x="127.246094"/>
      </g>
     </g>
    </g>
    <g id="xtick_16">
     <g id="line2d_16">
      <g>
       <use xlink:href="#m093139dbda" x="4846.491986" y="3394.96838" style="stroke: #000000; stroke-width: 0.8"/>
      </g>
     </g>
     <g id="text_16">
      <!-- 224 -->
      <g transform="translate(4789.229486 3377.561534) scale(0.6 -0.6)">
       <use xlink:href="#DejaVuSans-32"/>
       <use xlink:href="#DejaVuSans-32" x="63.623047"/>
       <use xlink:href="#DejaVuSans-34" x="127.246094"/>
      </g>
     </g>
    </g>
    <g id="text_17">
     <!-- Time(s) -->
     <g transform="translate(2460.35319 3448.059005) scale(0.6 -0.6)">
      <defs>
       <path id="DejaVuSans-54" d="M -19 4666 
L 3928 4666 
L 3928 4134 
L 2272 4134 
L 2272 0 
L 1638 0 
L 1638 4134 
L -19 4134 
L -19 4666 
z
" transform="scale(0.015625)"/>
       <path id="DejaVuSans-69" d="M 603 3500 
L 1178 3500 
L 1178 0 
L 603 0 
L 603 3500 
z
M 603 4863 
L 1178 4863 
L 1178 4134 
L 603 4134 
L 603 4863 
z
" transform="scale(0.015625)"/>
       <path id="DejaVuSans-6d" d="M 3328 2828 
Q 3544 3216 3844 3400 
Q 4144 3584 4550 3584 
Q 5097 3584 5394 3201 
Q 5691 2819 5691 2113 
L 5691 0 
L 5113 0 
L 5113 2094 
Q 5113 2597 4934 2840 
Q 4756 3084 4391 3084 
Q 3944 3084 3684 2787 
Q 3425 2491 3425 1978 
L 3425 0 
L 2847 0 
L 2847 2094 
Q 2847 2600 2669 2842 
Q 2491 3084 2119 3084 
Q 1678 3084 1418 2786 
Q 1159 2488 1159 1978 
L 1159 0 
L 581 0 
L 581 3500 
L 1159 3500 
L 1159 2956 
Q 1356 3278 1631 3431 
Q 1906 3584 2284 3584 
Q 2666 3584 2933 3390 
Q 3200 3197 3328 2828 
z
" transform="scale(0.015625)"/>
       <path id="DejaVuSans-65" d="M 3597 1894 
L 3597 1613 
L 953 1613 
Q 991 1019 1311 708 
Q 1631 397 2203 397 
Q 2534 397 2845 478 
Q 3156 559 3463 722 
L 3463 178 
Q 3153 47 2828 -22 
Q 2503 -91 2169 -91 
Q 1331 -91 842 396 
Q 353 884 353 1716 
Q 353 2575 817 3079 
Q 1281 3584 2069 3584 
Q 2775 3584 3186 3129 
Q 3597 2675 3597 1894 
z
M 3022 2063 
Q 3016 2534 2758 2815 
Q 2500 3097 2075 3097 
Q 1594 3097 1305 2825 
Q 1016 2553 972 2059 
L 3022 2063 
z
" transform="scale(0.015625)"/>
       <path id="DejaVuSans-28" d="M 1984 4856 
Q 1566 4138 1362 3434 
Q 1159 2731 1159 2009 
Q 1159 1288 1364 580 
Q 1569 -128 1984 -844 
L 1484 -844 
Q 1016 -109 783 600 
Q 550 1309 550 2009 
Q 550 2706 781 3412 
Q 1013 4119 1484 4856 
L 1984 4856 
z
" transform="scale(0.015625)"/>
       <path id="DejaVuSans-73" d="M 2834 3397 
L 2834 2853 
Q 2591 2978 2328 3040 
Q 2066 3103 1784 3103 
Q 1356 3103 1142 2972 
Q 928 2841 928 2578 
Q 928 2378 1081 2264 
Q 1234 2150 1697 2047 
L 1894 2003 
Q 2506 1872 2764 1633 
Q 3022 1394 3022 966 
Q 3022 478 2636 193 
Q 2250 -91 1575 -91 
Q 1294 -91 989 -36 
Q 684 19 347 128 
L 347 722 
Q 666 556 975 473 
Q 1284 391 1588 391 
Q 1994 391 2212 530 
Q 2431 669 2431 922 
Q 2431 1156 2273 1281 
Q 2116 1406 1581 1522 
L 1381 1569 
Q 847 1681 609 1914 
Q 372 2147 372 2553 
Q 372 3047 722 3315 
Q 1072 3584 1716 3584 
Q 2034 3584 2315 3537 
Q 2597 3491 2834 3397 
z
" transform="scale(0.015625)"/>
       <path id="DejaVuSans-29" d="M 513 4856 
L 1013 4856 
Q 1481 4119 1714 3412 
Q 1947 2706 1947 2009 
Q 1947 1309 1714 600 
Q 1481 -109 1013 -844 
L 513 -844 
Q 928 -128 1133 580 
Q 1338 1288 1338 2009 
Q 1338 2731 1133 3434 
Q 928 4138 513 4856 
z
" transform="scale(0.015625)"/>
      </defs>
      <use xlink:href="#DejaVuSans-54"/>
      <use xlink:href="#DejaVuSans-69" x="57.958984"/>
      <use xlink:href="#DejaVuSans-6d" x="85.742188"/>
      <use xlink:href="#DejaVuSans-65" x="183.154297"/>
      <use xlink:href="#DejaVuSans-28" x="244.677734"/>
      <use xlink:href="#DejaVuSans-73" x="283.691406"/>
      <use xlink:href="#DejaVuSans-29" x="335.791016"/>
     </g>
    </g>
   </g>
   <g id="text_18">
    <g id="patch_75">
     <path d="M -14.950543 2296.851997 
L 288.321332 2296.851997 
L 288.321332 2178.783247 
L -14.950543 2178.783247 
z
" style="fill: #ffffff; stroke: #000000; stroke-linejoin: miter"/>
    </g>
    <!-- Tongue -->
    <g transform="translate(15.049457 2253.905122) scale(0.6 -0.6)">
     <defs>
      <path id="DejaVuSans-Bold-54" d="M 31 4666 
L 4331 4666 
L 4331 3756 
L 2784 3756 
L 2784 0 
L 1581 0 
L 1581 3756 
L 31 3756 
L 31 4666 
z
" transform="scale(0.015625)"/>
      <path id="DejaVuSans-Bold-6f" d="M 2203 2784 
Q 1831 2784 1636 2517 
Q 1441 2250 1441 1747 
Q 1441 1244 1636 976 
Q 1831 709 2203 709 
Q 2569 709 2762 976 
Q 2956 1244 2956 1747 
Q 2956 2250 2762 2517 
Q 2569 2784 2203 2784 
z
M 2203 3584 
Q 3106 3584 3614 3096 
Q 4122 2609 4122 1747 
Q 4122 884 3614 396 
Q 3106 -91 2203 -91 
Q 1297 -91 786 396 
Q 275 884 275 1747 
Q 275 2609 786 3096 
Q 1297 3584 2203 3584 
z
" transform="scale(0.015625)"/>
      <path id="DejaVuSans-Bold-6e" d="M 4056 2131 
L 4056 0 
L 2931 0 
L 2931 347 
L 2931 1631 
Q 2931 2084 2911 2256 
Q 2891 2428 2841 2509 
Q 2775 2619 2662 2680 
Q 2550 2741 2406 2741 
Q 2056 2741 1856 2470 
Q 1656 2200 1656 1722 
L 1656 0 
L 538 0 
L 538 3500 
L 1656 3500 
L 1656 2988 
Q 1909 3294 2193 3439 
Q 2478 3584 2822 3584 
Q 3428 3584 3742 3212 
Q 4056 2841 4056 2131 
z
" transform="scale(0.015625)"/>
      <path id="DejaVuSans-Bold-67" d="M 2919 594 
Q 2688 288 2409 144 
Q 2131 0 1766 0 
Q 1125 0 706 504 
Q 288 1009 288 1791 
Q 288 2575 706 3076 
Q 1125 3578 1766 3578 
Q 2131 3578 2409 3434 
Q 2688 3291 2919 2981 
L 2919 3500 
L 4044 3500 
L 4044 353 
Q 4044 -491 3511 -936 
Q 2978 -1381 1966 -1381 
Q 1638 -1381 1331 -1331 
Q 1025 -1281 716 -1178 
L 716 -306 
Q 1009 -475 1290 -558 
Q 1572 -641 1856 -641 
Q 2406 -641 2662 -400 
Q 2919 -159 2919 353 
L 2919 594 
z
M 2181 2772 
Q 1834 2772 1640 2515 
Q 1447 2259 1447 1791 
Q 1447 1309 1634 1061 
Q 1822 813 2181 813 
Q 2531 813 2725 1069 
Q 2919 1325 2919 1791 
Q 2919 2259 2725 2515 
Q 2531 2772 2181 2772 
z
" transform="scale(0.015625)"/>
      <path id="DejaVuSans-Bold-75" d="M 500 1363 
L 500 3500 
L 1625 3500 
L 1625 3150 
Q 1625 2866 1622 2436 
Q 1619 2006 1619 1863 
Q 1619 1441 1641 1255 
Q 1663 1069 1716 984 
Q 1784 875 1895 815 
Q 2006 756 2150 756 
Q 2500 756 2700 1025 
Q 2900 1294 2900 1772 
L 2900 3500 
L 4019 3500 
L 4019 0 
L 2900 0 
L 2900 506 
Q 2647 200 2364 54 
Q 2081 -91 1741 -91 
Q 1134 -91 817 281 
Q 500 653 500 1363 
z
" transform="scale(0.015625)"/>
      <path id="DejaVuSans-Bold-65" d="M 4031 1759 
L 4031 1441 
L 1416 1441 
Q 1456 1047 1700 850 
Q 1944 653 2381 653 
Q 2734 653 3104 758 
Q 3475 863 3866 1075 
L 3866 213 
Q 3469 63 3072 -14 
Q 2675 -91 2278 -91 
Q 1328 -91 801 392 
Q 275 875 275 1747 
Q 275 2603 792 3093 
Q 1309 3584 2216 3584 
Q 3041 3584 3536 3087 
Q 4031 2591 4031 1759 
z
M 2881 2131 
Q 2881 2450 2695 2645 
Q 2509 2841 2209 2841 
Q 1884 2841 1681 2658 
Q 1478 2475 1428 2131 
L 2881 2131 
z
" transform="scale(0.015625)"/>
     </defs>
     <use xlink:href="#DejaVuSans-Bold-54"/>
     <use xlink:href="#DejaVuSans-Bold-6f" x="54.962891"/>
     <use xlink:href="#DejaVuSans-Bold-6e" x="123.664062"/>
     <use xlink:href="#DejaVuSans-Bold-67" x="194.855469"/>
     <use xlink:href="#DejaVuSans-Bold-75" x="266.4375"/>
     <use xlink:href="#DejaVuSans-Bold-65" x="337.628906"/>
    </g>
   </g>
   <g id="text_19">
    <g id="patch_76">
     <path d="M 31.043207 3007.383164 
L 242.327582 3007.383164 
L 242.327582 2889.314414 
L 31.043207 2889.314414 
z
" style="fill: #ffffff; stroke: #000000; stroke-linejoin: miter"/>
    </g>
    <!-- Rest -->
    <g transform="translate(61.043207 2964.905039) scale(0.6 -0.6)">
     <defs>
      <path id="DejaVuSans-Bold-52" d="M 2297 2597 
Q 2675 2597 2839 2737 
Q 3003 2878 3003 3200 
Q 3003 3519 2839 3656 
Q 2675 3794 2297 3794 
L 1791 3794 
L 1791 2597 
L 2297 2597 
z
M 1791 1766 
L 1791 0 
L 588 0 
L 588 4666 
L 2425 4666 
Q 3347 4666 3776 4356 
Q 4206 4047 4206 3378 
Q 4206 2916 3982 2619 
Q 3759 2322 3309 2181 
Q 3556 2125 3751 1926 
Q 3947 1728 4147 1325 
L 4800 0 
L 3519 0 
L 2950 1159 
Q 2778 1509 2601 1637 
Q 2425 1766 2131 1766 
L 1791 1766 
z
" transform="scale(0.015625)"/>
      <path id="DejaVuSans-Bold-73" d="M 3272 3391 
L 3272 2541 
Q 2913 2691 2578 2766 
Q 2244 2841 1947 2841 
Q 1628 2841 1473 2761 
Q 1319 2681 1319 2516 
Q 1319 2381 1436 2309 
Q 1553 2238 1856 2203 
L 2053 2175 
Q 2913 2066 3209 1816 
Q 3506 1566 3506 1031 
Q 3506 472 3093 190 
Q 2681 -91 1863 -91 
Q 1516 -91 1145 -36 
Q 775 19 384 128 
L 384 978 
Q 719 816 1070 734 
Q 1422 653 1784 653 
Q 2113 653 2278 743 
Q 2444 834 2444 1013 
Q 2444 1163 2330 1236 
Q 2216 1309 1875 1350 
L 1678 1375 
Q 931 1469 631 1722 
Q 331 1975 331 2491 
Q 331 3047 712 3315 
Q 1094 3584 1881 3584 
Q 2191 3584 2531 3537 
Q 2872 3491 3272 3391 
z
" transform="scale(0.015625)"/>
      <path id="DejaVuSans-Bold-74" d="M 1759 4494 
L 1759 3500 
L 2913 3500 
L 2913 2700 
L 1759 2700 
L 1759 1216 
Q 1759 972 1856 886 
Q 1953 800 2241 800 
L 2816 800 
L 2816 0 
L 1856 0 
Q 1194 0 917 276 
Q 641 553 641 1216 
L 641 2700 
L 84 2700 
L 84 3500 
L 641 3500 
L 641 4494 
L 1759 4494 
z
" transform="scale(0.015625)"/>
     </defs>
     <use xlink:href="#DejaVuSans-Bold-52"/>
     <use xlink:href="#DejaVuSans-Bold-65" x="77.001953"/>
     <use xlink:href="#DejaVuSans-Bold-73" x="144.824219"/>
     <use xlink:href="#DejaVuSans-Bold-74" x="204.345703"/>
    </g>
   </g>
   <g id="text_20">
    <!-- Activity Timeline For Rec Window,100% Shifting and XGB Classifier -->
    <g transform="translate(1059.954752 1627.76912) scale(0.8 -0.8)">
     <defs>
      <path id="DejaVuSans-Bold-41" d="M 3419 850 
L 1538 850 
L 1241 0 
L 31 0 
L 1759 4666 
L 3194 4666 
L 4922 0 
L 3713 0 
L 3419 850 
z
M 1838 1716 
L 3116 1716 
L 2478 3572 
L 1838 1716 
z
" transform="scale(0.015625)"/>
      <path id="DejaVuSans-Bold-63" d="M 3366 3391 
L 3366 2478 
Q 3138 2634 2908 2709 
Q 2678 2784 2431 2784 
Q 1963 2784 1702 2511 
Q 1441 2238 1441 1747 
Q 1441 1256 1702 982 
Q 1963 709 2431 709 
Q 2694 709 2930 787 
Q 3166 866 3366 1019 
L 3366 103 
Q 3103 6 2833 -42 
Q 2563 -91 2291 -91 
Q 1344 -91 809 395 
Q 275 881 275 1747 
Q 275 2613 809 3098 
Q 1344 3584 2291 3584 
Q 2566 3584 2833 3536 
Q 3100 3488 3366 3391 
z
" transform="scale(0.015625)"/>
      <path id="DejaVuSans-Bold-69" d="M 538 3500 
L 1656 3500 
L 1656 0 
L 538 0 
L 538 3500 
z
M 538 4863 
L 1656 4863 
L 1656 3950 
L 538 3950 
L 538 4863 
z
" transform="scale(0.015625)"/>
      <path id="DejaVuSans-Bold-76" d="M 97 3500 
L 1216 3500 
L 2088 1081 
L 2956 3500 
L 4078 3500 
L 2700 0 
L 1472 0 
L 97 3500 
z
" transform="scale(0.015625)"/>
      <path id="DejaVuSans-Bold-79" d="M 78 3500 
L 1197 3500 
L 2138 1125 
L 2938 3500 
L 4056 3500 
L 2584 -331 
Q 2363 -916 2067 -1148 
Q 1772 -1381 1288 -1381 
L 641 -1381 
L 641 -647 
L 991 -647 
Q 1275 -647 1404 -556 
Q 1534 -466 1606 -231 
L 1638 -134 
L 78 3500 
z
" transform="scale(0.015625)"/>
      <path id="DejaVuSans-Bold-20" transform="scale(0.015625)"/>
      <path id="DejaVuSans-Bold-6d" d="M 3781 2919 
Q 3994 3244 4286 3414 
Q 4578 3584 4928 3584 
Q 5531 3584 5847 3212 
Q 6163 2841 6163 2131 
L 6163 0 
L 5038 0 
L 5038 1825 
Q 5041 1866 5042 1909 
Q 5044 1953 5044 2034 
Q 5044 2406 4934 2573 
Q 4825 2741 4581 2741 
Q 4263 2741 4089 2478 
Q 3916 2216 3909 1719 
L 3909 0 
L 2784 0 
L 2784 1825 
Q 2784 2406 2684 2573 
Q 2584 2741 2328 2741 
Q 2006 2741 1831 2477 
Q 1656 2213 1656 1722 
L 1656 0 
L 531 0 
L 531 3500 
L 1656 3500 
L 1656 2988 
Q 1863 3284 2130 3434 
Q 2397 3584 2719 3584 
Q 3081 3584 3359 3409 
Q 3638 3234 3781 2919 
z
" transform="scale(0.015625)"/>
      <path id="DejaVuSans-Bold-6c" d="M 538 4863 
L 1656 4863 
L 1656 0 
L 538 0 
L 538 4863 
z
" transform="scale(0.015625)"/>
      <path id="DejaVuSans-Bold-46" d="M 588 4666 
L 3834 4666 
L 3834 3756 
L 1791 3756 
L 1791 2888 
L 3713 2888 
L 3713 1978 
L 1791 1978 
L 1791 0 
L 588 0 
L 588 4666 
z
" transform="scale(0.015625)"/>
      <path id="DejaVuSans-Bold-72" d="M 3138 2547 
Q 2991 2616 2845 2648 
Q 2700 2681 2553 2681 
Q 2122 2681 1889 2404 
Q 1656 2128 1656 1613 
L 1656 0 
L 538 0 
L 538 3500 
L 1656 3500 
L 1656 2925 
Q 1872 3269 2151 3426 
Q 2431 3584 2822 3584 
Q 2878 3584 2943 3579 
Q 3009 3575 3134 3559 
L 3138 2547 
z
" transform="scale(0.015625)"/>
      <path id="DejaVuSans-Bold-57" d="M 191 4666 
L 1344 4666 
L 2150 1275 
L 2950 4666 
L 4109 4666 
L 4909 1275 
L 5716 4666 
L 6859 4666 
L 5759 0 
L 4372 0 
L 3525 3547 
L 2688 0 
L 1300 0 
L 191 4666 
z
" transform="scale(0.015625)"/>
      <path id="DejaVuSans-Bold-64" d="M 2919 2988 
L 2919 4863 
L 4044 4863 
L 4044 0 
L 2919 0 
L 2919 506 
Q 2688 197 2409 53 
Q 2131 -91 1766 -91 
Q 1119 -91 703 423 
Q 288 938 288 1747 
Q 288 2556 703 3070 
Q 1119 3584 1766 3584 
Q 2128 3584 2408 3439 
Q 2688 3294 2919 2988 
z
M 2181 722 
Q 2541 722 2730 984 
Q 2919 1247 2919 1747 
Q 2919 2247 2730 2509 
Q 2541 2772 2181 2772 
Q 1825 2772 1636 2509 
Q 1447 2247 1447 1747 
Q 1447 1247 1636 984 
Q 1825 722 2181 722 
z
" transform="scale(0.015625)"/>
      <path id="DejaVuSans-Bold-77" d="M 225 3500 
L 1313 3500 
L 1900 1088 
L 2491 3500 
L 3425 3500 
L 4013 1113 
L 4603 3500 
L 5691 3500 
L 4769 0 
L 3547 0 
L 2956 2406 
L 2369 0 
L 1147 0 
L 225 3500 
z
" transform="scale(0.015625)"/>
      <path id="DejaVuSans-Bold-2c" d="M 653 1209 
L 1778 1209 
L 1778 256 
L 1006 -909 
L 341 -909 
L 653 256 
L 653 1209 
z
" transform="scale(0.015625)"/>
      <path id="DejaVuSans-Bold-31" d="M 750 831 
L 1813 831 
L 1813 3847 
L 722 3622 
L 722 4441 
L 1806 4666 
L 2950 4666 
L 2950 831 
L 4013 831 
L 4013 0 
L 750 0 
L 750 831 
z
" transform="scale(0.015625)"/>
      <path id="DejaVuSans-Bold-30" d="M 2944 2338 
Q 2944 3213 2780 3570 
Q 2616 3928 2228 3928 
Q 1841 3928 1675 3570 
Q 1509 3213 1509 2338 
Q 1509 1453 1675 1090 
Q 1841 728 2228 728 
Q 2613 728 2778 1090 
Q 2944 1453 2944 2338 
z
M 4147 2328 
Q 4147 1169 3647 539 
Q 3147 -91 2228 -91 
Q 1306 -91 806 539 
Q 306 1169 306 2328 
Q 306 3491 806 4120 
Q 1306 4750 2228 4750 
Q 3147 4750 3647 4120 
Q 4147 3491 4147 2328 
z
" transform="scale(0.015625)"/>
      <path id="DejaVuSans-Bold-25" d="M 4959 1925 
Q 4738 1925 4616 1733 
Q 4494 1541 4494 1184 
Q 4494 825 4614 633 
Q 4734 441 4959 441 
Q 5184 441 5303 633 
Q 5422 825 5422 1184 
Q 5422 1541 5301 1733 
Q 5181 1925 4959 1925 
z
M 4959 2450 
Q 5541 2450 5875 2112 
Q 6209 1775 6209 1184 
Q 6209 594 5875 251 
Q 5541 -91 4959 -91 
Q 4378 -91 4042 251 
Q 3706 594 3706 1184 
Q 3706 1772 4042 2111 
Q 4378 2450 4959 2450 
z
M 2094 -91 
L 1403 -91 
L 4319 4750 
L 5013 4750 
L 2094 -91 
z
M 1453 4750 
Q 2034 4750 2367 4411 
Q 2700 4072 2700 3481 
Q 2700 2891 2367 2550 
Q 2034 2209 1453 2209 
Q 872 2209 539 2550 
Q 206 2891 206 3481 
Q 206 4072 539 4411 
Q 872 4750 1453 4750 
z
M 1453 4225 
Q 1228 4225 1106 4031 
Q 984 3838 984 3481 
Q 984 3122 1106 2926 
Q 1228 2731 1453 2731 
Q 1678 2731 1798 2926 
Q 1919 3122 1919 3481 
Q 1919 3838 1797 4031 
Q 1675 4225 1453 4225 
z
" transform="scale(0.015625)"/>
      <path id="DejaVuSans-Bold-53" d="M 3834 4519 
L 3834 3531 
Q 3450 3703 3084 3790 
Q 2719 3878 2394 3878 
Q 1963 3878 1756 3759 
Q 1550 3641 1550 3391 
Q 1550 3203 1689 3098 
Q 1828 2994 2194 2919 
L 2706 2816 
Q 3484 2659 3812 2340 
Q 4141 2022 4141 1434 
Q 4141 663 3683 286 
Q 3225 -91 2284 -91 
Q 1841 -91 1394 -6 
Q 947 78 500 244 
L 500 1259 
Q 947 1022 1364 901 
Q 1781 781 2169 781 
Q 2563 781 2772 912 
Q 2981 1044 2981 1288 
Q 2981 1506 2839 1625 
Q 2697 1744 2272 1838 
L 1806 1941 
Q 1106 2091 782 2419 
Q 459 2747 459 3303 
Q 459 4000 909 4375 
Q 1359 4750 2203 4750 
Q 2588 4750 2994 4692 
Q 3400 4634 3834 4519 
z
" transform="scale(0.015625)"/>
      <path id="DejaVuSans-Bold-68" d="M 4056 2131 
L 4056 0 
L 2931 0 
L 2931 347 
L 2931 1625 
Q 2931 2084 2911 2256 
Q 2891 2428 2841 2509 
Q 2775 2619 2662 2680 
Q 2550 2741 2406 2741 
Q 2056 2741 1856 2470 
Q 1656 2200 1656 1722 
L 1656 0 
L 538 0 
L 538 4863 
L 1656 4863 
L 1656 2988 
Q 1909 3294 2193 3439 
Q 2478 3584 2822 3584 
Q 3428 3584 3742 3212 
Q 4056 2841 4056 2131 
z
" transform="scale(0.015625)"/>
      <path id="DejaVuSans-Bold-66" d="M 2841 4863 
L 2841 4128 
L 2222 4128 
Q 1984 4128 1890 4042 
Q 1797 3956 1797 3744 
L 1797 3500 
L 2753 3500 
L 2753 2700 
L 1797 2700 
L 1797 0 
L 678 0 
L 678 2700 
L 122 2700 
L 122 3500 
L 678 3500 
L 678 3744 
Q 678 4316 997 4589 
Q 1316 4863 1984 4863 
L 2841 4863 
z
" transform="scale(0.015625)"/>
      <path id="DejaVuSans-Bold-61" d="M 2106 1575 
Q 1756 1575 1579 1456 
Q 1403 1338 1403 1106 
Q 1403 894 1545 773 
Q 1688 653 1941 653 
Q 2256 653 2472 879 
Q 2688 1106 2688 1447 
L 2688 1575 
L 2106 1575 
z
M 3816 1997 
L 3816 0 
L 2688 0 
L 2688 519 
Q 2463 200 2181 54 
Q 1900 -91 1497 -91 
Q 953 -91 614 226 
Q 275 544 275 1050 
Q 275 1666 698 1953 
Q 1122 2241 2028 2241 
L 2688 2241 
L 2688 2328 
Q 2688 2594 2478 2717 
Q 2269 2841 1825 2841 
Q 1466 2841 1156 2769 
Q 847 2697 581 2553 
L 581 3406 
Q 941 3494 1303 3539 
Q 1666 3584 2028 3584 
Q 2975 3584 3395 3211 
Q 3816 2838 3816 1997 
z
" transform="scale(0.015625)"/>
      <path id="DejaVuSans-Bold-58" d="M 3188 2381 
L 4806 0 
L 3553 0 
L 2463 1594 
L 1381 0 
L 122 0 
L 1741 2381 
L 184 4666 
L 1441 4666 
L 2463 3163 
L 3481 4666 
L 4744 4666 
L 3188 2381 
z
" transform="scale(0.015625)"/>
      <path id="DejaVuSans-Bold-47" d="M 4781 347 
Q 4331 128 3847 18 
Q 3363 -91 2847 -91 
Q 1681 -91 1000 561 
Q 319 1213 319 2328 
Q 319 3456 1012 4103 
Q 1706 4750 2913 4750 
Q 3378 4750 3804 4662 
Q 4231 4575 4609 4403 
L 4609 3438 
Q 4219 3659 3833 3768 
Q 3447 3878 3059 3878 
Q 2341 3878 1952 3476 
Q 1563 3075 1563 2328 
Q 1563 1588 1938 1184 
Q 2313 781 3003 781 
Q 3191 781 3352 804 
Q 3513 828 3641 878 
L 3641 1784 
L 2906 1784 
L 2906 2591 
L 4781 2591 
L 4781 347 
z
" transform="scale(0.015625)"/>
      <path id="DejaVuSans-Bold-42" d="M 2456 2859 
Q 2741 2859 2887 2984 
Q 3034 3109 3034 3353 
Q 3034 3594 2887 3720 
Q 2741 3847 2456 3847 
L 1791 3847 
L 1791 2859 
L 2456 2859 
z
M 2497 819 
Q 2859 819 3042 972 
Q 3225 1125 3225 1434 
Q 3225 1738 3044 1889 
Q 2863 2041 2497 2041 
L 1791 2041 
L 1791 819 
L 2497 819 
z
M 3616 2497 
Q 4003 2384 4215 2081 
Q 4428 1778 4428 1338 
Q 4428 663 3972 331 
Q 3516 0 2584 0 
L 588 0 
L 588 4666 
L 2394 4666 
Q 3366 4666 3802 4372 
Q 4238 4078 4238 3431 
Q 4238 3091 4078 2852 
Q 3919 2613 3616 2497 
z
" transform="scale(0.015625)"/>
      <path id="DejaVuSans-Bold-43" d="M 4288 256 
Q 3956 84 3597 -3 
Q 3238 -91 2847 -91 
Q 1681 -91 1000 561 
Q 319 1213 319 2328 
Q 319 3447 1000 4098 
Q 1681 4750 2847 4750 
Q 3238 4750 3597 4662 
Q 3956 4575 4288 4403 
L 4288 3438 
Q 3953 3666 3628 3772 
Q 3303 3878 2944 3878 
Q 2300 3878 1931 3465 
Q 1563 3053 1563 2328 
Q 1563 1606 1931 1193 
Q 2300 781 2944 781 
Q 3303 781 3628 887 
Q 3953 994 4288 1222 
L 4288 256 
z
" transform="scale(0.015625)"/>
     </defs>
     <use xlink:href="#DejaVuSans-Bold-41"/>
     <use xlink:href="#DejaVuSans-Bold-63" x="77.392578"/>
     <use xlink:href="#DejaVuSans-Bold-74" x="136.669922"/>
     <use xlink:href="#DejaVuSans-Bold-69" x="184.472656"/>
     <use xlink:href="#DejaVuSans-Bold-76" x="218.75"/>
     <use xlink:href="#DejaVuSans-Bold-69" x="283.935547"/>
     <use xlink:href="#DejaVuSans-Bold-74" x="318.212891"/>
     <use xlink:href="#DejaVuSans-Bold-79" x="366.015625"/>
     <use xlink:href="#DejaVuSans-Bold-20" x="431.201172"/>
     <use xlink:href="#DejaVuSans-Bold-54" x="466.015625"/>
     <use xlink:href="#DejaVuSans-Bold-69" x="534.228516"/>
     <use xlink:href="#DejaVuSans-Bold-6d" x="568.505859"/>
     <use xlink:href="#DejaVuSans-Bold-65" x="672.705078"/>
     <use xlink:href="#DejaVuSans-Bold-6c" x="740.527344"/>
     <use xlink:href="#DejaVuSans-Bold-69" x="774.804688"/>
     <use xlink:href="#DejaVuSans-Bold-6e" x="809.082031"/>
     <use xlink:href="#DejaVuSans-Bold-65" x="880.273438"/>
     <use xlink:href="#DejaVuSans-Bold-20" x="948.095703"/>
     <use xlink:href="#DejaVuSans-Bold-46" x="982.910156"/>
     <use xlink:href="#DejaVuSans-Bold-6f" x="1047.220703"/>
     <use xlink:href="#DejaVuSans-Bold-72" x="1115.921875"/>
     <use xlink:href="#DejaVuSans-Bold-20" x="1165.238281"/>
     <use xlink:href="#DejaVuSans-Bold-52" x="1200.052734"/>
     <use xlink:href="#DejaVuSans-Bold-65" x="1277.054688"/>
     <use xlink:href="#DejaVuSans-Bold-63" x="1344.876953"/>
     <use xlink:href="#DejaVuSans-Bold-20" x="1404.154297"/>
     <use xlink:href="#DejaVuSans-Bold-57" x="1438.96875"/>
     <use xlink:href="#DejaVuSans-Bold-69" x="1549.271484"/>
     <use xlink:href="#DejaVuSans-Bold-6e" x="1583.548828"/>
     <use xlink:href="#DejaVuSans-Bold-64" x="1654.740234"/>
     <use xlink:href="#DejaVuSans-Bold-6f" x="1726.322266"/>
     <use xlink:href="#DejaVuSans-Bold-77" x="1795.023438"/>
     <use xlink:href="#DejaVuSans-Bold-2c" x="1881.03125"/>
     <use xlink:href="#DejaVuSans-Bold-31" x="1919.019531"/>
     <use xlink:href="#DejaVuSans-Bold-30" x="1988.599609"/>
     <use xlink:href="#DejaVuSans-Bold-30" x="2058.179688"/>
     <use xlink:href="#DejaVuSans-Bold-25" x="2127.759766"/>
     <use xlink:href="#DejaVuSans-Bold-20" x="2227.955078"/>
     <use xlink:href="#DejaVuSans-Bold-53" x="2262.769531"/>
     <use xlink:href="#DejaVuSans-Bold-68" x="2334.791016"/>
     <use xlink:href="#DejaVuSans-Bold-69" x="2405.982422"/>
     <use xlink:href="#DejaVuSans-Bold-66" x="2440.259766"/>
     <use xlink:href="#DejaVuSans-Bold-74" x="2483.765625"/>
     <use xlink:href="#DejaVuSans-Bold-69" x="2531.568359"/>
     <use xlink:href="#DejaVuSans-Bold-6e" x="2565.845703"/>
     <use xlink:href="#DejaVuSans-Bold-67" x="2637.037109"/>
     <use xlink:href="#DejaVuSans-Bold-20" x="2708.619141"/>
     <use xlink:href="#DejaVuSans-Bold-61" x="2743.433594"/>
     <use xlink:href="#DejaVuSans-Bold-6e" x="2810.914062"/>
     <use xlink:href="#DejaVuSans-Bold-64" x="2882.105469"/>
     <use xlink:href="#DejaVuSans-Bold-20" x="2953.6875"/>
     <use xlink:href="#DejaVuSans-Bold-58" x="2988.501953"/>
     <use xlink:href="#DejaVuSans-Bold-47" x="3065.601562"/>
     <use xlink:href="#DejaVuSans-Bold-42" x="3147.681641"/>
     <use xlink:href="#DejaVuSans-Bold-20" x="3223.902344"/>
     <use xlink:href="#DejaVuSans-Bold-43" x="3258.716797"/>
     <use xlink:href="#DejaVuSans-Bold-6c" x="3332.105469"/>
     <use xlink:href="#DejaVuSans-Bold-61" x="3366.382812"/>
     <use xlink:href="#DejaVuSans-Bold-73" x="3433.863281"/>
     <use xlink:href="#DejaVuSans-Bold-73" x="3493.384766"/>
     <use xlink:href="#DejaVuSans-Bold-69" x="3552.90625"/>
     <use xlink:href="#DejaVuSans-Bold-66" x="3587.183594"/>
     <use xlink:href="#DejaVuSans-Bold-69" x="3630.689453"/>
     <use xlink:href="#DejaVuSans-Bold-65" x="3664.966797"/>
     <use xlink:href="#DejaVuSans-Bold-72" x="3732.789062"/>
    </g>
   </g>
   <g id="legend_1">
    <g id="patch_77">
     <path d="M 4711.01875 1794.76912 
L 5001.2 1794.76912 
Q 5009.2 1794.76912 5009.2 1786.76912 
L 5009.2 1673.03162 
Q 5009.2 1665.03162 5001.2 1665.03162 
L 4711.01875 1665.03162 
Q 4703.01875 1665.03162 4703.01875 1673.03162 
L 4703.01875 1786.76912 
Q 4703.01875 1794.76912 4711.01875 1794.76912 
z
" style="fill: #ffffff; opacity: 0.8; stroke: #cccccc; stroke-linejoin: miter"/>
    </g>
    <g id="patch_78">
     <path d="M 4719.01875 1711.42537 
L 4799.01875 1711.42537 
L 4799.01875 1683.42537 
L 4719.01875 1683.42537 
z
" style="fill: #1ea4a4; stroke: #1ea4a4; stroke-linejoin: miter"/>
    </g>
    <g id="text_21">
     <!-- Tongue -->
     <g transform="translate(4831.01875 1711.42537) scale(0.4 -0.4)">
      <use xlink:href="#DejaVuSans-Bold-54"/>
      <use xlink:href="#DejaVuSans-Bold-6f" x="54.962891"/>
      <use xlink:href="#DejaVuSans-Bold-6e" x="123.664062"/>
      <use xlink:href="#DejaVuSans-Bold-67" x="194.855469"/>
      <use xlink:href="#DejaVuSans-Bold-75" x="266.4375"/>
      <use xlink:href="#DejaVuSans-Bold-65" x="337.628906"/>
     </g>
    </g>
    <g id="patch_79">
     <path d="M 4719.01875 1770.45037 
L 4799.01875 1770.45037 
L 4799.01875 1742.45037 
L 4719.01875 1742.45037 
z
" style="fill: #c8c8c8; stroke: #c8c8c8; stroke-linejoin: miter"/>
    </g>
    <g id="text_22">
     <!-- Rest -->
     <g transform="translate(4831.01875 1770.45037) scale(0.4 -0.4)">
      <use xlink:href="#DejaVuSans-Bold-52"/>
      <use xlink:href="#DejaVuSans-Bold-65" x="77.001953"/>
      <use xlink:href="#DejaVuSans-Bold-73" x="144.824219"/>
      <use xlink:href="#DejaVuSans-Bold-74" x="204.345703"/>
     </g>
    </g>
   </g>
  </g>
 </g>
 <defs>
  <clipPath id="p18ff3eb65f">
   <rect x="116.384504" y="1645.03162" width="4912.815496" height="1749.936759"/>
  </clipPath>
 </defs>
</svg>
