<?xml version="1.0" encoding="utf-8" standalone="no"?>
<!DOCTYPE svg PUBLIC "-//W3C//DTD SVG 1.1//EN"
  "http://www.w3.org/Graphics/SVG/1.1/DTD/svg11.dtd">
<svg xmlns:xlink="http://www.w3.org/1999/xlink" width="460.8pt" height="345.6pt" viewBox="0 0 460.8 345.6" xmlns="http://www.w3.org/2000/svg" version="1.1">
 <metadata>
  <rdf:RDF xmlns:dc="http://purl.org/dc/elements/1.1/" xmlns:cc="http://creativecommons.org/ns#" xmlns:rdf="http://www.w3.org/1999/02/22-rdf-syntax-ns#">
   <cc:Work>
    <dc:type rdf:resource="http://purl.org/dc/dcmitype/StillImage"/>
    <dc:date>2024-02-26T12:50:40.001406</dc:date>
    <dc:format>image/svg+xml</dc:format>
    <dc:creator>
     <cc:Agent>
      <dc:title>Matplotlib v3.7.0, https://matplotlib.org/</dc:title>
     </cc:Agent>
    </dc:creator>
   </cc:Work>
  </rdf:RDF>
 </metadata>
 <defs>
  <style type="text/css">*{stroke-linejoin: round; stroke-linecap: butt}</style>
 </defs>
 <g id="figure_1">
  <g id="patch_1">
   <path d="M 0 345.6 
L 460.8 345.6 
L 460.8 0 
L 0 0 
z
" style="fill: #ffffff"/>
  </g>
  <g id="axes_1">
   <g id="patch_2">
    <path d="M 57.6 307.584 
L 414.72 307.584 
L 414.72 41.472 
L 57.6 41.472 
z
" style="fill: #ffffff"/>
   </g>
   <g id="matplotlib.axis_1">
    <g id="xtick_1">
     <g id="line2d_1">
      <path d="M 99.463349 307.584 
L 99.463349 41.472 
" clip-path="url(#p67915c8d3d)" style="fill: none; stroke: #b0b0b0; stroke-width: 0.8; stroke-linecap: square"/>
     </g>
     <g id="line2d_2">
      <defs>
       <path id="m9c0abe7128" d="M 0 0 
L 0 3.5 
" style="stroke: #000000; stroke-width: 0.8"/>
      </defs>
      <g>
       <use xlink:href="#m9c0abe7128" x="99.463349" y="307.584" style="stroke: #000000; stroke-width: 0.8"/>
      </g>
     </g>
     <g id="text_1">
      <!-- 2.5 -->
      <g transform="translate(91.511787 322.182437) scale(0.1 -0.1)">
       <defs>
        <path id="DejaVuSans-32" d="M 1228 531 
L 3431 531 
L 3431 0 
L 469 0 
L 469 531 
Q 828 903 1448 1529 
Q 2069 2156 2228 2338 
Q 2531 2678 2651 2914 
Q 2772 3150 2772 3378 
Q 2772 3750 2511 3984 
Q 2250 4219 1831 4219 
Q 1534 4219 1204 4116 
Q 875 4013 500 3803 
L 500 4441 
Q 881 4594 1212 4672 
Q 1544 4750 1819 4750 
Q 2544 4750 2975 4387 
Q 3406 4025 3406 3419 
Q 3406 3131 3298 2873 
Q 3191 2616 2906 2266 
Q 2828 2175 2409 1742 
Q 1991 1309 1228 531 
z
" transform="scale(0.015625)"/>
        <path id="DejaVuSans-2e" d="M 684 794 
L 1344 794 
L 1344 0 
L 684 0 
L 684 794 
z
" transform="scale(0.015625)"/>
        <path id="DejaVuSans-35" d="M 691 4666 
L 3169 4666 
L 3169 4134 
L 1269 4134 
L 1269 2991 
Q 1406 3038 1543 3061 
Q 1681 3084 1819 3084 
Q 2600 3084 3056 2656 
Q 3513 2228 3513 1497 
Q 3513 744 3044 326 
Q 2575 -91 1722 -91 
Q 1428 -91 1123 -41 
Q 819 9 494 109 
L 494 744 
Q 775 591 1075 516 
Q 1375 441 1709 441 
Q 2250 441 2565 725 
Q 2881 1009 2881 1497 
Q 2881 1984 2565 2268 
Q 2250 2553 1709 2553 
Q 1456 2553 1204 2497 
Q 953 2441 691 2322 
L 691 4666 
z
" transform="scale(0.015625)"/>
       </defs>
       <use xlink:href="#DejaVuSans-32"/>
       <use xlink:href="#DejaVuSans-2e" x="63.623047"/>
       <use xlink:href="#DejaVuSans-35" x="95.410156"/>
      </g>
     </g>
    </g>
    <g id="xtick_2">
     <g id="line2d_3">
      <path d="M 142.181053 307.584 
L 142.181053 41.472 
" clip-path="url(#p67915c8d3d)" style="fill: none; stroke: #b0b0b0; stroke-width: 0.8; stroke-linecap: square"/>
     </g>
     <g id="line2d_4">
      <g>
       <use xlink:href="#m9c0abe7128" x="142.181053" y="307.584" style="stroke: #000000; stroke-width: 0.8"/>
      </g>
     </g>
     <g id="text_2">
      <!-- 5.0 -->
      <g transform="translate(134.22949 322.182437) scale(0.1 -0.1)">
       <defs>
        <path id="DejaVuSans-30" d="M 2034 4250 
Q 1547 4250 1301 3770 
Q 1056 3291 1056 2328 
Q 1056 1369 1301 889 
Q 1547 409 2034 409 
Q 2525 409 2770 889 
Q 3016 1369 3016 2328 
Q 3016 3291 2770 3770 
Q 2525 4250 2034 4250 
z
M 2034 4750 
Q 2819 4750 3233 4129 
Q 3647 3509 3647 2328 
Q 3647 1150 3233 529 
Q 2819 -91 2034 -91 
Q 1250 -91 836 529 
Q 422 1150 422 2328 
Q 422 3509 836 4129 
Q 1250 4750 2034 4750 
z
" transform="scale(0.015625)"/>
       </defs>
       <use xlink:href="#DejaVuSans-35"/>
       <use xlink:href="#DejaVuSans-2e" x="63.623047"/>
       <use xlink:href="#DejaVuSans-30" x="95.410156"/>
      </g>
     </g>
    </g>
    <g id="xtick_3">
     <g id="line2d_5">
      <path d="M 184.898756 307.584 
L 184.898756 41.472 
" clip-path="url(#p67915c8d3d)" style="fill: none; stroke: #b0b0b0; stroke-width: 0.8; stroke-linecap: square"/>
     </g>
     <g id="line2d_6">
      <g>
       <use xlink:href="#m9c0abe7128" x="184.898756" y="307.584" style="stroke: #000000; stroke-width: 0.8"/>
      </g>
     </g>
     <g id="text_3">
      <!-- 7.5 -->
      <g transform="translate(176.947193 322.182437) scale(0.1 -0.1)">
       <defs>
        <path id="DejaVuSans-37" d="M 525 4666 
L 3525 4666 
L 3525 4397 
L 1831 0 
L 1172 0 
L 2766 4134 
L 525 4134 
L 525 4666 
z
" transform="scale(0.015625)"/>
       </defs>
       <use xlink:href="#DejaVuSans-37"/>
       <use xlink:href="#DejaVuSans-2e" x="63.623047"/>
       <use xlink:href="#DejaVuSans-35" x="95.410156"/>
      </g>
     </g>
    </g>
    <g id="xtick_4">
     <g id="line2d_7">
      <path d="M 227.616459 307.584 
L 227.616459 41.472 
" clip-path="url(#p67915c8d3d)" style="fill: none; stroke: #b0b0b0; stroke-width: 0.8; stroke-linecap: square"/>
     </g>
     <g id="line2d_8">
      <g>
       <use xlink:href="#m9c0abe7128" x="227.616459" y="307.584" style="stroke: #000000; stroke-width: 0.8"/>
      </g>
     </g>
     <g id="text_4">
      <!-- 10.0 -->
      <g transform="translate(216.483647 322.182437) scale(0.1 -0.1)">
       <defs>
        <path id="DejaVuSans-31" d="M 794 531 
L 1825 531 
L 1825 4091 
L 703 3866 
L 703 4441 
L 1819 4666 
L 2450 4666 
L 2450 531 
L 3481 531 
L 3481 0 
L 794 0 
L 794 531 
z
" transform="scale(0.015625)"/>
       </defs>
       <use xlink:href="#DejaVuSans-31"/>
       <use xlink:href="#DejaVuSans-30" x="63.623047"/>
       <use xlink:href="#DejaVuSans-2e" x="127.246094"/>
       <use xlink:href="#DejaVuSans-30" x="159.033203"/>
      </g>
     </g>
    </g>
    <g id="xtick_5">
     <g id="line2d_9">
      <path d="M 270.334163 307.584 
L 270.334163 41.472 
" clip-path="url(#p67915c8d3d)" style="fill: none; stroke: #b0b0b0; stroke-width: 0.8; stroke-linecap: square"/>
     </g>
     <g id="line2d_10">
      <g>
       <use xlink:href="#m9c0abe7128" x="270.334163" y="307.584" style="stroke: #000000; stroke-width: 0.8"/>
      </g>
     </g>
     <g id="text_5">
      <!-- 12.5 -->
      <g transform="translate(259.20135 322.182437) scale(0.1 -0.1)">
       <use xlink:href="#DejaVuSans-31"/>
       <use xlink:href="#DejaVuSans-32" x="63.623047"/>
       <use xlink:href="#DejaVuSans-2e" x="127.246094"/>
       <use xlink:href="#DejaVuSans-35" x="159.033203"/>
      </g>
     </g>
    </g>
    <g id="xtick_6">
     <g id="line2d_11">
      <path d="M 313.051866 307.584 
L 313.051866 41.472 
" clip-path="url(#p67915c8d3d)" style="fill: none; stroke: #b0b0b0; stroke-width: 0.8; stroke-linecap: square"/>
     </g>
     <g id="line2d_12">
      <g>
       <use xlink:href="#m9c0abe7128" x="313.051866" y="307.584" style="stroke: #000000; stroke-width: 0.8"/>
      </g>
     </g>
     <g id="text_6">
      <!-- 15.0 -->
      <g transform="translate(301.919054 322.182437) scale(0.1 -0.1)">
       <use xlink:href="#DejaVuSans-31"/>
       <use xlink:href="#DejaVuSans-35" x="63.623047"/>
       <use xlink:href="#DejaVuSans-2e" x="127.246094"/>
       <use xlink:href="#DejaVuSans-30" x="159.033203"/>
      </g>
     </g>
    </g>
    <g id="xtick_7">
     <g id="line2d_13">
      <path d="M 355.769569 307.584 
L 355.769569 41.472 
" clip-path="url(#p67915c8d3d)" style="fill: none; stroke: #b0b0b0; stroke-width: 0.8; stroke-linecap: square"/>
     </g>
     <g id="line2d_14">
      <g>
       <use xlink:href="#m9c0abe7128" x="355.769569" y="307.584" style="stroke: #000000; stroke-width: 0.8"/>
      </g>
     </g>
     <g id="text_7">
      <!-- 17.5 -->
      <g transform="translate(344.636757 322.182437) scale(0.1 -0.1)">
       <use xlink:href="#DejaVuSans-31"/>
       <use xlink:href="#DejaVuSans-37" x="63.623047"/>
       <use xlink:href="#DejaVuSans-2e" x="127.246094"/>
       <use xlink:href="#DejaVuSans-35" x="159.033203"/>
      </g>
     </g>
    </g>
    <g id="xtick_8">
     <g id="line2d_15">
      <path d="M 398.487273 307.584 
L 398.487273 41.472 
" clip-path="url(#p67915c8d3d)" style="fill: none; stroke: #b0b0b0; stroke-width: 0.8; stroke-linecap: square"/>
     </g>
     <g id="line2d_16">
      <g>
       <use xlink:href="#m9c0abe7128" x="398.487273" y="307.584" style="stroke: #000000; stroke-width: 0.8"/>
      </g>
     </g>
     <g id="text_8">
      <!-- 20.0 -->
      <g transform="translate(387.35446 322.182437) scale(0.1 -0.1)">
       <use xlink:href="#DejaVuSans-32"/>
       <use xlink:href="#DejaVuSans-30" x="63.623047"/>
       <use xlink:href="#DejaVuSans-2e" x="127.246094"/>
       <use xlink:href="#DejaVuSans-30" x="159.033203"/>
      </g>
     </g>
    </g>
    <g id="text_9">
     <!-- Number of CSP Components -->
     <g transform="translate(165.173281 335.860562) scale(0.1 -0.1)">
      <defs>
       <path id="DejaVuSans-4e" d="M 628 4666 
L 1478 4666 
L 3547 763 
L 3547 4666 
L 4159 4666 
L 4159 0 
L 3309 0 
L 1241 3903 
L 1241 0 
L 628 0 
L 628 4666 
z
" transform="scale(0.015625)"/>
       <path id="DejaVuSans-75" d="M 544 1381 
L 544 3500 
L 1119 3500 
L 1119 1403 
Q 1119 906 1312 657 
Q 1506 409 1894 409 
Q 2359 409 2629 706 
Q 2900 1003 2900 1516 
L 2900 3500 
L 3475 3500 
L 3475 0 
L 2900 0 
L 2900 538 
Q 2691 219 2414 64 
Q 2138 -91 1772 -91 
Q 1169 -91 856 284 
Q 544 659 544 1381 
z
M 1991 3584 
L 1991 3584 
z
" transform="scale(0.015625)"/>
       <path id="DejaVuSans-6d" d="M 3328 2828 
Q 3544 3216 3844 3400 
Q 4144 3584 4550 3584 
Q 5097 3584 5394 3201 
Q 5691 2819 5691 2113 
L 5691 0 
L 5113 0 
L 5113 2094 
Q 5113 2597 4934 2840 
Q 4756 3084 4391 3084 
Q 3944 3084 3684 2787 
Q 3425 2491 3425 1978 
L 3425 0 
L 2847 0 
L 2847 2094 
Q 2847 2600 2669 2842 
Q 2491 3084 2119 3084 
Q 1678 3084 1418 2786 
Q 1159 2488 1159 1978 
L 1159 0 
L 581 0 
L 581 3500 
L 1159 3500 
L 1159 2956 
Q 1356 3278 1631 3431 
Q 1906 3584 2284 3584 
Q 2666 3584 2933 3390 
Q 3200 3197 3328 2828 
z
" transform="scale(0.015625)"/>
       <path id="DejaVuSans-62" d="M 3116 1747 
Q 3116 2381 2855 2742 
Q 2594 3103 2138 3103 
Q 1681 3103 1420 2742 
Q 1159 2381 1159 1747 
Q 1159 1113 1420 752 
Q 1681 391 2138 391 
Q 2594 391 2855 752 
Q 3116 1113 3116 1747 
z
M 1159 2969 
Q 1341 3281 1617 3432 
Q 1894 3584 2278 3584 
Q 2916 3584 3314 3078 
Q 3713 2572 3713 1747 
Q 3713 922 3314 415 
Q 2916 -91 2278 -91 
Q 1894 -91 1617 61 
Q 1341 213 1159 525 
L 1159 0 
L 581 0 
L 581 4863 
L 1159 4863 
L 1159 2969 
z
" transform="scale(0.015625)"/>
       <path id="DejaVuSans-65" d="M 3597 1894 
L 3597 1613 
L 953 1613 
Q 991 1019 1311 708 
Q 1631 397 2203 397 
Q 2534 397 2845 478 
Q 3156 559 3463 722 
L 3463 178 
Q 3153 47 2828 -22 
Q 2503 -91 2169 -91 
Q 1331 -91 842 396 
Q 353 884 353 1716 
Q 353 2575 817 3079 
Q 1281 3584 2069 3584 
Q 2775 3584 3186 3129 
Q 3597 2675 3597 1894 
z
M 3022 2063 
Q 3016 2534 2758 2815 
Q 2500 3097 2075 3097 
Q 1594 3097 1305 2825 
Q 1016 2553 972 2059 
L 3022 2063 
z
" transform="scale(0.015625)"/>
       <path id="DejaVuSans-72" d="M 2631 2963 
Q 2534 3019 2420 3045 
Q 2306 3072 2169 3072 
Q 1681 3072 1420 2755 
Q 1159 2438 1159 1844 
L 1159 0 
L 581 0 
L 581 3500 
L 1159 3500 
L 1159 2956 
Q 1341 3275 1631 3429 
Q 1922 3584 2338 3584 
Q 2397 3584 2469 3576 
Q 2541 3569 2628 3553 
L 2631 2963 
z
" transform="scale(0.015625)"/>
       <path id="DejaVuSans-20" transform="scale(0.015625)"/>
       <path id="DejaVuSans-6f" d="M 1959 3097 
Q 1497 3097 1228 2736 
Q 959 2375 959 1747 
Q 959 1119 1226 758 
Q 1494 397 1959 397 
Q 2419 397 2687 759 
Q 2956 1122 2956 1747 
Q 2956 2369 2687 2733 
Q 2419 3097 1959 3097 
z
M 1959 3584 
Q 2709 3584 3137 3096 
Q 3566 2609 3566 1747 
Q 3566 888 3137 398 
Q 2709 -91 1959 -91 
Q 1206 -91 779 398 
Q 353 888 353 1747 
Q 353 2609 779 3096 
Q 1206 3584 1959 3584 
z
" transform="scale(0.015625)"/>
       <path id="DejaVuSans-66" d="M 2375 4863 
L 2375 4384 
L 1825 4384 
Q 1516 4384 1395 4259 
Q 1275 4134 1275 3809 
L 1275 3500 
L 2222 3500 
L 2222 3053 
L 1275 3053 
L 1275 0 
L 697 0 
L 697 3053 
L 147 3053 
L 147 3500 
L 697 3500 
L 697 3744 
Q 697 4328 969 4595 
Q 1241 4863 1831 4863 
L 2375 4863 
z
" transform="scale(0.015625)"/>
       <path id="DejaVuSans-43" d="M 4122 4306 
L 4122 3641 
Q 3803 3938 3442 4084 
Q 3081 4231 2675 4231 
Q 1875 4231 1450 3742 
Q 1025 3253 1025 2328 
Q 1025 1406 1450 917 
Q 1875 428 2675 428 
Q 3081 428 3442 575 
Q 3803 722 4122 1019 
L 4122 359 
Q 3791 134 3420 21 
Q 3050 -91 2638 -91 
Q 1578 -91 968 557 
Q 359 1206 359 2328 
Q 359 3453 968 4101 
Q 1578 4750 2638 4750 
Q 3056 4750 3426 4639 
Q 3797 4528 4122 4306 
z
" transform="scale(0.015625)"/>
       <path id="DejaVuSans-53" d="M 3425 4513 
L 3425 3897 
Q 3066 4069 2747 4153 
Q 2428 4238 2131 4238 
Q 1616 4238 1336 4038 
Q 1056 3838 1056 3469 
Q 1056 3159 1242 3001 
Q 1428 2844 1947 2747 
L 2328 2669 
Q 3034 2534 3370 2195 
Q 3706 1856 3706 1288 
Q 3706 609 3251 259 
Q 2797 -91 1919 -91 
Q 1588 -91 1214 -16 
Q 841 59 441 206 
L 441 856 
Q 825 641 1194 531 
Q 1563 422 1919 422 
Q 2459 422 2753 634 
Q 3047 847 3047 1241 
Q 3047 1584 2836 1778 
Q 2625 1972 2144 2069 
L 1759 2144 
Q 1053 2284 737 2584 
Q 422 2884 422 3419 
Q 422 4038 858 4394 
Q 1294 4750 2059 4750 
Q 2388 4750 2728 4690 
Q 3069 4631 3425 4513 
z
" transform="scale(0.015625)"/>
       <path id="DejaVuSans-50" d="M 1259 4147 
L 1259 2394 
L 2053 2394 
Q 2494 2394 2734 2622 
Q 2975 2850 2975 3272 
Q 2975 3691 2734 3919 
Q 2494 4147 2053 4147 
L 1259 4147 
z
M 628 4666 
L 2053 4666 
Q 2838 4666 3239 4311 
Q 3641 3956 3641 3272 
Q 3641 2581 3239 2228 
Q 2838 1875 2053 1875 
L 1259 1875 
L 1259 0 
L 628 0 
L 628 4666 
z
" transform="scale(0.015625)"/>
       <path id="DejaVuSans-70" d="M 1159 525 
L 1159 -1331 
L 581 -1331 
L 581 3500 
L 1159 3500 
L 1159 2969 
Q 1341 3281 1617 3432 
Q 1894 3584 2278 3584 
Q 2916 3584 3314 3078 
Q 3713 2572 3713 1747 
Q 3713 922 3314 415 
Q 2916 -91 2278 -91 
Q 1894 -91 1617 61 
Q 1341 213 1159 525 
z
M 3116 1747 
Q 3116 2381 2855 2742 
Q 2594 3103 2138 3103 
Q 1681 3103 1420 2742 
Q 1159 2381 1159 1747 
Q 1159 1113 1420 752 
Q 1681 391 2138 391 
Q 2594 391 2855 752 
Q 3116 1113 3116 1747 
z
" transform="scale(0.015625)"/>
       <path id="DejaVuSans-6e" d="M 3513 2113 
L 3513 0 
L 2938 0 
L 2938 2094 
Q 2938 2591 2744 2837 
Q 2550 3084 2163 3084 
Q 1697 3084 1428 2787 
Q 1159 2491 1159 1978 
L 1159 0 
L 581 0 
L 581 3500 
L 1159 3500 
L 1159 2956 
Q 1366 3272 1645 3428 
Q 1925 3584 2291 3584 
Q 2894 3584 3203 3211 
Q 3513 2838 3513 2113 
z
" transform="scale(0.015625)"/>
       <path id="DejaVuSans-74" d="M 1172 4494 
L 1172 3500 
L 2356 3500 
L 2356 3053 
L 1172 3053 
L 1172 1153 
Q 1172 725 1289 603 
Q 1406 481 1766 481 
L 2356 481 
L 2356 0 
L 1766 0 
Q 1100 0 847 248 
Q 594 497 594 1153 
L 594 3053 
L 172 3053 
L 172 3500 
L 594 3500 
L 594 4494 
L 1172 4494 
z
" transform="scale(0.015625)"/>
       <path id="DejaVuSans-73" d="M 2834 3397 
L 2834 2853 
Q 2591 2978 2328 3040 
Q 2066 3103 1784 3103 
Q 1356 3103 1142 2972 
Q 928 2841 928 2578 
Q 928 2378 1081 2264 
Q 1234 2150 1697 2047 
L 1894 2003 
Q 2506 1872 2764 1633 
Q 3022 1394 3022 966 
Q 3022 478 2636 193 
Q 2250 -91 1575 -91 
Q 1294 -91 989 -36 
Q 684 19 347 128 
L 347 722 
Q 666 556 975 473 
Q 1284 391 1588 391 
Q 1994 391 2212 530 
Q 2431 669 2431 922 
Q 2431 1156 2273 1281 
Q 2116 1406 1581 1522 
L 1381 1569 
Q 847 1681 609 1914 
Q 372 2147 372 2553 
Q 372 3047 722 3315 
Q 1072 3584 1716 3584 
Q 2034 3584 2315 3537 
Q 2597 3491 2834 3397 
z
" transform="scale(0.015625)"/>
      </defs>
      <use xlink:href="#DejaVuSans-4e"/>
      <use xlink:href="#DejaVuSans-75" x="74.804688"/>
      <use xlink:href="#DejaVuSans-6d" x="138.183594"/>
      <use xlink:href="#DejaVuSans-62" x="235.595703"/>
      <use xlink:href="#DejaVuSans-65" x="299.072266"/>
      <use xlink:href="#DejaVuSans-72" x="360.595703"/>
      <use xlink:href="#DejaVuSans-20" x="401.708984"/>
      <use xlink:href="#DejaVuSans-6f" x="433.496094"/>
      <use xlink:href="#DejaVuSans-66" x="494.677734"/>
      <use xlink:href="#DejaVuSans-20" x="529.882812"/>
      <use xlink:href="#DejaVuSans-43" x="561.669922"/>
      <use xlink:href="#DejaVuSans-53" x="631.494141"/>
      <use xlink:href="#DejaVuSans-50" x="694.970703"/>
      <use xlink:href="#DejaVuSans-20" x="755.273438"/>
      <use xlink:href="#DejaVuSans-43" x="787.060547"/>
      <use xlink:href="#DejaVuSans-6f" x="856.884766"/>
      <use xlink:href="#DejaVuSans-6d" x="918.066406"/>
      <use xlink:href="#DejaVuSans-70" x="1015.478516"/>
      <use xlink:href="#DejaVuSans-6f" x="1078.955078"/>
      <use xlink:href="#DejaVuSans-6e" x="1140.136719"/>
      <use xlink:href="#DejaVuSans-65" x="1203.515625"/>
      <use xlink:href="#DejaVuSans-6e" x="1265.039062"/>
      <use xlink:href="#DejaVuSans-74" x="1328.417969"/>
      <use xlink:href="#DejaVuSans-73" x="1367.626953"/>
     </g>
    </g>
   </g>
   <g id="matplotlib.axis_2">
    <g id="ytick_1">
     <g id="line2d_17">
      <path d="M 57.6 297.203745 
L 414.72 297.203745 
" clip-path="url(#p67915c8d3d)" style="fill: none; stroke: #b0b0b0; stroke-width: 0.8; stroke-linecap: square"/>
     </g>
     <g id="line2d_18">
      <defs>
       <path id="m9bc9523334" d="M 0 0 
L -3.5 0 
" style="stroke: #000000; stroke-width: 0.8"/>
      </defs>
      <g>
       <use xlink:href="#m9bc9523334" x="57.6" y="297.203745" style="stroke: #000000; stroke-width: 0.8"/>
      </g>
     </g>
     <g id="text_10">
      <!-- 0.650 -->
      <g transform="translate(21.971875 301.002963) scale(0.1 -0.1)">
       <defs>
        <path id="DejaVuSans-36" d="M 2113 2584 
Q 1688 2584 1439 2293 
Q 1191 2003 1191 1497 
Q 1191 994 1439 701 
Q 1688 409 2113 409 
Q 2538 409 2786 701 
Q 3034 994 3034 1497 
Q 3034 2003 2786 2293 
Q 2538 2584 2113 2584 
z
M 3366 4563 
L 3366 3988 
Q 3128 4100 2886 4159 
Q 2644 4219 2406 4219 
Q 1781 4219 1451 3797 
Q 1122 3375 1075 2522 
Q 1259 2794 1537 2939 
Q 1816 3084 2150 3084 
Q 2853 3084 3261 2657 
Q 3669 2231 3669 1497 
Q 3669 778 3244 343 
Q 2819 -91 2113 -91 
Q 1303 -91 875 529 
Q 447 1150 447 2328 
Q 447 3434 972 4092 
Q 1497 4750 2381 4750 
Q 2619 4750 2861 4703 
Q 3103 4656 3366 4563 
z
" transform="scale(0.015625)"/>
       </defs>
       <use xlink:href="#DejaVuSans-30"/>
       <use xlink:href="#DejaVuSans-2e" x="63.623047"/>
       <use xlink:href="#DejaVuSans-36" x="95.410156"/>
       <use xlink:href="#DejaVuSans-35" x="159.033203"/>
       <use xlink:href="#DejaVuSans-30" x="222.65625"/>
      </g>
     </g>
    </g>
    <g id="ytick_2">
     <g id="line2d_19">
      <path d="M 57.6 261.173106 
L 414.72 261.173106 
" clip-path="url(#p67915c8d3d)" style="fill: none; stroke: #b0b0b0; stroke-width: 0.8; stroke-linecap: square"/>
     </g>
     <g id="line2d_20">
      <g>
       <use xlink:href="#m9bc9523334" x="57.6" y="261.173106" style="stroke: #000000; stroke-width: 0.8"/>
      </g>
     </g>
     <g id="text_11">
      <!-- 0.675 -->
      <g transform="translate(21.971875 264.972325) scale(0.1 -0.1)">
       <use xlink:href="#DejaVuSans-30"/>
       <use xlink:href="#DejaVuSans-2e" x="63.623047"/>
       <use xlink:href="#DejaVuSans-36" x="95.410156"/>
       <use xlink:href="#DejaVuSans-37" x="159.033203"/>
       <use xlink:href="#DejaVuSans-35" x="222.65625"/>
      </g>
     </g>
    </g>
    <g id="ytick_3">
     <g id="line2d_21">
      <path d="M 57.6 225.142468 
L 414.72 225.142468 
" clip-path="url(#p67915c8d3d)" style="fill: none; stroke: #b0b0b0; stroke-width: 0.8; stroke-linecap: square"/>
     </g>
     <g id="line2d_22">
      <g>
       <use xlink:href="#m9bc9523334" x="57.6" y="225.142468" style="stroke: #000000; stroke-width: 0.8"/>
      </g>
     </g>
     <g id="text_12">
      <!-- 0.700 -->
      <g transform="translate(21.971875 228.941687) scale(0.1 -0.1)">
       <use xlink:href="#DejaVuSans-30"/>
       <use xlink:href="#DejaVuSans-2e" x="63.623047"/>
       <use xlink:href="#DejaVuSans-37" x="95.410156"/>
       <use xlink:href="#DejaVuSans-30" x="159.033203"/>
       <use xlink:href="#DejaVuSans-30" x="222.65625"/>
      </g>
     </g>
    </g>
    <g id="ytick_4">
     <g id="line2d_23">
      <path d="M 57.6 189.11183 
L 414.72 189.11183 
" clip-path="url(#p67915c8d3d)" style="fill: none; stroke: #b0b0b0; stroke-width: 0.8; stroke-linecap: square"/>
     </g>
     <g id="line2d_24">
      <g>
       <use xlink:href="#m9bc9523334" x="57.6" y="189.11183" style="stroke: #000000; stroke-width: 0.8"/>
      </g>
     </g>
     <g id="text_13">
      <!-- 0.725 -->
      <g transform="translate(21.971875 192.911049) scale(0.1 -0.1)">
       <use xlink:href="#DejaVuSans-30"/>
       <use xlink:href="#DejaVuSans-2e" x="63.623047"/>
       <use xlink:href="#DejaVuSans-37" x="95.410156"/>
       <use xlink:href="#DejaVuSans-32" x="159.033203"/>
       <use xlink:href="#DejaVuSans-35" x="222.65625"/>
      </g>
     </g>
    </g>
    <g id="ytick_5">
     <g id="line2d_25">
      <path d="M 57.6 153.081191 
L 414.72 153.081191 
" clip-path="url(#p67915c8d3d)" style="fill: none; stroke: #b0b0b0; stroke-width: 0.8; stroke-linecap: square"/>
     </g>
     <g id="line2d_26">
      <g>
       <use xlink:href="#m9bc9523334" x="57.6" y="153.081191" style="stroke: #000000; stroke-width: 0.8"/>
      </g>
     </g>
     <g id="text_14">
      <!-- 0.750 -->
      <g transform="translate(21.971875 156.88041) scale(0.1 -0.1)">
       <use xlink:href="#DejaVuSans-30"/>
       <use xlink:href="#DejaVuSans-2e" x="63.623047"/>
       <use xlink:href="#DejaVuSans-37" x="95.410156"/>
       <use xlink:href="#DejaVuSans-35" x="159.033203"/>
       <use xlink:href="#DejaVuSans-30" x="222.65625"/>
      </g>
     </g>
    </g>
    <g id="ytick_6">
     <g id="line2d_27">
      <path d="M 57.6 117.050553 
L 414.72 117.050553 
" clip-path="url(#p67915c8d3d)" style="fill: none; stroke: #b0b0b0; stroke-width: 0.8; stroke-linecap: square"/>
     </g>
     <g id="line2d_28">
      <g>
       <use xlink:href="#m9bc9523334" x="57.6" y="117.050553" style="stroke: #000000; stroke-width: 0.8"/>
      </g>
     </g>
     <g id="text_15">
      <!-- 0.775 -->
      <g transform="translate(21.971875 120.849772) scale(0.1 -0.1)">
       <use xlink:href="#DejaVuSans-30"/>
       <use xlink:href="#DejaVuSans-2e" x="63.623047"/>
       <use xlink:href="#DejaVuSans-37" x="95.410156"/>
       <use xlink:href="#DejaVuSans-37" x="159.033203"/>
       <use xlink:href="#DejaVuSans-35" x="222.65625"/>
      </g>
     </g>
    </g>
    <g id="ytick_7">
     <g id="line2d_29">
      <path d="M 57.6 81.019915 
L 414.72 81.019915 
" clip-path="url(#p67915c8d3d)" style="fill: none; stroke: #b0b0b0; stroke-width: 0.8; stroke-linecap: square"/>
     </g>
     <g id="line2d_30">
      <g>
       <use xlink:href="#m9bc9523334" x="57.6" y="81.019915" style="stroke: #000000; stroke-width: 0.8"/>
      </g>
     </g>
     <g id="text_16">
      <!-- 0.800 -->
      <g transform="translate(21.971875 84.819134) scale(0.1 -0.1)">
       <defs>
        <path id="DejaVuSans-38" d="M 2034 2216 
Q 1584 2216 1326 1975 
Q 1069 1734 1069 1313 
Q 1069 891 1326 650 
Q 1584 409 2034 409 
Q 2484 409 2743 651 
Q 3003 894 3003 1313 
Q 3003 1734 2745 1975 
Q 2488 2216 2034 2216 
z
M 1403 2484 
Q 997 2584 770 2862 
Q 544 3141 544 3541 
Q 544 4100 942 4425 
Q 1341 4750 2034 4750 
Q 2731 4750 3128 4425 
Q 3525 4100 3525 3541 
Q 3525 3141 3298 2862 
Q 3072 2584 2669 2484 
Q 3125 2378 3379 2068 
Q 3634 1759 3634 1313 
Q 3634 634 3220 271 
Q 2806 -91 2034 -91 
Q 1263 -91 848 271 
Q 434 634 434 1313 
Q 434 1759 690 2068 
Q 947 2378 1403 2484 
z
M 1172 3481 
Q 1172 3119 1398 2916 
Q 1625 2713 2034 2713 
Q 2441 2713 2670 2916 
Q 2900 3119 2900 3481 
Q 2900 3844 2670 4047 
Q 2441 4250 2034 4250 
Q 1625 4250 1398 4047 
Q 1172 3844 1172 3481 
z
" transform="scale(0.015625)"/>
       </defs>
       <use xlink:href="#DejaVuSans-30"/>
       <use xlink:href="#DejaVuSans-2e" x="63.623047"/>
       <use xlink:href="#DejaVuSans-38" x="95.410156"/>
       <use xlink:href="#DejaVuSans-30" x="159.033203"/>
       <use xlink:href="#DejaVuSans-30" x="222.65625"/>
      </g>
     </g>
    </g>
    <g id="ytick_8">
     <g id="line2d_31">
      <path d="M 57.6 44.989277 
L 414.72 44.989277 
" clip-path="url(#p67915c8d3d)" style="fill: none; stroke: #b0b0b0; stroke-width: 0.8; stroke-linecap: square"/>
     </g>
     <g id="line2d_32">
      <g>
       <use xlink:href="#m9bc9523334" x="57.6" y="44.989277" style="stroke: #000000; stroke-width: 0.8"/>
      </g>
     </g>
     <g id="text_17">
      <!-- 0.825 -->
      <g transform="translate(21.971875 48.788495) scale(0.1 -0.1)">
       <use xlink:href="#DejaVuSans-30"/>
       <use xlink:href="#DejaVuSans-2e" x="63.623047"/>
       <use xlink:href="#DejaVuSans-38" x="95.410156"/>
       <use xlink:href="#DejaVuSans-32" x="159.033203"/>
       <use xlink:href="#DejaVuSans-35" x="222.65625"/>
      </g>
     </g>
    </g>
    <g id="text_18">
     <!-- Accuracy -->
     <g transform="translate(15.892187 197.356125) rotate(-90) scale(0.1 -0.1)">
      <defs>
       <path id="DejaVuSans-41" d="M 2188 4044 
L 1331 1722 
L 3047 1722 
L 2188 4044 
z
M 1831 4666 
L 2547 4666 
L 4325 0 
L 3669 0 
L 3244 1197 
L 1141 1197 
L 716 0 
L 50 0 
L 1831 4666 
z
" transform="scale(0.015625)"/>
       <path id="DejaVuSans-63" d="M 3122 3366 
L 3122 2828 
Q 2878 2963 2633 3030 
Q 2388 3097 2138 3097 
Q 1578 3097 1268 2742 
Q 959 2388 959 1747 
Q 959 1106 1268 751 
Q 1578 397 2138 397 
Q 2388 397 2633 464 
Q 2878 531 3122 666 
L 3122 134 
Q 2881 22 2623 -34 
Q 2366 -91 2075 -91 
Q 1284 -91 818 406 
Q 353 903 353 1747 
Q 353 2603 823 3093 
Q 1294 3584 2113 3584 
Q 2378 3584 2631 3529 
Q 2884 3475 3122 3366 
z
" transform="scale(0.015625)"/>
       <path id="DejaVuSans-61" d="M 2194 1759 
Q 1497 1759 1228 1600 
Q 959 1441 959 1056 
Q 959 750 1161 570 
Q 1363 391 1709 391 
Q 2188 391 2477 730 
Q 2766 1069 2766 1631 
L 2766 1759 
L 2194 1759 
z
M 3341 1997 
L 3341 0 
L 2766 0 
L 2766 531 
Q 2569 213 2275 61 
Q 1981 -91 1556 -91 
Q 1019 -91 701 211 
Q 384 513 384 1019 
Q 384 1609 779 1909 
Q 1175 2209 1959 2209 
L 2766 2209 
L 2766 2266 
Q 2766 2663 2505 2880 
Q 2244 3097 1772 3097 
Q 1472 3097 1187 3025 
Q 903 2953 641 2809 
L 641 3341 
Q 956 3463 1253 3523 
Q 1550 3584 1831 3584 
Q 2591 3584 2966 3190 
Q 3341 2797 3341 1997 
z
" transform="scale(0.015625)"/>
       <path id="DejaVuSans-79" d="M 2059 -325 
Q 1816 -950 1584 -1140 
Q 1353 -1331 966 -1331 
L 506 -1331 
L 506 -850 
L 844 -850 
Q 1081 -850 1212 -737 
Q 1344 -625 1503 -206 
L 1606 56 
L 191 3500 
L 800 3500 
L 1894 763 
L 2988 3500 
L 3597 3500 
L 2059 -325 
z
" transform="scale(0.015625)"/>
      </defs>
      <use xlink:href="#DejaVuSans-41"/>
      <use xlink:href="#DejaVuSans-63" x="66.658203"/>
      <use xlink:href="#DejaVuSans-63" x="121.638672"/>
      <use xlink:href="#DejaVuSans-75" x="176.619141"/>
      <use xlink:href="#DejaVuSans-72" x="239.998047"/>
      <use xlink:href="#DejaVuSans-61" x="281.111328"/>
      <use xlink:href="#DejaVuSans-63" x="342.390625"/>
      <use xlink:href="#DejaVuSans-79" x="397.371094"/>
     </g>
    </g>
   </g>
   <g id="line2d_33">
    <path d="M 73.832727 117.050553 
L 90.919809 60.430979 
L 108.00689 53.568 
L 125.093971 74.156936 
L 142.181053 55.283745 
L 159.268134 56.999489 
L 176.355215 69.009702 
L 193.442297 74.156936 
L 210.529378 77.588426 
L 227.616459 86.167149 
L 244.703541 82.73566 
L 261.790622 81.019915 
L 278.877703 77.588426 
L 295.964785 77.588426 
L 313.051866 91.314383 
L 330.138947 86.167149 
L 347.226029 81.019915 
L 364.31311 93.030128 
L 381.400191 89.598638 
L 398.487273 94.745872 
" clip-path="url(#p67915c8d3d)" style="fill: none; stroke: #1f77b4; stroke-width: 1.5; stroke-linecap: square"/>
    <defs>
     <path id="mcd938f93b5" d="M 0 3 
C 0.795609 3 1.55874 2.683901 2.12132 2.12132 
C 2.683901 1.55874 3 0.795609 3 0 
C 3 -0.795609 2.683901 -1.55874 2.12132 -2.12132 
C 1.55874 -2.683901 0.795609 -3 0 -3 
C -0.795609 -3 -1.55874 -2.683901 -2.12132 -2.12132 
C -2.683901 -1.55874 -3 -0.795609 -3 0 
C -3 0.795609 -2.683901 1.55874 -2.12132 2.12132 
C -1.55874 2.683901 -0.795609 3 0 3 
z
" style="stroke: #1f77b4"/>
    </defs>
    <g clip-path="url(#p67915c8d3d)">
     <use xlink:href="#mcd938f93b5" x="73.832727" y="117.050553" style="fill: #1f77b4; stroke: #1f77b4"/>
     <use xlink:href="#mcd938f93b5" x="90.919809" y="60.430979" style="fill: #1f77b4; stroke: #1f77b4"/>
     <use xlink:href="#mcd938f93b5" x="108.00689" y="53.568" style="fill: #1f77b4; stroke: #1f77b4"/>
     <use xlink:href="#mcd938f93b5" x="125.093971" y="74.156936" style="fill: #1f77b4; stroke: #1f77b4"/>
     <use xlink:href="#mcd938f93b5" x="142.181053" y="55.283745" style="fill: #1f77b4; stroke: #1f77b4"/>
     <use xlink:href="#mcd938f93b5" x="159.268134" y="56.999489" style="fill: #1f77b4; stroke: #1f77b4"/>
     <use xlink:href="#mcd938f93b5" x="176.355215" y="69.009702" style="fill: #1f77b4; stroke: #1f77b4"/>
     <use xlink:href="#mcd938f93b5" x="193.442297" y="74.156936" style="fill: #1f77b4; stroke: #1f77b4"/>
     <use xlink:href="#mcd938f93b5" x="210.529378" y="77.588426" style="fill: #1f77b4; stroke: #1f77b4"/>
     <use xlink:href="#mcd938f93b5" x="227.616459" y="86.167149" style="fill: #1f77b4; stroke: #1f77b4"/>
     <use xlink:href="#mcd938f93b5" x="244.703541" y="82.73566" style="fill: #1f77b4; stroke: #1f77b4"/>
     <use xlink:href="#mcd938f93b5" x="261.790622" y="81.019915" style="fill: #1f77b4; stroke: #1f77b4"/>
     <use xlink:href="#mcd938f93b5" x="278.877703" y="77.588426" style="fill: #1f77b4; stroke: #1f77b4"/>
     <use xlink:href="#mcd938f93b5" x="295.964785" y="77.588426" style="fill: #1f77b4; stroke: #1f77b4"/>
     <use xlink:href="#mcd938f93b5" x="313.051866" y="91.314383" style="fill: #1f77b4; stroke: #1f77b4"/>
     <use xlink:href="#mcd938f93b5" x="330.138947" y="86.167149" style="fill: #1f77b4; stroke: #1f77b4"/>
     <use xlink:href="#mcd938f93b5" x="347.226029" y="81.019915" style="fill: #1f77b4; stroke: #1f77b4"/>
     <use xlink:href="#mcd938f93b5" x="364.31311" y="93.030128" style="fill: #1f77b4; stroke: #1f77b4"/>
     <use xlink:href="#mcd938f93b5" x="381.400191" y="89.598638" style="fill: #1f77b4; stroke: #1f77b4"/>
     <use xlink:href="#mcd938f93b5" x="398.487273" y="94.745872" style="fill: #1f77b4; stroke: #1f77b4"/>
    </g>
   </g>
   <g id="line2d_34">
    <path d="M 73.832727 168.522894 
L 90.919809 94.745872 
L 108.00689 130.776511 
L 125.093971 122.197787 
L 142.181053 110.187574 
L 159.268134 108.47183 
L 176.355215 89.598638 
L 193.442297 96.461617 
L 210.529378 82.73566 
L 227.616459 103.324596 
L 244.703541 94.745872 
L 261.790622 87.882894 
L 278.877703 94.745872 
L 295.964785 91.314383 
L 313.051866 101.608851 
L 330.138947 93.030128 
L 347.226029 89.598638 
L 364.31311 84.451404 
L 381.400191 96.461617 
L 398.487273 98.177362 
" clip-path="url(#p67915c8d3d)" style="fill: none; stroke: #ff7f0e; stroke-width: 1.5; stroke-linecap: square"/>
    <defs>
     <path id="m9e1e58504d" d="M 0 3 
C 0.795609 3 1.55874 2.683901 2.12132 2.12132 
C 2.683901 1.55874 3 0.795609 3 0 
C 3 -0.795609 2.683901 -1.55874 2.12132 -2.12132 
C 1.55874 -2.683901 0.795609 -3 0 -3 
C -0.795609 -3 -1.55874 -2.683901 -2.12132 -2.12132 
C -2.683901 -1.55874 -3 -0.795609 -3 0 
C -3 0.795609 -2.683901 1.55874 -2.12132 2.12132 
C -1.55874 2.683901 -0.795609 3 0 3 
z
" style="stroke: #ff7f0e"/>
    </defs>
    <g clip-path="url(#p67915c8d3d)">
     <use xlink:href="#m9e1e58504d" x="73.832727" y="168.522894" style="fill: #ff7f0e; stroke: #ff7f0e"/>
     <use xlink:href="#m9e1e58504d" x="90.919809" y="94.745872" style="fill: #ff7f0e; stroke: #ff7f0e"/>
     <use xlink:href="#m9e1e58504d" x="108.00689" y="130.776511" style="fill: #ff7f0e; stroke: #ff7f0e"/>
     <use xlink:href="#m9e1e58504d" x="125.093971" y="122.197787" style="fill: #ff7f0e; stroke: #ff7f0e"/>
     <use xlink:href="#m9e1e58504d" x="142.181053" y="110.187574" style="fill: #ff7f0e; stroke: #ff7f0e"/>
     <use xlink:href="#m9e1e58504d" x="159.268134" y="108.47183" style="fill: #ff7f0e; stroke: #ff7f0e"/>
     <use xlink:href="#m9e1e58504d" x="176.355215" y="89.598638" style="fill: #ff7f0e; stroke: #ff7f0e"/>
     <use xlink:href="#m9e1e58504d" x="193.442297" y="96.461617" style="fill: #ff7f0e; stroke: #ff7f0e"/>
     <use xlink:href="#m9e1e58504d" x="210.529378" y="82.73566" style="fill: #ff7f0e; stroke: #ff7f0e"/>
     <use xlink:href="#m9e1e58504d" x="227.616459" y="103.324596" style="fill: #ff7f0e; stroke: #ff7f0e"/>
     <use xlink:href="#m9e1e58504d" x="244.703541" y="94.745872" style="fill: #ff7f0e; stroke: #ff7f0e"/>
     <use xlink:href="#m9e1e58504d" x="261.790622" y="87.882894" style="fill: #ff7f0e; stroke: #ff7f0e"/>
     <use xlink:href="#m9e1e58504d" x="278.877703" y="94.745872" style="fill: #ff7f0e; stroke: #ff7f0e"/>
     <use xlink:href="#m9e1e58504d" x="295.964785" y="91.314383" style="fill: #ff7f0e; stroke: #ff7f0e"/>
     <use xlink:href="#m9e1e58504d" x="313.051866" y="101.608851" style="fill: #ff7f0e; stroke: #ff7f0e"/>
     <use xlink:href="#m9e1e58504d" x="330.138947" y="93.030128" style="fill: #ff7f0e; stroke: #ff7f0e"/>
     <use xlink:href="#m9e1e58504d" x="347.226029" y="89.598638" style="fill: #ff7f0e; stroke: #ff7f0e"/>
     <use xlink:href="#m9e1e58504d" x="364.31311" y="84.451404" style="fill: #ff7f0e; stroke: #ff7f0e"/>
     <use xlink:href="#m9e1e58504d" x="381.400191" y="96.461617" style="fill: #ff7f0e; stroke: #ff7f0e"/>
     <use xlink:href="#m9e1e58504d" x="398.487273" y="98.177362" style="fill: #ff7f0e; stroke: #ff7f0e"/>
    </g>
   </g>
   <g id="line2d_35">
    <path d="M 73.832727 194.259064 
L 90.919809 204.553532 
L 108.00689 211.416511 
L 125.093971 204.553532 
L 142.181053 197.690553 
L 159.268134 189.11183 
L 176.355215 187.396085 
L 193.442297 163.37566 
L 210.529378 171.954383 
L 227.616459 173.670128 
L 244.703541 192.543319 
L 261.790622 185.68034 
L 278.877703 192.543319 
L 295.964785 182.248851 
L 313.051866 182.248851 
L 330.138947 171.954383 
L 347.226029 177.101617 
L 364.31311 187.396085 
L 381.400191 192.543319 
L 398.487273 195.974809 
" clip-path="url(#p67915c8d3d)" style="fill: none; stroke: #2ca02c; stroke-width: 1.5; stroke-linecap: square"/>
    <defs>
     <path id="me633929b14" d="M 0 3 
C 0.795609 3 1.55874 2.683901 2.12132 2.12132 
C 2.683901 1.55874 3 0.795609 3 0 
C 3 -0.795609 2.683901 -1.55874 2.12132 -2.12132 
C 1.55874 -2.683901 0.795609 -3 0 -3 
C -0.795609 -3 -1.55874 -2.683901 -2.12132 -2.12132 
C -2.683901 -1.55874 -3 -0.795609 -3 0 
C -3 0.795609 -2.683901 1.55874 -2.12132 2.12132 
C -1.55874 2.683901 -0.795609 3 0 3 
z
" style="stroke: #2ca02c"/>
    </defs>
    <g clip-path="url(#p67915c8d3d)">
     <use xlink:href="#me633929b14" x="73.832727" y="194.259064" style="fill: #2ca02c; stroke: #2ca02c"/>
     <use xlink:href="#me633929b14" x="90.919809" y="204.553532" style="fill: #2ca02c; stroke: #2ca02c"/>
     <use xlink:href="#me633929b14" x="108.00689" y="211.416511" style="fill: #2ca02c; stroke: #2ca02c"/>
     <use xlink:href="#me633929b14" x="125.093971" y="204.553532" style="fill: #2ca02c; stroke: #2ca02c"/>
     <use xlink:href="#me633929b14" x="142.181053" y="197.690553" style="fill: #2ca02c; stroke: #2ca02c"/>
     <use xlink:href="#me633929b14" x="159.268134" y="189.11183" style="fill: #2ca02c; stroke: #2ca02c"/>
     <use xlink:href="#me633929b14" x="176.355215" y="187.396085" style="fill: #2ca02c; stroke: #2ca02c"/>
     <use xlink:href="#me633929b14" x="193.442297" y="163.37566" style="fill: #2ca02c; stroke: #2ca02c"/>
     <use xlink:href="#me633929b14" x="210.529378" y="171.954383" style="fill: #2ca02c; stroke: #2ca02c"/>
     <use xlink:href="#me633929b14" x="227.616459" y="173.670128" style="fill: #2ca02c; stroke: #2ca02c"/>
     <use xlink:href="#me633929b14" x="244.703541" y="192.543319" style="fill: #2ca02c; stroke: #2ca02c"/>
     <use xlink:href="#me633929b14" x="261.790622" y="185.68034" style="fill: #2ca02c; stroke: #2ca02c"/>
     <use xlink:href="#me633929b14" x="278.877703" y="192.543319" style="fill: #2ca02c; stroke: #2ca02c"/>
     <use xlink:href="#me633929b14" x="295.964785" y="182.248851" style="fill: #2ca02c; stroke: #2ca02c"/>
     <use xlink:href="#me633929b14" x="313.051866" y="182.248851" style="fill: #2ca02c; stroke: #2ca02c"/>
     <use xlink:href="#me633929b14" x="330.138947" y="171.954383" style="fill: #2ca02c; stroke: #2ca02c"/>
     <use xlink:href="#me633929b14" x="347.226029" y="177.101617" style="fill: #2ca02c; stroke: #2ca02c"/>
     <use xlink:href="#me633929b14" x="364.31311" y="187.396085" style="fill: #2ca02c; stroke: #2ca02c"/>
     <use xlink:href="#me633929b14" x="381.400191" y="192.543319" style="fill: #2ca02c; stroke: #2ca02c"/>
     <use xlink:href="#me633929b14" x="398.487273" y="195.974809" style="fill: #2ca02c; stroke: #2ca02c"/>
    </g>
   </g>
   <g id="line2d_36">
    <path d="M 73.832727 295.488 
L 90.919809 249.162894 
L 108.00689 213.132255 
L 125.093971 218.279489 
L 142.181053 207.985021 
L 159.268134 221.710979 
L 176.355215 170.238638 
L 193.442297 159.94417 
L 210.529378 161.659915 
L 227.616459 154.796936 
L 244.703541 147.933957 
L 261.790622 149.649702 
L 278.877703 156.512681 
L 295.964785 168.522894 
L 313.051866 158.228426 
L 330.138947 166.807149 
L 347.226029 175.385872 
L 364.31311 165.091404 
L 381.400191 156.512681 
L 398.487273 154.796936 
" clip-path="url(#p67915c8d3d)" style="fill: none; stroke: #d62728; stroke-width: 1.5; stroke-linecap: square"/>
    <defs>
     <path id="mb8ea20cbf5" d="M 0 3 
C 0.795609 3 1.55874 2.683901 2.12132 2.12132 
C 2.683901 1.55874 3 0.795609 3 0 
C 3 -0.795609 2.683901 -1.55874 2.12132 -2.12132 
C 1.55874 -2.683901 0.795609 -3 0 -3 
C -0.795609 -3 -1.55874 -2.683901 -2.12132 -2.12132 
C -2.683901 -1.55874 -3 -0.795609 -3 0 
C -3 0.795609 -2.683901 1.55874 -2.12132 2.12132 
C -1.55874 2.683901 -0.795609 3 0 3 
z
" style="stroke: #d62728"/>
    </defs>
    <g clip-path="url(#p67915c8d3d)">
     <use xlink:href="#mb8ea20cbf5" x="73.832727" y="295.488" style="fill: #d62728; stroke: #d62728"/>
     <use xlink:href="#mb8ea20cbf5" x="90.919809" y="249.162894" style="fill: #d62728; stroke: #d62728"/>
     <use xlink:href="#mb8ea20cbf5" x="108.00689" y="213.132255" style="fill: #d62728; stroke: #d62728"/>
     <use xlink:href="#mb8ea20cbf5" x="125.093971" y="218.279489" style="fill: #d62728; stroke: #d62728"/>
     <use xlink:href="#mb8ea20cbf5" x="142.181053" y="207.985021" style="fill: #d62728; stroke: #d62728"/>
     <use xlink:href="#mb8ea20cbf5" x="159.268134" y="221.710979" style="fill: #d62728; stroke: #d62728"/>
     <use xlink:href="#mb8ea20cbf5" x="176.355215" y="170.238638" style="fill: #d62728; stroke: #d62728"/>
     <use xlink:href="#mb8ea20cbf5" x="193.442297" y="159.94417" style="fill: #d62728; stroke: #d62728"/>
     <use xlink:href="#mb8ea20cbf5" x="210.529378" y="161.659915" style="fill: #d62728; stroke: #d62728"/>
     <use xlink:href="#mb8ea20cbf5" x="227.616459" y="154.796936" style="fill: #d62728; stroke: #d62728"/>
     <use xlink:href="#mb8ea20cbf5" x="244.703541" y="147.933957" style="fill: #d62728; stroke: #d62728"/>
     <use xlink:href="#mb8ea20cbf5" x="261.790622" y="149.649702" style="fill: #d62728; stroke: #d62728"/>
     <use xlink:href="#mb8ea20cbf5" x="278.877703" y="156.512681" style="fill: #d62728; stroke: #d62728"/>
     <use xlink:href="#mb8ea20cbf5" x="295.964785" y="168.522894" style="fill: #d62728; stroke: #d62728"/>
     <use xlink:href="#mb8ea20cbf5" x="313.051866" y="158.228426" style="fill: #d62728; stroke: #d62728"/>
     <use xlink:href="#mb8ea20cbf5" x="330.138947" y="166.807149" style="fill: #d62728; stroke: #d62728"/>
     <use xlink:href="#mb8ea20cbf5" x="347.226029" y="175.385872" style="fill: #d62728; stroke: #d62728"/>
     <use xlink:href="#mb8ea20cbf5" x="364.31311" y="165.091404" style="fill: #d62728; stroke: #d62728"/>
     <use xlink:href="#mb8ea20cbf5" x="381.400191" y="156.512681" style="fill: #d62728; stroke: #d62728"/>
     <use xlink:href="#mb8ea20cbf5" x="398.487273" y="154.796936" style="fill: #d62728; stroke: #d62728"/>
    </g>
   </g>
   <g id="patch_3">
    <path d="M 57.6 307.584 
L 57.6 41.472 
" style="fill: none; stroke: #000000; stroke-width: 0.8; stroke-linejoin: miter; stroke-linecap: square"/>
   </g>
   <g id="patch_4">
    <path d="M 414.72 307.584 
L 414.72 41.472 
" style="fill: none; stroke: #000000; stroke-width: 0.8; stroke-linejoin: miter; stroke-linecap: square"/>
   </g>
   <g id="patch_5">
    <path d="M 57.6 307.584 
L 414.72 307.584 
" style="fill: none; stroke: #000000; stroke-width: 0.8; stroke-linejoin: miter; stroke-linecap: square"/>
   </g>
   <g id="patch_6">
    <path d="M 57.6 41.472 
L 414.72 41.472 
" style="fill: none; stroke: #000000; stroke-width: 0.8; stroke-linejoin: miter; stroke-linecap: square"/>
   </g>
   <g id="text_19">
    <!-- Test Accuracy Trend for Different Classes and CSP Components -->
    <g transform="translate(47.183437 35.472) scale(0.12 -0.12)">
     <defs>
      <path id="DejaVuSans-54" d="M -19 4666 
L 3928 4666 
L 3928 4134 
L 2272 4134 
L 2272 0 
L 1638 0 
L 1638 4134 
L -19 4134 
L -19 4666 
z
" transform="scale(0.015625)"/>
      <path id="DejaVuSans-64" d="M 2906 2969 
L 2906 4863 
L 3481 4863 
L 3481 0 
L 2906 0 
L 2906 525 
Q 2725 213 2448 61 
Q 2172 -91 1784 -91 
Q 1150 -91 751 415 
Q 353 922 353 1747 
Q 353 2572 751 3078 
Q 1150 3584 1784 3584 
Q 2172 3584 2448 3432 
Q 2725 3281 2906 2969 
z
M 947 1747 
Q 947 1113 1208 752 
Q 1469 391 1925 391 
Q 2381 391 2643 752 
Q 2906 1113 2906 1747 
Q 2906 2381 2643 2742 
Q 2381 3103 1925 3103 
Q 1469 3103 1208 2742 
Q 947 2381 947 1747 
z
" transform="scale(0.015625)"/>
      <path id="DejaVuSans-44" d="M 1259 4147 
L 1259 519 
L 2022 519 
Q 2988 519 3436 956 
Q 3884 1394 3884 2338 
Q 3884 3275 3436 3711 
Q 2988 4147 2022 4147 
L 1259 4147 
z
M 628 4666 
L 1925 4666 
Q 3281 4666 3915 4102 
Q 4550 3538 4550 2338 
Q 4550 1131 3912 565 
Q 3275 0 1925 0 
L 628 0 
L 628 4666 
z
" transform="scale(0.015625)"/>
      <path id="DejaVuSans-69" d="M 603 3500 
L 1178 3500 
L 1178 0 
L 603 0 
L 603 3500 
z
M 603 4863 
L 1178 4863 
L 1178 4134 
L 603 4134 
L 603 4863 
z
" transform="scale(0.015625)"/>
      <path id="DejaVuSans-6c" d="M 603 4863 
L 1178 4863 
L 1178 0 
L 603 0 
L 603 4863 
z
" transform="scale(0.015625)"/>
     </defs>
     <use xlink:href="#DejaVuSans-54"/>
     <use xlink:href="#DejaVuSans-65" x="44.083984"/>
     <use xlink:href="#DejaVuSans-73" x="105.607422"/>
     <use xlink:href="#DejaVuSans-74" x="157.707031"/>
     <use xlink:href="#DejaVuSans-20" x="196.916016"/>
     <use xlink:href="#DejaVuSans-41" x="228.703125"/>
     <use xlink:href="#DejaVuSans-63" x="295.361328"/>
     <use xlink:href="#DejaVuSans-63" x="350.341797"/>
     <use xlink:href="#DejaVuSans-75" x="405.322266"/>
     <use xlink:href="#DejaVuSans-72" x="468.701172"/>
     <use xlink:href="#DejaVuSans-61" x="509.814453"/>
     <use xlink:href="#DejaVuSans-63" x="571.09375"/>
     <use xlink:href="#DejaVuSans-79" x="626.074219"/>
     <use xlink:href="#DejaVuSans-20" x="685.253906"/>
     <use xlink:href="#DejaVuSans-54" x="717.041016"/>
     <use xlink:href="#DejaVuSans-72" x="763.375"/>
     <use xlink:href="#DejaVuSans-65" x="802.238281"/>
     <use xlink:href="#DejaVuSans-6e" x="863.761719"/>
     <use xlink:href="#DejaVuSans-64" x="927.140625"/>
     <use xlink:href="#DejaVuSans-20" x="990.617188"/>
     <use xlink:href="#DejaVuSans-66" x="1022.404297"/>
     <use xlink:href="#DejaVuSans-6f" x="1057.609375"/>
     <use xlink:href="#DejaVuSans-72" x="1118.791016"/>
     <use xlink:href="#DejaVuSans-20" x="1159.904297"/>
     <use xlink:href="#DejaVuSans-44" x="1191.691406"/>
     <use xlink:href="#DejaVuSans-69" x="1268.693359"/>
     <use xlink:href="#DejaVuSans-66" x="1296.476562"/>
     <use xlink:href="#DejaVuSans-66" x="1331.681641"/>
     <use xlink:href="#DejaVuSans-65" x="1366.886719"/>
     <use xlink:href="#DejaVuSans-72" x="1428.410156"/>
     <use xlink:href="#DejaVuSans-65" x="1467.273438"/>
     <use xlink:href="#DejaVuSans-6e" x="1528.796875"/>
     <use xlink:href="#DejaVuSans-74" x="1592.175781"/>
     <use xlink:href="#DejaVuSans-20" x="1631.384766"/>
     <use xlink:href="#DejaVuSans-43" x="1663.171875"/>
     <use xlink:href="#DejaVuSans-6c" x="1732.996094"/>
     <use xlink:href="#DejaVuSans-61" x="1760.779297"/>
     <use xlink:href="#DejaVuSans-73" x="1822.058594"/>
     <use xlink:href="#DejaVuSans-73" x="1874.158203"/>
     <use xlink:href="#DejaVuSans-65" x="1926.257812"/>
     <use xlink:href="#DejaVuSans-73" x="1987.78125"/>
     <use xlink:href="#DejaVuSans-20" x="2039.880859"/>
     <use xlink:href="#DejaVuSans-61" x="2071.667969"/>
     <use xlink:href="#DejaVuSans-6e" x="2132.947266"/>
     <use xlink:href="#DejaVuSans-64" x="2196.326172"/>
     <use xlink:href="#DejaVuSans-20" x="2259.802734"/>
     <use xlink:href="#DejaVuSans-43" x="2291.589844"/>
     <use xlink:href="#DejaVuSans-53" x="2361.414062"/>
     <use xlink:href="#DejaVuSans-50" x="2424.890625"/>
     <use xlink:href="#DejaVuSans-20" x="2485.193359"/>
     <use xlink:href="#DejaVuSans-43" x="2516.980469"/>
     <use xlink:href="#DejaVuSans-6f" x="2586.804688"/>
     <use xlink:href="#DejaVuSans-6d" x="2647.986328"/>
     <use xlink:href="#DejaVuSans-70" x="2745.398438"/>
     <use xlink:href="#DejaVuSans-6f" x="2808.875"/>
     <use xlink:href="#DejaVuSans-6e" x="2870.056641"/>
     <use xlink:href="#DejaVuSans-65" x="2933.435547"/>
     <use xlink:href="#DejaVuSans-6e" x="2994.958984"/>
     <use xlink:href="#DejaVuSans-74" x="3058.337891"/>
     <use xlink:href="#DejaVuSans-73" x="3097.546875"/>
    </g>
   </g>
   <g id="legend_1">
    <g id="patch_7">
     <path d="M 340.016875 302.584 
L 407.72 302.584 
Q 409.72 302.584 409.72 300.584 
L 409.72 242.8715 
Q 409.72 240.8715 407.72 240.8715 
L 340.016875 240.8715 
Q 338.016875 240.8715 338.016875 242.8715 
L 338.016875 300.584 
Q 338.016875 302.584 340.016875 302.584 
z
" style="fill: #ffffff; opacity: 0.8; stroke: #cccccc; stroke-linejoin: miter"/>
    </g>
    <g id="line2d_37">
     <path d="M 342.016875 248.969937 
L 352.016875 248.969937 
L 362.016875 248.969937 
" style="fill: none; stroke: #1f77b4; stroke-width: 1.5; stroke-linecap: square"/>
     <g>
      <use xlink:href="#mcd938f93b5" x="352.016875" y="248.969937" style="fill: #1f77b4; stroke: #1f77b4"/>
     </g>
    </g>
    <g id="text_20">
     <!-- Hand -->
     <g transform="translate(370.016875 252.469937) scale(0.1 -0.1)">
      <defs>
       <path id="DejaVuSans-48" d="M 628 4666 
L 1259 4666 
L 1259 2753 
L 3553 2753 
L 3553 4666 
L 4184 4666 
L 4184 0 
L 3553 0 
L 3553 2222 
L 1259 2222 
L 1259 0 
L 628 0 
L 628 4666 
z
" transform="scale(0.015625)"/>
      </defs>
      <use xlink:href="#DejaVuSans-48"/>
      <use xlink:href="#DejaVuSans-61" x="75.195312"/>
      <use xlink:href="#DejaVuSans-6e" x="136.474609"/>
      <use xlink:href="#DejaVuSans-64" x="199.853516"/>
     </g>
    </g>
    <g id="line2d_38">
     <path d="M 342.016875 263.648062 
L 352.016875 263.648062 
L 362.016875 263.648062 
" style="fill: none; stroke: #ff7f0e; stroke-width: 1.5; stroke-linecap: square"/>
     <g>
      <use xlink:href="#m9e1e58504d" x="352.016875" y="263.648062" style="fill: #ff7f0e; stroke: #ff7f0e"/>
     </g>
    </g>
    <g id="text_21">
     <!-- Feet -->
     <g transform="translate(370.016875 267.148062) scale(0.1 -0.1)">
      <defs>
       <path id="DejaVuSans-46" d="M 628 4666 
L 3309 4666 
L 3309 4134 
L 1259 4134 
L 1259 2759 
L 3109 2759 
L 3109 2228 
L 1259 2228 
L 1259 0 
L 628 0 
L 628 4666 
z
" transform="scale(0.015625)"/>
      </defs>
      <use xlink:href="#DejaVuSans-46"/>
      <use xlink:href="#DejaVuSans-65" x="52.019531"/>
      <use xlink:href="#DejaVuSans-65" x="113.542969"/>
      <use xlink:href="#DejaVuSans-74" x="175.066406"/>
     </g>
    </g>
    <g id="line2d_39">
     <path d="M 342.016875 278.326187 
L 352.016875 278.326187 
L 362.016875 278.326187 
" style="fill: none; stroke: #2ca02c; stroke-width: 1.5; stroke-linecap: square"/>
     <g>
      <use xlink:href="#me633929b14" x="352.016875" y="278.326187" style="fill: #2ca02c; stroke: #2ca02c"/>
     </g>
    </g>
    <g id="text_22">
     <!-- Tongue -->
     <g transform="translate(370.016875 281.826187) scale(0.1 -0.1)">
      <defs>
       <path id="DejaVuSans-67" d="M 2906 1791 
Q 2906 2416 2648 2759 
Q 2391 3103 1925 3103 
Q 1463 3103 1205 2759 
Q 947 2416 947 1791 
Q 947 1169 1205 825 
Q 1463 481 1925 481 
Q 2391 481 2648 825 
Q 2906 1169 2906 1791 
z
M 3481 434 
Q 3481 -459 3084 -895 
Q 2688 -1331 1869 -1331 
Q 1566 -1331 1297 -1286 
Q 1028 -1241 775 -1147 
L 775 -588 
Q 1028 -725 1275 -790 
Q 1522 -856 1778 -856 
Q 2344 -856 2625 -561 
Q 2906 -266 2906 331 
L 2906 616 
Q 2728 306 2450 153 
Q 2172 0 1784 0 
Q 1141 0 747 490 
Q 353 981 353 1791 
Q 353 2603 747 3093 
Q 1141 3584 1784 3584 
Q 2172 3584 2450 3431 
Q 2728 3278 2906 2969 
L 2906 3500 
L 3481 3500 
L 3481 434 
z
" transform="scale(0.015625)"/>
      </defs>
      <use xlink:href="#DejaVuSans-54"/>
      <use xlink:href="#DejaVuSans-6f" x="44.083984"/>
      <use xlink:href="#DejaVuSans-6e" x="105.265625"/>
      <use xlink:href="#DejaVuSans-67" x="168.644531"/>
      <use xlink:href="#DejaVuSans-75" x="232.121094"/>
      <use xlink:href="#DejaVuSans-65" x="295.5"/>
     </g>
    </g>
    <g id="line2d_40">
     <path d="M 342.016875 293.004312 
L 352.016875 293.004312 
L 362.016875 293.004312 
" style="fill: none; stroke: #d62728; stroke-width: 1.5; stroke-linecap: square"/>
     <g>
      <use xlink:href="#mb8ea20cbf5" x="352.016875" y="293.004312" style="fill: #d62728; stroke: #d62728"/>
     </g>
    </g>
    <g id="text_23">
     <!-- Mis -->
     <g transform="translate(370.016875 296.504312) scale(0.1 -0.1)">
      <defs>
       <path id="DejaVuSans-4d" d="M 628 4666 
L 1569 4666 
L 2759 1491 
L 3956 4666 
L 4897 4666 
L 4897 0 
L 4281 0 
L 4281 4097 
L 3078 897 
L 2444 897 
L 1241 4097 
L 1241 0 
L 628 0 
L 628 4666 
z
" transform="scale(0.015625)"/>
      </defs>
      <use xlink:href="#DejaVuSans-4d"/>
      <use xlink:href="#DejaVuSans-69" x="86.279297"/>
      <use xlink:href="#DejaVuSans-73" x="114.0625"/>
     </g>
    </g>
   </g>
  </g>
 </g>
 <defs>
  <clipPath id="p67915c8d3d">
   <rect x="57.6" y="41.472" width="357.12" height="266.112"/>
  </clipPath>
 </defs>
</svg>
